<svg
   viewBox="-702 0 1018.7999 1542.9653"
   version="1.2"
   id="svg10"
   xmlns="http://www.w3.org/2000/svg"
   xmlns:svg="http://www.w3.org/2000/svg"><defs
   id="defs14" />
<g
   id="g8"
   transform="translate(-140.06799,-1.0147001)">
  <path
     fill="#000000"
     d="m 255.98,1313.53 v 0 l -0.299,-1.34 -1.548,-2.09 -2.036,-0.08 -2.57,18.71 -1.396,5.71 -0.151,3.47 -12.97,2.57 0.043,0.48 6.453,2.03 6.99,-0.01 1.804,-0.82 2.309,-7.55 3.26,-15.05 M 338.298,1.22987 v 0 l -36.92,1.96383 -89.665,2.72921 -47.559,2.10257 -16.341,2.58362 -27.238,7.182 -3.738,1.8994 -1.693,2.7545 0.383,1.3841 6.236,-2.1997 9.705,-2.4646 0.515,1.339 -3.302,28.3269 -3.804,58.7403 -0.848,3.929 2.055,6.642 5.492,3.068 17.99,4.785 18.871,1.873 3.066,-0.853 17.99,-0.001 22.94,4.313 11.819,1.716 80.368,2.993 45.127,3.811 10.882,1.397 38.878,2.742 h 25.987 l 11.079,-2.882 1.591,-0.802 3.121,-3.112 1.922,-2.914 3.579,-23.896 3.38,-10.4897 2.71,-20.1688 1.993,-8.16 0.116,-9.058 -0.97,-3.007 -0.014,-9.9967 0.147,-2.0258 0.821,-1.974 -0.796,-2.0328 0.743,-1.9969 1.952,-16.9062 -1.619,-4.789 -1.065,-1.0635 -6.939,-3.942 -8.948,-2.1393 L 412.844,10.0338 399.693,6.79146 381.014,3.73991 340.492,1.0147 M 267.535,1136.98 v 0 l -18.295,-2.05 -52.652,-2.53 -16.088,-1.4 -40.993,0.01 -39.099,3.44 -22.9148,2.54 -40.9898,-0.01 -1.9775,-0.83 -3.0192,-0.14 -19.0135,1.98 h -25.9866 l -22.0135,-2.98 h -41.9896 l -3.0669,0.86 -31.9366,-2.87 -9.993,0.01 -32.014,2.98 -4.019,-0.14 -1.974,-0.82 -3.004,0.95 -39.989,0.01 -40.014,-2.98 h -9.99 l -3.007,0.97 -15.99,0.01 -12.224,-3.09 -12.789,-1.89 -2.019,0.14 -1.978,0.83 -13.058,-0.11 -19.951,-5.18 -43.029,-7.36 -8.897,-2.2 -3.087,0.02 -1.978,0.83 -2.048,-0.12 2.104,-1.72 -3.078,0.01 -1.978,0.83 -3.051,-0.12 3.258,-1.59 -1.209,-0.25 -60.425,1.88 -46.515,2.21 -6.054,0.89 -10.026,-0.15 -1.948,-1.7 -1.026,-0.12 -3.004,0.95 -6.059,-0.11 -23.876,-4.74 -2.087,0.02 -1.182,1.14 2.18,1.53 1.07,-0.66 12.389,1.83 3.069,1.09 9.438,1.79 5.058,0.11 3.031,-0.82 1.947,1.69 2.026,0.15 8.993,-0.01 5.12,-0.97 58.894,-4.01 h 16.989 l 1.978,0.84 4.026,0.15 3.026,-0.15 1.977,-0.84 h 13.99 l 27.283,5.41 43.097,7.43 19.565,5.02 13.058,0.11 1.978,-0.83 2.019,-0.14 12.657,1.92 6.313,1.9 1.066,-0.65 2.917,1.68 1.056,0.11 3.001,-0.96 h 9.993 l 1.978,0.84 2.022,0.13 3.007,-0.96 9.99,-0.01 40.014,2.98 40.989,-0.01 3.031,-0.82 0.947,0.69 4.019,0.14 32.014,-2.98 9.993,-0.01 31.9365,2.87 3.067,-0.86 h 41.9895 l 22.0135,2.98 h 27.9864 l 72.7065,-2.04 57.3076,-4.94 31.993,-0.01 26.879,2.11 52.172,2.53 14.655,1.94 10.051,2.03 7.214,2.22 0.383,-0.98 -7.592,-4.07 -9.702,-2.65 M 233.543,1314 v 0 l -4.04,0.02 -1.977,0.83 -2.026,0.15 -4.997,-0.02 -1.977,-0.83 h -2.052 l -1.337,1.36 0.011,0.66 6.289,2.69 1.127,0.01 11.581,-1.94 1.827,-1.37 -0.132,-1.09 M 315.478,82.0216 v 0 l 9.547,-9.5209 0.804,-0.0271 -0.112,1.298 -7.578,18.669 0.358,1.5393 1.545,0.9051 6.284,-13.6591 2.54,-6.6674 0.172,-2.5024 6.652,-1.8462 -0.717,-1.2056 -4.824,-2.4817 1.837,-16.0294 -0.135,-6.0195 -1.349,-1.2715 -2.325,3.2691 0.666,1.0013 -0.001,1.0546 -0.685,0.9456 v 1.0546 l 0.683,1.0143 -1.84,11.7082 -0.976,2.6745 -1.585,-0.06 -3.88,-1.7301 -4.087,0.0232 -0.315,1.3699 0.869,1.4661 5.202,2.4705 -17.756,17.5589 -3.674,2.6658 -1.759,-11.146 -0.756,-0.7473 -9.215,-1.8859 1.794,-3.3553 0.122,-2.0504 -0.481,-1.4844 -0.977,-0.8708 -1.03,-0.1334 -7.055,0.1191 -5.886,2.7218 -2.029,-0.7082 -3.085,-0.0136 -6.667,2.5395 -5.96,3.0394 -6.004,4.0018 -1.099,1.1014 -2.568,4.6287 0.015,1.0839 3.652,3.7559 2.94,1.9434 4.689,1.6393 6.086,-0.0261 0.334,-0.9819 -1.914,-1.3397 -8.169,-3.2713 -3.574,-2.7508 4.608,-4.7827 3.004,-2.0019 5.927,-3.0334 3.698,-1.5441 1.485,-0.1051 2.059,9.4525 1.732,2.7071 2.095,2.0947 6.663,4.5665 3.051,-0.0137 -0.598,-1.9713 -2.399,-1.8437 -7.03,-7.0409 -0.482,-1.4853 0.134,-5.0205 0.675,-0.7675 5.617,-2.5742 3.087,0.0232 0.314,1.3698 -0.694,0.9466 v 3.0524 l 1.385,1.5004 9.425,3.0214 0.027,5.4484 -0.97,3.007 0.133,4.0228 2.324,2.3157 1.055,1e-4 8.663,-6.5572 M 269.715,1281.67 v 0 l 0.805,-0.5 5.67,3.54 6.098,6.11 2.031,3.92 1.667,4.77 -0.118,11.05 -2.499,9.64 -4.077,9.98 -6.004,10 -3.13,3.29 0.339,1.51 0.977,0.87 1.026,0.12 1.482,-0.47 2.303,-2.31 5.002,-8 4.916,-9.74 3.666,-12.89 0.117,-14.05 -1.668,-4.77 -2.032,-3.93 -2.001,-3 -3.095,-3.1 -7.005,-5 -4.63,-2.57 -1.535,0.36 -0.843,1.03 M 289.543,131 v 0 l -36.037,-0.014 -29.423,-1.958 -11.896,-1.787 -21.694,-4.227 -18.99,0.001 -3.066,0.853 -18.185,-1.857 -15.761,-3.765 -4.65,-1.934 -1.703,-2.758 -0.124,-4.047 0.858,-4.925 2.081,-45.3204 4.111,-40.2647 15.942,-5.0957 13.149,-1.8747 47.574,-2.10515 87.451,-2.71851 36.327,-2.18909 5.986,-10e-6 38.256,2.68578 17.773,3.00158 12.531,3.3145 25.587,2.684 9.621,2.0823 4.922,2.9294 1.668,1.7624 0.135,12.0199 -2.826,14.965 0.825,2.0449 -0.117,21.058 -1.963,8.7168 -1.92,16.356 -2.203,5.9617 -2.217,9.322 -2.367,18.374 -3.252,3.764 -11.386,3.812 -23.053,0.118 -40.007,-2.882 -10.098,-1.311 -42.313,-3.529 -7.596,-1.25 M 221.5,1331.13 v 0 l -2.365,1.74 1.401,2.16 7.905,2.84 h 7.119 l 4.13,-1.64 -1.908,-1.24 -8.247,-1.97 -0.392,-1.58 1.713,-2.88 v -1.12 l -2.332,-3.29 -8.079,-0.01 -2.922,1.85 -0.358,1.54 0.307,0.31 3.054,0.01 1.978,-0.84 2.992,0.01 1.346,0.45 0.009,2.06 -1.325,1.32 m 1.982,-31.87 v 0 l -4.953,2.88 -1.398,-0.33 -0.141,-1.03 0.121,-3.05 1.578,-2.64 4.304,-4.31 1.506,-0.34 0.759,0.55 1.571,-2.16 -0.353,-1.53 -0.976,-0.87 -3.08,-0.01 -2.636,1.57 -3.095,3.1 -3.577,5.64 0.01,6.08 1.662,1.75 2.633,1.58 h 1.117 l 5.616,-2.57 1.129,-1 2.641,7.27 1.543,1.3 0.704,-0.56 2.806,-22.8 -0.102,-2.63 -2.369,-1.69 -1.734,1.54 -1.818,9.13 M 369.478,83.0204 v 0 l 1.807,-1.8303 1.43,-2.3803 4.813,-4.8328 2.662,-1.6921 8.834,-8.7842 0.814,-0.0247 0.031,5.086 -4.737,18.8774 0.129,11.2613 1.881,-3.5393 2.225,-6.8756 2.955,-12.7913 3.664,-25.0012 -0.002,-4.9898 -0.506,-1.3266 -2.748,1.6187 -2.52,8.6277 -3.925,6.7669 -7.095,7.0947 -2.663,1.6921 -7.812,7.8331 -1.408,2.3566 -2.066,1.5245 1.626,2.2044 1.661,-0.0462 M 133.456,1333.15 v 0 l 1.525,-0.64 1.835,-1.8 7.265,-3.58 2.996,11.84 1.766,-0.44 0.019,-10.08 -1.577,-2.64 -1.759,-1.66 -4.08,-0.01 -9.406,5.77 -1.875,-5.37 0.678,-1.01 -0.008,-1.06 -2.361,-0.32 -1.316,1.32 -0.022,1.09 2.633,9.68 0.707,0.6 h 1.051 M 222.278,85.1869 v 0 l -3.14,5.2592 0.011,2.0799 1.894,1.3589 8.819,-15.3309 0.121,-2.05 -0.454,-1.339 -1.816,0.6515 m 3.974,-23.1256 v 0 l 2.205,-1.5541 -0.042,-1.665 -0.649,-0.9718 0.596,-1.0021 -0.798,-0.5232 -1.994,-3.9102 -1.536,0.095 -0.453,1.3442 0.122,4.0503 m 10.317,52.269 v 0 l 1.775,-0.581 3.426,-12.4454 4.67,-11.5407 2.946,-8.7767 2.7,-13.0301 -2.244,-2.1974 -4.371,17.9888 -5.682,13.5314 -3.543,10.6675 -0.116,5.0565 M 215.503,581.145 v 0 l -0.97,0.709 -2.033,0.145 h -79 l -82.0037,-1.969 -3.0001,0.955 -33.9966,0.014 -59.0066,-2.985 h -48.9863 l -64.1387,4.581 -61.537,6.765 -45.7,4.138 -27.682,4.197 -24.956,6.291 h -17.987 l -21.326,-4.178 -10.669,-1.181 -59.018,-3.613 h -19.986 l -38.698,1.996 -8.316,0.976 -9.99,-10e-4 -1.977,-0.837 -3.026,-0.148 -8.997,0.015 -3.007,0.97 h -20.993 l -2.042,-0.82 -5.922,1.67 -1.013,-0.687 -2.089,-0.019 -9.369,1.955 0.951,1.418 1.485,0.483 h 11.992 l 1.978,-0.837 2.026,-0.146 2.026,0.146 1.977,0.837 14.997,0.014 78.007,-2.985 h 23.986 l 43.105,2.681 21.123,1.995 21.717,4.179 5.705,0.238 2.713,3.784 0.596,0.079 1.391,-0.443 0.18,-2.439 14.768,-2.551 18.433,-4.777 19.889,-3.062 18.013,-2.054 37.418,-3.242 62.864,-6.809 38.144,-2.813 33.9548,-1.766 25.9935,-0.013 39.9797,1.973 166.027,3.012 25.993,0.013 73.812,-1.815 0.536,-0.658 0.138,-1.418 -23.493,-2.094 M 203.569,69.8624 v 0 l -1.55,0.632 -3.041,3.0331 -1.491,2.5364 -1.742,4.4228 -1.605,7.074 2.941,5.5843 1.912,1.3173 2.453,1.3999 7.08,-0.0108 1.271,-1.3484 -0.552,-0.731 -8.376,-2.8493 -1.731,-2.369 v -6.1076 l 2.612,-5.6704 2.777,-2.7971 2.048,-1.1685 4.864,-1.6728 1.361,0.3574 -0.301,0.4806 -7.35,7.4986 0.323,2.3686 2.082,0.0195 2.636,-1.5772 5.059,-5.0597 1.611,-3.6649 -0.004,-1.1166 -1.848,-2.9202 -1.512,-0.5082 -4.055,0.1191 M 146.862,999.183 v 0 l 2.24,15.947 2.37,1.69 1.379,-1.29 0.135,-6.02 -2.187,-28.618 -1.293,-0.751 -0.739,0.62 -2.688,10.939 -1.613,3.28 -1.919,1.991 -1.529,-0.469 -1.041,-1.03 -2.829,-3.946 0.009,-6.054 1.347,-0.455 2.019,0.132 2.377,3.763 1.955,-2.357 0.001,-1.111 -1.571,-2.634 -1.759,-1.662 h -5.052 l -3.326,3.326 v 8.052 l 2.567,3.664 4.758,4.66 h 4.053 m -58.5108,318.61 v 0 l 0.1418,4.07 1.3469,0.45 2.0501,-0.12 6.6361,-4.58 3.3149,-3.08 0.4786,2.3 -0.8258,3.03 1.3142,1.31 1.055,-0.01 0.546,-0.96 3.737,-3.16 9.664,-6.56 2.047,0.01 0.218,0.56 -1.598,8.15 -2.001,5.57 0.177,1.28 2.847,-1.84 1.013,-1.55 2.693,-11.77 -0.019,-2.09 -2.385,-2.3 -7.652,3.54 -7.319,5.09 -0.48,-3.3 0.82,-3.03 -2.361,-0.32 -6.2841,6.13 -6.6665,4.54 -0.3853,-0.98 1.5724,-1.55 -0.5523,-0.76 -0.019,-1.09 2.5394,-6.63 2.1205,-3.31 -2.2963,-2.3 -0.7308,0.55 M 163.999,71.5435 v 0 l 0.016,-7.04 0.827,-3.031 -1.34,-1.2704 -2.191,2.5126 -0.296,-1.2202 0.119,-4.0531 2.573,-5.6181 7.066,-5.0703 5.673,-2.6151 8.08,0.0107 3.732,3.6402 2.728,10.7178 -0.117,3.0554 -1.578,6.9728 -1.769,5.3767 -1.214,2.2513 -5.749,2.7029 -5.053,0.1199 -3.696,-1.7008 -2.284,-2.1362 -2.022,-0.1319 -1.347,0.4556 -0.008,2.0513 4.626,3.7258 3.666,1.6163 3.053,0.1201 6.473,-2.477 4.217,-2.2204 1.103,-1.1036 1.853,-3.629 2.729,-11.9938 0.13,-3.0624 -1.915,-9.1934 -2.922,-5.6155 -4.608,-2.5529 -8.113,-0.0035 -7.408,3.3613 -5.223,3.2195 -3.108,3.1146 -0.892,1.7458 -1.781,5.9245 1.741,5.1946 0.738,-0.4932 0.476,1.3022 0.001,7.9929 -0.97,3.007 -10e-4,9.9897 2.018,13.8696 1.402,2.6132 1.409,-0.448 0.143,-7.0212 -1.972,-15.0136 10e-4,-3.9897 0.837,-1.9769 M 106.464,999.015 v 0 l 9.096,-0.148 4.685,-1.639 0.576,-0.758 -1.538,-2.178 -0.785,0.506 -2.002,-0.783 -6.989,-10e-4 -10.0137,1.972 -7.9899,-0.002 -1.3266,-0.506 4.5382,-6.668 3.5698,-3.62 3.0002,-4 14.002,-21.005 2.575,-4.631 -0.011,-3.078 -3.9,-2.525 -1.897,-2.87 -1.583,0.069 -1.975,0.835 -6.996,-0.985 -3.0263,0.148 -1.9774,0.837 h -8.9907 l -3.9777,-1.808 -2.3702,2.295 0.3623,1.53 1.3021,0.843 23.9189,1.918 -6.237,13.203 -13.791,22.848 -4.5694,8.631 0.0155,1.081 3.2865,2.334 1.0599,0.13 h 8.9878 m 9.0287,-33.2 v 0 l -0.027,-0.593 m 95.538,320.163 v 0 l 1.415,-1.34 6.048,-0.01 3.004,0.96 1.343,-0.44 0.008,-3.05 -3.297,-2.34 -2.08,0.01 -1.978,0.83 -7.473,0.07 -6.893,29.39 -0.113,2.06 0.455,1.34 2.541,-0.37 1.14,-2.76 m 127.128,8.48 v 0 l 3.407,-4.9 0.164,2.24 -0.704,0.94 -0.133,1.03 0.133,3.03 1.324,1.31 h 1.055 l 3.663,-2.56 3.619,-3.57 2.663,-1.69 1.727,-1.71 2.238,13.53 2.373,3.44 2.635,1.58 2.049,0.12 3.698,-1.7 4.831,-3.81 4.839,-6.92 0.122,-2.04 -0.296,-1.31 -2.164,-3.05 -3.021,-0.13 -1.511,0.5 -3.854,5.93 0.01,4.08 1.651,1.97 -1.609,1.78 -2.635,1.58 -1.084,-0.02 -1.604,-0.91 -1.723,-2.38 0.655,-2.05 -0.597,-1 1.827,-1.85 -2.013,-2.1 0.131,-3.08 0.691,-1.01 -1.897,-7.42 -1.498,0.1 -2.633,1.58 -8.08,6.03 -1.563,-4.21 0.685,-1.01 -0.01,-2.06 -1.346,-0.45 -2.023,0.13 -3.758,3.66 -2.694,3.97 -1.985,-7.24 -1.536,-1.34 -1.352,1.27 -0.133,1.03 0.133,15.03 1.352,1.27 1.633,-0.87 m -145.808,-3.68 v 0 l 0.541,2.31 -2.836,15.94 0.467,1.48 1,0.82 0.757,-0.59 0.92,-2.58 2.812,-16.14 -0.002,-2.99 -0.454,-1.34 -1.575,-0.08 M 402.999,56.457 v 0 l -0.128,2.1009 -2.74,10.8806 0.017,5.0875 0.703,0.9458 0.284,1.7516 0.895,0.634 13.91,2.2553 -1.926,6.3937 10e-4,7.99 0.481,1.4823 0.808,0.7341 2.079,-6.4345 2.623,-11.2161 10.348,-2.8515 2.123,-1.205 0.358,-1.5346 -3.329,-0.4572 -7.973,1.8229 -0.37,-0.3156 -0.15,-4.0144 1.855,-19.9435 -0.365,-1.5431 -0.976,-0.8623 -1.731,0.5618 -1.635,8.7393 0.824,2.0445 -0.114,4.0591 -1.962,10.2862 -0.701,1.0193 -9.705,0.1167 -1.484,-0.4822 -0.871,-0.9763 -0.017,-3.0879 2.286,-10.2091 2.453,-14.6668 -0.187,-3.3674 -2.171,-2.0598 -0.772,0.6596 -2.611,11.6426 M 113.521,954.952 v 0 l -7.028,9.847 -0.349,-1.354 4.809,-9.366 2.57,0.083 M 60.5214,1324.02 v 0 l -1.8063,-1.83 -1.5773,-2.64 -0.0036,-3.11 1.5469,-3.7 4.0338,-6.93 7.303,-8.31 3.1412,-0.39 1.5482,1.6 0.7923,-0.74 0.1758,-0.77 -2.1517,-3.05 h -4.0501 l -9.7586,9.66 -4.9226,8.74 -1.6551,6.01 1.6342,4.69 1.9435,2.94 2.101,2.1 13.6299,6.57 2.3544,-0.35 -0.5999,-1.01 0.598,-1 -0.2943,-0.3 -1.0076,0.6 -0.5753,-0.94 -1.9803,-1.35 -5.1683,-2.26 -2.9628,-1.97 M 101.478,972.209 v 0 l 0.027,0.593 m 253.017,350.988 v 0 l -0.384,-2.34 1.577,-2.64 1.79,-1.61 0.357,2.35 -1.577,2.64 M 45.0209,1296.53 v 0 l 0.9479,-3.03 -0.4666,-1.48 -1.5186,-0.91 -1.0136,2.76 -3.7504,22.38 -0.7561,0.58 -7.9358,-3.65 -1.3698,1.29 0.3398,1.51 1.2568,1.25 7.1601,2.71 -0.046,3.62 -2.7371,10.88 0.3711,2.42 2.7149,-2.6 2.6498,-9.7 0.1837,-3.54 4.8791,-1.97 -3.71,-2.73 2.6498,-12.76 m 322.5821,24.28 v 0 l 3.075,0.01 3.663,-2.57 5.284,-5.13 2.465,-0.19 2.377,-8.64 1.549,-3.76 0.003,-13.12 -2.647,-10.7 -1.718,-1.54 -0.701,0.51 -2.627,22.42 -1.236,5.79 -1.413,-0.77 h -3.052 l -2.759,2.66 -1.966,2.97 -2.612,7.66 0.176,1.36 m 7.659,-10.25 v 0 l 1.526,-0.53 2.028,0.13 1.273,1.35 -3.301,4.5 -2.308,2.28 -2.669,1.54 -0.383,-2.37 M 55.8276,980.552 v 0 l 0.0691,-1.655 -1.5826,-0.777 -14.2546,-2.223 2.7503,-3.182 4.0199,-3.013 6.4169,-2.474 0.6037,-0.706 5e-4,-2.048 -0.877,-0.974 -1.4738,0.299 -0.9712,-0.642 -1.0837,-0.014 -7.6355,4.572 -5.0946,5.095 -2.5667,3.663 -0.0108,10.081 1.5775,2.636 3.0167,3.024 6.7728,1.645 15.0241,-1.893 2.0017,-0.933 -0.5761,-1.077 -3.396,-1.822 -4.055,-0.119 -3.0069,0.97 -7.057,-0.118 -4.6452,-1.599 -1.6565,-2.714 -0.1216,-3.051 0.4781,-1.303 2.0094,0.785 13.9922,-10e-4 M -320.127,396.472 v 0 l 3.937,3.813 2.5,1.553 2.552,4.608 0.122,2.05 -0.482,1.486 -1.976,1.869 -2.026,0.148 -4.062,-0.13 -7.945,-1.855 -6.021,0.143 -0.441,1.343 0.714,1.721 12.693,2.649 6.056,0.116 3.696,-1.701 2.312,-2.303 0.483,-1.486 -0.123,-6.05 -2.936,-4.58 -7.429,-6.884 -0.481,-2.54 5.43,-3.304 5.082,0.704 0.368,-1.975 -2.342,-1.729 h -5.108 l -7.332,3.706 0.024,4.71 M -296.83,28.4503 v 0 l -0.315,2.0723 -1.55,1.7111 4.72,2.2964 4.472,7.4667 2.52,5.8156 1.843,11.687 -1.789,10.592 -1.821,5.1309 -5.06,6.0626 -2.662,1.6921 -2.303,2.2725 -3.696,1.737 -0.371,1.5408 1.316,1.3241 1.03,0.1324 2.022,-0.1324 3.664,-2.5665 6.095,-6.0947 2.006,-3.0114 2.842,-8.0361 1.727,-10.6433 -1.788,-11.7767 -1.558,-4.6704 -5.229,-9.2425 -2.57,-2.6196 -1.708,-2.6669 M -378.42,1339.86 v 0 l -2.104,0.29 -0.318,1.38 1.316,1.32 3.087,0.02 6.345,-2.34 3.379,-2.34 1.577,-2.64 0.108,-1.05 -1.685,-3.69 -7.475,-5.53 -1.607,-1.78 0.572,-0.75 3.666,-1.62 2.706,-0.23 1.706,-1.8 1.675,0.05 0.978,0.65 0.329,-1.33 -0.307,-0.31 -8.082,-0.02 -5.67,2.61 -1.627,1.72 0.374,2.54 9.61,7.06 1.689,2.4 -2.658,2.83 M -346.457,828 v 0 l -4.069,-0.148 -1.978,-0.837 h -7.993 l -2.006,1.005 -0.353,1.534 1.723,2.343 0.588,0.085 17.041,0.002 1.346,-0.457 0.009,-2.053 -1.325,-1.326 m -0.023,-48.288 v 0 l 3.687,-2.575 3.103,-3.108 2.457,-5.402 2.535,-2.585 1.998,-2.998 1.579,-2.638 0.108,-1.056 -0.466,-1.477 -0.79,-0.73 -2.513,3.208 0.597,0.999 -0.322,0.504 -2.184,1.714 0.506,0.786 -0.298,0.473 -3.208,2.741 0.506,0.786 -0.298,0.473 -5.337,6.334 -14.642,7.514 -0.385,-1.385 1.733,-5.877 0.117,-6.055 -2.675,-6.664 -6.817,-2.827 -2.055,0.117 -4.685,1.636 -2.605,2.706 -0.134,1.029 0.119,4.055 2.069,4.125 1.761,-8.143 1.51,-1.392 h 6.052 l 1.607,0.926 1.729,2.372 0.007,8.115 -3.684,12.861 -4.161,6.048 -3.214,2.245 -5.62,5.57 -2.635,1.571 -1.084,-0.014 -0.969,-0.64 -0.792,0.508 -1.551,-1.603 -1.688,0.052 -0.312,1.366 5.285,3.331 1.116,0.004 5.598,-2.548 2.371,-3.337 2.661,-1.69 3.026,-2.977 2.244,7.568 1.253,2.309 2.041,2.046 4.685,1.636 2.054,0.118 9.678,-2.64 10.013,-5.057 4.006,-3.003 1.609,-1.789 -2.326,0.347 -0.944,-0.685 -1.084,-0.015 -8.191,4.175 -8.695,3.547 -8.085,-0.014 -1.706,-1.605 -1.636,-4.686 -0.13,-2.06 0.129,-2.062 1.648,-5.697 3.037,-3.03 m -25.292,602.269 v 0 l -0.779,0.8 -2.607,5.67 -0.004,10.11 1.617,3.66 2.059,2.06 6.662,4.56 h 1.055 l 1.296,-1.37 -1.538,-2.66 -3.095,-3.1 -2.472,-1.52 -1.584,-3.63 0.012,-6.11 2.664,2.83 2.636,1.58 h 2.108 l 2.636,-1.58 2.099,-2.1 2.573,-4.63 v -8.1 l -1.672,-2.73 -3.69,-1.57 -3.728,1.6 -2.938,1.94 -1.549,2.5 m 18.716,-317.73 v 0 l 0.137,7.09 2.553,4.61 3.861,2.05 4.887,1.66 10.054,0.12 7.062,-1.91 1.164,-0.76 -2.245,-0.17 -0.975,0.65 -0.477,-0.7 -17.476,-2.95 -3.048,-2.17 -0.483,-1.48 0.119,-10.06 2.573,-5.62 3.27,-4.29 10.799,-10.78 5.168,-2.27 1.917,-1.34 -0.361,-1.12 -1.522,-1.52 -0.746,-0.2 -6.453,2.45 -3.969,2.96 -4.095,4.1 -1.692,2.66 -4.308,4.34 -2.006,3.01 -3.576,9.62 m 23.377,-365.46 v 0 l -5.952,2.885 -2.112,-0.003 -9.636,-6.577 -4.095,-4.095 -2.001,-3.004 -3.243,-7.327 -2.532,-9.821 -1.47,0.122 -0.453,1.344 0.116,5.056 4.576,11.618 2.007,3.012 5.813,5.833 6.175,4.693 -6.893,3.999 -8.095,8.095 -7.013,9.02 -2.535,6.633 0.336,0.513 0.997,0.823 1.494,-0.825 2.708,-6.145 3.013,-4.019 4.57,-4.62 1.43,-2.38 5.101,-5.099 4.63,-2.573 4.05,-0.123 1.484,0.481 3.492,2.481 8.813,8.833 1.577,2.636 0.006,3.114 -3.621,9.667 -4.089,5.245 0.335,1.327 3.532,-4.299 1.473,0.298 0.504,-0.323 3.206,-6.028 1.66,-4.887 -0.006,-5.114 -2.84,-4.919 -5.832,-5.812 -2.662,-1.692 -2.227,-2.275 5.889,-3.463 4.118,-3.12 5.028,-8.968 2.496,-7.664 -0.826,-0.431 -1.996,4.387 -2.111,2.541 -3.614,6.16 m 19.754,-425.63 v 0 l -1.56,-0.404 -0.775,0.674 -3.51,10.567 -2.268,3.736 -2.398,1.689 -2.031,-1.84 -0.482,-1.486 0.133,-4.022 3.324,-3.316 2.001,0.684 1.369,-0.314 0.141,-2.024 -0.455,-1.347 -5.054,-0.008 -3.976,3.869 -0.483,1.485 -0.014,4.997 0.137,2.054 1.696,2.754 2.612,1.554 2.05,0.122 1.486,-0.482 5.872,-6.05 0.131,9.044 -0.97,3.007 v 5.994 l 0.482,1.485 1.003,1.017 0.974,0.852 1.026,0.117 1.335,-0.439 -0.82,-3.032 -0.014,-4.997 0.147,-2.026 0.837,-1.978 10e-4,-14.99 M -386.96,1517.46 v 0 l -1.906,3.98 -0.12,8.05 2.697,5.69 3.104,3.11 3.597,1.84 6.085,1.72 4.748,-1.62 0.576,-0.76 -1.537,-2.18 -0.76,0.56 -3.085,0.02 -4.688,-1.64 -2.941,-1.95 -1.099,-1.1 -2.573,-4.63 v -5.1 l 2.938,-5.58 2.95,-2.37 0.811,-0.02 0.014,2.05 -2.136,2.28 -1.571,2.63 0.328,1.4 3.054,0.01 2.767,-2.67 2.573,-5.62 0.118,-2.06 -0.482,-1.48 -1.976,-1.87 -2.085,-0.02 -5.618,2.58 -2.108,2.1 M -439.026,479.596 v 0 l -0.441,-1.441 -1.037,-0.139 -18.041,10e-4 -2.277,2.455 1.296,1.379 1.03,0.134 12.989,10e-4 6.453,-2.006 m 28.258,-448.675 v 0 l -4.387,2.4053 -3.839,3.8172 -3.296,6.2173 -1.917,4.8538 -2.635,10.8394 -0.116,8.0553 2.624,11.5974 6.077,9.0994 3.095,3.0947 2.636,1.5774 6.048,0.1234 5.69,-2.6969 3.667,-3.7624 0.011,-4.0805 -1.577,-2.6359 -4.108,-4.1031 -5.618,-2.5725 -4.085,0.0136 -1.607,0.9263 -1.689,2.3982 1.296,1.3785 2.052,7e-4 1.971,-0.8216 4.729,1.6557 2.798,1.8437 2.799,3.9986 -1.661,2.782 -4.608,2.5522 -6.08,-0.0108 -2.759,-2.6613 -6.068,-9.0795 -2.633,-10.6172 0.116,-8.0554 1.675,-7.1634 1.873,-5.507 2.816,-5.7323 1.483,-2.5078 2.802,-2.7788 6.442,-2.4998 0.62,-0.7243 -0.313,-1.3671 m -50.992,751.8575 v 0 l -3.064,-0.173 -0.314,-1.37 0.34,-0.453 7.312,-6.304 8.322,-4.792 1.69,-2.395 -0.324,-0.504 -0.969,-0.866 -1.088,-0.019 -3.669,1.614 -7.962,4.962 -3.62,3.57 -5.324,3.789 -3.708,4.397 -0.019,1.088 2.568,5.618 3.103,3.108 4.006,3.004 9.054,5.073 10.568,2.508 2.542,-0.367 0.869,-0.975 0.021,-1.725 -11.997,-3.439 -6.059,-3.078 -6.004,-4.001 -2.809,-2.785 -0.852,-0.974 0.014,-2.05 0.809,0.022 0.759,0.716 11.775,2.772 h 18.987 l 6.437,-1.944 -1.703,-1.317 -3.668,-1.591 -3.085,0.014 -1.978,0.837 -11.989,10e-4 m 19.78,-466.169 v 0 l -1.138,-1.292 0.009,-2.051 0.976,-0.547 2.113,-2.699 1.596,-3.721 -1.558,-2.697 -1.759,-1.662 -6.085,-0.014 -3.666,1.617 -4.077,4.084 -2.551,7.662 2.555,6.673 2.108,2.115 2.636,1.577 1.06,0.122 2.02,-0.133 1.273,-1.351 -6.65,-5.974 -0.135,-5.02 1.701,-3.696 2.095,-2.095 2.636,-1.577 2.05,-0.121 1.346,0.455 0.009,2.054 -1.661,1.759 -2.667,1.707 -0.493,1.506 0.285,1.31 3.759,6.325 4.502,3.057 4.863,1.678 4.085,-0.03 -0.027,-0.708 -2.334,-2.44 -7.296,-3.767 m -71.136,1134.357 v 0 l 0.136,2.28 -2.572,6.61 -0.797,0.63 -0.972,-0.65 h -2.052 l -1.297,1.38 1.538,2.66 1.759,1.66 h 3.05 l 2.729,-3.63 2.732,-9.73 -0.117,-2.05 -1.636,-4.69 -3.007,-3 -3.665,-1.61 h -1.12 l -5.598,2.55 -3.975,6.72 -1.736,6.03 10e-4,6.12 1.678,4.86 2.905,4.77 3.095,3.09 2.634,1.58 1.361,-0.18 2.091,-1.55 -0.047,-1.66 -1.348,-1.27 -1.002,0.6 -0.999,-0.8 -2.788,-2.82 -1.918,-3.73 -1.65,-4.96 1.88,-9.34 2.05,-3.28 2.372,-1.73 2.054,-0.14 2.023,0.15 0.706,0.6 m 10.274,-139.61 v 0 l -4.796,3.68 -2.573,5.62 -0.119,10.06 0.837,1.97 -0.01,2.06 -1.369,0.31 -0.947,-0.69 h -4.052 l -1.347,1.37 -0.007,0.53 8.036,3.04 4.556,9.09 2.76,2.66 1.057,-0.01 0.333,-2.38 -2.109,-3.22 -1.638,-4.27 3.681,-2.46 -0.571,-0.75 -4.429,-2.47 -1.654,-9.78 1.81,-7.19 1.027,-1.78 1.796,-1.78 4.378,-1.61 2.804,4.74 0.884,-0.36 0.128,-1.02 -1.684,-3.69 -2.758,-2.65 m 23.976,-447.305 v 0 l -3.051,-2.709 10.044,-0.131 3.007,0.97 25.993,-10e-4 1.347,-0.457 0.145,-2.419 -38.675,-2.913 4.497,-4.48 2.662,-1.692 7.379,-6.497 v -2.052 l -1.323,-1.324 -1.076,-0.122 -8.262,7.257 -2.38,1.43 -6.62,6.57 -2.662,1.692 -3.327,3.523 1.609,1.785 9.997,6.034 20.639,7.542 2.08,-0.01 1.273,-1.351 -0.598,-1 0.642,-0.973 -0.337,-1.328 -1.034,0.623 -19.918,-7.685 m -21.077,319.823 v 0 l 4.299,4.29 5.67,2.61 6.113,0.01 3.88,-1.73 1.532,-0.09 2.851,6.8 0.667,0.01 0.718,-0.59 1.588,-7.55 2.688,-5.65 2.318,-3.58 -2.297,-0.47 -2.01,0.78 -0.324,-0.28 0.682,-1.99 0.01,-3.08 -1.579,-2.64 -1.219,-0.73 -3.134,15.72 -0.728,1.04 -1.702,-0.64 -2.004,0.78 -7.05,-0.12 -4.63,-2.57 -1.667,-1.76 -0.011,-2.08 1.577,-2.64 3.12,-3.11 7.631,-2.68 0.385,-2.55 -1.39,-1.31 -6.733,1.63 -3.2,2.19 -3.817,3.84 -2.573,4.63 -0.122,2.05 m 7.462,-110.48 v 0 l 2.815,-2.84 1.021,-1.95 1.552,-3.67 -0.015,-4.09 -1.324,-1.31 -1.738,0.57 -2.248,8.14 -1.254,2.31 -1.761,1.67 h -2.05 l -2.338,-3.3 -0.124,-1.06 0.12,-5.05 2.688,-5.92 -1.349,-0.36 -2.722,2.61 -1.617,3.67 v 6.12 l 1.617,3.66 2.723,2.63 h 4.052 m 36.022,-545.801 v 0 l -0.573,-1.052 -4.479,-1.851 -14.16,3.244 -4.314,2.042 0.129,1.097 1.323,1.322 4.085,0.014 3.054,-1.134 14.177,-2.78 m -44.072,735.249 v 0 l -2.194,-3.05 h -2.05 l -2.759,2.66 -4.744,7.05 -1.934,-7.32 -1.111,-1.67 -2.372,-1.73 -2.08,0.01 -3.763,3.67 -3.003,5 -2.881,6.17 -3.744,-17.48 -1.577,-1.37 -0.488,0.36 -0.859,0.97 -0.025,1.09 2.851,22.95 -0.133,2.02 -0.837,1.97 0.134,4.03 1.379,1.29 2.741,-1.61 2.395,-7.44 4.089,-10 4.722,-6.61 1.367,0.31 0.157,2.03 -0.13,6.06 -1.855,6.95 0.483,3.47 0.975,0.86 h 1.055 l 2.761,-2.66 6.425,-11.37 2.002,-3 1.783,-1.61 1.486,1.98 2.82,20.11 0.7,0.51 0.471,-0.3 1.876,-1.97 0.135,-10.02 -1.979,-9.29 m 14.515,-275.242 v 0 l -5.42,4.889 0.046,2.659 2.668,2.764 7.958,4.04 11.479,4.35 11.193,5.18 3.08,-0.01 1.759,-1.66 1.571,-2.64 -0.35,-1.35 -1.006,0.6 -1,-0.6 -0.974,0.65 -3.08,0.01 -4.19,-2.18 -18.51,-7.36 -5.455,-3.03 7.519,-7.575 2.662,-1.692 5.338,-5.308 2.667,-1.707 0.507,-1.512 -0.456,-2.339 -2.054,-0.008 -3.664,2.566 -3.62,3.57 -2.38,1.43 m 11.653,-281.675 v 0 l 2.727,-1.755 1.661,-1.759 v -2.052 l -1.324,-1.316 h -1.054 l -3.283,3.127 -5.38,3.43 -4.62,4.57 -6.23,3.762 -1.932,3.42 -4.879,5.007 -0.133,1.03 0.133,2.02 0.661,0.759 17.004,12.004 6.632,3.575 3.697,0.03 4.699,-7.365 -0.012,-1.052 -0.805,0.025 -1.496,1.351 -1.676,0.249 -1.706,1.798 -3.701,-0.036 -15.638,-10.579 -2.704,-2.15 0.047,-1.662 5.323,-5.323 5.022,-0.133 2.004,0.784 2.003,-0.784 h 38.994 l 1.977,0.837 4.02,0.133 1.311,-0.302 2.091,-1.55 -0.047,-1.657 -0.539,-0.661 -50.991,-1.631 m 12.184,-70.306 v 0 l -3.969,-1.707 -1.376,1.301 0.371,1.541 10.689,3.736 0.623,0.725 0.019,1.085 -8.728,26.88 0.017,3.087 1.324,1.316 1.507,-0.34 0.862,-0.975 -0.705,-3.089 10.849,-33.944 -0.144,-3.022 -1.367,-0.313 -0.722,0.617 -2.599,5.079 -4.595,-1.721 m 95.015,271.716 v 0 l -2.125,0.285 -9.626,4.572 -1.295,1.135 -1.057,-0.007 -0.34,-2.397 2.854,-12.945 -0.119,-2.052 -1.617,-3.666 -1.723,-1.627 -6.026,-0.147 -2.062,0.13 -5.9,1.836 -1.337,1.533 1.273,1.351 1.023,0.119 7.941,-1.84 3.088,0.018 1.325,1.325 0.135,4.02 -3.777,17.782 -3.399,2.44 -6.095,6.094 -3.577,5.637 v 4.108 l 1.729,2.342 1.661,-0.047 1.314,-1.322 -0.694,-2.001 10e-4,-2.052 2.566,-3.664 6.793,-6.674 8.58,10.021 5.353,2.708 5.121,0.004 9.856,-2.644 4.465,-2.184 -0.379,-0.838 -0.794,0.508 -2.251,-1.588 -11.898,2.745 -2.12,-0.003 -3.666,-1.616 -5.06,-5.059 -1.577,-2.636 -0.03,-2.697 7.926,-4.367 10.22,-4.172 9.93,-5.03 4.124,-3.123 1.364,-2.96 -2.172,-2.178 -0.631,0.08 -1.703,2.2 -3.982,2.981 M -440.081,464.965 v 0 l -3.361,-1.83 -3.117,-10e-4 -11.666,4.617 -1.617,1.722 v 1.054 l 1.316,1.324 2.08,0.011 4.212,-2.183 12.189,-3.737 m 2.874,-49.397 v 0 l -0.903,-2.679 -2.372,-1.728 -1.06,-0.124 -8.991,10e-4 -3.007,0.97 -18.211,-0.296 3.525,-2.974 11.38,-7.43 2.312,-2.303 0.482,-1.486 -0.141,-2.024 -2.369,-0.323 -6.284,5.136 -12.38,8.43 -3.62,3.57 -2.38,1.43 -4.095,4.095 -1.576,2.634 -0.111,1.106 3.782,3.735 3.965,2.964 9.664,3.618 18.057,0.118 1.485,-0.482 0.861,-0.976 -0.34,-1.508 -1.975,-1.861 -3.031,0.827 -12.057,-0.116 -6.028,-1.716 -4.636,-1.904 -4.25,-3.246 -0.025,-0.978 3.194,-3.215 32.795,-1.669 6.014,1.829 1.477,-0.467 m 63.858,575.047 v 0 l 0.18,-7.454 14.445,-2.069 0.378,-1.552 -0.616,-0.722 -3.666,-1.614 -3.086,0.703 -0.947,-0.694 -5.424,-0.163 -2.074,-17.448 -1.575,-0.508 -1.914,1.965 -1.299,2.318 1.742,2.144 -0.131,11.066 -0.571,0.681 -8.56,1.593 -0.561,0.68 v 1.047 l 0.557,0.678 9.255,1.875 -0.119,3.45 -0.837,1.977 -10e-4,14.987 2.014,6.46 1.502,-0.1 1.321,-1.32 0.134,-5.03 -0.837,-1.97 -0.148,-3.03 0.015,-5.997 m 48.144,-754.02 v 0 l 1.391,0.375 4.635,-2.571 10.312,-7.084 0.72,0.538 1.564,5.518 0.696,0.591 2.044,-0.013 0.208,-0.57 -2.476,-8.481 -0.73,-0.637 -3.077,-0.011 -12.703,8.608 -2.741,-9.674 -0.993,-0.006 -1.84,4.4 0.797,0.545 1.902,5.428 M -313.79,32.3212 v 0 l -3.71,2.6787 -5.785,5.8099 -1.692,2.6624 -2.311,2.3438 -5.048,9.9865 -2.532,7.6369 -0.117,10.0571 1.059,2.637 4.736,4.1514 2.941,1.9434 4.688,1.6392 4.113,-0.007 1.365,-1.0493 -9.101,-4.5229 -5.714,-5.1554 0.029,-8.6944 1.716,-6.028 1.906,-4.6381 2.96,-4.9576 4.002,-6.005 3.095,-3.0949 2.498,-1.5494 1.554,-2.6113 -0.025,-3.0762 m -92.858,1487.462 v 0 l -1.956,-7.41 -0.5,-0.37 -1.741,0.58 -1.616,5.72 0.713,0.51 1.932,24.33 1.692,0.68 2.023,-0.13 1.338,-1.36 -1.847,-2.95 0.131,-13.07 6.829,-8.94 1.833,-1.81 5.087,-3.56 -2.341,-2.02 h -1.112 l -2.916,1.84 m -4.05,-56 v 0 l 0.988,0.86 1.089,0.02 2.635,-1.58 3.308,-3.3 0.177,-0.78 -1.51,-2.51 -2.665,-1.53 -3.75,2.61 -1.611,3.67 0.358,1.54 M -303.457,112 v 0 l -3.04,-0.015 -1.977,-0.837 -3.026,-0.148 -15.997,0.015 -3.007,0.97 -9.99,0.001 -5.012,-1.972 h -18.987 l -30.007,5.985 -14.993,-0.013 -9.944,-1.852 -3.067,0.851 -21.989,0.001 -10.014,-1.972 -9.99,0.001 -1.977,0.837 -2.026,0.147 -11.997,-0.014 -2.044,-0.823 -13.586,2.143 -34.38,2.681 -3.019,-0.134 -1.977,-0.837 -3.993,0.001 -1.344,0.453 -0.14,1.103 6.486,2.414 14.99,-0.001 2.004,-0.784 2.003,0.784 5.99,0.001 17.056,-2.053 27.958,-1.919 8.993,-0.013 11.007,1.985 21.989,-0.001 3.067,-0.851 9.944,1.852 h 15.986 l 30.944,-5.856 15.063,-0.129 2.059,0.133 4.947,1.852 9.99,-0.001 3.007,-0.97 16.997,-0.014 17.007,1.985 4.019,-0.134 1.978,-0.836 4.992,0.968 3.066,-0.849 12.994,2.72 2.152,-1.57 -0.766,-1.347 -7.665,-2.346 -6.715,-1.457 -4.058,0.849 -1.978,-0.836 -2.022,-0.132 -1.978,0.836 -2.026,0.146 -2.026,-0.146 -1.978,-0.837 M -377.51,1392.03 v 0 l 1.484,-2.5 4.498,-4.37 1.508,0.34 0.871,0.97 0.015,4.09 -1.617,3.66 -1.723,1.63 h -2.052 l -1.974,-0.82 -2.006,0.77 -0.35,-1.36 m 31.836,-864.905 v 0 l -5.022,-27.278 -1.415,-1.226 -1.068,0.12 -0.696,0.594 -2.643,13.141 -2.811,8.341 -4.075,8.997 -2.961,3.486 0.533,0.82 -6.684,10.916 0.019,2.081 2.369,0.324 1.972,-1.85 2.789,-3.816 2.424,-4.369 1.763,-1.668 10.435,-0.127 2.799,15.154 2.764,1.648 0.504,-0.325 0.875,-0.972 0.134,-2.019 -1.971,-8.014 10e-4,-4.989 0.828,-3.031 -0.695,-0.947 m -45.622,730.514 v 0 l -3.029,0.94 -37.021,-0.14 0.025,-0.82 4.027,-4.04 2.78,-1.81 4.975,-6.98 1.579,-2.64 0.107,-1.05 -0.441,-1.34 -1.028,-0.13 -1.747,0.75 -2.46,5.4 -10.578,10.63 -3.538,5.66 3.108,3.34 1.43,2.38 5.813,5.83 6.662,4.7 6.31,6.08 1.351,-1.27 -0.013,-5.05 -2.365,0.36 -2.283,-2.13 -6.38,-4.43 -7.31,-7.3 -0.386,-1.02 3.328,-1.83 1.064,-0.12 7.991,0.01 3.006,0.96 h 18.993 l 2.004,-0.78 2,0.77 2,-0.77 2.003,0.78 3.025,-0.14 0.44,-1.34 -0.497,-1.51 m -11.974,126.13 v 0 l -7.406,4.81 -2.868,-15.18 -0.699,-0.59 -1.367,0.31 -0.142,7.03 0.97,3 -0.003,7.04 -2.801,2.99 0.759,1.51 1.862,11.25 0.674,0.55 1.504,-0.34 0.862,-0.97 -0.708,-3.09 1.656,-7.72 3.02,-3 5.38,-3.44 4.651,-3.75 -0.313,-1.37 -1.032,-0.14 -2.022,0.13 m 12.375,-240.81 v 0 l -1.849,-3.82 -0.974,-0.02 -0.877,0.97 -10e-4,4.06 0.837,1.97 -0.143,16.03 -1.369,0.31 -0.947,-0.69 -3.023,-0.13 -1.484,0.48 -0.883,1.01 1.669,1.77 6.077,2.68 -1.752,9.48 -0.112,5.1 2.482,2.3 2.397,-1.71 -0.045,-2.66 -0.704,-0.94 -0.018,-2.09 1.887,-8.16 0.672,-0.99 0.787,0.56 4.077,0.13 1.775,-1.65 2.454,7.93 0.694,0.58 1.053,-0.01 0.455,-1.33 -0.116,-4.06 -1.678,-4.86 -1.209,-2.08 -2.457,2.35 h -2.05 l -0.948,-0.7 -2.419,-0.16 m 19.77,-4.49 v 0 l -1.739,2.95 -0.124,5.04 2.063,4.64 2.395,1.69 1.001,-0.66 3.03,0.82 7.199,-0.25 -3.679,-2.16 0.474,-1.55 2.788,-2.83 1.577,-2.64 -0.01,-5.08 -0.926,-1.6 -4.4,-3.72 -4.023,-0.14 -2.003,0.99 -3.002,3.02 m 61.385,-990.52 v 0 l -1.749,3.941 0.015,8.085 1.932,2.619 1.912,1.317 2.453,1.4 1.06,0.124 h 10.987 l 8.431,-2.052 -0.623,-1.125 -20.444,-1.95 -1.159,-0.69 -1.554,-2.613 0.177,-1.366 1.395,-1.898 0.786,0.506 0.998,-0.597 0.974,0.651 2.026,0.147 16.996,-0.015 1.339,-0.455 -0.362,-1.54 -1.96,-0.885 -19.35,-2.872 0.337,-1.215 1.31,-1.302 7.374,-4.426 3.314,-3.312 0.169,-0.78 -1.381,-1.906 -12.476,8.424 -2.673,2.764 m -29.643,481.36 v 0 l -0.293,-1.34 0.641,-0.97 0.021,-1.091 -1.672,-4.864 -1.025,-1.88 -3.64,-2.546 -3.08,-0.01 -7.891,4.718 -1.397,-0.329 -0.024,-2.086 2.851,-7.947 -0.142,-2.022 -1.895,-0.388 -4.814,11.357 -0.119,4.055 0.482,1.484 0.977,0.871 3.08,0.011 9.891,-5.718 1.084,0.014 1.724,1.624 2.519,7.463 0.731,0.552 M -530.04,546.537 v 0 l 6.016,-8.008 5.496,-4.371 1.37,0.314 0.02,3.082 -2.573,4.63 -3.099,3.101 -2.661,1.538 -1.002,-0.666 -1.054,10e-4 -0.976,0.861 -0.348,2.507 0.852,0.974 1.47,1.341 1.084,0.015 4.629,-2.567 5.105,-5.106 2.573,-4.629 -0.01,-7.08 -0.703,-0.946 -0.249,-1.661 -2.344,-1.723 -1.358,0.169 -2.388,1.402 -4,3 -7.151,7.324 -2.659,-5.975 -1.843,0.408 -0.009,4.054 0.837,1.977 -0.123,6.051 -3.09,7.026 -2.758,10.926 0.134,9.02 0.703,0.946 0.25,1.661 2.368,1.688 0.727,-0.531 3.421,-22.493 1.859,-5.706 m 4.508,-50.584 v 0 l 1.878,-2.953 -0.011,-6.08 -6.693,-7.947 v -1.055 l 1.617,-1.722 3.666,-1.611 1.394,0.332 0.007,1.056 -1.643,1.978 1.328,0.337 0.454,-0.34 1.87,-1.976 0.134,-1.03 -0.142,-3.024 -1.347,-0.456 -5.05,0.122 -5.297,3.338 v 6.05 l 6.702,7.948 v 3.05 l -3.297,2.338 -2.05,0.122 -1.978,-0.836 -3.023,-0.133 -1.483,0.482 -0.819,1.003 0.813,1.466 5.423,1.898 6.823,-1.644 m 10.738,-160.677 v 0 l -0.133,-2.093 -1.58,-2.64 -1.759,-1.662 -5.08,-0.01 -4.63,2.573 -1.101,1.099 -6.577,11.636 -0.004,7.113 2.574,5.619 2.007,3.012 3.283,3.308 3.448,2.364 9.05,0.122 1.339,-0.455 0.006,-1.053 -0.582,-0.694 -9.5,-2.548 -4.047,-4.05 -3.623,-7.143 10.089,-3.749 4.111,-4.108 2.573,-4.63 m 19.294,-306.0981 v 0 l -2.871,4.7343 -3.57,3.6196 -1.692,2.6624 -3.308,3.3376 -3,4 -8.002,12.0044 -2.596,5.3011 -2.904,-32.3799 -0.687,-0.5835 -1.496,-0.1002 -3.858,10.4191 0.964,0.3895 1.756,-2.6235 2.418,42.4325 2.166,4.1718 1.504,-0.3385 0.871,-0.9763 0.133,-1.03 -0.133,-2.0226 -1.702,-1.9474 0.162,-6.241 5.505,6.003 18.663,9.5345 0.35,-0.2997 -0.628,-2.0231 0.597,-0.9984 -0.609,-0.7838 -18.379,-10.4328 -2.672,-3.731 -0.109,-1.0535 3.467,-8.4671 5.219,-8.2236 9,-12 5.57,-5.6196 3.571,-5.6351 -0.328,-1.3976 -2.024,-0.1409 m -13.109,239.8084 v 0 l 3.438,18.828 1.154,2.819 2.541,0.37 0.456,-1.346 -0.119,-7.055 -0.964,-2.566 -2.769,-13.314 0.025,-2.089 1.347,-0.455 2.057,0.115 4.878,1.731 1.09,-0.022 2.27,-2.341 -0.813,-1.466 -5.425,-1.903 -5.715,-0.244 -2.195,-4.621 -6.402,-19.487 -0.726,-0.629 h -2.046 l -0.695,0.59 -2.437,8.462 -5.422,14.93 -2.773,2.344 -0.002,2.05 0.675,1.002 -9.574,20.171 -0.757,-0.498 -0.329,0.275 -0.014,2.05 2.351,2.273 1.657,-0.887 9.704,-20.355 0.16,-1.471 13.956,-2.032 m 142.018,597.474 v 0 l -5.266,-17.002 -2.563,-11.097 -1.935,-5.676 -1.731,-1.553 -1.465,0.813 -4.709,14.243 -10.01,22.994 -2.028,3.459 -0.795,-0.508 -0.331,0.275 -0.013,5.05 1.325,1.325 1.026,0.118 1.482,-0.467 1.249,-1.257 3.261,-9.214 2.038,-4.006 1.923,-1.996 3.05,0.956 8.639,0.122 2.188,3.693 3.452,12.459 0.694,0.582 h 1.048 l 0.723,-0.616 1.604,-3.732 m -40.536,598.307 v 0 l 1.72,2.2 1.931,6.46 1.053,1.04 1.536,0.36 2.635,-1.58 1.099,-1.1 2.573,-4.63 0.124,-1.06 -0.134,-4.02 -0.883,-1.48 -3.665,-1.75 2.196,-2.27 v -0.94 l -0.971,-0.87 -1.088,-0.02 -3.666,1.61 -4.631,6.69 m 83.851,-926.968 v 0 l -1.846,7.021 1.599,3.206 1.483,-1.454 3.632,-11.684 -0.883,-2.064 -1.98,-0.433 M -428.49,227.018 v 0 l -2.954,-1.874 -1.358,0.169 -2.388,1.402 -4.098,4.101 -3.574,6.63 -0.124,12.048 2.842,5.951 -0.654,2.059 0.294,0.295 2.355,-2.273 0.119,-1.023 -1.838,-5.943 v -7.121 l 2.571,-6.61 2.012,-3.019 2.758,-2.652 1.508,0.34 1.87,1.976 v 4.052 l -5.324,5.316 -2.028,-0.641 -2.298,2.299 3.609,3.785 6.005,4.002 4.631,2.575 2.396,-0.334 0.009,-2.054 -1.379,-1.497 -8.181,-5.691 4.958,-5.061 1.617,-3.666 -0.004,-3.113 -1.577,-2.636 m 101.848,-81.235 v 0 l -1.968,-3.883 -2.611,-1.554 -1.06,-0.124 -3.02,0.134 -6.952,4.675 -0.506,-2.319 0.969,-3.008 -0.142,-4.024 -2.369,-0.323 -1.325,1.325 -0.134,12.022 0.482,1.484 1.003,0.819 7.684,-4.511 2.29,-2.139 2.05,0.001 1.663,2.431 2.562,7.636 0.728,0.633 2.051,-0.008 0.456,-1.346 -0.116,-3.057 m -189.747,108.058 v 0 l 1.634,3.761 -9.192,1.609 -1.397,-0.337 0.117,-1.302 5.467,-13.922 1.602,3.431 M -521.543,404 v 0 l 2.066,-0.154 0.448,-1.394 -2.417,-2.314 -6.472,-0.164 -1.916,-11.503 0.967,-0.544 1.688,-2.398 -3.296,-2.351 -0.569,0.874 -2.877,1.894 -0.064,4.55 0.97,3.007 -0.142,6.025 -1.347,0.456 -3.996,0.015 -2.026,-0.147 -1.978,-0.836 -2.339,0.456 -0.055,2.661 2.344,1.729 8.463,0.159 2.858,19.59 2.068,5.271 2.693,-0.039 0.455,-1.347 -0.117,-2.055 -1.852,-4.947 0.048,-14.494 4.377,-1.867 M -538.9,661.454 v 0 l -14.54,4.413 -2.081,-0.031 -0.308,-0.363 4.525,-14.71 1.25,-2.643 1.596,0.721 18.789,-2.519 5.591,-1.831 1.942,-1.983 -1.334,-1.35 -1.093,-0.023 -12.875,2.734 -11.09,-0.026 -0.455,-1.347 0.116,-2.057 2.736,-9.878 0.16,-4.485 9.407,-1.942 16.095,1.7 0.319,-2.357 -0.582,-0.689 -7.775,-1.774 -15.547,-0.093 -2.386,-2.905 -1.654,0.084 -3.48,18.973 -5.062,19.195 -4.197,13.195 2.36,2.358 1.897,-0.929 17.034,-4.676 7.733,-2.895 2.282,-1.299 1.236,-1.308 -2.156,-1.576 -2.047,-0.123 M -428.465,261.02 v 0 l -13.042,1.966 -25.017,-0.148 0.025,-0.813 6.787,-6.841 3.574,-6.63 -0.019,-3.082 -2.366,-0.322 -0.724,0.626 -3.465,7.408 -7.573,7.626 -3.566,4.664 -0.011,4.08 1.838,2.916 3.838,2.817 11.405,5.4 5.253,3.136 2.379,-2.297 -0.013,-3.05 -2.393,0.38 -11.672,-5.609 -5.08,-3.081 -1.549,-2.611 0.026,-1.081 2.333,0.511 28.997,0.014 12.007,-1.984 2.019,0.133 0.948,0.704 3.052,-10e-4 1.316,-1.324 v -1.055 l -2.316,-2.323 m 70.315,272.334 v 0 l -1.335,0.5 -5.006,0.017 -3.022,-0.163 -0.301,-0.358 7.035,-15.164 2.657,12.123 m 14.173,-220.891 v 0 l -1.516,-1.398 -2.085,-0.015 -11.92,5.689 -0.381,-1.382 2.72,-6.882 -0.357,-1.539 -1.545,-0.905 -3.824,8.326 0.023,6.087 1.402,0.332 9.182,-4.18 4.762,-1.65 1.78,0.78 1.54,2.661 -0.666,1.001 0.008,1.057 1.39,0.327 2.309,-1.727 0.01,-0.662 m -15.34,633.553 v 0 l -1.342,0.298 -2.085,1.551 v 1.261 l 2.408,1.718 22.76,-4.639 1.524,-1.709 -2.269,-2.342 -1.093,-0.024 -16.875,3.734 m -13.577,223.672 v 0 l 0.16,-2.06 3.329,-3.33 h 2.052 l 3.303,3.38 -1.58,3.69 -4.777,4.6 -3.322,-2.3 -0.002,-2.05 m -78.343,-830.968 v 0 l -1.522,-2.21 -0.785,0.506 -2.002,-0.782 -2.022,0.132 -1.978,0.837 -18.212,-0.3 4.53,-2.972 12.369,-6.427 0.667,-0.762 -0.008,-2.052 -2.338,-0.456 -9.471,4.48 -10.223,6.219 -5.833,4.813 -1.815,2.972 1.553,2.69 2.101,2.098 5.956,3.037 23.73,7.645 1.478,-0.467 0.862,-0.976 -0.658,-1.813 -3.985,-2.048 -22.392,-7.347 -2.28,-1.297 -1.326,-1.522 1.273,-1.351 1.029,-0.134 h 11.993 l 1.978,0.837 2.089,0.019 11.711,-1.807 3.198,-1.055 M -538.89,200.973 v 0 l 0.04,2.552 0.699,0.786 10.587,2.555 9.778,-2.61 1.931,-1.337 1.317,-1.912 1.4,-2.453 0.124,-6.048 -1.701,-3.696 -3.095,-3.095 -11.323,-6.789 -1.71,-2.433 2.55,-5.67 1.115,-1.115 9.648,-3.541 0.373,1.36 -0.643,0.979 1.327,0.336 0.454,-0.34 2.861,-2.975 -0.339,-1.507 -0.977,-0.871 -3.088,-0.018 -5.94,1.626 -5.688,2.958 -2.108,2.115 -2.565,6.608 0.176,1.364 2.503,3.487 11.368,6.423 2.101,2.098 1.577,2.636 -0.011,6.08 -1.661,1.759 -2.636,1.577 -1.06,0.124 -11.018,-0.148 0.025,-0.813 3.048,-2.874 -2.022,0.692 -2.055,-0.665 m 80.865,339.643 v 0 l 2.116,2.162 3.041,0.003 9.908,-2.828 1.358,-0.841 -1.627,-2.213 -0.582,-0.076 -9.317,1.761 m 102.751,834.751 v 0 l -0.134,-5.07 -2.347,-2.27 -0.707,0.52 -3.874,27.33 -2.844,1.9 0.023,2.2 1.881,2.31 0.002,4.04 -0.837,1.97 -0.01,2.08 1.733,2.34 1.095,0.06 1.902,-5.39 0.163,-5.49 9.684,-2.76 -0.709,-1.24 -7.934,-2.16 m 45.926,-708.367 v 0 l -0.143,-2.064 -1.329,-1.331 h -3.052 l -1.316,1.324 0.811,3.028 -0.766,2.001 0.743,0.501 2.032,6.464 0.498,0.375 1.503,-0.337 7.541,-5.378 3.432,5.757 1.032,-0.384 1.858,-1.97 -2.702,-7.948 -0.972,-1.461 -1.696,0.03 -7.977,6.65 -0.463,-1.3 0.82,-1.974 M -299,634.457 v 0 l 0.014,10.036 1.902,8.201 2.796,5.49 2.306,2.318 1.485,0.483 3.045,-0.131 -2.798,-2.63 -2.102,-5.043 -2.634,-10.688 0.12,-12.052 2.574,-5.619 4.148,-6.267 -0.014,-1.084 -1.315,-1.313 h -1.055 l -2.757,2.652 -2.002,3.004 -3.575,6.632 m 18.599,-297.7 v 0 l 9.195,-2.738 -0.092,-1.539 -1.344,-0.453 -5.993,-0.001 -3.007,0.97 -12.044,-0.131 3.994,-2.716 5.05,-0.123 2.01,0.785 0.324,-0.275 -0.876,-2.569 -3.396,-1.821 -2.117,-10e-4 -6.665,2.617 -4.91,3.323 -3.155,3.742 -2.573,4.63 0.011,2.08 3.681,3.772 6.609,2.57 h 18.122 l 5.132,-1.647 -0.664,-1.103 -26.213,-2.831 -2.638,-1.817 2.535,-4.653 0.762,-0.658 3.028,0.826 m 33.699,-288.6766 v 0 l -3.163,1.707 -1.908,5.4232 0.018,3.0877 2.325,2.3247 2.05,-6e-4 0.767,-0.6742 3.571,-7.6223 0.122,-2.0501 -0.481,-1.4844 -0.977,-0.8704 m -31.983,479.85 v 0 l -2.092,-0.135 -2.233,-1.54 3.647,-18.761 -0.362,-1.543 -0.976,-0.862 -1.508,0.34 -1.241,1.246 -3.671,17.921 -1.04,2.21 -1.541,-0.727 -5.023,-0.133 -1.484,0.482 -0.861,0.975 0.583,1.746 8.954,2.548 -0.68,1.737 0.123,14.051 1.577,2.636 1.757,1.652 1.508,-0.34 0.871,-0.976 0.119,-1.024 -1.832,-3.948 -0.003,-11.112 1.819,-3.364 2.572,0.07 0.947,0.695 2.027,-0.642 0.973,0.642 1.369,-0.316 0.009,-2.053 -0.87,-0.977 m -64.53,991.453 v 0 l -1.887,3.03 -2.092,-0.8 -2.368,1.69 0.046,1.66 1.35,1.47 0.999,0.8 1.007,-0.6 0.323,0.27 -2.697,8.97 -0.116,7.06 0.455,1.34 1.707,0.04 0.88,-1.33 3.976,-15.49 12.47,-2.98 1.345,-0.9 -0.349,-1.16 -0.974,-0.87 -5.023,-0.14 -3.007,0.97 -2.33,-0.45 6.334,-19.5 2.362,-5.48 0.035,-2.68 -2.368,-1.69 -1.848,2.63 m 32.815,-631.687 v 0 l -10.457,5.787 -2.808,-9.152 -1.362,-0.624 -1.724,2.31 1.802,17.16 1.835,7.655 0.695,0.591 2.051,-0.008 0.456,-1.346 -0.117,-5.057 -1.734,-4.879 0.017,-2.083 0.603,-0.706 6.188,-2.253 4.245,-2.231 5.71,-4.154 -0.368,-1.976 -3.054,-0.009 m 4.048,-95.17 v 0 l -2.397,2.738 -2.101,-15.178 -0.998,-0.038 -0.877,0.973 -0.134,19.023 0.482,1.484 0.975,0.869 1.661,0.047 1.844,-2.369 9.521,-9.325 1.692,2.373 1.579,4.671 1.705,1.605 2.326,-0.346 -0.6,-1.005 0.633,-1.037 -1.614,-4.924 -3.063,-6.425 -2.682,0.034 -3.664,2.567 m -29.311,420.425 v 0 l -4.971,3.7 -1.37,-0.31 -0.02,-3.08 2.847,-6.96 -0.142,-2.02 -1.999,-0.36 -4.052,8.44 -1.66,4.89 -0.117,3.06 0.482,1.48 0.977,0.87 3.08,0.01 10.918,-6.68 2.816,2.64 3.425,6.36 1.418,0.69 1.711,-2.38 -3.554,-7.67 -2.098,-2.11 -2.636,-1.57 -3.08,0.01 m -32.955,-542.131 v 0 l -3.965,-2.881 -1.06,-0.124 -5.02,0.134 -2.619,1.933 -2.566,4.103 -2.14,2.29 -0.134,1.029 0.123,8.051 1.577,2.636 1.759,1.661 h 6.052 l 3.664,-2.566 4.06,-4.061 2.721,-6.724 -1.722,-4.726 m 18.255,319.383 v 0 l -0.757,0.629 -2.576,6.687 1.353,0.368 0.687,-0.532 2.592,19.985 1.693,1.503 0.7,-0.507 1.654,-11.769 -0.772,-1.52 -2.163,-12.998 -0.911,-1.482 m 17.997,110.939 v 0 l 0.129,2.1 1.68,4.86 1.168,2.05 1.797,1.78 3.666,1.62 4.053,0.12 5.755,-2.73 1.727,8.2 1.578,0.4 2.237,-1.53 -1.972,-20.39 -0.582,-0.8 -1.761,0.01 -0.687,0.58 -2.531,9.48 -3.704,2.65 -2.113,0.01 -3.632,-1.59 -1.671,-2.73 v -9.1 l 1.729,-2.35 2.266,-0.2 1.728,-2.35 -0.01,-2.08 -0.875,-0.97 -0.782,-0.17 -5.51,2.51 -3.55,7.6 m 4.898,-76.95 v 0 l -1.888,5.016 2.72,13.934 -0.849,3.06 0.133,3.03 1.323,1.32 1.089,0.12 2.305,-3.41 0.12,-4.06 -0.851,-2.63 17.056,-11.585 2.62,-2.57 2.667,-1.707 0.492,-1.508 -0.989,-2.003 -1.535,-0.354 -2.635,1.572 -7.62,6.57 -8.395,5.39 -1.132,-0.399 -0.581,0.614 -2.871,-10.731 m 55.967,-911.8749 v 0 l 1.664,-1.7566 v -1.055 l -1.342,-1.2717 -0.973,0.6419 -1.362,-0.314 0.668,-3.0543 -0.881,-0.3552 -2.701,6.1023 -1.96,2.0646 2.21,1.5514 m -165.843,95.3975 v 0 l -2.158,-2.034 -1.034,0.628 -3.691,-1.58 -3.626,-4.723 v -2.052 l 3.702,-3.948 0.134,-6.022 -0.483,-1.486 -2.521,-2.52 -1.536,-0.354 -2.635,1.571 -2.095,2.095 -4.007,6.012 -2.574,5.619 v 5.118 l 1.617,3.666 1.749,1.574 1.351,-1.273 10e-4,-2.052 -0.837,-1.978 0.123,-5.05 3.574,-6.63 4.002,-4.525 1.137,1.183 v 3.052 l -2.661,2.759 -3.031,2.188 0.156,1.334 2.177,4.156 1.486,2.509 2.02,2.026 3.448,2.364 3.112,0.003 M -341.14,1244.5 v 0 l -1.333,-1.34 h -1.054 l -1.315,1.31 -0.019,1.09 2.088,5.02 1.153,4.19 4.523,24.09 1.085,2.61 2.536,0.38 2.191,-3.04 3.57,-3.62 12.002,-17.01 7.569,-13.63 -0.014,-1.08 -1.314,-1.32 -1.671,-0.04 -7.569,13.07 -1.573,1.63 -10.43,15.38 -2.782,2.61 -0.714,-0.53 -4.526,-22.78 M -260.985,44.1433 v 0 l 0.829,0.3219 0.021,2.0933 -2.574,5.6171 -0.793,0.6222 -1.349,-1.2715 v -3.0526 l 1.348,-1.2711 0.736,0.4927 M -495.253,1197.73 v 0 l -5.919,-2.43 -2.962,-2.37 -3.717,-4.4 -0.011,-8.08 2.573,-4.63 2.817,-2.84 2.917,-1.84 1.397,0.33 0.009,4.06 -2.348,2.27 -0.787,-0.51 -1.553,2.21 1.704,2.4 1.689,-0.04 3.601,-1.95 2.709,-5.35 -0.004,-3.11 -2.88,-3.95 -1.486,-0.49 -4.022,0.14 -3.946,2.83 -3.821,3.84 -1.021,1.95 -1.672,4.74 0.124,9.04 3.554,5.62 4.049,3.05 6.81,1.75 m 89.45,141.57 v 0 l -0.016,-35.04 -0.483,-1.48 -2.002,-1.82 -1.351,1.27 -0.134,1.03 0.133,4.03 0.837,1.97 -0.118,9.06 -3.508,12.68 -1.853,4.73 -2.218,4.21 -1.761,1.66 -1.508,-0.34 -1.304,-1.31 -1.577,-2.64 -0.124,-1.06 0.12,-3.05 3.556,-7.6 3.81,-2.64 2.005,1.6 0.333,-0.28 0.005,-4.05 -2.339,-0.45 -1.484,0.48 -3.21,2.21 -3.107,4.12 -2.571,6.61 -0.118,3.05 2.673,6.67 2.759,1.7 2.05,0.12 1.486,-0.48 2.303,-2.31 4.066,-6.28 3.347,9.25 1.776,1.69 3.05,-0.01 0.002,-0.68 -1.526,-0.22 -1.867,-4.38 m 43.844,-706.082 v 0 l 0.875,0.991 0.01,5.085 -1.577,2.636 -3.303,3.312 -2.506,0.335 0.323,-1.338 -1.031,-1.253 -1.636,-4.686 0.016,-3.086 0.926,-1.607 2.372,-1.729 4.08,0.01 m -23.018,480.672 v 0 l -0.039,-0.65 1.333,0.33 m 49.988,65.98 v 0 l -0.593,0.02 m -12.155,-783.025 v 0 l -3.232,2.24 -1.652,1.756 0.158,1.336 2.397,4.376 0.763,0.667 1.022,0.12 1.304,-0.282 3.227,-2.223 1.814,-3.958 -1.558,-2.697 -1.759,-1.661 m -31.54,449.315 v 0 l 0.144,2.093 1.737,4.882 -0.024,3.089 -1.347,0.456 -5.054,-0.119 -3.194,-1.583 6.016,-13.817 M -522.041,336.477 v 0 l 0.893,0.992 0.01,2.085 -2.552,4.608 -3.047,2.056 -5.731,1.617 -0.36,-0.312 0.144,-1.331 4.66,-7.663 3.47,-2.391 m 230.063,-110.972 v 0 l -0.014,0.805 6.37,5.898 -0.39,1.14 -2.665,1.706 -3.677,4.14 0.887,1.647 1.507,0.34 7.945,-6.684 2.522,0.743 1.868,-4.34 -0.334,-1.403 -2.054,-0.01 -0.945,0.694 -1.084,0.014 -4.629,-2.567 -2.532,-2.997 -0.76,0.56 m -54.52,1106.628 v 0 l -0.775,0.22 -3.151,-1.65 -0.063,-4.55 0.97,-3 10e-4,-8.99 -2.022,-9.25 -1.139,-1.15 -2.653,5.36 0.871,0.57 1.822,3.4 0.121,1.07 -0.117,9.05 -1.915,6.4 -2.48,-0.11 -1.947,-1.69 -1.507,0.34 -0.862,0.97 0.658,1.82 6.043,3.57 -2.728,12.58 0.026,5.09 1.853,0.4 1.212,-3.39 2.813,-13.48 7.429,-2.04 0.333,-0.52 -1.269,-1.34 m -74.525,146.31 v 0 l -1.555,0.39 -3.946,-2.86 -2.749,-3.77 -1.638,-3.71 6.04,-3.21 2.707,-4.76 -0.011,-7.08 -1.626,-1.72 -3.665,-1.61 h -1.116 l -2.634,1.58 -4.662,4.75 -0.01,12.08 2.615,5.68 1.962,2.96 4.095,4.09 2.636,1.58 4.08,-0.01 2.325,-2.32 v -2.06 l -1.351,-1.27 m 17.361,-302.7 v 0 l -3.335,-3.35 h -5.052 l -2.759,2.66 -7.943,12.94 -2.638,7.69 -0.12,11.05 2.652,8.71 2.048,3.98 0.761,0.66 1.758,-0.6 0.989,-3.58 3.528,-23.35 0.327,0.82 2.423,1.71 2.69,-1.56 2.095,-2.09 2.007,-3.01 2.574,-5.62 -0.004,-3.11 m 727.928,139.03 v 0 l -0.593,0.02 M 105.817,965.459 v 0 l -0.314,1.346 -0.333,-1.33 M -471.861,1450.5 v 0 l 2.146,-2.31 1.577,-2.64 -0.011,-4.08 -1.349,-1.27 -0.788,0.62 -7.22,12.21 -3.465,10.47 2.74,10.74 2.069,3.07 4.608,2.55 1.056,0.11 1.478,-0.47 0.821,-1.01 -1.947,-0.59 -4.083,-4.65 -2.742,-9.75 1.763,-5.95 m 52.194,-791.014 v 0 l 3.803,-18.807 2.922,-4.913 2.099,-2.101 2.668,-1.538 0.506,2.317 -2.695,5.69 -2.574,2.626 -1.538,2.662 1.297,1.379 h 2.052 l 3.496,-3.379 3.298,-6.213 1.527,-3.759 -1.598,-3.725 -1.723,-1.627 -4.08,-0.01 -2.636,1.577 -2.035,1.978 -2.283,-4.679 -0.42,0.025 -2.926,12.504 -2.472,5.231 -2.66,7.732 0.118,9.054 1.64,4.685 0.731,0.552 1.729,-1.551 M -384.96,58.4768 v 0 l -4.329,4.3395 -2.958,4.9557 -1.619,3.6694 v 3.1172 l 1.616,3.6665 2.066,2.0636 4.63,2.5735 6.078,-0.0245 -0.341,-1.1233 -3.893,-2.4235 3.999,-4.1073 2.573,-4.6295 v -9.1083 l -2.338,-3.2968 -4.02,-0.1339 M -461.503,1290.15 v 0 l 1.354,1.32 0.134,1.03 -0.133,3.03 -0.651,0.97 1.273,1.35 2.054,-0.01 0.456,-1.34 -0.133,-7.03 -3.325,-3.32 h -4.052 l -1.68,1.54 -2.215,-8.67 -1.11,0.14 -0.453,1.34 0.141,14.03 2.367,0.32 3.494,-4.35 m 26.107,-384.571 v 0 l 1.713,-2.429 -1.705,-2.396 -1.661,0.046 -14.287,10.137 -9.368,5.426 -0.668,0.763 -0.011,3.078 2.364,3.447 2.314,2.287 2.252,1.228 13.123,5.163 7.255,4.183 5.08,-0.011 1.183,-1.138 -7.523,-5 -5.729,-2.916 -6.157,-2.117 -4.508,-2.154 1.655,-1.387 9.053,-0.138 9.938,1.869 7.116,-0.008 4.629,-2.575 0.658,-0.762 -0.335,-1.326 -2.01,0.786 -5.99,10e-4 -14.943,-2.853 -3.067,0.852 -8.212,-0.3 9.906,-6.4 1.626,-1.574 m 19.904,-211.526 v 0 l 3.724,2.676 1.118,0.114 2.267,-3.448 -1.356,-0.37 -0.971,0.641 -2.364,-3.244 -0.003,-2.112 1.582,-3.194 9.468,5.465 4.59,3.536 3.54,1.521 1.353,-1.968 -0.17,-0.779 -3.308,-3.308 -7.374,-4.426 -1.525,-1.576 3.002,-2.536 2.55,-5.67 -2.319,-3.358 -5.05,-10e-4 -2.608,1.926 -3.154,3.742 -4.578,9.625 0.004,4.113 m 28.34,-413.344 v 0 l 0.027,0.593 m 1.017,-1.013 v 0 l -0.027,-0.593 m 13.027,-207.2187 v 0 l -2.519,3.4971 -0.978,0.0242 -1.876,-1.9733 -0.011,-5.0804 4.579,-7.6356 0.759,-0.6608 2.05,-5e-4 1.325,1.3247 0.011,5.0804 M -388.5,169.872 v 0 l -9.662,-5.562 -3.689,-4.784 -0.011,-4.08 3.91,-8.486 3.793,-2.436 -0.697,-3.079 2.718,-4.891 -0.02,-2.082 -1.975,-0.368 -3.156,3.712 -2.422,4.368 -6.088,7.315 0.651,0.975 0.133,2.02 -1.851,4.947 0.004,2.113 4.577,6.636 1.818,1.838 3.692,1.722 3.066,2.308 -6.775,1.926 -2.706,1.731 -3.098,3.101 -3.578,7.625 -0.119,7.055 1.059,2.637 2.372,1.728 2.396,-0.333 0.009,-2.054 -1.703,-1.948 -0.01,-8.08 2.552,-4.608 2.5,-1.553 2.828,-2.787 3.478,-0.483 3.007,0.97 h 5.994 l 2.001,-0.783 2.479,3.27 4.157,3.602 2.881,3.426 1.129,0.581 2.935,5.211 2.458,8.68 1.866,0.117 1.459,-2.535 v -4.108 l -3.356,-6.411 -1.484,-2.507 -10.821,-11.028 1.932,-1.574 2.154,-2.741 9.03,-15.93 2.939,-7.743 1.608,-5.949 -1.693,-5.029 0.629,-1.04 -0.276,-0.332 -2.02,-0.145 -1.347,0.455 -0.142,4.024 0.818,2.041 -2.498,7.691 -2.819,6.703 -7.228,13.253 -3.816,3.639 -2.918,-1.685 m 489.236,799.34 v 0 l -0.593,0.027 m -545.342,96.995 v 0 l -0.709,0.97 0.003,3.06 1.323,1.31 h 1.056 l 8.662,-5.56 2.283,-2.12 h 1.054 l 1.766,1.66 3.699,7.65 1.139,0.39 1.724,-2.3 -1.536,-4.82 -2.031,-3.92 -2.762,-2.67 -4.08,-0.01 -7.918,5.7 -1.362,-0.31 1.627,-5.98 2.03,-4.03 -0.3,-0.35 -1.53,0.35 -1.509,2.55 -2.35,5.37 m 18.883,-300.979 v 0 l 0.115,2.094 1.621,3.673 3.057,4.057 2.962,1.962 3.669,1.618 4.083,-0.028 -0.605,-1.981 -6.103,-3.568 -1.839,-1.816 -2.8,-4.944 2.108,-2.338 1.577,-2.636 -0.011,-7.08 -1.661,-1.759 -2.636,-1.577 -1.054,-0.109 -4.725,1.721 -3.064,3.066 -2.573,4.63 0.011,10.08 4.325,4.325 h 2.052 l 1.296,-1.379 -3.684,-4.918 -0.004,-6.113 1.617,-3.666 2.267,-2.278 1.486,-0.481 2.024,0.141 0.456,1.347 -0.133,3.022 -3.353,3.491 m 25.648,-414.561 v 0 l -0.643,1.42 -3.319,3.413 -4.368,2.422 -1.838,1.816 -2.689,4.182 -0.765,-0.561 -2.052,0.009 -0.44,1.343 0.44,1.343 3.082,0.019 2.636,-1.577 2.648,-3.595 4.346,-2.401 6.685,-7.155 1.414,0.676 4.551,7.497 2.638,1.67 3.344,3.312 4.63,2.573 9.113,0.004 9.662,-3.591 1.496,-0.957 -2.271,-0.18 -2.918,1.733 -0.683,-0.009 -1.523,-1.639 -5.822,1.748 -5.948,-1.765 -3.737,-1.918 -3.949,-3.362 -5.728,-8.372 v -2.108 l 1.577,-2.636 5.57,-5.62 2.001,-3.004 4.402,-9.344 7.536,-3.595 0.617,-0.723 -0.313,-1.367 -4.082,-0.019 -4.919,2.84 -2.758,2.775 -2.25,6.188 -2.232,4.242 -1.421,0.891 -4.073,4.616 -2.388,-12.851 -2.207,-7.116 -4.638,-1.59 -2.086,0.016 -3.249,3.101 -3.695,1.741 -0.03,0.983 0.974,0.877 2.022,0.133 1.484,-0.48 3.465,-2.361 1.084,0.015 1.54,0.903 1.04,2.249 1.877,8.197 -10e-4,3.989 -0.837,1.978 -0.146,2.026 0.84,4.027 m -36.087,547.243 v 0 l -2.621,6.671 v 2.117 l 2.573,5.619 3.312,3.325 1.508,0.34 1.324,-1.316 0.118,-1.026 -0.467,-1.482 -1.787,-1.828 -1.577,-2.636 -0.004,-4.113 1.617,-3.666 2.749,-2.575 1.351,1.274 0.118,1.026 -0.492,1.508 -2.375,1.859 0.396,3.115 4.318,4.306 11.629,5.568 1.397,-0.329 0.01,-2.053 -0.933,-1.618 -10.103,-5.568 -1.639,-1.816 1.685,-2.918 0.124,-1.06 -0.135,-5.018 -0.662,-0.759 -2.635,-1.58 -4.08,0.011 m 8.003,-203.108 v 0 l 2.995,-2.882 1.363,0.313 -0.333,1.51 -2.974,2.861 -1.363,-0.313 m 13.834,494.931 v 0 l -0.134,2.09 -2.576,4.63 -2.763,2.67 -2.054,-0.01 -0.456,-1.34 -0.002,-5.99 1.701,-3.7 3.154,-3.68 h 0.622 l 2.36,2.34 M -550,1052.46 v 0 l -0.13,6.1 -1.856,9.95 10e-4,5.99 0.482,1.48 0.977,0.87 2.022,0.13 1.361,-0.48 -1.839,-2.96 0.13,-2.07 0.837,-1.97 0.094,-4.55 5.098,-2.66 1.633,-1.58 5.38,-3.43 2.62,-2.57 3.19,-2.21 0.842,-0.97 -0.007,-1.06 -1.394,-0.33 -5.619,2.57 -10.327,7.09 -0.48,-3.3 0.97,-3 -10e-4,-10 -0.453,-1.34 -1.485,-0.12 -1.915,6.4 m 8.752,-139.94 v 0 l -2.869,7.005 0.12,9.053 1.619,3.67 1.962,2.962 3.283,3.308 3.448,2.364 6.08,-0.011 1.302,-1.384 -1.577,-3.166 -1.785,1.528 -3.933,-1.801 -2.818,-2.838 -1.962,-2.962 -1.619,-3.669 -0.117,-2.055 0.505,-1.327 2.924,1.685 h 5.108 l 4.753,-2.696 1.94,-2.938 1.619,-3.67 -0.015,-8.085 -1.667,-1.762 -4.63,-2.573 h -3.108 l -3.578,1.938 -4.731,6.403 m 6.725,-111.048 v 0 l 0.631,1.548 3.289,4.274 7.658,2.614 2.395,-0.338 -0.634,-2.029 1.599,-2.005 -1.327,-0.337 -0.947,0.694 -2.08,0.01 -4.608,-2.553 -3.689,-5.783 0.014,-2.05 2.34,0.509 3.058,-0.118 4.688,-1.639 2.941,-1.943 3.103,-3.108 2.573,-5.619 0.132,-2.058 -0.147,-2.027 -2.666,-2.761 -3.737,-1.919 -4.887,-1.661 -3.055,-0.118 -4.731,1.736 -3.073,3.08 -2.57,6.609 -0.118,3.054 1.867,9.375 M -533,780.543 v 0 l 0.138,-3.098 1.577,-2.635 3.731,-2.672 3.113,-0.004 5.618,2.573 1.674,1.767 0.011,2.08 -1.839,2.918 -2.846,2.821 -5.619,2.572 -2.276,-0.185 1.266,-1.528 -2.076,0.67 -2.37,-1.69 m 44.933,-723.6461 v 0 l -3.361,6.2884 -2.54,6.6671 v 9.1172 l 2.574,5.6194 3.102,4.107 7.636,4.5771 3.114,0.0046 2.8,-1.3616 -7.833,-3.4832 -3.812,-3.8318 -1.962,-2.9621 -1.739,-4.7341 0.12,-6.0526 3.384,-8.3854 1.935,-2.0269 1.527,0.4683 0.871,0.9764 0.134,9.0227 -0.483,1.4854 -4.303,5.5232 1.305,0.4789 3.022,-0.1325 1.767,-1.6746 2.573,-5.6182 v -8.1172 l -1.617,-3.6665 -2.723,-2.6263 -4.022,-0.1335 M -535.72,908.197 v 0 l 1.696,-2.669 1.498,-1.38 h 4.052 l 1.325,1.325 0.011,5.081 -2.552,4.607 -2.753,1.695 -6.468,-1.897 1.597,-4.185 m 74.099,-274.417 v 0 l -0.757,0.138 -3.953,4.253 -2.569,-9.738 -0.431,0.029 -3.944,17.399 -0.115,4.058 0.479,1.304 1.5,-0.827 2.054,-5.012 3.265,-1.801 3.76,-5.294 2.791,-2.378 m 63.638,-402.633 v 0 l -0.97,-0.709 -2.376,0.326 -0.032,2.714 1.25,0.827 32.316,4.774 -3.976,4.023 -1.692,2.662 -8.308,8.338 -1.43,2.38 -6.57,6.62 -1.692,2.662 -9.55,9.551 -2.369,1.844 0.393,2.113 0.976,0.862 1.812,-0.55 1.548,2.015 2.613,1.555 4.054,0.137 16.206,-2.128 20.278,-1.976 -0.136,-1.423 -0.623,-0.719 -4.731,-1.739 -5.057,0.115 -17.944,2.857 -5.209,-0.301 8.9,-5.396 1.626,-1.574 5.38,-3.43 8.282,-6.262 13.817,-13.839 2.573,-4.63 0.123,-3.051 -0.483,-1.485 -2.976,-2.87 -2.531,-0.211 -1.99,-3.873 -1.534,0.087 -2.945,2.7 -11.026,0.148 m -35.356,284.421 v 0 l -0.292,4.106 -0.837,1.977 0.115,3.059 1.786,7.13 2.062,3.78 3.852,3.826 6.609,2.57 3.123,10e-4 6.712,-1.663 0.414,-0.438 -10.413,-2.6 -4.453,-1.876 -3.107,-3.102 -1.577,-2.636 -0.004,-13.113 5.578,-12.625 4.573,-5.626 1.577,-2.636 -0.359,-2.534 -1.003,-0.819 -0.475,0.299 -5.31,5.31 -6.235,11.25 m 3.649,-89.56 v 0 l 1.738,2.395 1.658,-0.046 0.726,-0.632 6.472,-19.411 1.728,-1.777 5.988,1.838 6.728,0.251 5.584,16.103 0.726,0.629 2.049,10e-4 1.316,-1.322 -3.09,-9.878 -2.561,-20.005 -1.682,-8.553 -3.187,-10.324 -2.036,-3.953 -0.762,-0.667 h -2.048 l -1.668,2.45 -4.44,17.601 -3.05,8.054 -2.644,5.52 -6.389,17.933 -0.269,-2.203 0.819,-3.033 -1.363,-0.313 -1.323,1.316 -10e-4,2.052 0.651,0.974 -0.598,1 0.652,0.974 m -131.014,436.075 v 0 l 0.296,-2.101 1.58,-2.638 2.136,-2.284 v -4.052 l -1.322,-1.323 -1.529,-0.087 -5.134,10.347 -1.735,6.027 0.003,2.12 1.617,3.667 3.024,3.024 3.666,1.616 2.053,0.12 6.437,-2.469 2.541,-1.494 6.813,-6.832 1.968,-2.886 2.519,6.945 2.941,4.934 1.791,0.801 2.339,-0.457 0.019,-2.081 -3.072,-6.022 -3.439,-12.649 -1.827,-3.616 -1.825,0.677 -2.599,7.757 -2.815,4.597 -6.108,6.103 -1.951,1.021 -3.666,1.546 -1.116,-0.004 -3.946,-2.874 -0.483,-1.486 v -3.992 m 43.007,-674.026 v 0 l -2.307,2.332 -1.577,2.636 0.011,2.08 2.667,2.762 5.74,2.916 7.255,2.186 12.626,2.48 4.059,0.115 1.486,-0.483 1.52,-1.521 0.328,-1.506 -0.324,-0.276 -1.043,0.633 -13.494,-2.652 -9.891,-2.677 -3.571,-1.497 -2.372,-1.875 0.365,-1.114 1.519,-1.519 1.508,-0.34 1.972,1.641 0.974,-0.642 h 1.054 l 1.976,0.828 7.99,10e-4 22.723,-3.592 5.222,-1.258 3.117,0.72 2.341,-1.723 0.075,-0.585 -0.468,-1.529 -0.977,-0.87 -4.019,-0.135 -22.014,3.972 -17.017,-0.148 0.025,-0.813 3.309,-3.31 5.38,-3.43 1.626,-1.574 12.224,-6.759 1.789,-3.419 -1.302,-1.375 -1.053,0.008 -0.499,0.829 -4.465,1.996 -13.7,8.724 -4,3 m 35.711,999.305 v 0 l 0.525,2.02 3.42,1.79 1.074,-0.67 7.149,1.73 2.185,1.05 -4.844,21.56 0.467,1.48 0.977,0.87 h 2.048 l 0.681,-0.57 2.391,-13.51 4.276,-19.21 -0.027,-5.09 -1.846,-0.4 -3.729,11.68 -1.913,-0.96 -10.792,-2.66 m -75.718,-478.632 v 0 l -0.699,0.969 0.003,2.059 1.702,1.948 0.148,2.026 -0.014,4.996 -0.784,2.004 0.784,2.004 v 11.992 l -0.837,1.978 -0.134,3.02 0.303,1.311 2.175,2.166 1.327,-0.911 1.942,-20.308 10.711,-7.729 8.031,-8.041 0.48,-2.478 -0.455,-1.347 -2.054,-0.008 -9.284,9.136 -7.448,5.461 -2.539,-14.027 -0.679,-0.56 -1.051,-10e-4 -1.973,1.867 m 3.646,-45.603 v 0 l -0.13,3.075 0.505,1.326 5.294,-4.11 4.656,-2.583 0.724,0.026 2.875,8.805 0.968,-0.044 1.827,-3.359 0.002,-2.119 -2.809,-7.354 -3.617,0.049 -3.666,1.616 -1.28,1.051 -0.325,-0.275 0.149,-1.339 2.547,-5.628 -0.015,-3.085 -1.348,-1.271 -0.73,0.55 m 5.113,-161.269 v 0 l -2.872,13.022 0.135,9.02 1.322,1.323 1.584,0.07 1.894,-2.805 2.554,0.871 7.991,10e-4 11.566,-3.165 -5.567,-1.807 -4.019,0.134 -1.978,0.837 -7.054,-0.12 -3.328,-1.823 0.387,-1.026 4.309,-4.301 11.374,-6.427 1.658,-1.761 -0.312,-1.361 -1.092,-0.03 -6.027,1.73 -5.597,2.847 -4.319,3.087 -0.332,-0.276 -0.032,-2.086 3.855,-19.945 -0.135,-3.019 -0.877,-0.974 h -0.949 l -1.24,1.233 -2.654,12.705 m 60.145,516.806 v 0 l -12.777,2.679 -1.361,1.57 2.336,2.358 2.087,0.017 6.946,-1.854 h 14.986 l 9.948,2.851 2.055,0.119 1.486,-0.482 1.86,-1.975 -0.313,-1.362 -2.03,0.634 -1.281,-1.052 -3.059,-1.116 -10.597,-2.501 M -548,1167.46 v 0 l 2.01,28.03 1.734,6.73 1.474,0.79 9.289,1.97 2.054,-0.11 6.609,-2.57 3.083,-4.08 2.733,-9.73 -0.12,-10.05 -2.617,-6.66 -1.964,-2.97 -5.061,-5.06 -5.67,-2.61 -5.113,-0.01 -4.479,1.76 -2.437,-3.73 -1.367,0.31 m 157.82,-884.948 v 0 l 4.307,-4.332 1.43,-2.38 6.57,-6.62 1.43,-2.38 10.57,-10.62 1.549,-2.498 3.64,-2.543 1.03,-0.133 2.057,0.115 5.386,1.896 -0.086,1.53 -1.576,2.633 -14.095,14.095 -9.38,6.43 -5.626,4.573 -11.629,6.568 -1.356,-0.351 0.302,-0.48 m -143.33,702.428 v 0 l 2.846,9.043 2.085,17.634 2.37,1.69 5.813,-5.63 10.43,-14.38 8.152,-9.706 1.661,0.045 0.976,0.649 0.294,-0.294 -0.641,-0.977 v -1.054 l 0.695,-0.947 -10e-4,-3.053 -1.324,-1.315 h -1.054 l -5.496,5.37 -8.692,11.662 -2.57,2.619 -3.43,5.381 -2.85,3.1 -2.305,-11.465 -1.804,-5.996 -1.304,-2.302 -1.495,-1.369 -1.506,0.339 m 82.183,481.703 v 0 l 3.209,-2.33 6.025,-1.73 2.064,0.66 0.168,-0.6 -1.537,-2.1 -6.687,0.04 -4.63,2.57 -2.658,2.76 v 1.06 l 2.658,2.76 7.411,3.46 2.963,1.96 1.661,1.76 0.011,3.08 -2.338,3.3 -10.021,0.13 -2.031,-0.8 -2.364,1.69 -0.042,1.12 5.44,2 6.055,-0.12 4.685,-1.64 2.003,-2.01 1.617,-3.66 -0.004,-3.11 -1.577,-2.64 -2.101,-2.1 m 76.85,-1397.2238 v 0 l -2.321,3.3282 -3.575,6.6315 0.011,3.0804 0.871,0.9763 1.507,0.3395 2.248,-2.0916 6.415,-3.4656 6.026,-4.9763 2.957,8.5966 1.677,-2.4222 -1.647,-8.7633 -0.681,-0.5706 -3.048,-5e-4 -6.284,5.1363 -5.635,3.5713 -1.085,-0.022 -0.326,-1.3892 2.567,-4.6287 3.089,-3.3214 -1.299,-0.4631 m 15.709,335.4902 v 0 l 0.593,-0.027 M -270,230.457 v 0 l 0.016,3.04 0.456,1.345 2.082,0.02 7.92,-4.734 0.655,0.007 3.864,5.342 1.536,0.358 0.313,-0.307 0.009,-3.054 -2.566,-3.664 -1.759,-1.661 -3.08,-0.011 -5.703,3.608 -1.726,-6.211 -0.52,-0.332 -1.349,1.271 M -434.79,1112.47 v 0 l 2.291,0.53 2.995,-0.02 1.306,-0.48 -2.302,-0.5 -2.996,0.02 m 30.787,-463.771 v 0 l -0.142,6.277 1.141,1.183 1.911,-3.268 2.332,-7.382 1.42,-2.942 2.55,0.868 3.993,-10e-4 1.346,-0.456 -0.337,-2.329 -1.039,0.63 -6.235,-2.532 3.639,-17.735 0.114,-4.059 -0.455,-1.338 -1.784,0.624 -0.907,2.538 -3.462,16.914 m 15.125,-163.103 v 0 l 1.341,1.335 v 1.054 l -1.652,1.758 -2.636,1.577 -9.051,0.123 -2.004,-0.784 -1.35,1.273 v 2.052 l 1.325,1.325 1.029,0.134 11.056,-0.119 3.666,-1.617 2.06,-2.059 1.577,-2.636 v -3.108 l -1.554,-2.612 -2.498,-1.549 -6.519,-6.571 2.155,-1.576 3.054,-0.138 6.659,0.106 1.549,1.605 1.134,-1.184 0.001,-1.054 -0.917,-1.606 -2.372,-1.729 h -10.108 l -4.63,2.573 -1.658,1.76 -0.014,1.084 1.833,2.917 7.04,7.03 m -62.562,641.318 v 0 l 6.041,0.16 1.306,-0.48 -1.306,-0.48 h -4.992 l -1.31,0.48 m 28.016,-0.03 v 0 l 2.291,0.53 12.995,-0.02 1.306,-0.48 -2.302,-0.5 -12.996,0.02 M 272.478,73.2095 v 0 l 0.027,0.5931 M -398.21,283.478 v 0 l -0.593,0.027 m -126.15,912.945 v 0 l -3.521,3.4 -11.022,0.13 -1.339,-0.45 0.148,-1.33 2.486,-3.7 h -0.774 l -2.301,2.2 -0.589,-1.23 -2.121,-21.98 0.068,-6.54 6.358,-2.81 h 1.116 l 5.668,2.61 5.069,5.07 2.693,6.69 v 12.98 m 14.225,-250.976 v 0 l 2.074,-2.324 5.577,-8.636 -0.011,-4.081 -3.325,-3.325 -9.085,-0.014 -3.666,1.619 -0.616,0.722 0.338,1.505 0.976,0.862 3.03,-0.827 8.025,0.142 0.456,2.339 -0.482,1.486 -1.787,1.828 -1.43,2.38 -4.095,4.095 -2.667,1.707 -0.459,2.008 10.377,4.865 9.055,0.119 1.339,-0.455 0.006,-1.055 -2.283,-1.583 -10.816,-2.674 M -454.96,76.4769 v 0 l -3.896,5.415 -7.705,-0.0244 -5.945,-1.8535 -2.99,0.0017 -1.345,0.4538 -0.091,1.5364 3.767,1.3445 13.093,2.7337 -2.428,5.9475 -4.345,13.4574 1.671,2.417 1.475,-2.637 4.373,-13.4953 7.149,-15.2524 -1.323,-0.4895 m -31.044,479.9692 v 0 l 3.071,0.147 0.979,0.652 0.335,-1.325 -1.979,-1.445 -13.769,-3.055 1.717,-2.26 5.323,-3.789 1.723,-2.371 -0.328,-1.397 -2.082,-0.02 -4.63,2.573 -5.321,4.089 -0.332,-0.276 -0.015,-2.05 0.837,-1.978 v -17.993 l -0.482,-1.483 -1.003,-0.819 -2.342,2.271 0.827,3.032 10e-4,7.989 -1.972,11.014 0.143,9.021 1.903,0.387 1.657,-2.666 6.722,2.618 5.057,0.118 1.977,-0.837 m -11.995,240.064 v 0 l 0.504,1.284 0.003,2 -0.97,3.008 0.142,7.024 2.369,0.323 1.273,-1.351 -0.768,-2 0.954,-3.004 v -9.993 l -0.483,-1.485 -2,-1.816 -2.217,2.988 -5.114,5.107 -6.108,2.704 0.088,1.528 1.32,1.312 1.084,0.015 5.635,-3.571 m 15.332,-164.307 v 0 l -4.807,4.832 -2.566,3.663 v 4.053 l 3.353,4.476 3.944,2.86 7.078,-0.024 -0.55,-1.832 -6.145,-2.709 -2.331,-2.315 -0.483,-1.486 0.134,-3.022 6.667,-6.762 8.661,-4.705 0.507,-1.511 -0.141,-2.024 -2.369,-0.323 -1.29,1.139 -8.368,4.423 m 22.34,416.719 v 0 l 1.83,9.08 -0.134,3.02 -0.837,1.97 v 6 l 0.482,1.48 1.003,0.82 1.711,-1.53 1.855,-7.19 1.407,0.76 h 1.054 l 0.971,-0.84 3.358,-5.45 -0.022,-1.08 -2.36,-0.32 -3.695,3.8 -3.523,-12.16 -1.387,-0.66 m 77.136,-651.602 v 0 l 2.247,-6.043 2.529,-10.172 2.489,6.206 2.599,11.919 -0.026,6.09 -1.347,0.456 -6.055,-0.118 -5.201,-2.552 2.625,-4.763 M -514.15,1053.57 v 0 l 10e-4,-3.1 -0.852,-0.97 -1.473,-1.35 -3.08,-0.01 -2.636,1.58 -3.097,3.09 -1.846,3.6 -1.736,6.03 10e-4,5.12 2.553,6.59 2.761,1.71 6.113,0.01 4.124,-2.07 -9.141,-1.76 -0.757,-0.77 -1.641,-6.77 1.723,-6.09 2.111,-3.88 1.495,-1.37 1.35,0.36 -1.538,2.67 -2.136,2.28 0.009,2.06 2.368,0.32 2.763,-2.67 m 130.249,-448.048 v 0 l -1.389,1.342 v 2.052 l 4.559,5.185 1.121,-1.245 -2.347,-5.41 m 614.727,689.464 v 0 l 0.593,-0.03 M -539.79,917.522 v 0 l 0.593,-0.027 M 299.478,90.2095 v 0 l 0.027,0.5931 M -385.454,637.918 v 0 l -2.412,6.523 -0.133,2.059 0.101,3.632 2.37,1.69 1.37,-1.295 -0.694,-2.001 -0.016,-3.087 2.853,-7.945 -0.134,-2.02 -1.348,-1.272 -0.753,0.579 m -43.753,819.749 v 0 l 2.531,-0.37 0.337,2.4 -2.367,4.44 -0.972,0.85 -2.054,-0.01 -0.456,-1.34 0.133,-3.03 m 37.299,-114.64 v 0 l 1.559,0.1 4.859,-13.37 0.118,-5.06 -0.485,-1.36 -1.647,1.47 -4.718,14.83 -0.118,2.06 m 14.506,-222.71 v 0 l -0.027,-0.59 m -10.073,192.65 v 0 l 2.1,0.29 0.978,0.66 1.299,-1.3 -4.273,-4.35 h -3.052 l -1.273,1.35 0.845,1.54 m 19.432,-189.83 v 0 l 0.027,0.59 m -1.029,31.18 v 0 l 2.426,3.99 1.806,1.74 0.25,-0.19 0.883,-0.99 0.019,-1.09 -2.567,-5.62 -1.766,-1.66 -1.507,0.34 -0.862,0.97 v 1.06 m -145.655,164.62 v 0 l -1.345,1.32 0.34,1.51 1.301,1.52 -0.598,1 1.087,-0.21 3.219,4.51 0.355,-2.35 -1.724,-2.9 -0.108,-1.05 0.468,-1.48 1.302,-1.53 -1.304,-0.47 m 13.061,-256.05 v 0 l -0.402,1.55 1.319,1.33 h 2.052 l 0.947,-0.69 1.369,0.31 0.027,4.09 -1.855,6.95 10e-4,6.99 0.482,1.48 1.021,0.89 1.589,-2.21 2.762,-13.1 0.239,-5.7 3.753,-2.72 -0.361,-1.12 -0.999,-0.82 -1.007,0.6 -0.332,-0.28 -0.146,-1.02 -0.001,-7 0.97,-3 v -9 l -0.482,-1.48 -0.974,-0.87 -1.575,-0.07 -1.819,3.36 -0.217,18.61 m 80.339,146.64 v 0 l -0.126,-4.25 2.582,-8.15 0.157,10.27 -1.526,5.63 m 39.672,-562.654 v 0 l 0.302,-2.252 0.95,1.472 3.588,7.689 -0.358,1.411 -2.541,-1.865 m -142.083,682.079 v 0 l -1.696,2.41 1.013,-0.17 2.671,19.59 h 0.308 l 1.675,-2.41 -1.815,-5.99 0.955,-3 10e-4,-5.99 -1.754,-5.2 m 47.29,-687.52 v 0 l -0.027,-0.593 m 71.027,832.593 v 0 l -0.027,-0.59 m 45.54,-639.112 v 0 l -2.021,6.418 0.143,8.022 1.343,0.44 1.699,-0.681 1.668,-10.724 -0.365,-1.544 m -107.98,82.771 v 0 l -0.027,-0.593 m 239.523,-196.782 v 0 l -0.002,4.081 0.456,1.347 9.021,0.143 23.757,-4.6 7.225,-2.384 0.2,-0.797 -1.39,-2.395 -1.789,-1.609 0.216,1.102 -1.173,0.771 -5.658,1.42 -16.32,3.375 -5.276,-0.18 4.905,-3.404 7.095,-7.095 16.003,-21.006 4.574,-8.63 0.108,-1.056 -0.728,-1.731 -3.937,-1.536 0.664,-1.731 -0.989,-2.003 -1.508,-0.339 -0.453,0.34 -2.799,3.759 -14.267,1.98 -19.998,1.938 -0.815,0.591 0.019,1.763 1.345,0.455 15.989,0.002 12.944,-1.853 1.364,0.362 -11.516,16.695 -5.57,6.62 m 14.284,-400.337 v 0 l 1.553,0.385 10.456,-5.75 2.785,11.582 2.058,-2.164 0.017,-5.087 -1.678,-4.863 -1.666,-2.427 -3.078,-0.011 -7.925,4.685 -0.35,-0.299 0.145,-1.332 2.546,-4.638 -0.011,-2.08 -1.349,-1.272 -0.788,0.615 -3.576,6.629 0.011,5.08 m 11.022,-159.076 v 0 l -0.041,6.112 1.848,8.9 0.817,0.213 2.37,-1.367 1.55,-2.498 3.813,-3.633 3.641,1.919 2.832,5.841 1.528,-0.088 0.968,-0.872 0.223,-0.723 -1.531,-4.678 -1.999,-2.861 -3.664,-2.566 h -3.052 l -4.775,4.563 -2.532,-6.175 0.632,-1.037 -1.271,-1.342 m -87.245,1375.662 v 0 l -1.057,-1.07 -3.726,-1.6 -3.725,1.6 -4.794,4.75 -1.503,0.33 -0.198,-0.58 1.552,-4.71 -0.544,-0.84 1.424,-1.4 -1.185,-1.14 h -1.052 l -0.726,0.62 -1.11,3.03 -2.508,9.63 0.026,4.09 1.976,0.37 9.395,-9.92 2.944,-1.8 1.816,1.64 4.996,8.88 1.577,-2.15 0.004,-2.11 m 24.564,-455.6 v 0 l 1.347,-0.13 5.401,-2.42 6.108,-6.1 3.003,-4.01 3.574,-6.63 -0.011,-2.08 -0.871,-0.97 -1.508,-0.34 -1.495,1.37 -2.69,4.65 -5.002,7.01 -3.095,3.09 -2.636,1.58 -2.078,-0.01 -0.762,-0.67 -1.924,-3.76 -2.56,-8.66 -1.73,-0.73 -2.003,0.99 -0.36,1.54 3.338,10.35 2.523,3.59 m 60.019,-876.96 v 0 l 0.121,-3.095 2.391,-3.468 5.911,-2.837 1.402,0.332 0.02,7.082 -1.577,2.636 -2.303,2.312 -2.536,0.36 -2.922,-1.854 M -227.457,899 v 0 l -7.04,0.015 -2.043,0.822 -6.898,-1.707 -2.09,0.027 -0.35,3.022 1.327,0.882 7.057,1.925 4.99,-10e-4 3.007,-0.97 15.057,0.117 4.376,1.868 -0.087,1.529 -8.134,9.281 -9.43,14.38 -4.57,5.62 -4.789,7.338 -1.824,1.706 0.055,2.674 1.347,0.456 13.058,-0.114 21.022,-3.557 7.555,-1.974 2.039,-1.047 3.622,-3.797 -1.327,-0.338 -0.973,0.642 -1.034,-0.628 -6.659,2.048 -20.245,3.651 -5.058,0.114 -1.305,-0.479 1.611,-1.79 2.662,-1.692 20.817,-20.84 2.573,-4.629 0.123,-6.05 -0.483,-1.486 -2.301,-2.518 1.65,-1.974 0.118,-1.026 -0.467,-1.48 -1.03,-0.843 -3.946,2.674 -1.023,0.119 -13.01,-2.955 -2.019,0.133 -1.977,0.837 m -8.809,80.733 v 0 l -1.554,3.722 -0.12,7.054 2.697,5.689 6.112,6.107 5.618,2.58 2.112,-0.01 2.312,-1.73 v -0.62 l -2.934,-2.03 -5.155,-2.231 -1.799,-1.777 -4.839,-6.918 0.001,-2.108 1.575,-2.155 3.732,2.571 1.06,0.123 4.052,-0.12 3.667,-1.616 3.064,-3.066 2.573,-4.629 v -6.108 l -1.577,-2.636 -2.759,-2.662 h -6.052 l -7.498,5.381 m 3.695,-120.735 v 0 l 0.194,-2.353 -1.551,-3.667 -1.292,-2.247 -1.496,-1.379 -6.085,-0.014 -5.618,2.573 -5.108,4.103 -1.577,2.636 -0.004,7.112 2.574,5.62 2.007,3.012 3.039,3.041 5.752,1.754 2.02,-0.134 0.974,-0.877 -0.001,-0.95 -1.253,-1.256 -4.492,-1.537 -3.254,-3.248 -0.356,-1.138 11.04,-5.557 3.101,-3.099 m -23.269,397.271 v 0 l 0.122,3.09 2.573,4.63 3.579,3.63 3.572,4.64 v 3.1 l -2.392,3.47 -2.916,1.84 h -6.108 l -7.918,-4.68 -1.38,1.29 -0.046,2.66 2.713,2.16 4.631,2.57 h 9.108 l 4.753,-2.69 1.94,-2.94 1.619,-3.67 0.12,-3.05 -1.701,-3.7 -6.57,-6.62 -1.577,-2.64 0.011,-2.08 1.325,-1.32 h 3.052 l 3.919,2.71 1.085,-0.03 0.321,-2.36 -2.661,-2.75 -2.636,-1.58 -2.054,-0.14 -2.054,0.14 -2.636,1.58 -1.665,1.76 m -25.283,-749.049 v 0 l 2.654,4.637 2.725,6.548 2.629,11.822 0.116,6.055 -2.618,10.708 -4.08,8.983 -1.042,1.047 -6.006,2.452 1.627,2.214 0.588,0.085 5.071,-0.131 2.759,-2.661 2.006,-3.012 3.222,-8.243 2.473,-9.442 -0.117,-11.055 -4.546,-14.667 -2.037,-3.957 -6.153,-8.71 -1.661,0.046 -1.301,1.383 1.728,3.437 m 24.356,-349.691 v 0 l -4.722,1.707 -0.009,1.015 2.1,1.2 9.48,2.307 18.457,3.181 8.267,2.266 -2.638,2.33 -14.38,9.43 -12,9 -2.626,2.574 -8.104,4.665 0.392,1.889 2.5,0.207 1.994,5.411 0.844,0.824 2.636,1.577 1.06,0.124 6.99,-10e-4 1.978,-0.837 2.026,-0.147 15.996,0.014 3.03,0.819 0.518,-0.877 3.398,-1.822 9.054,-0.12 3.008,0.969 2.338,-0.456 0.009,-2.054 -2.325,-2.326 -1.029,-0.133 h -14.994 l -1.977,0.837 -2.026,0.147 -16.996,-0.015 -1.339,-0.455 0.645,-1.812 6.005,-4.004 11.371,-6.426 16.004,-11.002 5.312,-5.303 0.467,-1.482 -0.492,-1.507 -5.691,-3.514 1.184,-1.936 -0.442,-1.386 -3.054,-0.008 -2.948,2.702 -5.02,0.135 -9.959,-2.297 -18.718,-3.303 m 60.151,46.092 v 0 l 1.83,1.807 2.636,1.577 1.06,0.124 3.048,-0.124 3.942,-2.659 0.701,0.51 2.821,19.114 1.457,2.014 1.538,-0.37 1.815,-3.941 -0.918,-0.6 -0.837,-1.768 -3.872,-27.446 -1.335,-0.79 -2.339,-2.767 -7.697,2.543 -2.119,2.114 -2.573,4.63 0.011,5.08 M -470.79,645.522 v 0 l 0.593,-0.027 m 168.479,272.801 v 0 l 1.568,2.024 1.456,0.73 7.132,1.819 13.059,0.116 1.483,-0.482 0.818,-1.001 -1.799,-1.415 -18.564,-2.947 -2.311,-1.075 0.693,-1.352 9.407,-4.464 1.575,-1.749 -0.598,-1 0.595,-1.001 -0.328,-0.334 -6.057,1.701 -7.595,3.845 -4.101,4.099 -1.998,2.998 -1.579,2.638 v 2.108 l 1.577,2.636 5.095,5.095 5.259,3.231 5.372,2.349 9.113,-0.003 5.287,-3.337 -0.313,-1.368 -1.032,-0.141 -4.022,0.132 -1.978,0.837 -5.055,-0.12 -9.625,-4.577 -4.667,-4.762 -0.011,-2.08 m -25.137,476.094 v 0 l 0.143,-2.06 0.655,-0.98 -0.598,-1 0.598,-1 -0.298,-0.47 -0.787,-0.74 -2.565,3.18 v 7.06 l 1.661,1.75 2.636,1.58 h 2.108 l 4.63,-2.57 2.104,-2.11 3.577,-7.62 -0.003,-2.11 -1.579,-2.64 -0.756,-0.66 -1.574,-0.07 -1.724,3.24 1.543,1.36 -1.457,3.54 -2.389,3.91 -2.372,1.73 -3.082,-0.02 M -225.45,982.161 v 0 l -2.075,-0.315 -0.317,-1.374 2.557,-3.662 3.101,-3.099 4.629,-2.568 1.562,0.38 1.855,2.923 0.108,1.054 -2.66,5.661 -2.756,1.701 -1.06,0.123 -4.02,-0.133 m 39.07,-640.998 v 0 l -1.525,0.641 -1.308,1.321 -2.573,4.63 -0.004,5.113 1.619,3.669 3.265,4.274 1.485,0.483 4.023,-0.134 3.759,-3.661 4.433,-7.896 0.267,8.202 -0.97,3.007 -10e-4,9.991 0.306,1.316 1.395,1.898 1.178,-0.686 2.106,-17.522 -0.13,-7.062 -2.862,-9.37 -1.533,0.084 -0.703,0.602 -2.129,5.916 -1.612,-3.135 -2.504,-2.386 -4.023,-0.134 m -32.072,529.122 v 0 l 1.55,-0.632 1.829,-1.79 2.396,-1.391 0.631,0.154 0.148,9.018 -0.837,1.978 v 3.052 l 1.325,1.316 1.842,-0.697 2.67,-13.652 -0.116,-2.055 -1.847,-6.904 -1.547,-0.376 -2.31,3.15 -3.975,2.977 -5.963,3.962 -4.938,2.457 2.185,2.147 2.022,0.133 1.484,-0.48 m 35.523,-514.65 v 0 l -1.788,-1.664 -1.577,-2.636 0.01,-5.08 2.662,-2.759 2.634,-1.571 h 1.111 l 2.341,1.723 -0.046,1.661 -0.717,1.618 1.738,2.381 -3.373,5.473 -0.972,0.851 M -335.999,1526.46 v 0 l 0.134,2.09 1.942,3.58 2.369,1.73 3.08,-0.01 1.607,-0.92 3.155,-3.75 2.037,-3.95 2.517,-6.72 -1.712,-2.4 -1.285,0.01 -6.559,13.06 -0.761,0.66 h -1.049 l -0.705,-0.59 -1.742,-5.75 1.739,-5.75 1.074,-1.22 v -1.06 l -1.315,-1.31 h -1.052 l -3.337,5.29 m 11.878,-184.91 v 0 l 0.114,-2.1 9.736,-29.88 0.118,-4.06 -0.455,-1.34 -1.535,0.36 -1.18,2.06 -10.682,32.86 0.006,4.11 1.577,2.64 2.095,2.09 5.636,3.58 9.05,0.12 1.369,-0.49 -2.338,-1.67 -7.415,-2.29 -2.297,-1.24 -1.948,-1.36 -1.731,-2.38 m 119.002,-625.051 v 0 l 6.147,-7.309 12.43,-18.38 1.759,-1.661 2.048,0.014 0.151,0.637 -2.384,4.384 -12.004,16.006 -2.57,2.62 -1.43,2.38 -6.79,6.61 -0.337,-1.327 2.703,-2.947 m -38.322,623.494 v 0 l -3.066,0.13 -3.918,2.71 -1.085,-0.03 -0.312,-1.36 0.694,-0.94 0.132,-4.03 -0.455,-1.33 h -1.058 l -0.314,1.36 0.665,1 -2.668,6.96 2.348,3.31 6.972,-4.65 h 2.05 l 1.459,2.02 1.767,8.57 2.147,-1.61 -0.031,-5.69 -1.617,-3.67 -2.728,-2.63 M -275.85,631.426 v 0 l -2.339,9.582 -1.667,9.486 1.624,4.752 1.706,1.605 8.08,0.011 2.636,-1.577 6.103,-6.108 2.573,-5.619 -0.015,-6.084 -2.325,-2.326 -6.08,-0.01 -2.636,1.577 -3.835,3.784 -0.813,0.025 -0.03,-3.085 6.735,-17.879 -0.016,-2.086 -1.325,-1.326 -2.67,-0.04 -3.698,5.364 0.336,1.328 1.012,-0.601 0.324,0.275 0.026,1.081 m 10.145,-216.099 v 0 l -0.852,6.07 1.321,1.323 1.541,0.081 2.858,-10.368 0.167,-2.501 8.842,-2.542 1.983,-1.381 -0.361,-1.12 -0.973,-0.86 -3.031,0.827 -3.992,-0.001 -1.347,-0.457 1.814,-14.028 -0.288,-1.304 -1.553,-2.088 h -1.26 l -1.692,2.365 0.674,1.002 0.134,4.019 -2.008,10.422 -10.954,2.17 0.078,2.048 2.344,1.729 3.08,-0.01 1.978,-0.836 2.024,0.141 0.44,1.343 -0.82,1.973 m -11.383,242.75 v 0 l 0.727,0.581 1.005,-0.602 0.733,0.492 2.473,-5.865 2.107,-2.114 2.636,-1.577 2.396,0.334 0.023,2.086 -2.572,5.619 -5.767,5.674 -4.022,0.133 -1.347,-0.456 -0.016,-7.081 m 30.311,-461.404 v 0 l 13.358,-10.328 18.636,-12.577 3.112,-0.003 3.141,1.613 -2.509,2.537 -8,6 -6.005,4.002 -16.369,9.424 -4.006,3.004 -3.095,3.095 -1.572,2.635 0.657,2.061 -0.275,0.324 -2.025,-0.629 -1.006,0.599 -0.332,-0.276 -0.014,-4.05 0.695,-0.947 -0.641,-2.025 m 43.32,603.476 v 0 l -4.332,4.307 -2.38,1.43 -5.308,5.308 -0.173,0.774 1.542,2.067 4.57,-1.725 3.062,0.846 4.99,10e-4 12.75,-1.807 21.026,-4.968 0.572,-0.687 0.001,-1.052 -1.316,-1.324 -7.02,-0.134 -7.051,2.262 -12.893,2.594 -7.277,-0.182 17.905,-12.403 6.62,-6.57 2.38,-1.43 2.525,-3.475 4.136,-4.284 0.033,-2.685 -3.603,-1.678 -39.807,-2.014 -1.324,1.323 -0.006,1.778 0.715,0.538 33.827,2.022 m -101.149,86.174 v 0 l -5.065,0.173 -0.368,1.976 2.342,1.729 1.06,0.123 3.02,-0.133 0.944,-0.701 1.44,-0.128 2.052,12.436 1.937,1.481 2.518,-12.928 3.749,1.68 1.67,2.204 2.002,-2.397 -2.648,-3.784 -2.636,-1.577 -2.477,-0.166 -2.814,-12.176 -1.763,-1.595 -1.351,1.273 -0.118,1.026 0.954,3.003 -0.063,6.543 -3.368,1.822 M -249.48,344.98 v 0 l -3.362,3.493 0.339,1.507 0.977,0.871 13.019,0.135 25.062,-4.694 6.641,-2.005 1.563,-0.973 -1.626,-2.211 -2.626,-0.089 -23.945,4.855 -6.278,-0.183 9.902,-5.399 8.004,-5.002 4,-3 6.095,-6.095 3.962,-5.962 1.739,-4.734 -0.135,-4.02 -2.085,-2.23 -1.766,-4.182 -2.526,0.086 -0.945,0.694 -1.088,0.018 -8.88,-2.729 -2.061,-0.13 -11.993,0.013 -7.973,1.964 -0.376,1.549 1.341,1.272 1.001,-0.598 1,0.598 2.003,-0.784 16.99,-10e-4 6.766,1.769 0.538,0.72 -1.607,1.782 -2.662,1.692 -12.551,12.551 -1.692,2.662 -5.57,5.62 -1.692,2.662 -5.308,5.338 m 3.829,835.04 v 0 l -2.019,1 -2.079,0.01 -2.636,-1.58 -2.009,-1.99 -1.775,-12.75 -1.553,-0.38 -0.454,0.34 -3.917,4.35 0.06,2.67 0.836,-0.04 0.974,-1.26 2.767,9.99 2.077,2.08 4.63,2.57 h 4.108 l 4.63,-2.57 3.072,-2.99 2.439,7 1.263,2.23 1.327,-1.34 1.557,-2.7 -3.623,-13.75 -1.719,-0.71 -1.518,0.5 -1.75,4.72 m -72.709,229.47 v 0 l -1.508,6.79 0.134,2.02 1.349,1.27 1.603,-2.21 2.595,-7.3 0.779,0.55 1.506,-0.34 7.818,-9 -1.273,-1.35 h -2.052 l -5.358,5.57 -2.23,-13.7 h -0.774 m 9.405,-125.86 v 0 l -0.485,1.33 0.497,1.52 3.912,1.86 17.055,0.11 1.347,-0.45 0.008,-3.06 -1.324,-1.31 -2.001,0.69 -3.026,0.15 -10.997,-0.02 -1.977,-0.83 m 54.933,-911.967 v 0 l 1.346,0.314 -1.329,0.332 M -262,986.543 v 0 l -0.148,-5.069 -0.651,-0.974 0.598,-1.001 -1.273,-1.35 -2.054,0.008 -0.441,1.343 0.954,3.004 -0.147,7.02 -0.813,-0.025 -1.499,-1.35 -1.026,-0.118 -1.48,0.466 -0.819,1.003 1.609,1.785 2.633,1.576 1.53,0.187 1.872,5.274 2.634,1.501 0.363,-1.351 -0.694,-0.946 -0.086,-3.526 12.848,-4.897 -2.424,-1.95 -11.017,2.681 m -9.969,204.046 v 0 l -11.642,-3.96 -5.72,-9.37 -0.124,-11.04 1.667,-4.77 4.034,-6.93 4.095,-4.1 2.662,-1.69 1.37,-1.49 -0.16,-1.33 -1.549,-2.1 -1.661,0.05 -8.757,8.66 -4.04,6.96 -2.541,6.67 v 10.12 l 2.574,5.62 4.004,7 1.111,1.11 6.683,2.7 9.022,-0.15 0.307,-1.37 m 33.647,-560.516 v 0 l 0.987,0.897 h 2.057 l 2.976,-2.87 0.34,-1.509 -1.316,-1.323 h -2.052 l -1.759,1.661 -1.54,2.666 m -23.678,65.647 v 0 l -7.663,4.569 -2.081,3.081 -2.615,5.673 -0.123,6.05 0.483,1.486 1.317,1.306 2.254,1.228 6.437,2.47 9.056,-0.117 7.163,-1.676 5.464,-1.91 1.673,-2.729 -0.333,-2.389 -8.399,2.918 -11.625,1.774 -6.083,-1.751 -2.924,-2.125 -0.359,-1.54 2.61,-6.662 2.061,-2.064 7.374,-4.426 1.658,-1.762 -0.34,-1.507 -0.976,-0.871 -2.052,-10e-4 m -4.975,80.99 v 0 l -4.807,3.696 -6.554,9.612 v 5.108 l 1.577,2.636 2.101,2.099 4.63,2.573 1.059,0.124 h 15.989 l 4.478,-1.832 -0.949,-1.126 -20.606,-2.151 -2.702,-1.687 -1.577,-2.636 0.011,-2.08 2.566,-3.664 2.57,-2.62 1.549,-2.498 3.989,-2.985 5.367,-2.425 1.633,-2.754 -1.294,-1.37 -1.084,-0.014 m -28.423,627.336 v 0 l -1.495,1.36 -1.327,-0.33 0.652,-0.98 -10e-4,-4.06 -1.796,-1.39 -2.92,9.36 -0.119,3.06 0.456,1.34 2.054,0.01 7.664,-5.57 2.62,-2.57 2.661,-1.58 0.707,0.02 2.691,7.29 0.116,5.06 -0.785,2.01 2.933,0.39 1.729,-2.35 0.007,-7.11 -2.613,-8.65 -1.274,-1.29 -1.486,-0.48 -2.05,0.12 -4.63,2.57 M -221,394.456 v 0 l 0.134,7.102 1.616,3.667 2.06,2.06 2.662,1.692 2.344,2.311 6.368,3.424 1.289,1.139 5.023,0.134 2.028,-1.027 -1.283,-1.226 -5.419,-2.44 -5.006,-3.003 -3.626,-3.574 -2.667,-1.707 -0.492,-1.508 0.44,-1.335 3.033,0.82 6.05,-0.123 2.636,-1.577 2.838,-2.819 1.958,-4.972 -0.124,-3.048 -1.7,-2.756 -4.608,-2.552 -1.06,-0.124 -3.055,0.118 -4.887,1.661 -3.737,1.919 -1.1,1.098 -1.577,2.636 m 4.84,-75.924 v 0 l 3.494,-3.364 1.508,0.339 0.871,0.977 0.134,1.029 -0.123,3.051 -2.573,4.63 -2.981,3.981 -2.498,1.55 -4.62,4.57 -3.005,2.002 -7.22,4.219 -6.444,3.317 -0.35,-0.3 0.327,-1.504 4.787,-4.829 1.43,-2.38 m 15.138,591.734 v 0 l 2.862,-4.735 7.57,-8.619 1.432,-2.38 0.758,-0.652 1.505,0.339 0.871,0.976 v 4.053 l -2.566,3.664 -20.79,20.61 -0.337,-1.328 2.127,-2.282 m -83.808,598.77 v 0 l 1.024,0.9 0.666,-0.01 2.565,-6.06 2.576,-1.62 1.669,-2.64 4.308,-4.34 2.557,-3.66 -0.315,-1.37 -2.053,-0.01 -6.979,6.65 -0.479,-2.3 0.836,-1.97 0.133,-5.03 -0.482,-1.48 -0.976,-0.86 -1.734,0.56 -3.662,18.72 -0.116,3.06 m 55.708,-878.698 v 0 l -2.565,4.509 -5.077,2.642 0.416,2.027 0.977,0.871 1.03,0.133 2.022,-0.133 0.974,-0.852 3.785,-3.809 3.027,-4.97 4.555,-12.66 0.119,-6.054 -1.672,-4.732 -2.388,-3.908 -5.372,-3.728 -1.056,-0.107 -1.341,0.441 -0.008,2.051 3.041,2.192 3.095,3.095 1.577,2.636 0.124,1.059 -0.12,7.053 m 71.607,-291.348 v 0 l 0.359,1.31 -0.333,0.282 -0.331,-1.332 m -206.69,768.74 v 0 l 0.027,0.59 m 91.333,206.75 v 0 l 0.294,-4.11 1.735,-4.88 0.116,-2.06 -0.453,-1.34 -1.588,-0.07 -1.246,2.67 -3.565,13.68 -0.115,6.06 0.454,1.34 1.663,0.06 2.941,-4.03 6.431,-5.67 0.363,2.36 -1.715,5.93 1.716,2.37 h 0.622 l 1.794,-1.67 1.549,-2.5 3.451,-2.5 1.549,-2.5 3.64,-2.54 1.026,-0.12 1.481,0.47 0.87,0.97 0.134,1.03 -0.133,5.03 -0.837,1.97 0.147,4.02 1.336,-0.32 0.809,0.51 0.713,-1.06 1.844,-8.21 -1.643,-5.7 -3.667,-2.6 h -3.108 l -2.636,1.57 -4.096,4 -1.536,-2.18 0.806,-2.03 -0.456,-2.34 -3.054,-0.01 -3.664,2.56 -4.315,4.09 -0.337,-1.33 m 46.682,-537.954 v 0 l -1.334,-0.499 -3.068,0.114 -10.415,2.421 -5.003,1.92 0.087,0.657 2.339,1.732 4.115,0.007 12.657,-3.617 0.632,-0.727 M -256.457,708 v 0 l -4.04,0.015 -1.484,0.482 -0.861,0.976 v 1.054 l 1.316,1.324 1.029,0.134 10.99,10e-4 9.472,-2.065 -0.048,-0.959 -3.358,-1.822 -3.063,0.845 m -36.64,370.515 v 0 l -0.841,2 0.134,4.03 1.853,1.37 3.863,-12.34 -0.014,-3.09 -1.348,-1.27 -0.751,0.58 -2.618,6.66 m -14.656,-898.23 v 0 l 0.027,0.593 m 69.017,803.987 v 0 l -0.027,-0.593 m -78.973,418.593 v 0 l -0.027,-0.59 m 66.31,-549.482 v 0 l 3.949,-2.95 4.686,-1.635 2.086,0.016 1.325,1.325 0.134,3.022 -0.483,1.486 -2.325,2.311 -5.618,2.572 -4.055,0.119 -1.347,-0.457 -0.009,-4.053 m 29.283,-463.336 v 0 l 2.043,-0.99 6.071,-0.131 2.297,2.49 -1.593,3.718 -1.059,1.06 -2.636,1.577 -2.114,0.005 -4.85,-1.724 -1.442,-0.976 0.952,-3.3 m -249.31,468.606 v 0 l -1.31,0.359 -0.282,-0.333 1.332,-0.332 m 65.68,593.353 v 0 l 0.593,-0.03 m -19.325,-767.281 v 0 l 0.027,0.593 m 20.973,787.408 v 0 l 0.027,0.59 m 165.211,-826.508 v 0 l -1.576,2.156 0.332,2.394 2.054,0.009 1.316,-1.324 -0.34,-1.508 M -456.21,918.478 v 0 l -0.593,0.026 m 232.335,305.516 v 0 l -1.509,0.47 -0.865,0.98 0.34,1.51 1.212,1.22 13.993,2.53 -0.688,1.77 0.001,18 0.455,1.34 1.764,0.02 2.889,-19.81 5.346,1.78 0.386,-1.39 -1.694,-2.75 -3.927,-2.01 -5.36,-1.82 -8.313,-1.73 m 5.459,-185.66 v 0 l 0.301,1.34 1.394,1.9 0.787,-0.51 0.472,0.3 4.276,5.28 2.735,7.73 -0.118,11.05 -1.66,4.89 -3.898,7.71 -3.175,2.35 2.06,2.17 1.307,0.29 1.48,-0.47 2.303,-2.31 1.962,-2.96 2.088,-5 2.532,-7.67 0.119,-9.05 -3.739,-10.74 -1.962,-2.96 -5.095,-5.09 -2.662,-1.54 -1.379,1.29 m 5.985,-28.61 v 0 l -0.084,3.11 7.396,2.89 h 10.108 l 2.35,-1.69 -1.82,-1.13 -11.374,-2.48 4.434,-3.64 3.176,-5.661 1.54,-3.699 -0.004,-1.117 -1.848,-2.92 -1.511,-0.508 -4.051,0.122 -4.579,2.937 -1.689,2.398 1.296,1.379 h 2.052 l 3.92,-2.713 2.082,0.02 0.328,1.397 -3.386,5.465 M -62.0371,866.526 v 0 l -0.4561,-1.504 -2.0344,-1.844 -5.6967,2.572 -2.6381,3.696 -0.1225,6.05 0.4824,1.486 3.9761,3.869 h 5.0526 l 1.9788,-1.652 0.3326,0.277 0.0144,3.05 -0.837,1.977 0.142,5.025 2.8282,0.414 2.8857,-15.379 -0.0196,-11.09 -1.324,-1.315 -1.7383,0.572 -2.4362,9.38 -3.2201,4.788 -2.659,-0.047 -1.3252,-1.325 -0.1334,-1.03 v -2.993 l 0.5082,-1.511 2.7635,-1.745 1.4587,2.449 2.1175,-3.145 M -29.8295,354.45 v 0 l -0.1555,13.046 0.4823,1.485 0.9765,0.87 2.0803,0.011 8.6359,-5.577 2.2825,-2.127 1.0519,10e-4 0.7225,0.616 1.6186,3.666 0.1183,2.055 -0.8355,1.978 -0.0099,2.079 2.0253,2.344 1.69793,-2.343 0.1239,-8.049 -2.69883,-5.688 -0.7629,-0.668 -3.0781,-0.011 -5.6361,3.577 -5.0112,3.974 -1.7728,-11.153 m -61.8229,961.124 v 0 l 1.3151,0.19 2.1957,-2.56 4.0963,3.99 2.3803,1.43 5.6197,5.57 2.636,1.58 2.0502,0.12 1.3613,-0.48 -2.6654,-2.78 -2.3821,-1.44 -5.6198,-5.56 -2.3803,-1.44 -3.6092,-3.78 3.7751,-4.97 3.2144,-2.25 4.3172,-4.14 2.1999,1.57 0.7938,-0.74 -0.3003,-1.47 1.6503,-1.97 -0.3231,-2.37 -4.0543,-0.01 -3.6637,2.56 -9.587,9.54 -3.1088,1.71 0.7286,2.57 -2.7385,3.63 m 24.0574,-350.71 v 0 l -0.1465,6.046 0.9697,3.007 0.0013,16.99 -5.0059,20.417 -11.8764,2.58 1.7635,2.41 12.6554,-0.05 0.6952,-0.59 3.0496,-10.76 2.7186,-12.007 -5e-4,-38.988 -0.3023,-1.31 -1.5506,-2.091 -1.661,0.046 -1.323,1.323 -0.1336,5.023 0.8371,1.978 0.1467,2.026 -0.1469,3.025 m 9.1316,-128.065 v 0 l 0.1736,4.068 2.3689,0.323 1.3253,-1.325 0.0109,-5.08 -2.3643,-3.448 -3.9438,-2.861 -5.0805,0.011 -4.4983,4.351 -0.8131,0.025 -0.1471,-4.021 0.8365,-1.977 -7e-4,-2.052 -1.3207,-1.323 -1.443,-0.126 -2.9236,17.436 1.8611,2.038 0.9503,10e-4 0.5251,-0.502 1.7848,-1.808 1.4301,-2.38 5.7559,-5.652 1.331,0.155 2.388,1.402 1.6651,1.764 m -10.8324,437.001 v 0 l -1.0968,1.65 -2.7238,2.37 1.8227,2 1.4778,-0.3 0.5449,0.85 3.0436,1.43 8.3475,2.39 h 3.1238 l 31.897,-5.71 2.0143,1.69 h 2.0523 l 1.3249,-1.32 v -2.06 l -2.3247,-2.32 -1.0297,-0.14 -8.0581,0.12 -22.9448,4.86 -8.0199,-0.14 -1.273,-1.35 1.6091,-1.79 4,-3 13.3804,-8.43 8.6196,-6.57 5.3804,-3.43 5.6197,-4.57 5.3803,-3.43 5.7058,-5.15 -0.0465,-1.66 -2.5813,-2.68 -6.7045,-1.66 -11.0224,1.71 -1.015,-0.69 -2.0262,-0.15 -4.0623,0.86 -15.8786,-4.72 -1.0885,0.02 -2.3342,2.35 1.6688,1.77 11.6352,3.75 14.2422,1.78 -10.8728,7.9 -5.6197,5.57 -2.6625,1.7 -4.3376,4.3 -7.3803,5.43 -2.6198,2.57 -2.3801,1.43 m 51.0805,-861.224 v 0 l -1.7447,7.01 2.5565,6.674 1.7715,1.681 2.0226,0.133 1.48549,-0.482 3.30652,-3.318 2.56543,-3.732 0.1311,10.044 -0.83685,1.978 -0.13373,3.02 1.73608,4.205 1.19721,-0.704 2.038573,-7.502 -0.123901,-21.047 -3.729192,-5.342 -1.69482,0.029 -6.60841,2.569 -3.3314,3.315 m -77.4564,547.458 v 0 l -0.821,0.78 -3.4461,1.495 -2.0598,2.06 -1.962,2.962 -1.613,3.667 v 1.121 l 2.9372,7.571 2.3692,1.73 2.0794,-0.01 2.4832,-2.655 1.8579,6.889 -14.1579,2.923 -2.685,1.426 0.448,1.409 9.0214,0.143 6.7656,-1.765 1.5385,-1.718 -0.4964,-0.752 3.5493,-2.228 -1.9374,-22.415 -1.3904,-2.958 m 34.6336,-591.694 v 0 l -0.6508,1.525 -5.046,4.857 -24.2925,-2.685 -10.6289,-1.988 -1.0403,0.855 -0.34,1.507 1.5775,1.689 28.5419,3.899 1.5893,0.79 -0.367,1.079 -4.7844,4.826 -14,18 -4.4264,7.374 -2.1308,2.289 0.8623,2.029 1.5049,0.34 0.7595,-0.55 2.5253,2.993 3.019,2.012 6.6106,2.571 18.0571,0.117 1.9773,-0.837 2.026,-0.147 9.9967,0.014 3.0069,0.97 3.9928,-0.001 1.3461,-0.456 0.0079,-2.051 -0.3793,-0.491 -3.9124,-1.852 -21.0551,-0.119 -3.0069,0.97 -9.9903,10e-4 -5.9166,-1.842 -1.4698,-0.976 0.3775,-2.15 13.3125,-13.303 15.3803,-11.43 9.652,-8.758 -0.5666,-1.734 -12.1832,-2.82 0.4088,-0.958 3.3497,-3.489 0.1176,-1.026 -0.4405,-1.343 -2.0238,-0.14 m 0.0175,15.961 v 0 l -2.3315,2.307 -15.3804,11.43 -10.0947,10.095 -1.6921,2.662 -2.0476,2.027 -0.8056,0.026 0.3261,-1.504 10.2192,-14.211 2.5698,-2.62 1.4302,-2.38 4.5699,-4.62 1.4301,-2.38 5.3031,-5.312 1.4853,-0.483 4.0579,0.116 5.1265,1.649 m -42.2097,627.43 v 0 l 0.0266,0.59 m -66.5317,338.71 v 0 l 2.338,-1.35 4.195,-6.2 5.36,-11.4 -0.004,-3.11 -1.577,-2.64 -2.095,-2.1 -8.636,-5.57 h -6.108 l -2.636,1.58 -2.095,2.09 -4.577,7.64 -0.007,12.11 2.945,8.57 3.397,2.72 h 6.053 m 34.457,-467.341 v 0 l 6.994,-8.981 4.833,-4.813 2.662,-1.692 4.338,-4.308 2.355,-1.407 1.55,-2.498 6.1519,-6.706 1.6613,0.046 1.974,1.869 0.3541,1.536 -1.5717,2.635 -5.0946,6.095 -2.662,1.692 -9.338,8.308 -2.38,1.43 -3.62,3.57 -6.38,4.43 -1.835,1.784 -0.812,0.025 -0.131,-1.024 m 14.969,382.96 v 0 l 0.496,3.52 6.319,6.31 4.63,2.57 19.0503,0.12 1.3041,-0.47 -0.8807,-1.62 -1.4736,-0.73 -18.5571,-2.29 -1.364,-0.85 -5.367,-5.49 0.363,-1.35 2.925,1.68 1.059,0.13 h 13.9886 l 4.7314,-1.72 1.6309,-1.12 -0.3557,-1.13 -0.974,-0.87 h -4.0523 l -1.9774,0.83 -8.9905,0.01 -6.199,-1.77 2.669,-3.69 3.214,-2.25 2.6331,-2.57 7.6511,-3.71 0.1962,-0.8 -1.542,-2.06 -7.0349,2.33 -7.2835,5.24 -6.672,9.74 m 99.9836,-846.947 v 0 l 1.6293,-3.728 2.05898,-2.06 2.63598,-1.577 2.39685,0.334 0.02295,3.086 -1.54565,3.701 -3.0318,5.925 -1.30501,1.316 -1.1141,0.365 -1.7309,-2.311 M -120.478,859.978 v 0 l -7.807,8.831 -1.962,2.964 -2.615,5.673 0.01,2.08 0.695,0.946 -10e-4,1.055 -1.693,1.946 -0.118,1.027 0.466,1.48 1.043,0.858 22.664,-4.471 18.0014,-6.099 1.6565,-2.714 -0.1783,-2.271 -2.176,1.581 -1.0448,-0.697 -23.9018,7.702 -3.057,0.115 -1.305,-0.479 2.611,-2.79 6.38,-4.43 4.62,-4.57 2.662,-1.692 5.338,-5.308 4.2127,-3.243 5.8394,-7.918 v -4.109 l -1.5774,-2.635 -1.8126,-1.833 -4.9717,-3.776 -0.9744,0.651 -2.019,0.133 -26.014,-2.971 -3.626,0.088 -1.688,2.368 0.59,0.767 2.868,0.797 25.61,3.035 1.457,0.661 -4.989,5.08 -1.55,2.498 -2.637,1.669 -4.338,4.308 -2.662,1.692 m 20.9278,145.873 v 0 l 2.0184,1 5.0799,0.01 8.1564,-4.56 -1.21,-1.099 -0.9733,0.642 -2.0001,-0.686 -3.0272,0.811 -1.3228,-0.489 2.685,-4.925 -0.0108,-4.081 -1.3251,-1.325 -3.0802,-0.01 -8.667,3.613 -0.62,0.724 0.338,1.505 0.977,0.871 2.0201,0.133 5.9847,-2.807 0.3497,0.299 -0.1415,1.326 -1.4023,2.388 -5.1268,4.28 0.3392,1.51 m -39.9601,290.06 v 0 l -5.99,-4.01 -1.39,0.44 -0.022,3.09 1.616,3.14 0.726,-0.55 2.077,-0.01 2.636,1.57 2.62,2.57 3.214,2.25 2.263,3.28 2.575,4.64 0.124,12.04 -1.778,5.96 -4.92,9.73 -4.104,4.11 -3.943,2.4 1.626,2.21 0.583,0.07 1.358,-0.28 4.376,-2.4 2.101,-2.1 2.002,-3 4.039,-7.96 2.66,-7.74 v -10.98 l -1.758,-5.76 -3.73,-5.75 -3.308,-3.29 m 18.288,-114.69 v 0 l 1.373,-1.49 0.135,-3.02 -1.986,-5.45 -1.982,0.44 -3.092,3.63 -2.235,1.63 -1.513,-2.23 0.622,-1.04 -0.276,-0.33 -2.359,0.31 0.15,1.34 3.438,7.41 0.724,0.63 h 5.049 m 24.2957,-225.397 v 0 l -1.5788,7.048 -1.2351,2.969 -0.5078,0.325 -0.7462,-0.571 -1.6142,-3.664 0.0042,-1.117 1.5713,-2.633 2.3038,-2.313 m -18.5919,18.828 v 0 l 1.559,-9.832 0.142,-12.689 9.148,-2.598 0.693,-1.706 -0.467,-1.48 -1.001,-0.82 -1.001,0.599 -1.039,-0.635 -5.9,1.705 -3.452,0.143 -2.476,27.098 -1.619,11.396 v 11.984 l 1.789,12.8 0.673,0.55 1.504,-0.34 0.871,-0.97 0.134,-1.03 v -9 l -0.97,-3.004 -0.014,-12.996 m -8.546,166.67 v 0 l 1.388,0.3 0.14,2.03 -0.455,1.34 -2.371,-0.31 -0.008,-2.06 m 1.394,-4.47 v 0 l -2.064,0.14 -1.764,1.67 -1.526,2.47 -3.075,1.68 1.96,3.17 4.397,3.71 1.331,-0.15 2.388,-1.41 2.672,-3.73 -0.011,-5.08 -2.324,-2.32 m -74.545,354.31 v 0 l -0.115,3.1 -3.736,14.88 -0.13,2.06 0.147,5.03 2.321,2.32 1.44,0.13 2.559,-16.75 4.402,-21.67 -0.019,-2.09 -1.325,-1.32 -2.54,0.38 -2.693,5.65 -3.821,3.84 -2.662,1.69 -3.62,3.57 -2.38,1.43 -5.62,5.57 -7.38,5.43 -3.675,3.16 -0.007,0.66 1.743,2.33 0.655,0.01 2.664,-1.59 6.62,-5.57 2.38,-1.43 5.62,-5.57 2.662,-1.69 3.338,-3.3 2.668,-1.54 m 8.572,-126.62 v 0 l -2.86,-2.85 -6.012,-4 -5.619,-2.58 -6.113,0.01 -5.636,3.58 -2.098,2.1 -2.92,5.73 -1.655,4.89 0.848,3.06 10e-4,3.99 -1.848,3.96 -0.123,2.04 3.481,8.48 1.482,2.5 1.832,1.81 2.636,1.58 h 8.108 l 5.67,-2.61 6.061,-6.06 3.932,-6.79 2.652,-9.84 -0.002,-4.12 m 60.403,-997.191 v 0 l -8.176,2.216 -2.065,1.033 -2.502,1.479 -4.812,4.833 -3.567,4.664 v 7.052 l 1.668,1.763 6.958,4.025 4.732,1.672 8.048,-0.124 7.922,-3.861 0.049,-0.831 -1.82,0.541 -1.378,-1.493 -5.766,1.651 -7.115,-0.007 -6.632,-3.575 -2.712,-2.154 0.047,-2.655 0.549,-0.668 20.286,-1.924 -0.127,-1.114 -0.87,-0.621 -14.675,-1.954 1.498,-1.482 5.636,-3.577 4.08,0.01 0.947,0.695 1.508,-0.341 1.87,-1.976 v -2.052 l -1.325,-1.325 m -38.071,575.68 v 0 l 1.348,-0.32 -0.646,-0.982 0.642,-2.027 -0.652,-0.974 -0.145,-2.026 0.146,-2.026 0.837,-1.978 0.014,-13.996 -0.13,-2.062 -1.678,-5.94 -1.632,-2.472 -1.085,0.125 -0.721,0.625 -3.731,7.696 -5.496,5.379 -3.054,-0.008 -0.456,-1.347 0.122,-5.05 1.577,-2.636 1.759,-1.661 h 2.052 l 0.972,0.875 0.177,0.771 -2.476,3.71 1.348,0.465 1.913,-1.962 1.402,-2.454 0.123,-3.051 -0.483,-1.485 -1.976,-1.87 -3.08,-0.01 -2.636,1.577 -1.81,1.785 -2.862,3.945 0.01,10.081 2.326,2.325 6.08,0.011 2.636,-1.577 5.309,-5.448 1.362,1.61 0.124,1.058 v 4.991 l -0.97,3.007 0.134,10.023 m 17.562,-188.357 v 0 l 1.763,1.682 2.047,-0.015 0.312,-0.367 -2.501,-7.63 -1.31,-2.312 -1.496,-1.379 -4.08,-0.01 -2.636,1.577 -2.835,2.784 -0.805,0.026 0.815,-3.029 v -6.992 l -0.483,-1.485 -1.633,-0.884 -1.731,2.311 -0.124,1.059 0.134,14.021 1.324,1.316 h 1.055 l 7.946,-6.684 1.051,10e-4 0.723,0.617 M -273.824,641.508 v 0 l 0.656,-0.039 -0.332,1.333 m 87.504,622.668 v 0 l 1.677,4.79 2.009,3.9 2.756,1.7 h 4.108 l 5.673,-2.61 3.245,-2.23 5.353,-5.93 1.653,2.99 2.251,7.68 3.192,-1.71 -0.055,-4.61 -3.661,-10.88 -2.956,-6.78 -1.777,-1.6 -2.37,1.69 0.046,2.66 0.704,0.94 0.133,2.02 -1.754,5.76 -2.516,2.56 -1.553,2.5 -7.603,3.55 -1.086,-0.02 -1.805,-2.68 -2.536,-7.6 0.002,-5.12 1.732,-3.88 -0.023,-3.09 -2.367,-0.32 -0.768,0.67 -2.574,5.62 -0.119,7.06 m 7.025,-93.02 v 0 l -2.325,2.33 -3.43,5.38 -2.782,2.61 -0.753,-0.58 -5.503,-15.44 -0.723,-0.62 h -1.051 l -1.272,1.34 0.768,2 -0.767,2 0.846,0.55 1.419,3.01 3.43,12.51 1.579,2.28 h 2.048 l 0.759,-0.66 1.694,-2.66 4.308,-4.34 3.43,-5.38 2.107,-2.34 -1.689,-2.37 m -14.632,208.04 v 0 l 2.35,2.33 0.135,9.02 -3.737,9.73 -4.059,5.06 -4.612,2.83 -6.015,1.75 -1.365,-0.17 -2.388,-1.41 -2.318,-3.32 -2.354,-4.41 -0.108,-1.05 0.281,-1.21 6.975,8.42 1.556,-2.22 -6.708,-13.93 0.004,-8.11 1.577,-2.64 5.06,-5.06 3.664,-1.61 4.787,1.55 6.248,4.17 m 36.989,-575.877 v 0 l 2.087,-0.118 4.612,-2.555 1.815,-2.782 1.528,-1.329 0.333,0.277 0.147,11.02 -0.97,3.007 0.123,6.051 2.374,3.311 2.35,-2.312 0.124,-23.047 -1.966,-8.157 -0.712,-1.063 -1.465,0.802 -1.115,1.693 -3.44,7.403 -3.762,3.667 -2.659,0.046 -1.723,-2.342 v -1.111 l 1.641,-2.706 5.196,-2.224 -0.064,-0.553 -3.357,-1.821 -1.116,0.004 -2.634,1.571 -2.662,2.758 v 7.053 l 1.662,1.759 2.64,1.58 m 6.869,-79.696 v 0 l 1.954,1.403 4.372,16.661 2.202,4.621 0.649,-0.002 -0.207,-1.142 1.605,-1.551 -0.027,-2.72 -3.374,-11.509 -3.448,-15.621 -1.045,-1.786 -2.005,0.508 -1.727,3.671 -0.369,-1.835 -2.346,-1.729 -1.055,-0.108 -1.48,0.468 -3.041,3.03 -1.839,2.918 0.01,7.08 3.326,3.325 h 3.052 l 2.759,-2.661 m -10.967,252.597 v 0 l 1.544,2.658 0.095,5.508 -10.904,3.07 0.104,2.504 1.347,0.457 8.41,0.039 2.06,11.437 1.553,0.38 2.315,-2.31 -0.827,-3.034 0.035,-6.468 5.389,-1.897 2.087,0.017 0.974,0.651 2.322,-2.327 -1.69,-2.37 -6.629,-0.087 -1.703,0.673 -1.902,-12.821 -2.393,-1.754 m 6.034,-294.096 v 0 l -2.06,0.128 -3.724,2.598 -2.237,-10.731 -0.507,0.053 -1.844,4.398 0.632,1.037 -0.598,1 0.651,0.974 0.132,2.022 -0.836,1.978 -0.132,2.022 0.481,1.486 2.031,1.841 6.784,-4.538 2.479,8.405 1.342,-0.764 1.729,-2.372 0.123,-2.047 -1.754,-5.753 -1.71,-1.609 m -3.018,192.04 v 0 l -4.942,1.682 -7.115,-0.005 -6.63,-3.574 -2.101,-2.098 -1.572,-2.635 0.353,-1.535 2.373,-2.885 1.143,0.831 5.426,1.902 9.056,0.117 7.187,-3.176 -19.583,-2.82 0.403,-0.974 2.309,-2.3 3.019,-2.012 6.639,-2.685 0.516,-1.522 -0.516,-2.332 -6.056,1.703 -6.602,3.848 -2.884,3.418 -3.211,2.677 -2.964,3.965 -1.594,3.718 2.554,4.69 2.817,2.84 7.918,4.839 h 11.108 l 6.287,-4.337 -0.312,-1.36 -2.028,0.633 m 0.219,-154.472 v 0 l 0.741,0.528 1.698,0.038 1.525,-1.609 0.178,2.271 -3.579,5.636 -0.758,0.651 -1.054,-0.006 -0.455,-1.339 0.122,-4.049 m 2.384,-2.657 v 0 l -0.027,-0.593 m -38.973,788.593 v 0 l -0.027,-0.59 m 24.032,-351.2 v 0 l -0.377,2.52 6.04,4.19 3.098,3.11 3.578,7.62 10e-4,10.12 -1.677,4.86 -1.167,2.05 -3.213,2.24 -1.675,1.8 2.309,2.35 h 1.116 l 3.665,-1.61 1.063,-1.07 3.578,-7.62 v -15.12 l -3.578,-7.62 -3.816,-3.84 -7.944,-4.8 m 113.6815,114.34 v 0 l 0.5931,-0.03 m -4.3246,2.72 v 0 l 0.0267,0.59 m 1.017,-1.01 v 0 l -0.0266,-0.59 m 18.736,-286.92 v 0 l -3.7017,1.705 -0.5133,2.511 0.4815,1.486 1.03,1.041 2.9791,1.82 3.7183,-1.594 1.2772,-1.267 0.4802,-3.527 -2.4289,-2.317 m -15.5527,283.332 v 0 l -1.5226,0.36 -0.2786,-0.33 1.273,-1.34 1.3273,0.33 m -6.5905,4.03 v 0 l 0.5932,-0.03 m -6.3245,4.72 v 0 l 0.0265,0.59 m 8.7049,-7.28 v 0 l 0.5931,-0.02 m -99.3506,51.46 v 0 l 1.681,1.11 1.728,2.38 0.004,2.11 -1.545,3.7 -4.032,7.92 -3.005,4.01 -0.759,0.66 h -4.05 l -2.762,-2.67 -1.919,-3.73 -1.661,-4.89 -0.026,-4.72 1.604,-1.55 -0.552,-0.76 v -1.06 l 2.557,-3.66 2.759,-2.66 3.08,-0.01 m 118.936,-59.12 v 0 l 13.3198,-10.31 6.6637,-4.56 3.0229,-0.13 1.3026,0.47 -4.6089,3.79 -5.3804,3.43 -2.6196,2.57 -19.6628,13.56 -1.3279,-0.34 0.3012,-0.48 m 33.839,-279.832 v 0 l -0.1873,1.332 1.6897,1.952 -0.827,3.031 0.1172,4.057 2.5834,7.626 2.7282,1.67 1.3637,-0.172 4.37597,-2.395 2.10132,-2.099 3.036255,-5 2.544495,-6.632 v -5.117 l -1.61615,-3.666 -1.059571,-1.06 -2.635679,-1.577 -5.05072,-0.123 -2.00922,0.785 -0.33191,-0.276 -0.14752,-2.017 1.66742,-12.341 2.14996,-10.629 -0.68408,-1.009 -0.24872,-1.661 -2.36914,-1.688 -0.74901,0.564 -1.1837,5.108 -3.5312,26.422 M 4.14539,1316.5 v 0 l 4.66857,4.79 3.16594,1.92 -6.17967,2.03 -8.07605,1.55 -0.58972,1.34 2.311707,1.73 2.046993,0.12 10.69614,-2.62 3.2774,-1.33 1.3753,-1.5 6e-4,-1.06 -0.9167,-1.6 -5.1163,-3.59 -2.31216,-2.3 -0.48127,-1.48 0.13263,-2.02 3.2968,-2.34 1.06,-0.13 4.0204,0.14 0.974,0.65 1.0285,-0.62 3.9764,2.62 0.3909,-1.93 -5.3418,-3.73 H 9.44568 l -2.63587,1.57 -2.66149,2.76 m -32.52042,6.51 v 0 l 5.0889,14.73 0.1347,-2.23 -0.5623,-0.77 1.5874,-2.25 -1.9369,-11.11 -2.0427,-23.31 -0.8815,-2.51 -1.5154,-0.5 -1.4808,0.47 -0.8705,0.97 -0.1191,1.03 1.8415,13.94 -0.0057,3.12 -2.5394,6.67 -3.0378,5.95 -1.3622,1.95 -3.4001,2.72 -1.026,0.12 -1.4819,-0.47 -2.0414,-2.03 -1.839,-2.92 -0.0036,-6.11 1.619,-3.67 3.2648,-4.27 1.4855,-0.49 4.0226,0.14 1.4943,0.89 1.765,2.89 1.0685,-1.38 -0.167,-1.35 -1.5327,-2.52 -6.6433,-2.53 -4.6728,2.54 -2.1301,3.13 -2.5737,5.62 -0.1333,6.06 0.1368,2.05 2.7002,4.76 4.6081,2.55 h 2.1078 l 5.4704,-3.39 3.2671,-4.29 M 6.52972,1269 v 0 l -0.39965,-1.13 9.76163,-6.73 -0.0489,-2.67 -1.3466,-0.45 -5.0504,0.12 -4.62958,2.57 -2.67846,3.74 v 5.1 l 1.83783,2.92 3.47015,2.39 6.08036,-0.01 3.4984,-3.35 0.8131,-0.02 0.1471,4.02 -0.9696,3 0.1227,4.05 1.8391,2.92 1.5231,1.33 0.4749,-0.3 1.8665,-1.97 0.0271,-1.09 -1.6806,-26.75 -0.6637,-0.54 -1.6568,-0.05 -1.5384,2.1 0.5314,2.36 -1.6138,3.67 -2.9581,4.95 -1.3067,1.32 -1.4854,0.48 -2.02301,-0.13 m -222.01839,79.97 v 0 l 1.545,-0.34 0.952,-1.57 1.919,-10.35 0.112,-2.06 -0.455,-1.34 -2.054,-0.01 -1.273,1.35 0.641,0.97 0.025,1.09 -1.738,9.88 m 205.34799,-27.4 v 0 l 1.35876,-1.58 -1.63067,-4.97 -0.49732,1.12 -2.57546,8.83 -0.1164,5.06 0.476,1.3 0.7254,-0.54 1.74864,-5.72 0.83325,-1.04 -0.64221,-0.97 M -399.79,1477.52 v 0 l 0.593,-0.03 m 181.051,-288.03 v 0 l 0.64,1.52 0.978,0.86 1.37,-0.31 0.142,-1.03 0.001,-14 -0.482,-1.48 -0.976,-0.86 -1.507,0.34 -0.872,0.97 -0.133,1.03 v 11 m -179.493,289.29 v 0 l -0.027,-0.59 m 274.964,-596.017 v 0 l 1.346,0.314 -1.329,0.332 m 113.3872,112.67 v 0 l -0.8484,-2.003 0.133,-12.022 0.92624,-1.608 2.37213,-1.728 3.07977,0.01 1.60736,0.926 1.72803,2.372 0.00592,2.114 -1.65985,4.887 -2.91931,5.737 -2.76075,2.658 -1.37817,-0.315 m 17.3725,270.263 v 0 l -0.02643,-0.59 m -15.78717,34.12 v 0 l 0.78912,0.49 0.47095,-1.31 -1.0423,-2.63 -2.37144,-1.73 -1.0833,0.02 -1.2939,1.37 2.5378,4.65 0.58236,0.53 m 18.18061,-36.5 v 0 l 0.02636,0.59 m 435.69867,27.51 v 0 l -3.054,2.17 -10e-4,3.05 1.351,1.27 1.001,-0.6 1.972,1.64 1.053,-0.01 -0.509,-3.33 0.826,-3.03 -1.313,-1.31 m -2.391,22.27 v 0 l -0.981,2.04 0.001,1.06 1.315,1.32 3.081,0.01 2.636,-1.58 1.651,-1.75 -0.011,-1.06 -1.303,0.37 -1.326,-0.33 0.61,-0.79 3.321,-1.8 1.729,-2.37 -0.019,-2.08 -1.346,-0.45 -2.023,0.13 -4.489,4.35 -1.118,0.57 m -35.71,-2.61 v 0 l -1.684,2.56 -2.662,1.69 -3.06,3.06 -1.616,3.67 0.004,7.11 1.577,2.64 3.1,3.1 3.61,1.86 5.487,1.89 -0.897,2.46 v 17 l 0.481,1.48 2.667,2.92 1.698,-2.35 -0.009,-2.08 -0.837,-1.97 -10e-4,-7.99 1.948,-17.42 1.894,-7.59 -1.853,-7.16 -1.503,-1.31 -0.695,0.1 -2.223,8.63 -1.379,8.52 -0.681,0.57 -3.076,0.01 -3.47,-2.39 -1.839,-2.92 -0.122,-1.06 0.119,-2.05 1.616,-3.67 3.44,-2.49 4.632,-4.81 -1.69,-2.37 m 35.346,6.11 v 0 l 0.027,0.59"
     id="path6" />
</g>
</svg>
