<?xml version="1.0" encoding="UTF-8" standalone="no"?>
<svg
   width="1007.827"
   height="941.66528"
   viewBox="-702 0 1007.827 941.66528"
   version="1.2"
   id="svg166"
   sodipodi:docname="CryptoResearch - page 5.svg"
   xmlns:inkscape="http://www.inkscape.org/namespaces/inkscape"
   xmlns:sodipodi="http://sodipodi.sourceforge.net/DTD/sodipodi-0.dtd"
   xmlns:xlink="http://www.w3.org/1999/xlink"
   xmlns="http://www.w3.org/2000/svg"
   xmlns:svg="http://www.w3.org/2000/svg"><defs
   id="defs170" />
<sodipodi:namedview
   id="namedview168"
   pagecolor="#505050"
   bordercolor="#eeeeee"
   borderopacity="1"
   inkscape:showpageshadow="0"
   inkscape:pageopacity="0"
   inkscape:pagecheckerboard="0"
   inkscape:deskcolor="#505050"
   showgrid="false" />
<title
   id="title2">CryptoResearch</title>
<g
   id="g8"
   inkscape:export-filename="g8.svg"
   inkscape:export-xdpi="96"
   inkscape:export-ydpi="96"
   transform="translate(-161.015,-88.174698)">
  <path
     fill="#000000"
     d="m -120.971,88.4741 v 0 l -1.165,0.5964 -1.726,2.3759 0.01,2.0793 0.694,0.9456 0.014,1.0836 -3.174,6.1911 -3.044,8.022 -2.506,8.671 -0.118,7.055 2.46,7.412 1.503,2.566 1.798,1.777 3.666,1.617 6.053,0.12 5.689,-2.697 3.103,-4.103 1.92,-3.738 1.662,-4.887 0.117,-7.055 -1.677,-3.672 -2.754,-1.696 h -5.108 l -4.63,2.573 -8.713,9.143 0.369,1.988 2.054,0.009 6.284,-7.136 5.636,-3.577 1.06,-0.123 2.02,0.134 2.325,2.325 0.015,7.085 -3.578,7.625 -3.098,3.101 -2.636,1.577 -6.08,-0.011 -2.763,-2.667 -2.573,-4.63 -0.124,-11.048 2.769,-8.962 7.083,-15.9854 0.031,-2.6911 -2.375,-1.6928 m -60.521,929.3653 v 0 l 2.091,-11.7 7.79,-3.79 -0.008,-0.53 -1.347,-1.36 -2.001,0.69 -3.435,0.13 -2.957,-19.417 0.665,-2.063 -1.308,-1.365 h -0.622 l -1.731,2.311 -0.108,1.056 0.955,3.002 -0.063,17.546 -3.394,1.94 -0.499,1.56 2.443,2.27 1.034,-0.62 0.332,0.28 0.014,3.05 -0.837,1.97 0.134,10.03 1.351,1.27 1.299,-1.3 -0.598,-1 0.652,-0.97 M -71.9415,89.4628 v 0 l -1.0136,2.248 -3.1507,19.4332 -3.7867,2.712 -0.0059,3.291 1.8705,2.303 -1.9582,7.056 0.0018,4.99 0.4841,1.358 1.495,-1.186 3.8728,-14.108 0.1832,-2.532 8.8706,-2.958 -2.3669,-1.926 -3.0582,0.84 -2.3308,-0.453 2.6856,-19.0116 m -7.3082,93.4816 v 0 l -31.6269,2.061 -4.526,0.752 -21.861,6.457 -29.814,6.338 -23.166,5.696 -18.055,3.42 -9.423,2.765 -36.325,13.192 -20.711,10.812 -21.219,12.217 -1.626,1.574 -5.38,3.43 -3.62,3.57 -2.38,1.43 -7.62,7.57 -2.662,1.692 -4.813,4.833 -1.692,2.662 -7.308,7.338 -5.43,7.38 -4.57,4.62 -7,9 -4.002,6.004 -11.219,20.221 -5.978,12.897 -3.022,5.103 -7.819,15.737 -5.038,15.927 -8.273,32.599 -7,24.97 -5.73,18.467 -7.024,26.015 -5.926,25.76 -5.758,38.649 -0.836,1.742 -4.653,-0.029 -16.225,-1.847 -4.719,-1.011 -3.019,0.134 -1.338,1.36 0.008,0.644 4.52,2.136 3.936,0.83 22.373,2.962 0.012,18.416 -0.97,3.007 -0.014,34.997 1.783,14.813 7.709,39.617 5.149,18.37 11.856,36.667 8.183,21.286 9.032,18.932 4.002,6.005 4.574,5.626 2.424,4.369 15.002,23.005 2.57,2.62 1.43,2.38 6.57,6.62 1.43,2.38 7.57,7.62 7,9 3.692,5.662 4.833,4.813 6.38,4.43 7.62,7.57 2.38,1.43 16.62,16.57 2.662,1.692 4.338,4.308 4,3 37.004,23.002 25.219,13.222 38.712,14.817 18.701,5.939 42.447,9.942 70.0834,9.879 -0.124,4.44 -0.6877,1.012 3.6169,14.721 1.7663,0.712 2.2973,-2.482 -3.6805,-12.951 0.6877,-1.012 0.2043,-4.509 11.1784,-2.015 48.4435,-2.819 17.5397,-2.781 24.7057,-5.893 25.3074,-7.147 44.0176,-15.134 2.53,-1.54 13.475,-5.37 28.965,-14.005 33.966,-20.026 4.625,-3.572 13.38,-8.43 6.62,-5.57 10.38,-7.43 12.62,-10.57 2.38,-1.43 14.62,-14.57 2.662,-1.692 4.337,-4.308 2.381,-1.43 6.62,-6.57 2.662,-1.692 8.813,-8.833 1.692,-2.662 4.308,-4.338 2.244,-3.215 2.661,-1.69 4.62,-4.57 2.38,-1.43 5.833,-5.813 8.692,-12.662 3.57,-3.62 10.002,-15.005 4.025,-6.964 3.37,-8.476 8.637,-18.492 7.007,-16.999 7.181,-20.291 7.857,-26.665 6.018,-22.005 3.484,-18.729 -1.701,-24.095 1.339,-0.453 11.99,-0.002 6.952,2.848 2.05,0.121 1.347,-0.455 0.143,-3.093 -4.301,-2.043 -7.125,-2.26 -9.057,-0.117 -2.436,0.909 -6.285,-27.903 -3.462,-25.487 -7.962,-30.834 -5.864,-16.735 -6.996,-22.967 -7,-19.031 -3.294,-10.41 -12.917,-24.743 -6.002,-9.004 -7.57,-9.62 -7.426,-12.374 -6.099,-6.101 -2.662,-1.692 -2.551,-2.551 -1.692,-2.662 -6.57,-6.62 -1.43,-2.38 -19.308,-19.338 -1.692,-2.662 -2.813,-2.833 -2.662,-1.692 -13.62,-13.57 -2.662,-1.692 -10.338,-9.308 -32.005,-22.002 -15.369,-8.425 -1.626,-1.573 -6.004,-4.002 -13.372,-7.426 -8.587,-5.534 -5.405,-2.461 -13.858,-7.798 -11.191,-5.247 -9.809,-5.753 -7.711,-3.813 -20.8077,-8.885 -16.6459,-4.428 -19.0285,-7.045 -10.7765,-5.865 -1.5422,-1.312 7.0408,-0.132 10.9443,1.857 3.088,-0.03 0.3385,-0.972 -2.6159,-2.098 -6.1782,-1.715 -38.8123,-2.754 -17.23915,-2.86 -5.97467,-1.487 0.08496,-3.518 2.85754,-22.944 -0.00183,-2.989 -0.45477,-1.345 -1.70502,-0.036 -0.91308,1.399 -1.097964,4.546 -2.807926,22.299 -0.76465,2.33 -1.74432,-0.682 -13.99672,-0.014 -2.0259,0.147 -1.9774,0.837 -5.99,10e-4 -21.0062,-3.985 -11.994,0.013 -12.9444,2.855 M -125.42,938.142 v 0 l -3.141,-0.275 -10.912,-3.138 -22.795,-5.365 -19.987,-7.037 -15.547,-6.662 -13.428,-4.341 -15.735,-7.818 -11.221,-6.219 -4.998,-2.998 -1.632,-1.578 -24.369,-14.424 -6.005,-4.002 -9.62,-8.57 -2.38,-1.43 -19.338,-19.308 -2.662,-1.692 -4.62,-4.57 -2.38,-1.43 -8.095,-8.095 -6.43,-9.38 -7.308,-7.338 -1.692,-2.662 -6.57,-6.62 -1.692,-2.662 -3.308,-3.338 -3,-4 -9.43,-15.38 -1.57,-1.62 -6.43,-10.38 -2.57,-2.62 -4.002,-6.005 -9.032,-18.932 -4.182,-10.286 -5.009,-14.038 -9.849,-30.629 -6.029,-21.044 -8.598,-45.763 10e-4,-48.99 0.837,-1.977 0.147,-2.026 -0.147,-3.026 -0.694,-0.945 -0.022,-1.091 1.892,-5.387 4.533,0.081 7.88,2.733 4.055,0.12 1.485,-0.482 0.87,-0.977 10e-4,-2.052 -0.652,-0.98 1.355,-0.35 2.023,1.045 9.73,2.813 35.962,4.009 5.236,1.974 9.02,-0.134 1.316,-1.324 -10e-4,-1.051 -0.556,-0.676 -13.93,-2.795 -37.484,-3.932 -9.099,-2.738 -7.217,-3.191 -1.398,0.328 -0.045,2.679 3.651,2.345 -2.264,1.349 -12.702,-3.529 -2.712,-1.259 0.045,-6.62 4.543,-29.014 2.94,-13.742 5.024,-20.982 16.727,-58.4 10.277,-39.599 5.034,-14.928 9.833,-18.804 3.995,-8.972 15.212,-27.186 6,-8 2.57,-2.62 1.43,-2.38 4.57,-4.62 1.692,-2.662 2.308,-2.338 1.43,-2.38 9.785,-9.825 0.574,-1.119 5.736,-5.151 2.38,-1.43 7.62,-7.57 13.005,-9.002 27.22,-15.219 9.711,-4.812 33.026,-12.017 9.956,-3.034 25.561,-5.241 18.135,-4.683 25.826,-5.31 12.05,-3.034 14.466,-4.389 36.9762,-2.946 20.7507,-3.013 21.0137,3.971 17.9897,-10e-4 3.0667,-0.852 9.40819,1.943 0.01117,27.469 -2.82349,2.93 2.29798,5.505 1.52899,5.526 -0.11475,7.057 -1.78888,12.601 -2.06848,9.343 0.14331,5.021 2.36512,0.322 0.68988,-0.583 3.77392,-17.773 V 232.506 L 0.158325,225.47 1.1897,224.306 3.11523,191.01 l 19.32267,3.859 6.6165,0.21 1.8909,2.842 4.5509,0.064 3.0072,-0.97 7.0551,0.119 7.6273,3.58 2.5287,1.975 -1.2201,0.296 -3.0561,-0.116 -12.1205,-2.977 -17.8243,-2.878 -13.04709,0.124 -2.14831,1.579 0.44751,0.502 31.42849,4.657 9.5346,2.276 16.6739,2.551 14.5858,4.797 5.2088,2.207 4.0128,3.008 5.2837,5.136 2.0482,-0.014 0.3011,-0.359 -1.5385,-2.668 -3.0851,-3.315 2.359,-0.361 29.6686,12.619 9.808,5.753 11.184,5.181 23.966,13.026 8.629,5.574 13.369,7.424 1.627,1.574 8.004,5.002 10.372,5.426 22.004,15.002 2.626,2.574 7.374,4.426 3.619,3.57 2.381,1.43 4.62,4.57 2.38,1.43 14.62,14.57 2.662,1.692 1.813,1.833 1.692,2.662 19.308,19.338 1.692,2.662 5.308,5.338 1.692,2.662 3.833,3.813 2.38,1.43 5.095,5.095 8.43,13.38 7.57,9.62 4.002,6.004 8.207,16.151 4.754,7.811 1.257,3.304 13.002,37.956 4.276,14.422 5.577,15.307 7.033,26.973 1.901,10.407 2.433,18.622 5.242,23.736 -0.442,1.34 -4.086,0.023 -6.171,-2.228 -8.301,-2.141 -15.126,-3.01 -14.407,-1.767 -29.943,-2.706 -15.02,0.134 -1.315,1.325 10e-4,1.051 0.572,0.688 6.541,1.577 3.204,2.033 0.385,-0.98 -1.409,-1.696 7.041,-0.132 30.205,2.747 14.83,1.901 9.73,2.119 0.591,0.693 0.217,1.537 3.36,1.204 18.528,3.825 2.032,7.466 -0.117,22.055 -4.506,18.74 -9.005,31.999 -5.857,18.667 -4.175,11.287 -11.007,25.999 -9.072,19.974 -10.962,16.963 -5.57,6.62 -3.43,5.38 -5.57,6.62 -1.691,2.66 -3.215,2.245 -4.619,4.57 -2.663,1.692 -5.812,5.833 -1.692,2.662 -14.551,14.551 -2.662,1.692 -8.62,8.57 -2.38,1.43 -14.62,14.57 -2.662,1.692 -12.338,10.308 -2.381,1.43 -2.619,2.57 -12,9 -17.38,11.43 -1.626,1.573 -33.957,19.959 -26.974,13.072 -15.474,6.369 -2.53,1.54 -40.7912,13.988 -31.9052,9.05 -28.4006,6.161 -14.468,1.715 -45.191,2.844 -5.4999,-0.052 -2.8619,-9.373 -0.1485,-15.105 -1.8811,-2.309 -0.1007,-9.647 2.1232,-28.596 0.7174,-3.434 -1.8586,-1.97 -1.1417,-0.354 -1.7254,3.814 -2.1022,25.547 3e-4,24.987 1.8536,5.945 0.0705,9.56 -4.4463,1.857 -61.0887,-8.513 M 93.0609,90.4571 v 0 l -0.9041,1.0106 0.0012,1.06 1.6862,1.7815 9.5928,2.5567 4.063,-0.8649 5.996,0.0142 1.788,0.6927 1.538,-2.1807 -1.296,-1.3786 -1.03,-0.1334 h -7.993 l -3.066,0.8506 -7.7139,-1.6233 M -92.9583,91.4767 v 0 l -0.8937,0.9922 0.1444,3.2406 2.3876,-0.9899 1.162,-1.192 -0.3395,-1.5075 -0.9749,-0.862 M -149.663,1002.82 v 0 l 2.187,2.05 2.666,-1.59 8.499,-8.995 0.297,4.208 -1.856,8.947 -0.115,7.06 1.005,2 1.897,0.47 3.953,-24.408 0.114,-7.059 -0.456,-1.346 -2.052,-0.008 -0.484,0.374 -4.707,7.667 m 16.193,-899.9805 v 0 l 0.027,0.5932 m 29.6387,30.6183 v 0 l -0.1286,7.075 1.1957,2.194 2.6173,-10.156 -0.6713,-1.007 10e-4,-1.054 1.6931,-1.947 0.1175,-1.026 -0.4398,-1.335 -1.8249,0.666 m 52.4987,-23.5226 v 0 l -2.6738,1.6673 -2.0268,2.0227 -2.0167,3.0686 -2.6274,7.058 -1.7238,8.312 0.6652,2.063 -0.6514,0.974 -0.0172,2.088 2.6115,9.649 3.7036,2.651 1.06,0.124 7.0483,-0.124 4.6296,-2.573 1.3144,-1.287 4.008,-6.037 3.8142,-7.706 1.6657,-4.765 -0.1203,-4.053 -1.5513,-3.667 -3.0293,-4.9642 -2.1013,-2.0985 -4.6295,-2.5735 m -9.0146,32.0242 v 0 l -1.5466,-0.683 -2.2398,-3.251 -1.6189,-3.669 0.0142,-3.085 3.6096,-3.709 3.9372,-1.531 -1.169,-1.085 -1.0262,-0.118 -1.4819,0.467 -1.4908,1.344 -1.0563,-0.007 -0.3315,-1.394 2.6091,-6.662 4.2696,-4.2815 1.4852,-0.4823 4.0506,0.1226 4.6295,2.5734 1.1014,1.0988 1.9616,2.962 1.6191,3.669 0.002,3.12 -2.3415,6.345 -6.3644,10.404 -4.6077,2.552 -8.0774,-0.011 -0.7238,-0.626 -1.6133,-3.666 0.0309,-1.085 0.8047,0.027 2.8347,2.784 2.6351,1.571 1.3556,-0.351 -1.6,-2.004 0.6022,-1.01 M 110.419,108.86 v 0 l 3.107,0.288 1.977,0.837 3.296,-0.477 -0.575,-0.754 -3.974,-1.981 -4.69,-1.641 -12.0564,-0.116 -1.3565,0.482 0.9074,1.366 M 143.252,93.2628 v 0 l -9.477,3.4879 -4.064,4.0653 -2.573,4.63 v 7.108 l 0.972,1.866 1.669,5.84 2.796,1.93 4.864,1.678 h 3.121 l 7.572,-2.944 3.372,-4.957 3.361,-7.408 0.002,-3.12 -1.661,-4.887 -1.919,-3.7367 -2.097,-2.1001 -2.636,-1.5774 M -4.82947,97.4503 v 0 l -0.15295,2.0404 0.45215,1.3433 1.3396,-0.155 1.89911,-1.3928 -2.18073,-2.1278 M 132.129,113.858 v 0 l 1.843,-2.31 -0.131,-1.077 -1.369,-0.314 -0.973,0.642 -0.473,-0.299 -0.877,-0.974 -0.011,-2.08 2.573,-4.63 2.104,-2.104 3.737,-1.9185 5.954,-1.7785 2.02,0.1336 2.725,2.6301 2.609,6.6603 v 1.121 l -4.572,9.624 -2.042,2.048 -4.686,1.636 -3.086,-0.017 -2.759,-2.661 -2.581,-3.699 M 68.2747,102.246 v 0 l -9.43,2.444 -1.1337,1.126 -2.5733,4.63 -0.1227,7.05 0.4824,1.486 2.2774,2.267 3.6656,1.612 1.5405,-0.358 1.4915,-1.345 1.3699,0.314 0.0264,4.09 -4.7361,17.877 -0.117,3.057 0.4565,1.346 2.0514,0.008 2.2993,-3.321 -0.6654,-0.999 -0.0219,-1.092 5.4918,-23.702 2.2346,-6.182 0.0074,-3.116 -1.6578,-6.707 -0.6895,-0.582 M 11.5091,1013.83 v 0 l -0.0138,-0.8 7.7933,-7.85 2.5735,-4.63 0.1235,-1.056 -0.12,-4.053 -2.5726,-5.618 -3.1031,-3.108 -2.6358,-1.577 -1.0601,-0.123 -2.0528,0.119 -5.57499,2.94 -2.71728,3.4 0.00836,2.053 1.97601,0.369 1.7041,-2.206 4.6084,-2.552 3.0803,0.01 2.7586,2.662 1.5774,2.636 -0.0108,6.084 -2.5664,3.66 -4.8127,4.83 -4.24722,3.23 -3.4502,1.5 -1.617,1.72 0.00109,1.05 0.54834,0.68 19.91069,2.56 3.8519,1.07 0.5124,-1.33 -0.0952,-1.65 -1.7694,-1.16 -9.5557,-2.56 M 60.544,119.145 v 0 l -1.5239,-0.639 -0.8718,-0.98 -0.0108,-6.08 1.9462,-3.59 4.4228,-2.698 3.4149,1.796 -0.0701,7.572 -3.6613,3.759 -2.6612,1.538 m 0.6415,-11.373 v 0 l -0.0131,4.078 2.3705,0.314 0.4564,-1.346 -0.1414,-3.024 -1.3424,-0.44 m 30.6769,6.423 v 0 l 0.5807,1.776 9.6801,2.638 8.058,0.115 1.37,-0.497 -3.308,-2.352 -2.084,0.013 -1.008,0.681 -8.9047,-2.698 -3.0575,-0.115 m -173.0307,2.194 v 0 l 0.3587,1.31 -0.3324,0.282 -0.3317,-1.333 m 62.8733,3.008 v 0 l -0.8926,0.992 5e-4,2.057 1.8699,1.976 1.5356,0.354 2.3408,-1.694 -1.6058,-1.872 0.5085,-0.793 -1.272,-1.348 m 78.9521,1.061 v 0 l 0.0266,0.593 M -50.999,1003.54 v 0 l 0.1474,-4.066 2.6615,-2.759 2.636,-1.577 2.0801,0.011 1.1863,1.148 -1.4249,1.405 1.2102,1.096 2.3587,-3.243 -0.0148,-1.084 -2.3153,-2.323 -5.0806,-0.01 -2.6357,1.577 -3.0594,3.06 -1.6163,3.665 0.0035,5.11 2.5735,4.63 1.1179,1.12 6.0714,2.71 -2.8866,10.5 0.1346,4.02 1.3239,1.31 h 1.0515 l 0.6942,-0.58 5.2815,-19.23 4.3658,-10.472 -0.0144,-2.084 -1.3228,-1.324 -1.6704,-0.041 -2.1809,3.666 -2.4258,6.445 -2.7249,2.63 -2.0229,0.13 -1.5114,-0.5 -1.8541,-2.93 m -62.6108,-18.553 v 0 l -0.385,1.554 1.727,2.342 h 1.261 l 1.726,-2.339 -0.014,-1.083 -2.342,-2.271 m -6.023,18.76 v 0 l 0.992,0.89 h 2.057 l 1.325,-1.32 v -2.06 l -1.35,-1.27 -1.001,0.6 -1.001,-0.6 -1.35,1.27 m 98.1333,5.71 v 0 l -2.1446,3.27 -0.1216,2.05 0.4814,1.48 1.5272,1.52 1.2027,-0.25 2.4756,-6.42 8.6319,-16.632 4.49408,-13.665 -1.30164,-1.375 -1.7763,0.621 -6.43304,16.475 m -183.559,18.026 v 0 l -2.179,-10.27 -1.111,0.15 -0.453,1.34 0.141,10.03 1.347,0.45 2.024,-0.14 M 32.4592,196.183 v 0 l 1.3454,0.314 -1.329,0.332 M -201.51,981.962 v 0 l 4.015,2.838 0.333,-0.276 0.083,-3.571 -3.236,-1.723 -1.51,2.249 m -12.676,18.384 v 0 l -2.003,-0.848 -4.05,0.123 -3.735,2.682 -2.573,4.63 0.02,2.08 1.367,0.31 2.19,-3.03 3.759,-3.66 3.659,-0.05 1.729,2.35 0.004,4.11 -1.552,3.67 -1.292,2.24 -4.04,4.03 -1.486,0.48 -4.02,-0.13 -3.338,-5.3 -0.006,-4.11 5.237,-15.24 2.5,-9.639 -0.018,-7.088 -1.321,-1.322 -1.471,-0.112 -2.86,13.643 -6.067,18.758 v 5.12 l 1.636,4.69 3.007,3 3.731,1.6 5.757,-1.63 3.045,-2.05 3.939,-5.94 1.619,-3.67 v -5.12 l -1.619,-3.67 M -519.797,489.308 v 0 l -2.674,1.668 -4.818,4.84 -2.534,4.655 0.622,1.029 -0.598,1 1.272,1.342 1.052,-10e-4 5.309,-8.149 3.638,-2.534 2.661,0.916 1.729,2.372 v 5.108 l -2.594,3.66 -6.729,1.752 -1.388,1.505 -0.122,1.077 2.417,2.313 2.08,-0.009 1.977,-0.837 3.023,0.133 2.325,2.326 0.011,4.08 -1.577,2.636 -2.759,2.661 h -11.052 l -3.919,-2.707 -1.535,0.353 -0.871,0.977 -0.118,1.026 0.785,1.786 3.736,1.92 4.887,1.661 4.123,0.002 6.706,-1.655 3.981,-3.989 1.617,-3.667 -0.015,-7.084 -4.56,-4.188 1.958,-2.061 1.617,-3.666 -0.004,-6.113 -1.577,-2.636 -2.095,-2.095 -2.636,-1.577 m -6.011,47.861 v 0 l -11.397,-2.019 -1.593,-0.841 -2.395,0.333 -0.008,2.052 0.373,0.483 3.524,1.966 21.483,2.868 1.312,-1.314 v -1.055 l -2.316,-2.324 m -9.879,31.819 v 0 l 6.621,-1.756 0.527,-0.711 -0.551,-0.73 -4.145,-1.776 4.757,-8.439 -0.353,-1.535 -0.976,-0.862 -1.814,0.659 -5.424,9.366 -1.763,1.668 -8.08,0.011 -2.311,-1.733 2.348,-6.06 3.232,-5.259 9.126,-7.285 -0.338,-1.505 -0.977,-0.871 -1.026,-0.118 -1.48,0.465 -6.21,4.219 -4.098,4.101 -4.574,8.63 -0.123,6.051 0.749,1.738 11.991,2.506 -3.616,9.7 0.358,1.539 0.976,0.862 1.776,-0.621 2.425,-6.447 m 40.472,-2.277 v 0 l 1.327,1.345 h 1.054 l 1.688,-1.576 3.937,-25.459 1.716,-16.244 -0.366,-1.544 -1.353,-1.491 -0.249,-1.661 -2.347,-1.729 -1.053,-0.108 -3.692,1.687 -3.81,2.785 -4.283,5.308 -1.577,2.636 -0.124,1.059 0.124,7.049 2.637,3.695 3.725,1.598 3.725,-1.598 1.28,-1.05 0.333,0.277 0.148,6.017 -2.856,15.945 m -4.089,-24.915 v 0 l -0.893,-0.992 -0.133,-1.035 0.123,-5.05 1.577,-2.636 4.283,-4.308 3.48,-2.325 0.506,1.326 0.002,4.991 -1.672,4.732 -1.292,2.247 -3.496,3.378 m 5.264,1.627 v 0 l -0.593,0.027 m 934.78,11.972 v 0 l 2.478,1.648 5.309,1.598 -2.75,9.783 0.134,4.02 1.799,1.392 3.837,-15.324 2.078,-4.04 0.123,-13.051 -1.011,-2.003 -2.501,0.343 -1.977,-0.828 -6.022,0.133 -0.948,0.704 -2.659,0.25 -2.15,2.706 -1.58,2.638 v 3.108 l 1.578,2.636 m 0.779,67.663 v 0 l 0.757,-0.636 2.232,-5.149 3.285,-5.317 8.693,-1.724 0.427,-0.565 -5.58,-2.245 6.543,-7.691 v -3.052 l -1.351,-1.273 -0.476,0.299 -5.309,6.31 -1.43,2.38 -3.759,3.661 -2.087,0.016 -7.604,-2.576 -1.816,-1.748 0.129,-2.069 2.137,-2.284 1.43,-2.38 3.095,-3.095 6.899,-4.427 -0.508,-0.796 0.275,-0.33 6.082,-0.028 3.882,1.726 1.089,-0.019 1.313,-1.314 v -1.055 l -1.634,-1.732 -2.387,-0.847 -16.783,-2.745 -3.478,-1.015 -3.086,0.015 -1.316,1.325 0.628,1.78 11.418,3.365 -5.394,3.097 -3.833,3.813 -3.839,5.918 -0.124,1.06 0.134,4.02 1.675,1.767 11.059,4.662 -3.748,8.486 0.023,2.086 m 8.717,-63.624 v 0 l -1.708,-2.213 -3.666,-2.715 0.21,-1.265 -1.604,-1.889 1.415,-1.799 -0.021,-0.997 1.997,-1.823 0.793,0.509 1.552,-1.575 1.63,0.707 2.002,-0.695 3.054,0.009 0.456,1.347 -0.133,11.02 -3.322,2.299 -1,-0.675 m -3.051,28.061 v 0 l 0.027,0.594"
     id="path6" />
</g>
<g
   id="g12"
   transform="translate(-161.015,-88.174698)">
  <path
     fill="none"
     stroke="#d90707"
     stroke-width="4"
     stroke-linecap="round"
     stroke-linejoin="round"
     d="m -7.0379,264.725 0.23004,0.137 -0.30066,0.027 0.03406,-0.408 0.37982,0.124 -0.14142,0.751 -1.1402,-0.787 -0.16754,0.203 -2.6924,-0.36 -1.9609,0.691 -0.0725,-0.34 -2.0747,0.127 -1.718,0.634 -11.0956,1.259 -0.898,-0.137 -1.8767,0.5 -4.4698,0.066 -1.8515,0.567 -2.406,-0.36 -2.9785,0.674 -1.9094,-0.154 -2.6678,0.808 -2.5141,-0.115 -0.1443,0.222 0.0506,-0.247 -5.0579,0.583 -0.2662,-0.195 -1.9847,0.54 -3.5224,0.062 -0.5007,-0.339 -0.1763,0.363 -2.513,-0.277 -1.6485,0.142 0.0691,0.213 -0.7214,-0.271 -2.6803,0.286 -3.332,-0.487 -6.5458,-0.184 -3.7581,0.585 -5.4987,0.1 -4.4912,0.691 -6.2749,1.92 -11.3146,2.053 -1.674,0.839 -3.381,1.002 -0.577,0.629 -0.848,-0.016 -9.433,2.5 -1.044,-0.12 -4.364,0.792 -9.638,3.693 -4.095,0.243 -11.987,3.143 -0.842,-0.079 -1.138,0.386 -0.214,-0.19 -5.864,1.149 -6.666,2.271 -11.171,2.021 -10.996,4.202 -3.723,0.879 0.3,0.019 0.017,0.323 -0.531,-0.047 -3.218,1.818 -1.817,1.171 -1.068,1.207 -4.358,2.822 -6.771,3.811 -1.59,1.213 -2.199,2.54 -7.228,6.207 -7.318,4.213 -4.265,2.867 -4.597,4.693 -5.428,3.624 -5.325,4.642 -3.29,2.099 -1.923,0.742 -2.114,2.006 -1.113,0.455 -7.615,7.316 -0.386,0.066 -3.371,4.762 -2.952,3.001 -1.631,2.177 -4.035,4.435 -5.607,5.193 -2.362,3.42 -2.337,2.683 -2.828,5.074 -7.006,8.525 -2.615,5.421 -3.977,5.085 -6.089,10.032 -1.024,3.707 -2.148,5.815 -2.262,3.845 -0.335,2.248 -0.616,1.634 -2.049,3.919 -3.2,5.066 -1.202,5.702 -3.408,7.299 -0.469,2.931 -1.257,2.917 -0.871,4.862 -3.37,9.774 -0.666,5.77 -2.481,11.106 -1.659,4.667 0.183,2.077 -0.436,2.114 0.31,0.057 -0.429,3.166 -0.294,1.41 -0.437,0.524 0.426,-0.06 -0.398,-0.087 0.137,0.468 0.131,-0.598 -0.408,0.148 -0.293,1.749"
     id="path10" />
</g>
<g
   id="g16"
   transform="translate(-161.015,-88.174698)">
  <path
     fill="none"
     stroke="#d90707"
     stroke-width="4"
     stroke-linecap="round"
     stroke-linejoin="round"
     d="m -414.142,498.566 -0.597,0.359 -0.799,-0.44 0.108,0.552 0.429,0.32 0.278,-0.182 -0.094,0.607 0.343,-0.49 0.029,0.338 4.405,2.963 1.913,0.603 0.802,-0.119 7.844,1.625 1.021,0.564 4.275,1.074 5.015,-0.258 2.486,0.423 3.777,1.499 2.26,0.064 1.668,-0.566 6.476,1.362 7.931,0.051 1.131,0.413 4.18,0.44 2.337,0.037 8.108,-1.71 1.389,0.056 1.315,0.468 2.948,0.239 0.596,-0.312 -0.469,0.025 -0.006,0.444 0.377,-0.49 -0.453,0.178 0.352,0.152 0.125,-0.227 -0.469,0.097 0.181,0.325 -0.141,-0.446 -0.284,-0.005 -1.011,0.961"
     id="path14" />
</g>
<g
   id="g20"
   transform="translate(-161.015,-88.174698)">
  <path
     fill="none"
     stroke="#d90707"
     stroke-width="4"
     stroke-linecap="round"
     stroke-linejoin="round"
     d="m -7.4082,259.634 0.28698,-1.418 0.71473,1.634 0.59692,-0.022 5.314026,3.172 2.690364,0.765 8.13208,0.917 9.2349,-0.145 3.0035,0.779 2.4242,1.124 3.1449,0.613 4.617,-0.188 0.8345,-0.313 2.7038,0.192 2.0665,0.656 4.361,2.469 6.8285,0.541 5.2992,2.339 3.8478,0.225 3.3127,1.406 1.8551,0.34 3.159,0.032 2.9579,0.462 2.841,2.19 3.8207,1.409 4.4348,2.883 6.4787,2.895 5.025,3.162 3.5927,1.461 9.5327,5.518 3.925,1.994 5.181,1.959 5.872,3.632 3.093,2.59 3.891,2.459 5.88,2.718 1.914,0.33 3.34,1.228 5.715,4.422 3.612,2.252 3.899,1.91 3.038,2.943 3.06,2.151 3.348,1.839 3.687,2.97 5.008,2.757 3.983,3.501 1.545,1.134 1.531,0.629 0.62,0.947 3.077,2.548 0.459,0.748 5.079,4.181 2.796,1.851 5.148,2.249 3.525,2.847 1.013,1.194 4.017,2.852 1.847,2.068 6.388,5.592 2.938,3.381 3.936,2.688 4.884,5.333 4.135,3.069 2.69,3.3 3.54,3.18 5.438,6.608 2.044,1.806 0.355,0.01 2.434,3.927 1.899,1.707 5.92,7.543 2.344,4.016 3.249,4.297 2.333,4.018 1.263,1.597 9.331,15.333 1.501,3.2 1.683,2.547 0.839,0.624 0.431,0.872 1.824,1.989 3.689,8.66 1.627,1.892 0.508,3.793 0.414,1.198 0.437,0.011 -0.258,-0.202 0.077,2.092 0.406,3.402 0.903,2.259 0.383,0.296 1.102,3.227 1.42,9.454 1.726,5.17 1.777,10.243 1.171,3.204 -0.19,11.409 -1.169,6.839 -0.46,6.912 -0.093,-1.208 0.269,0.502 -0.275,0.076 0.416,-0.391 0.027,0.546 -0.114,-0.818 -0.084,0.271 0.302,0.019 -0.227,-0.228 0.185,0.239 -0.434,0.165 0.276,0.176 0.131,-0.268 -0.28,-0.084 0.248,0.019 0.033,-0.479 -0.174,0.445 0.463,0.433 2.71,1.236 2.887,0.726 7.667,-0.18 2.051,0.51 9.441,0.553 0.521,0.256 0.369,-0.234 0.835,0.265 5.371,-0.508 7.512,1.05 2.614,-0.387 0.811,0.394 0.322,-0.15 1.183,0.794 3.304,0.44 3.048,-0.094 2.563,0.454 4.343,1.668 2.546,0.458 5.861,-0.281 4.18,2.422 2.42,0.22 0.032,-0.323 -0.117,0.319 0.053,-0.228 0.58,0.636 3.689,1.894 0.386,0.547 0.67,-0.137 0.34,0.486 0.826,-0.038 0.451,0.391 4.545,0.862 0.148,-0.271 0.244,0.207 0.298,-0.198 3.363,1.638 0.966,0.918 1.594,-0.019 0.89,0.758 0.664,0.066 -0.22,0.18 0.029,-0.573 -0.059,0.33 -0.66,-0.134 -0.73,-0.989"
     id="path18" />
</g>
<g
   id="g24"
   transform="translate(-161.015,-88.174698)">
  <path
     fill="none"
     stroke="#0062cc"
     stroke-width="4"
     stroke-linecap="round"
     stroke-linejoin="round"
     d="m -419.965,603.051 -0.518,-1.965 0.051,1.247 -1.959,-0.213 -0.34,0.076 0.294,0.141 -0.841,-0.097 0.47,0.273 0.441,-0.461 0.037,0.273 1.178,-0.286 24.188,-0.709 5.57,-0.051 1.758,0.343 8.7,-0.442 9.733,0.825 9.261,-1.467 0.959,0.322 0.511,-0.168 2.147,0.92 3.068,0.349 8.159,-1.26 1.278,0.201 -0.348,0.453 -0.323,-0.063 0.309,-0.245 -0.247,-0.042 0.373,0.064 -0.386,0.41 0.638,-0.604 1.215,-0.251 0.236,-0.311 -0.496,0.25 0.791,-0.08 -0.049,0.293 -0.126,-0.189 0.579,-0.121 -0.024,0.287 0.203,-0.699 0.407,0.155 -0.091,0.251 0.227,-0.373 -0.106,4.709 -2.394,14.95 0.208,0.29 0.107,-0.221 0.321,1.381 0.346,-0.111 0.364,1.935 0.259,6.388 0.858,1.499 0.271,2.839 1.766,7.504 0.531,9.432 0.546,2.624 0.274,4.689 3.141,15.35 2.214,6.263 0.684,1.63 0.707,0.771 0.317,1.556 0.429,0.418 1.203,5.342 1.081,2.388 2.1,2.573 1.09,2.177 2.865,7.793 3.241,5.465 2.024,4.239 2.587,3.747 1.671,3.552 6.036,8.782 2.457,3.008 2.552,2.338 3.407,4.475 0.868,0.451 1.64,2.969 2.089,2.502 6.448,5.331 0.369,0.595 1.008,0.317 1.609,1.818 0.564,0.17 5.019,5.797 0.867,0.602 4.218,5.698 2.981,2.692 2.643,2.976 1.008,0.578 1.744,2.148 0.721,0.267 1.217,1.611 2.528,2.237 6.112,4.794 2.674,2.71 4.802,5.848 1.378,0.86 0.786,1.09 0.437,-0.045 1.927,1.296 2.426,1.083 4.624,5.485 1.364,2.035 2.35,2.131 6.078,2.994 1.534,1.066 0.799,-0.079 1.16,1.386 2.093,1.517 8.002,7.822 1.197,0.584 1.519,1.402 5.879,3.809 1.379,0.456 0.649,0.77 0.661,10e-4 1.866,1.099 8.627,7.096 1.764,0.421 0.77,-0.129 4.423,2.026 0.729,-0.085 1.289,0.939 0.711,-0.006 4.114,3.407 2.334,1.218 1.831,0.695 1.067,-0.073 2.048,0.855 0.727,-0.025 3.296,1.658 0.52,0.815 0.349,-0.165 1.214,0.539 4.118,2.755 10.546,3.98 1.145,0.064 2.609,1.044 1.447,0.394 0.725,-0.151 1.211,0.611 6.18,1.432 3.124,0.556 0.818,-0.122 5.013,1.379 1.841,0.193 0.571,0.645 0.782,-0.113 1.876,0.629 7.898,1.176 5.735,0.423 0.688,0.43 1.339,0.16 0.706,-0.163 1.282,0.714 0.782,-0.045 1.596,0.972 0.675,-0.09 2.5802,1.055 2.3803,0.197 3.8123,-0.414 2.0827,0.165 2.0328,0.582 1.1102,0.845 1.0528,0.183 0.3703,0.772 4.703,0.232 1.8443,-0.084 0.6485,-0.414 2.7671,0.765 4.4562,0.498 1.9886,0.088 0.5628,-0.374 1.3299,0.411 0.6337,-0.414 1.8642,1.001 0.9753,-0.238 -0.151,0.621 0.1938,-0.85 1.7782,1.307 2.5962,1.097 1.768,0.029 0.4046,-0.405 0.5796,0.422 0.2388,-0.339 0.4872,0.821 2.0036,1.322 0.2843,0.715 0.3213,-0.535 -0.0458,0.281 0.9161,0.117 0.4297,0.766 0.9547,0.118 0.3698,0.466 0.7832,-0.038 0.3338,-0.386 0.6088,0.386 0.3395,-0.39 0.31,0.64 1.2865,0.855 2.273,0.529 0.8944,0.672 1.9958,0.551 1.0662,0.734 0.1709,0.706 0.244,-0.265 1.6776,0.267 1.3579,0.78 -0.1705,-0.758 -0.1318,0.848 -2.6721,-4.495"
     id="path22" />
</g>
<g
   id="g28"
   transform="translate(-161.015,-88.174698)">
  <path
     fill="none"
     stroke="#0062cc"
     stroke-width="4"
     stroke-linecap="round"
     stroke-linejoin="round"
     d="m 289.086,608.957 -0.744,-1.513 -1.168,0.16 0.343,-0.453 0.159,0.884 0.268,-0.243 10.326,1.153 1.406,-0.12 3.147,0.575 3.575,1.231 11.92,1.685 8.461,2.846 3.231,0.362 1.584,0.518 3.045,0.034 8.74,1.004 2.285,0.488 5.05,2.175 4.168,0.876 0.646,-0.153 4.191,1.573 9.973,2.47 2.641,1.035 2.543,0.232 0.349,0.369 -0.876,0.011 0.029,-0.433 0.107,0.42 0.34,-0.354 -0.164,0.403 5.144,1.031 0.292,0.183 -0.085,0.388 -0.296,-0.168 0.274,-0.373 0.062,0.693 -0.016,-0.291 2.777,1.363 0.226,0.232 -0.222,0.005 -0.748,-0.787 2.032,0.773"
     id="path26" />
</g>
<g
   id="g32"
   transform="translate(-161.015,-88.174698)">
  <path
     fill="none"
     stroke="#0062cc"
     stroke-width="4"
     stroke-linecap="round"
     stroke-linejoin="round"
     d="m 288.235,610.992 -0.284,-0.239 0.082,-0.638 0.179,0.865 0.373,-0.013 -0.124,0.538 1.401,5.862 -0.721,8.483 -2.47,9.213 -0.671,4.724 -1.126,3.991 -0.881,4.974 -1.423,3.726 -2.382,4.405 -3.51,5.138 -4.503,5.226 -3.596,6.627 -0.259,0.192 0.309,-0.537 -0.711,0.789 -1.877,3.012 -3.524,4.229 -3.516,7.03 -8.293,11.863 -1.64,3.522 -2.209,3.641 -5.622,7.233 -1.915,3.468 -2.611,2.505 -5.483,6.877 -5.02,5.354 -4.471,6.877 -3.568,4.657 -1.377,2.658 -4.259,4.228 -2.047,2.883 -0.283,-0.067 -1.123,2.281 -1.702,2.13 -0.766,1.561 -0.286,0.15 0.286,-0.652 -3.107,4.352 -4.558,3.591 -2.705,3.296 -3.748,3.245 -7.789,10.404 -3.896,3.484 -2.632,1.602 -1.966,2.85 -3.55,3.848 -5.448,3.683 -4.187,3.804 -2.951,2.27 -1.89,0.98 -8.069,6.298 -2.916,2.388 -1.336,1.787 -2.019,1.635 -5.795,4.049 -1.137,0.376 -7.409,4.97 -11.345,6.17 -11.906,7.285 -4.007,2.121 -2.5051,0.901 -1.0002,0.774 -2.5539,0.35 -3.0352,1.138 -12.0278,6.974 -8.0427,1.981 -10.2812,4.496 -0.6514,-0.102 -1.5852,0.883 -0.5835,-0.052 -2.5432,1.403 -0.5271,-0.168 -0.6112,0.304 0.0898,-0.272 -0.0118,0.323 -0.0323,-0.489 0.0154,0.204 -5.0705,0.941 0.909,-0.203 -0.6748,-0.144 -2.7524,0.947 0.4427,-0.403 -5.0243,1.878 -1.6404,0.109 -1.1312,0.468 -0.6008,-0.129 -3.5995,1.178 -9.8418,2.121 -8.8698,2.863 -5.3734,1.238 -1.3507,0.572 -1.88538,0.152 -0.9657,0.518 -2.49652,-0.49 -4.35938,-0.003 -8.72595,0.818 -0.62323,-0.411 -1.29547,0.282 -1.61507,-0.083 -0.9216,-0.395 -0.3922,0.268 -1.0661,-0.309 -2.2625,0.031 -13.1239,1.718 -1.3816,0.446 -1.5641,-0.005 -0.3162,0.351 -1.8785,0.568 -1.5374,0.165 -1.8098,-0.232 -4.8227,-1.481 -1.8366,0.111 -0.418,-0.258 -0.4654,0.287 -0.0983,-0.219 -1.3225,0.708 -0.0908,-0.291 -1.3182,-0.567 -1.4148,-0.231 -2.69,0.481 -2.3396,1.1 -2.9754,2.186"
     id="path30" />
</g>
<g
   id="g36"
   transform="translate(-161.015,-88.174698)">
  <path
     fill="none"
     stroke="#0062cc"
     stroke-width="4"
     stroke-linecap="round"
     stroke-linejoin="round"
     d="m -420.094,653.642 -0.064,0.259 0.443,-0.146 -0.504,1.94 2.853,-1.659 21.114,-17.936 12.329,-9.875 11.324,-8.621 12.645,-8.426 1.711,-1.443 -0.493,-0.152 -0.414,0.597 -0.658,0.129 0.433,0.449"
     id="path34" />
</g>
<g
   id="g40"
   transform="translate(-161.015,-88.174698)">
  <path
     fill="none"
     stroke="#0062cc"
     stroke-width="4"
     stroke-linecap="round"
     stroke-linejoin="round"
     d="m -408.791,700.784 -0.215,0.503 -0.528,0.16 -0.546,1.257 0.201,0.313 1.063,-0.805 1.121,-1.609 2.271,-2.167 26.837,-23.444 28.394,-23.116 7.334,-4.778 0.702,-1.078 -0.733,-0.241 -1.37,0.767 -0.548,-0.062 -1.803,0.764 -0.401,0.51"
     id="path38" />
</g>
<g
   id="g44"
   transform="translate(-161.015,-88.174698)">
  <path
     fill="none"
     stroke="#0062cc"
     stroke-width="4"
     stroke-linecap="round"
     stroke-linejoin="round"
     d="m -372.654,755.048 -0.404,-0.04 -1.006,2.633 0.248,0.5 0.742,0.28 0.195,-0.805 1.201,-0.97 3.317,-3.97 3.252,-3.301 5.56,-6.538 13.153,-17.283 8.996,-9.504 8.944,-6.702 0.216,-0.48 -0.639,0.26 -2.557,1.664"
     id="path42" />
</g>
<g
   id="g48"
   transform="translate(-161.015,-88.174698)">
  <path
     fill="none"
     stroke="#0062cc"
     stroke-width="4"
     stroke-linecap="round"
     stroke-linejoin="round"
     d="m -339.977,805.896 -3.145,2.807 2.318,-1.363 12.779,-16.012 10.766,-11.969 10.257,-12.74 4.779,-6.908 0.96,-2.333 0.133,-2.622 1.387,-0.354"
     id="path46" />
</g>
<g
   id="g52"
   transform="translate(-161.015,-88.174698)">
  <path
     fill="none"
     stroke="#0062cc"
     stroke-width="4"
     stroke-linecap="round"
     stroke-linejoin="round"
     d="m -294.404,852.967 -0.483,-1.009 0.342,0.401 0.086,-0.273 0.061,0.624 -1.213,1.105 -0.579,2.391 -0.16,-0.136 0.889,-0.873 4.577,-7.423 7.483,-8.441 4.423,-5.483 12.156,-16.463 11.617,-16.869 9.356,-11.474 -1.254,0.937 -0.913,2.632"
     id="path50" />
</g>
<g
   id="g56"
   transform="translate(-161.015,-88.174698)">
  <path
     fill="none"
     stroke="#0062cc"
     stroke-width="4"
     stroke-linecap="round"
     stroke-linejoin="round"
     d="m -236.203,889.796 0.029,1.285 -0.561,0.484 -2.291,5.002 -1.238,1.694 1.342,-1.141 1.055,-2.497 3.196,-5.39 11.451,-15.346 6.326,-10.066 8.48,-11.994 5.974,-7.257 6.206,-5.6 1.968,-2.147 -0.044,-0.377 -0.484,0.453"
     id="path54" />
</g>
<g
   id="g60"
   transform="translate(-161.015,-88.174698)">
  <path
     fill="none"
     stroke="#0062cc"
     stroke-width="4"
     stroke-linecap="round"
     stroke-linejoin="round"
     d="m -174.843,915.063 -1.954,2.232 -0.882,1.441 0.076,0.373 -0.273,0.026 -0.571,2.294 -0.38,0.483 1.391,-1.218 7.677,-8.395 14.099,-17.363 6.91,-7.225 5.242,-4.969 10.692,-8.763 3.921,-3.819 3.866,-4.526 3.193,-2.136"
     id="path58" />
</g>
<g
   id="g64"
   transform="translate(-161.015,-88.174698)">
  <path
     fill="none"
     stroke="#0062cc"
     stroke-width="4"
     stroke-linecap="round"
     stroke-linejoin="round"
     d="m -110.494,937.92 0.806,-0.077 0.041,0.421 -0.454,0.404 -0.139,-0.292 -0.764,1.909 -1.553,2.202 0.461,-0.378 10.485,-14.151 8.5191,-10.297 17.7516,-20.394 10.52,-10.944 2.8987,-5.172 3.4587,-3.511 3.6984,-3.036 0.8453,-0.088"
     id="path62" />
</g>
<g
   id="g68"
   transform="translate(-161.015,-88.174698)">
  <path
     fill="none"
     stroke="#0062cc"
     stroke-width="4"
     stroke-linecap="round"
     stroke-linejoin="round"
     d="m 24.1957,875.111 0.2283,-1.316 -0.1263,-0.347 -0.0436,0.4 -0.347,-0.086 -3.7732,5.748 -6.7681,11.731 -11.72121,21.786 -4.55969,7.495 -5.58411,7.423 -2.42399,4.073 -0.8894,2.617 0.1066,0.813 0.3294,0.097 0.7772,-0.594 1.98575,-2.92"
     id="path66" />
</g>
<g
   id="g72"
   transform="translate(-161.015,-88.174698)">
  <path
     fill="none"
     stroke="#0062cc"
     stroke-width="4"
     stroke-linecap="round"
     stroke-linejoin="round"
     d="m -11.5141,932.312 -0.4451,-1.045 0.0503,-1.303 0.1408,0.893 -1.9818,3.279 -5.132,6.549 -3.6545,6.249 -1.5688,3.402 -0.8454,2.956"
     id="path70" />
</g>
<g
   id="g76"
   transform="translate(-161.015,-88.174698)">
  <path
     fill="none"
     stroke="#0062cc"
     stroke-width="4"
     stroke-linecap="round"
     stroke-linejoin="round"
     d="m 86.299,856.94 3.3067,-5.236 -4.1219,6.427 -14.0558,30.855 -15.3556,29.9 -2.1061,2.407 -1.697,1.105 0.4832,-0.2 0.2428,-0.571 0.0652,1.482"
     id="path74" />
</g>
<g
   id="g80"
   transform="translate(-161.015,-88.174698)">
  <path
     fill="none"
     stroke="#0062cc"
     stroke-width="4"
     stroke-linecap="round"
     stroke-linejoin="round"
     d="m 56.018,915.688 -1.399,0.398 -0.5735,0.95 -0.2498,1.79 -0.7016,1.47 -2.3089,3.143 -3.7727,4.302 -1.8577,3.042 -0.9108,2.122 0.1943,3.159 -0.291,0.707 -1.0554,0.882"
     id="path78" />
</g>
<g
   id="g84"
   transform="translate(-161.015,-88.174698)">
  <path
     fill="none"
     stroke="#0062cc"
     stroke-width="4"
     stroke-linecap="round"
     stroke-linejoin="round"
     d="m 150.347,824.703 0.191,-5.031 0.891,-3.768 0.163,-2.119 0.742,4.817 0.172,4.793 -0.44,6.466 -2.231,12.154 -4.714,14.069 -9.32,22.01 -5,13.133 -1.293,3.912 -0.774,3.628 -1.246,2.308 0.295,0.176 -0.559,2.518 -1.248,3.118 -0.288,-0.493 0.216,-0.541 0.326,0.063"
     id="path82" />
</g>
<g
   id="g88"
   transform="translate(-161.015,-88.174698)">
  <path
     fill="none"
     stroke="#0062cc"
     stroke-width="4"
     stroke-linecap="round"
     stroke-linejoin="round"
     d="m 210.962,763.099 -0.125,-2.759 -0.446,-0.44 -0.145,0.194 0.239,0.872 -1.655,28.943 -2.439,16.871 -3.517,15.272 -5.031,15.701 -3.696,12.806 -2.574,11.824 -0.598,1.796 0.047,-1.083 0.162,3.417 -0.431,2.271 -0.658,1.313"
     id="path86" />
</g>
<g
   id="g92"
   transform="translate(-161.015,-88.174698)">
  <path
     fill="none"
     stroke="#0062cc"
     stroke-width="4"
     stroke-linecap="round"
     stroke-linejoin="round"
     d="m 252.628,711.385 0.654,-1.027 0.621,-0.067 -0.179,0.773 0.49,1.28 0.813,4.733 1.107,13.162 0.062,15.868 -0.925,19.084 -1.364,14.689 -1.534,9.649 -3.011,14.223 -1.069,7.291 -0.301,8.845 0.147,5.988 0.231,-1.209 1.559,-1.789"
     id="path90" />
</g>
<g
   id="g96"
   transform="translate(-161.015,-88.174698)">
  <path
     fill="none"
     stroke="#0062cc"
     stroke-width="4"
     stroke-linecap="round"
     stroke-linejoin="round"
     d="m 286.726,658.285 -0.629,-0.032 -0.772,0.707 0.661,0.15 -0.311,2.809 0.482,3.798 2.501,9.894 4.606,14.714 3.258,12.293 2.76,16.739 0.739,8.063 -0.133,11.75 -2.557,20.21 -1.345,28.996 -1.027,5.264 -0.457,0.77 0.083,-0.868 0.063,0.509 -0.38,-0.077 -0.24,-0.675"
     id="path94" />
</g>
<g
   id="g100"
   transform="translate(-161.015,-88.174698)">
  <path
     fill="none"
     stroke="#0062cc"
     stroke-width="4"
     stroke-linecap="round"
     stroke-linejoin="round"
     d="m 248.158,820.155 -0.644,-0.204 0.437,-0.213 0.651,1.932 0.396,4.817 -0.487,5.119 -1.327,5.749 -4.462,10.389 -0.091,0.793 0.353,0.021 0.237,-1.813"
     id="path98" />
</g>
<g
   id="g104"
   transform="translate(-161.015,-88.174698)">
  <path
     fill="none"
     stroke="#0062cc"
     stroke-width="4"
     stroke-linecap="round"
     stroke-linejoin="round"
     d="m 186.773,863.517 -0.545,-0.741 0.424,2.482 -0.337,4.977 -1.578,6.356 -1.125,3.167 -3.115,6.277"
     id="path102" />
</g>
<g
   id="g108"
   transform="translate(-161.015,-88.174698)">
  <path
     fill="none"
     stroke="#0062cc"
     stroke-width="4"
     stroke-linecap="round"
     stroke-linejoin="round"
     d="m 322.571,622.564 0.174,-2.877 -0.396,-0.348 0.156,-2.205 -0.45,-0.293 -0.229,0.518 0.255,0.196 1.529,9.851 5.743,16.837 7.562,36.5 2.765,9.962 0.707,1.755 0.931,1.123 1.069,7.581 0.15,-0.762 4.636,11.426 1.447,2.912 0.027,-0.699 2.477,4.877 3.589,9.57 0.068,-0.841 -0.429,-0.863 -0.009,-3.508"
     id="path106" />
</g>
<g
   id="g112"
   transform="translate(-161.015,-88.174698)">
  <path
     fill="none"
     stroke="#d90707"
     stroke-width="4"
     stroke-linecap="round"
     stroke-linejoin="round"
     d="m -410.948,491.147 -1.193,0.284 -2.644,1.694 -0.899,1.063 0.526,-0.252 -0.238,0.282 0.305,0.188 1.551,-0.653 3.067,-0.309 7.659,-1.914 8.795,-2.931 9.549,-3.641 23.736,-9.967 12.51,-6.233 6.156,-1.662 0.959,0.212 -0.231,0.452 1.809,-1.229 1.54,-0.401"
     id="path110" />
</g>
<g
   id="g116"
   transform="translate(-161.015,-88.174698)">
  <path
     fill="none"
     stroke="#d90707"
     stroke-width="4"
     stroke-linecap="round"
     stroke-linejoin="round"
     d="m -404.199,453.471 -3.178,0.018 0.988,0.089 17.397,-7.413 23.457,-9.089 19.386,-7.125 12.547,-4.097 6.312,-2.487 6.779,-3.284 4.713,-3.019 2.596,-2.547 0.242,-0.496 -0.209,-0.231 -1.976,0.884 -1.1,1.025 -1.019,0.181 0.14,-0.33 -2.619,1.438"
     id="path114" />
</g>
<g
   id="g120"
   transform="translate(-161.015,-88.174698)">
  <path
     fill="none"
     stroke="#d90707"
     stroke-width="4"
     stroke-linecap="round"
     stroke-linejoin="round"
     d="m -380.785,386.96 -0.276,0.994 -1.812,1.134 -3.063,0.944 0.957,-0.473 7.059,-0.68 14.487,-2.366 19.509,-4.661 19.569,-4.175 16.871,-2.77 9.425,-2.604 3.946,-1.643"
     id="path118" />
</g>
<g
   id="g124"
   transform="translate(-161.015,-88.174698)">
  <path
     fill="none"
     stroke="#d90707"
     stroke-width="4"
     stroke-linecap="round"
     stroke-linejoin="round"
     d="m -348.183,319.061 -2.062,-1.905 -1.675,-0.797 0.264,-0.36 0.677,0.024 3.206,-1.611 7.098,-1.102 16.357,-0.627 21.657,0.03 17.567,0.815 10.567,1.11 12.155,2.174 9.705,1.354 2.251,0.488 3.971,1.766 1.479,0.145 0.369,-0.338"
     id="path122" />
</g>
<g
   id="g128"
   transform="translate(-161.015,-88.174698)">
  <path
     fill="none"
     stroke="#d90707"
     stroke-width="4"
     stroke-linecap="round"
     stroke-linejoin="round"
     d="m -285.34,253.743 -3.314,0.746 0.693,-0.148 7.659,1.914 24.813,3.351 17.534,3.323 14.429,4.164 22.564,7.541 9.553,1.902 7.42,0.286 0.384,0.625 2.113,1.066"
     id="path126" />
</g>
<g
   id="g132"
   transform="translate(-161.015,-88.174698)">
  <path
     fill="none"
     stroke="#d90707"
     stroke-width="4"
     stroke-linecap="round"
     stroke-linejoin="round"
     d="m -189.092,215.02 -2.416,-3.088 -0.218,0.099 0.334,0.48 0.451,-0.127 4.117,2.577 33.383,15.104 16.467,8.483 7.668,4.888 11.34,8.486 11.539,8.061 7.0313,5.653 2.3395,1.585 0.4362,-0.279 -0.4436,-0.36 0.1055,-0.384 2.6905,0.355 1.4874,2.068"
     id="path130" />
</g>
<g
   id="g136"
   transform="translate(-161.015,-88.174698)">
  <path
     fill="none"
     stroke="#d90707"
     stroke-width="4"
     stroke-linecap="round"
     stroke-linejoin="round"
     d="m -75.882,197.933 -3.2291,-3.9 -0.7438,-1.398 0.8887,1.025 0.9002,2.1 2.6514,4.306 14.1401,18.216 19.9109,24.81 2.1494,3.066 2.7212,5.823 0.5051,2.321 -0.0102,1.214 -0.4204,1.076 1.4043,2.736 1.0943,3.296"
     id="path134" />
</g>
<g
   id="g140"
   transform="translate(-161.015,-88.174698)">
  <path
     fill="none"
     stroke="#d90707"
     stroke-width="4"
     stroke-linecap="round"
     stroke-linejoin="round"
     d="m 22.9517,260.171 -2.8918,2.587 -2.9336,4.706 -2.1262,2.076 0.8993,-0.236 5.8343,-4.701 6.6049,-4.76 15.6912,-10.548 11.4754,-8.398 5.6019,-3.73 5.1975,-3.07 8.1434,-3.647 6.3909,-4.136 0.5855,-0.132 -0.3856,0.41 0.8538,-0.617 4.184,-1.522 0.3939,0.024 -0.5591,0.366 -0.6885,0.211 -0.1521,-0.203 0.7119,-0.336 4.3345,-4.623 1.4824,-1.186 -1.3257,2.201"
     id="path138" />
</g>
<g
   id="g144"
   transform="translate(-161.015,-88.174698)">
  <path
     fill="none"
     stroke="#d90707"
     stroke-width="4"
     stroke-linecap="round"
     stroke-linejoin="round"
     d="m 79.6861,276.908 -0.3488,0.628 0.1818,0.231 0.5609,-0.189 2.6417,0.375 4.0294,-0.359 3.7059,-0.731 15.777,-4.295 26.413,-6.087 10.996,-1.961 6.992,-0.723 15.819,-2.9 7.543,-0.976 2.977,0.247 0.177,0.176 -0.664,0.275 -0.638,0.056 -0.022,-0.246 0.301,0.017 -0.801,0.685 -2.917,1.967"
     id="path142" />
</g>
<g
   id="g148"
   transform="translate(-161.015,-88.174698)">
  <path
     fill="none"
     stroke="#d90707"
     stroke-width="4"
     stroke-linecap="round"
     stroke-linejoin="round"
     d="m 154.56,315.705 -5.675,1.822 -1.964,0.148 -0.411,-0.273 -0.053,0.26 6.699,-2.682 10.645,-2.414 35.962,-5.181 11.385,-0.949 5.653,0.104 2.839,-0.458 0.663,-0.265 -0.677,-0.118 0.145,-0.182 5.029,-0.979 5.813,-2.122 0.959,0.07 0.366,0.624"
     id="path146" />
</g>
<g
   id="g152"
   transform="translate(-161.015,-88.174698)">
  <path
     fill="none"
     stroke="#d90707"
     stroke-width="4"
     stroke-linecap="round"
     stroke-linejoin="round"
     d="m 220.193,359.186 1.353,0.03 0.171,0.254 -5.344,3 -1.448,1.429 -0.854,1.403 0.49,-0.353 -0.057,0.216 0.833,-0.134 8.044,-2.263 12.909,-2.923 14.279,-2.855 12.557,-1.762 6.604,-0.327 3.701,0.145 9.433,1.26 0.583,-0.164 -0.439,-0.394 2.773,0.458 2.666,-0.084 3.822,-0.66 0.39,0.341 -0.755,0.99"
     id="path150" />
</g>
<g
   id="g156"
   transform="translate(-161.015,-88.174698)">
  <path
     fill="none"
     stroke="#d90707"
     stroke-width="4"
     stroke-linecap="round"
     stroke-linejoin="round"
     d="m 268.378,419.363 -0.706,-0.08 0.607,0.503 16.516,-1.271 26.559,-2.815 10.861,0.069 4.319,0.87 1.969,0.564 0.395,0.315 -0.269,0.033 -0.613,-0.447 11.083,-0.891 5.655,0.365 1.88,0.308 0.397,0.263 -0.437,0.21"
     id="path154" />
</g>
<g
   id="g160"
   transform="translate(-161.015,-88.174698)">
  <path
     fill="none"
     stroke="#d90707"
     stroke-width="4"
     stroke-linecap="round"
     stroke-linejoin="round"
     d="m 288.513,478.022 -1.355,0.508 0.79,0.329 7.7,-0.03 43.809,-2.611 8.353,0.242 12.434,0.942 1.615,0.205 2.626,1.595 1.071,0.22"
     id="path158" />
</g>
<g
   id="g164"
   transform="translate(-161.015,-88.174698)">
  <path
     fill="#000000"
     d="m 243.204,96.3061 v 0 l -4.513,2.5318 -4.833,8.0951 -2.64,-9.1909 -0.721,-0.5393 -1.349,1.2709 -0.134,3.0193 1.792,15.803 0.671,0.545 h 1.047 l 0.704,-0.594 2.252,-6.187 5.235,-9.25 1.759,-1.661 h 3.052 l 1.759,1.661 1.577,2.636 0.123,1.06 -0.118,4.055 -2.729,6.885 0.019,4.082 1.841,0.409 3.714,-8.122 6.003,-8.005 1.785,-1.609 1.785,1.609 1.577,2.636 0.123,1.06 -0.118,7.055 -2.688,6.918 1.321,-0.278 1,0.598 0.475,-0.299 1.274,-1.275 1.737,-4.731 -0.124,-11.048 -1.577,-2.636 -2.759,-2.661 -3.08,-0.011 -2.612,1.554 -3.086,4.007 -3.46,-6.8833 -0.823,-0.8448 -3.905,-1.8311 M 207.478,688.022 v 0 l 3.712,-2.737 6.095,-6.095 10.43,-15.38 4.573,-4.626 7.425,-15.37 2.002,-3.004 2.516,-2.564 1.759,-4.735 4.876,-9.953 0.236,-2.691 2.695,-2.372 -2.297,0.474 -1.972,-0.819 -1.707,-0.026 -3.294,8.797 -5.234,10.256 -1.578,1.633 -3.231,5.258 -6.196,13.116 -5.573,5.626 -6.43,10.38 -12.095,12.095 -2.662,1.692 -3.338,3.308 -4,3 -5.38,3.43 -9.62,9.57 -4,3 -13.38,8.43 -1.626,1.574 -4.369,2.424 -15.005,10.002 -4.625,3.572 -9.999,6 -22.372,12.426 -14.6285,9.574 -18.1503,9.207 -27.0704,15.012 -11.7104,5.812 -14.9985,6.008 -35.7247,11.46 -4.7588,1.967 -9.805,5.756 -5.8625,2.428 -3.0033,-16.389 -0.9283,-1.421 -1.1208,-0.081 -1.8359,6.281 1.7658,2.13 0.0015,7.039 -0.4801,1.303 -0.5059,-0.744 -10.3806,-2.829 -9.0797,-3.492 -5.9755,-1.598 -2.1027,0.702 -8.3288,-1.718 -5.9227,-2.451 -5.7687,-1.729 -16.4982,-2.53 -11.52,-4.637 -22.712,-5.401 -5.651,-1.854 -13.244,-7.231 -9.628,-7.574 -20.37,-11.425 -4.101,-4.098 -5.43,-7.38 -3.57,-3.62 -1.408,-2.356 -4.491,-2.546 -2.626,-2.573 -2.38,-1.43 -2.095,-2.095 -1.509,-2.459 -4.67,-1.7 -1.352,-1.32 -12.657,-6.689 -2.812,-2.832 -2.217,-3.192 -10.026,-10.021 -2.662,-1.692 -2.095,-2.095 -6.43,-9.38 -7.57,-8.62 -3.231,-5.259 -3.192,-7.109 -3.539,-5.595 -7.256,-19.262 -2.643,-8.126 -2.706,-16.801 -1.015,-3.477 0.015,-4.087 0.837,-1.978 0.014,-4.996 -0.147,-2.026 -0.837,-1.978 0.093,-6.64 4.937,-2.738 6.663,15.06 9.007,14.012 1.758,1.652 h 1.054 l 1.324,-1.316 0.119,-1.024 -1.685,-3.692 -1.57,-1.62 -5.002,-8.005 -4.039,-7.959 -2.54,-6.668 -0.119,-3.055 0.827,-3.031 -1.316,-1.323 -2.08,-0.011 -7.891,5.718 -2.028,-0.699 -1.541,0.372 -1.736,3.696 -4.265,4.275 -1.119,0.574 -1.843,2.399 -8.046,8.055 -2.479,3.474 -2.308,2.283 -2.667,1.707 -0.507,1.511 0.456,2.339 2.51,-0.34 4.303,-4.312 1.692,-2.662 8.308,-8.338 1.691,-2.661 5.24,-4.221 1.754,7.195 -0.955,3 -10e-4,10.991 0.918,2.539 2.771,16.35 4.97,14.872 5.08,12.972 3.494,5.546 5.465,11.411 3.003,4.006 4.57,4.62 1.692,2.662 2.308,2.338 3.43,5.38 6.095,6.095 2.662,1.692 4.026,4.021 2.217,3.192 6.813,6.832 12.656,6.69 16.006,12.003 3.944,3.359 4.581,6.116 2.57,2.62 1.43,2.38 4.095,4.095 8.004,5.002 12.372,6.426 3.004,2.002 3.62,3.57 4.006,3.003 14.212,7.218 4.235,1.661 20.474,4.646 5.495,1.865 7.455,3.574 3.001,0.809 17.9071,2.739 9.0312,3.483 18.468,3.319 7.3499,3.259 1.6895,0.239 1.7115,2.215 6.5734,2.545 1.552,1.592 -0.104,1.11 -2.1078,7.631 -1.744,9.314 0.1327,2.019 0.6516,0.974 -0.6417,0.971 -0.0177,1.088 1.8141,3.36 1.5712,-0.071 0.6682,-0.552 2.2802,-19.029 1.6322,-7.41 1.9504,-1.339 8.1351,-3.197 9.5846,-5.57 3.2696,-1.249 13.49144,-4.725 18.92096,-5.561 17.7967,-6.898 15.7102,-7.812 27.0704,-15.012 16.1505,-8.207 9.9985,-5.998 4.63,-3.576 32.371,-18.426 6.005,-4.002 1.62,-1.57 19.38,-12.43 1.62,-1.57 13.38,-8.43 7.62,-7.57 2.662,-1.692 3.338,-3.308 5.38,-3.43 m 5.973,-197.835 v 0 l -0.016,2.072 1.102,1.254 4.245,9.189 6.221,9.225 8.095,7.095 5.636,3.577 4.08,-0.011 1.29,-1.14 6.368,-3.423 8.006,-6.003 6.626,-6.574 4.366,-2.425 0.639,-0.816 -1.689,-2.366 -1.688,0.035 -2.634,1.576 -3.62,3.57 -2.662,1.692 -3.338,3.308 -4,3 -8.636,5.577 -2.113,0.003 -3.666,-1.616 -3.585,-3.534 -2.38,-1.43 -4.095,-4.095 -4.002,-6.005 -6.428,-12.368 -0.787,-0.615 m 13.378,-62.707 v 0 l -5.591,-8.685 -1.574,-1.626 -4.426,-7.374 -2.57,-2.62 -1.43,-2.38 -9.57,-9.62 -5.43,-7.38 -2.57,-2.62 -8.426,-13.374 -3.79,-3.831 -0.573,-1.119 -9.742,-8.154 -6.37,-3.425 -11.004,-8.002 -5.62,-5.57 -5.38,-3.43 -3.62,-3.57 -6.005,-4.002 -9.966,-6.026 -17.9911,-8.012 -21.319,-6.184 -8.0266,-1.588 -24.4855,-2.616 -17.5077,-4.231 -30.88019,-2.17 0.12351,-5.447 2.83813,-9.94 -0.2876,-1.304 -2.17056,-2.06 -0.76349,0.647 -1.09802,2.99 -3.67716,16.152 -14.05422,2.378 -19.7176,2.407 -19.3748,4.543 -15.4854,2.543 -27.0737,7.575 -24.774,5.364 -28.764,7.903 -23.661,8.847 -9.255,5.229 -12.004,8.002 -15.833,12.813 -1.954,2.944 -14.308,14.338 -3.43,5.38 -7.572,9.625 -7.425,13.369 -6.575,8.631 -10.034,16.994 -4.36,11.444 -6,14 -3.568,6.523 -2.425,6.45 -8.644,15.519 -4.837,13.219 -7.597,-23.185 -0.751,-0.577 -1.348,1.272 -0.015,3.084 4.152,13.017 2.645,14.442 1.559,3.923 1.986,2.911 3.078,0.011 25.923,-15.855 0.507,-1.511 -0.141,-2.024 -2.397,-0.334 -9.26,6.149 -8.372,4.426 -6.259,4.143 -2.055,-0.857 -1.342,-1.472 0.008,-1.054 0.991,-0.56 1.113,-1.693 6.418,-16.441 7.633,-12.588 2.353,-6.418 5.645,-11.52 8.355,-20.479 2.82,-5.739 9.217,-15.219 6.576,-8.631 5.425,-10.369 6.003,-8.006 2.574,-2.626 2.422,-4.368 14.312,-14.344 1.692,-2.662 2.095,-2.095 2.662,-1.692 2.338,-2.308 9,-7 12.004,-8.002 11.932,-6.031 8.289,-3.185 11.697,-3.861 29.336,-8.142 20.435,-4.218 30.6401,-8.433 15.6091,-2.612 13.7962,-3.564 24.9576,-3.333 5.9319,-1.203 5.0583,-0.115 1.34633,0.456 -1.51813,13.386 -2.1883,11.579 0.1819,1.368 1.5511,2.06 1.42604,-0.695 2.01413,-5.792 2.47015,-17.335 1.27505,-6.004 8.4386,-0.025 25.52333,2.051 12.3879,3.209 28.9231,3.376 23.1167,6.145 11.7769,4.893 9.957,5.02 13.012,8.007 3.62,3.57 6.38,4.43 4.62,4.57 2.662,1.692 2.338,2.308 4.006,3.003 6.369,3.425 7.005,5.002 3.943,3.359 4.152,4.736 6.426,10.374 6.004,8.006 2.57,2.62 1.43,2.38 9.57,9.62 1.692,2.662 2.308,2.338 7.43,11.38 1.573,1.626 7.425,13.37 2.574,3.628 2.923,5.763 4.676,16.714 2.659,39.63 1.304,3.583 -2.705,6.941 0.328,1.397 2.054,0.009 1.767,-1.674 2.678,-6.677 -1.868,-8.105 -2.205,-36.607 -5.564,-18.987 -2.046,-3.985 -1.577,-1.632 -2.998,-4.999 M 196.173,99.4471 v 0 l -0.152,1.4639 16.437,1.931 1.384,-1.315 -0.34,-1.507 -0.976,-0.8714 -1.03,-0.1334 -13.992,4e-4 M 152.521,1010.98 v 0 l -1.337,1.31 -8.368,4.42 -0.657,0.76 -0.001,1.06 1.37,1.29 8.656,-4.53 1.05,-0.99 2.3,6.65 1.946,2.92 1.371,-1.34 0.134,-2.02 -2.053,-10.31 -1.389,-1.17 -1.071,0.12 M 222.55,502.162 v 0 l -4.25,0.095 5.168,1.577 0.032,-0.808 m -0.05,110.804 v 0 l 5.076,0.318 1.979,1.652 0.58,-2.857 2.705,-1.255 16.647,-3.558 3.704,-0.023 1.989,3.306 1.856,7.093 -10e-4,13.99 -0.97,3.007 0.12,5.055 1.615,3.141 1.174,-0.693 2.062,-9.513 v -16.987 l -1.628,-5.783 -2.435,-5.855 -2.437,-1.715 -20.42,4.342 -7.293,2.172 -4.692,2.286 M 196.046,107.482 v 0 l -0.847,1.012 0.638,0.806 7.601,2.569 h 3.123 l 6.475,-2.042 -4.474,-1.691 -3.066,0.848 -2.022,-0.132 -0.947,-0.695 -3.082,0.699 -2.921,-1.681 m 81.516,4.302 v 0 l -2.892,2.997 -0.01,3.08 1.577,2.636 4.085,4.315 -1.304,0.478 -2.05,-0.121 -2.613,-1.555 -1.702,-2.171 -0.972,0.339 -0.01,2.051 1.674,1.767 1.951,1.021 3.665,1.546 h 1.121 l 5.617,-2.567 2.674,-2.767 v -6.052 l -2.566,-3.664 -1.759,-1.661 -5.022,-0.134 m 0.946,3.147 v 0 l 3.074,-0.013 2.338,3.297 0.036,3.687 -3.425,2.748 -3.325,-5.355 v -3.052 M -7.95184,266.48 v 0 l -0.8497,1.02 0.29824,0.298 1.30158,-1.301 M -26.1323,624.135 v 0 l 0.262,-1.688 2.5783,-5.625 8.5787,-13.636 6.04643,-11.985 3.53104,-12.639 -0.36167,-1.542 -1.01089,-0.884 -1.95151,1.854 -3.3009,5.323 1.6344,2.221 -5.3677,11.431 -9.7928,15.849 -4.5754,8.632 0.0108,3.08 0.8755,0.972 0.7744,0.172 m 5.738,-96.654 v 0 l -2.3788,0.457 -0.0087,2.053 1.6114,1.709 17.74623,3.751 4.01984,-0.135 1.324521,-1.325 3.1e-5,-2.052 -1.323522,-1.316 -3.09008,0.707 m 10.57791,62.598 v 0 l 0.12243,7.091 1.57743,2.636 2.74251,1.937 5.2353,1.65 -4.9794,7.037 -2.03229,3.926 -1.65063,4.762 0.44156,1.34 1.02817,0.126 1.74699,-0.744 2.4607,-5.402 7.3911,-11.003 7.3619,-2.654 1.0446,0.635 0.3245,-0.275 -0.5858,-1.756 -4.1249,-2.242 5.732,-9.001 0.1333,-4.023 -0.4821,-1.483 -1.0026,-0.819 -1.7317,1.553 -1.7584,4.735 -3.7232,6.696 -2.0018,3.005 -1.7587,1.661 -3.0523,10e-4 -0.9456,-0.703 -1.6613,-0.249 -1.7288,-2.346 -0.004,-6.113 1.619,-3.669 2.958,-4.956 8.1402,-8.29 0.1324,-3.023 -0.5055,-1.326 -2.6684,1.538 -8.0949,8.095 -3.23163,5.259 M 19.5519,516.971 v 0 l -0.5365,1.526 0.1222,5.057 1.5775,2.636 5.5698,5.62 2.9998,4 1.5772,2.636 -0.0109,2.08 -2.8692,2.976 -1.4854,0.483 -6.057,-0.117 -7.8803,-2.729 -1.0885,0.019 -1.3216,1.316 6e-4,2.049 0.6068,0.707 8.683,2.637 8.1147,-0.005 2.6359,-1.577 3.0947,-3.095 1.5773,-2.636 0.0034,-2.113 -1.616,-3.666 -2.9646,-3.965 -6.5343,-6.585 -1.5797,-3.691 1.639,-1.819 2.636,-1.577 1.056,-0.107 1.3331,0.44 0.0068,1.056 -1.6423,1.978 2.3266,0.346 1.7586,-1.661 1.5382,-2.662 -3.2966,-3.38 -2.0201,-0.133 -4.7341,1.738 m -74.812,99.77 v 0 l 2.5451,-2.324 0.4799,2.294 -2.7812,17.791 -0.9127,1.002 2.1816,1.536 1.8441,-1.676 0.6111,-1.184 2.5555,-16.791 2.5026,-12.678 -0.1347,-4.019 -1.9849,-1.548 -2.3425,-2.777 -5.078,-0.011 -4.6296,2.573 -3.1013,3.099 -2.5665,3.664 -0.1334,6.022 1.0587,2.637 3.3997,2.718 5.0225,0.134 m 9.9339,-96.847 v 0 l 3.7591,-1.856 0.61,-0.789 -1.3027,-0.477 -4.0505,0.122 -17.7322,9.614 -2.4933,-7.445 -1.264,0.739 -1.7839,3.424 0.8225,0.554 1.8376,4.44 -1.6318,2.035 0.6517,0.975 0.1334,4.02 -1.8282,4.998 1.5338,2.218 2.019,-2.42 -0.5084,-0.793 1.6494,-1.971 0.2564,-6.669 m 8.3844,70.161 v 0 l 3.9484,-1.878 1.0896,0.026 0.3124,1.361 -0.6411,0.977 0.2944,0.294 0.9766,-0.641 1.3699,0.315 0.0198,4.082 -2.5736,4.629 -2.0986,2.102 -2.6359,1.577 -3.0805,-0.011 -2.3251,-2.325 -0.0108,-4.08 1.9386,-3.578 m -7.8196,-111.191 v 0 l 0.5761,-0.146 0.0086,-1.059 -1.3692,-1.495 -2.918,-1.839 -1.0599,-0.124 h -9.9877 l -9.9436,1.852 -2.0636,-0.665 -1.3644,1.308 2.3088,2.346 12.0558,-1.854 10.0591,0.133 m 124.297,17.363 v 0 l -0.7006,0.968 0.3173,1.377 2.0506,0.008 0.7346,-0.642 2.6122,-10.646 -10e-5,-2.124 -1.9401,-7.398 -0.9228,0.028 -2.8386,8.402 1.3374,-0.27 0.4783,1.304 9e-4,4.992 m 22.5177,9.649 v 0 l -2.6362,1.929 -3.7286,5.372 v 6.108 l 4.5738,8.63 5.1047,5.105 4.6831,2.548 2.209,-1.551 -6.7314,-5.814 -2.2635,-3.286 -3.5792,-7.627 0.0142,-3.085 1.9326,-2.619 4.3648,-2.717 h 3.1078 l 2.3115,1.731 -2e-4,0.622 -1.6882,1.802 -5.4009,2.46 -0.617,0.722 0.8671,2.025 1.4741,-0.3 1.0342,0.629 5.6425,-2.536 2.3256,-2.311 0.4824,-1.486 -0.1334,-3.022 -2.6614,-2.759 -2.6358,-1.577 -4.0509,-0.123 m -164.5055,3.764 v 0 l -0.8608,1.664 0.3651,2.414 2.7085,-1.931 0.7252,-1.12 2.0504,-10.313 -0.0019,-9.989 -0.4566,-1.347 -2.0537,-0.008 -1.2732,1.35 0.7684,2.001 -0.7683,2 0.6516,0.974 0.1337,5.019 M 52.0793,1009.13 v 0 l 5.9782,2.36 8.3818,2.38 3.0869,-0.02 1.273,-1.35 -0.829,-1.5 -15.41,-4.86 -1.3699,0.18 -1.8986,1.4 M -107.478,547.022 v 0 l -6.807,-6.832 -2.567,-3.664 -0.133,-1.03 0.021,-2.435 14.183,-3.808 2.632,-2.727 0.001,-4.052 -0.933,-1.617 -3.661,-2.173 -3.762,-1.534 -6.666,2.552 -3.123,3.121 -2.573,5.618 -0.119,9.055 0.483,1.486 2.787,2.828 1.692,2.662 8.497,7.379 2.054,-0.009 0.44,-1.342 -0.466,-1.482 m -4.811,78.184 v 0 l -1.667,-2.673 -3.309,-3.339 -1.692,-2.662 -4.833,-4.813 -2.662,-1.692 -4.327,-4.523 6.609,-6.785 10.005,-7.002 4.662,-2.706 0.365,-2.535 -1.346,-0.455 -2.022,0.131 -17.664,12.567 -5.095,5.095 -1.598,2.68 7.355,4.487 8.813,8.833 4.43,6.38 1.759,1.661 2.368,-0.323 M 56.5518,983.175 v 0 l -2.3512,2.325 0.8137,1.465 5.3934,1.623 12.0516,2.251 2.3821,-2.31 -1.6184,-6.222 -3.0902,3.591 -0.5877,0.084 -3.1067,-0.113 m 31.7177,-449.37 v 0 l 1.3151,1.342 1.0878,0.019 10.92,-4.683 0.505,1.326 0.001,2.993 -0.784,2.004 1.299,1.299 1.416,-0.789 1.925,-10.54 -1.369,-1.293 -13.944,6.645 -1.0285,-0.622 -1.344,1.276 m -250.2775,7.021 v 0 l -1.744,3.944 -0.117,2.055 0.453,1.345 1.696,0.039 2.215,-5.61 1.636,-6.229 9.366,-2.878 1.329,-0.863 -1.186,-1.152 -1.03,-0.133 -5.022,0.133 -0.944,0.701 -1.434,0.13 -2.071,-14.44 -0.556,-0.36 -2.177,1.537 0.693,1.787 -0.142,11.025 -1.347,0.456 -5.055,-0.118 -3.907,-1.695 -1.383,1.3 -0.126,1.089 5.421,3.302 3.05,0.123 3.033,-0.82 0.313,1.362 -0.694,0.947 m -23.305,25.029 v 0 l -2.487,-1.712 -10.048,-2.575 0.98,-1.032 2.846,-5.595 1.735,-6.028 -0.004,-2.12 -1.615,-3.666 -1.025,-1.025 -3.666,-1.616 -4.085,0.014 -1.339,1.361 v 0.622 l 2.337,1.691 0.999,-0.665 1.084,-0.014 3.296,2.333 0.015,6.082 -1.619,3.67 -2.081,3.08 -2.612,1.554 -7.687,0.24 -1.723,2.343 0.015,1.08 0.578,0.69 4.966,0.961 13.804,1.81 7.02,-0.144 m -24.689,-37.292 v 0 l 1.147,-4.054 -0.134,-5.022 -1.661,-1.759 -2.636,-1.577 -8.08,0.011 -2.608,1.925 -3.158,3.748 -3.576,9.617 -0.118,3.055 1.779,5.954 4.041,6.86 2.938,1.939 3.732,1.602 4.434,-1.849 -0.087,-3.527 -1.106,-1.174 -2.184,2.675 -1.363,-0.286 -3.483,-2.498 -1.964,-2.966 -2.603,-6.733 1.768,-7.183 3.158,-5.441 2.372,-1.729 4.05,-0.123 2.007,1.004 0.467,1.478 -1.656,4.729 -2.04,2.985 -7.235,1.848 0.112,1.471 2.323,2.321 3.08,0.011 4.63,-2.573 m 307.795,474.181 v 0 l -0.831,2 0.001,4.06 1.323,1.31 h 1.055 l 1.724,-1.62 3.456,-8.4 6.103,-6.105 2.635,-1.572 1.085,0.022 0.454,1.339 -0.122,4.046 -3.714,5.92 0.009,3.06 1.347,0.45 2.022,-0.13 8.284,-8.14 3.695,-2.51 0.479,1.3 0.001,3 -0.837,1.97 -0.134,4.02 0.318,1.33 1.2,1.37 1.531,-1.21 2.806,-9.42 -0.017,-3.09 -0.651,-0.97 0.651,-0.974 -0.001,-2.052 -1.325,-1.326 -3.08,-0.01 -6.76,4.622 -2.437,-4.985 -2.267,-2.278 -3.479,-0.482 -1.485,0.482 -4.828,4.788 -2.518,1.569 -1.013,1.186 -3.374,-8.792 -2.181,1.618 -0.075,0.586 0.956,3.052 M 140,498.456 v 0 l 0.014,35.037 1.855,6.945 0.233,4.694 2.37,1.69 1.379,-1.296 0.135,-5.02 -0.865,-4.458 -2.094,-38.188 -1.445,-10.848 -1.113,0.148 -0.453,1.344 m -375.493,8.537 v 0 l -1.019,-0.843 -1.792,1.617 -2.055,4.014 -1.532,6 -2.927,50.247 -1.034,5.385 2.309,2.381 1.732,-0.564 1.071,-7.405 2.847,-50.607 1.623,-5.483 1.105,-1.257 0.133,-2.022 M 49.2596,482.256 v 0 l -5.7262,1.724 -0.3685,1.549 0.3073,0.313 5.0244,0.143 3.0068,-0.97 6.9899,-10e-4 10.9657,1.825 1.3401,-1.339 -1.5311,-1.715 -6.7061,-1.655 m -173.1369,40.02 v 0 l 4.101,-0.002 1.974,1.877 -0.03,0.983 -7.91,2.859 -2.088,-0.025 -0.323,-2.368 1.661,-1.759 m -210.332,100.494 v 0 l 0.027,0.593"
     id="path162" />
</g>
</svg>
