<?xml version="1.0" encoding="UTF-8" standalone="no"?>
<svg
   width="1257.818"
   height="944.97223"
   viewBox="-702 0 1257.818 944.97223"
   version="1.2"
   id="svg10"
   xmlns:xlink="http://www.w3.org/1999/xlink"
   xmlns="http://www.w3.org/2000/svg"
   xmlns:svg="http://www.w3.org/2000/svg"><defs
   id="defs14" />
<title
   id="title2">CryptoResearch</title>
<g
   id="g8"
   transform="translate(-123.014,-33.013802)">
  <path
     fill="#000000"
     d="m -469.733,33.2506 v 0 l -7.774,1.7355 -15.99,-0.0013 -1.977,-0.8369 -5.019,-0.1341 -6.035,0.9303 -34.135,2.1361 -17.897,6.1415 -8.414,2.3256 -4.003,1.8854 0.449,1.4103 2.533,0.2196 1.995,3.8376 2.223,-1.5932 1.743,5.155 0.885,1.0115 0.135,3.0198 -2.078,13.0949 -3.894,51.9188 10e-4,3.989 0.837,1.978 0.134,3.019 -4.095,28.739 -3.918,34.487 -4.959,70.788 v 12.986 l 1.864,14.899 3.196,19.781 3.912,38.334 v 14.986 l -1.972,11.014 10e-4,8.989 0.969,3.008 -0.132,2.022 -0.837,1.977 v 36.993 l 0.97,3.007 0.014,4.997 -1.998,40 0.013,19.993 1.122,8.25 1.85,21.764 -10e-4,22.989 -0.837,1.978 -0.147,2.026 0.013,50.993 3.175,65.161 2.853,92.157 3.944,37.695 v 9.987 l -1.972,14.014 v 62.987 l 3.972,14.012 -10e-4,6.99 -0.97,3.007 -10e-4,8.991 1.846,4.946 -0.031,1.086 -2.358,-0.361 -0.313,1.362 3.703,5.916 0.199,1.557 7.781,3.368 13.502,2.744 28.164,2.874 5.019,-0.134 1.977,-0.837 3.991,-10e-4 9.209,2.153 13.037,1.9 26.676,2.902 46.475,2.515 32.821,2.547 12.794,2.955 19.99,-10e-4 3.007,-0.97 4.997,-0.015 3.026,0.148 1.977,0.837 12.99,10e-4 19.351,-2.909 52.663,-2.064 16.986,10e-4 63.99,6.135 58.0204,3.821 2.9999,-0.955 7.9968,-0.014 2.0258,0.147 1.9775,0.837 10.9969,0.014 24.9249,-2.048 58.2964,-2.45 61.7849,-3.488 h 19.9863 l 52.2652,2.083 8.534,1.513 22.911,5.659 25.357,3.675 41.604,2.397 31.343,3.646 h 29.986 l 59.503,-7.077 33.639,-2.379 23.869,-2.524 63.931,-2.874 22.627,1.929 46.822,1.981 12.622,1.944 3.02,-0.134 1.971,-0.822 31.009,1.956 47.99,-10e-4 3.031,-0.828 0.947,0.695 5.022,0.133 2.004,-0.785 1.036,0.632 4.445,-1.747 3.46,-1.945 1.359,0.354 -0.601,1.012 0.277,0.331 2.049,0.015 1.975,-0.821 2.003,0.767 0.293,-0.292 -0.572,-0.752 -4.731,-1.74 -4.055,0.117 -5.877,1.738 -2.061,0.13 -4.997,-0.014 -1.976,-0.828 -3.031,0.827 -25.99,0.002 -29.013,-1.972 -3.02,0.134 -1.977,0.837 -9.989,10e-4 -43.014,-3.972 -3.019,0.134 -1.978,0.837 -4.99,10e-4 -31.013,-2.972 h -27.987 l -10.737,1.018 -44.042,1.954 -20.742,2.123 -27.979,1.79 -58.513,7.087 h -36.986 l -37.014,-4.972 -11.989,10e-4 -3.008,0.97 -4.989,10e-4 -13.92,-1.83 -22.108,-3.095 -17.191,-4.445 -23.795,-4.602 -17.99,10e-4 -3.007,0.97 -12.996,0.015 -3.0262,-0.148 -1.9776,-0.837 -36.9894,-10e-4 -34.269,1.822 -39.6745,3.031 -3.0669,-0.852 -20.9899,-10e-4 -26.0062,2.985 -45.9933,-0.013 -40.904,-2.791 -66.11,-6.181 -31.986,-10e-4 -41.992,2.036 -19.022,2.937 -12.99,-10e-4 -3.007,-0.97 -4.996,-0.015 -3.026,0.148 -1.978,0.837 -19.99,10e-4 -12.852,-2.963 -36.212,-3 -43.023,-2.053 -39.839,-4.887 -8.086,-2.069 -4.991,10e-4 -1.977,0.837 -4.026,0.147 -16.007,-1.985 -5.99,10e-4 -2.037,0.814 -3.932,-1.658 -1.007,0.672 -1.054,-10e-4 -1.946,-1.684 -2.001,0.694 -2.088,0.017 -7.134,-1.817 -2.268,-1.07 -3.023,-11.472 -2.081,-27.123 -2.918,-9.893 v -60.988 l 1.972,-14.013 v -10.987 l -3.929,-37.645 -2.868,-92.207 -3.175,-65.161 -0.013,-50.993 0.147,-2.026 0.837,-1.978 10e-4,-22.989 -2.972,-31.014 -0.013,-18.993 1.998,-40 -0.014,-4.997 -0.97,-3.007 v -36.993 l 0.837,-1.977 0.132,-2.022 -0.969,-3.008 -10e-4,-7.989 1.972,-12.014 v -14.986 l -3.888,-38.395 -3.22,-19.721 -1.877,-15.891 0.013,-11.993 3.077,-37.939 1.896,-32.881 3.849,-33.411 4.15,-29.783 -10e-4,-2.99 -0.837,-1.977 -0.134,-4.019 3.895,-51.9168 2.077,-13.0969 -0.135,-3.0196 -1.693,-1.9462 0.34,-1.5087 1.344,-1.4913 -0.34,-1.5087 -1.344,-1.4913 0.892,-2.5771 7.723,-3.2862 11.559,-3.583 40.175,-3.0673 4.019,0.134 1.977,0.8369 15.99,0.0013 10.007,-1.9842 26.025,2.0034 20.247,4.0862 47.302,3.9362 37.426,1.9713 34.993,-0.0127 47.812,-2.0163 30.817,-2.8838 24.009,-3.3121 20.369,-1.7732 38.993,0.0129 8.696,1.0136 35.5832,1.9429 21.859,2.8834 137.8845,2.7616 20.991,1.3709 h 76.9863 l 35.013,-2.9724 52.987,-1e-4 88.04,3.7327 37.341,2.8972 22.485,2.3975 39.315,2.096 69.6,2.6977 29.728,2.0383 7.504,1.113 41.557,0.1018 2.33,7.6161 2.231,10.5361 5.17,16.2025 2.532,5.3314 4.362,11.447 3.645,6.58 4.165,13.166 10.008,27.068 4.842,18.632 2.638,22.84 v 11.986 l -1.973,34.014 -0.013,8.993 2.036,29.057 4.598,20.649 3.867,9.827 5.164,16.195 3.845,9.843 4.991,16.964 6.907,29.666 4.637,30.143 5.657,94.57 1.284,13.093 -10e-4,10.989 -0.837,1.978 -0.146,2.026 0.146,2.026 0.704,0.948 0.148,3.026 -0.015,30.996 -0.838,1.978 -0.146,2.026 0.013,35.993 2.942,42.535 2.043,11.472 v 91 l -0.147,2.026 -0.704,0.948 -0.148,3.026 0.015,19.996 0.837,1.978 0.132,2.019 -8.054,32.826 -1.916,16.188 -10e-4,15.986 2.949,40.934 4.09,25.908 1.913,18.368 3.11,18.466 1.367,1.803 1.538,-0.469 0.852,-1.039 -0.93,-3.282 -1.764,-11.371 -2.006,-7.251 -0.117,-5.056 0.837,-1.978 0.133,-2.02 -2.251,-10.629 -3.081,-20.361 -2.64,-34.023 0.118,-35.055 8.854,-37.945 -0.133,-2.019 -0.837,-1.978 L 675,774.5 l 0.148,-3.026 0.704,-0.948 0.147,-2.026 v -98 l -2.133,-13.448 -2.735,-53.489 0.868,-4.063 -0.014,-55.997 -0.954,-3.003 0.954,-3.004 10e-4,-10.989 -1.285,-13.093 -5.657,-94.916 -5.636,-36.761 -5.024,-22.024 -14.883,-45.68 -3.876,-9.862 -3.635,-17.971 -1.989,-24.7 0.014,-18.997 0.837,-1.977 0.147,-2.026 -0.013,-49.993 -1.737,-9.33 -3.886,-16.447 -2.861,-8.695 -6.829,-17.78 -5.348,-15.511 -2.079,-4.971 -2.563,-4.518 -11.191,-29.3221 -4.477,-18.4352 0.064,-1.5521 2.84,-1.891 -0.078,-1.5849 -1.841,-0.5293 -1.969,-4.4044 -1.05,-1.0383 -1.51,-0.3327 -0.313,0.3074 -0.01,2.0534 0.701,0.9439 0.127,1.4405 -13.541,1.9584 -35.194,-1.7839 -30.958,-2.2354 -38.79,-1.8356 -5.019,0.1342 -1.978,0.8369 -10.989,0.0014 -18.01,-2.0742 -39.36,-2.4261 -16.983,-1.8035 -26.879,-2.0359 -78.782,-3.6328 -81.986,1e-4 -29.014,2.9724 H 91.5069 l -64.014,-3.9724 -21.98954,0.0014 -3.00714,0.9696 -36.98942,0.0015 -44.0447,-2.0408 -14.01,-1.9426 -44.9521,-3.0019 -45.993,0.0128 -19.511,1.8111 -20.963,3.2233 -28.027,2.5069 -9.513,1.4311 h -95.986 l -59.824,-4.8451 -11.861,-1.7321 -9.807,-2.3663 -27.522,-2.0289 m -3.962,48.0113 v 0 l -0.602,-1.1607 -2.401,-1.6867 -1.379,1.2962 v 2.0522 l 1.904,1.5207 1.897,2.8372 0.891,-0.3594 0.143,-1.0282 m -41.006,94.0256 v 0 l 3.33,-2.356 1.92,-2.917 1.64,-4.688 -0.002,-3.12 -1.617,-3.666 -2.072,-2.068 -5.618,-2.573 -6.12,-0.002 -4.685,1.636 -5.605,5.706 -0.011,3.079 1.578,2.15 2.275,-4.173 0.847,-0.054 0.146,1.028 -0.133,10.022 -1.702,1.948 -0.118,1.026 0.467,1.482 1.353,1.492 0.134,1.03 -0.133,4.022 -0.837,1.977 10e-4,9.993 0.456,1.346 2.05,0.008 0.674,-0.558 1.867,-17.292 7.101,-2.668 m 4.067,-17.564 v 0 l 1.62,1.706 0.148,2.026 -0.137,3.054 -1.577,2.636 -3.108,3.103 -5.616,2.571 -1.468,0.114 -1.944,-15.504 1.325,-1.325 6.02,-0.135 m -7.982,272.871 v 0 l -5.951,-1.754 -2.119,0.003 -6.358,2.814 0.067,1.578 0.549,0.727 -2.618,1.686 0.052,3.62 1.852,4.947 v 9.987 l -2.853,10.946 -0.117,2.057 0.482,1.486 1.999,1.815 0.713,-0.528 2.657,-10.709 0.118,-15.057 -0.837,-1.977 -0.133,-4.023 0.483,-1.485 1.301,-1.518 -0.598,-1.001 1.273,-1.351 7.085,-0.014 8.619,3.574 3.012,2.007 2.095,2.095 4.577,7.636 0.124,1.06 -0.124,10.048 -2.573,4.63 -1.821,1.841 -2.001,0.883 -16.764,1.899 -0.544,0.67 v 1.047 l 0.595,0.705 4.685,1.638 3.054,0.119 11.717,-2.728 2.956,-1.95 2.083,-3.084 2.617,-6.665 v -10.118 l -2.574,-5.619 -2.007,-3.012 -4.101,-4.099 -4.956,-2.958 -3.669,-1.619 M -489,242.543 v 0 l -0.157,-4.071 -1.752,-0.449 -2.958,16.416 0.024,3.089 1.347,0.455 2.022,-0.132 4.29,-4.14 4.63,-2.573 2.08,0.011 1.676,1.564 2.091,10.99 2.573,-5.144 -0.015,-6.086 -2.685,-3.781 -2.612,-1.554 -1.06,-0.124 -3.048,0.124 -4.63,2.573 -2.321,2.089 -0.337,-1.327 0.827,-1.976 M -485,178.543 v 0 l -0.149,-3.07 -0.852,-0.973 -1.473,-1.351 -2.506,0.348 -0.843,1.031 1.685,2.918 0.109,1.054 -1.657,4.726 -3.306,5.251 -2.534,0.374 -1.759,-1.661 -1.577,-2.636 0.011,-5.08 2.65,-2.974 -1.272,-1.342 -1.054,-10e-4 -1.517,0.889 -1.821,3.396 0.003,6.112 2.936,4.58 2.946,2.37 1.484,0.48 2.05,-0.122 2.612,-1.554 2.121,-3.122 3.575,-6.632 m 15.137,-68.098 v 0 l -0.014,6.041 -0.827,3.03 1.369,1.295 2.181,-1.538 -0.506,-0.786 0.783,-2.001 10e-4,-7.991 -1.944,-4.392 -0.522,0.012 -1.371,1.348 -0.118,1.026 0.821,1.973 m -18.36,338.544 v 0 l 2.953,-1.873 1.085,0.021 0.332,2.389 -1.577,2.636 -2.57,2.62 -1.387,2.985 2.163,2.07 4.007,-3.863 3.364,-5.448 -0.011,-5.08 -1.661,-1.759 -2.634,-1.571 h -1.112 l -4.628,2.567 -2.101,2.099 -3.232,5.259 -2.469,6.437 0.124,7.048 3.574,6.63 2.762,2.667 1.026,0.117 1.3,-0.463 -2.051,-2.284 -2.615,-6.662 -0.12,-5.053 1.758,-5.755 m 13.705,10.209 v 0 l 1.339,1.328 6.606,3.818 6.017,1.762 h 2.122 l 5.367,-1.828 -1.378,-1.104 -9.951,-2.719 -3.784,-1.929 -1.638,-1.816 1.538,-2.662 3.095,-3.095 6.664,-4.566 h 2.05 l 2.19,2.56 1.137,-1.183 v -3.052 l -2.325,-2.326 -3.02,-0.134 -5.69,2.697 -4.006,3.004 -3.095,3.095 -3.577,5.636 M -460.52,257.98 v 0 l 3.294,2.334 3.667,1.552 2.059,0.132 2.059,-0.132 5.385,-2.384 1.915,-1.342 -0.333,-0.973 -1.999,0.676 -2.027,-0.642 -0.974,0.651 -4.085,0.014 -5.618,-2.573 -1.674,-1.767 -0.011,-3.08 3.577,-5.636 1.06,-1.06 3.691,-1.624 2.241,1.585 2.135,-2.184 -0.652,-1.81 -2.636,-1.579 h -3.108 l -4.63,2.573 -2.105,2.105 -2.422,4.368 -2.14,2.29 -0.119,1.023 1.656,4.729 m 12.889,-140.993 v 0 l -3.12,-11.215 -1.895,-2.992 -1.09,0.133 -0.453,1.345 0.117,2.055 2.136,5.96 2.516,11.749 1.688,1.583 2.08,0.011 2.636,-1.577 9.81,-9.785 2.862,-3.946 -0.019,-2.082 -2.339,-0.456 -1.512,0.507 -1.707,2.667 -10.51,10.503 m -2.253,59.329 v 0 l -1.373,-1.496 -0.015,-6.085 5.732,-16.882 0.117,-2.055 -0.454,-1.339 -1.535,0.358 -1.306,2.256 -3.191,8.256 -4.468,14.466 1.686,3.689 6.095,6.095 2.636,1.577 2.05,0.121 1.339,-0.454 -0.333,-1.51 m -79.664,58.531 v 0 l 0.178,-10.046 0.456,-1.347 2.09,-0.028 15.875,2.736 1.42,-0.367 0.008,-0.642 -1.87,-1.889 -16.07,-2.791 -4.387,-1.143 -1.01,-0.875 -1.507,0.339 -0.82,1.003 1.641,1.972 -0.641,2.028 1.65,1.974 0.134,7.022 -0.837,1.978 -0.226,2.572 -3.763,2.43 0.364,1.531 2.375,1.86 0.086,1.63 -4.845,12.944 0.019,1.088 1.596,1.703 5.752,1.754 6.056,-0.117 7.128,-1.763 2.185,-1.038 -1.349,-1.919 -6.023,-0.134 -3.007,0.97 h -4.993 l -1.484,-0.482 -0.87,-0.977 -0.014,-2.085 3.845,-12.327 18.933,-3.155 -0.932,-1.462 -1.485,-0.482 h -11.993 l -1.977,0.837 -2.054,-0.01 -0.441,-1.342 m 286.097,638 v 0 l 2.348,3.35 2.05,10e-4 5.325,-6.325 v -3.052 l -1.325,-1.326 -1.03,-0.133 -5.022,0.132 -0.975,0.652 -1.999,-1.598 -1.351,1.273 -0.118,1.026 0.467,1.482 1.353,1.492 m 57.627,-797.4958 v 0 l 2.371,2.4934 0.122,1.0765 -2.417,2.3136 -6.116,0.007 -9.944,-2.8535 -2.022,0.142 -0.441,1.3431 0.492,1.5072 2.589,1.527 7.326,2.3342 9.116,-0.0065 3.731,-2.6722 1.577,-2.6358 0.123,-1.0602 -0.123,-2.0482 -1.554,-2.6114 -2.498,-1.5493 -4.62,-4.57 -2.662,-1.6922 -1.813,-1.8329 -1.577,-2.636 v -2.108 l 1.554,-2.6115 2.754,-1.6968 5.687,-0.0355 2.342,2.7391 1.505,-0.3387 0.861,-0.9736 -0.154,-1.3313 -1.497,-2.4797 -3.632,-1.5837 -2.052,-0.1192 -7.694,2.7018 -2.059,3.0551 -1.613,3.6677 0.004,1.1165 2.567,4.6274 6.099,6.1013 m 0.542,66.4221 v 0 l 1.628,4.76 2.548,0.375 0.456,-1.346 -0.122,-5.05 -2.068,-5.686 -3.419,-17.933 -3.063,-8.048 -1.29,-2.252 -1.522,-1.326 -1.714,1.531 -2.515,11.748 -1.947,5.749 -6.826,14.773 -4.36,7.442 -0.238,1.704 -1.772,2.379 2.374,3.271 1.786,-1.614 8.401,-15.94 1.358,0.696 11.181,1.806 m -15.508,323.439 v 0 l 1.754,1.666 h 4.05 l 2.338,-3.297 -0.011,-3.078 -3.297,-2.338 -2.08,0.01 -0.974,0.651 -1.631,-0.664 -1.731,2.311 -0.108,1.054 m 22.278,-236.703 v 0 l 1.668,2.674 2.834,2.814 2.634,1.571 1.116,0.004 5.617,-2.567 3.845,-3.821 5.022,-8.402 3.72,14.428 1.52,3.205 1.577,-2.15 0.006,-5.114 -5.614,-22.653 -0.729,-0.627 -1.755,0.6 -3.424,12.412 -3.057,6.013 -3.098,3.101 -2.636,1.577 -1.057,0.122 -1.63,-0.086 -3.729,-5.344 -0.123,-8.05 0.97,-3.007 -0.001,-4.993 -0.453,-1.344 -1.485,-0.115 -2.032,7.462 m 0.27,60.185 v 0 l 5.485,18.553 1.731,1.554 3.31,-3.084 2.355,-1.407 1.55,-2.498 3.57,-3.62 13.002,-18.005 2.569,-4.63 -0.015,-1.084 -1.313,-1.32 -1.671,-0.042 -3.569,6.075 -1.573,1.626 -3.43,5.38 -6,8 -7.58,8.52 -2.062,-4.479 -2.422,-8.67 -1.975,-4.789 -2.721,-3.613 -1.505,0.338 -0.862,0.975 0.338,1.507 M -523.732,132.285 v 0 l -0.148,0.85 2.352,1.687 2.327,-2.322 -0.632,-1.037 2.67,-10.923 -0.636,-1.04 0.652,-0.974 0.197,-4.496 7.855,-2.514 5.272,-2.223 2.111,-2.109 3.578,-7.6255 v -2.117 l -2.573,-5.6183 -4.116,-4.1164 -5.618,-2.5725 h -6.118 l -3.667,1.5513 -2.247,1.2925 -2.55,2.5497 -1.833,2.9171 0.328,1.3973 2.054,0.0098 0.974,-0.6513 0.997,0.5966 0.723,-0.4896 1.766,6.1983 -0.088,5.627 -2.739,2.342 0.364,1.532 2.375,1.86 0.088,4.626 m 42.583,47.344 v 0 l -4.788,10.702 -1.648,4.901 0.001,2.118 1.943,4.574 2.738,2.155 4.631,2.575 5.08,-0.011 2.762,-2.667 4.578,-9.625 -0.015,-7.085 -1.626,-1.723 -3.665,-1.611 h -1.121 l -5.616,2.567 -1.328,1.094 -0.324,-0.275 1.509,-4.785 3.182,-6.187 -0.011,-3.08 -1.325,-1.325 -2.049,0.001 -0.695,0.59 m -2.31,23.387 v 0 l 4.03,-5.129 3.944,-2.86 3.08,0.011 1.325,1.325 0.015,3.085 -2.545,6.632 -1.299,2.282 -1.496,1.378 -3.08,0.011 -5.342,-3.729 0.047,-1.661 m 256.376,286.43 v 0 l -3.242,5.288 -4.127,4.282 0.314,1.37 2.022,0.142 3.696,-1.699 2.098,-2.101 5.578,-11.625 -0.004,-12.113 -6.839,-10.918 -6.833,-6.813 -5.634,-3.576 -1.689,-0.035 -1.723,2.34 0.169,1.358 1.406,2.389 0.572,0.516 2.202,-1.571 3.979,2.841 3.813,3.833 6.577,10.636 0.004,10.112 m 26.575,-330.448 v 0 l 4.197,-10.738 1.497,3.753 1.735,8.313 -0.027,5.09 -1.347,0.456 -6.05,-0.122 -2.216,-1.547 m 65.226,-5.462 v 0 l 2.836,1.858 2.165,-1.694 6.039,-0.001 1.347,0.456 0.142,10.024 -0.97,3.007 v 9.993 l 0.482,1.484 0.999,0.817 0.699,-0.505 1.791,-13.799 0.12,-10.633 2.944,-2.176 -2.304,-1.455 -1.732,-11.736 0.001,-3.99 0.827,-3.03 -1.361,-1.346 -0.536,-0.007 -3.696,9.163 2.735,2.16 -0.004,7.464 -13.443,2.07 -0.037,0.997 m -129.78,769.84 v 0 l 1.131,-1.289 0.011,-2.079 -2.678,-3.734 -3.986,-2.047 -8.427,-3.13 2.002,-1.782 4.771,-1.97 7.922,-2.612 1.04,0.629 0.336,-1.328 -0.861,-0.975 -1.485,-0.482 -3.058,0.115 -7.122,1.761 -5.822,2.095 -3.055,-0.119 -4.375,-1.867 0.072,-1.561 3.358,-10.405 3.368,-8.48 -0.019,-3.082 -1.985,-0.363 -2.179,3.664 -1.18,3.26 -5.575,18.014 -3.765,2.428 0.363,1.531 2.254,1.675 -2.644,8.758 0.017,6.087 1.141,1.183 1.203,-1.782 4.359,-15.316 1.605,-1.593 5.067,0.144 -0.508,3.334 0.8,1.79 3.727,1.916 6.395,2.28 3.952,2.375 -0.041,1.671 -3.377,3.495 -12.336,8.846 0.398,0.965 6.054,-1.701 3.599,-1.847 6.003,-4.001 2.095,-2.095 M -150.02,452.465 v 0 l -2.951,11.036 0.288,1.304 1.552,2.06 1.114,-0.365 1.305,-1.316 3.465,-7.411 1.962,-2.963 4.484,-4.498 2.479,13.406 1.269,-0.723 1.922,-6.433 0.117,-3.056 -2.693,-6.683 -1.764,-1.665 -1.084,-0.015 -2.635,1.572 -4.026,3.976 -2.464,-7.84 -2.766,-1.713 -2.08,0.011 -3.762,3.667 -4.425,8.37 -3.181,4.543 -3.08,-15.617 -1.309,0.699 -1.478,2.501 1.743,2.145 0.003,14.039 -0.837,1.978 -0.147,5.026 0.148,2.026 0.877,0.974 2.131,-0.588 1.114,-1.693 3.442,-7.405 5.574,-8.628 3.427,-6.37 0.761,-0.657 1.367,0.313 M -496.544,117.844 v 0 l 1.524,0.65 0.871,0.98 10e-4,2.052 -0.687,1.013 1.869,5.372 0.431,-0.026 0.733,-0.595 1.908,-13.433 7.87,-4.386 1.92,-1.634 -2.407,-1.682 -4.928,1.708 -1.088,-0.034 0.378,-3.355 -1.349,-1.272 -1.692,2.373 -1.579,4.672 -4.082,4.227 -0.132,2.022 m 57.465,145.295 v 0 l 1.454,-0.792 1.859,-6.684 0.492,0.387 2.425,-3.887 2.104,-2.104 4.63,-2.573 2.05,-0.121 1.304,0.478 -1.622,2.033 1.693,2.336 3.575,-1.726 6.112,-0.003 3.327,1.827 -5.753,17.477 0.017,4.087 1.323,1.316 h 1.055 l 2.272,-2.342 -0.652,-0.974 -0.013,-3.085 4.97,-14.743 2.761,-10.14 -0.022,-3.086 -2.011,-0.352 -3.511,7.65 -12.191,-2.796 -1.577,-0.836 -2.053,-0.137 -3.054,0.137 -5.663,3.554 -2.834,-11.61 -0.411,0.029 -0.732,0.593 -2.792,21.802 0.135,3.02 m 213.698,-30.003 v 0 l -4.309,-2.355 -0.542,0.358 -2.862,5.915 0.363,2.54 1.545,0.905 1.93,-3.353 m -7.498,219.469 v 0 l 0.377,-2.529 -1.324,-1.315 -1.534,0.365 -8.708,12.667 -3,4 -1.782,1.607 -0.751,-0.576 -1.254,-3.296 -3.44,-12.473 -1.513,-1.421 -1.388,0.441 -0.024,2.088 3.639,12.887 2.045,5.988 1.177,2.043 1.533,0.364 3.758,-3.652 m 50.211,-33.054 v 0 l -2.778,1.673 -1.547,3.657 0.903,1.667 2.372,1.729 h 3.108 l 3.297,-2.338 v -4.047 l -0.626,-0.724 -3.671,-1.617 m 76.924,31.885 v 0 l 2.547,-2.52 0.813,-0.025 0.147,3.02 -0.837,1.978 -0.01,2.079 2.041,2.338 2.687,-5.333 -0.015,-6.084 -2.325,-2.325 -1.03,-0.133 -2.05,0.122 -2.924,1.685 -0.506,-2.319 0.806,-2.032 -1.538,-2.176 -1.495,2.352 -1.078,3.816 -1.58,6.974 0.018,2.088 1.351,1.273 m -17,443.165 v 0 l 1.342,3.353 2.604,1.545 3.078,-0.025 -0.367,-1.31 0.337,-1.328 2.009,0.786 5.056,-0.12 5.618,-2.572 5.108,-4.103 4.002,-6.005 2.575,-4.631 0.124,-1.06 -0.124,-8.049 -1.577,-2.635 -4.101,-4.098 -7.409,-3.463 -1.55,-1.499 -3.729,-1.599 -4.944,1.643 -3.737,1.918 -5.103,5.103 -3.578,7.626 -0.12,9.053 M -535.522,439.209 v 0 l 0.027,0.593 m 86.811,15.654 v 0 l -3.182,9.985 -0.118,6.055 0.454,1.345 1.587,0.072 2.713,-6.608 0.733,0.492 1.746,-1.572 1.723,-3.692 1.748,-1.739 8.744,-1.774 0.331,-0.521 -3.241,-2.361 -1.06,-0.124 -4.053,0.12 -3.914,1.695 -0.355,-0.305 1.676,-8.009 -1.718,-2.408 -0.642,-0.082 -1.592,2.288 m 20.626,-345.335 v 0 l -2.384,3.468 0.01,5.08 0.926,1.607 2.37,1.722 1.116,0.005 3.665,-1.611 2.272,-2.046 0.73,0.551 2.475,6.416 1.771,1.672 1.506,-0.34 0.843,-1.03 -2.204,-5.325 -2.686,-11.072 -2.217,1.735 -4.708,6.667 -1.534,0.365 -1.315,-1.313 0.158,-1.337 2.395,-4.376 3.763,-3.667 2.052,-0.001 0.974,0.651 0.474,-0.299 0.868,-0.9725 -0.339,-1.5074 -0.977,-0.8715 -2.02,-0.1334 -4.731,1.7352 m -3.085,52.4526 v 0 l -1.666,-2.674 -1.498,-1.38 -2.369,0.323 -0.019,3.082 2.573,4.63 1.761,1.658 1.363,-0.313 -0.678,-2.002 0.685,-1.998 m -0.338,14.628 v 0 l -1.694,2.419 -1.796,5.93 0.124,6.048 1.665,2.376 3.182,-14.437 -0.143,-2.02 m 283.194,735.052 v 0 l 0.799,-3.054 -1.335,-0.44 -2.006,0.769 -0.324,-0.274 1.516,-4.752 1.292,-2.247 4.55,-4.55 2.918,-1.839 4.08,0.01 1.29,1.14 8.368,4.423 2.667,2.762 0.011,10.081 -1.579,2.638 -1.998,2.998 -4.095,4.095 -2.941,1.943 -4.688,1.635 -1.542,-0.361 -5.225,-5.222 m 0.728,6.51 v 0 l -0.027,-0.593 m 0.983,1.012 v 0 l 0.027,0.593 m -323.992,-31.83 v 0 l -1.376,2.471 10e-4,5.111 3.577,5.636 2.108,2.103 5.618,2.572 6.692,0.032 1.799,-2.805 -11.081,-2.778 -4.353,-4.332 -0.483,-1.486 0.133,-4.022 2.567,-3.664 2.095,-2.095 2.962,-1.962 3.453,-1.506 0.625,-0.724 -0.008,-2.051 -1.346,-0.456 -2.05,0.122 -4.63,2.573 -5.106,5.106 m 51.77,-717.797 v 0 l 6.37,-4.496 -0.322,-2.367 -3.082,-0.019 -5.636,3.577 -2.095,2.095 -1.577,2.636 v 4.108 l 2.685,3.739 6.683,2.693 6.99,-10e-4 2.028,-1.027 -1.358,-1.257 -8.762,-2.573 -3.588,-1.842 -0.657,-0.759 -0.015,-1.082 m 10.376,-99.4522 v 0 l -0.006,0.89 2.353,4.5568 0.132,6.0607 -0.129,2.0617 -2.563,9.2145 -7.863,-1.6319 -2.337,1.7254 -0.082,0.6422 2.285,1.5963 7.156,1.8698 0.374,0.4957 -2.826,12.032 0.124,3.048 1.701,2.339 1.227,-1.358 3.656,-14.731 3.164,-1.7613 -1.738,-2.5164 -0.146,-2.0265 1.868,-9.9375 -10e-4,-5.1238 -1.616,-5.9527 -1.963,-4.6632 -0.766,-0.6731 -1.024,-0.118 -1.343,0.4408 -0.009,2.0536 0.655,0.9785 m -23.259,384.6806 v 0 l -1.409,1.324 v 0.622 l 3.681,3.157 5.954,3.395 -5.636,17.758 -0.118,9.055 0.483,1.358 0.704,-0.012 3.405,-14.028 3.258,-10.256 0.236,-2.706 1.765,-1.707 -0.73,-2.706 1.833,-5.942 -0.468,-1.478 -1.5,-0.918 -2.999,7.833 -0.436,0.043 -1.547,-0.473 m 181.433,-244.675 v 0 l 1.322,-0.116 3.539,-1.553 1.548,-2.606 -0.011,-2.08 -0.875,-0.972 -0.777,-0.175 -4.383,2.384 -1.667,1.763 v 2.052 m 117.35,129.631 v 0 l -2.298,2.343 1.298,1.299 1.03,-0.622 2.917,1.685 1.06,0.124 9.99,-0.002 1.339,-0.455 -0.547,-1.727 M -397.255,248.74 v 0 l -2.615,13.697 -0.116,7.057 1.704,3.695 0.781,0.607 0.73,-0.553 4.56,-19.511 0.714,-0.529 1.026,0.62 2.661,-1.538 3.095,-3.095 7.577,-12.636 v -7.108 l -1.697,-2.754 -2.611,-1.554 -5.051,-0.123 -1.485,0.483 -2.303,2.312 -1.962,2.962 -4.499,12.446 -1.053,1.281 0.651,0.975 m 8.868,-140.289 v 0 l 5.055,5.064 3.666,1.617 3.085,-0.015 3.337,-2.72 -0.36,-0.93 -1.003,0.598 -1,-0.598 -0.974,0.651 -2.052,-0.001 -5.169,-5.084 5.866,-2.47 2.114,-2.107 1.577,-2.6358 0.136,-2.0541 -0.147,-2.0264 -1.667,-1.7624 -4.63,-2.5735 -2.048,-0.1225 -3.696,1.6999 -2.095,2.0947 -1.577,2.6359 -0.138,5.0542 0.138,3.054 m 135.712,114.872 v 0 l 0.016,9.133 -1.546,3.7 -3.032,5.925 -3.286,3.313 -0.756,0.735 -4.565,1.612 -1.504,2.628 1.357,1.357 8.624,-3.517 3.13,-4.128 2.919,-5.737 1.66,-4.887 0.119,-9.054 -2.737,-7.73 -5.066,-7.065 -4.629,-2.573 -1.06,-0.124 -5.02,0.135 -1.273,1.354 2.509,2.207 0.766,-0.562 3.078,-0.01 2.636,1.577 3.095,3.095 1.962,2.963 m 180.2886,-10.725 v 0 l 2.0669,5.322 1.2614,5.068 -0.3362,1.405 -4.0861,0.022 -3.3615,-1.819 0.059,-1.602 m -7.6889,247.394 v 0 h 12.0737 l -0.322,-1.336 0.506,-0.786 -2.1545,-1.578 -8.1118,-0.003 -3.3274,1.823 m 17.4073,-205.939 v 0 l 0.2775,1.481 -0.5983,1 0.784,2.003 -0.0216,15.438 -7.4275,2.04 -0.3327,0.522 2.2709,2.348 2.0519,10e-4 1.9741,-0.821 1.3429,0.441 0.142,18.024 -0.8269,3.031 1.3148,1.315 1.0505,-10e-4 0.666,-0.538 1.5513,-22.532 5.2066,-1.798 0.0324,-0.401 -0.4514,-1.415 -4.4205,-0.169 -2.5244,-20.978 m -5.9435,80.659 v 0 l -1.6258,5.837 0.1185,13.055 1.6594,4.886 3.9151,8.73 2.3672,2.956 2.3721,1.729 3.076,-0.025 0.1531,-0.631 -3.9622,-6.02 -3.2235,-6.22 -2.4754,-6.472 0.1171,-13.056 2.3418,-7.36 4.2193,-7.244 2.2035,-1.701 -0.0464,-1.661 -1.3576,-1.336 -0.6357,-0.002 -2.0205,1.916 -5.0839,6.725 m 5.6984,-105.605 v 0 l 2.0744,-0.324 0.3172,-1.374 -1.3117,-1.321 -1.485,-0.192 -2.2621,-10.631 -1.5863,-12.619 -0.6733,-0.55 h -1.0478 l -0.7227,0.617 -7.247,15.189 -10.2171,18.219 -2.1305,2.288 0.0067,1.057 2.9679,0.369 2.1543,-2.713 5.4241,-9.369 1.7594,-1.658 1.0887,-0.019 3.882,1.727 4.5109,0.176 3.8305,15.217 0.7204,0.538 2.3384,-2.268 0.0227,-1.091 -2.7269,-9.877 m -16.6177,302.485 v 0 l -1.9934,-1.898 -1.0297,-0.133 -11.9925,10e-4 -1.345,0.454 -0.13,1.078 2.4171,2.314 1.0595,0.124 5.9908,-10e-4 3.0071,-0.969 2.0225,0.131 0.9745,0.652 1.3016,-1.304 M -56.4623,136.95 v 0 l -3.5868,7.1 -2.8368,1.9 0.6851,1.55 -0.5986,1.001 0.8198,1.001 1.5069,0.34 1.7609,-1.658 6.4229,-11.893 1.7921,0.694 7.394,0.03 2.8698,18.845 2.0758,-0.332 0.0277,-21.091 -3.7106,-22.117 -1.6356,-3.161 -1.7422,0.581 -3.4582,11.49 -3.8157,8.738 m -20.7941,358.734 v 0 l -4.5829,19.736 -8e-4,10.124 2.4923,10.607 3.0606,8.086 4.0317,6.935 2.785,2.609 2.3419,-2.272 v -1.055 l -4.0914,-4.248 -3.9851,-9.823 -2.635,-10.839 -0.1166,-10.056 3.7545,-17.869 1.9454,-3.823 4.0855,-5.314 -1.2719,-1.342 -1.5085,0.34 -4.3066,4.317 m -27.8451,436.106 v 0 l 4.6379,2.879 0.3371,-1.328 -0.6844,-0.945 0.3693,-1.356 3.9767,1.678 6.6663,-2.551 2.1186,-2.115 2.5735,-4.629 1e-4,-5.108 -1.5775,-2.636 -1.7586,-1.662 -2.026,-0.147 -7.0545,0.137 -2.6358,1.577 -3.0948,3.095 -1.9618,2.962 -1.6192,3.669 0.004,4.112 m 43.3179,-669.71 v 0 l 3.0862,1.999 16.4096,-1.866 -0.9305,-0.819 -16.4581,-2.025 -2.0658,0.888 -0.3346,1.512 m 5.3227,-63.568 v 0 l 9.4859,2.112 0.0134,10.42 -0.8369,1.978 -0.1316,2.022 0.4811,1.485 0.9753,0.861 1.7245,-0.552 1.6739,-11.727 0.153,-4.478 10.6645,-1.883 -1.3993,-1.402 -11.7888,-1.661 -10.7875,1.663 -0.5162,0.711 m 7.5167,-63.621 v 0 l 1.5143,2.403 1.6423,8.143 0.1138,3.058 -0.5042,1.326 -7.7399,-2.605 -0.5371,-0.72 1.0469,-1.273 m 12.7352,566.239 v 0 l 0.0304,6.033 0.8197,3.033 -1.3387,0.455 -4.9962,0.015 -2.4802,-0.496 -0.8423,-1.031 6.9593,-13.394 M -2.03741,137.469 v 0 l -1.83014,5.97 -0.11597,2.057 0.45392,1.345 1.69647,0.039 3.56689,-10.086 6.95887,-2.572 -2.16669,-2.074 -2.42371,-0.163 -2.07818,-17.447 -0.52527,-0.333 -0.745118,0.57 -2.465022,4.517 1.6935377,2.165 -0.1302487,8.069 -0.879639,1.47 -6.85266,2.95 0.38055,1.038 1.97217,1.858 3.05603,-0.677 M -41.5219,825.209 v 0 l 0.0265,0.594 m 28.7768,-464.608 v 0 l 1.581,-2.64 -2e-4,-5.109 -1.5775,-2.636 -2.5735,-2.626 -2.5339,-4.656 3.2963,-3.38 h 3.0523 l 1.97373,0.821 1.34278,-0.441 0.12603,-1.028 -0.72277,-1.729 -4.74197,-1.62 -5.6372,2.923 -1.7283,2.372 -0.1239,1.06 0.1233,4.048 1.5775,2.636 3.5696,3.62 1.5713,2.634 -0.169,1.358 -1.4042,2.387 -0.759,0.662 -4.078,0.011 -5.9184,-3.704 -1.5074,0.339 -0.8711,0.977 -0.1181,1.026 0.4668,1.482 1.3255,1.311 5.6182,2.573 6.0849,-0.015 M -40.2117,824.69 v 0 l -1.8667,-7.821 -2.4217,-1.707 -4.6837,2.549 -7.041,6.982 -2.5633,-10.961 -1.0996,-0.678 -1.9634,20.472 1.3791,1.297 2.6619,-1.538 2.0951,-2.095 1.43,-2.38 4.8126,-4.833 3.9776,-2.778 0.3551,1.36 -4.7226,9.887 0.0109,3.08 0.8715,0.977 1.5348,0.353 2.6349,-1.571 2.6444,-3.593 6.9738,-4.975 3.1014,-1.649 2.0536,9.392 1.5109,1.391 2.0498,-0.014 -0.3231,-1.337 0.5985,-1 -0.7684,-2 0.8213,-1.974 0.1316,-2.023 -0.8358,-1.977 -0.2504,-3.659 -2.3441,-1.729 -2.112,-0.004 -5.3728,2.349 M -18.2933,521.25 v 0 l 0.278,11.246 -0.8269,3.031 1.3147,1.315 1.0524,-10e-4 2.3372,-3.287 0.1234,-1.06 -8e-4,-9.991 -0.9539,-3.003 0.8377,-3.063 -1.7373,-25.874 0.6909,-2.091 -1.6917,-2.337 -1.1136,0.365 -1.0391,1.027 -1.4822,2.506 -1.8204,3.739 -3.3558,9.421 -10.1812,19.251 -0.238,1.703 -1.8718,2.306 0.4688,1.527 0.9754,0.862 1.7762,-0.621 2.4263,-6.448 2.0389,-3.957 0.7608,-0.657 3.0287,0.826 6.5417,0.093 m -2.5163,114.944 v 0 l -0.5135,-1.52 -3e-4,-7.998 1.026,-3.461 5.8952,-2.181 -3.3779,-1.727 -1.0644,-0.121 -17.9904,10e-4 -2.0016,1 -0.4453,0.876 15.6853,1.868 -1.5933,2.759 1.8364,12.989 -0.8198,4.022 1.3893,0.327 2.3431,-1.724 0.0873,-3.628 m -16.74,302.771 v 0 l 5.6245,-24.713 0.1148,-8.059 -0.4531,-1.343 -1.4486,-0.133 -2.7593,16.379 -2.6247,10.075 -2.539,14.045 0.5601,0.677 8.7178,1.667 4.0591,0.115 1.4835,-0.481 2.9168,-2.34 -2.3425,-2.02 -2.0284,0.708 -3.0194,0.134 -6.4559,-2.014 m 14.8152,-211.048 v 0 l 2.6376,1.061 7.0227,-0.134 3.3253,-3.325 0.0108,-3.08 -1.5776,-2.636 -4.5696,-4.62 -1.5771,-2.636 0.0115,-2.078 3.2964,-2.338 2.0504,-0.122 2.0038,0.783 1.0056,-0.599 0.3369,1.327 -0.643,0.979 1.32778,0.336 1.32355,-1.316 -3.7e-4,-2.05 -0.66101,-0.759 -2.63535,-1.579 -5.0485,-0.124 -1.308,0.298 -3.4826,2.498 -1.5711,2.634 -0.0044,1.116 1.6136,3.668 1.9619,2.962 4.1344,4.281 0.0464,1.661 -2.4093,1.715 -7.0162,-1.688 -1.2927,1.368 M -15.5198,584.98 v 0 l 2.8045,2.83 1.5775,2.636 0.0591,2.6 -3.363,1.819 -2.0581,0.134 -6.0545,-0.137 -2.9177,-1.685 -1.379,1.297 5e-4,2.049 0.6046,0.706 4.6853,1.638 6.0549,0.119 5.68917,-2.697 1.10114,-1.099 1.57147,-2.634 -2.5e-4,-1.112 -2.56738,-4.628 -3.57335,-3.626 -1.5797,-3.319 2.3108,-1.733 4.05014,-0.123 2.00409,0.784 1.34149,-1.272 v -1.054 l -1.31574,-1.325 -6.02058,-0.134 -1.3131,0.3 -4.0846,2.542 0.0299,3.698 M 16.6429,120.701 v 0 l -1.5111,4.738 -0.131,3.061 0.1332,2.059 1.6192,3.669 2.081,3.08 3.982,2.981 4.6837,2.549 2.3651,-1.707 -0.9107,-2.175 -6.4267,-3.933 -1.7772,-1.798 -1.5797,-3.691 0.6818,-1.008 0.1787,-5.456 11.0443,-2.7 2.1031,-1.079 2.0706,-2.066 1.5936,-3.718 -1.9196,-3.639 -2.3699,-1.73 h -6.1077 l -2.6357,1.577 -4.098,4.101 M -5.50775,536.981 v 0 l 4.947142,1.886 6.114568,-0.005 2.63598,-1.577 2.66096,-2.759 0.0109,-2.08 -1.57725,-2.636 -3.56952,-3.62 -1.69226,-2.662 -2.82233,-3.028 2.27325,-2.351 2.05188,-10e-4 0.94703,0.694 1.36932,-0.314 0.00867,-2.054 -1.32434,-1.326 H 1.47357 l -3.37158,2.719 -0.08698,3.629 0.48072,1.484 2.219297,3.21 6.126953,6.282 v 1.055 l -1.31586,1.324 -4.01971,0.135 -6.96826,-1.821 -1.38031,1.307 0.33893,1.508 M -19.4725,776.997 v 0 l -0.3722,1.526 1.5987,1.709 4.6854,1.635 4.11462,-0.005 2.92242,-1.854 0.38544,-2.562 -4.14888,-6.261 -3.569,-6.629 -10e-5,-1.112 1.6402,-2.705 5.67763,-1.574 2.01044,1.677 h 1.05517 l 1.27173,-1.342 -0.84503,-1.544 -3.39587,-1.821 -3.05255,-0.121 -1.31352,0.301 -4.4992,2.519 -1.5553,2.612 10e-5,5.108 6.6854,10.924 -2.3772,0.384 -4.9181,-2.685 M -437.023,889.523 v 0 l 3.469,-2.385 h 2.108 l 5.579,3.936 1.723,2.371 -0.014,1.084 -1.652,1.755 -2.635,1.572 -1.082,-0.015 -2.335,-3.287 -0.107,-1.056 0.463,-1.299 1.007,0.6 1.298,-1.299 -1.273,-1.351 -1.026,-0.118 -2.473,0.986 -1.805,4.676 -1.355,-0.767 -1.723,-2.372 0.354,-1.535 M -390.48,249.98 v 0 l -2.025,1.82 -0.494,-2.3 0.13,-3.062 2.352,-8.339 3.229,-7.283 1.762,-1.667 2.08,-0.011 2.344,1.729 -0.036,3.687 -6.575,11.631 m -14.742,211.727 v 0 l -2.8,6.575 -1.614,5.951 -0.117,3.056 2.693,6.683 2.766,2.665 1.051,-10e-4 0.708,-0.602 2.637,-10.677 -0.706,-5.086 0.812,0.024 1.498,1.342 1.326,-0.335 -0.507,-0.791 3.993,-3.526 3.577,-5.636 0.123,-4.051 -0.481,-1.483 -2.338,-3.328 -2.612,-1.554 h -2.108 l -2.754,1.696 m 118.452,25.587 v 0 l -3.007,11.018 0.334,1.396 1.51,-0.333 1.25,-1.257 4.635,-14.687 -0.015,-4.084 -1.348,-1.271 -0.516,0.329 m 18.464,-311.488 v 0 l 1.41,-3.483 -0.02,-1.09 -1.315,-1.322 -1.024,-0.119 -1.31,0.285 -4.377,2.398 -2.709,2.156 -0.079,0.631 2.473,2.338 2.785,-1.591 2.216,2.73 m 6.953,-82.958 v 0 l -2.337,-1.9588 0.682,-1.5606 -0.299,-0.4736 -0.972,-0.8754 -1.661,-0.0467 -3.152,3.706 -1.572,2.6351 0.015,1.084 1.313,1.3126 1.084,0.0147 m 164.977,60.1657 v 0 l -1.369,0.444 -0.0047,1.062 1.3152,1.323 1.03,0.134 17.9927,-0.001 1.3042,-0.479 -2.2742,-2.356 -1.0298,-0.134 M -50,265.457 v 0 l 0.1489,3.07 1.1372,1.181 1.5753,-2.155 0.1241,-1.059 -0.1147,-5.057 -1.9608,-10.371 -1.4126,0.953 -0.4824,1.484 v 5.993 l 0.8371,1.978 m -22.3547,420.665 v 0 l -4.8053,3.695 -2.8946,4.791 -2.6663,9.813 v 9.123 l 2.6131,8.653 3.0655,3.071 2.6359,1.577 1.0599,0.123 10.0197,-0.144 0.3344,-0.98 -3.1546,-1.936 -8.8644,-2.619 -1.0903,-1.081 -1.6162,-3.667 -0.1204,-15.052 1.7962,-5.931 1.1685,-2.048 1.8312,-1.812 7.352,-4.405 1.661,-2.782 -1.3564,-1.357 m -9.8154,66.726 v 0 l 1.3233,-2.366 1.4995,-1.383 3.0228,-0.133 2.009,0.785 0.3321,-0.276 0.0135,-3.051 -1.3895,-1.308 -6.0395,1.729 -2.715,1.929 -2.229,5.298 -2.3478,9.317 9e-4,9.123 1.6511,5.702 1.9327,2.927 3.2834,3.308 2.5769,1.692 4.8635,1.673 1.0891,-0.03 0.3369,-0.977 -1.9192,-2.028 -4.1298,-2.54 -2.1009,-2.098 -1.9433,-2.941 -1.6392,-4.689 -0.0012,-11.122 m 11.382,-104.285 v 0 l -0.4811,1.338 0.7839,1.795 7.6252,3.579 6.1128,-0.003 2.6359,-1.577 2.6615,-2.759 v -4.052 l -2.5667,-3.664 -2.5735,-2.626 -2.6391,-5.103 7.9117,-2.504 -0.1436,-1.108 -1.344,-0.453 -6.0506,0.122 -3.2967,2.338 -0.0111,3.078 2.5734,4.63 2.5737,2.626 2.5659,3.663 -5e-4,2.051 -0.6608,0.759 -2.6354,1.579 h -5.1082 l -4.1548,-2.573 0.5506,-0.764 -0.3141,-1.367 -2.0536,-0.01 m 5.0249,-95.01 v 0 l -8.7839,8.672 -2.0052,3.01 -1.8289,4.311 -1.8662,9.376 1.9094,11.489 1.7845,4.183 3.1077,3.11 4.6297,2.573 1.056,0.107 1.2984,-0.464 -0.3013,-0.48 -1.573,-2.159 -4.2177,-3.687 -1.0704,-2.088 -2.5081,-10.529 -0.116,-4.056 1.8519,-7.095 4.8492,-8.601 4.1082,-4.103 5.4004,-2.461 0.5738,-0.749 -1.2713,-1.349 -1.0299,-0.132 -2.0224,0.132 m 14.0683,-223.276 v 0 l -4.224,11.382 -6.1839,13.187 0.0228,5.087 2.0112,0.352 4.1838,-9.641 2.1277,-3.113 1.3195,1.373 -0.5977,1.005 0.2948,0.295 1.9773,-1.65 3.7055,-0.027 3.6858,10.318 0.2355,1.693 2.3449,1.723 1.0846,-0.022 0.4542,-1.338 -0.1191,-3.054 -0.8815,-2.319 -1.679,-11.184 -3.0953,-24.21 -0.6847,-0.578 -1.6795,-0.036 -1.1226,1.691 m -11.4369,169.378 v 0 l -3.5326,5.589 -3.9641,8.804 -2.6565,8.862 -0.1184,6.055 1.7783,5.954 6.958,13.776 1.7223,1.618 1.0523,-0.012 -0.3243,-1.331 1.6285,-2.033 -1.5825,-3.694 -4.7651,-7.831 -2.4674,-7.447 0.1183,-4.055 3.5438,-10.669 7.1661,-14.262 -1.5578,-2.216 -1.419,0.782 m -2.1451,97.741 v 0 l 1.7532,-1.667 1.03,-0.132 2.0225,0.132 1.9772,0.837 6.4965,0.077 1.8674,4.378 -0.0147,4.086 -0.6518,0.974 2.2719,2.342 1.5072,-0.339 0.8716,-0.977 0.1334,-6.022 -0.9563,-3.051 1.8368,-2.308 -0.0086,-0.64 -0.9226,-0.564 -1.0929,-2.421 -2.9465,-20.499 -1.0345,0.092 -6.5754,11.077 -8.5697,10.62 -3.4301,5.38 -1.7818,1.607 -0.7334,-0.492 -1.6323,4.134 0.3599,1.54 1.0022,0.82 1.6339,-0.873 m 34.3881,-455.904 v 0 l -2.3839,-3.468 -0.0354,-2.687 2.6698,-2.114 3.6674,-1.613 5.001,1.72 1.0899,-0.026 0.3199,-2.357 -0.6253,-0.724 -4.7248,-1.724 -5.7496,1.743 -2.9409,1.943 -2.6611,2.759 -0.0108,3.08 2.5735,4.63 5.088,6.316 -2.2731,2.351 -1.0296,0.134 -4.0553,-0.119 -3.8827,-1.731 -2.0863,0.022 -0.4408,1.343 0.4916,1.507 4.9228,2.855 1.0598,0.124 5.0485,-0.124 2.6358,-1.577 2.6615,-2.759 v -4.052 m -22.7101,297.739 v 0 l 2.7444,14.636 0.7908,2.251 1.7799,1.881 2.0697,-0.13 3.7587,-3.661 1.6921,-2.662 3.3079,-3.338 1.4302,-2.38 5.5736,-5.626 2.5732,-4.63 -0.011,-2.08 -1.3235,-1.316 -1.5343,0.365 -2.7044,4.661 -5.5736,5.626 -1.6921,2.662 -3.3079,3.338 -2.9399,3.883 -2.5849,-11.416 -3.7084,-10.221 -1.9342,-2.027 -1.3903,0.443 -0.0094,2.054 0.6748,1.003 -1.6445,2.949 1.9718,-0.335 m -21.6717,420.835 v 0 l 4.3379,4.31 4.9597,2.961 6.6653,2.616 10.1209,0.005 11.5826,-2.488 6.3574,-2.352 1.4796,0.467 1.8414,1.796 5.6181,2.572 6.05233,0.121 9.74017,-2.626 8.5687,-3.696 7.4428,-2.433 1.5968,-1.704 v -1.055 l -1.3157,-1.324 -4.0804,-0.01 -11.21647,5.196 -12.73566,3.652 -3.05257,-0.121 -3.6664,-1.616 -3.2486,-3.101 -3.0266,-0.147 -2.0584,0.133 -9.6553,3.1 -8.2237,1.636 -6.0561,0.116 -7.7333,-2.661 -3.9572,-2.037 -5.6316,-5.576 -6.341,-3.396 -1.7966,-3.238 -1.547,-0.061 -1.3423,0.455 -0.141,2.024 0.4814,1.486 1.3184,1.306 6.3681,3.424 m 2.3381,50.075 v 0 l -0.3667,-1.309 0.6967,-0.952 -0.0097,-4.054 -1.3671,-0.313 -0.7265,0.623 -3.4154,10.417 -4.1703,7.298 1.3708,1.693 1.627,-1.24 3.831,-5.427 2.1521,-0.63 2.5672,-4.077 2.0671,-2.067 10.1448,-3.683 -2.3671,-1.922 -1.1182,-0.007 -6.3444,2.337 m 7.5909,-188.78 v 0 l -1.5456,3.745 0.0197,1.09 1.3142,1.313 1.0519,-10e-4 0.7242,-0.62 2.4272,-6.44 1.8469,-2.994 1.9368,1.195 8.5123,0.068 2.0131,6.457 -0.1329,2.019 -0.7042,0.948 6e-4,3.052 2.3605,2.339 2.3526,-2.311 0.1244,-6.047 -2.6871,-22.246 -1.8361,-9.178 -1.4604,-4.017 -1.529,0.085 -0.7207,0.625 -3.4346,8.478 -7.828,15.78 m -6.0078,70.757 v 0 l 1.6508,-0.866 2.154,-2.74 4.4299,-7.375 0.759,-0.661 2.0238,-0.148 3.4703,0.049 3.8012,12.195 0.7043,0.596 1.0516,10e-4 1.3241,-1.316 0.0144,-5.085 -1.7264,-3.882 0.7123,-2.033 -0.0103,-2.05 -0.7891,-0.481 -3.8531,-17.442 -1.1354,-2.465 -2.0638,-0.026 -5.6778,17.169 -6.034,10.953 -2.1391,2.29 v 2.052 m 39.5896,-574.272 v 0 l -1.5731,5.208 0.687,1.012 0.1464,5.026 -0.1468,2.026 -0.8213,1.974 0.9383,3 -0.8212,1.974 7e-4,3.052 1.3483,1.271 0.732,-0.554 2.5921,-8.539 17.36235,-8.418 0.66693,-0.762 0.11865,-1.024 -0.46667,-1.48 -1.03046,-0.843 -3.24469,2.07 -9.19181,4.247 -3.5078,2.348 -1.0566,-0.007 -0.4552,-1.339 -0.1185,-8.63 m -1.3957,62.29 v 0 l -1.3434,1.317 0.6939,2.001 -7e-4,3.052 -1.7009,1.946 -0.1217,1.074 1.6817,2.163 -0.6954,1.794 -0.1208,6.656 -1.6054,1.549 2.2112,2.091 1.7015,-1.512 1.912,-13.443 10.10708,-4.532 2.62012,-1.787 -0.33527,-1.325 -0.97827,0.643 h -1.05493 l -1.00647,-0.672 -8.45586,3.729 -1.9926,-4.368 m -29.509,495.307 v 0 l -0.2084,-0.612 1.9637,-4.763 1.6043,3.974 -0.0258,2.089 -1.3694,0.315 M -3.71136,650.314 v 0 l 1.59082,8.554 1.609432,4.071 2.040528,3.085 2.91632,1.838 10.26876,-0.173 -2.4946,-1.94 -7.46514,-2.517 -1.04675,-1.054 -1.88379,-4.467 -1.680055,-7.209 2.510135,-8.673 3.05871,-6.015 5.00199,-8.004 3.1011,-3.099 5.0341,-3.187 -0.3202,-2.359 -1.3376,0.151 -4.3762,2.395 -6.1013,6.099 -7.97058,12.977 M -16.4971,922.122 v 0 l -3.4246,1.832 0.0702,2.572 1.3535,1.272 0.5414,-0.841 3.3981,-1.823 1.0645,-0.12 8.0518,0.121 2.45148,1.55 -1.78559,1.564 -6.45089,2.426 -3.9567,2.039 -0.6667,0.762 -5e-4,2.05 1.667,1.762 9.3265,4.241 10.29541,2.341 2.12323,-0.002 5.36576,-1.832 -1.0621,-0.944 -15.38655,-2.92 -4.70068,-1.862 -2.48257,-1.599 8.88174,-4.418 3.66534,-3.766 -0.66602,-1.819 -5.61749,-2.574 m -5.27868,-95.937 v 0 l 3.00488,-4.007 1.57745,-2.636 0.12189,-1.056 -0.08692,-1.631 -2.36981,-1.689 -1.81622,1.638 -6.21706,10.219 -2.7017,5.517 -1.6601,4.887 0.0055,6.115 2.5521,4.608 2.7558,1.7 h 3.1084 l 3.44759,-2.364 4.28631,-4.314 3.572085,-7.624 -0.173278,-1.363 -1.379207,-2.363 -2.75354,-1.697 -5.08045,0.011 -2.49851,2.351 -0.8047,0.027 0.1453,-1.334 m 4.20595,10.786 v 0 l -3.53885,3.522 -1.1134,0.365 -1.7311,-2.312 0.024,-5.077 2.3652,0.366 4.94629,-4.693 h 2.05243 l 1.29621,1.379 -2.53376,4.656 M 10.4782,569.978 v 0 l 3.8063,3.832 1.5776,2.636 0.1239,7.048 -1.7787,5.953 -2.9206,5.738 -2.26241,3.285 -3.86578,3.005 0.33887,1.506 1.97485,1.861 1.50879,-0.34 3.30378,-3.312 5.0414,-8.964 2.5393,-6.668 -0.0035,-10.112 -1.5773,-2.636 -9.81235,-9.833 -5.96979,-3.775 -0.74871,0.573 -1.583257,3.698 1.356447,0.37 0.97327,-0.642 0.47283,0.298 3.21692,2.216 M 32.5287,217.977 v 0 l -0.5133,1.521 0.1416,3.03 1.8152,0.419 1.8917,-5.385 -0.7165,-2.036 -0.1042,-2.482 5.9067,-1.977 -4.8325,-2.045 -2.0938,-15.485 -0.5236,-0.331 -0.692,0.497 -1.9154,15.24 -2.3963,-0.928 -3.3316,0.456 0.5892,1.758 5.2349,1.8 1.8734,4.41 M 140.754,778.295 v 0 l -5.28,-0.147 -1.326,1.325 -0.01,3.081 1.555,2.612 7.748,3.699 3.113,-0.003 2.636,-1.577 2.095,-2.095 1.577,-2.636 0.124,-4.048 -5.852,-12.948 0.023,-2.086 1.347,-0.456 6.05,0.122 2.891,1.718 1.084,-0.015 1.27,-1.341 -0.3,-0.475 -2.805,-2.074 -7.132,-1.821 -2.121,0.004 -3.666,1.619 -0.626,0.723 -0.015,3.082 6.722,14.886 v 1.112 l -1.571,2.634 -1.759,1.661 -3.08,0.011 -4.359,-2.674 4.605,-2.435 m 2.76,-65.71 v 0 l 3.399,-3.517 v -6.053 l -4.325,-4.325 -5.08,-0.01 -4.63,2.573 -3.108,4.111 -2.574,5.619 -0.002,4.119 1.64,4.689 3.072,4.06 10.685,2.532 1.322,-1.315 -0.346,-2.326 -0.976,0.642 -1.091,0.021 -4.863,-1.673 -2.86,-2 -1.577,-2.636 -0.123,-7.051 0.481,-1.483 2.338,-3.328 3.64,-2.543 h 2.052 l 2.325,2.325 v 2.052 l -1.605,1.706 -4.492,1.539 -0.604,0.706 -0.001,2.049 1.325,1.325 2.02,0.134 1.308,-0.297 m -3.304,174.447 v 0 l -2.688,1.58 -4.62,4.57 -9.38,6.43 -2.62,2.57 -2.634,1.577 -1.689,0.238 -2.666,3.399 0.873,1.634 3.214,2.683 10.42,21.362 2.768,3.672 2.05,10e-4 1.315,-1.322 0.015,-1.084 -3.362,-5.481 -6.988,-14.929 -3.363,-5.48 0.016,-1.082 15.031,-11.188 6.312,-6.304 0.34,-1.509 -1.322,-1.32 m 39.002,-624.174 v 0 l -1.725,1.711 -2.482,-11.835 -0.791,-0.705 -1.028,-0.133 -2.02,0.133 -0.759,0.661 -6.793,10.041 -3.007,-14.824 -1.76,0.445 -0.142,8.024 0.837,1.978 0.147,2.026 -0.014,8.996 -0.954,3.004 0.441,1.342 2.052,0.008 0.762,-0.667 4.427,-8.369 5.002,-7.004 1.79,-1.611 0.479,1.305 -0.117,6.057 -2.723,6.884 0.014,1.084 1.37,1.293 4.656,-2.533 4.288,-4.131 1.057,0.007 0.456,3.331 -0.97,3.007 0.132,6.044 1.559,-1.253 0.521,0.396 1.64,-4.13 -0.005,-9.114 -2.338,-3.297 h -2.05 m -5.166,81.648 v 0 l 3.501,5.485 4.697,1.703 2.046,-0.125 1.313,-0.971 -4.328,-1.857 -2.822,-2.842 -1.577,-2.636 v -5.108 l 3.577,-5.636 2.095,-2.095 2.636,-1.577 2.076,0.025 0.301,0.359 -1.539,2.668 -2.135,2.284 v 2.052 l 1.349,1.272 0.505,-0.323 4.859,-6.921 -0.011,-3.078 -0.662,-0.759 -2.635,-1.579 h -2.108 l -4.63,2.573 -4.105,4.105 -2.573,4.63 m -6.889,184.873 v 0 l -0.09,2.207 0.972,0.338 2.087,-2.601 1.812,-6.258 3.902,-1.917 -3.202,-1.881 -1.594,-5.645 0.716,-2.036 -0.001,-2.052 -1.36,-1.339 -2.313,2.337 0.807,2.031 -0.142,5.025 -2.343,0.47 -2.026,-0.146 -0.947,-0.694 -1.37,0.314 -0.12,2.471 6.886,2.131 m -1.421,38.805 v 0 l -3.943,-1.745 -10.059,-0.133 -2.061,0.132 -4.34,1.872 1.375,1.846 3.052,10e-4 1.978,-0.837 7.99,-10e-4 7.946,2.846 1.54,-0.358 0.885,-1.011 v -0.622 l -2.311,-1.731 m -16.811,271.558 v 0 l 0.099,-5.224 -1.366,-0.313 -0.706,0.597 -2.638,8.683 -0.165,2.494 -7.933,2.134 0.118,1.459 0.59,0.694 5.169,1.819 -1.773,3.406 -0.122,4.051 0.455,1.339 1.82,-0.659 3.657,-8.094 5.548,-0.067 3.031,0.827 1.315,-1.315 -0.625,-1.778 -7.462,-2.52 -0.596,-0.703 m 10.358,-86.735 v 0 l -0.984,-0.637 -1.375,0.318 -0.009,2.054 1.324,1.316 3.09,-0.71 14.819,1.929 2.06,0.804 2.393,-0.336 -0.333,-1.51 -1.274,-1.261 -2.642,-0.743 -15.023,-1.883 m 12.92,-143.341 v 0 l 1.721,-1.508 1.645,-9.612 4.988,-3.001 11.401,-3.361 2.668,-1.483 -2.35,-1.682 -1.117,-0.004 -10.36,3.356 -3.543,1.474 -0.754,0.722 -2.25,-5.673 -0.661,0.089 -1.693,2.364 0.674,1.002 0.134,3.019 -1.827,12.965 m 22.686,-335.496 v 0 l 3.139,-10.468 -0.133,-2.02 -1.358,-1.337 -1.633,1.457 -3.003,9.53 -1.727,8.314 -0.116,9.056 1.82,3.814 2.61,1.548 h 1.112 l 3.6,-1.947 2.709,-5.351 0.105,-1.061 -0.468,-1.479 -1.521,-1.52 -1.506,-0.339 -4.189,5.55 -1.137,-1.183 m -22.702,388.309 v 0 l 1.605,0.084 1.707,-3.198 -17.199,-4.589 -3.056,-0.116 -1.347,0.456 0.337,2.328 1.04,-0.629 6.229,2.2 9.496,2.408 m 24.288,-318.821 v 0 l -1.346,1.542 1.27,1.342 1.084,0.014 5.891,-3.718 4.078,0.011 2.314,3.351 -1.554,2.69 -6.177,5.68 -0.028,1.152 15.379,2.818 1.242,-1.095 -2.699,-1.781 -7.691,-1.755 2.937,-3.981 1.602,-3.732 -1.618,-4.742 -1.705,-1.606 -6.08,-0.01 m -41.913,580.05 v 0 l 1.934,-11.999 3.176,-11.491 2.217,-6.139 -0.358,-1.54 -2.002,-1.818 -1.753,1.581 -1.092,2.962 -3.918,12.743 -1.975,9.563 -2.748,24.457 0.135,6.019 1.323,1.316 1.053,-10e-4 1.358,-1.767 m 33.835,-440.269 v 0 l -2.57,3.669 -0.01,8.08 4.552,8.608 2.756,1.7 2.081,-0.02 0.369,-1.975 -3.184,-2.683 -3.578,-7.625 0.005,-3.112 1.362,-1.61 1.975,2.014 1.027,0.133 2.055,-0.118 3.667,-1.617 3.626,-3.723 v -6.05 l -3.295,-2.332 -1.116,-0.004 -5.617,2.567 m 0.655,4.314 v 0 l 3.968,-2.883 2.396,0.334 -0.34,2.51 -2.312,2.303 -2.696,1.557 -3.193,-1.591 m -8.555,205.494 v 0 l -2.68,-8.621 -1.917,1.35 -0.019,2.088 1.708,7.897 -0.681,1.013 v 1.055 l 0.828,1.976 v 6.993 l -0.827,3.031 1.314,1.315 1.722,-0.548 1.766,-13.752 0.815,-0.792 4.458,-1.823 10.469,-2.664 -2.202,-2.062 -1,0.598 -0.974,-0.652 -4.02,-0.133 -4.766,1.667 m -15.267,242.288 v 0 l 0.552,1.034 4.483,1.853 12.47,-1.946 -0.127,-2.436 -1.325,-1.326 h -4.052 l -1.978,0.837 -2.993,-10e-4 -1.346,-0.456 -0.143,-3.021 1.828,-21.965 -1.315,-1.384 -1.717,0.541 -2.25,22.074 -2.386,5.704 m 15.518,-127.725 v 0 l -1.558,3.688 -0.134,3.06 0.134,5.058 1.552,3.668 2.124,3.059 8.635,5.571 1.084,-0.015 1.313,-1.314 -0.001,-1.052 -5.651,-4.76 -2.5,-1.554 -2.552,-4.607 -0.004,-5.113 1.619,-3.666 0.777,-0.597 3.941,2.663 1.084,0.015 4.628,-2.569 0.668,-0.763 v -4.05 l -1.661,-1.759 -2.636,-1.577 -2.113,-0.004 -3.669,1.619 -2.962,1.962 m 4.617,-44.58 v 0 l 4.738,-2.828 2.686,-3.781 0.001,-4.052 -0.926,-1.607 -2.373,-1.729 -6.079,0.01 -3.759,3.662 -1.944,2.94 -1.624,4.752 2.551,7.662 3.125,3.129 1.986,1.028 6.657,2.553 2.387,-1.741 0.639,0.003 2.041,1.693 5.398,-2.313 9.548,-5.339 0.383,1.384 -2.725,8.877 0.148,1.335 1.909,3.127 3.182,-8.66 2.406,-10.565 -2.283,-1.513 -15.999,9.637 -1.001,-0.598 -1.973,1.65 -1.03,0.134 -3.05,-0.123 -4.63,-2.573 -3.316,-3.305 -0.386,-1.026 m 21.338,-257.914 v 0 l 1.017,-0.896 1.035,-0.133 5.022,0.133 1.325,1.326 -0.001,2.05 -3.664,2.762 -7.376,3.432 -1.569,2.591 2.231,1.513 1,-0.665 3.031,0.828 12.993,-10e-4 1.339,-0.455 -0.577,-1.748 -9.133,-2.666 4.159,-3.925 1.572,-2.634 -0.169,-1.358 -1.529,-2.511 -5.6,-2.553 h -2.117 l -5.618,2.573 -1.665,1.765 0.339,1.507 1.031,0.844 m 1.986,62.047 v 0 l -2.212,5.842 -0.777,-0.554 h -1.052 l -1.315,1.314 0.364,1.535 2.374,1.86 0.076,0.582 -1.838,4.992 0.336,2.4 1.582,0.075 2.812,-6.355 0.157,-1.475 12.69,-2.766 -0.418,-0.513 -11.23,-1.911 1.77,-5.359 -0.633,-1.038 1.651,-1.973 0.118,-1.024 -0.29,-1.312 -1.395,-1.893 -1.644,3.499 m -5.163,84.164 v 0 l 3.968,2.902 5.049,0.124 3.696,-1.701 2.312,-2.303 0.483,-1.486 -0.134,-4.022 -5.136,-5.284 -1.577,-2.636 -0.122,-3.05 0.456,-1.347 3.082,-0.019 3.918,2.704 1.057,-0.007 0.322,-2.361 -1.626,-1.724 -3.667,-1.616 -2.052,-0.119 -1.309,0.297 -3.048,2.164 -0.011,6.078 1.577,2.636 5.136,5.284 0.133,2.022 -0.508,1.512 -2.922,1.854 -2.051,0.122 -1.485,-0.482 -2.492,-2.354 -3.054,0.009 -0.441,1.343 M 201.72,921.815 v 0 l 1.754,-1.667 1.029,-0.133 6.023,0.133 1.273,1.352 -0.666,1.645 1.849,2.311 -0.116,2.102 -1.617,3.667 -2.059,2.06 -2.636,1.577 h -2.108 l -2.636,-1.577 -1.662,-1.759 -0.01,-7.08 m 1.312,13.392 v 0 l 4.111,1.024 4.908,-1.695 0.367,0.312 0.029,2.079 -4.835,13.945 0.467,1.478 0.977,0.87 h 2.052 l 0.976,-0.871 0.6,-3.128 1.764,-1.707 -0.729,-2.706 5.728,-20.881 0.12,-6.054 -1.005,-2.007 -1.508,-0.34 -0.973,0.642 -3.945,-2.661 -1.06,-0.124 -6.048,0.124 -3.578,1.938 -2.115,2.696 -1.619,3.669 -0.12,5.053 1.736,4.731 m 40.921,-588.431 v 0 l 0.358,-4.72 8.714,-1.826 -1.609,-2.145 -5.064,-0.135 -3.089,-12.91 -0.41,-0.037 -1.414,0.451 -0.141,1.032 -0.001,4.992 0.837,1.978 -0.001,3.049 -0.583,0.69 -6.255,2.287 5.944,2.544 -0.105,2.482 -0.837,1.977 0.456,3.332 1.536,-0.358 m -23.504,525.644 v 0 l -2.951,1.085 -5.073,0.944 -14.986,1.836 -42.055,-0.116 -13.927,-2.564 -48.9926,-12.054 -4.963,-2.114 -1.6888,-0.238 -2.3682,-2.698 -0.9969,0.596 -0.5036,-0.322 -1.7157,-2.18 -0.5688,0.409 -2.4027,-3.464 -2.2077,1.923 9.6722,8.085 7.745,3.006 48.9478,12.051 25.969,3.565 19.056,0.115 27.446,-2.721 10.288,-1.874 14.242,-4.224 0.499,1.333 -0.953,3.003 0.117,7.057 3.006,9.537 1.862,8.701 1.502,2 7.683,-4.511 12.005,-8.002 2.62,-2.57 2.962,-1.962 8.669,-3.619 3.113,0.004 6.243,3.194 3.032,1.044 11.677,2.61 h 15.987 l 32.014,-3.972 17,1.972 18.056,-0.115 22.997,-3.579 9.407,-2.791 18.287,-7.183 15.491,-7.636 11.447,-4.403 1.778,-1.733 -0.99,-2.049 -1.54,-0.358 -8.695,3.543 -22.491,10.636 -13.289,5.184 -8.24,2.686 -22.232,3.798 -21.99,-10e-4 -3.007,-0.97 -19.989,-10e-4 -22.014,2.972 h -20.987 l -9.709,-2.642 -5.022,-2.095 -2.249,-2.101 -3.087,-0.016 -11.617,4.576 -20.342,14.166 -1.947,-2.932 -4.518,-14.449 0.117,-2.054 1.639,-4.689 3.028,-4.25 -0.819,-1.003 -1.484,-0.482 -3.058,0.116 -15.878,4.736 M -402.02,474.532 v 0 l -0.844,-3.094 1.788,-5.993 0.751,-1.164 0.193,7.28 -1.61,5.138 m 9.021,-17.514 v 0 l -4.304,5.314 -0.813,0.025 -0.146,-1.028 0.133,-6.023 4.565,-6.182 2.137,2.183 0.133,1.03 -0.122,2.05 m 79.416,434.633 v 0 l -2.032,4.037 -0.775,0.596 -8.072,-2.692 -3.584,-1.841 -2.671,-3.731 0.169,-1.358 1.402,-2.388 5.303,-5.313 3.115,-0.395 1.729,2.344 0.124,1.059 -0.134,5.021 -0.837,1.978 0.134,3.022 1.323,1.315 1.328,-0.335 -0.599,-1.007 1.049,-1.274 1.616,-3.667 -0.004,-7.113 -1.939,-3.577 -2.369,-1.73 -1.06,-0.124 -4.048,0.124 -2.636,1.577 -5.099,5.101 -2.519,4.101 -1.972,-5.175 -0.694,-0.583 -9.308,1.834 -4.363,3.088 -2.717,4.365 -0.124,1.059 0.124,4.049 1.556,2.612 1.881,1.024 5.931,1.796 3.053,-0.121 6.662,-2.614 1.578,-1.751 -0.651,-0.974 0.163,-2.241 1.526,2.024 3.76,1.908 9.864,2.618 1.012,-0.678 1.054,10e-4 1.945,1.684 h 1.055 l 4.283,-4.127 4.393,-3.404 1.771,10.152 1.526,0.505 1.3,-0.463 -0.599,-1.005 0.784,-2.004 v -9.992 l -1.004,-2.007 -2.535,-0.359 -2.759,1.622 -2.141,-1.731 -1.074,0.121 -2.757,2.66 M -257.55,90.8297 v 0 l 3.683,0.0681 3.718,-4.3717 -0.009,-2.0538 -2.368,-0.3233 -2.284,2.1359 -2.38,1.4321 -0.661,0.7593 m -1.701,50.5517 v 0 l 0.394,-2.556 -2.368,-0.323 -1.228,1.083 -4.492,1.539 -0.595,0.705 -10e-4,1.051 1.316,1.324 4.052,-0.009 0.547,-0.976 m 147.432,493.989 v 0 l -0.792,-0.575 -1.471,2.028 2.463,1.887 16.7977,2.775 1.4778,-0.468 0.8614,-0.975 -0.3398,-1.509 -1.2274,-1.228 -7.7127,-1.66 M 29.5214,330.979 v 0 l -3.7685,4.794 -2.6151,5.673 -0.0036,8.113 2.5723,5.618 1.1034,1.108 5.6356,3.577 4.0807,-0.011 1.3157,-1.324 -0.001,-1.052 -0.6168,-0.722 -7.5335,-3.591 -2.5529,-4.608 -0.1237,-4.048 1.6673,-4.766 2.0325,-3.924 0.7609,-0.657 1.5063,0.339 1.0175,1.002 0.8434,0.972 v 1.055 l -1.6579,1.762 -4.0445,2.568 0.3603,1.125 0.9737,0.869 h 4.0527 l 2.9737,-2.851 1.3515,-1.474 0.0108,-4.08 -1.5775,-2.636 -3.7585,-3.662 -3.0522,10e-4 M 5.45459,731.147 v 0 l 3.73529,-1.862 3.09492,-3.095 3.2316,-5.259 2.3492,-5.373 0.1202,-3.052 -2.6405,-9.677 -5.0605,-9.019 -6.3097,-5.31 -1.47522,0.299 -1.00562,-0.6 -0.47827,1.304 0.14612,3.021 1.33832,-0.324 3.68957,2.515 3.10163,4.107 2.86147,6.588 1.8319,7.097 -0.1195,2.051 -3.5778,7.626 -4.02977,4.039 -5.20745,1.805 0.0979,2.498 1.32531,1.325 H 4.52551 M 21.4903,554.963 v 0 l 3.5665,1.2 8.9115,1.907 0.0164,9.426 -0.8369,1.978 -0.1339,4.02 1.9919,5.44 1.1235,-0.042 1.7264,-2.338 -0.8407,-3.058 0.1334,-14.022 1.3252,-1.326 1.0299,-0.133 h 3.9928 l 1.9777,0.837 2.0534,-0.01 0.3134,-1.367 -2.6937,-1.81 -6.355,-1.709 -16.1243,-1.746 -1.4934,2.27 M 32.7158,443.178 v 0 l 5.135,5.296 -0.3487,2.508 -1.976,1.869 -2.026,0.148 -6.0589,-0.133 -3.883,-1.732 -2.0859,0.023 -0.3234,2.369 1.6258,1.723 3.6666,1.617 8.0529,0.12 1.3079,-0.298 3.4826,-2.498 1.5774,-2.636 v -4.108 l -1.5776,-2.636 -5.136,-5.284 -0.1319,-2.022 0.4555,-1.347 2.0241,-0.141 1.4856,0.481 1.4905,1.345 1.0563,-0.007 0.3216,-2.359 -3.2962,-2.338 -2.0483,-0.123 -1.3132,0.299 -4.0845,2.542 0.0296,2.698 M 14.3788,779.075 v 0 l -2.0874,4.105 -1.1425,1.294 v 2.052 l 1.3233,1.316 h 1.0551 l 2.7607,-2.658 2.0461,-3.985 2.5334,-7.638 0.0012,-6.123 -2.5246,-8.611 -4.0593,-7.017 -3.7587,-3.662 -3.05412,0.009 -0.32318,2.369 5.139,5.289 2.0654,4.035 2.5117,9.586 M 47.2865,315.182 v 0 l -1.1281,1.291 0.3629,1.35 3.9521,-2.675 1.0301,-0.133 3.0506,0.123 2.7536,1.696 3.9427,5.945 3.6182,12.659 -0.0013,13.123 -1.6592,4.886 -3.8897,8.706 -3.5432,1.6 -0.6401,0.759 2.311,2.349 2.0798,-0.01 2.7622,-2.667 3.034,-5.952 1.8724,-5.507 1.6748,-7.163 5e-4,-5.124 -1.6284,-8.245 -2.7244,-9.136 -2.2303,-4.243 -3.0968,-4.099 -3.6637,-2.567 -4.0227,-0.133 -2.6381,1.059 M 28.5353,651.025 v 0 l 1.9142,-2.008 3.5041,0.026 3.0697,10.902 1.5064,-0.096 1.3216,-1.323 0.1333,-4.023 -0.837,-1.977 -0.0849,-2.531 3.8595,-1.927 -3.8133,-2.925 -0.0806,-0.593 2.9567,-15.057 -0.1337,-2.019 -1.324,-1.316 -1.8143,0.659 -2.4244,4.366 -4.5737,4.627 -1.9619,2.962 -6.4648,13.412 -3.5355,4.589 -2.6089,5.672 0.3534,1.535 0.9754,0.862 1.0525,-10e-4 0.761,-0.658 3.4254,-6.367 1.5733,-1.626 m -9.8306,218.661 v 0 l 3.9602,1.14 14.8086,1.746 2.7631,14.77 -0.0014,3.989 -0.8365,1.978 0.0144,2.05 0.8107,-0.023 2.9243,-2.368 -0.0277,-10.695 -2.7044,-11.742 -17.7885,-2.711 -2.816,-0.847 -1.5407,0.359 -0.8198,1.003 M 154.67,347.28 v 0 l -2.106,-1.402 -5.513,-1.907 1.919,-11.474 -0.468,-1.478 -1.581,-0.891 -3.903,14.801 -3.151,0.173 -1.723,2.343 0.022,1.085 1.361,0.312 1.973,-0.811 1.335,0.44 -0.82,3.032 0.001,3.993 0.496,1.37 0.535,0.015 3.902,-8.799 4.577,0.065 1.001,0.675 m -11.049,254.159 v 0 l -0.295,-1.267 -6.367,-3.426 -2.101,-2.098 -1.577,-2.636 -0.123,-6.051 1.005,-2.006 1.507,-0.34 1.976,0.828 6.023,-0.134 2.325,-2.325 0.011,-4.08 -1.854,-2.923 -1.512,-0.508 -5.022,0.133 -2.284,2.137 -2.356,1.407 -2.063,3.058 -1.639,4.689 0.006,6.115 2.573,4.63 4.104,3.103 4.631,2.575 2.079,-0.011 m 85.031,207.116 v 0 l -0.401,1.556 2.317,2.319 1.509,-0.34 1.491,-1.344 1.508,0.339 0.871,0.976 0.134,4.023 -0.97,3.007 0.001,5.993 0.453,1.344 1.472,0.121 2.045,-8.468 -10e-4,-4.99 -0.82,-3.032 1.339,-0.455 2.056,0.116 4.879,1.73 1.395,-0.333 0.008,-1.057 -0.93,-1.63 -1.688,-1.115 -4.73,-1.713 -4.055,0.118 m 15.016,-285.309 v 0 l 1.845,-0.659 2.716,-8.123 5.686,-2.324 -2.149,-1.579 -2.567,-0.207 -2.779,-10.621 -0.71,0.487 -1.003,-0.597 -0.478,1.304 -0.001,3.992 0.837,1.978 0.085,2.526 -6.817,2.945 1.353,1.906 3.053,10e-4 0.947,-0.694 1.362,0.374 -1.704,5.906 -0.115,2.057 m 16.507,-190.48 v 0 l -0.24,0.736 1.703,5.755 -0.134,4.02 -0.695,0.947 0.001,1.054 1.313,1.315 1.331,-0.155 2.388,-1.402 7.62,-7.57 2.635,-1.571 1.084,0.014 1.322,1.316 0.014,2.084 -3.727,7.888 0.334,2.396 2.054,0.009 3.284,-3.136 5.962,-3.962 3.701,-1.582 0.369,1.356 -0.827,1.976 0.147,6.021 1.833,-0.552 2.87,-7.413 -0.014,-4.085 -1.325,-1.326 -4.085,-0.014 -5.618,2.573 -1.04,0.985 -1.749,-6.153 -1.508,-1.39 -4.085,-0.015 -3.666,1.616 -2.06,2.06 -1.692,2.662 -2.065,1.414 -1.823,-3.328 -0.12,-4.055 0.784,-2.004 -0.299,-0.473 -1,-0.825 M 251.243,651.33 v 0 l -0.095,4.196 1.801,1.391 3.847,-21.197 1.707,-0.704 2.023,0.132 1.977,0.836 2.297,-0.479 -1.61,-1.79 -2.636,-1.577 -8.115,-0.006 -4.902,1.701 -1.01,-0.676 -1.055,10e-4 -1.337,1.351 2.31,2.347 4.051,-0.84 1.484,0.481 0.871,0.977 0.019,6.088 m -0.392,-8.353 v 0 l 0.026,0.594 m 6.946,-48.965 v 0 l 3.109,0.027 3.666,-1.616 3.626,-3.723 0.134,-4.023 -1.059,-2.636 -2.373,-1.729 h -7.108 l -2.635,1.577 -5.099,5.101 -2.573,4.63 v 7.108 l 2.573,4.63 1.362,1.949 2.742,2.154 4.657,2.535 1.377,-1.293 0.069,-1.576 -5.225,-2.787 -4.549,-7.61 -0.005,-1.116 3.573,-7.625 2.104,-2.104 4.63,-2.573 1.056,-0.108 1.48,0.467 1.841,2.031 -1.516,2.637 -2.753,1.697 -2.08,-0.01 -0.975,-0.651 -1.002,0.819 -0.348,2.506 M -364.757,252.331 v 0 l -0.095,3.195 1.322,1.323 1.509,0.094 2.982,-12.795 0.963,-2.053 1.605,0.055 0.972,0.649 1.298,-1.299 -0.846,-1.552 -2.874,-1.894 0.069,-4.58 0.837,-1.978 10e-4,-10.99 -2.756,-9.75 -0.706,-0.597 -1.771,0.616 -1.582,3.691 0.798,2.034 -0.669,1.753 2.684,2.19 0.001,10.053 -0.837,1.978 -0.18,4.456 -9.812,2.868 0.564,1.406 8.246,1.864 m 6.491,-71.216 v 0 l 8.049,3.134 18.209,-0.297 -3.684,-2.59 -18.28,-2.872 -1.593,-1.698 0.155,-1.331 1.402,-2.388 5.57,-5.62 6.002,-8.004 4.575,-8.632 0.121,-2.05 -0.478,-1.305 -2.793,2.617 -3.424,6.368 -3.003,4.006 -9.57,9.62 -1.962,2.962 -1.613,3.668 0.004,1.116 m -34.421,707.245 v 0 l -3.043,5.94 -1.666,4.765 0.124,9.048 2.573,4.629 1.099,1.102 2.636,1.577 2.048,0.122 1.313,-0.299 4.052,-2.543 -0.333,-0.976 -2.063,0.667 -4.925,-1.801 -2.4,-3.478 -0.083,-3.533 12.239,-2.796 2.453,6.993 2.828,1.971 4.921,1.66 3.414,-1.752 -1.498,-1.246 -4.659,-1.62 -2.256,-2.249 -0.481,-1.486 0.141,-2.024 1.347,-0.456 3.058,0.115 9.37,2.862 -0.082,1.536 -0.679,1.005 1.783,3.385 1.847,-0.414 -0.638,-1.045 1.706,-6.898 0.237,-3.722 1.441,-1.694 -2.554,0.377 -2.741,5.176 -1.031,-0.95 -10.489,-3.454 -2.612,-1.819 2.631,-6.7 1.964,-2.966 4.095,-4.095 2.636,-1.578 3.08,0.011 3.641,2.545 1.522,2.021 0.173,-3.268 -1.697,-2.754 -2.611,-1.554 h -6.108 l -2.636,1.577 -2.31,2.084 -1.527,-1.794 -4.411,-1.867 -1.123,0.002 -5.616,2.567 -6.108,6.103 m 24.031,-413.072 v 0 l -4.579,17.725 2.119,2.245 1.965,-2.488 1.093,-2.962 3.525,-12.697 0.193,-2.566 3.872,-1.995 -0.041,-1.13 -2.37,-1.862 -0.508,-1.512 v -10.993 l 0.97,-3.007 v -6.993 l -0.482,-1.484 -0.975,-0.869 -1.765,-0.009 -0.579,0.792 -2.886,23.841 -6.735,-1.639 -1.543,0.362 -0.87,0.975 -0.019,1.73 1.076,0.737 8.76,2.13 m 30.797,-382.3584 v 0 l -2.336,18.3169 -1.748,6.6605 -1.546,3.753 0.023,2.087 2.339,0.456 1.522,-0.516 1.679,-4.744 1.784,-2.5972 2.335,2.1612 2.252,1.228 15.398,7.313 1.357,-1.357 -2.639,-3.76 -14.368,-7.4237 -2.658,-2.7609 10e-4,-1.0525 5.651,-4.7598 2.38,-1.4302 8.833,-8.8127 1.692,-2.6624 3.136,-3.2837 -0.009,-2.0538 -2.368,-0.3233 -2.608,1.9248 -4.581,6.1164 -2.813,2.8328 -2.662,1.6921 -2.62,2.5698 -4.695,3.5156 -0.479,-1.3041 -0.015,-8.9966 0.147,-2.0259 0.837,-1.9774 v -5.993 l -0.784,-2.0035 0.642,-0.9726 -0.008,-1.0561 -1.359,-0.312 -0.705,0.5948 -1.604,4.7088 0.818,2.0406 M -378.45,875.941 v 0 l -2.566,8.017 -5.423,1.91 -6.058,0.116 -1.326,-0.505 5.535,-10.663 5.063,-5.066 3.666,-1.616 3.055,-0.118 1.346,0.456 0.009,2.054 -1.139,1.289 m 45.827,-651.867 v 0 l -3.056,7.152 -2.352,8.338 0.003,5.121 2.574,5.619 2.007,3.012 2.1,2.097 3.597,1.846 6.026,1.736 3.086,-0.031 -0.025,-0.813 -1.315,-1.313 -6.37,-3.425 -4.099,-3.097 -1.943,-2.941 -1.635,-4.687 -0.002,-1.126 2.342,-9.313 3.019,-7.09 1.482,-2.505 8.873,-9.002 -0.009,-3.054 -1.37,-0.314 -4.944,3.819 -4.813,4.833 m -7.433,229.369 v 0 l -3.531,5.597 -2.617,6.665 0.004,10.113 7.573,13.63 3.308,3.318 1.51,0.333 0.331,-1.395 -1.54,-3.699 -7.186,-14.182 -0.12,-6.053 1.666,-4.765 10.143,-20.213 -1.332,-1.393 -0.622,-10e-4 -4.156,5.68 m 15.743,-281.961 v 0 l 2.676,1.012 1.702,-2.173 2.474,-1.526 2.543,-3.64 v -4.052 l -3.325,-3.325 -6.08,-0.011 -2.636,1.577 -2.098,2.101 -3.574,6.63 -0.004,7.113 1.619,3.669 1.962,2.962 1.101,1.099 4.629,2.567 3.082,-0.698 1.978,1.643 0.38,-1.957 -7.193,-3.682 -3.554,-6.608 -0.124,-1.06 0.124,-4.048 2.838,-4.917 3.47,-2.391 2.08,0.011 1.273,1.351 -1.873,2.634 -4.792,3.735 0.365,1.113 m 9.004,-78.8364 v 0 l -2.805,2.6899 -2.567,7.6032 v 2.1231 l 1.821,7.1318 1.027,1.7801 4.796,4.7753 3.666,1.616 2.12,0.003 5.124,-1.651 -7.379,-2.168 -1.78,-1.0283 -2.39,-2.5291 1.855,-1.9501 3.141,-1.6179 2.16,-2.7457 2.679,-6.6784 -1.686,-3.6896 -2.095,-2.0947 -2.636,-1.5775 m -5.006,15.6736 v 0 l -0.53,-1.3073 0.116,-6.0626 1.619,-3.6663 0.721,-0.6158 1.081,-0.0157 3.296,2.3325 v 4.0502 l -3.661,3.7584 m 4.232,65.5693 v 0 l 4.132,0.284 4.629,2.576 0.615,0.788 -4.045,5.271 -2.615,5.673 v 3.108 l 1.577,2.636 2.79,2.61 0.479,-2.296 -0.836,-1.978 -0.014,-4.085 2.574,-5.619 8.985,-11.988 4.016,-2.543 -1.183,-1.142 h -3.052 l -6.002,6.674 -4.049,-2.033 -8.863,-2.657 -2.088,0.024 -0.394,2.889 m -12.362,322.132 v 0 l 3.73,2.684 h 2.108 l 4.63,-2.573 7.069,-6.989 2.259,5.765 2.235,7.63 2.151,-2.549 0.088,-4.64 -2.031,-7.011 -1.928,-13.958 -1.957,-0.504 -2.519,9.825 -1.264,2.327 -8.305,8.317 -1.529,0.469 -1.925,-1.998 -2.39,-4.419 -0.004,-7.113 2.573,-5.618 1.144,-1.297 0.117,-1.026 -0.44,-1.343 -2.671,-0.049 -3.177,5.633 -1.666,4.765 0.124,7.048 m 29.317,-377.7019 v 0 l 11.316,4.8284 -5.979,13.8725 -1.625,4.91 1.341,1.401 0.632,-0.003 2.174,-3.608 6.902,-15.9884 2.441,-8.3987 2.185,-3.3384 v -1.055 l -1.315,-1.3146 -1.533,0.3648 -3.703,7.6535 -0.767,0.6743 -2.083,0.015 -9.882,-3.726 -1.538,0.3579 -0.82,1.0026 m -41.725,770.477 v 0 l 2.393,2.887 0.972,-0.339 0.01,-5.052 -2.324,-2.315 -1.507,0.339 -0.871,0.977 v 2.052 m 49.306,-622.378 v 0 l 3.99,-2.005 1.535,0.354 0.871,0.977 0.018,5.087 -1.711,6.969 2.34,2.268 1.608,-2.22 1.763,-6.017 -0.018,-8.087 -1.661,-1.759 -2.636,-1.577 -1.06,-0.124 -3.048,0.124 -4.439,2.763 -2.692,-6.056 -2.761,-1.707 -4.08,0.01 -1.759,1.662 -4.429,5.899 -1.759,-1.551 -1.507,0.339 -0.871,0.977 -0.134,4.022 0.837,1.978 0.132,2.022 -0.836,1.978 -0.01,2.079 1.731,2.312 1.114,-0.365 1.231,-1.231 2.245,-8.144 4.256,-6.315 1.758,-1.652 1.507,0.339 0.871,0.977 0.134,1.03 -0.119,5.055 -1.732,3.882 -0.118,3.055 0.456,1.346 2.052,0.008 0.484,-0.373 3.707,-5.667 m 164.806,589.169 v 0 l -1.386,1.53 -0.001,0.622 3.34,2.72 16.02,0.134 1.311,-0.302 2.088,-1.553 v -1.261 l -2.339,-1.731 -4.051,-0.123 -3.007,0.97 -4.996,0.014 -2.054,-0.137 -2.891,-1.719 m 13.96,-254.975 v 0 l -0.496,1.322 0.066,1.568 7.354,2.809 4.0871,-0.016 2.3155,-2.324 -0.314,-1.37 -3.0537,-0.009 -0.9446,0.694 -1.0913,0.022 -5.697,-1.643 -1.22,-1.066 M 31.9991,699.457 v 0 l -0.8549,4.097 1.7229,2.342 1.6613,-0.047 1.2706,-1.349 -0.6518,-0.974 -0.1325,-2.019 1.9713,-10.014 -0.0018,-7.989 -0.4554,-1.339 -1.5089,0.332 -0.8715,0.977 -0.2617,2.721 -1.1254,1.317 0.9547,1.254 -1.5862,7.672 M 62.8555,203.497 v 0 l -0.8407,2.007 0.1229,6.05 2.5734,4.63 4.8166,4.839 2.916,1.833 1.1107,-0.002 1.6085,-1.355 -7.4478,-7.309 -1.5773,-2.636 0.0192,-6.082 2.3392,-0.456 1.978,0.836 2.0842,0.013 3.6663,-1.615 2.6375,-3.696 v -4.108 l -2.6375,-3.696 -3.7183,-1.593 -2.6966,1.558 -4.0987,4.101 -2.5736,4.63 m -2.8577,66.785 v 0 l 3.4352,-6.421 2.7851,-2.81 3.9456,-2.862 2.0501,-0.121 1.3469,0.455 0.0087,5.054 -3.6613,3.759 -2.6669,1.707 -0.4918,1.508 0.4406,1.343 2.0243,0.141 1.4855,-0.482 5.2676,-5.277 1.6161,-3.666 -0.0035,-4.113 -1.5544,-2.612 -2.7535,-1.696 -1.0601,-0.124 -3.0483,0.124 -2.6358,1.577 -7.0977,7.1 -1.9189,3.737 -1.661,4.887 0.0019,3.12 3.5777,7.625 1.104,1.104 6.629,3.568 1.535,-0.354 0.9048,-1.545 -5.3575,-2.935 -1.816,-1.838 -2.5736,-4.63 m -13.8692,234.73 v 0 l -0.1306,8.27 2.5733,4.63 1.3625,1.949 4.7362,4.152 2.6359,1.577 2.0802,-0.011 1.2732,-1.351 -5.8148,-6.001 -1.1275,-0.58 -1.3425,-1.978 -2.3803,-5.382 v -3.118 l 2.6145,-6.662 3.6973,-2.641 1.056,-0.108 1.4799,0.467 1.8691,1.977 -6e-4,2.048 -0.5827,0.691 -6.2231,1.833 0.1073,1.481 3.294,2.335 1.0543,0.108 3.6899,-1.685 2.6614,-2.759 v -6.052 l -4.3252,-4.326 -6.0804,-0.01 -2.6358,1.577 -3.1081,3.115 M 31.4581,763.828 v 0 l 1.3847,-0.297 0.1412,-1.035 6e-4,-12.993 -0.4825,-1.485 -1.736,-1.713 -1.6337,4.135 -0.1184,7.053 1.7575,5.753 m 3.4935,65.002 v 0 l 1.5975,-4.686 -0.0073,-1.118 -1.7246,-2.31 -1.1139,0.366 -1.2532,1.262 -2.7971,12.236 -3.6617,1.769 0.4926,0.735 -0.595,0.996 0.327,0.511 3.3557,1.953 -1.8711,6.544 0.1345,3.02 1.3242,1.316 1.7561,-0.597 2.6369,-7.687 0.1514,-2.46 16.4863,-2.068 2.0021,0.77 0.3317,-0.276 0.0132,-2.046 -0.5515,-0.67 -17.2836,-1.911 M 132.021,508.468 v 0 l 0.964,3.035 10e-4,14.99 -1.856,8.945 -0.116,3.056 0.303,1.311 2.135,2.166 1.528,-0.468 0.819,-1.003 -0.784,-2.004 -10e-4,-4.989 1.726,-13.267 5.76,1.731 9.466,-2.039 0.018,-0.355 -0.692,-1.773 -14.248,-1.846 -3.089,-11.912 -1.798,0.426 m 131.698,163.025 v 0 l -0.7,0.967 -0.016,1.095 1.611,3.666 3.065,3.063 7.626,3.578 3.691,0.031 1.69,-2.369 -0.324,-0.504 -0.998,-0.823 -0.974,0.651 -3.08,0.01 -4.63,-2.573 -3.668,-3.763 -0.01,-3.08 1.577,-2.636 2.1,-2.098 7.626,-3.578 3.053,-0.12 3.695,1.704 0.607,0.782 -0.32,0.501 -2.315,1.33 -7.406,2.441 -0.552,0.731 2.271,2.348 2.084,0.014 5.373,-2.349 3.069,-2.018 0.851,-0.972 v -4.053 l -2.626,-2.723 -3.667,-1.616 -3.119,-0.002 -6.38,2.349 -6.193,3.593 -2.718,3.399 m -15.625,259.504 v 0 l -6.812,8.839 -2.573,4.63 -0.036,2.686 2.368,1.689 0.776,-0.597 1.748,-3.718 5.721,-8.696 5.57,-6.62 3.231,-5.259 2.349,-5.372 0.119,-3.055 -0.455,-1.339 -1.776,0.611 -4.465,9.408 m 12.271,-201.221 v 0 l -0.404,1.56 1.318,1.328 1.031,0.133 2.05,-0.122 4.629,-2.573 3.102,-3.099 1.577,-2.636 v -4.108 l -2.679,-3.735 -4.694,-2.557 -4.739,1.618 -2.94,1.943 -2.095,2.095 -2.567,3.663 -0.014,8.085 4.577,9.626 4.099,4.101 2.636,1.577 2.08,-0.011 1.36,-1.893 -3.353,-1.93 -3.82,-4.842 -3.579,-7.627 -0.12,-4.053 1.701,-3.696 2.095,-2.095 2.636,-1.577 3.08,0.01 2.325,2.326 0.011,2.08 -1.697,2.754 -2.916,1.92 m 15.298,-206.271 v 0 l -8.052,5.843 -0.479,-2.297 0.836,-1.977 -10e-4,-4.052 -1.803,-1.39 -2.915,14.353 0.364,1.543 0.975,0.862 1.509,-0.34 4.829,-4.787 7.662,-5.557 1.37,0.314 0.143,4.022 -0.297,1.308 -2.54,3.672 -0.131,2.022 0.51,1.333 3.698,-1.58 4.589,-3.536 6.632,-3.575 2.397,0.334 0.008,4.054 -1.693,1.945 0.163,1.338 1.394,1.899 1.418,-0.782 2.718,-3.4 v -7.052 l -2.325,-2.326 -5.08,-0.01 -6.702,3.607 -1.822,-6.876 -2.368,-1.725 -1.534,0.352 m -19.518,322.625 v 0 l -8.765,3.635 -2.198,-6.647 -0.775,0.656 -3.633,17.673 -0.116,4.058 0.454,1.344 1.531,0.095 2.865,-7.377 0.242,-4.7 3.668,-2.181 11.449,-4.43 0.617,-0.723 -0.339,-1.504 -1.002,-0.819 -0.974,0.651 m 11.982,-223.74 v 0 l -8.418,2.823 0.061,1.594 1.323,1.322 15.02,0.135 4.205,-1.736 -0.702,-1.193 -5.805,-2.039 2.093,-1.828 1.577,-2.636 0.108,-1.054 -1.685,-3.69 -2.707,-1.916 -6.076,-1.747 -7.413,2.798 0.018,1.185 2.365,1.692 1.303,-1.072 3.729,-1.6 5.627,1.928 1.691,2.394 -0.903,1.673 M -383.548,93.1629 v 0 l 4.074,-0.0143 1.316,1.3239 v 1.055 l -1.665,1.7657 -5.65,2.536 -0.51,-1.333 0.121,-2.0504 M -115.457,813 v 0 l -2.064,0.144 -1.983,0.84 -2.022,-0.132 -1.605,-0.717 -1.73,2.31 -0.035,1.688 2.34,1.722 1.119,0.01 14.57,-2.966 1.689,-2.372 -2.36,-2.362 -5.9,1.703 m 16.9699,-303.847 v 0 l -2.0323,0.778 -1.0002,-0.598 -1.3414,1.271 0.34,1.509 2.0434,1.859 11.7483,-1.644 0.5055,-0.698 -3.2411,-2.36 M -92.4568,445 v 0 l -5.0696,0.148 -0.9764,0.871 -0.3931,2.113 2.4156,1.72 16.7781,-1.661 0.4989,-0.695 -2.2705,-2.348 m -11.0003,463.856 v 0 l 1.9206,-1.866 6.6861,-0.036 1.7288,2.344 0.109,1.053 -1.7209,4.726 -4.7489,3.574 -1.0006,-0.599 -1.0001,0.599 -1.0001,-0.598 -0.9726,0.642 -1.0548,-10e-4 -2.3239,-2.316 -0.1332,-2.021 1.7025,-3.694 0.7838,-0.609 1.0041,0.598 0.324,-0.275 m 25.692,-1.735 v 0 l -0.0266,-0.593 m 40.986,-399.131 v 0 l 3.0337,-5.133 3.2017,-7.639 0.1263,17.234 -1.3467,0.456 -7.0184,-0.147 -0.1509,-0.637 m 21.18962,-68.041 v 0 l -0.43549,1.886 3.3606,1.82 8.05481,0.119 1.3385,-0.455 -0.56641,-1.741 -6.70654,-1.658 m 3.93738,-96.002 v 0 l -3.294924,2.371 0.537353,0.72 5.207521,1.809 0.0354,2.468 -0.83685,1.978 -0.13276,3.022 0.48249,1.485 1.4751,0.926 2.76586,-12.126 3.16884,-1.957 -2.1512,-1.584 -1.7304,-11.704 -0.50245,-0.377 -1.50329,0.338 -0.86225,0.975 0.82709,3.031 -0.14203,8.025 M 47.9989,716.457 v 0 l -0.1295,2.1 -1.8545,5.949 0.1435,2.019 0.9818,0.334 2.1765,-3.609 2.3915,-5.428 2.1295,-3.132 3.933,-2.013 9.4246,-3.398 1.6994,-1.441 -2.4015,-1.68 -7.9356,2.636 -7.0627,4.006 -0.4632,-1.3 0.8032,-3.029 -2.3611,-0.322 -1.3254,1.324 m 9.2766,-120.34 v 0 l 17.2844,-8.842 -1.1831,-1.143 -3.0805,-0.01 -15.3555,7.793 -1.9298,-9.39 0.6389,-1.041 -1.2969,-1.298 -0.7487,0.573 -1.5831,3.691 0.8141,2.037 -0.1154,5.059 -2.698,9.911 1.3558,0.369 1.6059,-0.916 1.7285,-2.372 0.2,-2.554 m -2.008,173.919 v 0 l -2.036,-6.384 -1.2996,0.276 -1.5637,2.699 1.8315,5.996 -0.0012,5.99 -0.8268,3.032 1.3512,1.337 h 0.6216 l 1.7308,-2.312 0.2406,-5.686 3.7139,-3.156 18.0913,-8.886 -2.3539,-1.687 -2.112,-0.004 -10.445,4.369 -4.1804,2.208 M 82.5118,285.154 v 0 L 82.066,287 l 6.4529,2.062 14.9841,1.908 1.332,-0.441 -0.357,-1.534 -1.811,-1.049 -13.5908,-3.012 0.4253,-0.919 4.7871,-4.831 2.5676,-4.629 -0.9304,-2.688 -2.3725,-1.729 -2.1138,-0.005 -4.8989,1.651 -4.4597,2.17 0.0782,1.576 1.3449,0.453 2.0498,-0.121 5.8867,-2.723 1.4019,0.333 0.1406,1.032 -0.1318,2.022 -0.8524,0.974 -5.8088,5.785 M 63.73,636.719 v 0 l 0.1214,-8.245 -1.652,-1.979 2.3609,-0.362 4.9031,1.7 1.2472,-1.125 -1.7462,-1.814 -7.4039,-2.762 -2.0605,-0.13 -2.0616,0.129 -9.3356,2.867 0.9164,1.505 1.4844,0.481 2.0568,-0.117 4.8787,-1.734 2.0569,-0.116 1.3468,0.455 0.1432,9.022 -2.8548,10.944 -0.1156,3.058 0.4555,1.339 1.7585,-0.591 M 88.4708,317.022 v 0 l 0.5137,-1.52 -0.1331,-3.028 -1.3607,-1.339 -2.1739,2.06 -0.3028,1.311 -2e-4,13.988 1.9917,5.407 1.4969,-0.92 0.4823,-1.485 v -8.993 l -0.9686,-3.007 m -6.5259,173.485 v 0 l 2.8197,1.857 2.9367,4.934 1.7391,4.734 -0.1203,9.053 -2.5393,6.667 -6.1882,12.22 0.0109,2.08 1.3237,1.316 h 1.0548 l 1.7221,-1.617 4.259,-8.257 4.359,-11.407 0.1184,-10.055 -1.7574,-5.755 -3.7305,-5.753 -6.9719,-5.849 -1.0259,-0.118 -1.3431,0.441 -0.0549,2.661 m 10.6101,-28.964 v 0 l 0.7545,0.682 5.0275,0.135 3.6976,-1.703 2.9982,-1.998 3.095,-3.095 4.053,-6.265 4.522,12.515 -0.689,3.083 0.592,0.181 3.708,-1.69 0.396,-2.575 -4.371,-13.396 -1.49,-3.536 -2.862,-4.397 -1.669,0.041 -0.693,0.589 -2.438,8.433 -2.056,4.011 -4.0981,4.101 -2.6359,1.577 -2.095,0.118 -1.4629,-1.323 -1.9674,-8.157 2.8128,-11.029 -1.3413,-1.27 -1.658,0.887 -2.708,5.353 -0.1333,2.059 0.1333,11.059 M 104.505,205.146 v 0 l -0.79,0.669 -1.792,3.317 -2.7376,2.155 -10.1223,4.715 0.0881,1.527 1.3823,1.3 7.4329,-3.325 3.5056,-2.346 1.057,0.007 0.313,1.362 -0.694,0.947 -0.147,2.026 0.015,5.996 0.455,1.339 1.763,-0.598 2.752,-12.744 -0.143,-6.021 M 76.48,668.952 v 0 l 1.0149,0.85 1.0051,-0.601 1.0004,0.598 1.749,-1.574 1.6161,-3.667 0.2419,-5.7 3.6675,-2.181 10.2026,-4.21 1.8788,-1.965 -1.3839,-0.344 -0.9453,0.685 h -1.0547 l -1.0004,-0.665 -10.9448,4.651 -0.5112,-1.333 -0.001,-3.993 0.837,-1.977 0.0132,-3.085 -1.8232,-3.327 -1.0248,0.386 -0.8683,0.974 -0.1183,1.026 0.9395,2.997 -1.7418,18.801 -0.3066,0.833 -2.3973,1.866 m -2.2347,161.254 v 0 l -0.1555,6.307 2.5737,5.62 1.9863,2.988 6.7692,2.667 0.5133,-0.336 0.8722,-0.968 0.0697,-1.576 -5.077,-2.641 -2.7038,-4.758 0.0107,-7.081 1.3509,-1.272 0.9745,0.651 4.0801,0.01 5.7559,-3.7 2.5522,-4.608 0.1234,-1.06 -0.1233,-3.049 -1.5795,-2.635 -0.7589,-0.661 -4.0781,-0.011 -2.6359,1.577 -5.095,5.094 -3.0081,4.014 M 94.4742,572.972 v 0 l 0.3927,1.588 -1.9262,7.403 -2.4668,-0.111 -0.9466,-0.694 -1.3696,0.314 -0.0083,2.051 0.382,0.494 4.3687,1.995 -1.7677,5.427 -0.1164,3.057 0.4789,1.304 2.3045,-2.3 -0.6289,-1.034 1.5799,-3.691 1.0916,-1.248 -0.6425,-2.033 0.2765,-0.332 2.0496,-0.014 1.9779,0.837 h 2.9925 l 2.004,-0.784 1.001,0.598 1.2,-1.06 -9.371,-2.742 -1.2044,-0.809 0.0223,-3.714 0.821,-1.974 -0.7683,-2 0.6421,-0.973 -0.008,-1.056 -1.3625,-0.313 -1.2759,1.347 M 115.462,268.838 v 0 l 1.341,0.653 -0.602,1.013 0.295,0.294 0.978,-0.65 2.084,-0.013 3.363,1.819 -0.069,2.572 -0.837,1.977 0.001,2.993 0.478,1.304 1.471,-0.814 2.974,-7.864 2.564,0.863 2.993,-0.001 1.339,-0.455 -0.61,-1.776 -3.664,-1.617 -1.47,-0.155 -2.828,-15.179 -0.547,-0.505 -1.572,2.149 0.841,3.057 -0.143,9.025 -1.402,0.332 -3.88,-1.725 -1.693,-0.031 -1.691,2.377 m 3.246,80.665 v 0 l 3.136,-0.281 2.972,-1.822 -1.004,-0.895 -4.02,-0.134 -5.446,1.904 -1.925,-6.356 0.664,-2.063 -1.272,-1.341 -2.027,0.868 0.485,2.477 -0.116,8.059 -2.855,9.944 0.134,3.02 1.152,1.186 4.419,-11.901 M 92.8766,845.074 v 0 l -1.6995,2.397 0.8586,1.538 3.3229,1.167 20.0674,2.795 3.013,0.891 1.384,-0.383 -2.605,-3.732 -13.089,-3.697 3.343,-2.028 1.813,-1.832 1.577,-2.636 -0.011,-4.08 -1.661,-1.759 -2.636,-1.577 h -2.108 l -4.6287,2.576 -0.6152,0.788 2.2699,2.34 1.509,-0.34 1.493,-1.353 2.368,0.323 0.009,2.054 -2.378,2.495 -2.076,1.173 m -2.8695,-77.195 v 0 l -0.3714,1.522 0.6673,0.77 11.6696,4.551 2.404,-1.712 0.205,-1.277 1.765,-1.708 -0.367,-1.128 -2,-1.816 -2.974,2.65 -1.023,0.119 -8.969,-2.799 m 12.745,-143.368 v 0 l 4.053,7.994 1.044,3.032 2.493,10.609 0.116,2.055 -1.936,12.68 -4.736,13.05 -1.085,2.028 -7.188,1.815 0.079,1.088 1.656,1.116 4.728,1.714 1.63,-0.086 3.179,-4.677 4.201,-11.286 2.473,-9.442 -0.117,-11.055 -2.635,-10.84 -4.946,-10.782 -1.761,-1.658 h -1.054 l -1.272,1.342 m 201.36,-286.629 v 0 l -2.432,14.566 0.003,2.123 1.946,5.571 2.368,1.73 2.112,0.004 3.67,-1.618 2.962,-1.962 2.095,-2.095 1.577,-2.636 -0.011,-4.08 -1.661,-1.759 -2.636,-1.577 -1.054,-0.108 -1.302,0.282 -5.677,3.511 -0.358,-0.301 -0.032,-2.083 3.737,-15.878 0.117,-5.058 -1.005,-2.006 -2.506,-0.348 -1.273,1.35 0.651,0.975 0.134,5.019 m 0.5,22.541 v 0 l 7.013,-4.872 2.398,1.705 -0.395,3.115 -2.319,2.307 -4.658,2.583 -2.387,-2.319 M 281.425,924.85 v 0 l 3.102,0.298 1.324,1.326 0.014,2.084 -3.728,10.88 0.36,1.542 0.974,0.869 1.697,0.031 0.97,-1.461 4.862,-13.357 4.496,-0.047 3.008,0.969 2.339,-0.457 0.091,-2.534 -8.881,-3.021 -0.033,-0.399 0.292,-1.376 3.403,-5.388 2.574,-2.626 2.422,-4.367 2.14,-2.29 0.132,-2.022 -0.455,-1.347 -3.052,-0.008 -0.759,0.661 -4.428,7.374 -2.578,2.632 -4.425,8.367 -0.759,0.657 -1.087,0.02 -3.665,-1.614 -0.597,-0.776 4.326,-7.504 3.361,-7.408 -0.022,-5.086 -2.901,-0.387 -4.439,10.883 -6.326,10.504 1.639,1.816 m 31.681,-253.159 v 0 l -3.997,2.67 -1.001,-0.598 -1.972,1.641 -2.027,-0.641 -2,1.598 -0.973,-0.642 -1.056,0.008 -0.313,1.363 1.316,1.323 2.086,0.016 10.913,-3.696 0.51,1.333 -0.113,2.058 -1.736,7.875 0.337,1.398 1.056,0.006 1.682,-1.566 2.658,-11.715 0.118,-3.056 -0.483,-1.485 -1.553,-0.905 -2.399,2.879 M 4.23047,910.352 v 0 l -0.30029,0.787 -2.37659,1.722 -1.059327,0.124 -18.053063,-0.12 -5.7488,-2.623 -1.5135,2.229 0.6439,0.818 4.4668,1.887 8.2169,1.81 h 4.98654 l 15.80231,-1.792 0.54559,-0.671 0.00159,-1.05 -0.82752,-1.977 -0.00116,-6.99 1.97225,-10.013 0.0127,-8.993 -0.1464,-2.026 -0.652,-0.974 0.6217,-1.028 -1.69161,-2.337 -2.1253,0.892 -2.49024,5.783 -2.98883,-3.662 -6.08026,-0.011 -4.91638,2.839 -0.77928,0.799 -1.616,3.666 0.0033,5.113 3.33857,5.297 h 7.05011 l 4.75861,-4.661 1.71216,-2.665 0.84045,-0.049 0.14868,7.017 M 29.4476,525.827 v 0 l 1.5348,0.117 3.0435,-9.892 2.4999,0.096 0.9466,0.694 1.3621,-0.313 -0.3322,-1.51 -1.5206,-1.522 -2.0632,-0.591 -2.7158,-11.187 -0.6791,-0.56 -1.3663,0.313 -0.1418,1.032 -5e-4,5.993 0.8366,1.977 -0.0093,2.054 -2.3389,0.456 -3.0312,-0.826 -1.295,1.37 2.342,3.688 1.9372,-1.186 1.3863,0.442 0.0093,4.054 -0.837,1.977 m 130.221,51.844 v 0 l -0.209,1.133 0.443,1.361 1.615,0.06 0.878,-1.838 2.023,-11.57 -0.002,-3.989 -0.505,-1.327 -2.429,1.662 -1.272,1.665 1.193,1.949 m 74.112,170.328 v 0 l 0.895,-1.009 2.092,-8.741 3.456,0.117 1.978,0.837 3.353,-0.488 -1.969,-2.01 -1.206,-0.577 -6.641,-1.958 -0.026,-6.448 0.953,-3.004 -0.439,-1.335 -1.533,0.356 -0.979,1.635 -2.095,8.773 -1.395,-0.772 -1.055,10e-4 -1.271,1.342 2.268,2.349 1.446,0.173 m 74.756,10.772 v 0 l 0.191,-2.349 -1.577,-2.635 -3.095,-3.095 -2.636,-1.577 -7.113,-0.004 -3.907,1.695 -1.035,-0.629 -1.341,1.272 0.339,1.508 0.977,0.871 2.084,0.014 3.883,-1.731 h 4.117 l 3.756,1.706 1.548,2.606 0.108,1.056 -0.494,1.506 -3.29,2.278 -11.37,5.428 -0.664,0.758 -0.1,1.498 7.249,2.242 18.167,3.619 0.395,-0.962 -3.652,-3.127 -13.144,-3.594 5.117,-2.86 3.981,-2.981 m 26.364,-242.165 v 0 l 1.249,1.532 -4.878,15.459 -4.189,3.683 -2.534,4.656 2.32,2.325 1.52,-2.046 2.657,9.011 4.51,-2.473 2.101,-2.099 1.961,-2.962 1.74,-4.734 -0.135,-6.018 -4.742,-3.332 -0.08,-0.595 2.836,-7.991 -0.004,-2.112 -1.728,-2.344 m -26.634,400.054 v 0 l -1.341,1.317 0.621,1.776 11.292,4.261 8.835,2.507 2.892,22.265 0.678,0.559 1.051,10e-4 1.324,-1.316 0.134,-1.03 v -9.993 l -0.97,-3.007 v -4.993 l 0.482,-1.485 1.302,-1.518 -0.3,-0.475 -1.256,-1.258 -12.478,-3.407 -11.209,-4.222 m -729.833,0.678 v 0 l 0.771,-0.619 4.289,3.056 8.477,2.526 1.245,1.021 0.463,-1.3 -0.792,-1.792 -7.108,-3.192 -3.57,-2.534 -0.483,-1.486 0.123,-3.05 2.678,-3.735 4.63,-2.573 1.06,-0.124 4.21,0.3 -5.9,3.397 -1.681,1.798 v 0.621 l 2.382,1.719 8.173,-1.641 -1.489,-1.708 3.65,-3.974 0.047,-2.659 -2.344,-1.729 -2.054,-0.137 -7.059,0.133 -3.669,1.619 -4.06,3.062 -3.479,7.88 -4.049,-3.984 -4.63,-2.573 h -5.108 l -2.636,1.577 -3.095,3.095 -1.577,2.636 -0.123,1.06 0.123,2.048 1.577,2.636 2.125,2.116 8.598,2.563 3.116,-0.007 4.63,-2.573 m 61.195,-739.149 v 0 l -3.242,12.299 0.883,2.064 1.983,0.431 2.39,-7.684 2.476,-11.688 0.115,-16.058 -0.453,-1.344 -1.432,-0.141 m 15.404,757.859 v 0 l -3.974,-1.864 -0.513,-1.518 0.122,-2.05 2.678,-3.735 4.63,-2.573 2.722,-0.02 2.699,6.321 0.031,3.693 -2.344,1.729 M 34.2977,639.183 v 0 l 1.5569,-1.732 0.0108,5.107 -1.8195,3.363 -2.5675,-0.084 -0.183,-0.601 1.3906,-3.462 M 51.5134,415.153 v 0 l -0.3576,1.364 0.543,0.673 22.2918,2.395 2.4543,1.271 1.3896,-0.327 -0.9084,-2.663 -2.6983,-2.113 -3.6693,-1.619 -16.055,-0.119 m 5.4964,17.442 v 0 l 0.1376,4.097 1.5802,2.635 0.7842,0.609 1.3495,-1.272 0.1333,-9.023 -0.9686,-3.007 0.8259,-4.024 -1.3147,-1.314 -1.5073,0.339 -0.8717,0.977 m 275.3037,89.715 v 0 l 0.53,1.307 -0.12,5.058 -3.579,5.636 -0.758,0.651 -1.054,-0.006 -0.456,-1.339 0.117,-4.057 1.636,-4.685 M -565.545,48.1758 v 0 l 2.345,0.3194 -1.3,1.3041 -0.999,-0.8253 m 913.952,494.848 v 0 l 1.351,-0.138 3.481,-2.494 4.038,-6.961 4.039,-11.955 3.624,-16.781 -0.117,-8.055 -2.644,-10.82 -2.937,-5.802 -4.098,-4.101 -2.635,-1.572 -1.535,0.354 -0.843,1.031 1.82,2.947 1.504,-0.274 2.787,2.615 2.919,5.736 1.66,4.887 0.119,17.055 -3.481,12.473 -4.188,11.288 -2.029,3.929 -3.14,3.29 -0.131,2.022 m -16.494,289.62 v 0 l -11.03,1.87 -6.99,-10e-4 -3.031,-0.827 -1.323,1.316 v 2.052 l 1.325,1.325 1.03,0.134 15.058,-0.115 7.903,-1.847 0.377,-1.551 -0.34,-0.453 -1.988,-1.872 m 24.008,-239.36 v 0 l -0.504,-1.283 -0.121,-9.637 -2.376,-1.69 -0.505,1.326 -0.001,14.993 0.482,1.484 1.031,0.843 2.662,-1.539 6.62,-6.569 2.662,-1.692 3.026,-2.821 2.364,3.244 0.122,2.048 -0.296,1.308 -3.55,5.644 0.334,2.397 3.052,0.008 2.191,-3.041 3.095,-3.095 7.695,-5.516 0.479,2.297 -0.969,3.007 0.133,4.023 2.355,2.272 -0.303,-1.299 1.031,-1.253 1.636,-4.686 v -5.12 l -1.867,-4.376 -1.557,0.075 -9.667,6.554 -1.743,-5.155 -1.107,-1.671 -2.373,-1.729 -2.079,0.011 M -560.527,51.2105 v 0 l 0.493,1.2821 -0.466,1.3098 -0.467,-1.3018 M 348,930.457 v 0 l -0.015,16.039 -0.835,1.976 -0.046,1.66 2.368,1.69 1.718,-1.516 1.796,-32.813 0.013,-13.993 -0.13,-2.062 -1.915,-6.394 -1.935,0.453 -0.871,0.976 -0.133,1.03 m 15.706,-62.307 v 0 l -2.583,-4.642 0.019,-4.082 1.346,-0.456 4.023,0.132 2.946,2.694 1.37,-0.314 0.009,-2.054 -4.325,-4.326 h -6.052 l -1.759,1.662 -1.577,2.635 -0.004,4.113 2.573,5.619 4.144,5.296 -0.009,2.055 -1.346,0.456 -4.023,-0.133 -4.946,-3.693 -1.507,0.339 -0.871,0.977 v 2.052 l 1.667,1.763 4.63,2.573 h 7.108 l 2.635,-1.579 0.662,-0.759 0.011,-4.078 -2.574,-4.63 m 14.233,-113.838 v 0 l -2.726,2.711 -2.559,-12.923 -0.712,-0.607 -1.052,-10e-4 -1.271,1.341 0.769,2.043 -1.046,1.761 2.059,2.142 0.016,1.059 -0.132,5.056 -1.853,5.946 0.002,2.99 0.456,1.346 2.51,-0.34 2.995,-3.974 7.528,-7.329 0.479,1.305 -0.119,3.055 -1.694,3.907 2.329,2.333 7,-6.814 0.574,-1.119 3.736,-3.151 2.674,-1.594 2.376,3.32 -0.845,3.063 0.123,3.05 1.731,2.309 0.93,-0.36 -0.597,-1.005 0.793,-0.522 1.872,-4.416 -0.005,-4.114 -2.573,-4.63 -1.76,-1.658 -4.757,1.595 -6.242,4.069 -3.386,-4.714 -2.671,0.04 m -51.005,5.873 v 0 l 1.376,0.446 0.008,3.059 -0.695,0.947 v 1.054 l 0.694,0.945 0.25,1.662 2.147,1.609 2.175,-8.735 7.073,0.007 1.977,0.827 1.361,-0.313 -0.332,-1.51 -1.234,-1.234 -8.268,-1.845 -1.867,-4.38 -0.117,-2.056 0.836,-1.978 -0.01,-2.054 -1.401,-0.445 -1.453,2.022 -2.058,8.917 -1.46,-0.117 -0.943,-0.691 -1.37,0.314 v 3.056 m 60.836,96.947 v 0 l -0.845,1.999 10e-4,2.052 1.323,1.316 1.545,-0.374 2.85,-8.908 0.118,-8.056 -0.784,-2.004 0.642,-0.973 -0.644,-2.033 0.277,-0.331 2.082,-0.029 3.883,1.732 2.055,0.117 1.304,-0.478 -2.616,-2.793 -3.985,-2.046 -7.639,-2.534 -5.086,0.016 -1.323,1.322 -0.113,1.469 10.66,2.794 -0.842,0.351 -2.699,4.423 1.703,3.932 0.005,1.124 m 13.116,-232.098 v 0 l -2.967,14.042 0.117,3.054 1.651,5.702 2.694,3.588 h 8.05 l 1.759,-1.661 4.577,-7.636 -0.011,-4.08 -1.379,-1.497 -2.916,-1.833 -1.118,-0.007 -4.684,1.631 -1.749,1.259 -1.837,4.443 0.331,0.327 4.273,-3.044 3.668,-1.614 1.54,0.358 0.871,0.977 0.011,2.08 -2.573,4.629 -2.763,2.668 -3.67,0.041 -2.718,-4.338 -0.124,-1.06 0.117,-7.056 3.648,-13.879 4.083,-9.005 -0.011,-2.08 -1.325,-1.325 h -2.049 l -0.695,0.591 -2.102,6.954 -2.542,5.752 m 29.411,-77.608 v 0 l -3.104,0.3 -2.611,1.554 -1.69,2.752 1.536,4.815 3.182,6.187 0.123,4.05 -0.483,1.486 -3.948,2.88 -2.054,0.137 -5.027,-0.148 -3.945,-2.674 -1.37,1.295 0.659,1.815 4.629,2.575 7.112,0.004 3.667,-1.617 3.626,-3.723 0.011,-7.08 -4.733,-8.919 0.02,-0.694 6.29,-2.7 2.087,0.015 0.974,0.651 1.005,-0.599 0.463,1.3 -0.802,3.026 0.965,0.338 1.73,-2.31 0.123,-2.05 -0.759,-1.751 -3.667,-1.619 -3.084,0.014 m -13.202,224.573 v 0 l -0.134,-7.275 5.574,-10.63 1.139,-1.29 v -3.052 l -1.36,-1.338 -1.951,1.854 -1.827,2.824 -5.579,11.627 -0.002,6.119 3.535,11.641 2.045,3.983 2.762,2.667 2.08,0.011 2.636,-1.577 2.094,-2.095 1.572,-2.634 -1.666,-5.981 -1.169,-2.048 -2.04,-2.03 -1.536,-0.354 -2.635,1.572 -2.044,1.98 M 556.147,533.454 v 0 l -2.008,4.987 0.019,1.088 1.314,1.313 1.053,-0.012 -0.323,-1.333 0.841,-0.542 3.786,-8.421 -0.629,-1.034 0.3,-0.475 3.304,-2.345 5.902,-2.397 -3.203,-0.268 -1.978,0.837 -2.049,-0.015 0.366,-2.364 -0.811,-1.973 0.825,-3.055 -1.692,-2.342 -1.986,2.369 0.674,1.002 0.134,3.02 -1.755,5.752 -2.365,1.828 -1.689,2.405 1.35,0.363 0.978,-0.643 0.325,0.276 M 434.495,838.124 v 0 l -2.685,1.591 -1.61,1.785 1.274,1.351 1.029,0.133 2.051,-0.122 8.892,-3.724 2.397,0.334 0.026,4.09 -1.839,7.941 0.442,1.34 2.703,0.035 2.007,-5.858 1.688,-10.458 -0.367,-2.543 -0.977,-0.87 -2.08,-0.011 -4.247,2.196 m 39.349,-332.418 v 0 l -4.417,14.522 -0.118,4.055 1.99,13.768 5.728,14.959 1.722,1.75 1.347,-0.464 -0.6,-1.006 0.633,-1.037 -5.878,-16.36 -1.826,-10.541 0.003,-5.123 4.544,-13.668 2.037,-3.957 6.002,-9.004 4.095,-4.095 3.19,-2.217 0.851,-0.972 0.117,-1.026 -0.439,-1.335 -1.057,-0.007 -3.662,2.557 -5.833,5.813 -3.266,4.288 -2.423,4.368 -1.541,1.597 m 16.586,36.419 v 0 l 0.14,1.642 2.05,0.008 0.484,-0.373 7.85,-14.369 3.703,0.025 4.378,1.867 -0.086,3.526 -0.837,1.977 10e-4,7.993 0.478,1.304 1.002,-0.597 0.701,0.485 1.908,-13.847 1.606,-1.549 -1.563,-1.766 -0.132,-1.03 0.132,-2.022 0.704,-0.948 0.134,-3.019 -1.972,-14.014 10e-4,-4.99 0.97,-3.006 -10e-4,-2.993 -0.455,-1.339 -1.815,0.651 -2.032,3.93 -9.898,24.989 -1.65,5.854 M 403.28,840.769 v 0 l 2.249,4.255 4.917,2.838 4.05,0.123 1.485,-0.483 0.867,-0.972 0.113,-1.471 -7.42,-2.022 -0.791,-0.812 -1.616,-3.666 0.004,-4.113 1.576,-2.155 1.76,1.56 h 7.052 l 2.325,-2.325 0.134,-4.023 -0.482,-1.484 -0.977,-0.871 -1.03,-0.133 -5.99,-10e-4 -3.696,1.701 -3.095,3.095 -1.578,2.636 M 428.25,729.294 v 0 l 1.269,-0.143 2.332,2.322 v 5.053 l -1.325,1.325 -2.05,-10e-4 -0.484,-0.373 -2.853,-4.921 -0.059,-1.602 m 32.072,-224.35 v 0 l 3.834,-17.111 -0.135,-4.02 -2.707,-3.918 0.027,-1.079 0.596,-0.18 6.551,2.475 2.174,-1.636 1.008,0.664 1.424,-1.733 -7.384,-1.904 -1.069,0.661 -2.916,-1.68 -2.084,0.68 -2.917,-1.685 -1.06,-0.124 -11.053,0.121 -3.192,1.582 1.617,2.178 0.586,0.076 3.051,-0.956 10.023,0.133 1.619,0.933 1.317,1.912 1.4,2.453 0.124,5.047 -3.854,15.946 -0.116,3.057 0.478,1.304 1.574,-0.861 m -691.567,397.933 v 0 l 3.749,-2.647 1.616,-3.667 -0.015,-4.085 -1.322,-1.315 -1.331,0.155 -2.97,1.934 -3.453,1.506 -0.616,0.722 0.64,2.025 -0.652,0.974 0.002,3.052 1.325,1.325 M 514.625,508.863 v 0 l 2.101,-5.088 1.466,-1.069 1.806,13.794 -0.137,2.054 -1.729,2.343 -2.692,-0.03 -4.341,-1.878 m -816.58,369.963 v 0 l -1.02,0.851 -0.329,-0.279 0.301,-1.359 1.332,0.334 M -516.574,88.1503 v 0 l 6.128,-0.0125 4.63,2.5735 2.101,2.0986 1.577,2.6359 v 6.1082 l -1.577,2.636 -2.115,2.108 -6.609,2.57 -3.083,-0.017 -0.679,-0.566 -2.784,-16.7884 0.087,-1.6294 m -3.624,2.3423 v 0 l 0.027,0.5931 m 215.973,1.4069 v 0 l 0.027,0.5931 m -67.027,773.4064 v 0 l 0.027,0.593 m 248.998,-647.947 v 0 l -2.007,-0.84 -4.992,0.001 -1.345,0.454 -0.13,1.078 2.417,2.314 10.048,0.124 1.316,-0.306 1.898,-1.394 -0.729,-0.79 -1.483,-0.481 m -7.005,47.966 v 0 l 8.016,2.005 4.053,-0.119 4.135,-1.635 -0.679,-1.138 -12.523,-2.08 -3.473,0.483 -0.819,1.003 m 3.342,-59.499 v 0 l -5.04,-0.016 -3.003,-0.954 -1.343,0.441 -0.126,1.028 0.723,1.729 4.685,1.634 3.064,-0.847 2.023,0.131 0.974,0.652 1.342,-1.272 v -1.055 l -1.315,-1.323 M 27.4501,112.162 v 0 l 4.0761,-0.013 1.2729,1.351 -0.8874,1.658 -5.353,2.708 -3.0866,-0.024 -0.314,-1.37 m 2.675,155.019 v 0 l -2.362,-0.326 -0.4398,1.335 1.1757,2.221 1.7792,8.224 1.8754,-2.391 0.1892,-4.526 8.8793,-2.939 -3.3712,-1.949 -3.0588,0.829 -1.343,-0.441 -0.1411,-2.024 0.8359,-1.978 0.1339,-4.019 -2.0199,-6.418 -1.2134,0.687 -1.524,3.542 1.7538,2.139 -0.1304,3.069 -0.704,0.948 M 582.978,515.476 v 0 l -5.896,2.573 0.66,1.171 5.207,1.808 -0.097,4.498 -0.821,1.974 0.466,1.48 1.001,0.818 2.364,-3.244 0.243,-5.713 1.606,-1.549 -0.908,-0.998 -1.912,-14.273 -0.88,0.044 -1.878,4.375 0.015,2.086 0.836,1.977 m -707.775,-229.02 v 0 l 1.523,1.731 6.705,1.651 3.067,-0.849 2.022,0.131 0.974,0.652 1.299,-1.299 -1.51,-1.7 -11.726,-1.667 -1.542,0.364 m 36.2663,-156.26 v 0 l -12.2743,2.182 0.1468,1.112 1.3439,0.453 8.9896,0.002 11.2506,-2.004 -1.1914,-1.843 m -36.0755,463.82 v 0 l 2.298,2.29 3.666,1.616 10.0555,0.12 1.4835,-0.482 0.8191,-1.003 -2.2718,-2.342 -3.0313,0.827 -7.022,-0.133 -0.946,-0.704 -1.675,-0.248 -1.706,-1.797 -1.982,0.368 m 73.1165,-14.276 v 0 l 1.9667,-2.889 1.617,3.136 -0.0224,6.086 -1.3466,0.456 -7.0203,-0.146 0.0231,-0.812 2.2159,-3.216 m -79.2119,176.336 v 0 l -1.345,1.327 0.62,1.775 11.66,3.621 8.088,-0.018 1.322,-1.321 0.118,-1.461 -17.405,-3.937 m -0.044,-47.923 v 0 l -1.359,1.264 v 1.054 l 1.316,1.324 1.029,0.134 6.059,-0.115 8.172,-1.908 1.111,-0.767 -0.345,-1.177 -1.042,-0.858 -12.961,1.81 m 17.017,-367.926 v 0 l -1.53,-0.962 -13.491,-2.068 -5.021,0.143 -0.441,1.385 1.08,1.349 12.396,2.095 6.019,-0.135 1.277,-1.358 m 60.0475,0.081 v 0 l 0.2844,-2.125 1.8881,-3.718 1.8474,8.706 -0.3425,2.406 -4.0242,0.141 -1.3463,-0.456 -0.0196,-2.082 M -96.522,918.209 v 0 l 0.0267,0.593 M 592.128,520.5 v 0 l 3.583,6.684 2.362,2.949 3.4,2.718 4.052,-0.01 0.334,-0.983 -4.043,-2.569 -2.101,-2.099 -3.029,-4.964 -1.547,-3.665 -0.002,-1.123 1.631,-4.684 3.042,-3.039 2.636,-1.577 2.079,0.011 1.15,1.646 -2.485,3.49 -6.076,3.673 0.011,0.522 1.348,1.371 h 2.053 l 3.664,-2.566 3.094,-3.095 1.578,-2.636 -0.011,-2.08 -0.925,-1.607 -2.373,-1.729 -2.053,-0.136 -2.059,0.132 -3.666,1.616 -3.064,3.066 -2.574,4.63 M -157.981,158.535 v 0 l 2.85,-10.974 0.115,-4.057 -0.455,-1.339 -1.534,0.357 -1.036,1.769 -3.827,14.148 0.016,5.087 1.846,1.375 1.873,-4.34 m -318.077,11.917 v 0 l -0.593,0.027 m 512.3059,564.35 v 0 l -2.0072,-0.84 -9.0543,0.119 -6.3233,2.821 0.0037,0.561 1.7453,2.38 0.5822,0.076 6.0569,-1.958 8.9901,10e-4 3.0069,0.97 4.0206,-0.147 -0.3213,-1.336 0.4918,-0.732 -4.1341,-1.638 m -146.0282,-47.11 v 0 l -2.007,0.83 -2.025,0.147 -2.997,-0.014 -1.977,-0.837 -2.052,10e-4 -2.273,2.351 2.273,2.351 11.085,0.015 3.665,-1.62 0.573,-0.749 -2.271,-2.348 M 72.4549,195.171 v 0 l 1.5491,0.349 1.8343,2.98 -2.3144,3.351 -3.0777,0.011 -2.3116,-1.731 3e-4,-0.622 M 610.211,530.485 v 0 l 1.26,1.356 1.084,0.015 7.259,-5.143 4.631,-2.569 1.085,0.021 0.454,1.339 v 6.992 l -0.836,1.978 -0.133,5.022 1.219,2.199 1.903,-6.506 2.697,-14.72 -1.334,-0.438 -2,0.768 -1.001,-0.598 -8.997,5.597 -0.786,-0.506 -2.491,2.958 M 36.5432,676 v 0 l -8.1039,0.132 -4.6853,1.639 -0.5951,0.705 -0.0011,1.051 1.3156,1.324 1.0302,0.133 2.0577,-0.115 6.9452,-1.855 7.9897,10e-4 2.0042,0.784 1.2987,-1.299 -2.2729,-2.352 m -51.45485,211.73 v 0 l 4.37469,-2.74 4.080083,0.01 1.315857,1.324 -0.55371,1.823 1.47296,1.389 -3.47644,5.506 -1.75867,1.661 -4.65899,0.046 -1.72907,-2.344 -0.12378,-1.059 0.13361,-4.02 M -195.208,464.478 v 0 l -1.265,1.363 -1.362,-0.312 0.307,-1.371 m 183.7374,369.364 v 0 l 0.5931,-0.027 M 93.5433,307 v 0 l -2.0638,-0.144 -1.9829,-0.841 -7.9904,-10e-4 -5.4408,1.992 -0.0435,0.471 2.4498,2.345 2.0317,-0.807 11.9965,-0.014 4.9961,0.982 1.3043,-0.478 -0.8746,-1.638 -2.3718,-1.729 M -38.7906,581.522 v 0 l 0.5932,-0.027 M -421.522,245.209 v 0 l 0.027,0.594 m 530.38,247.682 v 0 l -1.755,6.953 -0.129,4.062 0.147,2.026 1.857,1.369 2.981,-11.402 -0.001,-5.99 -0.82,-3.032 1.396,-0.334 4.877,1.726 1.092,-0.029 0.32,-2.358 -2.426,-1.666 -5.931,-1.796 -10.047,0.124 -3.2415,2.36 0.5113,0.702 9.5682,1.599 0.557,0.678 -0.552,1.813 1.685,2.18 M 172,764.456 v 0 l 0.138,6.098 1.729,2.342 1.661,-0.047 1.336,-1.357 -1.847,-2.948 -0.002,-6.041 0.837,-1.977 0.133,-5.023 -0.828,-1.976 0.642,-2.027 -1.273,-1.351 -2.369,0.323 -0.141,2.024 0.836,1.978 0.147,4.026 -0.147,2.026 -0.704,0.948 m -83.0029,57.982 v 0 l -1.2264,2.689 -4.3975,2.678 -0.3581,-0.301 -0.0142,-2.048 3.8692,-3.977 2.5057,-0.334 M 139.829,580.455 v 0 l -0.298,1.388 -3.027,0.141 -1.303,-0.477 3.271,-2.33 m 31.223,108.079 v 0 l -11.191,-0.24 -1.344,0.453 -0.12,1.475 6.65,1.846 -0.675,1.713 -10e-4,14.991 0.298,1.308 2.19,2.996 1.349,-1.272 0.118,-1.026 -0.954,-3.003 0.148,-16.018 0.557,-0.218 8.787,1.724 2.328,-0.456 -0.672,-1.83 M 629.044,482.475 v 0 l -0.752,0.782 3.175,1.716 7.818,7.837 1.961,2.962 2.771,7.724 1.85,13.941 -0.866,4.063 0.014,9.996 0.837,1.978 -10e-4,4.052 -2.605,2.705 -5.758,1.973 4.949,1.66 1.119,-0.008 3.728,-2.666 1.578,-2.636 0.123,-1.06 -0.133,-4.02 -0.704,-0.948 -0.147,-2.026 0.014,-9.997 0.852,-3.066 -1.822,-13.933 -1.716,-5.714 -3.041,-5.974 -8.313,-8.316 -1.475,0.299 -1.972,-1.641 M 204.789,824.473 v 0 l -1.282,0.493 -1.31,-0.466 1.302,-0.468 m -0.479,-52.554 v 0 l -1.83,1.807 -2.636,1.577 -2.389,-0.332 0.148,-1.332 1.402,-2.388 2.759,-2.662 2.022,-0.131 1.346,0.455 0.009,2.054 m -86.329,-57.503 v 0 l -1.017,-0.825 -2.008,0.787 -3.34,-0.457 -0.009,-4.054 0.837,-1.977 v -4.994 l -0.482,-1.483 -1,-0.817 -0.709,0.522 -2.837,13.23 -2.483,-0.103 -0.975,-0.651 -1.341,1.271 v 1.055 l 1.316,1.324 3.445,0.175 2.501,9.959 1.423,-0.457 0.207,-8.499 7.651,-2.771 m -263.174,191.531 v 0 l -0.359,-1.31 0.332,-0.281 0.332,1.332 M 3.47803,888.209 v 0 l 0.02655,0.593 M -446.522,465.209 v 0 l 0.027,0.594 m 321.973,-0.594 v 0 l 0.027,0.594 m 540.284,363.67 v 0 l -1.285,0.508 -2.307,-0.481 1.307,-0.483 M 539.207,479.478 v 0 l 0.595,1.017 -0.601,1.005 1.298,1.299 2.004,-0.784 5.055,0.119 5.159,2.548 -1.956,0.457 -0.576,0.79 -2.028,21.528 1.315,1.385 1.051,-10e-4 0.666,-0.539 1.585,-21.605 0.276,-0.745 2.834,-1.902 -0.018,-0.535 -2.577,-2.226 -0.794,0.508 -0.539,-0.84 -3.398,-1.822 -8.054,-0.119 M 330.851,584.877 v 0 l -7.843,-2.302 -0.111,-4.708 -2.37,-1.689 -1.369,1.294 0.827,3.031 -0.143,3.025 -1.37,0.315 -0.973,-0.642 -1.341,1.271 10e-4,1.052 3.763,2.43 0.062,5.542 -0.954,3.002 0.308,1.334 0.976,1.176 1.736,-3.195 2.02,-8.782 5.488,0.103 3.883,1.731 2.359,-0.36 -2.592,-2.765 m 0.27,-77.531 v 0 l 0.027,0.594 m 46.666,-0.353 v 0 l -0.023,2.068 0.564,0.68 15.726,2.67 2.405,-0.34 0.1,-2.511 -3.904,-1.145 -11.546,-1.858 m 173.985,22.195 v 0 l 0.026,0.594"
     id="path6" />
</g>
</svg>
