<?xml version="1.0" encoding="UTF-8" standalone="no"?>
<svg
   width="978.07861"
   height="537.41992"
   viewBox="-702 0 978.07861 537.41992"
   version="1.2"
   id="svg1882"
   sodipodi:docname="CryptoResearch - page 8.svg"
   xmlns:inkscape="http://www.inkscape.org/namespaces/inkscape"
   xmlns:sodipodi="http://sodipodi.sourceforge.net/DTD/sodipodi-0.dtd"
   xmlns:xlink="http://www.w3.org/1999/xlink"
   xmlns="http://www.w3.org/2000/svg"
   xmlns:svg="http://www.w3.org/2000/svg"><defs
   id="defs1886" />
<sodipodi:namedview
   id="namedview1884"
   pagecolor="#505050"
   bordercolor="#eeeeee"
   borderopacity="1"
   inkscape:showpageshadow="0"
   inkscape:pageopacity="0"
   inkscape:pagecheckerboard="0"
   inkscape:deskcolor="#505050"
   showgrid="false" />
<title
   id="title2">CryptoResearch</title>
<g
   id="g1176"
   transform="translate(-109.385,-1246.25)">
  <path
     fill="none"
     stroke="#000000"
     stroke-width="4"
     stroke-linecap="round"
     stroke-linejoin="round"
     d="m -237.927,1272.4 -0.474,7.08 -1.202,5.07 -7.927,24 -0.222,2.18 0.175,0.2 0.223,-0.83 0.652,3.29 0.019,-0.35 0.482,-0.12 1.659,0.67 3.425,0.21 8.663,-1.62 11.043,0.02 1.027,-0.65 1.126,-1.63 1.002,-2.27 0.214,-1.49"
     id="path1174" />
</g>
<g
   id="g1180"
   transform="translate(-109.385,-1246.25)">
  <path
     fill="none"
     stroke="#000000"
     stroke-width="4"
     stroke-linecap="round"
     stroke-linejoin="round"
     d="m -238.358,1296.73 -2.507,-0.84 0.564,0.69 0.82,-0.63 10.527,-0.97 8.201,-1.31 4.327,-1.11 4.422,-1.89 0.353,-0.39"
     id="path1178" />
</g>
<g
   id="g1184"
   transform="translate(-109.385,-1246.25)">
  <path
     fill="none"
     stroke="#000000"
     stroke-width="4"
     stroke-linecap="round"
     stroke-linejoin="round"
     d="m -237.288,1274.65 -2.185,-0.78 0.244,0.44 0.551,0.06 0.641,-0.75 6.846,-0.39 4.342,0.42 2.28,0.55 4.332,1.72"
     id="path1182" />
</g>
<g
   id="g1188"
   transform="translate(-109.385,-1246.25)">
  <path
     fill="none"
     stroke="#000000"
     stroke-width="4"
     stroke-linecap="round"
     stroke-linejoin="round"
     d="m -375.775,1302.46 -1.744,-0.07 0.63,0.12 0.118,0.38 0.244,-0.23 0.036,0.42 0.086,-0.51 0.487,-0.19 9.192,-0.03"
     id="path1186" />
</g>
<g
   id="g1192"
   transform="translate(-109.385,-1246.25)">
  <path
     fill="none"
     stroke="#000000"
     stroke-width="4"
     stroke-linecap="round"
     stroke-linejoin="round"
     d="m -457.796,1300.59 -0.17,-0.49 -0.605,0.03 -0.318,0.49 0.303,0.41 -0.265,5.03 0.537,4.76 1.092,2.13 2.598,3.17 1.497,1.04 1.114,0.25 1.461,-1.21 2.087,-3.08 3.258,-6.69 1.32,-3.59 1.101,-3.63 0.648,-7.02 -0.324,-1.37 -0.29,-0.15 -0.539,0.08 -0.496,0.78 0.041,0.9 0.514,-0.71 -0.134,3.56 0.784,2.47"
     id="path1190" />
</g>
<g
   id="g1196"
   transform="translate(-109.385,-1246.25)">
  <path
     fill="none"
     stroke="#000000"
     stroke-width="4"
     stroke-linecap="round"
     stroke-linejoin="round"
     d="m -515.238,1306.24 -1.701,-0.52 -1.095,0.8 0.243,0.36 -0.844,1.39 -0.516,2.16 -0.029,3.68 0.52,1.74 1.579,1.06 1.498,0.5 h 1.313 l 1.744,-0.52 3.41,-2.67 1.843,-2.7 0.354,-1.21 -0.325,-2.07 -1.253,-2.36 -2.2,-1.94 -1.575,-0.21 -3.951,2.59 -0.622,0.77 -0.131,1.94 1.191,3.62 1.071,1.43 1.616,1.26 2.211,0.08"
     id="path1194" />
</g>
<g
   id="g1200"
   transform="translate(-109.385,-1246.25)">
  <path
     fill="none"
     stroke="#000000"
     stroke-width="4"
     stroke-linecap="round"
     stroke-linejoin="round"
     d="m -306.489,1281.93 -1.07,-0.19 0.332,-7.68 -0.162,0.9 2.732,11.65 3.095,20.43 2.207,9.64 0.852,1.74 -0.153,-0.78 1.183,-1.27 4.581,-7.2 5.598,-9.65 1.817,-4.11 1.81,-6.94 1.919,-4.95 0.206,-0.07 -0.027,0.53 -0.166,-0.27 -0.347,0.31 0.893,3.19 -0.761,13.23 0.483,7.73 1.454,5.09 0.985,1.16 0.317,-0.14 0.594,0.79 0.687,0.29 1.764,-1.62 2.891,-4.37 3.451,-7.37 2.689,-8.8 1.566,-3.71 1.292,-2.2 0.57,-0.26 0.046,-0.43 -0.345,0.49 0.176,-0.75 1.314,-2.73 1.424,-1.59 0.629,0.25"
     id="path1198" />
</g>
<g
   id="g1204"
   transform="translate(-109.385,-1246.25)">
  <path
     fill="none"
     stroke="#000000"
     stroke-width="4"
     stroke-linecap="round"
     stroke-linejoin="round"
     d="m -331.76,1272.34 0.499,1.48 -0.224,0.28 -0.511,9.28 -1.93,13.03 -3.432,14.72 -1.396,4.39 -1.286,2.31 0.131,-0.43 -0.039,0.29 0.155,-0.22 0.132,0.31 2.077,0.69 6.296,1.47 7.654,-0.06 1.49,0.29 6.17,-1.7 -0.173,0.18 0.267,0.08 0.049,-0.32 -0.033,0.56 -0.318,-0.41 0.032,-1.21"
     id="path1202" />
</g>
<g
   id="g1208"
   transform="translate(-109.385,-1246.25)">
  <path
     fill="none"
     stroke="#000000"
     stroke-width="4"
     stroke-linecap="round"
     stroke-linejoin="round"
     d="m -421.76,1272.92 -0.703,0.12 0.587,0.3 0.038,-0.38 -0.035,0.98 -1.38,3.08 -4.254,13.35 -0.093,2.18 -1.144,5 -0.552,4.62 -0.3,0.44 -0.145,3.05 -0.628,1.48 -0.31,2.15 0.179,0.68 -0.776,2.69 -0.021,3.15 0.906,5.21 2.23,1.45 3.558,0.14 2.713,-0.58 5.33,-2.61"
     id="path1206" />
</g>
<g
   id="g1212"
   transform="translate(-109.385,-1246.25)">
  <path
     fill="none"
     stroke="#000000"
     stroke-width="4"
     stroke-linecap="round"
     stroke-linejoin="round"
     d="m -395.416,1319.57 0.571,0.73 -0.124,0.99 -4.348,-0.87 -4.855,-2.25 -1.186,-1.16 -0.596,-0.09 -1.419,-1.12 -2.196,-3.02 -1.704,-4.46 -0.008,-3.73 0.333,-2.29 1.238,-3.17 2.245,-4.74 1.343,-1.97 3.51,-3.67 0.779,-0.13 1.354,-0.88 0.661,0.42 0.503,-0.29 1.729,0.12 1.732,1.36 0.873,1.53 0.4,2.89 -0.521,2.85 -0.886,2.05 -1.057,0.96 -1.003,0.24 -0.388,-0.38 -0.311,0.24 -0.705,-0.26 -0.579,0.19 -1.569,-0.71 0.001,-0.37 1.465,-0.28 3.203,1.36"
     id="path1210" />
</g>
<g
   id="g1216"
   transform="translate(-109.385,-1246.25)">
  <path
     fill="none"
     stroke="#000000"
     stroke-width="4"
     stroke-linecap="round"
     stroke-linejoin="round"
     d="m -145.083,1296.07 -0.515,-0.32 -0.86,-1.42 -0.234,-0.84 0.221,-0.04 0.441,0.85 0.499,-0.13 2.259,1.09 4.519,3.45 4.214,5.06 1.161,1.65 0.588,1.7 0.611,2.67 0.058,1.97 -0.366,3.01 -0.858,3.34 -1.994,5.34 -2.419,4.13 -2.019,1.98 -0.279,1.08 0.48,1.96 1.593,2.1 1.07,0.47 1.287,0.1 2.118,-1.3"
     id="path1214" />
</g>
<g
   id="g1220"
   transform="translate(-109.385,-1246.25)">
  <path
     fill="none"
     stroke="#000000"
     stroke-width="4"
     stroke-linecap="round"
     stroke-linejoin="round"
     d="m -148.921,1321.57 0.737,0.65 13.844,-7.45 5.316,-3.42 1.906,-0.8 4.896,-3.5 3.728,-3.22"
     id="path1218" />
</g>
<g
   id="g1224"
   transform="translate(-109.385,-1246.25)">
  <path
     fill="none"
     stroke="#000000"
     stroke-width="4"
     stroke-linecap="round"
     stroke-linejoin="round"
     d="m -484.085,1296.76 -0.505,-0.95 -0.616,-0.43 -0.92,0.44 -2.709,0.23 -1.718,0.59 -1.982,1.75 -0.867,1.7 -1.271,3.97 -0.529,2.96 0.046,3.58 0.992,2.53 2.461,2.92 1.595,0.97 2.16,0.29 1.768,-0.9 1.635,-2.07 2.126,-3.99 2.208,-6.32 0.765,-3.17 0.306,-3.86 -0.252,-6.29 -1.963,-17.32 -0.925,-2.38 -0.59,0.32 -0.092,0.56 0.421,-0.47 -0.352,-0.21 0.437,0.47 0.598,3.15 0.465,10.15 0.724,5.39 2.995,13.25 1.774,9.74 1.42,5.17 1.754,4.06 1.263,0.89 0.724,-0.97"
     id="path1222" />
</g>
<g
   id="g1228"
   transform="translate(-109.385,-1246.25)">
  <path
     fill="none"
     stroke="#000000"
     stroke-width="4"
     stroke-linecap="round"
     stroke-linejoin="round"
     d="m -574.363,1320.21 -0.317,1.56 0.721,2.42 0.22,-0.51 -0.223,0.01 0.455,0.02 0.082,-0.54 0.466,-0.39 1.015,-2.81 2.949,-9.41 3.44,-8.99 2.613,-8.09 1.657,-7.82 0.829,-2.2 1.175,-5 2.578,-7.27 -0.341,-0.75 0.299,0.23 -0.015,-0.32 -0.217,-0.01 0.21,0.5 0.192,-0.24 -0.358,-0.35 0.383,0.27 -0.317,-0.17 -0.097,0.32 2.335,13.33 2.494,8.93 2.159,14.16 0.482,0.99 0.405,0.07 -0.054,0.32 -0.165,-0.12 3.088,-4 1.863,-3.2 5.454,-12.92 1.979,-5.33 2.411,-11.01 0.157,-1.87 0.581,-1.64 -0.172,0.26 -0.094,-0.42 -0.129,0.33 0.924,1.73 0.819,4.29 0.615,10.09 -0.041,9.15 -0.274,2.37 0.721,9.78 1.299,9.08 0.07,2.69 0.312,0.74 -0.084,-0.5 2.014,-2.55"
     id="path1226" />
</g>
<g
   id="g1232"
   transform="translate(-109.385,-1246.25)">
  <path
     fill="none"
     stroke="#000000"
     stroke-width="4"
     stroke-linecap="round"
     stroke-linejoin="round"
     d="m -169.182,1313.42 -0.278,-0.35 -3.968,13.2 -0.413,2.4 0.192,1.13"
     id="path1230" />
</g>
<g
   id="g1236"
   transform="translate(-109.385,-1246.25)">
  <path
     fill="none"
     stroke="#000000"
     stroke-width="4"
     stroke-linecap="round"
     stroke-linejoin="round"
     d="m -190.698,1305.62 -0.305,-2.41 -0.932,-0.93 -1.716,0.47 -1.8,2.03 -1.254,2.02 -1.416,3.78 -0.388,4.94 0.908,3.39 2.059,2.62 0.883,0.44 1.745,-0.07 1.363,-1.39 2.885,-5.18 1.489,-4.4 0.536,-4.4 -0.255,-4.61 -1.566,28.17 0.012,2.69 0.878,3.69"
     id="path1234" />
</g>
<g
   id="g1240"
   transform="translate(-109.385,-1246.25)">
  <path
     fill="none"
     stroke="#000000"
     stroke-width="4"
     stroke-linecap="round"
     stroke-linejoin="round"
     d="m -537.636,1251.62 -0.124,-0.37 0.353,-0.12 -0.338,0.21 -0.92,-0.82 -1.858,-0.41 -4.219,0.71 -4.197,-0.01 -0.938,-0.33 -6.612,1.25 -3.145,0.9 -4.518,2.74 -3.198,1.18 -2.009,1.35 -5.736,5.97 -3.048,2.13 -2.787,2.5 -4.361,5.17 -0.548,1.62 -4.092,20.27 -0.684,9.05 0.878,6.58 1.432,4.8 2.224,4.59 2.5,4.09 0.86,2.79 1.672,1.91 0.321,0.77 2.775,2.31 2.218,2.97 1.576,0.95 4.303,1.97 5.318,1.77 3.853,0.82 5.755,1.8 4.757,0.04 9.703,1.48 3.032,-0.19 0.557,-0.28 4.897,0.79 3.574,1.07 0.463,-0.31 0.317,0.3 0.871,-0.26 2.462,0.26 3.744,-0.47 0.567,0.39 1.364,-0.22 9.001,1 1.275,0.5 4.532,-0.24 1.496,0.41 1.013,-0.37 1.557,0.67 4.123,0.59 9.931,-0.45 7.307,0.71 1.601,0.52 1.818,-0.32 0.917,0.25 5.302,-0.8 2.856,0.12 2.595,0.25 3.525,0.96 5.96,0.76 4.619,-0.24 8.25,-1.52 1.32,0.22 3.331,-0.43 1.172,0.26 2.317,-0.08 6.396,1.01 5.298,0.21 1.173,0.4 2.441,-0.27 8.356,0.11 1.204,-0.51 2.333,0.68 1.316,-0.25 3.726,0.75 1.311,-0.22 3.798,0.54 16.437,-0.7 4.285,0.45 1.143,0.58 2.136,0.13 1.168,0.64 0.594,-0.21 1.957,0.18 1.255,0.63 4.454,-0.29 7.461,0.25 1.348,-0.3 9.341,0.57 7.294,0.91 1.296,-0.32 1.986,0.53 2.005,-0.14 2.35,0.37 3.275,-0.03 5.516,-0.58 9.115,-1.94 3.426,-0.06 3.717,1 5.749,0.93 6.868,-0.78 1.942,0.34 1.071,-0.32 6.787,1.6 10.553,1.14 17.196,0.14 4.396,0.55 2.18,1.14 1.216,-0.16 0.499,0.35 1.805,0.27 2.63,0.14 5.066,-0.42 3.049,-0.67 2.946,-0.13 1.378,-0.7 0.623,0.03 2.014,0.54 0.82,-0.12 1.418,0.77 2.699,0.54 0.793,0.7 0.357,-0.28 4.137,-0.41 0.621,0.25 1.407,-0.41 1.063,0.7 0.069,-0.77 0.204,1.13 0.106,-0.77 -0.044,0.28 3.765,0.2 4.778,-0.34 1.191,-0.42 3.615,0.53 2.124,-0.13 0.93,0.36 7.072,-1 5.585,0.96 4.54,-0.73 3.011,-0.72 1.122,-0.68 5.21,-0.91 6.654,-0.03 6.269,-1.12 3.046,-0.23 0.534,-0.3 1.319,0.21 0.537,-0.42 2.544,0.35 2.057,-0.61 2.728,-0.03 0.334,-0.29 0.016,0.39 -0.162,-0.53 0.378,-0.22 2.839,-0.15 3.661,-0.71 1.699,-0.91 0.439,-0.88 0.151,0.23 0.599,-0.21 0.445,0.19 4.593,-1.01 10.003,-4.69 0.402,0.14 4.559,-3.18 0.563,-0.85 1.199,-0.74 3.712,-3.49 4.662,-6.01 6.2612,-5.67 1.0981,-2.04 0.9273,-3.02 0.8055,-8.24 -1.719,-10.03 -1.4976,-4.33 -2.7265,-4.08 -0.106,0.28 -0.218,-0.14 -0.502,-1.63 -2.641,-4.68 -1.668,-1.68 -4.828,-3.26 -2.423,-0.63 -1.975,-1.09 -1.02,-1.15 -2.9,-1.27 -1.169,-1.02 -1.619,-0.23 -1.547,-0.85 -10.993,-1.81 -1.393,0.35 -2.494,-0.67 -9.578,-1.13 -3.782,-0.74 -7.285,-2.36 -6.972,-1.58 -6.019,-0.86 -6.382,-0.13 -7.533,-0.66 -1.635,-0.51 -0.864,0.28 -7.725,-1.64 -10.419,-0.05 -3.824,-0.24 -0.813,-0.46 -1.564,0.12 -0.819,-0.34 -6.122,-0.05 -2.507,-0.47 -1.049,0.29 -11.878,-2.22 -1.598,-0.55 -1.112,0.04 -5.031,-1.14 -0.938,-0.52 -2.005,-0.15 -0.909,-0.51 -2.523,-0.16 -1.015,-0.6 -0.501,0.18 -5.572,-0.51 -8.639,-1.84 -9.63,-0.43 -7.773,-1.16 -0.903,-0.51 -1.444,0.18 -4.438,-0.51 -7.347,-0.31 -6.429,0.35 -6.6,-0.59 -7.984,-1.15 -6.712,0.06 -5.903,-0.4 -1.7,-0.53 -5.677,-0.22 -1.074,-0.43 -1.816,0.3 -9.241,-0.03 -7.759,-0.81 -3.75,0.08 -1.067,0.38 -2.309,-0.1 -1.379,0.5 -2.199,-0.32 -7.148,0.17 -1,-0.57 -0.984,0.38 -7.475,0.35 -7.973,-0.05 -1.088,-0.26 -2.197,0.22 -8.807,-0.14 -1.495,0.34 -2.974,-0.28 -1.526,0.65 -0.705,-0.33 -2.229,-0.07 -23.03,1.78 -3.382,-0.07 -6.965,0.84 -4.002,-0.1 -2.301,0.35 -2.187,-0.15 -2.813,0.27 -14.96,-0.25 -13.03,1.28 -6.668,-1.98 -4.396,-0.65 -3.448,-0.1 -19.065,1.38 -5.407,-0.47 -0.998,0.52 -1.253,-0.61 -1.414,0.11 -4.814,-0.75 -4.606,1.11 -3.722,0.4 -0.536,0.63 -0.872,0.11 -2.89,1.89 -0.99,0.18 -1.855,1.06 -0.803,0.89 -0.497,1.16 0.069,1.44 0.736,2.05"
     id="path1238" />
</g>
<g
   id="g1244"
   transform="translate(-109.385,-1246.25)">
  <path
     fill="none"
     stroke="#000000"
     stroke-width="4"
     stroke-linecap="round"
     stroke-linejoin="round"
     d="m -571.476,1374.17 0.103,-2.53 0.387,1.25 -0.349,2.95 -0.276,19.42 0.175,-1.42 6.937,-8.82 3.382,-3.11 2.26,-0.68 3.366,1.6 1.706,2.2 0.49,2.12 -0.236,6.91 0.593,2.49"
     id="path1242" />
</g>
<g
   id="g1248"
   transform="translate(-109.385,-1246.25)">
  <path
     fill="none"
     stroke="#000000"
     stroke-width="4"
     stroke-linecap="round"
     stroke-linejoin="round"
     d="m -536.282,1378.84 -0.926,0.14 0.033,0.27 0.627,-0.41 3.476,0.43 2.819,-0.14 1.017,-0.39 1.975,0.49 0.816,-0.18 2.388,0.66"
     id="path1246" />
</g>
<g
   id="g1252"
   transform="translate(-109.385,-1246.25)">
  <path
     fill="none"
     stroke="#000000"
     stroke-width="4"
     stroke-linecap="round"
     stroke-linejoin="round"
     d="m -533.154,1389.6 2.2,0.6 3.121,0.16 5.514,-0.95"
     id="path1250" />
</g>
<g
   id="g1256"
   transform="translate(-109.385,-1246.25)">
  <path
     fill="none"
     stroke="#000000"
     stroke-width="4"
     stroke-linecap="round"
     stroke-linejoin="round"
     d="m -504.149,1377 -1.08,-0.24 -0.477,-0.72 1.197,-2.69 4.461,-3.58 2.454,-0.38 3.625,0.34 3.315,0.91 2.167,1.46 0.708,1.52 -0.014,1.18 -0.636,3.27 -1.904,5.58 -2.709,5.19 -5.499,7.97 -1.666,1.58 -4.912,3.01 1.28,-0.5 0.206,-0.38 0.579,0.49 3.492,-0.06 5.764,-1.16 7.117,-2.7 4.576,-1.18"
     id="path1254" />
</g>
<g
   id="g1260"
   transform="translate(-109.385,-1246.25)">
  <path
     fill="none"
     stroke="#000000"
     stroke-width="4"
     stroke-linecap="round"
     stroke-linejoin="round"
     d="m -472.899,1370.69 -1.356,-0.15 1.166,0.16 3.391,2.47 4.795,2.43 0.875,0.94 0.827,0.12 1.278,0.83"
     id="path1258" />
</g>
<g
   id="g1264"
   transform="translate(-109.385,-1246.25)">
  <path
     fill="none"
     stroke="#000000"
     stroke-width="4"
     stroke-linecap="round"
     stroke-linejoin="round"
     d="m -471.929,1383.53 -1.221,0.27 -0.223,0.26 0.638,0.09 0.045,0.44 0.67,-0.34 4.691,-4.78 7.679,-6.79 2.238,-1.19 -0.851,0.79 -0.118,0.58 -0.208,-0.7 1.144,-1.32 1.435,-1.01 0.735,-1.1"
     id="path1262" />
</g>
<g
   id="g1268"
   transform="translate(-109.385,-1246.25)">
  <path
     fill="none"
     stroke="#000000"
     stroke-width="4"
     stroke-linecap="round"
     stroke-linejoin="round"
     d="m -410.611,1368.62 0.807,0.19 0.271,-0.28 -0.34,-0.87 -0.483,-0.02 -2.172,-2.4 -1.953,-0.9 -1.697,0.09 -2.387,3.25 -1.327,4.8 -0.484,5.21 0.269,5.59 2.008,15.09 0.28,1.36 0.613,1.04 0.384,0.12 -0.293,-0.73 0.126,-0.78"
     id="path1266" />
</g>
<g
   id="g1272"
   transform="translate(-109.385,-1246.25)">
  <path
     fill="none"
     stroke="#000000"
     stroke-width="4"
     stroke-linecap="round"
     stroke-linejoin="round"
     d="m -420.946,1388.08 -1.362,-1.51 1.737,1.18 2.887,-0.32 1.452,0.17 2.218,-0.57 3.958,-0.02"
     id="path1270" />
</g>
<g
   id="g1276"
   transform="translate(-109.385,-1246.25)">
  <path
     fill="none"
     stroke="#000000"
     stroke-width="4"
     stroke-linecap="round"
     stroke-linejoin="round"
     d="m -396.16,1389.78 -1.372,0.19 -0.36,0.61 0.143,2.98 0.926,2.35 1.695,1.46 1.301,0.68 1.343,0.38 1.344,-0.19 1.652,-0.6 1.198,-0.84 1.772,-2.73 0.492,-1.6 0.046,-1.56 -0.955,-3.46 -2.573,-2.14 -2.435,-0.96 -1.881,1.56 -0.941,2.95 -0.036,1.86 0.436,2.2 0.414,0.98 1.348,1.38 2.139,0.71"
     id="path1274" />
</g>
<g
   id="g1280"
   transform="translate(-109.385,-1246.25)">
  <path
     fill="none"
     stroke="#000000"
     stroke-width="4"
     stroke-linecap="round"
     stroke-linejoin="round"
     d="m -363.488,1379.85 -0.741,0.77 0.583,0.38 0.437,3.59 0.118,12.77 0.573,2.85"
     id="path1278" />
</g>
<g
   id="g1284"
   transform="translate(-109.385,-1246.25)">
  <path
     fill="none"
     stroke="#000000"
     stroke-width="4"
     stroke-linecap="round"
     stroke-linejoin="round"
     d="m -358.365,1390.47 -0.484,-0.89 0.279,-1.41 1.511,-1.37 4.395,-2.57 5.815,-2.61 2.388,-0.66"
     id="path1282" />
</g>
<g
   id="g1288"
   transform="translate(-109.385,-1246.25)">
  <path
     fill="none"
     stroke="#000000"
     stroke-width="4"
     stroke-linecap="round"
     stroke-linejoin="round"
     d="m -304.53,1378.16 -0.282,-0.43 -0.527,-0.06 -2.037,0.25 -2.143,0.78 -1.757,1.32 -0.817,1.03 -0.273,1.13 0.311,2.5 4.35,9.42 0.321,1.39 -0.125,1.5 -1.446,1.36 -1.435,0.64 -2.689,0.65 -2.832,-0.07 -1.599,-0.88 -0.234,-0.89 2.28,-1.81 2.578,-1.4"
     id="path1286" />
</g>
<g
   id="g1292"
   transform="translate(-109.385,-1246.25)">
  <path
     fill="none"
     stroke="#000000"
     stroke-width="4"
     stroke-linecap="round"
     stroke-linejoin="round"
     d="m -284.711,1383.42 -2.819,-0.37 -2.364,1.57 -0.652,0.99 -0.94,2.37 -0.098,1.7 0.478,2.27 1.195,1.2 1.017,0.14 1.82,-0.41 1.508,-0.81 2.744,-2.34 2.445,-4.03 0.444,-1.79 -0.278,-1.31 -0.645,-1.16 -1.73,-1.16 -4.643,-1.27 -4.756,0.35 -2.584,1.45 -0.767,1.57 0.555,1.88 2.353,2.79 2.19,1.23"
     id="path1290" />
</g>
<g
   id="g1296"
   transform="translate(-109.385,-1246.25)">
  <path
     fill="none"
     stroke="#000000"
     stroke-width="4"
     stroke-linecap="round"
     stroke-linejoin="round"
     d="m -267.289,1379.77 -0.795,0.57 -1.941,2.84 -2.419,4.64 -0.158,1.45 0.747,2.62 0.66,-0.04 2.088,-1.45 5.773,-5.42 0.387,0.03 0.42,-0.46 0.166,4.51 -0.781,3.53 0.508,-1.09 1.595,-0.66 1.056,-1.12 1.249,-0.51 2.125,-1.66 2.496,-0.76 1.901,0.26 0.637,0.21 1.015,1.09 -0.904,6.37"
     id="path1294" />
</g>
<g
   id="g1300"
   transform="translate(-109.385,-1246.25)">
  <path
     fill="none"
     stroke="#000000"
     stroke-width="4"
     stroke-linecap="round"
     stroke-linejoin="round"
     d="m -226.9,1396.66 0.056,-0.3 -0.683,0.41 -0.153,-0.2 -1.143,0.72 -0.572,-0.66 -2.47,-1.11 -0.983,-0.8 -2.32,-2.8 -1.803,-4.5 -0.409,-1.82 -0.066,-2.58 0.876,-2.6 0.727,-1.1 1.214,-1.31 1.231,-0.65 0.91,2.32 0.086,1.43 -0.722,1.68 -1.226,0.79 -0.632,-0.03 -0.018,-0.32 0.754,0.49"
     id="path1298" />
</g>
<g
   id="g1304"
   transform="translate(-109.385,-1246.25)">
  <path
     fill="none"
     stroke="#000000"
     stroke-width="4"
     stroke-linecap="round"
     stroke-linejoin="round"
     d="m -196.384,1384.07 -1.133,-0.13 0.08,0.35 0.746,0.09 1.131,0.74 1.503,1.42 3.873,1.82 5.684,0.9 3.845,-1.17 1.581,0.01"
     id="path1302" />
</g>
<g
   id="g1308"
   transform="translate(-109.385,-1246.25)">
  <path
     fill="none"
     stroke="#000000"
     stroke-width="4"
     stroke-linecap="round"
     stroke-linejoin="round"
     d="m -177.22,1382.68 -0.402,-0.68 -3.147,9.45 -2.099,4.97 -4.26,8.55 -0.669,2.33"
     id="path1306" />
</g>
<g
   id="g1312"
   transform="translate(-109.385,-1246.25)">
  <path
     fill="none"
     stroke="#000000"
     stroke-width="4"
     stroke-linecap="round"
     stroke-linejoin="round"
     d="m -152.13,1395.28 -0.267,-0.11 -0.055,0.89 -4.776,11.87"
     id="path1310" />
</g>
<g
   id="g1316"
   transform="translate(-109.385,-1246.25)">
  <path
     fill="none"
     stroke="#000000"
     stroke-width="4"
     stroke-linecap="round"
     stroke-linejoin="round"
     d="m -112.65,1385.59 1,-0.01 -0.573,0.29 -1.186,-0.91 -1.414,0.41 -2.444,2.26 -2.167,3.47 -0.831,3.99 0.503,3 1.441,2.05 3.677,1.45 2.857,-0.52 3.063,-2.52 3.246,-5.13 1.96,-5.59 0.872,-4.36 0.101,-2.43 -0.351,-0.79 -0.296,0.12 -0.283,2.32 -0.316,0.26 -1.6,5.15 -1.099,5.66 -1.661,11.86 -0.174,4.2 0.489,3.72"
     id="path1314" />
</g>
<g
   id="g1320"
   transform="translate(-109.385,-1246.25)">
  <path
     fill="none"
     stroke="#000000"
     stroke-width="4"
     stroke-linecap="round"
     stroke-linejoin="round"
     d="m -64.8152,1377.96 0.2866,-1.69 -0.0714,1.03 0.3843,0.41 0.734,5.07 0.2687,8.15 -0.201,6.72 -1.5747,9.05 -1.4104,3.77 -1.5344,2.1 0.2848,-0.23 0.1859,0.44 0.0251,-0.41 -1.0458,-3.26 -0.2211,-2.72 0.3926,-3.68 0.7404,-3.03 3.4061,-7.81 5.3824,-9.02 6.2064,-7.4 1.5893,-0.75 -0.9006,2.11 0.3697,3.12 -0.1818,2.47 -2.531,7.64 0.1206,2.09 0.6619,1.03"
     id="path1318" />
</g>
<g
   id="g1324"
   transform="translate(-109.385,-1246.25)">
  <path
     fill="none"
     stroke="#000000"
     stroke-width="4"
     stroke-linecap="round"
     stroke-linejoin="round"
     d="m -39.8715,1376.37 0.2853,3.93 -0.3102,2.97 -3.0509,13.35"
     id="path1322" />
</g>
<g
   id="g1328"
   transform="translate(-109.385,-1246.25)">
  <path
     fill="none"
     stroke="#000000"
     stroke-width="4"
     stroke-linecap="round"
     stroke-linejoin="round"
     d="m -36.3352,1388.39 0.2454,-2.48 1.1098,-2.38 0.2722,-0.17 0.4918,0.44 2.3472,-0.73"
     id="path1326" />
</g>
<g
   id="g1332"
   transform="translate(-109.385,-1246.25)">
  <path
     fill="none"
     stroke="#000000"
     stroke-width="4"
     stroke-linecap="round"
     stroke-linejoin="round"
     d="m -22.8386,1380.32 0.3316,0.82 -0.5142,11.04 -1.0239,3.37 -0.1972,0.23 -0.3294,-0.15 -0.0535,-1.02"
     id="path1330" />
</g>
<g
   id="g1336"
   transform="translate(-109.385,-1246.25)">
  <path
     fill="none"
     stroke="#000000"
     stroke-width="4"
     stroke-linecap="round"
     stroke-linejoin="round"
     d="m -21.6041,1361.34 -1.0517,-4.21 -0.0416,-1.27 0.2931,1.96 1.268,2.5"
     id="path1334" />
</g>
<g
   id="g1340"
   transform="translate(-109.385,-1246.25)">
  <path
     fill="none"
     stroke="#000000"
     stroke-width="4"
     stroke-linecap="round"
     stroke-linejoin="round"
     d="m -8.22803,1386.63 -0.30542,-1.75 0.45087,-0.23 0.09314,1.1 -3.08116,8.68 -0.0985,0.91 0.2762,0.18 0.7599,-1.37 0.35193,0.18 2.92731,-1.73 3.39783,-2.92 5.92328,-6.4 -0.58167,0.88 -0.11407,3.67 -1.7169225,7.14 0.9724125,-1.59 8.5116,-7.06 3.7398,-1.91 1.5817,-0.16 0.3026,0.17 0.0124,0.68 -0.6065,2 -0.6303,7.7"
     id="path1338" />
</g>
<g
   id="g1344"
   transform="translate(-109.385,-1246.25)">
  <path
     fill="none"
     stroke="#000000"
     stroke-width="4"
     stroke-linecap="round"
     stroke-linejoin="round"
     d="m 35.508,1401.66 0.8415,-0.38 -0.028,-1.05 -2.2429,-1.95 -0.2638,-0.73 -0.9226,-0.93 -1.3766,-3.66 -0.9007,-4.34 -0.159,-4.74 0.5871,-3.31 0.5319,-1.48 1.2643,-1.9 0.4182,0.16 1.5214,-1.6 0.2183,0.24 1.1696,-0.59 1.089,0.15 0.4333,1.08 -0.6211,3.32 -2.4019,3.3 -0.3979,0.05 -0.8037,1.48 -0.1043,1.74 0.4764,0.48"
     id="path1342" />
</g>
<g
   id="g1348"
   transform="translate(-109.385,-1246.25)">
  <path
     fill="none"
     stroke="#000000"
     stroke-width="4"
     stroke-linecap="round"
     stroke-linejoin="round"
     d="m -570.417,1430.51 -0.178,-1.03 -1.285,-0.14 -0.809,0.29"
     id="path1346" />
</g>
<g
   id="g1352"
   transform="translate(-109.385,-1246.25)">
  <path
     fill="none"
     stroke="#000000"
     stroke-width="4"
     stroke-linecap="round"
     stroke-linejoin="round"
     d="m -572.993,1427.58 -0.727,-1.22 0.096,-0.91 0.97,-2.36 0.762,0.14 -0.098,2.34 1.24,7.41 0.537,12.76 -0.017,10.61 0.33,0.84 0.042,-0.66 -0.229,0.25 1.414,-2.58"
     id="path1350" />
</g>
<g
   id="g1356"
   transform="translate(-109.385,-1246.25)">
  <path
     fill="none"
     stroke="#000000"
     stroke-width="4"
     stroke-linecap="round"
     stroke-linejoin="round"
     d="m -570.934,1427.8 -0.435,0.39 0.968,-0.17 0.949,-3.05 2.19,-3.07 1.563,-1.08 4.356,-1.87 3.017,-0.24 1.83,0.33 4.145,1.75 2.769,2.09 0.289,2.01 -0.481,2.74 -1.425,3.49 -2.291,2.94 -5.416,3.81 -4.674,2.5 -3.028,0.95 0.165,-0.23 -0.392,-0.37 -0.527,0.05 0.215,0.34 0.123,-0.37 0.445,0.24 2.481,1.87 7.706,7.85 5.556,4.38 3.296,3.67 0.027,0.21 -0.232,-0.12 0.525,0.77 0.124,-1.07 -0.602,-4.84"
     id="path1354" />
</g>
<g
   id="g1360"
   transform="translate(-109.385,-1246.25)">
  <path
     fill="none"
     stroke="#000000"
     stroke-width="4"
     stroke-linecap="round"
     stroke-linejoin="round"
     d="m -525.136,1450.73 0.029,-2.53 -0.728,0.29 -0.944,-0.48 -0.164,0.25 -0.673,-0.31 -0.74,0.33 -0.312,-0.23 -1.185,1.61 -0.702,2.2 0.11,2.99 0.886,3.38 0.946,1.85 1.064,0.66 1.481,-0.96 2.088,-3.94 1.101,-4.47 0.177,-2.33 -0.302,-1.18 -0.502,-0.69 0.608,2.41 0.47,5.66 -0.268,18.29 0.133,1.72 0.664,1.62 0.383,0.26 0.455,-0.26 0.099,-0.72"
     id="path1358" />
</g>
<g
   id="g1364"
   transform="translate(-109.385,-1246.25)">
  <path
     fill="none"
     stroke="#000000"
     stroke-width="4"
     stroke-linecap="round"
     stroke-linejoin="round"
     d="m -498.622,1432.06 -0.429,-0.01 0.381,0.6 0.707,-0.49 7.257,-0.13 2.221,0.36 0.427,-0.44 0.734,0.08"
     id="path1362" />
</g>
<g
   id="g1368"
   transform="translate(-109.385,-1246.25)">
  <path
     fill="none"
     stroke="#000000"
     stroke-width="4"
     stroke-linecap="round"
     stroke-linejoin="round"
     d="m -494.508,1439.19 -0.824,0.28 0.515,0.49 0.553,-0.09 2.075,0.86 2.671,0.31 0.952,0.53 6.514,-0.14"
     id="path1366" />
</g>
<g
   id="g1372"
   transform="translate(-109.385,-1246.25)">
  <path
     fill="none"
     stroke="#000000"
     stroke-width="4"
     stroke-linecap="round"
     stroke-linejoin="round"
     d="m -453.973,1420.23 -0.899,-0.67 -0.609,-0.03 0.024,-0.65 -0.247,0.26 -0.014,-0.36 -0.125,0.36 0.272,0.17 -0.08,-0.24 0.737,0.19 12.599,-0.75 13.384,0.54 8.333,1.24 1.34,0.87 1.574,3.29 -1.442,2.57 -3.367,3.12 -9.076,5.6 -15.15,10.12 -3.044,2.1 -6.469,5.29 0.465,-0.38 0.045,0.29 2.129,0.99 6.39,1.43 6.604,-0.08 6.758,-1.42 13.252,-4.28 3.046,-0.16 2.647,0.43 0.725,0.39"
     id="path1370" />
</g>
<g
   id="g1376"
   transform="translate(-109.385,-1246.25)">
  <path
     fill="none"
     stroke="#000000"
     stroke-width="4"
     stroke-linecap="round"
     stroke-linejoin="round"
     d="m -458.898,1450.4 -1.881,0.95 -0.008,0.32 0.079,-0.37 0.136,0.38 0.665,-0.24 5.158,-5.75 8.91,-9.07 14.178,-12.28 2.289,-2.77 -0.112,0.2 0.284,-0.02 0.51,-1.02 1.106,2.37"
     id="path1374" />
</g>
<g
   id="g1380"
   transform="translate(-109.385,-1246.25)">
  <path
     fill="none"
     stroke="#000000"
     stroke-width="4"
     stroke-linecap="round"
     stroke-linejoin="round"
     d="m -393.119,1449.01 0.793,-3.11 -0.348,-0.62 -1.43,0.77 -1.67,-0.54 -1.825,0.45 -2.447,1.67 -1.838,3.05 -0.832,2.2 -0.205,2.82 0.354,2.24 0.904,1.67 1.131,1.24 1.836,0.71 1.58,-0.16 2.679,-1.45 3.312,-2.86 3.184,-4.71 1.243,-2.36 0.738,-3 -0.206,-0.18 -0.313,0.38 -0.77,2.41 -0.212,8.52 -1.395,12.85 0.264,3.03 0.806,-0.06 0.72,-0.5"
     id="path1378" />
</g>
<g
   id="g1384"
   transform="translate(-109.385,-1246.25)">
  <path
     fill="none"
     stroke="#000000"
     stroke-width="4"
     stroke-linecap="round"
     stroke-linejoin="round"
     d="m -356.4,1418.26 0.3,-1.74 1.04,-2.01 -0.508,2.37 0.664,2.92 0.236,3.29 -0.393,7.02 -1.443,8.19 -5.153,18.71 0.649,-0.76 0.486,0.2 0.095,0.61 1.219,1.53 2.053,-0.13 3.578,-0.94 14.421,-7.19 3.474,-2.61 2.14,-2.72"
     id="path1382" />
</g>
<g
   id="g1388"
   transform="translate(-109.385,-1246.25)">
  <path
     fill="none"
     stroke="#000000"
     stroke-width="4"
     stroke-linecap="round"
     stroke-linejoin="round"
     d="m -353.46,1421.17 -2.08,-2.28 0.898,0.72 19.513,-1.44 4.579,0.04"
     id="path1386" />
</g>
<g
   id="g1392"
   transform="translate(-109.385,-1246.25)">
  <path
     fill="none"
     stroke="#000000"
     stroke-width="4"
     stroke-linecap="round"
     stroke-linejoin="round"
     d="m -329.483,1451.57 -0.304,-0.09 0.232,-0.18 0.096,0.46 0.479,0.08 0.966,-0.92 1.054,-0.35 1.816,-1.73 5.884,-4.12 7.626,-5.16 3.995,-2.04"
     id="path1390" />
</g>
<g
   id="g1396"
   transform="translate(-109.385,-1246.25)">
  <path
     fill="none"
     stroke="#000000"
     stroke-width="4"
     stroke-linecap="round"
     stroke-linejoin="round"
     d="m -319.599,1436.51 -1.029,-0.16 -0.133,0.51 2.378,3.55 3.256,4.04 3.018,3.64 3.084,2.13 1.042,0.35"
     id="path1394" />
</g>
<g
   id="g1400"
   transform="translate(-109.385,-1246.25)">
  <path
     fill="none"
     stroke="#000000"
     stroke-width="4"
     stroke-linecap="round"
     stroke-linejoin="round"
     d="m -305.391,1415.53 -0.707,-0.44 0.55,0.87 0.76,0.07 0.726,0.6 8.139,1.56 5.398,0.52 1.587,-0.17 0.522,-0.36 -0.287,-0.17 -0.123,0.36 -0.066,-0.28 -0.021,0.6 4.438,14.34 2.061,12.46 0.233,9.24 -0.602,4.86 -0.868,2.78 0.147,-2.03 -0.179,1.08 -0.053,-0.35 -0.457,0.5 -6.716,1.23 -1.509,0.72 -3.935,0.49 -2.452,1.05 -3.212,0.12"
     id="path1398" />
</g>
<g
   id="g1404"
   transform="translate(-109.385,-1246.25)">
  <path
     fill="none"
     stroke="#000000"
     stroke-width="4"
     stroke-linecap="round"
     stroke-linejoin="round"
     d="m -247.391,1416.55 0.215,-1.83 0.274,0.22 -0.571,0.96 -3.564,21.51 -5.339,20.96 -0.395,2.54 0.202,0.91 0.706,0.3 -0.3,-0.35 0.002,0.42 0.562,-0.8 4.79,-3.86"
     id="path1402" />
</g>
<g
   id="g1408"
   transform="translate(-109.385,-1246.25)">
  <path
     fill="none"
     stroke="#000000"
     stroke-width="4"
     stroke-linecap="round"
     stroke-linejoin="round"
     d="m -228.731,1441.66 0.109,0.93 0.637,0.12 12.597,-8.34 9.729,-7.24 1.134,-1.21 -0.571,0.34 0.074,0.33 0.164,-0.97"
     id="path1406" />
</g>
<g
   id="g1412"
   transform="translate(-109.385,-1246.25)">
  <path
     fill="none"
     stroke="#000000"
     stroke-width="4"
     stroke-linecap="round"
     stroke-linejoin="round"
     d="m -229.192,1439.68 -0.182,0.23 -0.324,-0.23 -0.229,0.32 -0.754,-0.18 0.52,0.26 0.013,0.55 1.797,2.7 2.662,3.15 4.104,4.02 4.405,3.08 4.623,2.01 2.796,0.65 1.735,1.41 -0.089,-0.62 0.658,-0.48"
     id="path1410" />
</g>
<g
   id="g1416"
   transform="translate(-109.385,-1246.25)">
  <path
     fill="none"
     stroke="#000000"
     stroke-width="4"
     stroke-linecap="round"
     stroke-linejoin="round"
     d="m -194.627,1450.76 0.312,1.56 1.129,-0.27 6.281,-4.58 12.863,-10.23 2.843,-1.26 -0.445,0.66 -0.496,-0.17 0.089,0.39"
     id="path1414" />
</g>
<g
   id="g1420"
   transform="translate(-109.385,-1246.25)">
  <path
     fill="none"
     stroke="#000000"
     stroke-width="4"
     stroke-linecap="round"
     stroke-linejoin="round"
     d="m -186.047,1435.67 -1.44,-1.25 0.702,0.52 0.037,0.53 10.994,20.08 4.812,5.8 1.735,1.48 0.817,0.25"
     id="path1418" />
</g>
<g
   id="g1424"
   transform="translate(-109.385,-1246.25)">
  <path
     fill="none"
     stroke="#000000"
     stroke-width="4"
     stroke-linecap="round"
     stroke-linejoin="round"
     d="m -161.504,1427.72 -0.119,-2.02 0.568,-2.22 -0.157,1.49 0.636,1.57 0.608,4.18 0.238,5.96 0.22,1.08 0.311,0.19 0.393,-0.21 -0.015,-0.66 0.409,-0.46 1.706,-0.61 7.094,-4.71 1.254,-0.38 0.045,1.49 1.201,2.23 0.815,6.48"
     id="path1422" />
</g>
<g
   id="g1428"
   transform="translate(-109.385,-1246.25)">
  <path
     fill="none"
     stroke="#000000"
     stroke-width="4"
     stroke-linecap="round"
     stroke-linejoin="round"
     d="m -128.65,1437.96 -0.116,11.02 0.342,6.54"
     id="path1426" />
</g>
<g
   id="g1432"
   transform="translate(-109.385,-1246.25)">
  <path
     fill="none"
     stroke="#000000"
     stroke-width="4"
     stroke-linecap="round"
     stroke-linejoin="round"
     d="m -133.559,1449.33 -0.125,-0.72 0.288,-0.79 0.288,0.8 1.251,0.52 3.482,0.57 9.865,-1.38"
     id="path1430" />
</g>
<g
   id="g1436"
   transform="translate(-109.385,-1246.25)">
  <path
     fill="none"
     stroke="#000000"
     stroke-width="4"
     stroke-linecap="round"
     stroke-linejoin="round"
     d="m -103.169,1447.11 -0.296,0.43 0.174,0.57 0.652,0.07 4.6726,-3.16 10.1538,-9.93 6.2441,-8.16 -0.0481,-0.49 -0.3019,0.05 -0.4056,-0.58 0.455,-0.8 0.2354,0.52 -0.3358,3.24 -0.9739,6.51 -4.43,23.18 0.2298,2.9 1.0782,1.51"
     id="path1434" />
</g>
<g
   id="g1440"
   transform="translate(-109.385,-1246.25)">
  <path
     fill="none"
     stroke="#000000"
     stroke-width="4"
     stroke-linecap="round"
     stroke-linejoin="round"
     d="m -61.9743,1427.73 -0.7947,-0.09 0.4392,1.46 0.0395,-0.25 0.3631,0.13 2.2632,3.28 2.1612,1.88 2.9165,1.92 7.4034,2.95 5.8165,3.8 1.1494,0.98 0.7304,1.14 -0.4123,-0.16 -0.0373,-0.39 -0.1502,1.21 -4.4358,4.76 -11.3288,11.04 -3.9749,4.31 -1.1387,0.74 -0.0502,0.5 0.7044,-0.05"
     id="path1438" />
</g>
<g
   id="g1444"
   transform="translate(-109.385,-1246.25)">
  <path
     fill="none"
     stroke="#000000"
     stroke-width="4"
     stroke-linecap="round"
     stroke-linejoin="round"
     d="m -574,1491.08 0.768,-0.98 -0.15,1.44 1.269,6.99 0.482,6.6 0.056,18.58 0.485,1.94 0.313,-0.02 -0.398,0.27 0.667,-1.93"
     id="path1442" />
</g>
<g
   id="g1448"
   transform="translate(-109.385,-1246.25)">
  <path
     fill="none"
     stroke="#000000"
     stroke-width="4"
     stroke-linecap="round"
     stroke-linejoin="round"
     d="m -572.818,1492.02 -1.724,0.06 1.104,0.47 1.62,-1.05 8.741,-3.09 5.628,-1.49 4.319,-0.71 7.975,-2.34"
     id="path1446" />
</g>
<g
   id="g1452"
   transform="translate(-109.385,-1246.25)">
  <path
     fill="none"
     stroke="#000000"
     stroke-width="4"
     stroke-linecap="round"
     stroke-linejoin="round"
     d="m -566.073,1502.1 -0.612,0.19 0.317,0.37 0.38,-0.25 6.003,0.76 3.818,-0.63 7.344,-1.89"
     id="path1450" />
</g>
<g
   id="g1456"
   transform="translate(-109.385,-1246.25)">
  <path
     fill="none"
     stroke="#000000"
     stroke-width="4"
     stroke-linecap="round"
     stroke-linejoin="round"
     d="m -534.589,1511.83 -1.569,1.1 -1.216,1.56 -0.623,2.63 1.331,3.94 0.828,1.17 2.205,1.36 1.423,-0.11 1.798,-0.86 2.326,-2.31 2.175,-3.34 0.717,-2.18 0.108,-1.58 -0.635,-1.64 -1.467,-1.32 -2.702,-0.59 -2.107,0.34 -1.807,1.42 -1.326,2.22 -0.256,1.59 0.254,1.12 1.224,1.66"
     id="path1454" />
</g>
<g
   id="g1460"
   transform="translate(-109.385,-1246.25)">
  <path
     fill="none"
     stroke="#000000"
     stroke-width="4"
     stroke-linecap="round"
     stroke-linejoin="round"
     d="m -507.017,1507.25 0.146,-2.13 -0.313,-0.03 -0.535,6.18 -2.247,9.21"
     id="path1458" />
</g>
<g
   id="g1464"
   transform="translate(-109.385,-1246.25)">
  <path
     fill="none"
     stroke="#000000"
     stroke-width="4"
     stroke-linecap="round"
     stroke-linejoin="round"
     d="m -505.22,1517 0.157,-0.95 1.328,-1.83 6.814,-3.93 2.942,-0.95"
     id="path1462" />
</g>
<g
   id="g1468"
   transform="translate(-109.385,-1246.25)">
  <path
     fill="none"
     stroke="#000000"
     stroke-width="4"
     stroke-linecap="round"
     stroke-linejoin="round"
     d="m -438.843,1505.41 -3.192,-2.41 -1.013,0.26 -1.663,-0.21 -0.942,0.45 -1.517,0.01 -0.838,0.73 -1.196,0.3 -2.708,2.5 -2.17,3.56 -0.422,2.45 0.55,2.9 1.088,2.17 2.831,1.96 2.852,0.11 0.884,-0.69 0.443,0.13 1.404,-0.62 2.312,-2.18 1.233,-1.85 0.731,-2.67 -0.447,-3.3 -0.734,-1.2 -1.137,-0.85 0.084,0.92 3.616,5.85 1.977,2.05 2.637,1.63"
     id="path1466" />
</g>
<g
   id="g1472"
   transform="translate(-109.385,-1246.25)">
  <path
     fill="none"
     stroke="#000000"
     stroke-width="4"
     stroke-linecap="round"
     stroke-linejoin="round"
     d="m -422.02,1508.66 0.138,-2.6 0.256,1.29 -0.564,4.12 0.48,4.18 0.763,-0.85 3.105,-1.59 4.065,-2.8 1.751,-0.52 0.861,0.07 0.916,1.24 1.395,5.58 1.324,2.49 0.788,0.67 1.588,0.55 2.573,0.11"
     id="path1470" />
</g>
<g
   id="g1476"
   transform="translate(-109.385,-1246.25)">
  <path
     fill="none"
     stroke="#000000"
     stroke-width="4"
     stroke-linecap="round"
     stroke-linejoin="round"
     d="m -400.149,1512.64 -1.557,-0.33 0.265,0.51 1.764,0.23 7.379,3.01 2.723,1.45 0.933,0.08 1.758,1.03"
     id="path1474" />
</g>
<g
   id="g1480"
   transform="translate(-109.385,-1246.25)">
  <path
     fill="none"
     stroke="#000000"
     stroke-width="4"
     stroke-linecap="round"
     stroke-linejoin="round"
     d="m -381.965,1507.81 -1.488,0.41 -2.165,2.43 -4.211,6.11 -2.145,4.14 -3.378,9.46 -1.753,6.3 -0.262,4 0.539,2.38"
     id="path1478" />
</g>
<g
   id="g1484"
   transform="translate(-109.385,-1246.25)">
  <path
     fill="none"
     stroke="#000000"
     stroke-width="4"
     stroke-linecap="round"
     stroke-linejoin="round"
     d="m -304.254,1502.46 -0.021,-0.95 0.427,-0.8 -0.31,-0.76 -1.952,-0.53 -3.619,0.23 -0.923,0.15 -1.484,0.81 -1.162,1.25 -0.909,2.07 0.038,1.48 0.523,1.23 2.551,3.34 1.529,1.42 2.391,4.09 0.031,2.67 -0.959,2.51 -1.297,0.56 -4.105,0.87 -4.131,-0.16 -3.275,-1.18 -1.157,-0.86 -0.148,-0.57 0.305,-0.59 2.147,-1.74"
     id="path1482" />
</g>
<g
   id="g1488"
   transform="translate(-109.385,-1246.25)">
  <path
     fill="none"
     stroke="#000000"
     stroke-width="4"
     stroke-linecap="round"
     stroke-linejoin="round"
     d="m -271.409,1500.32 1.874,-4.08 -0.444,0.24 -0.496,1.04 -3.012,-0.41 -5.063,2.12 -6.023,4.73 -2.301,2.78 -4.737,4.2 -1.68,2.47 -0.347,1.8 1.173,2.35 2.252,2.45 3.343,2.24 2.638,1.08 2.456,0.57 1.35,0.1 1.357,-0.4 2.885,-0.18 4.09,-1.62 3.92,-2.71"
     id="path1486" />
</g>
<g
   id="g1492"
   transform="translate(-109.385,-1246.25)">
  <path
     fill="none"
     stroke="#000000"
     stroke-width="4"
     stroke-linecap="round"
     stroke-linejoin="round"
     d="m -282.746,1512.64 -2.797,-2.17 -0.346,0.1 0.069,0.33 0.207,-0.18 0.616,0.59 0.139,-0.29 0.377,0.55 1.915,0.91 4.372,1.08 h 4.271 l 6.157,-0.98"
     id="path1490" />
</g>
<g
   id="g1496"
   transform="translate(-109.385,-1246.25)">
  <path
     fill="none"
     stroke="#000000"
     stroke-width="4"
     stroke-linecap="round"
     stroke-linejoin="round"
     d="m -228.175,1521.74 -0.141,0.62 0.383,0.87 -0.676,-0.8 -0.66,-0.19 -1.926,-2.87 -0.735,-3 0.054,-3.66 0.312,-2.45 6.115,-22.52 1.408,-3.93 4.083,-5.78 2.561,-2.3 2.736,-0.49 5.333,1.5 4.24,3.41 1.539,3.2 0.145,1.38 -1.151,5.1 -1.722,3.01 -2.804,3.45 -5.306,3.15 -4.913,1.26 -3.542,-0.07 -1.612,-0.24 -0.412,-0.37 0.563,0.65 0.36,-0.24 1.511,0.75 14.075,15.49 0.894,0.41 2.381,2.01 0.374,-0.16 0.959,0.65 1.709,0.35"
     id="path1494" />
</g>
<g
   id="g1500"
   transform="translate(-109.385,-1246.25)">
  <path
     fill="none"
     stroke="#000000"
     stroke-width="4"
     stroke-linecap="round"
     stroke-linejoin="round"
     d="m -175.154,1516.91 1.377,-2.06 -0.399,0.53 -0.334,-0.21 -0.854,-1.55 -1.183,-1.17 -1.862,-0.25 -2.832,0.64 -1.93,1.67 -1.448,2.16 -0.544,3.58 0.702,3.92 1.499,3.01 1.484,1.2 1.459,0.09 0.839,-0.4 1.493,-1.23 2.516,-3.11 2.677,-4.64 1.566,-5.97 0.392,-3.26 -0.233,-1.04 -0.568,8.5 -1.216,10.27 -1.744,8.71 -0.536,4.4 0.158,4.39 0.744,1.24 0.917,0.27"
     id="path1498" />
</g>
<g
   id="g1504"
   transform="translate(-109.385,-1246.25)">
  <path
     fill="none"
     stroke="#000000"
     stroke-width="4"
     stroke-linecap="round"
     stroke-linejoin="round"
     d="m -571.601,1584.51 0.689,1.09 -0.075,-0.37 0.295,-0.05 1.529,-2.39 3.437,-5.97 7.349,-14.84 1.784,-4.89 4.411,-9.09 1.044,-5.35 -0.167,0.38 1.635,5.98 0.988,5.03 5.199,28.99 0.121,2.47 -0.647,-1.32"
     id="path1502" />
</g>
<g
   id="g1508"
   transform="translate(-109.385,-1246.25)">
  <path
     fill="none"
     stroke="#000000"
     stroke-width="4"
     stroke-linecap="round"
     stroke-linejoin="round"
     d="m -559.721,1571.97 -0.905,0.13 3.519,0.41 12.939,0.55 4.659,0.63"
     id="path1506" />
</g>
<g
   id="g1512"
   transform="translate(-109.385,-1246.25)">
  <path
     fill="none"
     stroke="#000000"
     stroke-width="4"
     stroke-linecap="round"
     stroke-linejoin="round"
     d="m -516.928,1573.97 0.346,-0.46 -0.315,-0.74 -0.502,-0.35 -0.118,0.29 -1.717,-0.41 -2.635,0.72 -1.609,0.91 0.664,0.13 1.4,3.77 1.228,2.13 3.12,3.76 0.327,1.29 -0.221,1.26 -0.938,1.76 -3.389,1.53 -6.842,1 0.702,-0.73 0.55,0.37"
     id="path1510" />
</g>
<g
   id="g1516"
   transform="translate(-109.385,-1246.25)">
  <path
     fill="none"
     stroke="#000000"
     stroke-width="4"
     stroke-linecap="round"
     stroke-linejoin="round"
     d="m -504.716,1582.9 0.156,-0.39 0.13,0.37 -0.104,-0.31 0.247,-0.08 -0.012,0.29 -0.675,2.27 -2.687,6.73"
     id="path1514" />
</g>
<g
   id="g1520"
   transform="translate(-109.385,-1246.25)">
  <path
     fill="none"
     stroke="#000000"
     stroke-width="4"
     stroke-linecap="round"
     stroke-linejoin="round"
     d="m -487.668,1570.13 0.274,0.12 0.505,-0.88 -0.094,0.66 0.348,-0.53 0.123,0.28 0.495,-0.1 3.583,-1.89 0.701,0.16 2.231,-0.63 1.134,0.42 1.642,1.48 1.619,3.01 0.353,1.54 -0.41,6.85 0.806,4.27 1.607,3.7 1.754,1.82 1.222,0.49 1.437,0.04 3.641,-0.63 6.679,-2.78 2.044,-1.29"
     id="path1518" />
</g>
<g
   id="g1524"
   transform="translate(-109.385,-1246.25)">
  <path
     fill="none"
     stroke="#000000"
     stroke-width="4"
     stroke-linecap="round"
     stroke-linejoin="round"
     d="m -482.781,1589.95 -0.427,-0.22 0.504,0.74 2.312,-1.54 4.314,-4.25 1.317,-0.86 2.749,-2.85 2.149,-1.71 2.022,-2.25 2.731,-1.76 3.555,-3.1 2.855,-1.73"
     id="path1522" />
</g>
<g
   id="g1528"
   transform="translate(-109.385,-1246.25)">
  <path
     fill="none"
     stroke="#000000"
     stroke-width="4"
     stroke-linecap="round"
     stroke-linejoin="round"
     d="m -435.509,1555.67 -0.843,0.42 -0.067,0.46 -0.114,-0.18 0.429,0.39 -0.481,1.24 -0.046,2.3 0.538,0.38 0.68,-0.43 2.482,-3.63 0.214,-0.83 -0.344,-0.47 -2.164,0.26 -0.203,0.35 0.601,-0.13 0.698,0.61 0.153,0.68"
     id="path1526" />
</g>
<g
   id="g1532"
   transform="translate(-109.385,-1246.25)">
  <path
     fill="none"
     stroke="#000000"
     stroke-width="4"
     stroke-linecap="round"
     stroke-linejoin="round"
     d="m -438.361,1581.04 v 1.5 l 0.995,1.58 0.728,0.21 1.18,-0.94 0.609,-1.16 0.646,-0.46 0.219,-1.16 -0.321,-0.27 -0.597,0.19 -1.486,1.18 -1.109,0.25 -1.743,1.41 -0.553,1.09 0.046,0.8 1.35,0.93"
     id="path1530" />
</g>
<g
   id="g1536"
   transform="translate(-109.385,-1246.25)">
  <path
     fill="none"
     stroke="#000000"
     stroke-width="4"
     stroke-linecap="round"
     stroke-linejoin="round"
     d="m -483.98,1623.5 0.085,-1.03 -2.289,-0.26 -0.324,-0.31 -2.292,0.97 -3.109,2.31 -2.552,3.59 -1.014,2.48 -0.101,2.63 1.184,4.15 1.641,2.21 2.066,1.15 1.51,0.24 1.688,-0.31 2.838,-2.23 2.28,-3.07 1.093,-2.61 1.004,-3.83 -0.211,-3.27 -0.568,-1.16 -0.114,-1.54 -0.49,-1.08 0.304,1.33 1.922,2.9 5.691,11.24 2.899,3.74 1.118,0.79 0.918,0.19"
     id="path1534" />
</g>
<g
   id="g1540"
   transform="translate(-109.385,-1246.25)">
  <path
     fill="none"
     stroke="#000000"
     stroke-width="4"
     stroke-linecap="round"
     stroke-linejoin="round"
     d="m -429.431,1613.04 -0.002,-1.87 -0.669,0.44 -2.559,-0.51 -1.987,0.39 -2.424,1.21 -7.208,6.87 -3.4,4.8 -0.76,1.79 0.014,2.92 0.798,4.27 1.886,5.17 1.133,1.69 2.188,1.85 1.396,0.5 5.823,0.42 4.325,-0.28 4.86,-1.21 4.396,-2.46"
     id="path1538" />
</g>
<g
   id="g1544"
   transform="translate(-109.385,-1246.25)">
  <path
     fill="none"
     stroke="#000000"
     stroke-width="4"
     stroke-linecap="round"
     stroke-linejoin="round"
     d="m -439.683,1629.25 -1.77,-1.3 0.328,0.42 0.641,0.11 5.395,0.38 11.872,-0.79"
     id="path1542" />
</g>
<g
   id="g1548"
   transform="translate(-109.385,-1246.25)">
  <path
     fill="none"
     stroke="#000000"
     stroke-width="4"
     stroke-linecap="round"
     stroke-linejoin="round"
     d="m -385.45,1641.02 1.232,0.53 -0.316,0.43 0.1,-0.27 -0.123,0.18 -0.894,-1.43 -1.1,-3.98 -0.639,-5.04 -0.205,-5.21 0.752,-6.14 2.391,-8.35 2.841,-5.88 5.384,-8.09 1.507,-1.21 1.049,-1.36 2.747,-1.28 2.289,-0.07 3.01,0.49 2.191,1.08 1.865,1.64 1.068,3.39 -0.318,3.69 -0.511,2.05 -1.302,3.34 -2.656,3.69 -2.71,1.56 -5.217,1.28 -1.039,-0.01 -2.746,1.57 0.926,-0.24 -0.328,0.97 0.165,2.06 1.631,5.83 2.732,4.16 10.05,8.75 2.737,1.89 0.961,0.16 0.298,0.34 0.604,-0.89"
     id="path1546" />
</g>
<g
   id="g1552"
   transform="translate(-109.385,-1246.25)">
  <path
     fill="none"
     stroke="#000000"
     stroke-width="4"
     stroke-linecap="round"
     stroke-linejoin="round"
     d="m -335.484,1637.96 0.955,-1.3 0.207,-1.14 -0.221,-0.67 -0.76,0.21 -0.541,-0.46 -1.758,0.26 -1.563,0.76 -1.373,1.53 -1.457,2.43 -0.683,1.85 -0.255,2.74 0.588,2.67 0.66,1.01 1.345,0.94 2.057,-0.5 0.87,-0.66 1.805,-1.95 1.063,-2.07 2.996,-6.99 0.401,-2.24 -0.394,0.8 0.256,5.95 -0.513,5.13 -3.412,13.86"
     id="path1550" />
</g>
<g
   id="g1556"
   transform="translate(-109.385,-1246.25)">
  <path
     fill="none"
     stroke="#000000"
     stroke-width="4"
     stroke-linecap="round"
     stroke-linejoin="round"
     d="m -267.21,1621.12 -0.166,-2.01 -0.334,1.55 0.535,4.88 1.918,8.67 1.534,3.84 1.253,0.95 3.469,-1.67 1.916,-2.31 3.244,-4.92 1.496,-2.82 1.152,-3.08 0.64,-5.83 0.291,-1.01 0.441,0.52"
     id="path1554" />
</g>
<g
   id="g1560"
   transform="translate(-109.385,-1246.25)">
  <path
     fill="none"
     stroke="#000000"
     stroke-width="4"
     stroke-linecap="round"
     stroke-linejoin="round"
     d="m -238.014,1620.99 -0.171,-0.98 0.135,4.77 -0.302,5.24 0.097,2.41 0.356,1.06 0.534,-1.32 2.291,-1.49 9.8,-8.02 0.891,-0.35 -0.408,1.83 1.407,4.13 1.095,7.81"
     id="path1558" />
</g>
<g
   id="g1564"
   transform="translate(-109.385,-1246.25)">
  <path
     fill="none"
     stroke="#000000"
     stroke-width="4"
     stroke-linecap="round"
     stroke-linejoin="round"
     d="m -216.969,1629.6 -0.605,0.13 -0.565,1.54 1.094,-1.02"
     id="path1562" />
</g>
<g
   id="g1568"
   transform="translate(-109.385,-1246.25)">
  <path
     fill="none"
     stroke="#000000"
     stroke-width="4"
     stroke-linecap="round"
     stroke-linejoin="round"
     d="m -210.34,1597.53 -0.947,-3.33 -0.336,-0.31 0.193,1.47 1.515,3.29"
     id="path1566" />
</g>
<g
   id="g1572"
   transform="translate(-109.385,-1246.25)">
  <path
     fill="none"
     stroke="#000000"
     stroke-width="4"
     stroke-linecap="round"
     stroke-linejoin="round"
     d="m -181.815,1596.63 -2.945,-1.51 -1.834,-0.07 -1.503,0.84 -1.257,1.26 -2.189,3.34 -1.721,4.72 -1.807,11.28 -0.941,12.18 0.661,7.79 1.183,2.93 0.566,0.7"
     id="path1570" />
</g>
<g
   id="g1576"
   transform="translate(-109.385,-1246.25)">
  <path
     fill="none"
     stroke="#000000"
     stroke-width="4"
     stroke-linecap="round"
     stroke-linejoin="round"
     d="m -198.543,1624.95 -0.961,-0.82 -0.078,-0.7 0.497,1.23 3.512,1.57 5.437,1.34 5.326,0.49"
     id="path1574" />
</g>
<g
   id="g1580"
   transform="translate(-109.385,-1246.25)">
  <path
     fill="none"
     stroke="#000000"
     stroke-width="4"
     stroke-linecap="round"
     stroke-linejoin="round"
     d="m -176.681,1624.68 -1.108,0.29 -1.681,1.31 -1.064,4.14 0.204,1.41 1.18,1.79 1.165,0.95 0.961,0.22 2.727,-0.28 2.72,-1.36 2.982,-2.93 1.24,-2.17 0.982,-2.93 -0.176,-3.28 -1.652,-2.46 -1.008,-0.41 -0.734,0.2 -0.219,0.51 0.412,0.45 -0.252,1.46 0.313,2.3 0.717,1.13 1.59,1.17"
     id="path1578" />
</g>
<g
   id="g1584"
   transform="translate(-109.385,-1246.25)">
  <path
     fill="none"
     stroke="#000000"
     stroke-width="4"
     stroke-linecap="round"
     stroke-linejoin="round"
     d="m -176.563,1627.36 -2.293,0.64 -0.77,0.77 1.184,-0.05 0.886,1.41 1.178,1.12 2.144,0.87 1.372,-0.13 1.471,-0.79 1.098,-1 1.218,-1.78 0.951,-3.43 -0.12,-1.67 -0.76,-1.09 -1.569,-0.99 -2.505,-0.85 -2.363,0.02 -2.269,0.51 -2.775,1.77 -1.121,1.36 -0.585,1.65 -0.11,1.22 0.4,1.56 1.256,2.26 1.237,1.03"
     id="path1582" />
</g>
<g
   id="g1588"
   transform="translate(-109.385,-1246.25)">
  <path
     fill="none"
     stroke="#000000"
     stroke-width="4"
     stroke-linecap="round"
     stroke-linejoin="round"
     d="m -154.538,1617.72 0.012,-1.15 -0.307,-0.28 -1.5,10.63 0.003,3.15"
     id="path1586" />
</g>
<g
   id="g1592"
   transform="translate(-109.385,-1246.25)">
  <path
     fill="none"
     stroke="#000000"
     stroke-width="4"
     stroke-linecap="round"
     stroke-linejoin="round"
     d="m -152.041,1628.33 -0.239,-1.66 0.227,-0.6 0.439,0.27 0.371,-0.38 1.229,0.02 6.841,-2.1"
     id="path1590" />
</g>
<g
   id="g1596"
   transform="translate(-109.385,-1246.25)">
  <path
     fill="none"
     stroke="#000000"
     stroke-width="4"
     stroke-linecap="round"
     stroke-linejoin="round"
     d="m -135.161,1621.25 -0.929,0.91 -1.35,3.35 -1.267,5.4 -0.034,1.73 0.358,0.62 0.601,0.14 0.737,-0.45 12.153,-11.33 1.026,-0.58 -1.273,2.03 -1.314,7.23 0.468,-0.19 1.115,-1.47 3.968,-2.79 -0.139,0.63 1.133,4.3 -0.02,2.93 0.751,-0.21"
     id="path1594" />
</g>
<g
   id="g1600"
   transform="translate(-109.385,-1246.25)">
  <path
     fill="none"
     stroke="#000000"
     stroke-width="4"
     stroke-linecap="round"
     stroke-linejoin="round"
     d="m -94.1885,1593.81 -0.7411,-1.46 -2.1113,3.33 -2.3948,4.31 -3.3893,7.89 -1.659,4.78 -4.736,16.34 -0.304,3.36 0.141,0.98 0.613,0.91"
     id="path1598" />
</g>
<g
   id="g1604"
   transform="translate(-109.385,-1246.25)">
  <path
     fill="none"
     stroke="#000000"
     stroke-width="4"
     stroke-linecap="round"
     stroke-linejoin="round"
     d="m -97.6498,1621.18 -0.3059,-0.27 0.2009,0.6 0.9782,1.12 2.4366,1.47 2.6674,1.03 3.6523,0.51"
     id="path1602" />
</g>
<g
   id="g1608"
   transform="translate(-109.385,-1246.25)">
  <path
     fill="none"
     stroke="#000000"
     stroke-width="4"
     stroke-linecap="round"
     stroke-linejoin="round"
     d="m -80.6745,1618.69 -1.0264,0.37 -1.7582,2.7 -7.3428,14.08 -2.5716,6.59 -0.6614,5.84"
     id="path1606" />
</g>
<g
   id="g1612"
   transform="translate(-109.385,-1246.25)">
  <path
     fill="none"
     stroke="#000000"
     stroke-width="4"
     stroke-linecap="round"
     stroke-linejoin="round"
     d="m -36.9586,1606.04 -0.5247,-0.23 -0.122,0.26 0.5404,0.47 -2.453,24.01 0.0155,2.84 0.5057,1.11"
     id="path1610" />
</g>
<g
   id="g1616"
   transform="translate(-109.385,-1246.25)">
  <path
     fill="none"
     stroke="#000000"
     stroke-width="4"
     stroke-linecap="round"
     stroke-linejoin="round"
     d="m -36.8711,1626.72 -0.1025,-0.64 2.5616,-1.39 8.7645,-1.95 5.4928,-1.96"
     id="path1614" />
</g>
<g
   id="g1620"
   transform="translate(-109.385,-1246.25)">
  <path
     fill="none"
     stroke="#000000"
     stroke-width="4"
     stroke-linecap="round"
     stroke-linejoin="round"
     d="m -14.5313,1618.93 -2.1409,-0.1 -0.9536,0.44 -2.9178,3.04 -1.6095,3.84 -0.1263,2.33 0.7061,2.58 0.9421,0.99 1.6776,0.32 1.7881,-0.52 2.252,-1.79 1.8621,-3.05 0.3735,-3.28 -0.4572,-1.61 -0.0895,1.79 0.1197,-0.22 2.4196,5.07 1.37829,1.84 2.02619,1.52 2.98242,0.56"
     id="path1618" />
</g>
<g
   id="g1624"
   transform="translate(-109.385,-1246.25)">
  <path
     fill="none"
     stroke="#000000"
     stroke-width="4"
     stroke-linecap="round"
     stroke-linejoin="round"
     d="m 4.2868,1622.72 -0.37927,-0.56 -0.06433,1.13 -1.37634,3.17 -0.63898,2.09 -0.0907,0.96 0.23798,0.23 4.40399,-1.79 7.33085,-4.83 0.5365,0.09 -0.7095,1.39 -0.2644,4.36 -0.6076,3.61 0.1755,1.06 0.4973,0.36"
     id="path1622" />
</g>
<g
   id="g1628"
   transform="translate(-109.385,-1246.25)">
  <path
     fill="none"
     stroke="#000000"
     stroke-width="4"
     stroke-linecap="round"
     stroke-linejoin="round"
     d="m 28.5696,1622.03 -0.5988,-1.14 -1.1482,-0.53 -3.5669,3.65 -2.3593,4 -0.3731,3.09 0.6292,1.46 0.3919,0.51 0.814,0.28 1.4116,-0.09 3.1291,-2.75 1.9915,-2.66 2.2433,-3.86 3.2654,-7.3 3.2716,-10.15 1.1986,-5.43 0.9154,-8.21 -1.019,3.96 -3.4418,19.09 -0.1422,5.13 0.397,2.42 0.6725,1.61"
     id="path1626" />
</g>
<g
   id="g1632"
   transform="translate(-109.385,-1246.25)">
  <path
     fill="none"
     stroke="#000000"
     stroke-width="4"
     stroke-linecap="round"
     stroke-linejoin="round"
     d="m 50.0044,1618.84 -1.1711,0.34 -2.3617,3.52 -0.573,2.06 0.0616,0.55 0.6647,0.75 0.7824,-0.09 1.6651,-1.13 2.9483,-4.21 0.977,-3.18 -0.2281,-2.91 -1.3102,-2.1 -1.2112,0.01 -2.5673,1.52 -2.9357,3.03 -1.5486,2.73 -0.4857,2.07 0.5254,1.82 1.559,1.03"
     id="path1630" />
</g>
<g
   id="g1636"
   transform="translate(-109.385,-1246.25)">
  <path
     fill="none"
     stroke="#000000"
     stroke-width="4"
     stroke-linecap="round"
     stroke-linejoin="round"
     d="m 67.7629,1614.4 -1.2647,0.56 -2.0766,1.71 -3.888,5.94 -1.3689,3.76 -0.0046,1.33 0.5696,1.19 1.1962,-0.04 2.784,-2.45 3.0925,-3.49 4.519,-6.02 -1.0086,1.66 0.7299,2.7 -0.993,5.6 0.3844,-0.89 0.336,0.02 4.7865,-3.76 1.2041,-0.75 2.2309,-0.66 4.1458,-0.39 1.4795,0.19 3.0636,1.92 1.1882,2.65 0.1956,3.37 -0.8463,2.76 -0.6676,0.93 -1.1927,0.64"
     id="path1634" />
</g>
<g
   id="g1640"
   transform="translate(-109.385,-1246.25)">
  <path
     fill="none"
     stroke="#000000"
     stroke-width="4"
     stroke-linecap="round"
     stroke-linejoin="round"
     d="m -488.444,1695.69 0.284,0.29 0.064,-0.24 0.247,0.53 -0.389,0.52 -1.765,-0.36 -0.415,0.29 -0.602,-0.82 -0.836,-0.23 -1.006,-0.78 -0.587,0.05 -4.467,-3.63 -1.067,-1.23 -1.797,-3.88 -1.302,-5.01 0.168,-4.49 1.359,-5.06 3.509,-6.66 2.344,-2.41 1.337,-0.88 0.65,-0.32 1.936,-0.05 2.88,2.28 2.782,4.37 0.536,3.4 -0.333,3.32 -0.761,1.73 -1.028,0.95 -2.754,0.07 -4.055,-0.55 -2.245,-1.64 1.143,-0.5 2.597,0.24"
     id="path1638" />
</g>
<g
   id="g1644"
   transform="translate(-109.385,-1246.25)">
  <path
     fill="none"
     stroke="#000000"
     stroke-width="4"
     stroke-linecap="round"
     stroke-linejoin="round"
     d="m -436.477,1672.82 -0.013,-0.43 0.795,-1.1 0.104,0.3 -0.088,-0.48 0.461,-0.63 -0.134,-1.43 -0.606,-0.52 -1.06,-0.27 -2.612,0.22 -2.074,0.55 -2.072,1.11 -4.842,3.71 -3.135,4.13 -4.618,8.1 -0.141,2.15 0.99,1.71 1.971,1.97 5.522,3.43 6.802,1.73 6.313,-0.11 5.147,-1.03 4.244,-1.57 5.923,-3.34"
     id="path1642" />
</g>
<g
   id="g1648"
   transform="translate(-109.385,-1246.25)">
  <path
     fill="none"
     stroke="#000000"
     stroke-width="4"
     stroke-linecap="round"
     stroke-linejoin="round"
     d="m -443.365,1680.78 -2.339,-0.86 -0.94,0.24 0.788,0.37 5.607,0.25 1.93,0.48 3.922,-0.3 13.458,1.08"
     id="path1646" />
</g>
<g
   id="g1652"
   transform="translate(-109.385,-1246.25)">
  <path
     fill="none"
     stroke="#000000"
     stroke-width="4"
     stroke-linecap="round"
     stroke-linejoin="round"
     d="m -381.788,1700.31 -0.175,1.23 0.463,-0.18 -0.005,0.35 -1.156,-1.74 -1.06,-2.81 -0.725,-2.72 -0.168,-3.14 0.496,-4.33 3.907,-16.93 1.314,-3.03 1.62,-1.66 2.786,-1.65 3.915,-0.49 0.899,0.67 0.426,-0.22 0.806,0.23 2.161,1.5 1.247,2.03 0.741,4.71 -0.772,4.33 -2.149,3.81 -2.363,1.96 -3.309,1.73 -2.044,0.49 -2.187,1.22 -0.819,-0.42 -0.664,0.56 -0.35,-0.19 0.762,-0.22 0.675,0.25 1.518,1.75 7.965,6.83 5.217,5.99 0.918,1.6 3.593,3.74 1.517,0.83 0.183,0.45 0.242,-0.28 0.583,0.85"
     id="path1650" />
</g>
<g
   id="g1656"
   transform="translate(-109.385,-1246.25)">
  <path
     fill="none"
     stroke="#000000"
     stroke-width="4"
     stroke-linecap="round"
     stroke-linejoin="round"
     d="m -336.853,1700.23 1.059,-1.3 -0.304,0.19 -0.117,-0.8 -0.689,-0.5 -0.279,0.23 -2.234,-0.08 -2.392,1.25 -1.63,2.67 -0.454,1.8 -0.115,2.73 0.434,3.58 0.678,2.22 1.649,2.55 0.953,0.54 0.93,-0.08 2,-3.07 2.796,-6.08 1.836,-5.26 0.027,-1.45 -0.53,0.24 -0.433,0.94 -0.594,3.12 -1.787,14.95 -0.343,6.23 0.356,1.03 0.721,0.16"
     id="path1654" />
</g>
<g
   id="g1660"
   transform="translate(-109.385,-1246.25)">
  <path
     fill="none"
     stroke="#000000"
     stroke-width="4"
     stroke-linecap="round"
     stroke-linejoin="round"
     d="m -266.139,1671.7 1.946,-3.68 0.057,-0.77 -0.414,0.3"
     id="path1658" />
</g>
<g
   id="g1664"
   transform="translate(-109.385,-1246.25)">
  <path
     fill="none"
     stroke="#000000"
     stroke-width="4"
     stroke-linecap="round"
     stroke-linejoin="round"
     d="m -265.278,1664.33 1.665,-0.14"
     id="path1662" />
</g>
<g
   id="g1668"
   transform="translate(-109.385,-1246.25)">
  <path
     fill="none"
     stroke="#000000"
     stroke-width="4"
     stroke-linecap="round"
     stroke-linejoin="round"
     d="m -263.49,1663.38 -0.421,1.49 0.189,-0.9 -0.23,0.58 0.54,-0.05 1.151,1.92 0.198,-0.27 -0.166,0.85 -2.257,0.63 -2.245,1.09 -2.707,2.03 -0.342,0.84 -0.071,-0.21 -0.543,0.41 -1.978,3.57 -1.266,5.57 -0.637,8.61 0.677,8.35 2.239,8.66 1.302,1.67 0.426,0.08"
     id="path1666" />
</g>
<g
   id="g1672"
   transform="translate(-109.385,-1246.25)">
  <path
     fill="none"
     stroke="#000000"
     stroke-width="4"
     stroke-linecap="round"
     stroke-linejoin="round"
     d="m -281.256,1689.74 -1.819,-1.79 0.86,0.36 0.872,0.96 2.074,0.1 1.486,0.52 12.798,-0.48 4.225,-0.58"
     id="path1670" />
</g>
<g
   id="g1676"
   transform="translate(-109.385,-1246.25)">
  <path
     fill="none"
     stroke="#000000"
     stroke-width="4"
     stroke-linecap="round"
     stroke-linejoin="round"
     d="m -242.748,1682.81 -1.183,-2.59 0.78,1.82 -0.215,0.38 0.08,7 0.96,5.15 1.621,5.3"
     id="path1674" />
</g>
<g
   id="g1680"
   transform="translate(-109.385,-1246.25)">
  <path
     fill="none"
     stroke="#000000"
     stroke-width="4"
     stroke-linecap="round"
     stroke-linejoin="round"
     d="m -239.985,1691.35 -1.27,-1.47 -0.228,-0.69 0.893,0.44 0.771,-0.1 0.472,-0.72 3.387,-2.89 3.634,-2.62 3.853,-1.68"
     id="path1678" />
</g>
<g
   id="g1684"
   transform="translate(-109.385,-1246.25)">
  <path
     fill="none"
     stroke="#000000"
     stroke-width="4"
     stroke-linecap="round"
     stroke-linejoin="round"
     d="m -223.217,1681.05 -1.395,0.5 -0.274,1.79 0.822,2.9 1.482,2.47 1.098,1.46 2.149,1.53 1.265,0.18 1.833,-0.3 1.876,-1.91 0.934,-2.35 0.613,-5.03 -0.168,-2.3 -0.579,-1.83 -1.025,-1.55 -1.255,-0.98 -3.022,-0.34 -2.007,0.56 -1.067,0.63 -1.503,2.22 -0.748,3.81 0.731,3.73 0.837,1.65 1.182,1.39 3.419,1.99"
     id="path1682" />
</g>
<g
   id="g1688"
   transform="translate(-109.385,-1246.25)">
  <path
     fill="none"
     stroke="#000000"
     stroke-width="4"
     stroke-linecap="round"
     stroke-linejoin="round"
     d="m -199.715,1678.52 -0.271,-1.38 0.2,1.79 -1.302,6.85 -0.326,3.34 0.252,2.61 0.595,1.29 0.654,0.12 0.39,-1.07 2.962,-2.07 5.342,-7.33 -0.399,1.08 0.722,1.47 0.439,1.92 0.129,5.93 0.645,-2.16 4.904,-6.17 1.588,-1.09 2.44,-0.48 2.318,1.4 2.638,3.33 4.035,9.47"
     id="path1686" />
</g>
<g
   id="g1692"
   transform="translate(-109.385,-1246.25)">
  <path
     fill="none"
     stroke="#000000"
     stroke-width="4"
     stroke-linecap="round"
     stroke-linejoin="round"
     d="m -152.934,1660.03 -0.492,0.49 -0.092,-0.18 0.355,-0.57 0.381,-2.36 1.918,-2.81 3.21,-1.88 2.786,-0.87 2.525,0.4 0.976,-0.21 2.749,1.59 1.421,1.8 0.878,1.87 1.086,5.04 -0.397,5.88 -4.315,16.93 -2.423,7.65 -0.462,3.17 0.161,1.98 0.509,1.03 1.175,1.81 2.428,2.16 1.575,0.49 1.099,0.81 0.57,-0.24 3.381,-0.02 6.058,-1.7 7.758,-3.79 9.876,-5.78"
     id="path1690" />
</g>
<g
   id="g1696"
   transform="translate(-109.385,-1246.25)">
  <path
     fill="none"
     stroke="#000000"
     stroke-width="4"
     stroke-linecap="round"
     stroke-linejoin="round"
     d="m -150.507,1685.58 -0.737,0.77 -0.858,2.98 -1.276,2.27 0.341,-0.72 0.444,0.45 0.779,-0.6 3.836,-1.33 4.676,-2.88 7.733,-6.28 4.325,-4.31 5.872,-6.76 6.178,-6.29 -0.425,0.16 -0.596,0.79 0.55,-0.1 0.072,-0.45 -0.74,-0.01 -0.367,-0.3 0.296,0.05"
     id="path1694" />
</g>
<g
   id="g1700"
   transform="translate(-109.385,-1246.25)">
  <path
     fill="none"
     stroke="#000000"
     stroke-width="4"
     stroke-linecap="round"
     stroke-linejoin="round"
     d="m -72.4333,1682.27 -0.9495,0.2 0.0104,0.48 1.0641,0.17 0.1276,-0.22 3.3963,2.28 2.3095,0.43 1.1492,-0.06 1.5615,-0.64 2.5833,-2.73 0.9608,-1.74 0.3544,-1.34 0.0769,-1.85 -0.4411,-2.03 -2.0517,-2.53 -3.7373,-1.55 -4.1287,-0.45 -1.0806,0.48 -0.927,-0.06 -1.4856,0.45 -1.1234,1.49 -0.0678,2.58 0.6526,2.27 1.9426,2.97 2.5835,1.64 3.3188,1.23 2.625,0.49"
     id="path1698" />
</g>
<g
   id="g1704"
   transform="translate(-109.385,-1246.25)">
  <path
     fill="none"
     stroke="#000000"
     stroke-width="4"
     stroke-linecap="round"
     stroke-linejoin="round"
     d="m -50.9835,1675.29 -0.4547,-0.48 -0.5668,0.23 -0.2656,-0.4 0.1751,0.97 -0.7876,5.1 0.2454,2.1 0.9387,1.32 3.2188,-1.24 1.4546,-1.05 2.957,-1.4 2.3754,-2.01 3.0986,-1.32 1.6558,-0.1 1.4094,1.04 0.9355,2.07 0.5597,3.48 0.1594,4.49"
     id="path1702" />
</g>
<g
   id="g1708"
   transform="translate(-109.385,-1246.25)">
  <path
     fill="none"
     stroke="#000000"
     stroke-width="4"
     stroke-linecap="round"
     stroke-linejoin="round"
     d="m 0.74823,1689.33 1.09552,0.28 0.35828,0.58 -0.28498,0.26 0.39191,0.42 0.19769,-0.3 -1.4862,-2.8 -0.447696,-2.02 -0.197205,-4.21 1.621831,-15.09 1.71771,-8.51 2.43023,-6.4 2.46393,-4.32 1.1637,-1.5 2.92415,-2.52 2.706,-0.74 2.5119,0.36 2.4171,0.97 2.553,2.02 1.3468,1.95 0.7487,1.81 0.112,1.39 -0.3843,3.17 -0.9448,3.26 -1.6237,3.3 -2.1968,3.16 -3.6379,3.77 -3.7942,2.38 -2.57187,1.13 -3.82013,1.07 -1.31177,-0.39 0.47162,-0.42 -0.08612,0.73 0.29712,0.52 1.52508,0.82 3.53637,3.05 8.5046,9.04 2.185,1.84 2.8335,1.28 0.4106,1.65"
     id="path1706" />
</g>
<g
   id="g1712"
   transform="translate(-109.385,-1246.25)">
  <path
     fill="none"
     stroke="#000000"
     stroke-width="4"
     stroke-linecap="round"
     stroke-linejoin="round"
     d="m 44.6279,1677.14 0.3499,-2.4 -0.2723,-1.06 -1.7622,0.03 -0.4391,0.49 -1.0822,0.33 -1.5011,1.91 -1.2385,2.71 -0.6382,3.2 0.583,3.97 1.5206,2.27 1.8331,1.44 1.4028,0.45 1.5327,-1.08 1.8954,-2.5 3.0273,-6.98 1.1627,-4.63 0.8379,-5.46 -0.284,0.22 -3.3186,14.98 -3.0583,16.47 -0.09,2.91 0.326,2.59 1.5416,4.54 0.6934,1.06"
     id="path1710" />
</g>
<g
   id="g1716"
   transform="translate(-109.385,-1246.25)">
  <path
     fill="none"
     stroke="#000000"
     stroke-width="4"
     stroke-linecap="round"
     stroke-linejoin="round"
     d="m -512.709,1743.7 -0.56,-1.23 -1.174,-0.03 -1.146,1.93 0.275,0.67 -0.224,0.98 0.354,2.56 1.629,4.18 2.054,2.89 2.955,2.84 2.337,1.13 2.572,0.48 2.887,-0.43 2.44,-1.02 2.055,-1.79 1.026,-1.54 1.306,-3.77 0.156,-2.71 -0.379,-1.92 -1.549,-2.11 -4.364,-4.24 -3.33,-2.05 -1.692,-0.13 -2.53,0.62 -2.795,1.71 -1.039,1.12 -0.775,2.04 0.206,1.47 0.775,1.66 2.328,2.67 4.575,2.6"
     id="path1714" />
</g>
<g
   id="g1720"
   transform="translate(-109.385,-1246.25)">
  <path
     fill="none"
     stroke="#000000"
     stroke-width="4"
     stroke-linecap="round"
     stroke-linejoin="round"
     d="m -479.338,1741.38 -2.207,0.08 -0.889,0.84 0.232,7.74 0.69,2.61 1.157,2.06 1.615,1.54 2.087,1.01 2.125,-0.06 1.78,-0.68 2.533,-1.74 2.724,-2.68 1.762,-2.57 1.653,-3.62 0.818,-2.93 -0.658,-0.2 -0.559,0.47"
     id="path1718" />
</g>
<g
   id="g1724"
   transform="translate(-109.385,-1246.25)">
  <path
     fill="none"
     stroke="#000000"
     stroke-width="4"
     stroke-linecap="round"
     stroke-linejoin="round"
     d="m -445.316,1716.58 -0.304,-1.47 -0.345,2.88 -0.683,14.21 -1.31,12.18 -2.625,16.69"
     id="path1722" />
</g>
<g
   id="g1728"
   transform="translate(-109.385,-1246.25)">
  <path
     fill="none"
     stroke="#000000"
     stroke-width="4"
     stroke-linecap="round"
     stroke-linejoin="round"
     d="m -454.906,1747.15 -1.219,-1.54 1.168,0.86 6.042,0.2 5.092,-0.3"
     id="path1726" />
</g>
<g
   id="g1732"
   transform="translate(-109.385,-1246.25)">
  <path
     fill="none"
     stroke="#000000"
     stroke-width="4"
     stroke-linecap="round"
     stroke-linejoin="round"
     d="m -426.487,1743.93 -0.174,0.34 -0.252,-0.54 -0.058,0.35 0.068,3.04 -0.954,8.97 -3.602,20.33 -0.405,4.48 0.108,0.77 0.182,-0.1 -0.863,-1.94 -0.272,-5.02 0.898,-8.49 1.437,-6.23 2.488,-6.51 3.2,-5.78 2.109,-2.72 2.267,-2.03 2.056,-0.8 1.033,0.03 1.488,0.79 0.901,0.91 1.052,2.17 -0.047,2.55 -0.835,2.82 -1.379,3.06 -2.717,4 -3.387,3.03 -1.13,0.47 -0.994,-0.33 -0.048,-0.56 1.04,-1.89"
     id="path1730" />
</g>
<g
   id="g1736"
   transform="translate(-109.385,-1246.25)">
  <path
     fill="none"
     stroke="#000000"
     stroke-width="4"
     stroke-linecap="round"
     stroke-linejoin="round"
     d="m -404.642,1745.58 -0.448,-0.72 -0.211,0.21 -1.2,5.36 0.11,5.26 1.504,4 2.403,2.13 1.85,0.44 1.15,-0.13 1.485,-0.72 1.804,-1.93 1.813,-2.98 1.042,-2.51 0.853,-3.52 0.226,-3.35 -0.536,-0.86 -0.278,0.59 0.465,0.18"
     id="path1734" />
</g>
<g
   id="g1740"
   transform="translate(-109.385,-1246.25)">
  <path
     fill="none"
     stroke="#000000"
     stroke-width="4"
     stroke-linecap="round"
     stroke-linejoin="round"
     d="m -375.789,1721.95 -0.001,-1.33 0.163,-0.32 0.162,0.19 0.621,5.84 0.139,3.22 -0.286,3.4 -1.534,8.63 -3.777,14.44 -1.212,6.6"
     id="path1738" />
</g>
<g
   id="g1744"
   transform="translate(-109.385,-1246.25)">
  <path
     fill="none"
     stroke="#000000"
     stroke-width="4"
     stroke-linecap="round"
     stroke-linejoin="round"
     d="m -384.33,1743.75 -0.051,-1.17 0.659,0.87 2.607,1.01 4.748,1.09 1.709,0.27 6.153,-0.13"
     id="path1742" />
</g>
<g
   id="g1748"
   transform="translate(-109.385,-1246.25)">
  <path
     fill="none"
     stroke="#000000"
     stroke-width="4"
     stroke-linecap="round"
     stroke-linejoin="round"
     d="m -297.472,1726.65 -0.269,-0.62 -0.265,1.25 -2.09,2.6 -2.095,4.24 -2.225,7.47 -3.876,10.79 -0.605,5.08 0.678,2.54 1.32,2.88 2.664,3.42 5.249,4.15 4.462,1.94 3.023,0.87"
     id="path1746" />
</g>
<g
   id="g1752"
   transform="translate(-109.385,-1246.25)">
  <path
     fill="none"
     stroke="#000000"
     stroke-width="4"
     stroke-linecap="round"
     stroke-linejoin="round"
     d="m -267.1,1746.51 -0.181,0.76 -2.392,-1.55 -3.349,0.33 -5.051,3.09 -2.262,1.94 -1.977,2.53 -1.596,3.3 -0.176,3.26 1.228,3.38 1.67,2.02 2.609,1.51 4.387,-0.32 0.946,-0.43 2.534,-2.2 1.827,-3.59 1.683,-6.57 -0.035,-2.92 -0.372,-1.89 -0.893,-2.01 -0.947,-0.97 -0.241,0.3 0.741,0.65 2.743,6.17 4.261,6.5 3.763,4.25 3.78,3.3 0.995,2.06"
     id="path1750" />
</g>
<g
   id="g1756"
   transform="translate(-109.385,-1246.25)">
  <path
     fill="none"
     stroke="#000000"
     stroke-width="4"
     stroke-linecap="round"
     stroke-linejoin="round"
     d="m -233.764,1754.61 0.366,-1.23 -0.378,-1.19 -0.749,16.99 -0.818,6.11 0.092,0.73 0.305,0.1 -0.353,-0.72"
     id="path1754" />
</g>
<g
   id="g1760"
   transform="translate(-109.385,-1246.25)">
  <path
     fill="none"
     stroke="#000000"
     stroke-width="4"
     stroke-linecap="round"
     stroke-linejoin="round"
     d="m -204.864,1745.49 -0.907,0.62 0.532,0.86 1.429,-0.95 9.943,-10.55 3.536,-4.29 4.649,-4.19 1.01,-0.37 1.125,-0.84 0.072,-0.2 -0.241,0.08 -0.004,0.38 -0.28,-0.35 0.522,-0.3"
     id="path1758" />
</g>
<g
   id="g1764"
   transform="translate(-109.385,-1246.25)">
  <path
     fill="none"
     stroke="#000000"
     stroke-width="4"
     stroke-linecap="round"
     stroke-linejoin="round"
     d="m -203.022,1742.97 -0.242,0.64 -0.458,-0.19 -1.102,0.42 0.751,0.08 1.426,1.61 2.864,2.32 5.96,4.04 7.484,5.9 0.168,-0.73 1.592,-1.58"
     id="path1762" />
</g>
<g
   id="g1768"
   transform="translate(-109.385,-1246.25)">
  <path
     fill="none"
     stroke="#000000"
     stroke-width="4"
     stroke-linecap="round"
     stroke-linejoin="round"
     d="m -150.969,1737.9 1.139,-0.9 -0.287,0.44 -1.293,-0.47 -2.444,-0.19 -2.722,0.66 -3.351,1.07 -3.322,1.76 -2.246,1.6 -3.407,3.75 -1.921,3.43 -0.57,3.17 0.81,4 0.583,1.25 1.375,1.38 2.21,0.63 2.126,-0.14 4.611,-1.8 2.347,-1.78 1.863,-1.94 3.484,-5.93 1.078,-3.31 0.138,-2.63 -0.329,-2.97 -1.426,-4.41 0.448,6.45 1.03,3.5 1.519,3.55 2.846,4.35 2.478,4.86 1.734,3.64 0.311,1.59"
     id="path1766" />
</g>
<g
   id="g1772"
   transform="translate(-109.385,-1246.25)">
  <path
     fill="none"
     stroke="#000000"
     stroke-width="4"
     stroke-linecap="round"
     stroke-linejoin="round"
     d="m -119.903,1755.1 0.073,0.41 0.387,-0.67 -0.134,-0.28 -0.391,0.96 -0.538,5.58 0.695,5.07"
     id="path1770" />
</g>
<g
   id="g1776"
   transform="translate(-109.385,-1246.25)">
  <path
     fill="none"
     stroke="#000000"
     stroke-width="4"
     stroke-linecap="round"
     stroke-linejoin="round"
     d="m -74.3486,1726.13 -0.6868,-0.84 -0.7008,-0.12 -4.3086,0.64 -7.9518,4.31 -1.5414,1.04 -1.3357,1.52 0.7718,4.72 1.1148,2.31 1.3102,1.89 3.8771,4.3 0.9966,1.73 -0.0216,2.74 -1.461,2.75 -2.6561,1.69 -5.0221,1.45 -3.397,0.05 -2.0595,-0.7 -0.8847,-0.62 0.3522,0.02"
     id="path1774" />
</g>
<g
   id="g1780"
   transform="translate(-109.385,-1246.25)">
  <path
     fill="none"
     stroke="#000000"
     stroke-width="4"
     stroke-linecap="round"
     stroke-linejoin="round"
     d="m -56.9131,1726.74 -1.0805,0.03 -1.5199,-1.11 0.3101,0.75 0.9355,0.11 4.709,3.39 7.4204,4.7 3.4929,2.73 5.1563,2.62 -0.4421,-0.41 0.1769,0.46 -0.7308,0.45 -9.903,11.18 -6.6411,8.17 0.6377,-1.2 -0.6891,-0.04"
     id="path1778" />
</g>
<g
   id="g1784"
   transform="translate(-109.385,-1246.25)">
  <path
     fill="none"
     stroke="#000000"
     stroke-width="4"
     stroke-linecap="round"
     stroke-linejoin="round"
     d="m -7.23029,1726.73 -0.02429,-4 0.09925,0.73 -0.44953,0.76 -0.96783,4.21 -0.63629,4.99 -0.06775,6.45 0.47021,3.65 0.90601,3.7 1.07617,2.67 1.53906,1.42"
     id="path1782" />
</g>
<g
   id="g1788"
   transform="translate(-109.385,-1246.25)">
  <path
     fill="none"
     stroke="#000000"
     stroke-width="4"
     stroke-linecap="round"
     stroke-linejoin="round"
     d="m -15.1792,1741.78 -1.3641,-2.23 0.5282,0.96 1.5451,0.95 3.4674,1.11 5.35551,0.45 11.62786,0.25"
     id="path1786" />
</g>
<g
   id="g1792"
   transform="translate(-109.385,-1246.25)">
  <path
     fill="none"
     stroke="#000000"
     stroke-width="4"
     stroke-linecap="round"
     stroke-linejoin="round"
     d="m 35.7227,1752.99 h 1.4105 l 0.102,0.33 -0.8727,0.43 -1.0587,-0.18 -1.5153,-0.93 -6.0931,-8.24 -1.3054,-3.39 -0.7397,-3.59 -0.164,-2.36 0.3534,-3.67 0.825,-1.77 2.0277,-2.09 3.1736,-2.33 2.4773,-0.66 0.7119,0.07 2.1375,1.44 1.4588,1.66 0.9698,1.91 0.1556,1.37 -0.4734,2.24 -1.0714,2.1 -0.9725,0.93 -2.3228,0.42 -5.3601,-0.23 -3.5475,-0.66 0.2215,-0.36 0.8316,0.16 2.213,1.31"
     id="path1790" />
</g>
<g
   id="g1796"
   transform="translate(-109.385,-1246.25)">
  <path
     fill="none"
     stroke="#000000"
     stroke-width="4"
     stroke-linecap="round"
     stroke-linejoin="round"
     d="m 65.9788,1715.63 0.069,-2.91 0.0871,1.51 4.15,4.66 2.8641,4.35 2.7573,7.12 1.0103,5.95 0.0589,6.65 -0.699,6.1 -3.9331,16.2 -0.1331,-0.94 -1.6876,0.38"
     id="path1794" />
</g>
<g
   id="g1800"
   transform="translate(-109.385,-1246.25)">
  <path
     fill="none"
     stroke="#000000"
     stroke-width="4"
     stroke-linecap="round"
     stroke-linejoin="round"
     d="m 131.42,1732.16 -0.509,-3.65 -0.001,-2.42 -0.609,-1.51 -2.415,-0.69 -3.359,1.07 -3.501,2.01 -2.917,2.17 -3.382,3.07 -1.571,1.85 -1.453,2.86 -0.241,2.18 0.466,2.47 0.938,1.87 1.76,1.99 2.439,1.56 2.685,1.04 8.711,1.62 4.579,0.42 3.918,0.03 1.979,-0.54"
     id="path1798" />
</g>
<g
   id="g1804"
   transform="translate(-109.385,-1246.25)">
  <path
     fill="none"
     stroke="#000000"
     stroke-width="4"
     stroke-linecap="round"
     stroke-linejoin="round"
     d="m 115.435,1740.19 -3.19,-1.23 0.783,0.29 0.613,-0.24 6.411,0.79 14.225,0.74"
     id="path1802" />
</g>
<g
   id="g1808"
   transform="translate(-109.385,-1246.25)">
  <path
     fill="none"
     stroke="#000000"
     stroke-width="4"
     stroke-linecap="round"
     stroke-linejoin="round"
     d="m 172.263,1751.29 0.318,0.31 0.015,0.8 0.159,-0.16 -0.225,-0.05 0.031,0.36 0.246,-0.25 0.033,0.21 -0.512,-6.31 0.964,-6.16 2.112,-7.32 3.374,-15.13 2.757,-8.21 1.678,-3.05 4.661,-4.46 2.477,-1.36 2.77,-0.28 4.555,0.59 2.039,1.38 1.155,2.18 0.397,2.12 -0.06,1.67 -0.598,1.83 -1.61,3.42 -2.248,3.45 -3.942,4.79 -4.371,3.25 -3.916,1.39 -1.598,0.07 -0.575,-0.55 0.736,0.01 -0.192,0.55 3.305,5.27 7.779,11.26 3.059,3.85 1.359,2.16 0.532,1.76 0.701,1.04"
     id="path1806" />
</g>
<g
   id="g1812"
   transform="translate(-109.385,-1246.25)">
  <path
     fill="none"
     stroke="#000000"
     stroke-width="4"
     stroke-linecap="round"
     stroke-linejoin="round"
     d="m 235.138,1744.17 -0.194,-2.54 -0.411,-0.54 -2.714,0.11 -1.91,0.46 -3.221,2.35 -2.518,2.98 -1.5,2.64 0.048,3.05 1.413,1.41 2.18,0.14 2.761,-1.35 2.775,-2.97 1.56,-2.75 1.142,-3.14 0.464,-4.56 -2.477,9.46 -1.879,10.22 -0.632,5.66 0.061,2.58"
     id="path1810" />
</g>
<g
   id="g1816"
   transform="translate(-109.385,-1246.25)">
  <path
     fill="none"
     stroke="#000000"
     stroke-width="4"
     stroke-linecap="round"
     stroke-linejoin="round"
     d="m 265.021,1742.99 0.203,0.74 -0.227,0.28 0.917,-0.37 15.288,-14.81 4.205,-2.6 6.498,-3.38 2.005,-0.73 -0.739,0.41"
     id="path1814" />
</g>
<g
   id="g1820"
   transform="translate(-109.385,-1246.25)">
  <path
     fill="none"
     stroke="#000000"
     stroke-width="4"
     stroke-linecap="round"
     stroke-linejoin="round"
     d="m 273.1,1724.06 -2.032,-1.24 0.798,0.35 0.772,1.41 6.264,13.1 3.08,4.02 3.164,2.38"
     id="path1818" />
</g>
<g
   id="g1824"
   transform="translate(-109.385,-1246.25)">
  <path
     fill="none"
     stroke="#000000"
     stroke-width="4"
     stroke-linecap="round"
     stroke-linejoin="round"
     d="m 330.78,1706.12 -0.555,-2.79 0.297,0.32 0.878,12.22 -0.105,7.98 -1.756,14.7 -0.171,6.12 -0.314,0.56 -0.309,-0.38"
     id="path1822" />
</g>
<g
   id="g1828"
   transform="translate(-109.385,-1246.25)">
  <path
     fill="none"
     stroke="#000000"
     stroke-width="4"
     stroke-linecap="round"
     stroke-linejoin="round"
     d="m 332.403,1703.88 -1.124,0.28 -0.422,-0.74 0.91,0.34 1.045,-2.33 2.18,-2.61 0.672,-0.46 1.08,0.15 4.181,1.2 2.602,1.27 2.721,2.42 2.094,2.64 0.435,1.88 -0.071,2.93 -1.11,4.01 -2.09,4.39 -1.547,1.98 -1.446,0.98 -1.641,0.63 -3.491,0.65 h 0.548 l -0.217,0.48 2.093,6.5 4.616,8.35 8.618,11.51 -0.391,-0.11 0.923,1.35 1.089,0.97"
     id="path1826" />
</g>
<g
   id="g1832"
   transform="translate(-109.385,-1246.25)">
  <path
     fill="none"
     stroke="#000000"
     stroke-width="4"
     stroke-linecap="round"
     stroke-linejoin="round"
     d="m 379.887,1739.29 0.243,-1.19 -0.26,-0.79 -3.64,-0.68 -2.422,0.34 -1.342,1.18 -1.483,2.7 -0.892,3.16 -0.236,2.59 0.679,2 1.132,1.19 2.439,0.22 2.619,-1.38 3.927,-5.27 2.162,-4.34 0.651,-2.01 -0.341,0.47 -0.409,6.26 -2.122,14 0.282,5.56 1.093,4.03"
     id="path1830" />
</g>
<g
   id="g1836"
   transform="translate(-109.385,-1246.25)">
  <path
     fill="none"
     stroke="#000000"
     stroke-width="4"
     stroke-linecap="round"
     stroke-linejoin="round"
     d="m 71.6921,1385.67 0.536,-4.28 0.5062,-1.23 -0.42,2.55 0.4865,4.86 0.0325,6.35 -1.0293,5.73 -1.3936,2.87"
     id="path1834" />
</g>
<g
   id="g1840"
   transform="translate(-109.385,-1246.25)">
  <path
     fill="none"
     stroke="#000000"
     stroke-width="4"
     stroke-linecap="round"
     stroke-linejoin="round"
     d="m 104.71,1360.5 0.426,-0.29 0.231,-4.25 1.135,-3.6 -0.339,1.72 0.609,8.75 -1.796,25.15 -0.325,0.45 -0.292,-0.82 0.575,-1.22"
     id="path1838" />
</g>
<g
   id="g1844"
   transform="translate(-109.385,-1246.25)">
  <path
     fill="none"
     stroke="#000000"
     stroke-width="4"
     stroke-linecap="round"
     stroke-linejoin="round"
     d="m 120.446,1370.84 0.693,-0.4 1.918,-2.98 0.917,-0.62 -0.075,-0.72 -0.127,1.45 -0.815,0.85 -3.447,3.05 -2.517,1.71 -4.92,4.82 -4.108,2.93 -0.977,1.92 1.251,1.7 1.742,1.41 0.745,0.06 10.715,8.9 0.709,0.04 0.59,0.52"
     id="path1842" />
</g>
<g
   id="g1848"
   transform="translate(-109.385,-1246.25)">
  <path
     fill="none"
     stroke="#000000"
     stroke-width="4"
     stroke-linecap="round"
     stroke-linejoin="round"
     d="m 146.101,1362.73 -0.242,-0.24 -0.358,-0.01 0.142,0.19 -0.238,-0.71 0.414,0.95 0.287,-0.22 0.348,0.46 2.581,1.25 5.717,4.29 1.172,1.2 0.266,0.74 0.127,-0.26 0.306,0.14 1.166,1.4 -0.098,2.18 -0.509,1.36 -1.116,1.53 -1.357,1.12 -3.354,2.04 -0.959,0.03 -3.764,1.74 -0.888,-0.27 0.882,-0.49 5.527,-0.54"
     id="path1846" />
</g>
<g
   id="g1852"
   transform="translate(-109.385,-1246.25)">
  <path
     fill="none"
     stroke="#000000"
     stroke-width="4"
     stroke-linecap="round"
     stroke-linejoin="round"
     d="m 146.288,1393.22 -1.406,-0.5 -1.098,0.19 -0.329,-0.28 -0.529,0.47 0.161,0.4 0.811,0.13 0.292,-0.28 7.041,0.75 2.489,-0.14 2.304,-0.54 2.855,0.24 3.024,0.67 1.506,1.09"
     id="path1850" />
</g>
<g
   id="g1856"
   transform="translate(-109.385,-1246.25)">
  <path
     fill="none"
     stroke="#000000"
     stroke-width="4"
     stroke-linecap="round"
     stroke-linejoin="round"
     d="m 180.159,1381.03 0.358,-0.02 -0.223,0.56 0.208,0.82 0.082,-0.3 0.761,-0.21 6.514,-7.27 5.068,-4.92 3.8,-4.69 0.071,-1.75 -0.342,9.45 0.298,10.26 -0.277,8.95"
     id="path1854" />
</g>
<g
   id="g1860"
   transform="translate(-109.385,-1246.25)">
  <path
     fill="none"
     stroke="#000000"
     stroke-width="4"
     stroke-linecap="round"
     stroke-linejoin="round"
     d="m -181.593,1474.38 -0.294,-0.6 0.174,-0.4 0.757,0.75 -0.507,1.25 0.974,2.6 0.631,3.05 1.121,11.67 0.331,0.86 0.477,-2.71 1.291,-2.73 0.9,-1.1"
     id="path1858" />
</g>
<g
   id="g1864"
   transform="translate(-109.385,-1246.25)">
  <path
     fill="none"
     stroke="#000000"
     stroke-width="4"
     stroke-linecap="round"
     stroke-linejoin="round"
     d="m -157.681,1478.52 0.193,-0.66 0.805,-0.86 -0.149,1.12 -0.688,1.1 -0.39,-0.14 -0.521,0.5 -0.64,-0.2 -1.977,0.54 -3.147,1.64 -7.318,6 -2.038,2.66 0.721,-0.86 0.719,1.39 1.225,0.93 3.142,1.3 1.665,0.13 4.091,-0.56 1.623,0.09"
     id="path1862" />
</g>
<g
   id="g1868"
   transform="translate(-109.385,-1246.25)">
  <path
     fill="none"
     stroke="#000000"
     stroke-width="4"
     stroke-linecap="round"
     stroke-linejoin="round"
     d="m -337.025,1587.56 -0.49,-1.54 -0.421,-0.09 0.932,1.4 -0.622,5.55 -0.201,7.1 0.46,5.79 0.845,1.57"
     id="path1866" />
</g>
<g
   id="g1872"
   transform="translate(-109.385,-1246.25)">
  <path
     fill="none"
     stroke="#000000"
     stroke-width="4"
     stroke-linecap="round"
     stroke-linejoin="round"
     d="m -322.742,1593.24 -0.136,-0.91 0.441,1.14 -0.383,0.33 -0.411,-0.23 -3.173,2.9 -4.479,5.26 -1.885,3.04 -0.486,1.35 0.438,1.56 1.109,1.73 1.976,1.58 1.051,1.26 3.384,1.87 4.98,2.01"
     id="path1870" />
</g>
<g
   id="g1876"
   transform="translate(-109.385,-1246.25)">
  <path
     fill="none"
     stroke="#000000"
     stroke-width="4"
     stroke-linecap="round"
     stroke-linejoin="round"
     d="m 219.926,1695.49 0.656,-0.6 0.603,0.22 -0.336,-0.45 0.646,-0.36 0.417,0.19 -0.53,1.33 -2.437,17.81 -0.585,1.18 -0.125,-0.89"
     id="path1874" />
</g>
<g
   id="g1880"
   transform="translate(-109.385,-1246.25)">
  <path
     fill="none"
     stroke="#000000"
     stroke-width="4"
     stroke-linecap="round"
     stroke-linejoin="round"
     d="m 230.918,1703.79 2.188,-1.19 0.26,0.21 0.051,1.23 -0.054,-0.43 -0.46,0.88 -1.319,1.05 -6.464,4.14 -2.826,2.26 -1.312,1.27 -1.457,2.23 -0.021,0.45 0.332,0.19 0.734,-0.84 -0.136,0.26 0.957,0.66 3.805,2.17 4.321,1.77 -0.036,0.5"
     id="path1878" />
</g>
</svg>
