<?xml version="1.0" encoding="UTF-8" standalone="no"?>
<svg
   width="940.21503"
   height="510.75638"
   viewBox="-702 0 940.21503 510.75638"
   version="1.2"
   id="svg1882"
   xmlns:xlink="http://www.w3.org/1999/xlink"
   xmlns="http://www.w3.org/2000/svg"
   xmlns:svg="http://www.w3.org/2000/svg"><defs
   id="defs1886" />
<title
   id="title2">CryptoResearch</title>
<g
   id="g8"
   transform="translate(-113.66901,-15.733601)">
  <path
     fill="none"
     stroke="#000000"
     stroke-width="4"
     stroke-linecap="round"
     stroke-linejoin="round"
     d="m -551.149,64.5253 -0.607,-0.2759 0.572,-1.4488 0.403,0.2097 0.29,-2.5926 0.64,1.2074 0.044,1.0968 -1.024,4.7266 -0.711,5.6672 -0.191,5.0311 0.387,3.1036 -0.017,3.2171 -0.303,1.8999 -0.381,15.8526 -0.356,2.359 0.429,3.257 -0.011,2.951 -0.433,1.028 -0.189,4.055 -0.684,2.33 0.317,0.336 -0.488,0.008 0.422,0.092 0.652,-0.723 1.375,-0.1 4.64,0.783 7.485,-0.638 6.253,0.886 5.352,-0.174 3.803,1.016 0.448,-0.101 -0.333,-0.041 -0.306,-1.932 0.167,-3.292"
     id="path6" />
</g>
<g
   id="g12"
   transform="translate(-113.66901,-15.733601)">
  <path
     fill="none"
     stroke="#000000"
     stroke-width="4"
     stroke-linecap="round"
     stroke-linejoin="round"
     d="m -508.799,63.3614 0.161,-1.5848 1.042,1.0614 -0.234,0.5858 0.348,0.868 1.221,12.4594 1.7,7.6949 1.152,8.2849 1.65,6.6922 1.579,3.8798 1.248,4.451 0.301,4.552 0.206,0.047 -0.073,-0.454 -0.31,0.007 0.52,0.318 -0.24,-0.501 0.366,0.062 -0.2,-0.207 3.701,-5.247 7.79,-16.4341 0.494,-2.834 1.155,-3.3373 0.433,-5.3105 -0.177,0.4648 0.466,4.8638 0.791,3.1905 0.977,2.3174 2.936,3.8985 2.625,4.9387 1.719,5.5812 0.722,0.84 0.813,2.168 0.268,2.119 0.278,0.456 0.237,-0.262 -0.383,0.139 0.261,1.741 0.15,-0.739 0.425,1.699 0.677,0.648 2.129,4.069 -0.48,-0.434 0.198,-0.225 0.388,0.233 -0.121,0.201 -0.332,-0.203 0.368,-0.247 1.768,-4.939 2.638,-8.53 5.647,-12.4175 3.131,-11.2559 4.417,-10.9676 0.399,-2.7013 -0.154,-0.4585 -0.24,0.2145 0.112,0.3206 0.243,-0.3544 -0.194,-0.5179 0.764,-2.4685 0.309,-2.4225 2.163,-5.6985 0.302,0.1237 -0.444,1.197 -0.422,-0.6258 -0.509,1.8005 -1.075,2.1259"
     id="path10" />
</g>
<g
   id="g16"
   transform="translate(-113.66901,-15.733601)">
  <path
     fill="none"
     stroke="#000000"
     stroke-width="4"
     stroke-linecap="round"
     stroke-linejoin="round"
     d="m -428.843,60.2285 -0.497,-0.1801 0.731,-2.1593 0.452,0.0999 -0.261,1.5393 0.805,9.8914 -0.297,13.7635 -2.177,19.2758 -0.183,3.899 -0.603,3.469 -1.232,3.619 0.208,0.353 -0.507,0.876 0.086,-0.063"
     id="path14" />
</g>
<g
   id="g20"
   transform="translate(-113.66901,-15.733601)">
  <path
     fill="none"
     stroke="#000000"
     stroke-width="4"
     stroke-linecap="round"
     stroke-linejoin="round"
     d="m -414.449,116.32 1.608,-0.182 4.61,-1.156 2.877,-1.537 0.933,-0.881 1.709,-4.192"
     id="path18" />
</g>
<g
   id="g24"
   transform="translate(-113.66901,-15.733601)">
  <path
     fill="none"
     stroke="#000000"
     stroke-width="4"
     stroke-linecap="round"
     stroke-linejoin="round"
     d="m -423.129,85.5151 -1.659,0.3373 0.21,0.6089 0.652,-0.1434 4.428,0.6498 6.28,0.1435 5.072,-0.4397 5.287,-1.3379 3.858,-1.6253 0.614,-0.5421 -0.798,0.2603 0.188,-0.5657 -0.373,-2.9067"
     id="path22" />
</g>
<g
   id="g28"
   transform="translate(-113.66901,-15.733601)">
  <path
     fill="none"
     stroke="#000000"
     stroke-width="4"
     stroke-linecap="round"
     stroke-linejoin="round"
     d="m -428.893,51.6832 -0.305,0.2598 -0.352,-0.311 0.365,-0.4634 1.018,0.0501 5.198,1.825 4.148,0.8909 6.742,0.1009 6.928,-0.3847 1.124,0.1905 1.429,0.8143"
     id="path26" />
</g>
<g
   id="g32"
   transform="translate(-113.66901,-15.733601)">
  <path
     fill="none"
     stroke="#000000"
     stroke-width="4"
     stroke-linecap="round"
     stroke-linejoin="round"
     d="m -368.865,101.694 -0.332,-0.53 0.854,-1.2501 -0.371,0.4441 -2.227,-0.6091 -2,0.1227 -2.417,0.5574 -0.854,0.714 -1.694,2.104 -0.875,1.852 -0.487,3.117 0.688,4.006 2.521,3.23 3.15,2.15 1.852,0.21 1.876,-0.254 1.187,-0.497 1.558,-1.22 1.608,-2.203 1.038,-2.2 0.559,-2.352 -0.012,-12.6263 0.239,6.2233 -0.777,26.342 0.656,4.565 0.58,0.609 0.584,0.124 0.381,0.856 0.928,-0.936"
     id="path30" />
</g>
<g
   id="g36"
   transform="translate(-113.66901,-15.733601)">
  <path
     fill="none"
     stroke="#000000"
     stroke-width="4"
     stroke-linecap="round"
     stroke-linejoin="round"
     d="m -341.783,112.814 0.358,-0.013 0.019,0.381 -3.186,6.669 -1.39,5.111"
     id="path34" />
</g>
<g
   id="g40"
   transform="translate(-113.66901,-15.733601)">
  <path
     fill="none"
     stroke="#000000"
     stroke-width="4"
     stroke-linecap="round"
     stroke-linejoin="round"
     d="m -329.527,99.4793 -0.597,-1.8347 0.302,0.4068 1.931,-1.923 2.888,-1.5097 2.175,-0.0786 2.734,0.3898 3.697,2.593 1.491,2.0154 1.299,3.3237 3.097,15.055 1.89,2.711 0.643,0.327 3.107,0.489 1.44,-0.369 15.081,-6.483"
     id="path38" />
</g>
<g
   id="g44"
   transform="translate(-113.66901,-15.733601)">
  <path
     fill="none"
     stroke="#000000"
     stroke-width="4"
     stroke-linecap="round"
     stroke-linejoin="round"
     d="m -325.621,119.193 -0.139,0.341 1.249,0.324 3.645,-2.07 1.89,-1.587 11.055,-10.929 5.171,-5.84 3.182,-5.0592"
     id="path42" />
</g>
<g
   id="g48"
   transform="translate(-113.66901,-15.733601)">
  <path
     fill="none"
     stroke="#000000"
     stroke-width="4"
     stroke-linecap="round"
     stroke-linejoin="round"
     d="m -430.469,112.854 -0.259,0.077 0.019,0.477 0.743,0.204 -0.109,0.189 0.545,-0.079 0.664,0.866 7.923,0.929 2.955,-0.252 2.526,0.396 2.363,-0.648 3.802,0.031 2.98,-1.357 2.918,-0.714 -0.232,0.155 0.232,0.237 0.087,-0.395 1.952,0.208"
     id="path46" />
</g>
<g
   id="g52"
   transform="translate(-113.66901,-15.733601)">
  <path
     fill="none"
     stroke="#000000"
     stroke-width="4"
     stroke-linecap="round"
     stroke-linejoin="round"
     d="m -531.138,25.2672 0.331,-0.459 -0.348,0.5574 v -0.3101 l -0.072,0.2512 -4.385,-0.2977 -6.623,1.3051 -9.588,3.5454 -3.683,3.0254 -2.756,3.1834 -4.143,6.0028 -2.78,2.5211 -1.519,1.9041 -3.705,8.8549 -1.353,1.7896 -2.79,2.4302 -1.496,2.2542 -1.978,6.4951 -3.162,4.9515 -0.851,1.8923 -2.577,9.5585 -0.05,3.7094 -0.791,6.9732 -0.874,4.6758 1.441,7.055 -0.066,1.691 0.588,3.272 1.861,3.816 2.48,3.791 3.429,3.311 1.408,0.631 0.519,0.817 1.651,1.284 1.857,0.879 4.83,1.628 2.598,0.512 3.795,2.155 2.403,0.752 6.223,0.86 6.116,1.505 7.599,0.523 3.275,0.733 4.253,0.409 9.955,-0.352 8.092,-0.723 5.251,1.024 3.871,0.339 15.491,-0.263 12.004,0.734 5.53,0.949 5.097,0.422 9.083,0.178 8.735,-0.205 8.301,-0.629 9.315,0.05 2.412,0.333 10.444,0.137 4.002,0.858 15.746,0.017 5.215,0.734 14.581,0.5 4.172,0.759 6.077,0.557 16.918,-0.055 4.001,0.606 6.02,0.248 12.342,-0.152 12.053,-1.363 3.229,-0.414 5.193,-1.453 6.606,-1.352 9.148,-1.418 5.618,-0.524 5.305,-1.63 2.511,-1.169 3.013,-1.862 1.714,-1.591 1.291,-1.575 1.361,-2.864 3.523,-3.764 5.428,-7.092 4.336,-9.553 1.95,-7.9345 -0.022,-2.539 -3.38,-12.108 -1.317,-2.6548 -3.493,-4.954 -4.689,-3.6616 -3.818,-3.5586 -3.097,-3.5077 -1.459,-2.2094 -5.198,-4.7558 -3.928,-6.7735 -3.615,-3.7989 -5.466,-3.0513 -4.939,-4.9062 -1.718,-1.1989 -11.257,-5.9125 -6.531,-2.0556 -13.366,-1.4577 -4.207,-0.8661 -14.649,-2.0967 -15.853,-1.1918 -6.483,-0.1491 -9.778,-0.9481 -6.978,0.1084 -20.853,-1.0306 -16.577,0.6328 -9.189,-1.0707 -8.009,0.0601 -17.204,-0.9584 -5.761,0.4364 -8.301,-0.6291 -3.651,0.2709 -5.943,-0.1384 -2.024,-0.117 -1.896,-0.6269 -6.234,0.0902 -9.024,-0.8695 -14.543,0.2607 -8.685,-0.5425 -8.032,0.9731 -3.183,0.036 0.271,0.1951 -3.157,0.7427 -1.25,0.5928 -4.046,3.6762 -4.249,2.4994 -2.866,4.5637 -3.875,4.2614 -1.105,3.135 -1.562,2.4215 -4.62,5.2505 -1.921,2.997 -3.485,8.4826 0.789,2.8824 2.851,6.7931"
     id="path50" />
</g>
<g
   id="g56"
   transform="translate(-113.66901,-15.733601)">
  <path
     fill="none"
     stroke="#000000"
     stroke-width="4"
     stroke-linecap="round"
     stroke-linejoin="round"
     d="m -576.74,296.331 -0.026,0.334 1.945,1.01 -0.155,0.256 0.472,-0.264 -0.158,0.338 0.269,-0.299 0.17,0.274 -0.21,0.069 0.303,0.074 -0.42,-0.178 0.415,-0.187 -0.336,0.279 0.212,-0.188 -0.205,-0.027 0.073,0.503 0.17,-0.575 -0.249,0.043 0.127,0.251 0.146,-0.327 -0.185,0.376 0.266,-0.174 -0.416,0.013 0.333,-0.091 -0.201,0.257 0.008,-0.215 0.298,0.158 -0.349,0.024 0.216,-0.268 -0.13,0.438 0.165,-0.32 -0.252,0.022 0.212,0.283 -0.092,-0.306 -0.176,0.138 0.312,-0.125 -0.28,0.09 0.087,0.274 0.237,-0.15 -0.3,-0.134 0.489,-0.344 -0.188,-0.668 2.234,-8.479 5.328,-15.922 1.304,-8.301 0.134,-5.004 1.517,-7.466 -0.214,-0.173 1.323,-10.53 -0.054,0.53 -0.14,-0.165 0.174,-1.494 -0.4,-0.982 2.343,12.11 2.188,9.1 0.047,1.532 2.213,11.146 1.684,11.878 0.592,1.667 0.997,1.498 1.17,3.742 0.444,0.349 0.002,1.31 0.553,1.917 -0.196,0.061 0.282,-0.327 -0.044,0.43 -0.248,0.014 0.266,-0.37 -0.437,0.082 0.155,-0.749 -0.639,-3.194 -0.577,-0.789 -0.142,0.256 0.012,-0.583"
     id="path54" />
</g>
<g
   id="g60"
   transform="translate(-113.66901,-15.733601)">
  <path
     fill="none"
     stroke="#000000"
     stroke-width="4"
     stroke-linecap="round"
     stroke-linejoin="round"
     d="m -567.263,277.72 -0.23,1.018 -0.435,0.14 0.073,-0.317 0.715,-0.162 0.359,0.369 2.609,0.441 4.673,0.03 0.254,0.024 -0.105,0.249 -0.545,-0.448"
     id="path58" />
</g>
<g
   id="g64"
   transform="translate(-113.66901,-15.733601)">
  <path
     fill="none"
     stroke="#000000"
     stroke-width="4"
     stroke-linecap="round"
     stroke-linejoin="round"
     d="m -524.602,278.293 0.981,-1.596 0.32,0.9 -2.645,-0.528 -2.071,0.741 -0.484,0.45 -0.023,0.587 -0.706,0.567 -0.402,1.631 0.123,2.065 0.741,1.389 1.209,1.804 1.587,1.418 1.517,2.665 0.082,3.224 -0.706,2.005 -1.669,1.441 -1.753,0.67 -3.107,0.533 -2.231,-0.082 -2.292,-0.57 0.078,-0.485 0.419,-0.144"
     id="path62" />
</g>
<g
   id="g68"
   transform="translate(-113.66901,-15.733601)">
  <path
     fill="none"
     stroke="#000000"
     stroke-width="4"
     stroke-linecap="round"
     stroke-linejoin="round"
     d="m -507.475,295.795 0.502,0.024 -0.024,0.235 0.107,-0.993 0.286,-0.123 0.619,0.709 -0.03,0.344 -0.262,-0.007 0.221,0.154 -2,3.626 -1.79,5.78 -0.297,-0.737"
     id="path66" />
</g>
<g
   id="g72"
   transform="translate(-113.66901,-15.733601)">
  <path
     fill="none"
     stroke="#000000"
     stroke-width="4"
     stroke-linecap="round"
     stroke-linejoin="round"
     d="m -488.883,275.706 -0.907,-0.013 -0.217,0.358 0.215,-0.406 1.95,-0.543 2.373,-1.498 2.606,2.487 3.069,12.097 0.54,0.999 -0.157,0.516 0.297,0.449 0.175,2.163 0.613,2.003 0.757,1.875 1.275,1.276 2.52,0.884 2.558,-0.442 2.907,-1.207 2.18,-1.526 3.44,-1.369"
     id="path70" />
</g>
<g
   id="g76"
   transform="translate(-113.66901,-15.733601)">
  <path
     fill="none"
     stroke="#000000"
     stroke-width="4"
     stroke-linecap="round"
     stroke-linejoin="round"
     d="m -488.773,296.509 0.823,-0.039 -0.108,0.282 -0.45,-0.035 0.729,-0.008 0.259,0.484 2.044,-0.326 2.185,-0.797 2.77,-2.791 1.665,-0.891 7.972,-11.402 1.263,-2.519 1.366,-0.821 1.01,-1.494 0.473,-0.085"
     id="path74" />
</g>
<g
   id="g80"
   transform="translate(-113.66901,-15.733601)">
  <path
     fill="none"
     stroke="#000000"
     stroke-width="4"
     stroke-linecap="round"
     stroke-linejoin="round"
     d="m -442.392,256.957 0.851,2.615 1.362,0.483 0.926,-0.292 1.289,-1.517 0.132,-0.931 -0.298,-1.289 -1.093,-1.129 -0.654,-0.175 -1.222,-0.119 -0.769,0.795 -0.295,1.15 0.18,2.919 0.612,1.011 0.868,0.187 1.57,-0.547 0.766,-0.997 0.676,-1.637 -0.158,-2.274 -0.626,-0.836 -1.222,-0.089 -2.504,1.183 0.161,0.677 0.696,0.626 2.221,0.038"
     id="path78" />
</g>
<g
   id="g84"
   transform="translate(-113.66901,-15.733601)">
  <path
     fill="none"
     stroke="#000000"
     stroke-width="4"
     stroke-linecap="round"
     stroke-linejoin="round"
     d="m -439.641,276.599 0.249,2.669 0.496,1.628 2.25,1 0.719,-0.031 0.761,-0.521 1.03,-2.206 -0.081,-0.695 -0.723,-1.028 -1.096,-0.208 -0.983,0.266 -0.686,0.666 -0.314,1.085 0.479,1.179 1.276,0.866 1.288,0.006 0.959,-0.532 0.853,-1.154 0.388,-1.437 -0.228,-1.191 -0.729,0.322 -2.543,2.509 -0.088,0.848 2.176,-0.234"
     id="path82" />
</g>
<g
   id="g88"
   transform="translate(-113.66901,-15.733601)">
  <path
     fill="none"
     stroke="#000000"
     stroke-width="4"
     stroke-linecap="round"
     stroke-linejoin="round"
     d="m -485.414,348.472 0.457,0.043 0.115,0.828 0.273,-0.33 0.16,0.204 -0.201,0.353 0.32,-0.019 -0.361,0.204 0.222,-0.259 -0.206,0.404 0.09,-0.224 0.126,0.213 -0.221,-0.085 0.192,-0.238 -0.077,0.35 -0.191,-0.111 0.266,-0.043 -0.14,0.322 0.119,-0.416 -0.002,0.37 -0.249,-0.16 0.273,0.229 -0.276,-0.122 0.359,-0.002 -0.272,-0.003 0.084,0.333 -0.105,-0.361 0.298,0.115 -0.306,0.108 0.33,-0.315 -0.32,0.071 0.236,0.154 -0.32,0.133 0.38,-0.441 -0.041,0.377 -0.27,-0.108 0.302,0.061 -0.017,-0.324 -0.16,0.34 0.298,-0.059 -0.247,0.164 0.281,-0.311 -0.336,0.43 -0.006,-0.327 0.294,0.146 -0.313,-0.118 0.215,0.272 -0.345,-0.288 0.187,0.26 0.255,-0.232 -0.322,0.007 0.279,-0.035 -0.239,0.315 0.26,-0.449 -0.015,0.577 -0.095,-0.434 -0.087,0.312 0.253,-0.011 -0.292,-0.119 -0.006,0.222 0.202,-0.321 -0.298,0.302 0.313,-0.011 -0.161,-0.431 0.249,0.279 -0.102,-0.282 -0.186,0.337 0.213,-0.093 -0.234,-0.269 0.346,-0.039 1.95,-2.848 0.433,-1.536 1.289,-1.88 -0.073,-0.322 -0.07,0.911 -0.335,-0.017 -2.22,2.067 -5.612,5.989 -2.391,3.214 -0.658,1.403 -0.385,1.231 0.108,3.238 0.199,1.182 1.198,2.14 3.945,1.723 3.363,0.473 2.712,-0.365 1.945,-1.181 0.944,-1.084 1.656,-4.133 0.844,-4.692 -1.131,-6.066 -2.285,-8.183 2.235,5.494 3.336,6.814 6.002,10.173 1.48,1.246 -1.082,0.905"
     id="path86" />
</g>
<g
   id="g92"
   transform="translate(-113.66901,-15.733601)">
  <path
     fill="none"
     stroke="#000000"
     stroke-width="4"
     stroke-linecap="round"
     stroke-linejoin="round"
     d="m -433.519,338.619 1.308,0.578 0.079,-0.467 0.972,-0.535 0.021,-0.344 0.157,0.301 -3.047,0.088 -2.681,0.786 -1.958,1.285 -3.207,4.253 -2.249,4.463 -1.381,4.917 -0.3,3.797 0.238,2.443 0.852,2.522 0.915,1.532 2.832,2.201 1.804,0.47 3.93,-0.297 5.523,-1.744 2.631,-1.3 1.253,-1.736 0.839,-2.777"
     id="path90" />
</g>
<g
   id="g96"
   transform="translate(-113.66901,-15.733601)">
  <path
     fill="none"
     stroke="#000000"
     stroke-width="4"
     stroke-linecap="round"
     stroke-linejoin="round"
     d="m -438.467,348.204 -2.667,-0.213 -0.114,0.18 0.674,-0.009 0.225,0.695 0.376,-0.411 2.714,0.441 7.983,0.235 0.772,-0.315 1.107,0.242 1.121,-0.266 -0.049,-0.841 0.319,-0.524"
     id="path94" />
</g>
<g
   id="g100"
   transform="translate(-113.66901,-15.733601)">
  <path
     fill="none"
     stroke="#000000"
     stroke-width="4"
     stroke-linecap="round"
     stroke-linejoin="round"
     d="m -394.874,321.777 -1.233,0.022 1.541,0.124 0.371,0.403 -0.168,0.158 0.149,-0.436 0.178,0.489 -0.286,-0.258 0.122,-0.34 0.117,0.619 -0.259,-0.523 0.29,0.113 -0.158,0.223 0.305,-0.069 -0.369,0.083 0.305,-0.089 -0.342,-0.158 0.239,0.444 -0.291,-0.187 0.267,0.003 -0.112,-0.268 0.094,0.304 0.032,-0.242 5.062,2.605 3.267,0.496 9.276,-1.297 3.22,0.171 5.328,1.421 3.253,0.137 1.483,0.481 2.76,-0.213 0.338,0.261 1.966,-0.606 1.642,-0.126 -0.326,0.144 0.351,0.1 -0.224,0.406 -0.146,-0.372 0.23,0.19 -0.605,0.9 -4.677,5.414 -1.885,2.984 -2.693,3.143 -5.324,5.353 -9.014,7.49 -4.076,4.056 -5.127,6.144 -0.929,1.526 -1.544,1.375 -0.807,1.531 -5.409,5.129 0.714,-0.56 -0.251,0.055 0.109,0.258 2.626,1.492 4.4,1.39 2.824,0.403 4.719,-0.45 0.839,0.195 1.62,-0.562 1.233,0.065 1.892,-0.489 2.293,0.419 1.589,-1.064 0.132,-1.16 -0.54,-0.174"
     id="path98" />
</g>
<g
   id="g104"
   transform="translate(-113.66901,-15.733601)">
  <path
     fill="none"
     stroke="#000000"
     stroke-width="4"
     stroke-linecap="round"
     stroke-linejoin="round"
     d="m -401.454,365.079 -0.812,0.23 -0.598,-0.182 0.271,-0.115 0.31,0.635 -2.017,3.611 0.022,0.688 0.175,-0.614 0.142,0.357 0.371,-0.119 0.381,-0.863 8.773,-10.757 5.632,-8.018 12.762,-14.491 5.902,-5.8 2.584,-3.254 3.127,-5.077 3.444,-3.711 -0.347,0.711 -0.208,-0.106 0.226,0.172 -0.346,0.14 -0.648,1.709 -1.139,0.675"
     id="path102" />
</g>
<g
   id="g108"
   transform="translate(-113.66901,-15.733601)">
  <path
     fill="none"
     stroke="#000000"
     stroke-width="4"
     stroke-linecap="round"
     stroke-linejoin="round"
     d="m -347.697,363.383 0.957,0.234 1.174,-2.477 0.071,1.019 -0.235,-0.285 0.098,0.294 -0.852,-0.002 -2.309,1.026 -1.69,0.965 -1.531,1.622 -0.755,1.966 -0.009,1.756 0.751,2.121 2.856,3.094 2.565,1.312 h 2.085 l 1.077,-0.723 1.529,-1.72 0.906,-2.039 0.577,-3.425 -0.146,-2.956 -0.676,-3.621 0.376,0.9 -0.211,0.269 -0.072,-0.291 0.758,4.056 0.4,11.75 -0.635,14.717 0.015,1.839 0.063,0.205 0.147,-0.303 -0.197,-0.471 -0.041,0.503 -0.216,-1.141 0.046,-1.326"
     id="path106" />
</g>
<g
   id="g112"
   transform="translate(-113.66901,-15.733601)">
  <path
     fill="none"
     stroke="#000000"
     stroke-width="4"
     stroke-linecap="round"
     stroke-linejoin="round"
     d="m -340.185,314.245 0.823,0.165 0.13,-0.269 -0.342,0.192 0.894,9.444 -0.059,7.297 0.126,-0.668 3.163,-3.773 0.877,-2.333 1.717,-2.734 1.088,-1.283 0.86,-0.276 1.564,0.881 1.218,1.369 0.814,1.822 1.107,5.175 0.366,0.483"
     id="path110" />
</g>
<g
   id="g116"
   transform="translate(-113.66901,-15.733601)">
  <path
     fill="none"
     stroke="#000000"
     stroke-width="4"
     stroke-linecap="round"
     stroke-linejoin="round"
     d="m -258.908,343.782 -0.468,-1.185 0.3,0.671 -0.408,0.053 0.185,0.18 -0.825,3.616 0.04,5.868 1.221,3.567 1.393,2.317 1.427,1.625 2.47,0.992 3.053,-0.574 1.789,-0.945 2.311,-4.221 1.997,-4.98 0.733,-3.254 0.308,-4.349 1.391,3.451 1.707,6.009 1.02,6.411 1.103,2.901 0.848,1.252 0.307,-0.268"
     id="path114" />
</g>
<g
   id="g120"
   transform="translate(-113.66901,-15.733601)">
  <path
     fill="none"
     stroke="#000000"
     stroke-width="4"
     stroke-linecap="round"
     stroke-linejoin="round"
     d="m -231.41,344.2 -0.035,0.291 0.536,-0.096 0.961,13.053 0.18,-0.79 1.232,-1.8 2.409,-2.771 3.12,-3.124 2.305,-1.281 -0.241,0.658 1.837,4.349 1.809,3.256 0.34,2.68"
     id="path118" />
</g>
<g
   id="g124"
   transform="translate(-113.66901,-15.733601)">
  <path
     fill="none"
     stroke="#000000"
     stroke-width="4"
     stroke-linecap="round"
     stroke-linejoin="round"
     d="m -211.14,351.24 -0.049,2.562 1.111,0.447 0.248,-0.368"
     id="path122" />
</g>
<g
   id="g128"
   transform="translate(-113.66901,-15.733601)">
  <path
     fill="none"
     stroke="#000000"
     stroke-width="4"
     stroke-linecap="round"
     stroke-linejoin="round"
     d="m -207.572,324.5 -1.628,-5.989 0.204,1.397 2.102,2.628"
     id="path126" />
</g>
<g
   id="g132"
   transform="translate(-113.66901,-15.733601)">
  <path
     fill="none"
     stroke="#000000"
     stroke-width="4"
     stroke-linecap="round"
     stroke-linejoin="round"
     d="m -181.414,323.11 -0.776,-2.484 -1.608,-2.144 -1.777,-0.86 -1.428,0.735 -2.568,3.757 -1.759,5.108 -0.716,3.212 -0.5,6.05 0.734,6.873 1.665,5.919 3.679,9.889"
     id="path130" />
</g>
<g
   id="g136"
   transform="translate(-113.66901,-15.733601)">
  <path
     fill="none"
     stroke="#000000"
     stroke-width="4"
     stroke-linecap="round"
     stroke-linejoin="round"
     d="m -194.259,345.32 -0.948,-0.428 -0.819,-0.857 -0.15,-0.581 0.236,0.006 1.566,0.901 10.789,2.549"
     id="path134" />
</g>
<g
   id="g140"
   transform="translate(-113.66901,-15.733601)">
  <path
     fill="none"
     stroke="#000000"
     stroke-width="4"
     stroke-linecap="round"
     stroke-linejoin="round"
     d="m -175.608,343.115 -1.836,0.293 -0.588,-0.204 0.906,0.561 -0.332,3.062 0.669,3.042 1.105,1.621 0.808,0.593 1.264,0.414 2.289,0.021 3.259,-1.867 1.153,-1.088 1.634,-2.693 0.563,-2.076 -0.301,-1.532 -1.023,-1.373 -2.779,-2.637 -2.762,-1.574 -1.187,0.253 -2.1,2.277 -0.482,2.018 0.639,2.671 2.639,3.245 2.429,2.396"
     id="path138" />
</g>
<g
   id="g144"
   transform="translate(-113.66901,-15.733601)">
  <path
     fill="none"
     stroke="#000000"
     stroke-width="4"
     stroke-linecap="round"
     stroke-linejoin="round"
     d="m -155.442,334.455 -0.425,-0.62 0.366,0.406 -0.146,1.366 -2.806,13.86"
     id="path142" />
</g>
<g
   id="g148"
   transform="translate(-113.66901,-15.733601)">
  <path
     fill="none"
     stroke="#000000"
     stroke-width="4"
     stroke-linecap="round"
     stroke-linejoin="round"
     d="m -155.79,346.024 0.011,-1.746 1.969,-4.364 1.379,-1.073 1.881,-0.536"
     id="path146" />
</g>
<g
   id="g152"
   transform="translate(-113.66901,-15.733601)">
  <path
     fill="none"
     stroke="#000000"
     stroke-width="4"
     stroke-linecap="round"
     stroke-linejoin="round"
     d="m -139.756,337.669 -1.623,2.074 -3.046,5.607 -0.916,2.673 0.056,0.937 0.531,0.241 0.593,-0.179 3.518,-1.896 2.467,-2.274 3.523,-4.735 -0.479,1.226 0.302,1.705 -0.271,1.792 -1.239,3.611 0.56,-1.304 6.529,-5.028 6.916,-2.694 2.074,-0.183 0.829,0.162 0.375,0.533 -1.179,1.643 -2.751,5.491 0.048,2.027"
     id="path150" />
</g>
<g
   id="g156"
   transform="translate(-113.66901,-15.733601)">
  <path
     fill="none"
     stroke="#000000"
     stroke-width="4"
     stroke-linecap="round"
     stroke-linejoin="round"
     d="m -102.134,316.589 -0.078,-1.344 -0.47,1.553 -2.121,3.44 -1.468,4.339 -6.199,13.774 -1.299,4.829 -0.028,2.621 0.829,2.667 2.893,3.495 1.493,1.041 1.656,0.272"
     id="path154" />
</g>
<g
   id="g160"
   transform="translate(-113.66901,-15.733601)">
  <path
     fill="none"
     stroke="#000000"
     stroke-width="4"
     stroke-linecap="round"
     stroke-linejoin="round"
     d="m -98.7822,342.073 -0.6935,0.43 0.3796,-0.205 0.7132,0.283 8.9996,5.017"
     id="path158" />
</g>
<g
   id="g164"
   transform="translate(-113.66901,-15.733601)">
  <path
     fill="none"
     stroke="#000000"
     stroke-width="4"
     stroke-linecap="round"
     stroke-linejoin="round"
     d="m -85.6104,342.645 -0.9881,0.57 -2.6477,3.145 -1.337,2.274 -1.9779,4.557 -0.7892,2.271 -0.5288,3 0.0814,2.491 0.5983,3.343"
     id="path162" />
</g>
<g
   id="g168"
   transform="translate(-113.66901,-15.733601)">
  <path
     fill="none"
     stroke="#000000"
     stroke-width="4"
     stroke-linecap="round"
     stroke-linejoin="round"
     d="m -40.6205,329.454 0.819,-3.063 -0.2692,1.459 0.3755,7.86 -0.1595,3.493 -1.2448,9.057 -0.065,3.688"
     id="path166" />
</g>
<g
   id="g172"
   transform="translate(-113.66901,-15.733601)">
  <path
     fill="none"
     stroke="#000000"
     stroke-width="4"
     stroke-linecap="round"
     stroke-linejoin="round"
     d="m -37.5877,338.846 -0.3965,-0.443 0.73,0.101 2.7944,-1.496 3.4786,-1.365 8.8134,-2.363"
     id="path170" />
</g>
<g
   id="g176"
   transform="translate(-113.66901,-15.733601)">
  <path
     fill="none"
     stroke="#000000"
     stroke-width="4"
     stroke-linecap="round"
     stroke-linejoin="round"
     d="m -9.64511,332.992 0.1366,-0.274 -0.25971,-0.096 -3.44438,1.442 -2.4718,1.837 -1.8205,1.957 -1.2034,2.294 -0.2555,1.25 0.1029,3.019 0.5674,1.088 0.6035,0.752 1.3028,0.354 1.8065,-0.286 2.1023,-1.216 2.84189,-2.937 1.46991,-2.409 0.35901,-1.604 -0.20746,-0.839 -0.55645,-0.419 -0.66492,0.588 0.56586,0.621 3.30395,6.921 2.07782,2.708 2.666384,1.414"
     id="path174" />
</g>
<g
   id="g180"
   transform="translate(-113.66901,-15.733601)">
  <path
     fill="none"
     stroke="#000000"
     stroke-width="4"
     stroke-linecap="round"
     stroke-linejoin="round"
     d="m 5.00052,333.912 -2.49439,7.691 -0.1217,2.348 0.44,-0.24 0.51325,-1.062 3.13128,-1.775 6.08314,-4.422 2.77,-1.105 1.1687,-0.074 0.5124,0.272 0.0878,0.979 -0.6349,6.078 0.4259,1.394"
     id="path178" />
</g>
<g
   id="g184"
   transform="translate(-113.66901,-15.733601)">
  <path
     fill="none"
     stroke="#000000"
     stroke-width="4"
     stroke-linecap="round"
     stroke-linejoin="round"
     d="m 31.7172,337.721 -1.8182,-0.764 0.026,0.588 -1.994,3.448 -0.5158,1.991 -0.1669,2.72 0.7333,4.652 0.8499,1.061 0.6752,0.338 0.4902,-0.125 3.3447,-5.335 2.0556,-5.28 1.2282,-5.7 -0.0087,-5.125 -1.9408,-14.873 -0.2262,-5.177 -0.0148,1.375 -0.8219,2.54 -0.3042,2.809 -0.2804,12.866 1.1251,11.747 1.38,5.363"
     id="path182" />
</g>
<g
   id="g188"
   transform="translate(-113.66901,-15.733601)">
  <path
     fill="none"
     stroke="#000000"
     stroke-width="4"
     stroke-linecap="round"
     stroke-linejoin="round"
     d="m 52.37,334.99 -2.6122,-1.97 -0.7617,0.185 -3.0095,6.528 0.2298,2.775 1.0881,1.578 2.9681,1.066 2.9746,-0.605 2.4757,-1.837 1.9243,-2.808 0.5786,-2.972 -0.7784,-2.637 -2.2698,-2.393 -2.6774,-1.428 -1.5362,0.176 -0.8357,0.603 -1.0006,2.065 -0.0133,2.706 1.2187,3.1"
     id="path186" />
</g>
<g
   id="g192"
   transform="translate(-113.66901,-15.733601)">
  <path
     fill="none"
     stroke="#000000"
     stroke-width="4"
     stroke-linecap="round"
     stroke-linejoin="round"
     d="m 71.5524,331.298 0.0256,-1.777 -0.215,1.405 -1.6921,3.559 -0.5652,1.932 -0.0358,2.518 0.6558,3.39 0.4847,-0.729 7.9675,-6.682 2.3304,-1.244 -0.6216,0.522 0.291,1.939 -0.4703,2.998 -1.778,4.442 0.711,-0.928 1.6484,-0.651 6.1271,-3.685 1.9701,-0.904 4.2463,-0.833 1.5135,-0.026 3.5251,0.761 3.6901,2.14 1.217,0.985 2.096,2.486 0.854,1.285 0.782,2.062 -0.145,4.54 -1.581,4.582"
     id="path190" />
</g>
<g
   id="g196"
   transform="translate(-113.66901,-15.733601)">
  <path
     fill="none"
     stroke="#000000"
     stroke-width="4"
     stroke-linecap="round"
     stroke-linejoin="round"
     d="m -478.828,434.63 0.833,0.632 -0.284,-0.031 0.063,0.662 -0.317,-0.274 -2.286,0.767 -2.119,0.052 -2.308,-1.922 -2.635,-2.895 -2.754,-5.263 -0.869,-3.293 -0.767,-4.307 0.457,-4.849 0.35,-1.445 0.902,-1.735 1.694,-2.139 1.019,-0.845 2.551,-1.271 1.765,-0.393 3.951,-0.015 2.935,1.021 1.818,1.982 0.945,2.024 0.358,1.659 -0.309,1.697 -1.388,2.558 -0.905,0.982 -1.219,0.739 -1.374,0.275 -3.163,-0.436 -2.549,-1.135 -0.406,0.175 0.371,-0.251 0.945,0.682"
     id="path194" />
</g>
<g
   id="g200"
   transform="translate(-113.66901,-15.733601)">
  <path
     fill="none"
     stroke="#000000"
     stroke-width="4"
     stroke-linecap="round"
     stroke-linejoin="round"
     d="m -438.557,405.881 0.491,0.357 0.494,-0.196 0.316,-0.532 -0.251,-0.332 0.106,0.852 -3.157,0.987 -1.654,1.045 -6.195,5.085 -1.599,1.745 -2.466,6.886 -0.098,2.654 0.325,2.082 0.605,1.124 2.706,2.772 3.053,1.976 1.764,0.632 2.357,0.289 2.116,-0.089 1.297,-0.409 2.564,-0.18 1.216,-0.465 4.913,-0.601 4.784,-1.166 2.216,-1.198"
     id="path198" />
</g>
<g
   id="g204"
   transform="translate(-113.66901,-15.733601)">
  <path
     fill="none"
     stroke="#000000"
     stroke-width="4"
     stroke-linecap="round"
     stroke-linejoin="round"
     d="m -446.061,423.135 -2.221,-0.372 1.311,0.513 3.225,0.168 5.44,-0.429 4.501,0.022 4.476,0.482"
     id="path202" />
</g>
<g
   id="g208"
   transform="translate(-113.66901,-15.733601)">
  <path
     fill="none"
     stroke="#000000"
     stroke-width="4"
     stroke-linecap="round"
     stroke-linejoin="round"
     d="m -396.244,393.382 -0.04,-0.336 -0.45,0.058 -0.406,1.618 -0.302,0.003 0.668,-0.025 -0.107,0.459 1.349,-0.263 7.897,0.906 3.135,0.07 6.257,0.971 8.181,0.585 5.468,-0.028 0.688,0.287 -0.436,0.12 0.282,-0.274 0.308,0.367 -7.514,8.487 -2.031,2.775 -5.994,6.42 -3.802,4.767 -4.765,4.784 -4.468,5.454 -2.819,2.769 -2.313,1.35 -0.915,1.04 0.446,-0.213 2.51,1.516 2.141,0.727 4.286,0.232 7.22,-0.898 6.32,-1.407 9.609,-0.715 2.351,0.322 2.67,1.01 2.992,2.304 0.227,-0.692 -0.181,-3.186"
     id="path206" />
</g>
<g
   id="g212"
   transform="translate(-113.66901,-15.733601)">
  <path
     fill="none"
     stroke="#000000"
     stroke-width="4"
     stroke-linecap="round"
     stroke-linejoin="round"
     d="m -396.843,431.676 -0.121,0.812 -0.858,0.235 0.218,0.52 -0.455,-0.122 0.259,0.018 0.21,-0.237 -0.216,-0.052 -0.239,0.287 0.316,0.221 -0.308,-0.134 0.633,-0.52 -0.159,-2.41 0.8,-2.461 1.106,-2.132 3.638,-5.293 7.928,-10.12 4.477,-4.62 5.849,-5.177 7.263,-4.344 0.669,-1.061 0.34,-0.309 0.145,0.178 -0.585,0.031 -0.037,0.403"
     id="path210" />
</g>
<g
   id="g216"
   transform="translate(-113.66901,-15.733601)">
  <path
     fill="none"
     stroke="#000000"
     stroke-width="4"
     stroke-linecap="round"
     stroke-linejoin="round"
     d="m -342.026,422.2 0.14,-0.95 -0.413,-0.57 -3.652,0.763 -2.257,1.408 -3.038,3.351 -0.762,1.771 -0.263,1.879 0.355,2.581 0.997,1.808 1.283,1.403 1.104,0.681 1.161,0.192 2.015,-0.38 1.398,-1.093 3.192,-4.708 1.584,-4.312 0.075,-3.3 -0.77,10.311 -1.72,13.942 0.022,4.156 1.44,3.959 0.195,1.494"
     id="path214" />
</g>
<g
   id="g220"
   transform="translate(-113.66901,-15.733601)">
  <path
     fill="none"
     stroke="#000000"
     stroke-width="4"
     stroke-linecap="round"
     stroke-linejoin="round"
     d="m -239.279,400.346 1.001,-1.173 0.383,-1.327 -0.288,-0.824 -1.385,-1.21 -3.579,-0.391 -1.696,0.474 -1.302,0.796 -1.839,2.599 -1.984,4.768 -0.664,4.727 0.083,6.103 2.309,19.152 1.403,7.817 -0.041,1.59 -0.457,1.567 -0.496,0.339 -0.45,-0.132"
     id="path218" />
</g>
<g
   id="g224"
   transform="translate(-113.66901,-15.733601)">
  <path
     fill="none"
     stroke="#000000"
     stroke-width="4"
     stroke-linecap="round"
     stroke-linejoin="round"
     d="m -257.553,426.521 -1.82,-2.039 -0.231,-1.189 0.155,-0.605 0.402,-0.139 1.052,1.3 13.968,4.276"
     id="path222" />
</g>
<g
   id="g228"
   transform="translate(-113.66901,-15.733601)">
  <path
     fill="none"
     stroke="#000000"
     stroke-width="4"
     stroke-linecap="round"
     stroke-linejoin="round"
     d="m -222.214,420.084 -0.2,-0.679 0.594,0.45 -0.083,4.359 -0.953,10.808 0.246,4.537"
     id="path226" />
</g>
<g
   id="g232"
   transform="translate(-113.66901,-15.733601)">
  <path
     fill="none"
     stroke="#000000"
     stroke-width="4"
     stroke-linecap="round"
     stroke-linejoin="round"
     d="m -224.095,431.58 0.018,-2.016 1.537,-3.491 3.353,-1.587 7.631,-2.274"
     id="path230" />
</g>
<g
   id="g236"
   transform="translate(-113.66901,-15.733601)">
  <path
     fill="none"
     stroke="#000000"
     stroke-width="4"
     stroke-linecap="round"
     stroke-linejoin="round"
     d="m -203.496,423.202 -1.225,0.5 -0.618,1.636 -0.369,2.27 0.256,2.362 0.649,1.866 1.132,1.94 2.631,2.317 2.857,0.489 1.364,-0.544 1.094,-1.029 1.495,-2.711 0.558,-2.473 0.049,-1.802 -0.728,-1.849 -3.704,-2.157 -4.545,-0.067 -1.318,0.327 -1.574,0.916 -1.419,1.313 -1.433,2.02 -0.659,1.586 -0.035,2.087 1.788,1.813 2.222,0.589 2.36,0.144"
     id="path234" />
</g>
<g
   id="g240"
   transform="translate(-113.66901,-15.733601)">
  <path
     fill="none"
     stroke="#000000"
     stroke-width="4"
     stroke-linecap="round"
     stroke-linejoin="round"
     d="m -182.753,421.932 0.005,-1.195 0.31,1.37 -0.653,3.549 -0.426,5.761 -1.146,4.855 0.132,0.551 0.623,-1.353 9.631,-7.675 2.311,-1.031 1.141,-0.158 -0.508,3.713 -2.482,4.594 0.476,-0.928 5.939,-5.501 1.839,-1.048 1.549,-0.36 1.362,1.595 0.508,2.541 -0.208,3.414 -1.59,2.895"
     id="path238" />
</g>
<g
   id="g244"
   transform="translate(-113.66901,-15.733601)">
  <path
     fill="none"
     stroke="#000000"
     stroke-width="4"
     stroke-linecap="round"
     stroke-linejoin="round"
     d="m -118.828,400.002 -0.11,-0.668 0.248,1.322 0.685,0.03 1.975,-3.798 1.254,-1.36 0.932,-0.435 7.54,1.884 1.407,1.689 0.85,2.454 0.344,3.347 1.145,4.995 -2.391,8.344 0.107,4.207 -0.819,5.638 -0.8,2.982 -0.018,1.906 3.885,7.473 2.594,2.952 2.8404,2.303 2.4556,1.554 2.2004,0.479 4.289,-0.649 7.8295,-2.826 5.3043,-2.629 5.6506,-3.44"
     id="path242" />
</g>
<g
   id="g248"
   transform="translate(-113.66901,-15.733601)">
  <path
     fill="none"
     stroke="#000000"
     stroke-width="4"
     stroke-linecap="round"
     stroke-linejoin="round"
     d="m -126.773,441.237 0.846,0.19 0.848,-0.308 0.795,0.483 0.822,-0.144 5.473,-1.935 4.437,-2.443 8.661,-8.025 16.8073,-18.371 4.6487,-4.452 2.9914,-3.521 3.5839,-4.935 0.641,-0.446"
     id="path246" />
</g>
<g
   id="g252"
   transform="translate(-113.66901,-15.733601)">
  <path
     fill="none"
     stroke="#000000"
     stroke-width="4"
     stroke-linecap="round"
     stroke-linejoin="round"
     d="m -494.75,491.504 0.804,-0.008 -0.65,0.431 0.787,1.846 0.292,3.079 3.023,3.826 0.843,0.601 1.29,0.232 0.447,-0.048 0.272,-0.414 0.755,0.046 2.139,-0.726 2.066,-1.632 4.751,-7.465 0.159,-2.871 -0.902,-3.589 -1.406,-1.522 -2.087,-1.528 -4.272,-0.846 0.063,-0.309 -2.409,0.988 -3,0.55 -1.184,1.059 -0.602,0.155 -1.231,1.399 -0.421,1.051 0.018,3.631 1.816,6.641 1.834,2.68 1.449,0.764 1.775,0.189"
     id="path250" />
</g>
<g
   id="g256"
   transform="translate(-113.66901,-15.733601)">
  <path
     fill="none"
     stroke="#000000"
     stroke-width="4"
     stroke-linecap="round"
     stroke-linejoin="round"
     d="m -465.311,486.325 0.59,-0.921 -0.366,-0.564 0.159,1.018 -2.475,2.657 -0.714,1.721 -0.25,5.33 0.606,2.605 1.036,2.376 2.846,3.476 1.219,0.704 1.157,-0.105 2.847,-2.151 1.76,-2.41 1.389,-2.991 0.671,-0.8 1.659,-4.127 -0.321,-1.683 -0.777,-1.48"
     id="path254" />
</g>
<g
   id="g260"
   transform="translate(-113.66901,-15.733601)">
  <path
     fill="none"
     stroke="#000000"
     stroke-width="4"
     stroke-linecap="round"
     stroke-linejoin="round"
     d="m -442.385,468.574 0.273,-1.941 1.561,-3.421 -0.292,1.398 1.41,5.404 0.649,6.301 -0.325,10.72 -1.083,12.158 -0.058,3.201 0.119,1.06 0.207,-0.245"
     id="path258" />
</g>
<g
   id="g264"
   transform="translate(-113.66901,-15.733601)">
  <path
     fill="none"
     stroke="#000000"
     stroke-width="4"
     stroke-linecap="round"
     stroke-linejoin="round"
     d="m -445.326,492.515 -1.026,-1.594 -0.536,-1.65 0.049,-1.118 0.617,-0.676 7.479,-0.782 4.75,0.758"
     id="path262" />
</g>
<g
   id="g268"
   transform="translate(-113.66901,-15.733601)">
  <path
     fill="none"
     stroke="#000000"
     stroke-width="4"
     stroke-linecap="round"
     stroke-linejoin="round"
     d="m -426.782,487.693 -0.404,-1.72 0.4,0.147 0.17,0.521 0.661,4.606 0.506,6.38 0.1,20.675 0.192,-1.827 -0.433,-1.766 -0.206,-3.231 0.544,-6.602 1.301,-7.708 2.167,-8.938 1.452,-3.609 1.876,-2.056 1.255,-0.302 2.141,0.153 2.208,0.983 1.31,1.3 0.613,2.651 -0.854,3.222 -2.594,3.975 -1.352,1.419 -1.277,0.382"
     id="path266" />
</g>
<g
   id="g272"
   transform="translate(-113.66901,-15.733601)">
  <path
     fill="none"
     stroke="#000000"
     stroke-width="4"
     stroke-linecap="round"
     stroke-linejoin="round"
     d="m -401.308,487.585 0.031,-3.109 -0.18,1.661 -0.904,1.784 -0.668,3.321 -0.012,1.809 0.686,2.734 0.91,2 1.306,1.58 1.675,1.214 1.48,0.171 2.297,-2.882 1.441,-4.175 0.791,-6.111 -0.111,-1.282 -0.523,-0.616 -0.591,-0.102 0.174,-0.656"
     id="path270" />
</g>
<g
   id="g276"
   transform="translate(-113.66901,-15.733601)">
  <path
     fill="none"
     stroke="#000000"
     stroke-width="4"
     stroke-linecap="round"
     stroke-linejoin="round"
     d="m -384.189,466.393 0.158,-1.48 0.495,-0.669 0.362,-0.015 -0.215,1.592 1.815,3.909 1.328,6.571 0.332,8.61 -0.261,7.324 0.448,14.229 -0.195,2.899"
     id="path274" />
</g>
<g
   id="g280"
   transform="translate(-113.66901,-15.733601)">
  <path
     fill="none"
     stroke="#000000"
     stroke-width="4"
     stroke-linecap="round"
     stroke-linejoin="round"
     d="m -387.917,492.319 0.25,-1.388 1.279,-1.653 1.393,-0.78 3.578,-0.814 4.768,0.51 3.916,1.614"
     id="path278" />
</g>
<g
   id="g284"
   transform="translate(-113.66901,-15.733601)">
  <path
     fill="none"
     stroke="#000000"
     stroke-width="4"
     stroke-linecap="round"
     stroke-linejoin="round"
     d="m -307.386,469.728 0.505,-1.376 1.993,-1.432 -0.369,0.231 -0.033,0.564 -4.507,9.457 -3.175,5.808 -1.484,3.973 -1.525,7.856 -1.931,7.628 -0.135,1.789 0.683,4.386 1.28,2.878 1.636,2.192 3.33,1.827 1.871,0.487 2.008,0.069"
     id="path282" />
</g>
<g
   id="g288"
   transform="translate(-113.66901,-15.733601)">
  <path
     fill="none"
     stroke="#000000"
     stroke-width="4"
     stroke-linecap="round"
     stroke-linejoin="round"
     d="m -277.341,493.511 2.283,-2.297 -0.548,0.711 -0.322,-0.798 -0.569,-0.209 -2.438,0.753 -4.048,2.452 -2.247,2.831 -0.922,1.768 -1.882,7.039 0.087,2.207 0.786,2.117 1.454,1.822 2.874,0.955 2.11,-0.075 1.155,-0.436 1.996,-1.77 1.168,-1.561 2.921,-7.279 0.484,-4.979 -0.403,-1.818 -0.219,0.075 0.439,0.521 0.124,1.851 0.815,3.355 1.757,5.188 2.738,4.898 0.826,0.802"
     id="path286" />
</g>
<g
   id="g292"
   transform="translate(-113.66901,-15.733601)">
  <path
     fill="none"
     stroke="#000000"
     stroke-width="4"
     stroke-linecap="round"
     stroke-linejoin="round"
     d="m -243.469,504.408 0.004,-1.44 0.315,-0.135 -0.035,0.948 -4.802,13.911 -1.531,6.798"
     id="path290" />
</g>
<g
   id="g296"
   transform="translate(-113.66901,-15.733601)">
  <path
     fill="none"
     stroke="#000000"
     stroke-width="4"
     stroke-linecap="round"
     stroke-linejoin="round"
     d="m -211.077,491.415 -0.458,0.141 -0.012,0.425 1.219,0.65 3.611,-5.023 3.233,-3.679 8.422,-7.002 1.763,-1.006 1.378,-1.418 0.225,-0.556 -0.504,0.121 -0.042,-0.605 0.816,-1.208"
     id="path294" />
</g>
<g
   id="g300"
   transform="translate(-113.66901,-15.733601)">
  <path
     fill="none"
     stroke="#000000"
     stroke-width="4"
     stroke-linecap="round"
     stroke-linejoin="round"
     d="m -207.448,488.2 0.372,-0.108 -1.045,-0.548 0.302,0.111 0.056,0.563 0.124,-0.191 1.086,4.622 2.974,5.141 10.076,10.521 1.113,0.653 0.486,0.703 0.583,0.136"
     id="path298" />
</g>
<g
   id="g304"
   transform="translate(-113.66901,-15.733601)">
  <path
     fill="none"
     stroke="#000000"
     stroke-width="4"
     stroke-linecap="round"
     stroke-linejoin="round"
     d="m -165.271,487.145 1.043,-0.219 0.325,-0.391 -1.118,-1.62 -0.462,-0.085 -0.189,-0.389 -2.209,0.303 -1.511,0.624 -1.87,1.473 -1.677,2.976 -1.372,5.523 -0.001,4.304 0.138,1.171 0.856,2.044 1.605,2.525 1.198,0.975 1.246,0.532 2.551,0.104 2.379,-1.653 2.078,-2.81 1.862,-6.192 0.295,-2.062 -0.052,-2.395 -1.423,-4.872 3.283,8.798 2.265,4.468 2.736,3.485 4.854,4.797"
     id="path302" />
</g>
<g
   id="g308"
   transform="translate(-113.66901,-15.733601)">
  <path
     fill="none"
     stroke="#000000"
     stroke-width="4"
     stroke-linecap="round"
     stroke-linejoin="round"
     d="m -138.024,499.78 0.266,-0.949 0.571,-0.521 0.17,0.194 -0.598,3.161 -0.084,4.274 -0.542,4.698"
     id="path306" />
</g>
<g
   id="g312"
   transform="translate(-113.66901,-15.733601)">
  <path
     fill="none"
     stroke="#000000"
     stroke-width="4"
     stroke-linecap="round"
     stroke-linejoin="round"
     d="m -101.481,481.478 0.32,-2.169 -0.288,-0.549 -0.613,0.271 -4.597,-0.683 -2.807,0.567 -2.002,0.883 -2.531,1.551 -0.884,1.563 -0.142,1.001 0.311,1.79 1.546,3.773 6.188,7.465 1.966,3.739 0.193,2.11 -1.106,2.725 -1.375,1.682 -2.035,1.11 -2.876,0.384 -4.181,-0.566 -6.215,-1.728 0.612,-0.771 0.894,0.083"
     id="path310" />
</g>
<g
   id="g316"
   transform="translate(-113.66901,-15.733601)">
  <path
     fill="none"
     stroke="#000000"
     stroke-width="4"
     stroke-linecap="round"
     stroke-linejoin="round"
     d="m -85.4325,475.352 -0.2797,-1.461 -0.2029,-0.103 -0.152,0.422 0.0513,0.638 0.624,1.076 0.0873,-0.294 0.5453,0.16 0.8776,1.025 7.4142,4.981 8.5862,6.748 -0.5652,-0.193 0.314,0.164 -0.1489,-0.145 -4.2865,5.013 -5.1625,7.245 -6.3245,10.835 -1.3464,3.396 0.3856,-1.236 -0.6794,-0.352 -0.2122,-0.862"
     id="path314" />
</g>
<g
   id="g320"
   transform="translate(-113.66901,-15.733601)">
  <path
     fill="none"
     stroke="#000000"
     stroke-width="4"
     stroke-linecap="round"
     stroke-linejoin="round"
     d="m -37.5849,479.293 0.3172,-1.311 0.503,-0.397 0.4757,0.191 -0.5572,2.366 -0.3982,9.048 -0.9918,6.175 -0.6921,8.41 -0.3493,0.945"
     id="path318" />
</g>
<g
   id="g324"
   transform="translate(-113.66901,-15.733601)">
  <path
     fill="none"
     stroke="#000000"
     stroke-width="4"
     stroke-linecap="round"
     stroke-linejoin="round"
     d="m -45.4392,493.759 -1.092,-1.674 0.1719,-0.707 0.4995,-0.114 0.4995,0.751 4.6071,0.112 8.9682,-1.374 1.5797,0.112 4.067,-0.449"
     id="path322" />
</g>
<g
   id="g328"
   transform="translate(-113.66901,-15.733601)">
  <path
     fill="none"
     stroke="#000000"
     stroke-width="4"
     stroke-linecap="round"
     stroke-linejoin="round"
     d="m 8.89243,502.039 0.62408,0.266 0.50819,0.882 -1.22071,-1.94 -5.48829,-4.872 -3.043453,-3.982 -0.945984,-2.461 -0.430843,-2.256 0.533444,-3.949 1.597536,-3.958 2.12732,-3.795 2.28576,-2.286 2.31195,-0.98 3.06507,-0.345 2.4205,0.987 1.5262,2.024 0.2315,2.59 -0.7052,2.864 -1.6104,2.132 -1.861,0.971 -2.57869,0.576 -2.52618,-0.304 -4.759647,-2.043 -0.159851,-0.491 0.235348,-0.262"
     id="path326" />
</g>
<g
   id="g332"
   transform="translate(-113.66901,-15.733601)">
  <path
     fill="none"
     stroke="#000000"
     stroke-width="4"
     stroke-linecap="round"
     stroke-linejoin="round"
     d="m 32.912,456.368 -0.1422,-0.862 0.3342,0.893 0.3059,0.369 0.0671,-0.312 0.2222,0.656 1.0176,1.034 3.0428,4.832 2.1516,4.79 1.1094,3.357 1.2645,7.144 -0.0747,8.509 -2.4578,19.76 -2.5967,10.452 -1.1974,2.187 -1.8679,1.545 -4.5463,0.433 -2.3687,-0.202"
     id="path330" />
</g>
<g
   id="g336"
   transform="translate(-113.66901,-15.733601)">
  <path
     fill="none"
     stroke="#000000"
     stroke-width="4"
     stroke-linecap="round"
     stroke-linejoin="round"
     d="m -42.2058,431.07 -0.2671,0.314 -0.7877,-0.743 -0.2806,1.026 0.4253,0.052 0.4324,1.811 0.8939,1.613 1.6339,1.895 2.0221,0.911 1.5636,0.194 2.6114,-0.493 1.7438,-1.167 4.2756,-4.819 1.3479,-3.588 -0.4974,-2.165 -0.6799,-1.126 -1.2272,-1.263 -2.4243,-1.656 -3.3427,-1.211 -4.3996,-0.448 -2.2248,0.43 -1.3783,2.065 -0.1754,2.55 0.4863,2.169 0.7409,1.628 2.5217,3.676 1.1132,0.967 2.0059,0.902"
     id="path334" />
</g>
<g
   id="g340"
   transform="translate(-113.66901,-15.733601)">
  <path
     fill="none"
     stroke="#000000"
     stroke-width="4"
     stroke-linecap="round"
     stroke-linejoin="round"
     d="m -18.4792,422.864 0.5071,-1.321 0.5176,1.162 -0.6876,8.512 0.063,2.651 0.1308,-0.554 0.029,0.245 0.4457,-0.274 3.7028,-4.141 7.18111,-4.842 4.42596,-1.112 1.444766,0.169 1.382874,0.63 2.03235,2.839 0.47687,1.86 -0.02246,6.107 -1.48963,1.92"
     id="path338" />
</g>
<g
   id="g344"
   transform="translate(-113.66901,-15.733601)">
  <path
     fill="none"
     stroke="#000000"
     stroke-width="4"
     stroke-linecap="round"
     stroke-linejoin="round"
     d="m 34.692,389.81 -0.9957,-0.256 0.1361,-0.355 0.122,0.71 0.7046,-0.013 0.1667,0.485 3.2532,-0.322 29.7179,-0.383 3.9279,0.229 2.148,0.42 0.1549,0.311 0.4609,-0.17 -0.3974,0.079 -0.3732,0.816 -4.5481,5.509 -3.9211,5.825 -4.5859,5.939 -9.4735,10.42 -6.4604,5.617 -9.6757,7.224 -1.79,1.724 -0.6044,1.113 0.2249,-0.307 3.1266,0.552 5.9247,-0.052 14.7264,-1.825 10.6343,-0.767 8.9887,0.171 2.4822,0.451 0.0724,0.266 -1.1384,-0.187 0.3632,-0.387 0.3529,0.184 0.0434,-0.459 -1.4675,-3.854"
     id="path342" />
</g>
<g
   id="g348"
   transform="translate(-113.66901,-15.733601)">
  <path
     fill="none"
     stroke="#000000"
     stroke-width="4"
     stroke-linecap="round"
     stroke-linejoin="round"
     d="m 33.298,428.827 -0.4517,0.165 0.112,0.898 -1.0258,0.958 0.3611,0.239 0.1071,-0.231 -0.1121,0.522 0.9029,-0.882 3.2277,-5.321 3.3587,-3.974 5.6693,-5.238 3.6331,-4.049 6.4398,-9.364 5.987,-6.037 4.8681,-6.195 0.884,-1.268 0.195,-0.555 -0.266,0.102 -0.0899,0.684 -1.4523,2.218"
     id="path346" />
</g>
<g
   id="g352"
   transform="translate(-113.66901,-15.733601)">
  <path
     fill="none"
     stroke="#000000"
     stroke-width="4"
     stroke-linecap="round"
     stroke-linejoin="round"
     d="m -564.431,164.091 -0.225,0.567 0.278,-2.129 -0.241,0.087 0.483,0.238 -0.359,0.157 0.27,0.431 -1.093,6.759 -0.714,9.589 -2.181,15.713 -0.055,1.184 0.362,-0.288 -0.367,1.338 0.175,-1.925"
     id="path350" />
</g>
<g
   id="g356"
   transform="translate(-113.66901,-15.733601)">
  <path
     fill="none"
     stroke="#000000"
     stroke-width="4"
     stroke-linecap="round"
     stroke-linejoin="round"
     d="m -569.274,164.013 -0.792,-0.387 0.619,0.516 0.307,-0.328 15.88,-2.717 4.979,-0.28 3.155,0.393 -0.279,-0.264 0.593,-0.346"
     id="path354" />
</g>
<g
   id="g360"
   transform="translate(-113.66901,-15.733601)">
  <path
     fill="none"
     stroke="#000000"
     stroke-width="4"
     stroke-linecap="round"
     stroke-linejoin="round"
     d="m -566.037,176.87 -1.897,-0.221 0.987,0.171 3.885,-0.403 14.554,-2.432"
     id="path358" />
</g>
<g
   id="g364"
   transform="translate(-113.66901,-15.733601)">
  <path
     fill="none"
     stroke="#000000"
     stroke-width="4"
     stroke-linecap="round"
     stroke-linejoin="round"
     d="m -544.363,183.834 -1.642,0.087 -1.473,0.531 0.797,0.341 0.847,4.956 0.742,2.031 1.065,1.182 1.162,0.217 5.169,-1.775 1.781,-1.444 1.727,-2.204 1.471,-2.976 0.19,-1.762 -0.521,-1.121 -2.737,-1.749 -1.952,-0.694 -1.759,-0.129 -3.642,0.935 -2.116,1.637 -0.298,1.407 1.061,2.095 2.491,2.037 3.476,1.532"
     id="path362" />
</g>
<g
   id="g368"
   transform="translate(-113.66901,-15.733601)">
  <path
     fill="none"
     stroke="#000000"
     stroke-width="4"
     stroke-linecap="round"
     stroke-linejoin="round"
     d="m -523.976,178.155 -0.484,-1.215 -0.049,-1.132 -0.715,4.628 -2.249,7.416 -0.472,3.723"
     id="path366" />
</g>
<g
   id="g372"
   transform="translate(-113.66901,-15.733601)">
  <path
     fill="none"
     stroke="#000000"
     stroke-width="4"
     stroke-linecap="round"
     stroke-linejoin="round"
     d="m -522.548,185.116 0.958,-2.249 1.404,-1.753 6.702,-2.833"
     id="path370" />
</g>
<g
   id="g376"
   transform="translate(-113.66901,-15.733601)">
  <path
     fill="none"
     stroke="#000000"
     stroke-width="4"
     stroke-linecap="round"
     stroke-linejoin="round"
     d="m -472.82,180.433 -1.387,-1.776 -3.85,0.056 -3.166,0.708 -2.16,1.669 -2.237,2.817 -1.049,2.173 -0.272,3.179 0.881,2.681 0.759,1.339 1.516,1.621 1.526,1.181 2.243,1.087 2.152,0.005 2.53,-1.211 2.224,-2.636 1.008,-2.721 0.142,-1.83 -0.449,-2.899 -1.301,-3.136 -0.147,0.387 1.17,4.976 1.847,3.602 2.109,2.157 3.405,1.921"
     id="path374" />
</g>
<g
   id="g380"
   transform="translate(-113.66901,-15.733601)">
  <path
     fill="none"
     stroke="#000000"
     stroke-width="4"
     stroke-linecap="round"
     stroke-linejoin="round"
     d="m -454.887,185.148 -0.344,-1.204 -0.019,-2.562 -0.028,1.405 -2.419,5.64 -1.345,4.865 -0.153,2.029 5.353,-2.346 7.761,-6.196 2.685,-0.91 0.524,0.122 0.39,0.59 -0.361,8.381 0.513,1.137"
     id="path378" />
</g>
<g
   id="g384"
   transform="translate(-113.66901,-15.733601)">
  <path
     fill="none"
     stroke="#000000"
     stroke-width="4"
     stroke-linecap="round"
     stroke-linejoin="round"
     d="m -436.205,188.822 -1.896,-0.209 1.237,0.17 1.281,1.151 1.783,1.002 5.119,2.189 4.216,2.24"
     id="path382" />
</g>
<g
   id="g388"
   transform="translate(-113.66901,-15.733601)">
  <path
     fill="none"
     stroke="#000000"
     stroke-width="4"
     stroke-linecap="round"
     stroke-linejoin="round"
     d="m -417.929,186.155 -2.136,-0.372 -1.045,0.634 -4.683,7.737 -4.738,9.15 -1.611,5.108 -0.009,3.18"
     id="path386" />
</g>
<g
   id="g392"
   transform="translate(-113.66901,-15.733601)">
  <path
     fill="none"
     stroke="#000000"
     stroke-width="4"
     stroke-linecap="round"
     stroke-linejoin="round"
     d="m -345.418,177.649 0.601,-1.885 -0.485,0.279 -2.989,-0.888 -2.872,-0.106 -3.202,1.027 -4.371,3.807 -0.162,1.073 1.19,3.813 3.605,7.064 1.307,3.548 0.211,1.204 -0.195,1.757 -1.251,2.318 -2.021,1.508 -2.116,0.527 -6.038,0.466 -4.78,-1.155 -1.412,-0.595 -1.356,-1.08 0.147,-0.273 1.02,0.244 4.845,-1.022"
     id="path390" />
</g>
<g
   id="g396"
   transform="translate(-113.66901,-15.733601)">
  <path
     fill="none"
     stroke="#000000"
     stroke-width="4"
     stroke-linecap="round"
     stroke-linejoin="round"
     d="m -311.546,183.262 0.883,-2.349 -0.099,-0.964 -0.933,0.768 -1.858,-0.037 -3.251,0.71 -6.962,3.182 -2.395,1.455 -3.179,2.69 -2.689,3.939 -0.814,2.276 0.278,2.086 1.164,2.481 1.224,1.621 2.689,2.427 3.207,1.503 3.326,0.554 7.963,0.062 1.754,-0.32"
     id="path394" />
</g>
<g
   id="g400"
   transform="translate(-113.66901,-15.733601)">
  <path
     fill="none"
     stroke="#000000"
     stroke-width="4"
     stroke-linecap="round"
     stroke-linejoin="round"
     d="m -324.601,193.486 -7.095,-1.438 0.449,-0.163 2.249,0.505 3.684,0.291 10.08,0.035 5.061,0.457"
     id="path398" />
</g>
<g
   id="g404"
   transform="translate(-113.66901,-15.733601)">
  <path
     fill="none"
     stroke="#000000"
     stroke-width="4"
     stroke-linecap="round"
     stroke-linejoin="round"
     d="m -279.62,174.597 -0.893,-1.149 -0.817,-0.411 -0.93,-0.096 -0.782,0.581 2.321,0.452 5.072,0.678 15.088,0.73 6.206,1.119 1.047,0.81 -0.563,0.24 0.073,2.141 -0.846,2.066 -1.562,2.072 -7.549,7.119 -9.367,6.941 -5.714,4.903 -2.38,2.807 -0.818,1.473 -0.011,0.639 0.533,-0.556 2.422,0.359 3.302,-0.086 12.614,-1.651 8.111,-0.447 8.285,0.932 2.75,-0.332 1.405,-0.822"
     id="path402" />
</g>
<g
   id="g408"
   transform="translate(-113.66901,-15.733601)">
  <path
     fill="none"
     stroke="#000000"
     stroke-width="4"
     stroke-linecap="round"
     stroke-linejoin="round"
     d="m -285.286,204.548 -0.373,0.186 0.225,0.081 -2.189,0.264 0.459,-0.246 0.362,0.247 0.658,-2.246 2.236,-3.218 10.227,-11.112 2.295,-3.216 3.605,-4.204 5.597,-4.402 -0.193,-0.465 0.398,-0.693 1.779,-0.824"
     id="path406" />
</g>
<g
   id="g412"
   transform="translate(-113.66901,-15.733601)">
  <path
     fill="none"
     stroke="#000000"
     stroke-width="4"
     stroke-linecap="round"
     stroke-linejoin="round"
     d="m -232.037,162.93 -0.133,-0.335 0.501,-0.098 0.114,0.266 -0.06,0.868 0.774,2.814 0.476,3.121 0.173,5.757 0.637,2.456 -0.008,-0.449 1.03,-0.152 7.133,-5.467 3.146,-1.901 1.403,-0.358 0.326,0.169 0.147,1.036 1.391,2.928 1.607,6.859"
     id="path410" />
</g>
<g
   id="g416"
   transform="translate(-113.66901,-15.733601)">
  <path
     fill="none"
     stroke="#000000"
     stroke-width="4"
     stroke-linecap="round"
     stroke-linejoin="round"
     d="m -217.97,202.982 0.514,-1.842 -0.807,0.505 -1.451,-0.066 -2.661,1.359 -2.821,3.161 -0.967,3.625 0.306,3.552 0.522,1.45 1.384,1.603 1.404,-0.035 2.092,-1.608 2.009,-2.348 1.968,-3.831 0.9,-2.96 -0.018,-1.084 -2.804,15.637 -0.638,7.964"
     id="path414" />
</g>
<g
   id="g420"
   transform="translate(-113.66901,-15.733601)">
  <path
     fill="none"
     stroke="#000000"
     stroke-width="4"
     stroke-linecap="round"
     stroke-linejoin="round"
     d="m -169.258,198.462 1.708,-3.008 0.038,4.633 -1.985,9.548 -0.856,6.612"
     id="path418" />
</g>
<g
   id="g424"
   transform="translate(-113.66901,-15.733601)">
  <path
     fill="none"
     stroke="#000000"
     stroke-width="4"
     stroke-linecap="round"
     stroke-linejoin="round"
     d="m -103.741,192.244 0.719,-2.485 -1.902,-0.648 -1.213,0.034 -2.264,0.656 -1.733,1.05 -2.011,2.315 -1.356,2.62 -0.742,2.842 -0.063,1.947 1.146,3.531 1.39,1.811 1.199,0.876 1.672,0.497 2.077,-0.131 2.791,-1.739 3.4,-4.109 1.411,-3.005 0.294,-2.909 -0.5666,-4.478 0.0328,-2.458 -1.2692,13.627 -0.761,21.04 0.218,0.297"
     id="path422" />
</g>
<g
   id="g428"
   transform="translate(-113.66901,-15.733601)">
  <path
     fill="none"
     stroke="#000000"
     stroke-width="4"
     stroke-linecap="round"
     stroke-linejoin="round"
     d="m -65.7972,192.021 0.3006,-3.123 -0.0325,1.014 1.7562,5.74 1.6253,7.45 0.8509,6.573 -0.0641,4.561 -0.5671,3.937 -1.9336,6.029 0.2475,-0.546 0.1493,0.154 -0.1915,0.158 -0.5891,-1.615 -0.4749,-3.609 0.4371,-5.41 1.6279,-6.297 3.0206,-6.286 9.5296,-14.717 2.2661,-2.633 1.1966,-0.758 1.6306,1.271 0.8327,1.493 0.5208,1.374 0.0514,2.809 -0.5928,2.398 -0.9199,1.864 -4.6077,5.06 0.0057,0.457 0.5524,0.415"
     id="path426" />
</g>
<g
   id="g432"
   transform="translate(-113.66901,-15.733601)">
  <path
     fill="none"
     stroke="#000000"
     stroke-width="4"
     stroke-linecap="round"
     stroke-linejoin="round"
     d="m -31.8713,187.493 0.1372,4.051 -0.7002,3.714 -0.9753,2.853 -2.8076,5.757"
     id="path430" />
</g>
<g
   id="g436"
   transform="translate(-113.66901,-15.733601)">
  <path
     fill="none"
     stroke="#000000"
     stroke-width="4"
     stroke-linecap="round"
     stroke-linejoin="round"
     d="m -32.0737,198.588 1.9516,-3.127 3.0735,-3.006 1.5347,-0.496 4.3379,-0.502"
     id="path434" />
</g>
<g
   id="g440"
   transform="translate(-113.66901,-15.733601)">
  <path
     fill="none"
     stroke="#000000"
     stroke-width="4"
     stroke-linecap="round"
     stroke-linejoin="round"
     d="m -15.2786,192.405 0.281,1.593 -0.882,6.576 0.0932,1.624"
     id="path438" />
</g>
<g
   id="g444"
   transform="translate(-113.66901,-15.733601)">
  <path
     fill="none"
     stroke="#000000"
     stroke-width="4"
     stroke-linecap="round"
     stroke-linejoin="round"
     d="m -14.3713,173.358 -0.8324,-3.533 -0.1429,-2.867 -0.1449,0.418 0.4916,1.181 0.8728,0.833"
     id="path442" />
</g>
<g
   id="g448"
   transform="translate(-113.66901,-15.733601)">
  <path
     fill="none"
     stroke="#000000"
     stroke-width="4"
     stroke-linecap="round"
     stroke-linejoin="round"
     d="m 2.72449,194.192 0.02734,-0.403 -0.34192,-0.207 0.21564,0.419 -0.2229,13.629 0.18603,-0.804 1.67957,-2.829 2.69141,-3.504 4.68074,-4.37 3.9054,-2.013 -0.1121,-0.18 0.9152,1.499 0.6939,2.847 -0.1652,2.234 -0.775,2.968 1.7993,-1.887 7.7718,-5.058 3.3848,-1.681 1.5067,0.051 -0.2827,1.471 -0.1057,5.804 0.3289,4.129"
     id="path446" />
</g>
<g
   id="g452"
   transform="translate(-113.66901,-15.733601)">
  <path
     fill="none"
     stroke="#000000"
     stroke-width="4"
     stroke-linecap="round"
     stroke-linejoin="round"
     d="m 58.65,204.369 -1.1448,0.542 7e-4,0.578 -0.6913,-0.015 -4.041,-1.385 -1.8843,-1.6 -1.6887,-2.639 -1.1199,-3.41 -0.5349,-1.979 -0.213,-3.169 0.5165,-2.909 1.4561,-3.956 1.2234,-2.27 6.0455,-1.468 1.526,0.313 1.1454,1.024 0.5067,1.373 -0.0894,1.974 -0.4926,1.511 -0.8732,1.037 -2.4587,0.537 -6.2219,-0.191 -1.1577,0.212 -0.9928,-0.246 0.4402,-0.331 0.1269,0.35"
     id="path450" />
</g>
<g
   id="g456"
   transform="translate(-113.66901,-15.733601)">
  <path
     fill="none"
     stroke="#000000"
     stroke-width="4"
     stroke-linecap="round"
     stroke-linejoin="round"
     d="m 102.552,419.452 1.041,-1.405 0.014,-2.105 -1.08,-0.733 -1.957,0.219 -1.2079,0.559 -1.5147,1.172 -2.2536,2.837 -0.6667,3.233 0.5684,3.581 0.5812,1.775 1.1494,1.906 2.2525,0.854 2.0044,-0.868 1.967,-2.521 1.243,-3.245 0.898,-6.195 0.047,-3.353 -0.347,18.916 -0.807,6.7 -1.834,8.041"
     id="path454" />
</g>
<g
   id="g460"
   transform="translate(-113.66901,-15.733601)">
  <path
     fill="none"
     stroke="#000000"
     stroke-width="4"
     stroke-linecap="round"
     stroke-linejoin="round"
     d="m 83.0182,480.343 0.6202,0.339 2.1331,-0.608 0.0842,0.533 1.1434,-2.716 -0.2866,-0.652 -0.096,0.706 -0.5492,0.152 -2.2002,-0.436 -2.6951,0.603 -4.1866,2.133 -2.331,1.56 -2.1128,1.756 -2.0378,2.913 -0.7352,2.486 -0.2286,4.319 0.7502,2.499 2.1928,3.761 2.1596,2.353 2.5224,1.707 2.0866,0.999 2.836,0.676 6.5889,-0.162 11.1394,-2.964"
     id="path458" />
</g>
<g
   id="g464"
   transform="translate(-113.66901,-15.733601)">
  <path
     fill="none"
     stroke="#000000"
     stroke-width="4"
     stroke-linecap="round"
     stroke-linejoin="round"
     d="m 76.7635,493.36 -5.6328,-1.422 -0.394,0.438 1.0859,0.158 1.4258,-0.327 21.2023,0.858"
     id="path462" />
</g>
<g
   id="g468"
   transform="translate(-113.66901,-15.733601)">
  <path
     fill="none"
     stroke="#000000"
     stroke-width="4"
     stroke-linecap="round"
     stroke-linejoin="round"
     d="m 134.683,466.627 -1.527,-0.158 0.694,-0.055 0.243,0.273 0.605,-0.534 4.656,-1.153 6.046,-0.284 9.916,0.89 9.257,1.515 1.26,-0.077 2.614,1.454 0.304,0.537 -0.146,0.485 -0.529,-0.211 0.064,0.26 -9.145,5.021 -19.592,14.088 -5.812,5.63 -1.659,2.145 -0.409,0.999 0.101,0.247 0.128,-0.424 0.914,1.817 1.946,1.767 2.777,1.417 2.824,0.657 4.237,0.285 4.191,-0.315 14.396,-3 1.754,0.194 0.376,0.448 -0.294,1.221"
     id="path466" />
</g>
<g
   id="g472"
   transform="translate(-113.66901,-15.733601)">
  <path
     fill="none"
     stroke="#000000"
     stroke-width="4"
     stroke-linecap="round"
     stroke-linejoin="round"
     d="m 127.303,496.581 -3.208,-0.293 0.509,0.156 0.148,0.629 1.277,-1.027 2.073,-3.097 5.555,-6.153 8.429,-7.196 8.101,-6.106 3.326,-3.09 2.337,-2.686 -2.11,0.284"
     id="path470" />
</g>
<g
   id="g476"
   transform="translate(-113.66901,-15.733601)">
  <path
     fill="none"
     stroke="#000000"
     stroke-width="4"
     stroke-linecap="round"
     stroke-linejoin="round"
     d="m 187.041,446.034 0.505,-1.427 -0.048,-0.544 -0.193,1.18 -0.342,11.159 0.007,-0.41 0.613,-0.146 1.158,-1.002 3.898,-3.981 2.211,-1.402 0.821,0.009 0.648,0.971 2.039,1.603 0.632,1.327 0.423,2.676 -1.007,6.199 0.067,2.404"
     id="path474" />
</g>
<g
   id="g480"
   transform="translate(-113.66901,-15.733601)">
  <path
     fill="none"
     stroke="#000000"
     stroke-width="4"
     stroke-linecap="round"
     stroke-linejoin="round"
     d="m 192.354,493.779 0.344,-2.166 -1.787,-1.043 -2.516,0.237 -1.367,0.52 -2.872,1.478 -2.074,1.991 -0.874,1.418 -0.675,2.155 0.222,2.665 1.195,2.685 1.861,1.599 1.748,0.148 1.255,-0.745 1.617,-1.678 2.584,-3.84 0.919,-2.254 0.257,-3.851 -3.398,18.29 -0.232,4.64 0.293,2.08 0.493,0.539"
     id="path478" />
</g>
<g
   id="g484"
   transform="translate(-113.66901,-15.733601)">
  <path
     fill="none"
     stroke="#000000"
     stroke-width="4"
     stroke-linecap="round"
     stroke-linejoin="round"
     d="m 219.934,496.147 -0.753,0.636 -0.264,0.701 1.877,-0.312 11.997,-8.708 10.675,-6.713 4.325,-2.307 1.301,-1.121"
     id="path482" />
</g>
<g
   id="g488"
   transform="translate(-113.66901,-15.733601)">
  <path
     fill="none"
     stroke="#000000"
     stroke-width="4"
     stroke-linecap="round"
     stroke-linejoin="round"
     d="m 232.307,474.938 -1.311,-1.991 0.139,-0.189 3.454,7.734 3.551,6.007 6.108,8.623 1.734,1.989"
     id="path486" />
</g>
<g
   id="g492"
   transform="translate(-113.66901,-15.733601)">
  <path
     fill="none"
     stroke="#000000"
     stroke-width="4"
     stroke-linecap="round"
     stroke-linejoin="round"
     d="m 272.749,458.887 -0.846,-1.802 -0.214,0.171 0.335,0.879 0.413,-0.301 5.879,1.177 11.708,1.103 19.019,2.477 1.941,-0.003 3.645,0.519 1.414,0.683 -0.347,-0.077 -0.335,0.605 -3.724,3.2 -6.966,5.017 -25.794,21.417 1.013,-0.749 -0.624,0.584 3.934,0.765 7.401,0.554 20.211,-1.507 9.512,-0.049"
     id="path490" />
</g>
<g
   id="g496"
   transform="translate(-113.66901,-15.733601)">
  <path
     fill="none"
     stroke="#000000"
     stroke-width="4"
     stroke-linecap="round"
     stroke-linejoin="round"
     d="m 271.544,490.7 -0.538,0.449 0.613,0.498 2.729,-1.585 13.285,-9.457 18.413,-14.83 3.06,-2.263 3.541,-1.916 -1.453,-0.365 0.517,-0.806"
     id="path494" />
</g>
<g
   id="g500"
   transform="translate(-113.66901,-15.733601)">
  <path
     fill="none"
     stroke="#000000"
     stroke-width="4"
     stroke-linecap="round"
     stroke-linejoin="round"
     d="m 345.462,490.927 1.768,-3.129 0.149,-1.499 -0.256,-1.408 -0.433,-0.395 -2.5,-0.034 -3.482,1.388 -2.368,1.634 -1.075,1.007 -1.491,2.192 -0.73,2.238 -0.256,4.228 0.356,1.369 1.246,2.29 1.592,1.437 1.096,0.286 1.907,-0.373 1.45,-0.919 1.351,-1.194 2.4,-2.951 2.479,-4.874 1.023,-5.078 0.196,-5.297 -0.128,-0.405 -0.395,2.671 -6.463,21.497 -1.489,7.805 -0.431,4.555"
     id="path498" />
</g>
</svg>
