<?xml version="1.0" encoding="UTF-8" standalone="no"?>
<svg
   width="1057.972"
   height="458.9852"
   viewBox="-702 0 1057.972 458.9852"
   version="1.2"
   id="svg28"
   xmlns="http://www.w3.org/2000/svg"
   xmlns:svg="http://www.w3.org/2000/svg"><defs
   id="defs32" />
<title
   id="title2">CryptoResearch</title>
\n
<g
   id="g6"
   transform="translate(-125.014,-9.0137796)">
  <path
     fill="#000000"
     d="m -69.0211,135.532 v 0 l -0.9481,-3.032 0.8292,-3.059 -1.8737,-3.403 -1.9567,16.465 0.8224,1.971 0.1469,2.026 -0.0142,7.996 -0.8364,1.978 0.0149,2.048 0.6316,0.153 2.4484,-1.434 1.8468,-12.219 6.4719,0.109 6.3954,1.915 -0.0879,2.516 -1.739,6.876 -0.1153,3.058 1.0049,2.007 1.5073,0.339 1.2718,-1.341 -0.6513,-0.975 -0.0171,-2.088 2.8554,-15.945 v -12.986 l -2.0521,-8.431 -1.1457,0.655 -2.6201,10.737 0.9899,0.393 1.6954,-1.409 0.1306,11.044 -0.4563,1.347 -5.09,0.026 -7.1277,-1.761 -2.2193,-1.037 m 6.113,-100.766 v 0 l -4.3865,2.4053 -3.0669,3.0653 -2.9604,6.7991 -3.7761,14.9318 0.1165,7.0555 1.8212,7.1316 1.5232,2.1477 1.5049,-0.3387 0.8716,-0.9763 0.0181,-3.0883 -1.739,-6.876 -0.1166,-3.0554 1.7794,-7.78 0.4537,-0.4183 4.4681,7.8819 6.8127,6.8328 2.6624,1.6921 4.8326,4.8126 1.6923,2.6625 2.7836,2.973 1.3621,-1.6106 -0.0093,-3.079 -2.5666,-3.6638 -6.0948,-6.0947 -2.6624,-1.6922 -6.4129,-6.554 7.0502,-3.1669 1.1234,-1.1181 3.0318,-5.925 1.6647,-4.7653 -0.1192,-2.0522 -1.6163,-3.6665 -4.2676,-4.2773 -1.4852,-0.4824 m 0.5486,16.4415 v 0 l -2.0372,3.02 -1.5114,0.508 -3.0506,-0.1226 -5.3666,-2.8151 0.0583,-2.601 3.5739,-6.63 1.1048,-1.1048 4.6286,-2.5675 2.0553,0.8576 1.7844,1.8087 1.558,2.6964 m -53.8016,-7.0298 v 0 l -0.893,0.9924 -0.046,2.6644 2.205,1.7003 1.555,2.6121 -0.01,11.0803 -0.704,0.948 -0.199,2.5017 -4.86,2.0544 0.437,0.9799 2.233,1.681 -5.073,8.0833 -1.552,3.6671 0.015,2.0803 0.546,0.6666 25.7622,1.6545 1.2534,-1.1346 -1.7193,-1.7502 -5.43,-1.8266 -3.0875,0.0164 -1.9778,0.8369 -10.993,-9e-4 -1.326,-0.5052 2.536,-4.6639 5.143,-7.7067 9.6403,-0.0929 3.0071,0.9696 5.9928,-6e-4 1.3606,-0.4866 -2.9286,-2.4764 -15.8682,-3.0353 0.09,-1.5154 0.835,-1.974 -0.134,-12.0199 -3.557,-2.1948 8.1994,-0.2679 10.0027,1.9691 1.3043,-0.4773 -0.5981,-1.0032 0.4971,-0.7551 -12.138,-3.6161 -8.0574,-0.1162 m -26.244,1.2611 v 0 l -4.724,1.6924 -2.821,2.8412 -3.56,5.7003 2.831,11.9965 -0.119,9.0539 -1.945,5.5861 -1.894,2.3063 0.469,1.5288 1.973,1.8597 15.91,-1.9081 4.785,-2.6256 2.686,-3.7813 v -5.0528 l -2.827,-3.9442 -3.865,-3.0028 0.156,-1.3332 1.892,-3.7457 1.66,-4.8872 -0.001,-3.1191 -2.703,-5.7496 m -14.143,29.8404 v 0 l 0.949,-3.0322 -0.821,-1.974 -0.133,-3.0225 0.955,-3.0014 -2.838,-7.9417 0.002,-2.1189 2.573,-5.6183 2.068,-2.0726 3.725,-1.5975 3.725,1.5975 2.06,2.0593 1.577,2.6359 0.123,2.0476 -2.687,7.6769 -1.313,1.7997 -4.934,2.0541 -0.015,1.9157 9.12,2.7511 2.7,3.7541 -0.014,1.0841 -2.652,3.7529 -4.696,1.7039 -10.022,-0.1434 -0.314,-1.3698 0.694,-0.9463 m -2.206,61.2616 v 0 l -0.475,-1.323 1.579,-3.69 1.049,-1.274 -0.768,-2.001 0.804,-3.029 -1.359,-0.312 -0.694,0.581 -2.438,8.463 -3.655,7.575 -3.557,9.661 0.016,3.087 1.692,1.78 1.466,0.742 8.201,1.937 2.054,-0.116 8.655,-2.618 0.487,-0.535 -2.149,-1.572 -3.058,0.841 -7.99,10e-4 -5.752,-1.758 -0.588,-0.768 1.7,-6.049 m 48.3925,6.889 v 0 l -0.11,3.226 1.3487,1.271 0.5107,-0.327 1.2568,-3.082 0.9971,-4.577 1.7243,-10.318 -0.1341,-5.019 -0.8369,-1.978 0.142,-3.024 1.3465,-0.456 5.9928,-0.001 1.9777,0.837 2.0534,-0.01 0.3133,-1.367 -0.3642,-0.482 -2.9225,-1.855 -22.0541,-0.137 -2.343,0.471 0.315,2.371 11.4999,0.208 1.8965,5.388 0.1177,5.054 M -172.958,45.4768 v 0 l -0.885,0.9889 -0.022,1.0971 2.512,9.5478 3.068,5.0796 2.124,2.3504 -3.838,19.9591 0.133,3.0589 1.619,3.6663 0.722,0.6162 1.052,0.001 1.324,-1.3158 0.001,-3.0526 -0.69,-1.0142 2.717,-12.9835 1.1,-1.9494 10.306,-10.3364 3.566,-4.6641 -0.009,-2.0537 -1.37,-0.3141 -0.453,0.3393 -4.304,4.3122 -1.43,2.3804 -3.813,3.6323 -4.656,-2.5338 -2.104,-2.1044 -2.833,-6.3147 -1.673,-8.1458 -0.682,-0.5647 m -9.529,113.3689 v 0 l 1.141,-0.598 2.151,-2.744 4.579,-9.627 -0.004,-8.113 -4.577,-7.636 -3.1,-3.097 -3.493,-1.797 -7.152,-1.753 -1.014,0.69 -3.659,0.045 -1.86,-2.375 -1.536,-0.358 -0.553,3.895 -2.671,1.655 1.468,2.475 2.136,2.284 0.134,1.029 v 10.993 l -0.97,3.007 -0.032,12.041 -1.88,2.309 0.047,1.675 2.324,2.323 2.051,-0.009 0.531,-0.904 2.476,-1.133 11.025,-2.696 M -176,142.457 v 0 l -0.135,3.102 -1.551,3.667 -3.029,4.964 -2.077,2.07 -12.094,2.73 -1.957,-31.453 1.346,-0.521 10.023,0.133 3.664,2.566 5.661,7.759 m -30.693,-87.0194 v 0 l -2.936,25.8406 -2.208,13.2115 0.134,5.0196 1.325,1.3158 1.724,-0.5516 2.806,-18.9764 0.686,-1.0288 9.596,10.5245 3.429,4.8988 1.784,-1.7314 0.175,-0.7777 -2.384,-4.3832 -5.574,-5.6261 -3.514,-4.6902 8.609,-7.7849 7.374,-4.4264 3.318,-3.3069 0.466,-1.4816 -0.439,-1.3352 -1.057,-0.0068 -2.282,2.1267 -7.374,4.4264 -4.006,3.0038 -3.62,3.5698 -4.695,3.5156 -0.464,-1.2973 1.953,-17.9993 -0.481,-1.4845 -0.975,-0.8611 M -270.006,154.47 v 0 l 1.153,0.607 1.316,1.916 1.398,2.452 0.015,1.734 -7.313,2.685 -30.502,-4.973 5.042,-13.896 1.763,-9.431 -1.641,-5.813 -0.509,-0.453 -1.577,2.149 0.009,2.079 0.694,0.945 0.024,1.092 -1.724,8.312 -6.009,16.565 0.016,2.082 0.552,0.67 17.335,1.945 15.4,2.73 8.258,-1.819 2.33,-1.577 1.838,-2.917 0.123,-1.06 -0.123,-2.048 -1.579,-2.638 -3.811,-4.831 -2.662,-1.692 -5.62,-5.57 -2.498,-1.549 -2.544,-3.64 -0.133,-1.03 0.07,-2.554 7.354,-2.805 3.72,0.967 1.549,1.607 1.091,-1.211 -1.845,-2.543 -3.396,-1.822 -4.119,-0.003 -4.863,1.678 -3.078,2.208 -0.483,1.485 0.123,4.051 2.84,4.919 3.832,3.812 2.38,1.43 m 12.014,-90.4103 v 0 l -6.388,3.4071 -1.667,1.7619 -0.011,10.0805 2.391,3.4702 5.661,3.6907 5.099,5.1012 2.573,4.6296 v 4.1083 l -1.656,2.7145 -5.712,1.7173 -8.053,-0.1203 -6.934,-2.7081 -2.372,1.7118 0.919,2.1866 7.385,2.812 10.055,0.118 5.931,-1.795 1.883,-1.028 2.554,-4.6089 v -6.1082 l -2.575,-4.6311 -2.789,-3.8164 -2.308,-2.2833 -6.38,-4.4302 -1.662,-1.7586 -0.133,-1.0298 0.064,-6.5431 7.367,-3.8156 2.05,-0.1217 1.978,0.8355 2.052,-7e-4 1.316,-1.3234 v -1.055 l -1.341,-1.2718 -1.001,0.5985 -2.004,-0.7841 m -99.264,1.2618 v 0 l -9.7,2.992 -17.808,3.5246 -0.565,0.6829 0.364,1.531 2.987,1.8379 10.928,-2.7146 2.405,0.3414 0.143,13.0212 -2.971,16.0136 0.117,2.0536 1.639,4.6855 0.702,0.602 1.428,0.133 3.085,-24.4877 -10e-4,-8.9898 -0.835,-1.9754 -0.035,-1.6821 4.611,-2.2015 4.714,-1.5119 2.086,0.0156 0.947,0.6944 1.054,-6e-4 1.272,-1.3416 -0.873,-1.6337 -2.372,-1.7284 m 20.3,16.4398 v 0 l 0.281,-3.1363 1.549,-2.523 4.18,9.5202 0.097,1.5025 -8.492,1.8925 -0.325,-1.3888 m 3.892,-21.9599 v 0 l -4.114,8.8068 -2.566,9.8544 -8.069,16.0391 -3.138,4.288 -0.132,2.0224 0.455,1.346 2.052,0.008 0.759,-0.66 7.511,-12.4587 4.669,-1.5642 1.071,0.6621 4.972,-1.8151 2.448,0.0288 4.072,15.9031 1.504,-0.097 1.321,-1.323 0.018,-6.0875 -1.737,-5.8756 -0.052,-1.6094 3.741,-2.4834 -1.688,-2.3678 -2.275,-0.2098 -1.34,-1.9485 -3.843,-9.6859 -3.704,-11.206 m -11.449,159.9699 v 0 l -7.231,-6.736 4.002,-4.109 1.025,-1.982 3.55,-10.634 -0.006,-6.115 -2.573,-4.63 -2.064,-2.065 -3.666,-1.617 -4.113,0.004 -3.448,2.364 -2.283,2.308 -2.001,3.003 -1.847,3.599 -1.736,6.026 -0.116,8.058 0.97,3.007 10e-4,8.99 -2.828,11.036 1.316,1.322 2.05,-0.001 0.776,-0.686 4.429,-16.922 5.449,2.466 3.012,2.007 4.095,4.095 3.43,5.38 2.785,2.809 0.974,0.852 2.054,-0.009 0.455,-1.346 -0.132,-2.022 -2.14,-2.29 -2.422,-4.368 M -438.958,60.4767 v 0 l -0.894,0.9922 -0.134,6.025 1.672,4.7318 1.292,2.2471 7.864,7.9997 -0.337,1.5061 -0.737,0.7773 -1.884,6.9674 -1.751,11.7127 1.65,6.823 0.72,0.538 1.695,-1.505 2.484,-18.635 1.381,-5.6665 3.47,-1.9478 -1.356,-1.5705 2.534,-4.6559 6.574,-6.6263 1.577,-2.6359 -0.02,-2.0817 -1.342,-0.4409 -1.482,0.4662 -2.71,3.6679 -2.78,1.8114 -2.817,2.8389 -2.569,4.0446 -0.634,0.0037 -6.74,-6.6184 -1.635,-4.6854 0.025,-2.0879 1.369,-0.3152 0.979,0.6431 0.336,-1.3278 -1.652,-1.7574 -2.635,-1.5715 m -5.252,80.1423 v 0 l 1.469,4.963 1.943,2.941 4.151,3.679 -0.709,1.604 0.704,3.086 -4.847,14.947 0.124,4.048 1.733,2.338 1.061,0.069 4.852,-18.419 2.745,-6.513 1.449,-1.551 0.852,0.047 -0.672,-3.052 2.916,-3.607 9.822,-7.029 -2.34,-1.693 h -1.112 l -4.628,2.567 -4.288,3.266 -1.813,1.833 -1.43,2.38 -2.785,2.609 -1.634,-0.873 -2.113,-2.698 -1.619,-3.67 v -2.117 l 2.573,-5.618 1.135,-1.295 -0.314,-1.37 -2.054,-0.01 -1.616,0.932 -2.058,3.473 m 103.082,4.948 v 0 l -2.366,5.43 -5.229,9.255 -4.002,6.004 -2.136,2.284 0.321,2.367 1.663,0.055 6.156,-7.712 7.22,-13.217 4.243,-11.188 0.748,-0.575 0.75,0.579 2.618,7.656 0.096,5.5 -8.809,2.866 -0.016,0.685 0.581,0.714 8.248,1.865 -0.116,3.457 -0.837,1.977 0.142,7.025 1.861,0.399 3.056,-12.736 0.723,-1.034 2.703,0.812 1.341,-0.439 0.055,-1.663 -2.341,-1.728 -1.764,-0.27 -0.695,-1.007 -2.718,-12.958 -4.09,-8.088 -1.313,-1.316 -1.921,0.505 m -116.199,95.498 v 0 l -0.84,-2.007 v -14.993 l 0.483,-1.485 1.277,-1.267 4.731,-1.737 7.048,0.124 4.608,2.552 1.694,2.754 -1.606,4.781 -1.005,1.007 -7.463,2.514 -1.067,1.064 -1.58,3.319 2.311,1.733 3.048,0.124 4.664,-2.068 1.53,-1.679 2.501,1.478 0.662,0.759 0.135,5.018 -1.701,3.696 -2.06,2.059 -3.666,1.617 -9.12,0.002 -5.35,-1.902 0.896,-2.47 m 288.871,-84.917 v 0 l 0.159,-12.076 0.953,-3.003 -0.439,-1.341 -1.753,-0.021 -0.627,0.88 -2.729,18.049 -4.265,13.422 1.712,2.408 2.968,-0.368 -0.698,-3.09 m -204.371,-14.731 v 0 l -2.558,22.568 -1.707,1.749 -0.025,0.813 3.021,0.147 1.714,-0.717 2.924,-29.488 13.546,-2.586 -2.587,-1.062 -27.601,-2.118 -2.626,0.088 -1.688,2.368 0.575,0.758 4.709,1.605 1.079,-0.673 11.395,1.935 -0.736,1.405 0.651,0.974 m 11.162,67.129 v 0 l 0.12,-10.162 1.552,-3.667 3.148,-5.082 2.612,-1.554 3.08,0.01 1.632,0.94 2.702,5.351 -1.605,7.074 -1.743,4.423 -1.49,2.536 -2.496,2.379 -3.086,0.016 -4.381,-1.856 m 58.099,-143.5561 v 0 l -7.381,20.1066 -2.645,8.8779 -0.117,4.0571 1.066,2.6474 6.365,3.7181 6.048,0.124 10.455,-3.0139 0.034,-1.4736 -0.455,-1.3413 -4.022,-0.1432 -5.946,1.8535 -5.114,-0.0053 -4.338,-2.7182 0.023,-2.7055 1.602,-5.9755 7.13,-21.9018 -0.883,-2.0638 m -85.412,128.6416 v 0 l -3.072,-1.124 h -18.993 l -1.485,0.483 -1.303,1.312 -1.537,2.665 0.788,0.536 1.898,5.426 0.002,1.127 -2.467,13.532 -4.265,11.345 0.015,4.085 1.325,1.325 25.026,0.148 2.343,-0.471 0.14,-2.429 -24.916,-3.194 4.938,-12.805 2.558,0.767 20.348,-2.85 1.993,-0.896 -2.35,-1.983 -2.054,-0.137 -11.994,0.013 -8.037,1.82 -0.453,-1.338 -0.001,-3.993 0.955,-3 -1.733,-6.763 24.098,-2.156 M -161.522,66.2095 v 0 l 0.027,0.5931 M -477.999,227.457 v 0 l 0.131,2.097 2.65,8.706 0.694,0.581 1.504,-0.338 0.871,-0.977 0.135,-4.02 -1.854,-5.945 -0.114,-3.106 2.78,-2.957 -2.866,-2.559 -1.049,-2.297 -2.75,-14.511 -2.083,-5.048 -0.49,-0.057 -1.809,0.753 -6.439,17.443 -1.148,2.088 -2.06,1.557 0.045,1.661 0.674,1 -6.684,12.916 -0.226,1.641 -1.942,1.57 2.529,2.144 1.788,-1.615 8.569,-15.076 8.671,0.049 0.456,1.347 m 10.218,-157.1956 v 0 l -3.7,2.6899 -3.753,4.7802 -2.274,6.3314 -2.461,11.3968 0.118,13.0543 1.64,4.685 0.731,0.551 1.378,-0.768 2.229,-21.5388 1.597,3.6855 9.582,9.6403 4.403,7.35 2.754,1.696 2.08,-0.011 1.323,-1.323 0.047,-1.661 -4.185,-3.683 -2.422,-4.3677 -7.98,-8.0319 8.805,-2.4332 3.136,-2.1263 1.616,-3.6663 -0.004,-9.1127 -2.573,-4.6295 -1.064,-1.066 -3.666,-1.6161 m 40.11,32.1088 v 0 l -2.196,-0.0934 -1.315,1.3233 0.34,1.508 1.251,1.245 15.748,2.633 9.614,-2.506 3.182,-2.176 2.573,-5.6184 v -5.1172 l -1.619,-3.6694 -1.962,-2.9622 -3.785,-3.8252 -0.574,-1.1182 -5.778,-5.3403 -0.105,-2.48 6.262,-1.8223 1.652,2.306 0.885,-1.0022 v -1.0551 l -2.316,-2.3239 h -9.052 l -1.325,1.3251 -0.134,5.0228 0.483,1.4853 9.787,9.828 3.577,5.636 v 5.1084 l -1.577,2.6357 -1.039,1.0418 -5.752,1.7543 h -7.987 m -0.226,45.783 v 0 l 1.69,3.697 10.314,10.344 1.577,2.636 -0.011,3.08 -2.325,2.325 -9.02,0.135 -8.947,-2.852 -3.055,-0.118 -1.347,0.456 -0.007,2.051 0.629,0.726 8.127,2.824 10.53,1.793 1.336,-0.149 5.405,-2.424 1.073,-1.068 1.735,-4.731 -0.119,-2.053 -1.617,-3.666 -3.225,-4.246 -3.214,-2.244 -4.095,-4.095 -1.537,-2.66 0.598,-0.776 4.404,-1.806 9.628,-2.021 1.053,-1.422 -1.335,-1.356 -4.026,-0.148 -2.061,0.131 -4.747,1.505 -5.881,2.08 -1.667,2.727 m -63.267,3.059 v 0 l -1.592,2.686 -2.095,2.096 -5.284,3.241 -6.325,2.335 -1.551,1.593 0.121,1.074 11.665,9.76 6.957,3.959 5.706,2.575 0.358,-0.3 0.061,-2.655 -5.713,-4.154 -4.369,-2.424 -6.681,-5.798 2.673,-2.774 5.382,-3.432 2.832,-2.813 2.84,-4.918 v -4.108 l -1.548,-2.606 -4.82,-1.826 -5.053,0.12 -7.625,3.578 -4.104,4.104 -3.082,6.072 -2.487,11.608 2.601,8.718 2.73,2.637 2.022,0.132 1.339,-0.454 -0.333,-1.51 -1.734,-1.773 -1.636,-4.685 -0.131,-2.061 0.133,-7.059 3.58,-7.627 3.102,-4.102 7.626,-3.578 2.116,0.001 3.328,1.823 m -5.901,67.505 v 0 l 0.162,4.063 0.653,0.98 -0.276,0.332 -6.046,-0.001 -0.151,-0.636 4.033,-8.835 m 10.172,-124.344 v 0 l -2.038,0.778 -0.359,-2.3585 2.614,-6.6628 4.269,-5.2811 1.486,-0.4824 4.05,0.1225 2.728,1.6717 1.704,4.6967 -0.134,5.02 -0.94,1.6314 -5.353,2.7082 -1.065,0.1192 -2.048,-0.1227 -2.892,-1.7243 M -447.457,197 v 0 l -2.093,0.135 -2.64,1.58 -2.661,2.759 -10e-4,3.052 0.837,1.977 v 20.994 l -0.483,1.485 -1.353,1.492 -0.011,2.08 1.854,2.923 1.554,0.494 2.163,-1.682 1.794,0.696 14.051,-0.123 4.63,-2.573 2.104,-2.104 1.919,-3.737 1.66,-4.888 -0.002,-2.119 -1.949,-4.583 -3.676,-2.547 1.622,-2.757 v -6.108 l -1.577,-2.636 -2.115,-2.108 -6.609,-2.57 -5.058,-0.117 -1.976,0.837 m -65.276,2.411 v 0 l -11.415,3.407 -2.309,1.308 -2.378,2.496 v 8.052 l 2.566,3.664 6.574,6.626 2.573,4.63 0.004,3.113 -1.57,3.62 -4.735,1.689 -6.061,0.131 -2.061,-0.131 -4.878,-1.736 -4.087,0.017 -1.273,1.351 1.621,1.792 4.664,1.961 5.952,1.616 2.055,0.116 8.199,-1.901 3.493,-1.797 1.047,-1.041 1.636,-4.685 -0.006,-6.115 -2.573,-4.63 -6.574,-6.626 -2.566,-3.664 -0.134,-3.023 0.801,-1.789 3.852,-1.958 13.302,-2.833 -0.122,-1.45 -0.623,-0.72 -3.664,-1.613 m 6.673,-127.8632 v 0 l -5.162,2.2037 -5.262,3.2346 -4,3 -4.098,4.1009 -3.038,5.9583 -2.539,6.6672 -0.002,2.1189 1.639,4.6886 1.943,2.941 2.095,2.095 5.218,3.216 3.138,1.522 9.272,1.847 7.088,-0.019 1.326,-1.325 0.131,-2.427 -17.992,-2.696 -6.157,-4.095 -2.685,-3.782 -0.011,-7.0801 3.574,-6.63 6.098,-6.1008 6.012,-4.0069 5.396,-2.3938 2.623,-1.7892 -0.313,-1.3677 m 379.322,84.4165 v 0 l 0.164,-13.067 1.853,-10.944 -0.364,-1.543 -1.021,-0.891 -1.463,1.884 -3.004,26.494 0.457,2.335 2.052,-0.005 -0.347,-1.366 M -518.457,172 v 0 l -9.097,-0.138 -4.603,-2.547 -2.711,-7.754 0.017,-3.087 2.566,-3.664 3.101,-3.098 7.625,-3.578 5.692,-0.237 1.538,-2.1 -1.145,-1.648 -8.08,-0.011 -5.673,2.615 -2.963,1.962 -4.095,4.095 -2.566,3.664 -0.018,7.087 1.651,5.702 1.933,2.927 1.101,1.099 4.63,2.573 14.047,0.124 8.787,-1.784 0.411,-0.448 -3.133,-1.619 m 271.614,-95.6875 v 0 l -0.125,1.5155 6.391,1.9063 8.088,-0.0179 1.369,-1.3908 -10.332,-2.3315 -4.059,-0.1135 m -3.987,67.1444 v 0 l -0.361,1.359 1.713,1.343 19.611,1.99 2.412,-1.724 0.096,-0.672 -19.495,-2.442 M 37.0343,119.486 v 0 l -3.5403,5.549 -7.9781,16.896 -1.7516,2.761 -4.5519,-23.959 -0.6871,-0.581 -1.5903,-0.062 -3.5894,11.08 -7.05263,15.007 -2.11493,2.35 1.53735,2.181 1.42859,-0.789 1.32996,-1.947 8.73396,-15.658 3.53,18.899 2.5735,1.547 4.9749,-7.574 5.2151,-11.188 3.2112,-5.7 0.4855,0.417 0.9741,7.242 1.9305,19.026 1.8775,-0.48 0.871,-0.977 0.1335,-1.03 -0.1143,-15.058 -1.6683,-9.441 -2.2496,-8.953 m -77.9537,37.499 v 0 l 0.1324,-4.105 3.0587,-14.185 1.6808,-11.69 -0.3408,-2.404 -1.6203,-0.058 -0.834,1.73 -2.6572,16.304 -2.2861,8.304 0.025,9.089 1.37,0.314 0.9753,-0.861 m 36.48269,-17.444 v 0 l 2.9846807,-14.04 -0.4675907,-1.477 -1.00214,-0.819 -1.56945,0.86 -3.66901,14.39 -2.75745,6.515 -1.48213,2.506 -4.0405,4.03 -3.1145,0.396 -1.7291,-2.344 -0.1238,-1.06 -3e-4,-13.988 1.7362,-4.731 1.1011,-1.249 0.1323,-2.022 -0.4811,-1.484 -1.0025,-0.819 -0.4753,0.3 -1.2742,1.274 -3.7366,10.731 0.1184,11.055 1.664,4.885 2.0623,3.447 3.6954,-0.031 4.9183,-2.84 3.81585,-3.838 4.57654,-8.634"
     id="path4" />
</g>
<g
   id="g10"
   transform="translate(-125.014,-9.0137796)">
  <path
     fill="#0062cc"
     d="m -255.958,281.452 v 0 l -1.539,1.344 -0.693,-0.496 -2.812,-23.236 -2.521,0.085 -0.491,0.38 -6.699,13.657 -13.574,20.628 -3.425,6.37 -1.335,1.868 -2.874,1.894 0.059,2.608 1.729,2.342 1.659,-0.047 0.757,-0.659 8.43,-14.375 15.476,-23.497 2.483,21.813 0.803,0.71 2.025,-0.842 4.785,-5.809 6.256,-11.195 1.313,-1.543 0.016,3.11 -3.74,20.876 -0.129,6.062 0.147,2.026 1.326,1.325 2.048,-10e-4 0.505,-0.387 4.959,-34.97 -0.143,-12.021 -2.986,-0.364 -1.327,1.917 m 6.753,-251.78536 v 0 l -16.82,2.03386 -24.835,1.8355 -99.438,4.8184 -23.837,2.3709 -34.235,2.4825 -15.929,1.9448 -41.596,9.0598 -3.779,1.9284 -4.624,3.5711 -5.257,3.2298 -8.159,3.1595 -5.958,3.0375 -8.534,8.9923 -0.576,-0.412 -1.386,1.4261 -0.237,-2.7793 2.624,-1.6543 -2.201,-0.2691 -8.122,3.2253 -12.525,2.844 -2.182,3.6906 -2.428,6.4487 -4.574,8.5485 -2.192,6.3132 -3.301,17.9183 -5.725,22.285 -2.443,23.218 v 25.986 l 2.917,25.877 0.663,2.696 2.635,5.687 4.407,16.515 8.037,22.957 3.817,8.741 6.223,12.22 2.002,3.004 4.57,4.62 1.692,2.662 3.308,3.338 1.692,2.662 6.833,6.813 11.38,7.43 5.62,5.57 7.374,4.426 4.63,3.576 8.959,4.96 13.413,6.466 11.653,7.618 19.389,6.344 12.839,5.833 14.163,4.158 4.997,2.087 6.544,3.571 3.295,1.183 6.72,1.889 11.935,2.414 18.772,6.455 25.549,4.998 37.458,3.737 15.993,-0.014 23.179,-3.051 35.651,-2.222 35.401,-3.435 18.02,-4.666 16.806,-3.317 20.161,-5.678 26.588,-6.253 14.9693,-4 19.4639,-6.718 24.1968,-7.136 35.3253,-13.192 16.7103,-7.812 12.2203,-7.219 19.2872,-14.264 13.8127,-13.833 7.43,-11.38 1.5735,-1.626 9.2202,-18.217 1.998,-5.033 1.8881,-6.717 4.6045,-25.717 -0.1298,-8.062 -2.1261,-11.377 -2.6563,-23.446 -8.5795,-33.547 -3.0032,-7.035 -6.2194,-10.223 -3.57,-3.62 -1.692,-2.662 L 38.9844,99.4995 37.8663,98.9262 32.715,93.1901 31.0228,90.5277 24.1902,84.7151 7.80963,73.2849 4.19006,69.7151 -3.47229,64.023 -6.2851,61.1902 l -8.43,-13.3804 -3.0001,-4 -3.0947,-3.0947 -4.0066,-3.0038 -12.998,-7.9981 -7.7819,-3.9301 -14.0686,-3.187 -22.0598,-4.0094 -13.2689,-1.8765 -43.4753,-2.5657 -56.038,-4.1307 -8.99,0.0014 -3.007,0.9696 -8.989,0.0014 -16.014,-1.97242 m -0.966,289.98922 v 0 l -0.385,-1.555 4.364,-7.483 7.83,-15.767 2.531,-7.638 0.117,-3.056 -0.455,-1.339 -1.535,0.358 -1.313,2.284 -4.172,11.16 -5.222,10.219 -6.149,10.26 -0.123,3.05 0.483,1.486 3.317,3.305 3.614,1.848 10.828,2.643 1.217,1.073 h 2.052 l 1.323,-1.323 0.042,-1.669 -1.971,-1.352 -14.135,-4.252 m 33.695,-34.248 v 0 l 0.023,-0.978 -0.976,-0.871 -1.718,0.541 -2.199,22.742 -1.596,8.066 0.135,6.019 2.351,2.273 10.785,-10.609 3.003,-4.006 3.778,-7.063 3.647,21.234 1.975,4.803 2.782,1.664 3.815,-4.632 8.43,-12.38 8.095,-8.095 6.031,-4.19 -0.339,-1.506 -1.002,-1.018 -0.973,-0.843 h -1.055 l -8.662,6.557 -7.095,8.095 -7.432,10.892 -0.498,-0.443 -0.733,-3.693 -2.24,-25.527 -1.248,-2.023 -1.697,0.086 -4.154,5.712 -3.466,7.413 -1.962,2.963 -3,4 -4.79,4.61 -0.478,-1.304 0.113,-2.058 2.856,-13.945 -10e-4,-9.99 -0.788,-2.007 m -4.669,95.614 v 0 l -33.022,3.025 -32.763,1.827 -24.25,3.024 -10.993,0.013 -36.965,-3.813 -10.807,-1.78 -14.017,-3.023 -6.646,-1.876 -9.861,-3.873 -22.645,-5.414 -4.787,-1.973 -8.573,-4.581 -15.624,-4.456 -14.347,-6.535 -16.149,-5.148 -4.265,-2.24 -6.628,-4.574 -20.372,-10.426 -14.004,-9.002 -5.62,-5.57 -12.38,-8.43 -5.095,-5.095 -1.692,-2.662 -3.308,-3.338 -1.43,-2.38 -5.574,-5.626 -4.024,-6.965 -7.013,-15.993 -5.177,-14.261 -2.686,-8.214 -4.617,-17.148 -1.422,-2.354 -1.77,-5.838 -2.988,-30.918 v -13.986 l 1.979,-23.96 2.507,-11.516 3.672,-13.058 2.683,-16.8114 1.823,-5.395 8.183,-17.2099 0.169,-1.4887 8.407,-1.9341 1.364,0.3608 -2.611,2.7902 -2.38,1.4319 -2.707,3.1371 0.057,1.6729 0.899,0.5228 1.686,2.6507 1.054,-1.1997 -0.642,-0.9733 10e-4,-1.0548 5.652,-5.7574 11.374,-6.4268 7.632,-7.5766 5.958,-3.0375 8.159,-3.1595 12.131,-8.0273 4.511,-1.7554 39.211,-8.1578 14.351,-1.7889 34.216,-2.487 23.837,-2.3709 99.493,-4.889 16.82,-2.0085 1.971,0.8222 3.019,0.134 21.014,-2.9723 h 5.986 l 16.014,1.9724 8.989,-0.0014 3.007,-0.9696 8.99,-0.0014 56.038,4.1307 32.933,1.7117 17.9583,1.7735 27.8767,4.9664 13.1417,3.1838 4.7868,1.9735 15.956,9.9579 2.9499,2.3625 5.1513,5.736 8.43027,13.3804 4.81256,4.8327 2.66253,1.6922 8.61957,7.5698 12.38057,8.4302 6.6198,5.57 2.4976,1.5493 1.6693,2.6378 3.3079,3.3376 1.4301,2.3802 2.0951,2.095 2.4977,1.549 1.6694,2.638 5.3115,5.344 4.2173,7.219 3.6978,7.52 8.8831,34.06 2.6562,23.446 2.1264,11.377 0.1306,3.062 -0.1301,7.062 -4.6802,24.16 -2.8651,8.506 -6.0382,12.958 -5.0016,8.004 -1.5698,1.62 -8.4301,12.38 -2.0948,2.095 -2.3805,1.43 -6.6195,6.57 -19.00492,14.002 -12.25391,7.229 -12.67817,5.803 -7.0269,3.007 -30.259,11.175 -21.2337,6.134 -26.4655,8.729 -18.981,5.02 -22.255,5.115 -14.102,4.007 -20.661,4.293 -17.709,5.068 m 42.96,-59.932 v 0 l -1.383,2.509 -0.121,3.052 0.456,1.347 7.024,0.142 1.978,-0.837 5.019,-0.134 7.945,1.855 4.09,-0.027 0.314,-1.37 -1.672,-1.77 -6.61,-2.57 -9.057,-0.117 -3.003,0.953 -1.343,-0.441 -0.019,-2.081 7.536,-13.229 19.833,3.769 5.052,-0.12 5.331,-2.687 -2.362,-2.001 -1.002,0.674 -3.089,0.019 -15.318,-2.413 -6.036,-1.516 3.121,-6.485 1.651,-4.888 1.119,-1.089 1.553,0.363 1.976,-0.828 10.99,-10e-4 9.974,2.814 1.332,-1.328 -0.88,-1.643 -3.661,-2.174 -4.764,-1.669 h -13.988 l -3.695,1.704 -0.609,0.784 0.598,1.004 -1.955,0.606 -1.125,1.696 -2.471,6.416 M -85.5219,19.2096 v 0 l 0.0266,0.593 m 4.9546,0.3802 v 0 l 1.3455,0.3141 -1.3292,0.3325 m 4.9795,0.3466 v 0 l 2.3469,0.3243 -2.3253,0.3367 m 4.9784,0.339 v 0 l 2.3469,0.3243 -2.3253,0.3367 m 4.9781,0.3388 v 0 l 2.0359,-0.1578 1.3115,0.482 -2.2985,0.4829 -1.3095,-0.4871 m 7.2652,0.687 v 0 l 1.3453,0.3141 -1.3292,0.3325 M -535.522,59.2095 v 0 l 0.027,0.5931 m -2.027,0.4069 v 0 l 0.027,0.5931 m -3.046,0.3802 v 0 l 1.346,0.3141 -1.329,0.3325"
     id="path8" />
</g>
<g
   id="g14"
   transform="translate(-125.014,-9.0137796)">
  <path
     fill="#000000"
     d="m 229.04,48.4768 v 0 l -4.325,4.333 -2.002,3.0046 -3.921,7.738 -1.778,5.954 0.12,11.0522 2.573,5.6182 2.579,2.5317 1.536,-2.1814 -1.072,-1.302 -1.61,-3.6657 0.33,-1.3937 1.085,-0.0218 8.629,4.5678 4.626,4.5731 2.636,1.5772 2.101,-0.009 -1.259,-1.5578 0.534,-0.8256 -1.537,-2.6596 -4.095,-4.0949 -2.895,-2.0039 7.867,-4.4014 2.689,-3.7834 0.011,-12.0805 -2.573,-4.6296 -5.099,-5.1011 -2.636,-1.5772 m -7.104,95.699 v 0 l 2.385,-0.308 -0.331,-1.509 -1.437,-2.069 -2.052,-12.458 1.746,-10.774 0.324,-0.862 4.361,-2.719 h 6.108 l 2.636,1.577 3.312,3.303 0.36,2.536 -2.678,3.734 -5.742,2.917 -7.659,2.545 -0.58,0.753 3.607,3.782 8.38,5.43 5.62,5.57 3.694,2.514 0.294,-0.295 -0.597,-1.004 0.642,-0.973 -10e-4,-1.054 -2.127,-2.283 -1.43,-2.38 -3.095,-3.095 -6.054,-4.226 1.89,-1.959 4.158,-2.242 2.839,-2.816 1.839,-2.918 0.124,-1.06 -0.124,-5.048 -1.577,-2.636 -4.057,-3.057 -3.669,-1.619 -7.113,0.004 -4.63,2.573 -2.128,2.137 -0.664,1.301 -1.894,9.289 -0.001,3.125 1.883,11.354 1.701,3.269 m 0.809,33.792 v 0 l -1.772,1.797 -1.616,3.666 -0.134,6.059 0.138,3.054 1.577,2.636 1.821,1.841 4.262,1.349 11.64,2.489 7.277,-0.18 -2.49,-1.937 -3.333,-1.264 -16.136,-4.258 -0.741,-1.733 0.123,-7.051 2.552,-4.608 7.124,-5.124 3.926,-2.032 3.733,-1.511 0.37,1.356 -0.642,0.977 0.802,-0.029 2.839,-3.947 -0.861,-2.031 -2.54,-0.363 -9.406,4.36 -6.225,4.221 M 171,177.457 v 0 l -0.016,5.039 -0.456,1.347 -5.086,0.022 -3.194,-1.582 4.465,-8.469 2.603,-3.863 1.549,2.491 m 8.293,-122.9873 v 0 l -4.84,12.7996 -3.031,5.9313 -2.002,3.0046 -7.57,7.6196 -1.692,2.6624 -1.542,1.4007 -1.747,-2.6117 -0.722,-3.2273 -2.806,-26.3093 -1.346,-0.5857 -2.067,3.4396 -3.463,11.5848 -3.828,6.8349 -5.368,11.4431 0.023,3.0866 1.343,0.4406 1.791,-0.7923 7.203,-15.141 2.457,-3.802 3.841,18.1246 1.684,2.4931 3.05,5e-4 3.945,-2.827 2.244,-3.2146 7.57,-7.6196 3.221,-5.2256 5.203,-11.1402 0.834,-0.6653 14.438,1.937 -0.112,8.4654 -4.84,17.9393 0.288,1.3039 1.55,2.0928 2.658,-0.0559 0.34,-0.9869 -1.837,-2.3052 0.105,-1.1112 4.73,-15.877 -0.715,-2.0353 -0.015,-3.0864 1.867,-4.3778 7.561,0.0706 4.863,1.6777 3.085,2.0549 2.312,-2.3356 -0.637,-0.8143 -3.668,-1.8699 -14.204,-2.6444 0.485,-0.7046 -1.305,-1.3605 -2.948,1.847 -13.072,-0.1399 -0.441,-1.343 0.821,-1.974 -0.01,-2.0535 -1.346,-0.4555 m -9.263,111.7162 v 0 l -1.709,-2.611 -1.777,1.66 -2.541,7.66 -6.701,13.525 -1.315,2.316 -3.111,1.67 0.069,2.573 0.694,0.945 0.014,1.084 -4.718,8.891 0.011,2.08 1.351,1.273 1.793,-1.622 4.211,-9.178 2.353,-3.891 9.095,-0.066 5.797,17.176 0.726,0.623 1.367,-0.313 0.024,-6.087 -2.728,-5.887 -0.123,-4.051 0.85,-3.066 m -28.882,-70.976 v 0 l -0.131,4.065 -0.694,0.944 -0.026,1.093 1.97,17.939 0.873,1.966 1.499,1.383 1.024,0.119 1.304,-0.282 2.506,-1.522 9.403,-15.35 3.004,-4.006 1.101,-1.099 4.661,-2.704 0.491,-1.507 -0.44,-1.343 -3.024,-0.142 -1.486,0.483 -6.303,6.312 -8.426,14.374 -2.54,2.515 -2.949,-29.81 -1.26,-0.857 -1.066,0.119 -8.761,12.663 -11.569,19.631 0.328,1.397 2.052,0.008 0.763,-0.667 13.424,-22.367 3.286,-4.291 0.844,-0.045 m -4.05,66.037 v 0 l -2.331,-2.355 -7.898,1.708 -7.086,-0.032 0.509,-2.342 v -7.993 l -0.837,-1.977 -0.034,-2.681 5.009,-2.365 9.315,-2.35 6.058,-0.115 1.978,0.837 2.05,-0.015 -0.023,-0.811 -2.368,-2.924 -9.626,-0.088 -7.045,1.72 -7.431,2.759 -4.217,2.22 -2.707,2.157 -0.024,1.172 3.232,1.727 1.969,-2.473 1.578,2.151 0.124,1.059 -0.134,8.02 -0.879,1.469 -4.441,1.992 -0.327,0.513 0.551,0.73 4.182,1.77 0.048,0.435 -2.854,16.004 0.365,2.542 0.977,0.87 h 2.052 l 2.185,-2.143 -1.693,-2.165 -0.004,-2.036 2.018,-13.438 15.427,-2.907 1.041,0.637 m 50.614,-47.315 v 0 l 1.932,6.472 1.797,-0.428 0.142,-4.024 -0.851,-3.067 3.514,-15.678 2.198,-4.644 1.717,0.017 5.975,1.603 5.903,2.13 2.087,-0.022 0.362,-1.986 -5.545,-3.096 -12.847,-2.621 -12.935,1.727 -3.092,-0.702 -0.322,2.361 1.325,1.325 6.022,0.134 3.007,-0.97 2.993,0.001 1.337,0.514 -3.143,11.885 -1.559,7.022 m 38.324,-78.2663 v 0 l 2.045,0.8309 3.785,3.8083 1.577,2.6359 -0.011,10.0805 -1.667,1.7616 -7.625,3.5778 -5.113,-0.004 -2.344,-1.729 0.032,-5.6913 4.579,-9.627 2.002,-3.0046 M 191.71,181.678 v 0 l -5.572,13.768 -0.059,2.601 5.367,2.815 1.06,0.124 22.99,-10e-4 1.482,-0.481 0.725,-0.773 -12.945,-2.118 -14.74,-1.71 0.116,-2.462 9.072,-20.999 2.654,-7.883 -0.357,-1.539 -1.023,-0.894 -1.936,2.897 -3.219,9.205 M 181.478,55.2095 v 0 l 0.027,0.5931 m 102.665,2.6475 v 0 l -0.304,9.1085 -2.356,5.407 -3.222,6.2184 -3.098,3.1008 -2.636,1.5774 -1.06,0.1234 -7.02,-0.1342 -3.767,-3.6746 -2.573,-5.6182 -0.133,-6.0544 0.078,-1.5587 2.842,-1.8911 -0.07,-2.5806 -1.323,-1.3232 -1.672,-0.0408 -2.718,4.3361 -0.124,9.0485 2.739,6.7327 2.081,3.0806 2.938,1.939 3.669,1.619 2.052,0.1194 7.779,-1.7744 4.75,-3.7382 4.304,-8.2467 2.54,-6.6672 -0.023,-9.0865 -1.347,-0.4553 m -8.997,111.8462 v 0 l -0.966,-0.717 -4.094,-0.014 -7.659,2.617 -4.964,2.962 -2.101,2.099 -1.577,2.636 v 4.108 l 3.564,8.616 4.12,3.122 5.619,2.574 h 5.118 l 3.669,-1.619 2.962,-1.962 3.099,-3.101 2.573,-4.63 0.004,-3.113 -2.617,-6.665 -2.226,-3.248 -3.04,-3.03 m 1.512,-32.374 v 0 l -2.941,1.738 -3.08,-0.011 -4.759,-4.661 -2.971,-3.976 -0.982,-2.72 -2.595,-9.957 0.675,-1.008 0.021,-1.09 -1.635,-4.685 -0.731,-0.551 -1.348,1.271 -0.018,6.088 3.611,14.649 2.543,2.599 1.43,2.38 4.095,4.095 2.636,1.577 h 4.108 l 8.63,-4.574 5.104,-5.104 9.76,-18.49 1.8,-7.179 -1.717,-2.38 -2.076,0.869 -2.514,7.872 -1.788,2.897 -5.247,11.192 -3.198,5.201 -5.757,3.704 m -4.591,35.607 v 0 l 1.324,1.333 3.03,4.964 1.552,3.667 -0.015,3.085 -1.925,2.608 -3.736,3.151 -2.634,1.571 -1.116,0.004 -3.139,-1.612 0.495,-0.748 -0.571,-0.746 -3.718,-1.748 -3.531,-2.535 -2.827,-3.945 -10e-4,-2.052 0.926,-1.608 2.74,-2.152 7.627,-3.58 4.055,-0.119 m -6.706,20.458 v 0 l -1.31,0.359 -0.282,-0.333 1.332,-0.331 M 386.162,94.4604 v 0 l -1.005,2.0127 0.828,3.0304 -0.133,3.0225 -0.652,0.98 0.275,0.324 1.743,-0.571 1.629,-5.7461 -1.565,-2.702 -0.792,-0.6125 m -40.288,1.1099 v 0 l -2.672,1.5155 -1,-0.6734 -1.432,-0.1311 -2.176,18.0267 -3.744,2.484 1.678,2.914 0.004,1.116 -2.013,4.85 -1.716,6.028 -0.117,4.056 0.3,1.313 2.542,4.083 1.672,-0.041 1.295,-1.377 -1.685,-2.918 -0.007,-4.116 1.698,-5.986 0.855,-1.549 1.815,0.946 0.3,-0.345 -0.784,-2.008 0.142,-3.024 2.339,-0.456 1.978,0.836 3.088,0.018 11.512,-2.5 2.399,-1.348 2.82,-2.845 2.572,-5.619 v -2.116 l -1.618,-3.67 -2.081,-3.0798 -2.988,-1.9841 -5.619,-2.5738 m -11.081,79.8877 v 0 l 2.373,-2.496 -0.009,-2.054 -2.338,-0.456 -1.486,0.482 -7.307,7.318 -5.424,9.369 -3.543,4.515 -9.467,-26.894 -1.731,-1.777 -1.074,0.122 -1.723,1.628 -3.458,8.399 -6.538,9.594 -3.616,9.667 0.022,1.09 1.341,1.27 1.793,-1.622 4.421,-9.363 8.001,-11.518 1.598,2.485 2.898,6.796 4.866,15.554 2.394,1.69 5.818,-6.637 7.426,-12.374 m 3.284,-67.267 v 0 l 0.131,-3.106 1.665,-7.717 2.159,-3.6417 8.6,0.0595 4.63,2.5732 1.316,1.289 1.749,1.775 1.611,3.665 -1.611,4.785 -1.776,1.796 -2.049,1.169 -4.864,1.678 -11.086,-0.017 -1.273,-1.35 0.651,-0.974 M 383,128.457 v 0 l 0.149,4.069 1.347,1.271 0.702,-0.51 1.642,-10.746 -1.349,-1.406 -2.353,2.311 m -39.66,-25.2365 v 0 l 0.027,0.5931 m 0.973,1.4074 v 0 l 0.027,0.593 m 17.367,30.698 v 0 l -1.734,2.945 -0.122,3.05 0.479,1.304 1.754,-1.576 3.255,-7.225 2.355,-3.858 0.974,0.333 -0.633,2.032 0.276,0.331 h 2.048 l -0.367,-2.364 0.954,-1.684 1.037,-0.7 10.315,-2.068 0.334,-0.525 -1.271,-1.347 -1.03,-0.134 h -6.993 l -2.634,0.85 -1.691,-2.337 1.621,-2.028 -1.307,-1.364 -0.646,0.008 -6.708,14.301 m 92.114,-24.182 v 0 l -6.422,2.438 -2.115,2.109 -1.577,2.636 v 7.108 l 4.577,7.636 3.107,3.102 4.65,1.953 8.995,2.584 1.375,-1.302 -0.597,-1.756 -7.444,-2.437 -3.985,-2.046 -3.318,-3.307 -0.333,-1.51 1.335,-0.44 3.003,0.954 7.051,-0.123 4.579,-2.936 1.729,-2.372 v -5.108 l -1.838,-2.917 -3.775,-2.757 -4.689,-1.64 m -8.038,16.658 v 0 l -0.027,-0.593 m -83.285,3.33 v 0 l 1.31,-0.359 0.282,0.332 -1.333,0.332 m 88.955,-15.683 v 0 l 1.352,0.138 5.401,2.42 1.674,1.767 0.041,2.67 -4.338,2.718 -4.08,-0.01 -1.978,-0.837 h -3.993 l -2.009,0.785 -0.332,-0.276 -0.024,-4.078 1.556,-2.612 m -48.716,16.688 v 0 l 6.832,-6.807 3.664,-2.566 6.05,0.013 -0.023,0.811 -6.216,9.217 -2.136,2.284 0.323,2.368 2.054,0.009 6.664,-4.566 2.62,-2.57 3.004,-2.002 9.627,-4.579 2.087,0.023 0.456,1.347 0.001,2.992 -0.97,3.007 v 6.993 l 0.481,1.483 0.803,0.732 1.911,-4.945 1.66,-8.204 -0.018,-4.088 -0.926,-1.607 -2.372,-1.729 -3.113,-0.004 -8.374,3.351 -3.54,2.357 -1.052,-0.012 0.509,-2.334 -0.133,-2.02 -3.297,-2.338 -1.06,-0.124 -5.048,0.124 -5.92,3.713 -2.054,-0.009 -0.441,-1.342 0.821,-1.974 0.131,-2.022 -0.502,-1.377 -0.475,-0.025 -4.872,13.339 0.028,5.083 0.813,-0.025 m 50.503,-11.289 v 0 l 0.027,0.593 m -46.027,0.407 v 0 l 0.027,0.593 m -34.027,0.407 v 0 l 0.027,0.593 m 32.973,-0.593 v 0 l 0.027,0.593 M 156.79,187.478 v 0 l -0.593,0.027 m 109.281,4.705 v 0 l 0.027,0.593"
     id="path12" />
</g>
<g
   id="g18"
   transform="translate(-125.014,-9.0137796)">
  <path
     fill="#d90707"
     d="m 193.273,31.2456 v 0 l -30.732,3.5937 -1.015,-0.6918 -4.026,-0.1465 -4.062,0.8632 -6.945,-1.8503 -12.054,0.1185 -16.968,4.623 -4.419,1.767 -1.913,1.337 0.361,1.1219 0.999,0.818 1.001,-0.5986 0.971,0.6417 1.09,0.0204 4.878,-1.7255 1.362,0.3575 -1.936,3.0152 -1.036,4.4031 -6.518,36.6053 -3.248,13.079 -2.694,30.6436 -4.672,17.205 -3.3921,19.105 -5.1725,19.888 -0.1185,13.054 4.8372,30.33 4.8219,13.402 5.015,11.996 3.027,4.969 8.57,8.62 7.789,10.323 11.741,8.154 22.958,13.037 10.959,4.03 23,7.01 11.751,2.945 11.225,1.703 31.799,1.974 h 10.986 l 19.04,-3.022 28.408,-2.5 36.537,-8.192 5.493,-1.773 37.282,-15.18 10.933,-5.033 9.004,-6.001 3.62,-3.57 2.662,-1.692 8.543,-8.524 1.118,-0.573 5.152,-5.736 4.426,-7.374 3.004,-4.006 16.57,-19.62 5.231,-8.259 6.158,-16.157 9.653,-22.549 4.042,-11.025 2.5,-9.639 0.117,-33.054 -5.747,-29.8925 -1.992,-4.842 -4.962,-7.9627 -1.57,-1.6196 -4.002,-6.0046 -5.425,-10.3696 -6.362,-7.9495 -2.741,-2.1533 -6.958,-3.9599 -15.367,-6.2802 -9.327,-1.8231 -17.011,-2.0301 -40.984,-2.5773 -9.709,-1.0984 -28.946,-1.9141 -7.383,-1.0014 -15.007,1.9575 -5.019,-0.1341 -1.978,-0.8369 L 279.5,33 276.474,33.1479 274.496,33.9848 257.5,33.999 230.493,31.0138 M 184.305,254.796 v 0 l 3.408,6.39 2.282,3.288 0.807,0.194 1.957,-1.359 -3.102,-5.175 -2.513,-8.636 1.934,-7.643 4.368,-3.717 h 3.108 l 4.338,2.718 -0.03,4.698 -1.646,2.707 -5.475,1.518 -1.583,1.692 -0.014,1.084 3.568,6.629 2.098,2.101 3.664,2.566 3.048,-0.014 0.153,-0.631 -1.39,-2.396 -6.149,-6.318 1.854,-1.952 3.303,-2.363 2.573,-5.618 -0.004,-4.113 -2.672,-3.731 -2.636,-1.577 -7.054,-0.137 -2.026,0.148 -1.948,1.702 -6.022,0.134 -1.486,-0.483 -1.491,-1.344 -4.023,0.826 -1.978,-0.836 -4.659,-0.25 -2.34,-2.747 -1.574,-0.07 -5.437,11.851 -4.229,7.253 -1.833,2.065 -1.396,-4.785 -1.865,-22.767 -1.69,-1.496 -0.749,0.574 -6.08,14.998 -4.539,12.666 -0.239,1.72 -1.607,1.548 2.211,2.091 1.793,-1.622 5.382,-14.395 1.491,-2.726 3.459,16.039 2.233,3.797 2.275,0.006 5.154,-6.712 5.028,-8.966 1.414,-3.438 1.728,-1.764 3.105,0.113 6.2,1.598 -4.625,20.71 0.883,2.064 1.504,0.338 0.706,-0.597 2.002,-7.424 2.69,-13.322 0.901,-1.376 2.703,0.027 1.316,1.323 -0.827,3.031 m 0.488,58.376 v 0 l -13.47,-4.378 -9.964,-3.985 -16.255,-9.229 -14.004,-9.002 -8.525,-11.475 -5.3,-5.311 -1.119,-0.573 -3.154,-3.742 -2.029,-3.929 -6.009,-14.999 -2.883,-8.618 -4.6605,-28.076 8e-4,-13.124 5.1737,-20.887 3.491,-19.265 4.356,-15.446 2.881,-31.8038 3.108,-12.8632 6.851,-40.9437 3.823,-5.5149 9.692,-2.7005 h 9.986 l 6.945,1.8503 2.036,-0.7163 3.026,-0.1469 4.063,0.8656 32.944,-3.8528 h 34.986 l 26.014,2.9724 17.989,-0.0014 1.978,-0.8369 L 280.5,37 l 7.997,0.0152 3.006,0.9696 h 9.993 l 3.007,-0.9696 14.99,-0.0015 36.764,3.0928 41.635,2.7015 23.064,3.0191 6.248,1.8409 10.022,4.0062 9.906,5.4022 3.153,3.7334 4.002,6.0046 4.426,8.3712 6.002,9.0046 1.573,1.6257 4.863,9.6577 5.835,31.0334 -0.116,25.055 -1.692,9.418 -2.852,9.276 -16,39.97 -4.039,7.96 -6.002,8.004 -3.57,3.62 -1.692,2.662 -7.308,8.338 -5.002,7.005 -2.424,4.369 -3.79,3.831 -0.573,1.118 -2.399,1.844 -8.055,8.046 -2.662,1.692 -3.62,3.57 -6.004,4.002 -8.22,4.223 -42.544,17.717 -42.902,9.771 -29.527,2.538 -14.5,2.45 h -9.986 l -36.027,-2.437 -11.384,-2.035 -8.364,-2.15 -9.173,-3.23 m 36.953,-47.191 v 0 l -3.227,5.247 -3.757,2.633 -2.813,-2.633 -1.577,-2.636 v -13.108 l 2.724,-4.892 0.107,-1.056 -0.439,-1.339 -1.672,-0.05 -3.724,7.332 0.004,14.113 2.838,4.917 3.47,2.391 1.06,0.123 2.048,-0.123 2.636,-1.577 3.095,-3.095 3.226,-5.251 1.605,-4.074 2.666,-14.189 -2.255,-1.498 -1.766,1.588 -2.763,14.128 m 73.545,3.192 v 0 l -2.364,-4.557 0.638,-0.815 4.367,-2.425 2.105,-2.105 2.573,-4.63 0.004,-6.113 -1.617,-3.666 -2.065,-2.064 -4.63,-2.573 -6.08,0.011 -5.723,5.626 -1.979,4.806 -2.621,10.005 -6.017,15.855 0.004,3.113 1.729,2.342 0.585,0.075 1.53,-0.469 1.869,-1.976 10e-4,-2.052 -0.694,-0.945 -0.019,-1.088 5.215,-13.262 2.542,-9.874 1.855,-4.53 2.723,-2.626 5.08,-0.011 2.728,1.671 1.578,3.63 -0.143,1.332 -1.689,3.696 -2.851,2.826 -5.401,2.46 -0.626,0.724 -0.012,2.077 2.543,5.699 4.296,7.219 1.833,1.813 2.499,1.474 1.529,-2.26 -1.553,-2.689 -1.573,-1.626 m -57.19,-2.206 v 0 l -6.384,9.468 -0.122,3.05 0.455,1.339 1.51,-0.333 1.268,-1.277 3.466,-6.415 1.57,-1.62 6.426,-10.374 1.578,-1.632 2.422,-4.368 3.004,-4.006 7.759,-5.805 0.196,-0.803 -1.54,-2.066 -6.32,4.579 -4.095,4.095 -5.43,8.38 m 63.236,7.788 v 0 l -2.236,3.212 -3.136,3.284 v 3.052 l 1.661,1.759 2.636,1.577 1.06,0.124 16.99,-0.002 1.339,-0.455 -0.587,-1.754 -18.543,-2.582 -0.502,-0.697 5.082,-6.306 3.221,-5.225 8.356,-16.411 0.121,-2.05 -0.454,-1.339 -1.82,0.659 -2.395,5.394 -7.026,12.966 m 22.501,-10.793 v 0 l -4.775,21.115 0.12,3.053 1.619,3.666 0.722,0.624 1.658,0.047 7.846,-8.68 1.985,7.244 1.51,1.391 h 2.052 l 6.497,-6.379 1.692,-2.662 7.785,-7.81 5.349,-4.472 0.047,-1.661 -2.369,-1.689 -3.717,2.537 -9.095,9.095 -1.692,2.662 -4.712,5.243 -0.297,-4.208 1.984,-12.007 -0.137,-2.054 -1.576,-2.154 -1.442,0.796 -1.115,1.693 -5.441,11.405 -2.002,3.004 -2.79,2.61 -0.479,-1.304 0.115,-4.058 4.838,-19.941 -0.44,-1.338 -1.681,-0.045 m 6.63,22.095 v 0 l 0.027,0.594 m 21.015,0.177 v 0 l -1.805,1.83 -3.577,5.636 -0.122,2.05 0.481,1.485 0.977,0.87 1.029,0.134 13.051,-0.123 5.673,-2.615 2.963,-1.964 0.651,-0.758 -0.313,-1.367 -3.089,-0.026 -7.945,2.854 -7.99,-0.002 -1.305,-0.479 5.303,-7.303 0.998,0.597 2.003,-0.784 h 4.993 l 1.978,0.837 4.026,0.147 2.026,-0.148 0.977,-0.871 0.338,-1.504 -0.566,-0.683 -12.967,-2.576 6.559,-8.115 7.694,0.03 9.942,2.837 1.297,-0.463 -0.598,-1.004 0.507,-0.79 -5.327,-2.937 -10.651,-2.561 -1.202,-1.056 -1.084,-0.015 -2.727,1.667 -2.425,5.367 -7.578,8.633"
     id="path16" />
</g>
<g
   id="g22"
   transform="translate(-125.014,-9.0137796)">
  <path
     fill="#000000"
     d="m 22.0359,348.488 v 0 l -0.8942,1.891 -2.7399,33.914 -1.388,11.214 0.134,4.019 0.6948,0.947 -0.6943,2.001 7e-4,2.052 1.3228,1.323 1.7511,0.014 0.6347,-0.896 1.9439,-13.655 4.0084,4.973 10.3803,6.43 6.3374,6.107 2.3683,-1.689 0.0759,-0.583 -1.6871,-3.74 -3.1011,-3.099 -9.3673,-5.422 -4.101,-4.099 -1.5382,-2.662 4.3506,-4.551 2.6624,-1.692 8.62,-8.57 2.4976,-1.549 6.5437,-8.64 -10e-5,-3.052 -1.3513,-1.273 -0.4754,0.3 -5.7397,7.689 -3.8127,3.833 -2.6624,1.692 -6.6197,6.57 -2.6624,1.692 -4.0329,3.823 -0.4787,-1.304 -0.0024,-5.989 1.9571,-25.008 -0.2879,-1.304 -1.5528,-2.06 M -37,367.457 v 0 l 0.1482,3.07 0.8366,1.976 -0.1161,12.058 -2.3512,8.338 -3.2681,8.326 -2.0594,2.06 -2.636,1.577 h -2.1081 l -2.7146,-1.656 -1.5989,-4.645 0.0162,-6.087 1.6263,-1.723 3.6657,-1.612 2.0333,0.713 3.0524,-10e-4 1.3386,-1.36 3e-4,-0.622 -2.3116,-1.731 h -8.1078 l -2.6116,1.555 -2.6964,4.753 -0.1238,5.048 2.6881,7.676 2.1078,2.115 2.6359,1.577 3.1128,0.004 5.6181,-2.573 3.0204,-3.976 1.774,11.143 0.9638,0.463 2.4471,-13.454 2.6042,-23.976 v -3.986 l -2.4625,-15.303 -1.4931,-4.668 -1.0553,-1.035 -0.9505,-10e-4 -1.0235,1 -0.8527,0.974 -0.1334,1.03 -1e-4,5.992 0.837,1.978 M 82.022,356.471 v 0 l -1.5197,0.514 -11.6356,0.118 -1.625,2.206 3.6093,3.165 0.0144,2.085 -4.6143,12.662 -3.1167,2.648 0.7177,1.605 0.0099,3.08 -5.7241,13.892 -0.1222,4.05 0.4564,1.347 8.0899,0.026 21.1316,-3.643 -0.7676,-1.359 -2.3723,-1.729 -1.0595,-0.124 -7.0563,0.116 -11.8998,2.705 -1.3892,-1.309 -0.0144,-2.085 5.9493,-14.585 4.362,-2.718 8.1128,-0.004 7.9474,2.852 3.9902,-0.002 1.3387,-0.455 -0.8625,-2.524 -9.4365,-3.272 -7.0389,-1.703 -3.0005,0.955 -3.0183,-0.148 -0.3073,-0.364 3.6948,-9.914 0.1566,-2.47 26.6647,-2.895 -0.686,-1.128 -7.4388,-1.936 -10.0581,-0.115 m 15.6341,33.415 v 0 l -3.004,7.011 -0.1182,2.055 0.4814,1.484 1.0026,0.819 1.7494,-1.575 5.5036,-12.451 5.96,-10.959 2.486,-3.498 2.903,22.817 2.37,1.689 5.813,-5.632 3.003,-4.006 7.206,-14.149 3.691,-5.716 1.789,38.143 1.905,-0.432 2.107,-30.523 -1.907,-12.731 -1.093,-3.718 -2.13,0.05 -1.318,1.883 -4.825,7.823 -9.426,17.372 -3.488,4.502 -2.421,-20.951 -1.452,-8.707 -1.897,0.02 -2.494,6.84 -4.822,7.924 m -230.438,-12.569 v 0 l -10.364,2.392 -5.761,3.839 -0.002,2.05 0.837,1.977 10e-4,19.99 -1.855,7.945 -0.13,8.062 0.148,2.026 1.324,1.316 1.534,-0.365 1.816,-2.948 -0.808,-2.033 -10e-4,-4.989 1.856,-8.945 0.162,-3.493 15.475,-3.055 6.989,10e-4 2.005,0.784 1.298,-1.299 -0.813,-1.466 -6.493,-2.02 -4.055,0.117 -6.876,1.738 -6.476,0.107 -2.056,-12.479 0.785,-1.782 3.415,-1.764 8.208,-1.821 7.058,-0.115 2.032,0.807 2.337,-1.691 -0.365,-1.114 -1.974,-1.868 m 11.502,18.338 v 0 l -3.014,23.02 0.002,3.989 0.486,1.361 2.499,-1.847 1.797,-10.296 5.0183,-4.003 4.6296,-2.573 3.0506,-0.122 1.3328,0.511 -1.6895,3.912 -0.0024,1.123 2.5647,6.608 2.0766,2.081 6.7279,2.6 5.7525,-1.63 3.0296,-3.037 2.5735,-4.63 v -4.108 l -2.5735,-4.63 -1.1051,-1.105 -4.6295,-2.573 h -6.1082 l -4.6088,2.553 -1.5284,2.019 -0.3838,-0.842 -2.3712,-1.73 h -5.1079 l -5.6908,3.605 -2.227,-10.638 m 22.9937,20.917 v 0 l -4.3731,-5.496 v -3.052 l 1.6613,-1.759 2.6359,-1.577 h 4.1084 l 3.7307,2.672 1.5773,2.636 v 3.108 l -1.5774,2.636 -2.7585,2.661 h -3.0526 m 57.5513,-17.382 v 0 l -1.172,0.608 -1.3157,1.916 -1.3995,2.453 -0.1234,1.06 0.1152,3.056 1.8945,9.289 2.4496,3 h 5.0526 l 3.7617,-3.667 3.57749,-7.626 v -2.116 l -1.61607,-3.667 -3.05942,-3.06 -2.6358,-1.577 -4.05,-0.123 m -1.0507,16.163 v 0 l 1.326,0.113 2.9198,1.457 -1.1731,1.103 h -2.0523 l -1.3155,-1.323 m 1.2918,-13.366 v 0 l 3.1042,-0.024 2.7533,1.696 1.5543,2.612 0.0035,2.112 -2.5697,5.153 -3.6035,-2.545 -1.5155,-2.644 1.3232,-0.49 2.004,0.766 0.2945,-0.294 -0.8442,-1.548 -3.7955,-2.431 0.3382,-1.505"
     id="path20" />
</g>
<g
   id="g26"
   transform="translate(-125.014,-9.0137796)">
  <path
     fill="#909090"
     d="m 50.2627,323.254 v 0 l -12.7332,2.741 -23.9662,1.873 -3.0668,-0.853 -11.98983,-10e-4 -22.76797,3.152 -30.2722,2.621 -12.6841,1.813 -7.3326,1.636 -18.9194,6.025 -9.7304,2.371 -9.272,4.191 -2.001,-1.665 h -1.055 l -1.228,1.074 -13.83,3.637 -3.383,1.628 -9.217,5.216 -10.004,7.002 -5.62,5.57 -2.662,1.692 -2.551,2.551 -5.224,7.245 -3.113,7.992 -3.626,13.741 0.12,19.053 4.617,11.665 5.941,8.942 2.498,1.549 2.626,2.573 5.953,3.035 5.678,1.934 11.378,2.866 14.621,2.071 22.6142,2.368 15.3783,2.577 35.0685,3.846 4.9859,-0.97 40.01395,1.971 14.98965,-10e-4 1.9774,-0.837 L 16.5,467 l 19.9965,0.015 1.9773,0.837 2.026,0.147 4.0262,-0.147 0.9479,-0.704 2.0259,-0.147 3.0262,0.147 1.9775,0.837 40.9898,10e-4 30.0607,-5.692 18.716,-4.931 23.8,-8.873 7.374,-2.286 5.558,-2.706 4.182,-2.21 2.95,-2.362 8.151,-9.736 4.23,-6.257 3.631,-10.092 2.839,-17.348 -3.592,-18.712 -2.064,-6.946 -6.044,-9.025 -7.813,-8.833 -6.245,-4.224 -8.481,-3.435 -9.493,-4.637 -14.688,-5.838 -5.458,-1.255 -16.18,-2.392 -14.096,-3.447 -22.3377,-3.735 -12.9899,10e-4 -3.0071,0.969 -2.0224,-0.132 -1.9775,-0.837 M 56.4567,435.086 v 0 l 2.7508,-5.639 1.66,-4.886 -0.0162,-3.087 -0.8696,-0.974 -1.1355,-0.356 -1.1231,1.663 -2.3973,6.419 -5.646,11.515 -1.5405,3.7 0.0186,1.088 0.8913,1.518 4.8595,2.02 11.598,1.919 5.0195,-0.135 0.9763,-0.871 0.3395,-1.507 -1.5519,-1.673 -16.5405,-2.576 -0.5902,-0.699 -0.0158,-1.08 m 37.0587,-4.129 v 0 l 2.7177,10.588 1.6402,-0.04 7.6238,-3.576 5.101,-5.098 1.692,-2.662 2.021,-2.026 3.479,-2.494 0.374,-2.534 -1.325,-1.325 h -2.052 l -7.759,7.661 -2.525,3.475 -3.6627,2.557 -1.051,-10e-4 -0.6767,-0.556 -1.6963,-10.418 -1.0872,-3.336 -0.4921,-0.372 -1.8104,0.658 -3.4269,6.369 -2.4803,3.497 -2.3016,-13.675 -0.4129,0.023 -2.0781,10.476 0.0886,10.626 2.37,1.689 0.5047,-0.324 3.3078,-3.308 m -91.57473,-4.443 v 0 l 0.15146,-2.302 -2.6717,-3.73 -2.63573,-1.577 -4.0772,0.011 -0.7061,0.605 -1.6385,4.685 0.0162,7.087 3.3253,3.325 2.0801,0.011 2.75369,-1.696 1.93868,-2.938 m 6.281218,-3.232 v 0 l -0.378311,2.53 1.324402,1.325 2.020461,0.134 1.31358,-0.3 7.63628,-4.546 1.645,-0.039 2.6653,12.642 2.1429,-1.608 -0.0316,-8.693 -1.6162,-3.666 -2.7205,-2.617 -1.3364,0.158 -5.66497,3.526 H 5.47249 l -1.27181,-1.342 0.29981,-0.475 1.28027,-1.28 2.91855,-1.493 -1.17177,-1.094 H 6.4725 m -3.99443,7.052 v 0 l 0.02663,0.593 m 1.00371,-0.979 v 0 L 3.46947,438.168 4.80205,438.5 M 53.4198,327.143 v 0 l 10.0732,-0.129 31.381,1.963 17.553,2.705 8.591,2.421 23.639,3.782 7.569,2.789 25.001,11.079 3.245,2.224 7.813,7.833 1.692,2.662 2.308,2.338 3.055,5.053 4.529,19.575 0.117,8.055 -2.709,13.962 -1.956,5.777 -2.033,3.952 -6.573,7.626 -1.43,2.38 -2.813,2.833 -7.503,4.484 -34.699,12.856 -24.697,5.965 -28.0312,4.512 -1.0417,-0.639 -2.0036,0.784 -23.9896,10e-4 -36.9437,-1.855 -3.0668,0.854 -53.9895,10e-4 -30.46,-1.952 -29.6763,-4.225 -40.4846,-4.721 -14.827,-3.591 -5.967,-1.972 -2.564,-1.503 -3.543,-3.523 -1.119,-0.573 -3.154,-3.742 -1.228,-2.252 -5.352,-13.371 -0.131,-14.061 0.13,-2.062 2.363,-9.339 3.19,-9.355 4.031,-6.934 5.3,-5.311 1.119,-0.573 3.676,-4.211 5.38,-3.43 1.626,-1.574 10.714,-6.595 2.245,4.577 3.041,-2.981 8.037,-4.068 9.853,-2.566 6.869,-3.288 12.7264,-3.428 7.1424,-2.157 3.1341,-1.417 10.4152,-2.902 12.5976,-2.057 39.3327,-3.775 5.3556,-0.981 53.9227,-2.909 m -61.2027,110.38 v 0 l 0.1492,-3.071 0.6944,-0.946 -6e-4,-1.054 -1.3126,-1.322 -1.5401,-0.081 -2.8536,11.058 2.3344,1.693 0.5408,-0.352 1.8545,-3.91 M 116.28,442.231 v 0 l 1.713,-3.723 2.696,-4.214 0.289,0.596 14.529,2.095 2.019,-0.134 1.316,-1.324 -0.363,-1.53 -1.418,-0.886 -14.802,-1.872 2.743,-6.178 6.558,0.071 7.99,2.84 2.208,-2.281 -4.698,-3.068 -12.345,-2.42 -1.224,-1.068 h -0.622 l -2.711,3.337 0.698,3.083 -8.718,14.891 0.011,6.08 1.626,1.723 3.666,1.617 13.12,0.003 7.603,-2.568 0.687,-0.777 0.133,-1.028 -0.454,-2.33 -10.968,2.704 -7.056,0.116 -4.426,-1.94 M -50.5,428.129 v 0 l -2.3952,1.738 0.0457,1.661 2.5645,3.662 6.7873,6.829 0.3326,1.51 -1.3387,0.455 -5.0504,-0.122 -2.8918,-1.724 -2.0817,0.019 -0.3499,3.022 7.3161,2.69 3.1157,-0.007 2.6358,-1.577 1.6614,-1.759 v -4.052 l -8.6519,-8.979 1.3041,-0.479 3.9929,-0.001 3.0033,0.954 1.3351,-0.44 0.0068,-1.057 -2.3154,-2.323 m 28.9908,15.642 v 0 l -1.3683,-1.265 -0.1307,-2.069 1.6924,-2.166 -0.5528,-0.766 -8e-4,-1.052 0.6423,-0.973 -0.5997,-1.006 1.355,-0.35 2.34305,1.723 0.08719,3.629 -0.48236,1.486 M -66.1627,429.55 v 0 l -0.3088,-2.385 -2.0285,0.634 -0.9742,-0.651 -2.0798,-0.01 -4.6297,2.573 -5.0388,4.982 -2.6147,-7.001 -4.6087,-2.554 -4.0804,0.011 -2.7232,2.626 -1.6162,3.666 -0.0019,4.12 2.5697,6.609 3.1078,3.115 2.6359,1.577 3.0819,-0.02 0.3132,-1.367 -3.9846,-2.559 -2.7182,-4.362 0.0245,-2.078 2.3409,0.509 4.0507,-0.123 2.7155,-1.611 2.4342,5.921 2.1343,3.138 4.6077,2.552 3.0804,-0.011 1.273,-1.351 -0.8463,-1.545 -5.2593,-2.789 -1.556,-2.612 0.0109,-3.08 1.6613,-1.759 2.635,-1.571 3.688,0.752 m -23.6111,2.894 v 0 l -0.0266,-0.593 m -7.4891,3.329 v 0 l 0.9787,-3.03 -0.1226,-5.05 -3.5742,-6.63 -4.104,-4.105 -4.691,-2.554 -9.961,3.825 -0.517,3.514 0.837,1.978 0.132,2.022 -0.969,3.007 v 10.993 l 2.802,5.794 3.622,1.57 1.124,0.004 8.651,-2.608 2.071,-2.066 1.998,-2.998 1.582,-2.641 m -3.636,-0.317 v 0 l -1.944,2.956 -2.759,2.661 -10.05,-0.013 0.509,-2.342 0.123,-18.64 4.338,-2.718 1.06,-0.123 2.048,0.123 3.731,2.672 4.577,7.636 0.004,4.113 m -30.388,-78.349 v 0 l 0.027,0.593 m 107.535,60.676 v 0 l -0.8826,0.987 -0.0138,1.089 1.8489,2.922 1.5361,0.358 0.314,-1.362 -0.642,-0.973 0.6216,-1.028 -1.6919,-2.337 m -38.9529,4.32 v 0 l 0.3171,1.523 1.9794,1.873 2.048,-0.014 0.3012,-0.359 -2.2994,-3.328 m -2.3776,18.273 v 0 l 0.1747,1.384 1.5483,2.058 1.1122,-0.365 0.8179,-0.999 -0.6417,-0.971 -0.0227,-1.093 1.7206,-7.993 -1.674,-2.358 -1.4159,3.358 m -29.7912,-4.334 v 0 l 1.5728,0.025 2.6423,1.582 0.729,1.23 -6.3854,1.89 -0.3929,-1.396 m 22.3381,-1.231 v 0 l 0.0265,0.593"
     id="path24" />
</g>
</svg>
