<svg
   viewBox="-702 0 713.69403 196.70007"
   version="1.2"
   id="svg42"
   xmlns="http://www.w3.org/2000/svg"
   xmlns:svg="http://www.w3.org/2000/svg"><defs
   id="defs46" />
<g
   id="g40"
   transform="translate(-225.98798,-1145.6348)">
  <path
     fill="#000000"
     d="m 224.07298,1145.7748 v 0 l -5.41,2.43 -2.538,3 -1.813,-1.53 -2.249,1.5 2.894,6.63 1.751,7.13 0.029,2.71 -1.88,2.3 0.084,1.68 2.344,1.73 11.113,0.01 5.618,-2.58 2.072,-2.06 1.594,-3.72 -2.372,-3.53 -4.242,-2.66 1.637,-3.76 0.119,-3.05 -2.062,-4.64 -2.369,-1.73 m -8.756,18.41 v 0 l -1.667,-5.99 0.007,-3.11 1.577,-2.64 2.039,-2.04 4.684,-1.63 1.091,0.02 2.322,2.31 0.015,3.09 -1.617,3.67 -2.749,2.79 -0.349,1.16 8.562,3.51 -2.523,2.59 -2.636,1.58 -6.051,0.12 -1.338,-0.45 0.665,-3.06 -1.086,0.23 m -641.719,-0.22 v 0 l 9.259,2.32 0.557,0.68 10e-4,1.05 -4.617,4.72 -3.666,1.62 -2.055,0.11 -1.347,-0.45 -0.142,-6.03 0.784,-2 -0.784,-2 0.134,-6.03 1.101,-1.24 1.5,-3.46 2.501,-2.47 1.614,3.14 v 2.12 l -1.616,3.67 -3.108,3.26 m 1.062,-15.18 v 0 l -3.702,2.49 -0.974,-0.64 h -1.054 l -1.314,1.31 1.701,15.03 -1.654,8.78 -1.048,1.19 0.339,1.51 0.977,0.87 8.085,0.02 5.618,-2.58 4.072,-4.06 1.616,-3.67 -0.003,-2.11 -1.577,-2.64 -1.041,-1.04 -4.145,-1.78 0.886,-2.49 10e-4,-5.99 -1.703,-3.7 -1.786,-0.79 m 588.542,0.47 v 0 l -2.868,6.98 1.356,0.37 1.354,-0.79 1.93,23.25 1.692,0.68 h 5.994 l 2.003,-0.78 1,0.6 1.351,-1.27 0.118,-1.03 -0.812,-1.97 0.642,-2.03 -1.086,-1.21 -3.187,3.56 -4.023,0.13 -1.346,-0.45 -0.142,-7.03 0.826,-2.04 -1.892,-13.79 -0.923,-2.14 -1.533,-1.33 m 27.711,0.11 v 0 l -4.511,2.52 -1.555,2.62 v 3.1 l 2.573,4.63 6.14,6.29 -0.009,2.06 -1.346,0.45 h -7.992 l -3.031,-0.82 -1.324,1.31 -0.118,1.03 0.466,1.48 0.977,0.87 10.084,0.02 4.481,-1.92 1.803,-3.44 -1.557,-2.7 -5.57,-5.62 -2.567,-3.66 -0.04,-2.67 4.337,-2.72 1.536,0.36 1.493,1.35 2.361,-0.32 -0.909,-2.66 -2.372,-1.73 m -12.123,176 v 0 l 1.55,-0.63 1.312,-1.33 2.572,-5.62 0.004,-5.12 -1.763,-6.02 -3.2,-4.59 -1.495,-0.98 -4.851,-1.72 h -2.119 l -3.731,1.69 -2.562,4.65 -0.014,9.09 1.617,3.67 2.534,2.58 1.791,3.32 3.398,2.72 2.08,0.01 m 1.404,-48.34 v 0 l 0.894,-0.99 0.133,-1.03 0.014,-71 -0.138,-2.05 -1.578,-2.16 -0.785,0.51 -0.972,-0.65 -2.026,-0.15 h -334 l -284.177,1.82 2.388,0.93 372.7455,2.21 0.8359,0.75 2.1645,-1.69 76.0709,0.14 0.4711,2.34 6e-5,42 -0.14697,2.03 -0.83691,1.97 -0.01416,23 0.14782,2.02 0.5354,0.66 -456.35914,2.64 0.364,0.36 22.811,1.82 598.026,-0.15 1.316,-1.32 -0.528,-1.71 -162.99854,-1.64 0.53546,-0.66 0.14798,-2.02 3e-5,-67 -0.83404,-4.03 2.3348,-0.47 161.02731,0.16 0.472,2.34 v 56 l -0.147,2.03 -0.837,1.97 v 9 l 0.482,1.48 0.975,0.86 m -613.472,47.62 v 0 l 0.149,14.07 1.324,1.31 h 1.054 l 1.324,-1.31 0.148,-2.03 -0.013,-15.99 -1.956,-15.01 0.831,-3.06 -2.613,-6.66 -0.748,-0.58 -0.508,0.33 -1.74,3.17 -3.026,-2.01 -4.732,-1.68 -6.053,0.12 -5.618,2.58 -2.116,2.11 -2.693,6.69 0.124,6.04 3.95,5.61 5.418,2.69 12.916,-3.66 4.083,-2.99 0.479,1.3 m -23.838,-4.92 v 0 l -0.012,-3.14 1.552,-3.67 2.333,-3.27 1.503,-0.33 -1.382,8.39 2.567,5.62 1.135,1.29 -0.007,1.06 -2.331,0.45 -1.486,-0.48 -2.267,-2.28 m 7.373,-147.72 v 0 l 1.738,2.95 -0.36,2.53 -2.81,2.07 -6.987,1.72 -2.575,-15.06 -1.115,-4.18 -0.518,-0.33 -1.541,0.85 -4.448,9.92 -2.745,4.72 -2.775,-12.68 -1.468,-1.88 -0.807,0.69 -4.039,7.95 -4.425,11.45 -1.1,1.25 v 2.06 l 1.351,1.27 1.549,-0.85 4.628,-12.17 1.676,-2.86 2.523,7.68 1.985,3.26 h 0.63 l 2.797,-2.68 4.659,-8.98 3.025,17.72 0.997,0.02 1.809,-4.63 1.725,0.67 3.056,-0.11 5.618,-2.58 2.685,-3.74 0.123,-4.05 -4.832,-10 1.598,-3.73 1.268,-1.27 1.508,-0.34 0.947,0.69 2.054,-0.01 0.455,-2.34 -0.455,-1.34 -6.054,-0.01 -1.619,0.93 -2.717,4.37 -0.124,1.06 0.124,4.04 m 5.862,69.99 v 0 l -0.138,-25.09 -1.579,-2.15 -0.497,0.44 -1.772,6.77 10e-4,69.99 0.482,1.48 0.976,0.86 1.507,-0.34 0.871,-0.97 0.134,-1.03 m 8.994,29.97 v 0 l -0.472,1.51 -1.035,1.04 -2.918,1.84 -4.05,0.12 -1.486,-0.48 -1.307,-1.32 -2.567,-4.62 1.635,-6.82 1.019,-1.24 -0.506,-0.78 2.152,-1.58 h 1.116 l 5.618,2.57 2.72,2.16 m 611.981,10.63 v 0 l -2.741,-5.95 v -2.1 l 2.338,-3.3 3.078,-0.01 3.699,2.64 2.609,7.66 v 1.12 l -1.631,4.69 -3.701,2.57 -0.816,-0.64 -2.576,-4.63 m -626.928,-16.03 v 0 l 0.593,-0.02 m 298.739,-68.31 v 0 l -1.792,1.58 -1.616,3.67 0.015,4.09 3.661,3.75 2.635,1.58 1.536,-0.36 2.734,-3.2 0.267,0.2 2.88,4.95 -0.019,7.08 -1.347,0.45 -8.057,-0.11 -5.131,-1.65 0.49,-0.73 -0.273,-0.32 -2.025,0.63 -2,-0.77 -1.481,0.47 -0.87,0.97 0.001,2.05 0.608,0.71 9.68,2.64 9.116,-0.01 2.636,-1.58 1.661,-1.75 0.015,-8.09 -1.619,-3.67 -5.324,-8.9 -2.396,-1.69 -1.369,1.29 -0.014,1.09 2.707,3.91 v 2.06 l -2.379,2.29 -3.974,-2.84 -0.483,-1.48 0.133,-4.03 0.911,-1.55 1.967,-1.57 m 18.452,-1.33 v 0 l 0.988,-0.86 1.089,-0.02 3.243,2.36 -0.844,1.54 -3.396,1.83 -2.086,-0.03 -0.455,-1.34 0.131,-2.03 m 3.131,14.33 v 0 l 2.574,4.09 1.989,-0.36 0.02,-2.08 -5.572,-7.74 6.017,-3.54 1.555,-2.62 0.123,-3.05 -0.483,-1.48 -1.277,-1.27 -3.666,-1.62 -3.056,-0.11 -2.661,1.07 -2.702,5.35 -0.003,1.12 1.656,4.89 1.919,3.73 m 22.518,-28.41 v 0 l -0.695,-0.61 -1.064,0.01 -0.455,1.33 0.115,4.06 1.855,6.95 -0.135,7.02 -1.351,1.27 -0.974,-0.65 h -2.052 l -1.316,1.32 0.001,1.05 0.616,0.73 3.688,1.58 0.736,-0.52 1.776,10.15 1.552,0.38 1.324,-1.31 0.231,-8.58 8.095,-3.66 1.674,-1.76 0.117,-1.03 -0.438,-1.33 -1.085,-0.03 -5.884,2.72 -1.492,0.11 -2.787,-13.4 m 122.22297,74.58 v 0 l -1.82307,2.66 -3.535,10.61 -0.8465,1.29 -1.1519,-1.18 -0.1334,-1.03 -10e-5,-4 0.837,-1.97 0.0096,-3.08 -2.0256,-2.35 -2.6998004,3.41 1.5744004,2.2 -0.6955,1.79 -0.0014,3.99 1.9724,12.02 -0.1341,5.02 -0.837,1.97 -9e-4,4.99 1.9484,4.43 0.9394,0.05 3.0022,-18.75 0.8064,-1.97 2.73515,1.61 7.0806,-0.01 2.283809,-2.14 2.471981,-1.52 2.57996,-5.64 1.8e-4,-6.1 -1.57751,-2.64 -2.10117,-2.1 -4.62954,-2.57 -3.08008,0.01 -0.94754,0.7 m 5.99319,16.13 v 0 l -1.99328,1.87 -1.02997,0.13 -4.05014,-0.12 -2.34374,-1.73 0.0299,-2.69 1.64901,-4.9 1.97168,-4.76 0.72357,-0.63 3.07755,-0.01 2.635892,1.58 1.661255,1.75 0.0109,6.08 m 11.734448,-60.72 v 0 l 2.0694,-6.06 2.0869,-4.46 0.4607,0.43 1.7723,6.77 -0.0013,3.99 -0.8368,1.97 0.0093,3.06 2.3665,0.32 0.7628,-0.67 6.4286,-11.37 2.7575,-2.65 h 1.0525 l 2.3371,3.29 0.1225,6.05 -0.8197,3.03 2.361,0.32 1.3254,-1.32 0.1334,-1.03 -0.1192,-8.06 -1.8364,-3.91 -3.4751,-2.39 -1.0562,-0.11 -1.998,0.97 -3.7848,3.81 -1.9686,2.89 -2.515,-6.95 -1.3057,-1.88 -2.3982,-1.69 -2.8207,2.64 -2.7854,6.1 -2.72896,-7.79 -1.72198,0.03 -0.34137,2.4 2.66345,17.71 0.71082,0.53 1.72904,-1.56 m 28.0725,-4.44 v 0 l 2.4054,4.38 1.3078,1.32 1.4817,0.47 1.335,-0.44 -0.3309,-1.51 -1.8184,-2.79 -1.5513,-3.67 0.0279,-3.08 2.3416,0.5 2.0504,-0.12 2.7558,-1.7 2.552,-4.61 0.1236,-1.06 -0.1239,-4.04 -1.729,-2.35 -3.659,0.05 -3.7587,3.66 -1.9618,2.96 -1.619,3.67 m 9.3435,-7.23 v 0 l 0.5035,1.29 -0.119,2.05 -1.5793,2.64 -0.7591,0.66 -3.046,-0.01 -0.1532,-0.63 1.3906,-2.4 m 14.784,-3.68 v 0 l -3.6312,1.95 -3.7101,4.39 0.3397,1.51 3.7872,3.83 1.5772,2.64 -0.0116,2.07 -0.6254,0.73 -3.6666,1.62 -2.0841,-0.02 -0.9471,-0.69 h -1.0546 l -1.3147,1.31 v 1.06 l 1.3157,1.32 6.0806,0.01 3.5776,-1.94 1.7299,-2.37 4e-4,-4.1 -1.5773,-2.64 -3.1269,-3.28 v -1.06 l 2.5747,-2.69 6.1556,-2.25 -1.362,-1.38 m 6.973195,-0.02 v 0 l -2.688895,1.59 -3.6621,3.75 -0.0108,5.08 1.5776,2.64 2.1269,2.28 -8e-4,1.06 -2.4342,1.68 -4.3084,1.8 1.3753,1.84 2.0843,0.02 5.617695,-2.58 0.6748,-0.77 6e-4,-4.05 -3.353695,-3.49 -0.4825,-1.48 0.1334,-3.03 1.8702,-1.97 1.508495,-0.34 0.9454,0.68 h 1.0547 l 1.3235,-1.31 -0.3484,-2.51 -0.9756,-0.87 m 20.0005,31.85 v 0 l -0.5112,-2.5 0.9891,-2.45 6.4319,-1.91 1.3969,0.33 -0.147,1.33 -1.771,3.34 -4.3612,2.72 m 6.7242,-0.66 v 0 l 2.582,-4.64 0.215,-1.61 4.397,-2.8 3.081,-0.01 5.92,3.71 h 4.052 l 1.348,-1.37 -5.646,-3.73 -3.453,-1.5 -0.573,-0.75 4.649,-4.97 0.134,-6.03 -0.76,-1.75 -4.725,-1.72 -1.308,0.28 -4.376,2.4 -3.071,3.07 -1.494,2.92 -2.215,-1.61 -2.7356,7.07 -0.7746,0.69 -1.6587,0.05 -1.729,-2.35 0.0103,-3.08 4.3252,-4.32 h 3.0524 l 0.974,0.65 0.474,-0.3 0.848,-1.03 -1.689,-2.37 -3.6873,0.04 -2.6359,1.58 -4.6613,4.75 -0.0107,5.08 2.6627,3.96 -1.9448,0.6 -2.718,4.34 -1e-4,5.1 2.364,3.45 0.9687,0.84 1.0908,0.02 6.6091,-2.56 m 4.3518,-18.51 v 0 l -0.027,-0.59 m 8.027,0.78 v 0 l -2.02,1.82 -2.359,-3.25 0.015,-1.08 2.652,-2.75 2.635,-1.58 1.084,0.02 1.3,1.37 -1.58,3.7 m -493.793,-13.08 v 0 l 3.047,-1.13 4.02,0.13 0.733,0.64 2.613,9.65 0.233,7.69 2.377,1.69 0.505,-1.32 0.002,-8.99 -2.643,-9.65 -1.127,-2.12 -5.653,-1.6 -1.376,0.18 -5.411,2.43 -1.064,1.07 -4.664,10.06 -0.846,-0.38 0.64,-0.97 0.021,-1.09 -3.616,-8.66 -1.747,-0.75 -1.334,0.44 0.149,1.34 2.934,6.68 2.435,9.71 1.264,2.71 h 1.105 l 5.69601,-16.13 m 21.93099,14.42 v 0 l 1.164,2.12 5.662,2.53 5.402,-1.89 -0.406,-0.76 -0.976,0.65 -2.049,-0.01 -0.394,-0.79 6.378,-2.02 1.824,-1.84 1.962,-2.96 1.618,-3.67 v -2.12 l -1.616,-3.67 -4.723,-4.62 -4.085,-0.02 -5.618,2.58 -2.11,2.1 -1.797,3.5 -1.768,7.18 m 8.31,3.36 v 0 l 1.347,0.65 -0.282,0.34 -3.667,0.05 -2.70299,-4.4 1.583,-4.02 1.949,4.73 m 5.737,-13.05 v 0 l 2.56,0.35 2.303,2.31 1.577,2.64 0.108,1.05 -0.285,1.31 -2.396,4.37 -3.733,2.68 h -1.111 l -2.149,-1.58 0.412,-0.57 -1.42,-1.41 0.50999,-0.8 -3.66399,-4.36 -0.006,-0.67 1.714,-2.78 m 40.686,-2.69 v 0 l -0.39,2.55 2.573,4.63 5.13099,5.29 -9.9e-4,1.06 -3.287,2.33 -2.08,-0.01 -1.978,-0.83 -5.024,0.14 -0.323,2.37 1.325,1.32 1.029,0.13 8.051,-0.12 2.636,-1.58 1.833,-1.81 1.8,-2.94 -6.108,-6.34 -2.557,-3.66 v -1.06 l 2.658,-2.76 4.044,-2.57 0.004,-0.63 -1.398,-1.34 -3.691,1.58 m 19.723,4.39 v 0 l -2.002,0.84 -2.33,-0.45 0.103,-1.28 1.731,-4.19 5.526,0.09 1.273,1.35 -0.873,1.63 m 3.546,1.87 v 0 l 0.513,-1.5 -0.134,-4.03 -1.661,-1.75 -2.636,-1.58 -7.08,0.01 -1.772,1.68 -0.892,1.75 -1.795,5.93 0.117,2.05 2.57,6.61 3.038,3.05 7.706,2.64 1.083,-0.02 1.335,-1.35 -0.003,-0.63 -3.603,-2.18 -3.482,-1.43 -3.471,-3.48 7.88,-3.48 m 39.337,-18.27 v 0 l 0.343,2.54 -1.851,7.95 0.12,10.05 2.349,5.37 2.591,4.2 2.372,1.73 3.08,-0.01 4.616,-2.93 2.175,-3.66 1.549,-3.7 -0.004,-7.11 -1.554,-2.62 -2.754,-1.69 h -3.108 l -2.636,1.58 -3.103,3.1 -2.425,4.89 -0.268,-9.2 1.855,-6.95 0.115,-4.06 -0.455,-1.33 -1.057,-0.01 m 5.239,17.67 v 0 l 3.733,-2.69 1.106,-0.11 2.312,2.42 0.124,1.06 -0.12,5.05 -1.617,3.67 -2.059,2.05 -2.635,1.58 -1.536,-0.36 -1.308,-1.32 -2.534,-4.65 1.867,-1.58 m 47.509,-5 v 0 l -3.056,3.07 -0.482,1.48 0.134,6.03 2.869,2.97 1.485,0.48 3.051,-0.12 3.47,-2.39 2.065,-3.37 1.894,5.37 0.991,0.03 0.877,-0.97 0.135,-5.02 -1.964,-18.2 -1.725,-6.56 -1.243,-2.63 -1.905,1.35 -0.135,3.02 2.855,12.95 -0.032,2.08 -0.812,-0.02 -1.499,-1.35 -2.02,-0.13 m -138.256,4.71 v 0 l 2.495,9.48 0.758,0.59 1.348,-1.27 0.133,-1.03 -0.118,-2.06 -1.695,-3.91 0.651,-1.06 -1.689,-2.37 -1.663,0.06 m 119.582,2.51 v 0 l -2.919,4.23 -2.659,-0.05 -1.519,-0.9 -2.777,-5.42 0.807,-2.03 -0.147,-4.02 -0.813,0.02 -1.877,1.97 -0.014,7.09 1.616,3.66 3.024,2.09 3.719,1.53 2.815,-1.67 2.795,-4.03 2.706,5.75 h 0.352 l 1.684,-2.4 -3.594,-11.71 -1.196,-0.7 m 12.435,5.94 v 0 l 2.956,-1.88 2.099,-0.12 2.297,2.49 -2.916,5.62 -2.372,1.73 -2.08,-0.01 -1.325,-1.32 v -5.06 m 266.3727,-1.68 v 0 l -0.0267,-0.59 m 1.98,16.76 v 0 l 2.3592,3.35 2.6115,1.55 2.0802,-0.01 3.9741,-3.65 1.9722,1.64 1.3698,-0.31 0.009,-2.06 -1.1395,-1.29 -3.7933,-7.34 -1.6287,-1.55 0.679,-1.79 -0.4409,-1.34 -3.0818,-0.02 -2.7558,1.7 -2.5522,4.61 -0.1227,5.05 m 4.5065,1.52 v 0 l -1.3732,-1.49 -0.1341,-3.02 0.2974,-1.31 1.977,-2.91 3.5672,6.15 2e-4,1.12 -2.3583,3.24 m 20.9803,-1.78 v 0 l 1.023,-0.82 0.336,0.28 -0.31,2.36 -2.3276,-0.33 m -426.0284,-38.06 v 0 l -0.039,2.11 2.546,6.16 0.173,-7.25 -1.323,-1.31 m 142.681,30.36 v 0 l 0.594,-0.02 m 286.67,3.71 v 0 l 0.359,1.31 -0.333,0.28 -0.331,-1.33 m 1.305,1.74 v 0 l 0.359,1.31 -0.332,0.28 -0.332,-1.33"
     id="path38" />
</g>
</svg>
