<svg
   viewBox="-702 0 1122.7051 838.78503"
   version="1.2"
   id="svg10"
   xmlns="http://www.w3.org/2000/svg"
   xmlns:svg="http://www.w3.org/2000/svg"><defs
   id="defs14" />
<g
   id="g8"
   transform="translate(-155.157,-111.199)">
  <path
     fill="#000000"
     d="m 108.046,111.48 v 0 l -1.845,2.02 1.65,1.971 0.249,1.663 2.207,1.7 1.98,2.98 3.222,6.219 2.757,7.429 1.72,7.045 v 4.986 l -1.763,11.559 -2.86,12.218 -6.228,17.169 -0.202,1.584 -2.963,1.808 0.326,1.451 3.204,2.517 1.751,-1.578 1.247,-3.266 5,-13.951 2.892,-9.753 2.596,-11.758 v -16.987 l -3.661,-10.734 -4.037,-7.956 -6.006,-8.005 -0.789,-0.612 M 74.5499,655.17 v 0 l -5.0766,-0.318 -1.0155,-0.693 -13.9431,1.77 -4.4957,1.54 2.4247,2.386 1.1202,0.012 16.1799,-1.8 5.2125,-1.117 M 57.8761,881.496 v 0 l -3.2019,-7.24 -4.3914,-12.445 -2.7613,-1.634 -0.3588,0.301 -0.0287,5.08 4.541,12.669 7.0836,14.081 -8.5686,7.977 -7.3804,5.43 -6.8084,6.785 -0.8529,0.974 0.0087,3.054 1.3468,0.455 2.0224,-0.132 10.2836,-10.136 2.6624,-1.692 5.3376,-5.308 3.6879,-2.513 0.7875,0.614 2.0322,3.929 8.4311,20.476 2.7514,2.578 1.3515,-1.273 0.0107,-4.08 -8.5433,-19.7 -3.1407,-6.216 5.6315,-4.815 10.6608,-7.691 5.2446,-7.214 6.1071,-6.338 -1.6897,-2.368 -0.5844,-0.076 -1.5281,0.467 -3.1855,2.197 -4.5497,6.498 -5.8127,5.833 -11.9806,8.841 -1.962,-1.89 M 67.4564,738 v 0 l 4.1059,-0.13 8.7174,-1.668 0.541,-0.733 -1.6883,-2.367 -15.6289,-0.087 -2.0035,0.784 -0.974,-0.652 -4.0226,-0.132 -1.4843,0.482 -0.8704,0.977 0.0089,2.052 0.9963,0.56 1.1607,1.796 0.8568,2.436 2.6135,12.949 1.7151,1.532 1.3512,-1.273 0.1348,-4.02 -2.8186,-11.976 1.336,-0.514 M 51.85,247.574 v 0 l 0.2983,-4.1 1.1035,-1.173 3.4601,6.883 4.5726,4.626 1.577,2.634 0.2391,1.689 2.2078,1.625 1.5289,-2.259 -2.5488,-4.683 -4.5766,-4.632 -3.0802,-6.983 -2.4136,-9.46 -0.6944,-0.582 h -1.0476 l -0.6833,0.566 -4.5719,17.534 -2.0443,2.034 -5.6431,2.536 -2.7849,-2.608 -2.7346,-7.727 0.1171,-5.055 2.8384,-8.941 -0.467,-1.479 -1.5443,-0.904 -2.0635,4.201 -1.7643,7.122 -0.1296,4.062 0.1335,2.059 2.6339,7.686 1.3054,1.889 3.3967,2.707 5.9771,-1.635 4.5763,-2.735 M 60.1578,119.455 v 0 l -1.3245,3.843 -1.8196,8.209 0.0013,12.989 0.4823,1.485 0.9752,0.861 1.5068,-0.339 0.8198,-1.002 -0.7841,-2.005 -0.0141,-9.996 0.1468,-2.026 0.8213,-1.974 -0.7984,-2.034 1.6585,-3.932 -0.6287,-1.034 1.5987,-2 -1.2712,-1.342 M 26.4255,696.149 v 0 l 2.1257,-0.284 3.2207,-2.112 3.4559,-1.506 2.6681,-2.114 -0.0467,-1.662 -1.3829,-1.3 -6.6904,2.58 -2.5565,1.562 -12.4391,5.374 -5.26394,3.191 -1.97058,-2.87 -2.25312,-5.185 -1.80188,-1.688 H 2.8692 l -1.70685,2.365 2.03504,4.9 2.60406,16.888 1.69806,0.68 1.3432,-0.44 0.27082,-9.684 M 79.1701,120.45 v 0 l -0.0359,5.109 5.3707,14.474 3.3638,12.405 0.1173,9.056 -2.6505,8.703 -4.0488,7.989 -2.2639,3.286 -2.8328,2.813 -3.0405,2.191 0.0078,2.052 1.3464,0.455 2.0227,-0.132 3.7812,-2.685 5.984,-8.988 3.8872,-9.468 1.8072,-8.217 -0.1167,-4.055 -3.3542,-14.341 -7.5449,-21.045 M 31.8368,920.49 v 0 l -3.7058,-12.929 -0.1172,-7.054 3.7305,-29.133 3.1073,-11.971 3.6438,-8.37 2.356,-3.507 -0.0087,-3.054 -1.3904,-0.443 -3.7393,4.785 -3.9317,7.785 -2.9271,10.778 -4.8404,36.13 0.1173,3.054 3.7344,12.88 0.2368,3.691 2.3722,1.739 0.6544,-0.007 1.708,-2.363 M 21.501,776.862 v 0 l 1.3403,-1.335 -0.3138,-1.37 -4.0816,-0.019 -4.6313,2.575 -7.01754,4.976 -2.48273,-11.834 -0.81372,-0.651 -0.74683,0.571 -1.61438,3.665 0.84534,3.063 0.01416,6.997 -0.14685,2.026 -0.8371,1.977 -0.0141,6.997 0.14765,2.026 1.8764,1.974 1.17108,-0.21 1.55964,-11.529 7.42958,-4.474 7.2888,-5.148 M 33.0187,600.465 v 0 l 1.6622,4.794 2.031,3.925 1.7596,1.665 1.6714,0.041 6.5702,-12.076 7.8015,-11.881 3.3459,-8.374 -0.358,-1.539 -0.9763,-0.871 -1.0263,-0.118 -1.7471,0.744 -4.4611,10.403 -6.5787,9.636 -3.5328,6.09 -1.6388,-2.924 -6.2221,-19.173 -1.7957,-2.658 -2.0514,0.008 -0.4566,1.347 0.1184,3.055 5.7315,15.882 m 6.0127,163.062 v 0 l -4.8783,-13.439 -1.5266,0.088 -0.7204,0.623 -1.5823,3.69 0.6724,1.008 -0.6435,2.033 1.325,0.335 0.7317,-0.541 2.6886,8.26 0.876,1.316 1.7073,-0.026 0.9746,-0.87 M -18.9639,122.487 v 0 l -2.0223,9.02 0.0018,9.989 0.4826,1.357 1.3778,-0.935 2.11,-13.425 -0.1347,-5.019 -1.3603,-1.279 M 47.1382,361.57 v 0 l -1.8535,-3.76 -1.0949,-1.095 -2.6358,-1.577 h -2.1081 l -6.6361,4.577 -7.0325,5.978 -2.862,-8.837 -4.3615,-2.718 -1.0538,-0.108 -3.6902,1.685 -2.8323,2.812 -4.66634,7.188 -0.29602,-3.212 0.9696,-3.007 -6e-5,-5.993 -1.00482,-2.006 -1.50745,-0.339 -1.27185,1.341 0.76947,1.998 -1.95636,15.01 0.13489,9.019 1.35144,1.273 1.79309,-1.622 7.42001,-15.363 3.305,-4.316 2.5268,-0.48 2.3167,2.428 0.1231,6.05 -0.8369,1.978 7e-4,3.052 1.3253,1.325 1.0262,0.118 1.4817,-0.467 4.8281,-4.787 5.3803,-3.43 3.6198,-3.57 2.6619,-1.538 0.5055,0.325 1.3098,1.313 1.7967,3.493 1.7854,7.13 -8e-4,2.123 -1.7026,5.907 0.3334,0.328 1.9982,-1.594 0.7908,0.507 2.5739,-4.155 0.0052,-6.115 m -98.8256,219.038 v 0 l -0.8849,0.991 0.0011,1.06 2.3145,2.314 3.0273,-0.811 1.3431,0.441 0.1419,4.024 -0.9696,3.007 0.1326,4.023 0.7035,0.946 0.2491,1.661 2.3451,1.723 1.3892,-0.327 -0.8195,-3.033 0.0178,-11.428 16.7475,-3.109 0.9806,-0.634 -1.4766,-2.033 -1.7881,0.692 -4.9963,-0.982 -2.0262,0.146 -1.9773,0.837 -5.0244,-0.143 -0.3145,-1.369 0.6946,-0.947 0.2365,-2.611 1.9406,-1.57 -3.9762,-3.264 -1.9225,6.357 -0.2092,2.608 -3.3876,1.783 -1.0062,-0.672 m 7.5804,-143.694 v 0 l 0.7459,1.004 -0.0026,3.059 -3.8695,3.976 -1.4854,0.483 h -2.993 l -2.0016,-1.009 -0.1773,-0.771 5.668,-8.682 1.5619,-0.379 2.375,1.72 m -14.6726,272.439 v 0 l -0.0998,7.225 2.9756,0.369 1.7231,-2.343 -0.7079,-2.028 -0.1327,-3.023 0.8369,-1.977 0.2449,-3.611 11.8724,-3.006 -0.0231,-0.869 -5.385,-1.909 -3.0874,0.017 -0.9437,0.701 -1.4451,0.125 -2.1811,-10.947 -0.9414,0.056 -1.7914,3.383 0.8137,2.037 -0.0171,4.428 -8.4321,2.045 -0.3767,0.5 0.5618,1.728 8.0448,1.525 m 66.0319,183.962 v 0 l 2.6737,-1.667 4.351,-4.552 -1.6915,-2.337 -2.6581,0.707 -1.9452,-1.684 -1.8143,0.659 -2.57518,4.629 -0.12219,3.05 0.45642,1.347 M 101.543,352.001 v 0 l -2.0638,0.144 -1.3214,1.327 0.3395,1.508 0.976,0.871 5.0227,0.134 3.007,-0.97 2.993,0.001 1.347,0.456 0.142,7.024 -0.837,1.978 -0.133,5.022 1.005,2.007 1.504,0.338 0.697,-0.586 2.64,-13.044 1.129,-3.105 1.51,0.693 2.342,-2.272 -0.617,-1.774 -4.076,-2.23 -0.134,-6.02 0.656,-2.301 -2.123,-2.173 -1.074,0.122 -3.185,4.141 1.693,2.165 -0.019,4.484 -7.401,1.929 m -413.417,-94.373 v 0 l 0.84,2.007 10e-4,4.989 -1.841,11.063 1.543,2.211 1.75,-0.659 19.862,-1.914 1.542,-1.667 -0.336,-1.327 -1.006,0.599 -2.004,-0.784 h -12.993 l -3.003,0.954 -1.343,-0.441 -0.14,-1.032 0.131,-2.022 0.837,-1.978 10e-4,-7.989 -1.972,-10.014 0.143,-38.021 1.347,-0.456 7.992,-0.001 1.978,0.837 4.085,0.014 3.911,-1.857 0.03,-0.983 -0.974,-0.877 -6.019,0.837 -14.528,-2.074 -1.283,-0.667 -1.518,2.228 1.673,2.001 0.133,1.03 -0.132,2.022 -0.696,1.017 m 9.877,-85.056 v 0 l -2.687,8.715 -5.028,13.052 -17.18,35.192 -0.121,2.05 0.454,1.339 1.51,-0.333 1.27,-1.281 3.24,-8.188 5.366,-9.923 1.671,0.04 1.975,0.835 10.4,0.033 3.159,21.944 1.781,-0.434 0.142,-14.025 -0.837,-1.977 -0.132,-4.084 3.677,-2.69 -2.944,-1.519 -2.701,-33.474 -1.026,-5.224 -1.558,-0.378 m -42.496,688.623 v 0 l 1.503,2.098 0.73,-0.594 1.6,-9.569 6.662,-1.696 0.358,-0.55 -1.688,-2.367 -6.056,-0.13 -2.817,-12.175 -0.763,-0.595 -1.348,1.272 -0.134,1.029 v 6.993 l 0.932,3.476 -8.879,3.021 -0.045,0.44 0.5,1.575 2.921,1.848 4.818,-1.612 M 156.231,129.28 v 0 l -3.697,1.55 -2.034,-0.799 -1.482,0.467 -1.307,1.318 -2.424,4.367 -1.42,0.891 -1.729,2.372 0.019,2.082 1.347,0.456 3.02,-0.146 -0.233,-1.126 10.893,-6.423 2.667,-2.763 -0.009,-2.054 -1.346,-0.455 m -4.979,80.143 v 0 l -0.5,1.334 -0.003,12.999 1.77,7.199 2.067,-2.166 0.133,-1.03 -0.983,-4.996 0.014,-8.997 0.827,-3.03 -1.315,-1.323 M -299,145.457 v 0 l 0.015,14.039 0.97,3.007 -0.142,5.025 -1.347,0.456 -4.989,0.002 -7.252,-1.73 6.062,-12.001 5.641,-13.138 0.883,0.358 m -38.38,628.54 v 0 l 2.089,-0.15 4.634,-2.576 4.616,-4.794 -1.328,-0.337 -1.972,1.641 -1.001,-0.599 -1.278,1.051 -6.662,2.614 -10.586,0.059 -4.838,-25.488 8.734,-39.875 0.27,-12.794 18.806,-2.879 -1.419,-1.74 -1.03,-0.133 -16.023,0.133 -4.172,2.603 0.497,0.751 -0.597,0.998 0.784,2.003 -0.116,11.058 -8.734,39.875 1.962,10.12 1.744,13.902 -0.693,1.016 0.002,2.049 0.625,0.724 4.731,1.739 7.99,-10e-4 M 150.998,162.543 v 0 l -0.471,-2.385 -2.053,-0.009 -5.473,4.351 -0.843,0.973 v 1.054 l 1.341,1.272 1.001,-0.598 1.028,0.622 4.949,-2.816 m -7.756,94.189 v 0 l -6.436,-11.386 -3.154,-3.676 -0.618,0.001 -0.742,0.62 -3.568,11.69 -1.915,3.74 -1.762,1.666 h -3.052 l -0.974,-0.852 -1.789,-1.815 -2.573,-4.63 -0.124,-1.06 0.124,-4.048 6.718,-10.891 -0.354,-1.535 -0.975,-0.862 -1.535,0.365 -5.527,8.589 -2.436,8.389 0.285,1.307 2.399,4.377 3.285,4.313 3.448,2.364 1.06,0.123 2.048,-0.123 2.636,-1.577 3.098,-3.1 3.995,-8.887 2.004,2.516 3.424,6.37 1.307,1.318 1.482,0.466 1.342,-0.44 0.009,-2.054 m 4.627,-97.264 v 0 l 0.027,0.593 m 1.973,-32.593 v 0 l 0.027,0.593 m 5.954,-0.62 v 0 l 1.346,0.314 -1.329,0.332 m -26.401,447.305 v 0 l -0.917,-1.608 v -1.054 l 2.316,-2.324 4.022,-0.133 1.978,0.837 2.022,0.131 1.344,-0.453 0.079,-1.576 -3.361,-1.819 -6.112,0.003 -2.636,1.577 -2.313,2.303 -0.482,2.476 1.7,3.696 2.095,2.095 7.373,4.426 1.102,1.099 1.962,2.962 1.613,3.669 -0.019,1.088 -2.315,2.322 -1.03,0.134 -7.057,-0.116 -5.878,-1.738 -3.087,0.017 -2.271,2.348 0.529,0.714 11.706,2.659 6.116,-0.007 3.59,-1.946 2.718,-4.362 v -2.108 l -3.84,-6.919 -2.838,-2.816 -4.368,-2.422 M -317.979,404.471 v 0 l -1.545,0.374 -4.327,-3.321 -0.148,-5.024 4.985,-31.007 -10e-4,-5.99 -0.955,-3 2.736,-29.791 0.312,-0.843 3.396,-2.721 9.022,-0.133 3.031,0.827 1.315,-1.315 -10e-4,-1.052 -3.287,-2.337 -2.08,0.01 -0.948,0.704 -2.026,0.147 -5.997,-0.014 -3.031,-0.827 -1.271,1.341 0.597,1.003 -0.823,0.54 -0.928,2.56 -3.017,31.901 0.955,3 10e-4,5.99 -5.97,36.003 1.031,2.548 7.399,3.818 h 3.108 l 5.328,-2.819 -0.379,-0.841 -0.976,0.641 -3.031,-0.827 m 49.518,-239.552 v 0 l -0.325,2.25 -1.522,-2.021 -2.612,-1.549 -1.534,0.352 -3.211,2.219 -3.102,4.107 -2.694,6.684 0.134,3.02 2.719,3.372 4.687,-0.036 2.636,-1.577 2.095,-2.095 3.962,-6.684 3.435,8.647 3.789,1.675 0.38,-0.334 -1.562,-2.204 0.533,-0.82 -1.684,-2.916 -0.124,-1.06 10e-4,-12.991 0.97,-3.007 10e-4,-14.989 -1.703,-8.05 -1.266,-3.925 -0.493,-0.373 -1.504,0.338 -0.871,0.977 -0.134,1.03 v 4.992 l 0.97,3.007 10e-4,14.991 M -284.48,468.02 v 0 l -5.371,-5.494 -0.134,-3.023 0.482,-1.484 0.977,-0.87 2.052,-10e-4 1.002,0.674 2.337,-1.691 v -0.618 l -0.64,-0.76 -3.667,-1.619 -2.084,0.014 -1.608,0.926 -2.718,3.4 -0.01,4.08 2.573,4.63 4.574,4.626 1.577,2.636 -0.011,3.08 -1.325,1.325 -7.088,0.018 -6.016,-1.763 -2.896,-1.957 -1.026,-0.118 -1.343,0.441 -0.008,3.054 1.637,1.73 8.652,2.613 7.121,-0.003 3.666,-1.617 1.626,-1.723 0.135,-6.02 -0.298,-1.308 m -30.199,460.773 v 0 l 3.203,5.194 2.814,1.677 3.38,-1.8 -0.697,-1.326 -2.499,-1.555 -6.195,-10.195 -2.673,-6.256 -1.808,-8.217 0.117,-13.055 5.665,-19.882 1.916,-3.741 1.139,-1.289 v -4.053 l -1.385,-1.302 -3.691,1.579 -1.476,1.507 2.232,1.699 -1.851,2.851 -1.18,3.224 -5.486,18.475 0.117,18.055 3.558,10.661 m 14.856,-152.036 v 0 l -0.83,0.636 -4.006,6.999 -2.083,5.006 -2.496,10.611 -0.116,13.056 3.634,11.775 2.06,4.908 4.316,3.352 2.995,3.973 1.506,0.328 -0.324,-1.33 0.651,-0.974 0.01,-2.08 -1.839,-2.919 -1.833,-1.812 -2.459,-1.511 -4.717,-15.71 v -7.988 l 1.683,-8.065 1.972,-6.645 4.196,-8.236 0.031,-1.693 m 69.152,-641.387 v 0 l -0.9,0.989 -0.133,1.035 -10e-4,7.989 2.856,16.945 0.116,6.056 -2.65,8.703 -3.049,5.989 -2.763,3.664 -2.05,0.001 -0.974,-0.852 -1.75,-1.774 -1.616,-3.666 v -6.118 l 2.573,-5.618 2.793,-2.622 1.56,0.85 1.685,2.649 1.084,-1.234 -1.58,-3.691 -1.723,-1.626 -2.08,-0.011 -2.917,1.838 -4.391,7.47 -0.004,9.113 1.619,3.669 1.939,2.938 2.754,1.696 4.08,-0.011 3.496,-3.379 5.73,-10.165 3.329,5.838 4.365,2.717 4.261,-0.148 -5.729,-5.241 -1.189,-2.121 -3.012,-14.231 -3.831,-26.037 -0.947,-1.561 m -48.471,767.482 v 0 l -0.571,-1.055 -3.424,-1.779 -13.488,13.597 -1.912,-8.205 0.666,-2.064 -2.326,-2.321 -2.258,1.495 2.761,24.789 2.194,-0.556 0.97,-1.487 2.341,-6.36 2.231,-4.243 8.76,-8.658 1.37,0.314 0.144,4.022 -1.667,4.766 -2.181,4.186 0.011,2.08 0.871,0.976 1.507,0.34 0.454,-0.34 3.304,-3.312 1.692,-2.663 7.497,-7.379 3.08,-0.01 2.344,1.729 0.084,0.588 0.003,7.041 -0.97,3.007 0.134,4.023 1.351,1.273 1.51,-0.836 2.961,-12.464 -2.048,-5.631 -3.397,-2.72 -5.02,-0.134 -3.696,1.701 -2.106,1.995 M 153.426,132.15 v 0 l 2.095,0.011 -0.332,1.121 -5.634,3.574 -1.081,-0.026 0.027,-0.805 2.026,-2.048 M -294.829,613.55 v 0 l -0.302,-3.112 -4.637,-20.678 -0.708,-0.601 -1.051,-10e-4 -0.976,0.861 -0.482,1.484 0.116,3.058 3.68,17.161 2.898,7.454 1.791,0.807 1.633,-0.085 5.152,-5.708 2.002,-3.004 8.425,-15.37 1.13,-1.287 -0.163,-1.338 -1.37,-1.95 -2.619,1.597 -7.403,13.347 -4.002,6.005 -1.757,1.652 M -273.117,261.5 v 0 l -3.13,-8.132 -2.624,-12.806 0.009,-17.116 6.577,-10.636 5.095,-5.095 5.667,-3.708 0.358,-1.536 -0.308,-0.313 -2.081,-0.02 -4.63,2.573 -3.95,3.363 -8.113,11.698 -1.619,3.669 -0.005,18.122 1.827,10.541 3.712,11.056 7.107,10.09 3.666,1.615 2.36,-0.363 -4.086,-4.312 -5.578,-7.669 m 4.862,477.936 v 0 l -0.134,2.093 -1.687,2.928 0.318,0.317 0.799,-0.507 1.409,1.424 1.429,-0.786 1.729,-2.372 v -9.108 l -3.943,-5.591 -4.363,-2.711 -1.358,0.169 -5.388,3.402 -4.044,3.98 -1.615,-4.018 -5.659,-2.529 -6.76,1.637 -4.445,6.917 -0.486,-0.418 -1.595,-8.564 -1.704,-1.518 -2.364,3.244 2.67,20.85 0.695,0.501 1.64,-0.878 1.342,-1.978 5.268,-12.168 2.114,-2.671 h 5.266 l 1.729,2.344 0.005,3.114 -1.735,4.879 -0.115,2.057 0.455,1.346 2.054,0.009 0.972,-0.851 2.789,-3.815 2.424,-4.369 4.099,-4.101 2.634,-1.571 1.358,0.169 2.506,1.521 1.554,2.612 m 31,-490.877 v 0 l 3,-5.015 0.123,-1.06 -0.456,-2.329 -2.027,0.835 -6.217,10.19 -9.785,12.606 -0.786,-0.613 -2.963,-4.959 -4.433,-11.478 -3.03,-5.93 -1.788,-1.615 -1.351,1.273 v 2.052 l 3.1,4.25 4.433,11.478 5.175,9.636 1.671,-0.041 2.606,-1.923 m 45.029,111.578 v 0 l 2.364,0.338 0.454,-0.34 11.547,-11.525 2.662,-1.692 2.809,-2.785 0.843,-0.973 -0.007,-1.056 -1.394,-0.331 -3.669,1.613 -2.962,1.962 -2.62,2.57 -3.192,2.217 -6.222,7.191 -2.585,-10.168 -1.632,-2.498 -1.089,0.132 -0.455,3.338 0.97,3.006 10e-4,11.991 -2.854,9.945 0.017,3.087 1.348,1.271 0.751,-0.576 2.829,-7.463 m 16.963,-249.27 v 0 l -3.287,5.285 -2.077,4.968 -3.545,11.697 -0.117,16.056 1.796,5.93 2.905,4.766 4.758,3.652 1.05,-0.013 0.182,-0.593 -1.458,-3.464 -3.496,-4.547 -1.737,-4.731 0.117,-18.056 3.547,-11.67 2.034,-3.952 1.139,-1.29 v -3.052 l -1.357,-1.277 m 149.5075,304.329 v 0 l -1.4992,-0.511 -4.0287,0.133 -2.7586,2.662 -3.7123,5.665 -0.978,0.025 -1.9334,-1.435 -2.7114,13.053 -1.7572,4.712 -2.608,11.677 1.9408,10.263 1.9044,3.121 1.6645,-0.042 0.6776,-0.567 2.6082,-23.694 1.221,-7.333 0.9279,-0.778 1.5145,1.374 h 8.0526 l 4.7585,-4.661 1.5774,-2.636 v -6.108 l -1.5545,-2.612 M 145.21,165.527 v 0 l 1.31,-0.359 0.282,0.332 -1.333,0.332 m -416.491,639.69 v 0 l 2.308,-2.231 1.575,2.155 0.124,1.059 -0.118,3.055 -2.729,6.886 -0.122,3.051 0.506,1.326 3.502,-2.353 1.691,-2.66 9.602,-10.527 2.482,11.002 0.677,0.556 1.051,10e-4 1.324,-1.316 0.134,-9.022 -0.828,-1.977 0.695,-2.001 -0.001,-2.052 -2.379,-2.297 -4.656,2.534 -6.068,5.988 -2.726,-5.172 -2.496,-2.378 -2.08,-0.011 -2.636,1.577 -4.833,4.812 -2.912,4.642 -2.038,-11.632 -2.551,-0.375 0.508,3.334 -0.969,3.007 0.114,7.06 1.938,11.388 1.435,1.847 1.731,-1.555 2.556,-8.666 1.708,-3.545 1.481,-2.505 m 35.554,93.494 v 0 l -1.369,0.445 0.553,1.735 9.561,1.59 2.006,9.91 1.578,-2.148 0.175,-8.493 8.679,-2.748 -1.189,-1.164 -7.481,-0.192 -3.09,-11.91 -0.381,-0.027 -1.417,0.453 -0.141,1.031 0.132,4.023 0.837,1.978 -0.142,5.024 -1.347,0.456 M 105.539,790.015 v 0 l -2.089,-0.15 -2.64,-1.58 -3.0989,-3.101 -2.5736,-4.63 0.0253,-8.076 0.5707,-0.207 5.7605,1.58 3.731,-1.602 2.626,-2.723 0.134,-7.023 -1.059,-2.637 -2.373,-1.728 h -5.1071 l -4.6296,2.573 -2.0063,2.864 -1.796,5.931 0.1202,12.053 2.5725,5.618 4.103,4.108 2.6363,1.577 6.08,-0.011 1.273,-1.351 -1.278,-1.355 M -27.1563,231.501 v 0 l -2.3175,-2.352 -1.0299,-0.134 -10.0506,0.123 -2.6113,1.554 -1.6906,2.752 -0.0043,1.116 2.5672,5.617 1.5781,1.633 3.5771,5.636 v 2.108 l -1.6965,2.754 -2.6113,1.554 h -8.1084 l -2.8916,-1.724 -2.0502,-0.121 -1.339,0.454 0.3327,1.51 1.3187,1.308 4.6295,2.573 7.1127,0.004 3.6664,-1.617 3.0598,-3.059 1.5774,-2.636 0.1234,-3.048 -2.6969,-5.69 -1.5774,-1.632 -2.5721,-4.628 -0.059,-1.602 3.3614,-1.819 2.0581,-0.134 5.0266,0.148 1.9738,1.65 1.3443,-1.276 m -393.7003,15.974 v 0 l 0.841,2.007 v 9.992 l -0.784,2.008 0.295,0.294 1.004,-0.597 0.973,0.642 1.369,-0.315 0.024,-14.087 -3.578,-7.625 -3.734,-2.678 -3.113,-0.004 -3.632,1.584 -7.15,9.322 -2.431,-6.289 -2.062,-3.059 -2.612,-1.554 -4.08,0.011 -2.759,2.661 -1.964,2.966 -3.843,9.115 -2.696,-11.159 -1.343,-0.597 -1.691,2.337 1.895,2.91 2.73,17.909 0.674,0.55 1.734,-0.572 3.465,-12.529 3.032,-6.918 2.159,-2.72 2.659,0.046 1.505,1.388 1.837,4.903 0.117,10.058 -0.969,3.007 0.456,2.338 2.051,0.008 0.706,-0.605 2.437,-7.444 2.048,-3.987 4.001,-6.004 3.759,-3.661 2.022,-0.133 1.486,0.482 2.88,3.948 m 7.179,-109.969 v 0 l -6.326,6.333 -4.037,6.96 -2.812,9.087 -1.731,11.707 3.649,15.841 3.928,7.779 3.098,3.101 3.012,2.007 5.67,2.55 2.267,-1.533 -1.451,-2.474 -8.474,-5.528 -2.34,-4.336 -1.862,-4.77 -2.618,-10.708 0.118,-9.054 3.535,-11.64 4.048,-6.989 5.136,-5.284 -0.348,-2.507 -0.975,-0.861 m 166.75,224.031 v 0 l 0.574,-1.354 -5.546,-2.604 0.679,-1.734 10e-4,-15.991 -0.303,-1.311 -2.135,-2.166 -1.391,0.443 -0.141,1.032 -0.001,6.992 0.837,1.978 0.146,2.026 -0.146,2.026 -0.837,1.977 -0.041,4.416 -9.908,2.17 1.66,2.122 7.235,1.847 -1.946,19.449 0.134,2.019 1.321,1.323 1.5,0.098 0.987,-3.907 2.059,-18.997 m 352.518,525.978 v 0 l -1.34,0.293 -3.045,2.162 -6e-4,5.05 1.3252,1.325 h 6.0524 l 2.325,-2.325 0.133,-3.023 -0.508,-1.511 -2.922,-1.854 M 147.478,137.21 v 0 l 0.027,0.593 m -428.643,256.696 v 0 l -5.09,-7.25 -2.638,-7.69 -0.12,-9.052 2.906,-17.249 4.573,-12.227 6.363,-10.476 -0.353,-1.535 -0.976,-0.862 -1.508,0.34 -3.306,4.317 -4.025,6.964 -2.015,4.967 -2.726,7.442 -2.933,17.319 0.12,11.052 2.678,7.86 2.903,4.771 6.761,8.661 3.052,-0.008 0.44,-1.343 -0.466,-1.482 -3.004,-3.035 m 50.518,334.557 v 0 l -0.001,-4.037 0.726,-1.722 9.624,-2.624 1.498,-1.65 -1.337,-1.359 -1.03,-0.133 -3.022,0.133 -1.978,0.837 -3.449,-0.028 -2.816,-10.196 -0.734,-0.558 -1.348,1.271 -0.133,1.03 0.132,2.022 0.837,1.977 -0.022,4.438 -7.428,2.036 -0.377,1.55 1.316,1.324 5.44,0.172 2.058,11.438 0.553,0.413 2.335,-3.315 m 332.969,28.891 v 0 l 0.022,5.076 -1.325,1.325 -4.0797,0.011 -2.3109,-1.733 1.699,-3.437 2.6116,-1.554 2.049,-0.122 M -321.299,538.718 v 0 l -5.142,-2.584 -1.065,-0.12 -20.99,0.002 -1.339,0.455 0.658,1.82 5.098,2.662 0.078,1.551 -1.942,33.649 -3.043,28.354 0.117,6.054 1.734,7.003 -1.851,7.942 10e-4,6.99 0.784,2.004 -0.769,1.998 1.747,3.757 6.661,1.614 3.121,-0.004 3.666,-1.616 3.574,-3.753 -2.326,0.347 -1.002,-0.666 -2.917,1.685 -1.06,0.124 -6.435,-0.023 -1.929,-7.401 10e-4,-4.124 1.738,-5.877 0.131,-3.061 -0.13,-4.062 -1.738,-9.002 2.933,-28.11 1.949,-35.221 m 64.776,365.373 v 0 l -0.593,0.027 M 123.52,443.039 v 0 l -0.989,-0.891 -5.433,-0.166 -2.516,-14.97 -1.113,0.139 -1.321,1.323 -0.133,1.029 -0.058,12.451 -6.395,1.915 -2.088,-0.017 -0.975,-0.651 -1.35,1.273 v 2.052 l 1.325,1.325 1.03,0.134 h 4.992 l 3.033,-0.82 0.313,1.362 -0.827,1.976 0.142,5.025 2.365,0.322 0.681,-0.57 1.527,-8.493 5.768,-1.597 2.379,-1.129 M 144.478,139.21 v 0 l 0.026,0.593 m -36.482,545.719 v 0 l -2.832,-2.807 -2.636,-1.577 h -4.1083 l -5.4477,3.364 -1.2475,1.273 -1.6163,3.666 -0.0038,5.121 2.5642,8.598 2.1397,3.148 3.9888,2.985 5.6179,2.572 2.085,-0.014 1.273,-1.351 -1.616,-1.789 -4.367,-2.422 -4.1262,-3.127 -2.552,-4.608 -0.1209,-2.05 0.4779,-1.305 1.28,1.051 3.6662,1.616 2.052,0.119 4.732,-1.736 2.024,-2.024 1.611,-3.665 -0.173,-1.362 M 64.0163,541.46 v 0 l -0.0316,13.036 -0.814,2.038 1.8151,3.937 2.5378,0.366 -0.323,-1.337 0.7842,-2.004 -0.0873,-16.629 -2.37,-1.689 -1.3827,1.301 M -355.286,943.762 v 0 l 16.549,-2.545 1.579,-1.69 v -1.054 l -1.383,-1.312 -9.966,1.825 -7.99,-0.002 -1.344,-0.52 2.7,-18.967 -1.845,-12.004 v -15.986 l 1.972,-17.014 -0.134,-3.019 -0.836,-1.978 0.141,-2.024 1.347,-0.456 3.989,-0.002 6.945,1.855 3.062,0.13 2.028,-0.156 0.443,-1.391 -2.046,-1.942 -4.791,-1.621 -11.641,-1.875 -3.019,0.133 -0.974,0.652 -1.028,-0.622 -2.368,1.69 -0.075,0.585 0.468,1.529 1.427,1.013 2.062,9.513 -1.848,24.99 1.848,11.009 v 10.987 l -1.857,10.944 -0.115,6.057 0.303,1.311 1.55,2.092 M -541.958,144.475 v 0 l -3.232,2.24 -1.653,1.828 1.75,26.089 2.074,19.088 1.053,4.229 1.496,-0.1 1.944,-1.7 1.024,-0.119 3.948,1.832 5.116,0.007 9.638,-2.5 8.025,-3.12 2.063,-2.065 2.046,-3.985 2.534,-7.638 0.117,-2.054 -3.663,-11.738 -6.034,-10.953 -2.104,-2.105 -7.957,-4.958 -5.673,-2.615 -11.05,-0.123 m 3.999,47.841 v 0 l -0.966,-0.708 -1.443,-0.165 -2.964,-20.421 0.027,-22.09 1.347,-0.456 10.055,0.118 3.669,1.619 7.956,4.958 2.105,2.105 6.047,10.987 2.531,7.637 -0.002,2.118 -3.567,9.612 -3.135,2.16 -11.602,3.538 -6.058,0.117 m 106.519,31.537 v 0 l -4.307,-4.332 -4.582,-6.088 -2.659,0.046 -6.302,4.149 -6.111,2.705 0.087,2.524 1.323,1.316 1.084,0.014 9.89,-5.712 1.084,0.014 7.494,7.37 1.692,2.662 1.759,1.661 2.054,-0.009 0.456,-2.338 -0.482,-1.486 m 106.288,95.46 v 0 l -0.593,0.027 m 1.013,1.017 v 0 l 0.593,-0.027 M 80.5009,243.136 v 0 l 0.9661,0.718 5.4555,0.174 3.0939,13.913 1.5141,-0.101 0.4541,-3.337 -0.9696,-3.007 0.0376,-6.474 4.6069,-1.865 -1.526,-2.054 -3.0875,-0.146 -2.0241,-6.423 -2.5459,-0.371 0.3232,1.337 -0.5985,1 0.6518,0.974 0.1145,2.459 -7.8521,2.537 M 57.17,676.455 v 0 l 0.8497,2.048 1.9802,0.433 1.8672,-4.376 0.1175,-11.057 -0.482,-1.484 -0.9744,-0.868 -1.661,-0.047 -1.6896,2.368 0.8072,2.031 0.0151,6.997 -0.1479,3.026 M -327.977,471.471 v 0 l -2.517,0.514 -10.943,-1.856 -4.06,-0.114 -2.006,1.004 -0.47,1.538 1.76,1.353 13.72,2.076 5.989,-0.002 1.347,-0.456 0.008,-3.054 -1.323,-1.316 m 122.269,-220.824 v 0 l -3.843,-0.412 -1.814,-3.362 1.713,-7.057 -1.751,-4.445 -1.263,3.923 -1.916,9.991 -3.42,0.013 -1.977,-0.837 -3.023,-0.133 -1.484,0.482 -0.861,0.976 0.552,1.724 11.266,1.889 0.009,7.41 -0.954,3.004 0.467,1.481 1.029,0.9 2.34,-4.321 0.17,-7.503 6.889,-2.25 m -184.731,-63.526 v 0 l -2.638,1.575 h -1.113 l -2.889,-1.712 -1.084,0.014 -1.32,1.314 -0.122,1.075 1.963,1.913 2.454,1.402 3.113,0.004 3.666,-1.617 2.06,-2.059 2.007,-3.012 2.573,-5.62 -0.003,-2.112 -1.577,-2.636 -7.3,-7.311 -1.119,-0.573 -3.708,-4.399 0.666,-1.818 5.617,-2.575 2.113,0.004 2.891,1.718 1.534,-0.353 0.82,-1.003 -0.3,-0.475 -4.97,-3.867 -7.72,2.521 -2.282,1.299 -2.369,2.493 1.593,4.754 7.777,7.798 2.662,1.692 1.661,1.759 0.011,4.08 -1.577,2.636 m 107.756,242.287 v 0 l -0.891,0.99 -0.035,1.689 5.109,2.594 1.068,0.961 2.165,-1.694 4.039,-10e-4 1.347,0.456 0.027,5.09 -1.856,9.945 0.135,5.019 1.349,1.272 2.325,-3.269 -0.793,-2.026 1.841,-10.94 0.167,-4.507 6.496,-2.029 0.165,-1.28 -8.205,-2.733 -4.991,10e-4 -3.007,0.97 -3.022,-0.133 -1.974,-0.821 M -398.55,364.83 v 0 l 10.109,0.036 3.912,-1.852 0.371,-2.542 -2.403,-0.341 -6.946,1.854 -2.019,-0.133 -1.002,-0.674 -2.368,1.689 m 8.395,-125.71 v 0 l -1.348,1.314 -0.104,1.486 13.391,2.913 4.058,0.114 1.344,-0.454 0.087,-1.548 -2.927,-1.058 m -42.473,493.075 v 0 l -0.371,1.524 2.585,2.698 5.696,1.643 6.502,-1.799 -3.38,-1.925 -3.12,0.723 -4.861,-1.713 -1.099,-1.128 0.046,-0.852 M -72.752,366.691 v 0 l -3.7133,-1.661 -3.0329,-3.028 -3.364,-5.448 0.025,-9.076 0.6486,-0.145 6.6281,2.534 2.0861,-0.015 0.946,-0.703 1.6725,-0.255 2.7121,-4.339 -0.0141,-1.084 -0.6935,-0.943 -0.249,-1.661 -2.6718,-2.114 -3.6692,-1.619 -6.085,0.015 -2.7669,2.674 -2.5725,5.618 0.0036,12.113 4.5771,7.636 2.1005,2.098 7.6252,3.573 1.0887,-0.02 1.3127,-1.314 -8e-4,-1.052 m 10.1949,-209.99 v 0 l -2.3945,5.239 -1.5093,4.715 -0.1171,2.055 1.6999,3.696 3.0948,3.095 2.6358,1.577 7.0805,-0.011 4.7586,-4.661 3.01,-3.9 2.0583,4.423 1.5045,4.692 1.5967,1.564 1.0711,-0.133 -0.325,-1.336 0.6324,-1.037 -1.4733,-4.738 -4.1313,-10.972 -0.7043,-0.594 -1.7424,0.582 -1.7691,5.746 -2.7238,4.697 -2.7625,2.667 -5.0804,0.011 -2.6357,-1.577 -2.6661,-3.729 1.6243,-5.802 1.0831,-1.228 0.1334,-1.03 -0.1423,-4.024 -1.377,-0.314 m 71.7051,0.292 v 0 l -0.0361,3.109 4.546,12.634 1.2975,2.28 4.4958,4.378 2.5079,-0.349 8.546,-8.525 2.6625,-1.692 4.6519,-4.758 -0.3396,-1.507 -0.9764,-0.871 h -2.0523 l -8.2839,8.136 -2.3556,1.407 -1.5492,2.498 -1.785,1.609 -2.6432,-1.879 -1.3404,-1.977 -5.2204,-14.113 -0.7705,-0.671 M -5.49939,445.872 v 0 l 3.99725,-2.87 2.340458,-3.502 -1.553711,-2.69 -1.758487,-1.661 -7.0227,-0.134 -1.48532,0.483 -4.3062,4.318 -3.5777,7.625 v 5.118 l 1.6161,3.666 1.0656,1.063 6.62984,3.574 2.05035,0.122 1.48456,-0.481 0.88336,-1.011 -0.00354,-0.633 -8.02257,-4.549 -1.7003,-2.756 -0.1226,-2.048 1.9429,-4.392 2.5159,1.737 1.0262,0.118 m -24.0673,463.17 v 0 l 7.7574,-4.854 9.0947,-9.095 3.0081,-4.013 3.5691,-7.623 0.0035,-9.113 -2.3491,-5.373 -3.2315,-5.258 -1.2833,-1.308 -5.4476,-3.364 -12.1128,-0.004 -3.6662,1.616 -0.8045,0.785 -1.7998,3.931 2.3292,2.333 2.514,-2.765 5.4246,-1.903 6.1199,0.003 3.6665,1.616 3.0614,4.064 3.5793,7.627 -0.0035,6.113 -5.5772,9.636 -8.8126,8.832 -16.6626,9.693 -1.6584,1.755 -0.1152,1.465 35.3996,2.933 7.83273,-1.656 0.5727,-0.689 -0.54334,-1.715 -31.01179,-2.929 M -407.499,607.136 v 0 l 0.962,0.708 1.1,0.022 7.896,-1.704 1.013,0.681 1.057,-0.008 0.367,-1.968 -2.342,-1.729 -5.116,-0.007 -5.697,1.65 -0.582,0.695 0.006,1.053 m 263.814,-143.064 v 0 l -1.833,11.024 1.808,3.431 1.572,-0.085 -0.359,-1.372 1.7,-4.903 0.211,-2.606 15.112,-9.669 3.675,-3.154 v -0.622 l -1.339,-1.36 -2.08,-0.011 -11.636,7.577 -3.315,3.085 -0.463,-1.3 0.82,-1.974 0.018,-2.088 -1.936,-7.398 -1.063,0.067 -1.727,2.338 0.84,3.059 -0.132,2.022 -0.651,0.974 0.651,0.973 m 12.145,-190.001 v 0 l 1.555,0.386 2.638,-1.573 4.095,-4.095 3.963,-5.966 3.012,-8.691 3.609,-14.972 -0.002,-13.122 -4.541,-12.665 -3.04,-5.957 -0.762,-0.667 -2.367,0.322 v 3.054 l 0.986,0.553 2.178,3.694 4.545,12.668 0.003,9.12 -6.638,24.684 -3.733,4.757 -5.308,5.283 -2.665,1.712 -0.029,0.802 1.005,-0.598 m 8.67,-110.751 v 0 l -0.033,5.104 2.186,4.218 4.427,11.453 1.723,1.626 2.08,0.011 2.636,-1.577 12.661,-12.759 -0.323,-2.369 -3.054,-0.008 -1.759,1.661 -1.43,2.38 -6.813,6.833 -2.783,1.737 -2.012,-3.536 -5.428,-14.445 -0.724,-0.62 m -17.012,255.877 v 0 l -2.621,-0.94 -20.35,-1.938 -1.393,1.316 -0.118,1.026 0.466,1.481 1.636,1.093 2.119,2.622 2.191,-2.68 15.053,-0.001 2.004,0.784 1.342,-1.271 m -19.37,318.475 v 0 l 0.512,-1.501 -0.122,-4.056 -1.555,-2.612 -4.753,-2.696 h -2.108 l -3.735,2.678 -2.573,4.63 0.019,2.081 1.986,0.363 3.57,-6.074 0.763,-0.667 1.024,-0.118 1.482,0.466 2.869,2.977 v 3.052 l -3.687,3.776 -7.424,2.48 -0.59,0.695 v 2.045 l 0.575,0.685 8.782,1.779 16.019,-0.135 2.163,-2.057 -17.62,-2.877 m 66.0758,74.586 v 0 l 0.7091,-0.97 0.146,-5.033 -0.1479,-3.026 -0.8369,-1.978 0.1191,-3.055 2.6175,-6.662 0.7787,-0.601 2.9153,1.684 1.0599,0.123 6.0483,-0.123 4.608,-2.553 2.7002,-4.755 -0.0108,-8.08 -3.3251,-3.326 -7.0805,-0.01 -2.6358,1.577 -3.0949,3.095 -6.946,11.88 -1.756,-4.158 -0.987,-0.032 -0.877,0.974 -0.017,4.086 1.853,5.946 -0.133,2.02 -0.837,1.977 0.117,14.057 1.639,4.686 0.704,0.603 1.6574,0.047 1.6897,-2.368 -0.807,-2.032 M -490.796,160.305 v 0 l -6.388,3.407 -2.066,2.063 -3.616,7.666 v 6.118 l 1.617,3.666 4.065,4.063 7.934,3.939 4.69,1.64 2.084,-0.03 -0.322,-1.335 0.507,-0.79 -6.482,-3.959 -5.404,-2.46 -3.108,-3.103 -1.577,-2.636 v -4.108 l 3.553,-6.608 5.783,-3.689 4.085,-0.015 3.666,1.617 2.275,2.274 v 0.949 l -0.974,0.877 -1.03,0.134 h -8.993 l -2.032,-0.808 -2.948,1.815 -0.492,1.932 9.406,1.947 4.124,-0.003 4.863,-1.678 2.054,-1.184 0.507,-1.509 -0.134,-3.023 -2.566,-3.664 -2.039,-2.042 -4.685,-1.636 m 93.938,96.025 v 0 l -1.298,1.343 1.54,1.721 6.765,1.765 9.99,-10e-4 1.977,-0.828 2.027,0.642 2.299,-2.299 -1.273,-1.351 -1.029,-0.134 -5.023,0.133 -1.978,0.837 -5.99,10e-4 m -27.984,334.227 v 0 l -0.503,1.28 0.083,1.64 2.342,1.722 13.943,-1.809 3.54,-0.992 -2.373,-1.916 -1.06,-0.124 -10.991,10e-4 -3.003,0.954 m 239.032,303.052 v 0 l -1.509,0.471 -4.314,3.217 -3.421,-5.893 -2.762,-2.667 -1.026,-0.118 -1.482,0.466 -5.523,5.303 -0.337,-1.327 0.694,-0.947 -0.009,-4.054 -1.846,-0.406 -3.866,13.372 0.018,5.088 1.322,1.323 1.672,0.041 5.569,-10.074 3.785,-3.614 0.749,0.573 1.603,3.729 -2.711,6.942 0.024,4.078 2.971,-0.624 4.941,-6.034 4.835,-3.801 2.879,11.776 0.703,0.019 0.716,-0.585 1.653,-8.836 -2.86,-7.377 m 2.544,-80.209 v 0 l -8.021,5.139 -0.492,1.508 0.441,1.343 3.054,0.009 1.974,-0.821 3.003,0.954 11.991,10e-4 4.205,-1.737 -0.679,-1.147 -12.747,-2.21 4.917,-3.607 5.661,-5.759 0.046,-2.659 -2.369,-1.689 -1.028,0.621 -0.974,-0.651 -2.087,-0.015 -8.373,2.863 0.085,1.533 1.323,1.322 2.052,10e-4 1.978,-0.836 2.296,0.479 -2.61,2.79 m 56.59,82.034 v 0 l -4.226,2.543 -7.687,0.24 -1.689,2.37 1.296,1.379 1.029,0.134 h 5.993 l 1.978,-0.837 2.467,-0.111 2.04,7.427 0.519,0.33 0.706,-0.519 1.771,-7.74 0.5004,-0.386 3.0485,-10e-4 0.9468,0.694 h 1.0546 l 1.3224,-1.313 0.2143,-1.536 9.1946,-2.776 0.5385,-0.72 -1.2709,-1.349 -6.0197,-0.134 -7.9447,1.855 -2.4928,0.098 -2.044,-8.43 -1.156,-0.402 -1.717,2.38 M 10.0009,239.456 v 0 l 0.1303,10.105 2.641,9.859 1.9783,4.805 3.5343,3.585 1.707,2.667 1.5081,0.491 1.3424,-0.44 0.0195,-2.082 -5.1479,-7.259 -1.8474,-3.599 -1.7353,-6.027 -0.1172,-19.055 4.7373,-13.73 5.9635,-7.966 3.136,-3.284 v -2.052 l -1.3488,-1.272 -4.7872,5.608 -1.4301,2.38 -2.5697,2.62 -1.9635,2.966 -3.8058,10.411 M -91.847,704.415 v 0 l 1.7082,2.032 0.0163,3.732 -7.3155,2.685 -1.087,-0.036 -0.1479,-0.628 2.3841,-4.384 2.1026,-2.102 M -234.828,321.459 v 0 l 0.322,1.517 0.98,0.875 4.019,0.135 8.944,-1.852 2.694,0.731 1.627,-2.174 -2.205,-1.553 -5.046,-0.124 -10.792,1.786 m 38.429,129.621 v 0 l -0.279,2.13 -4.112,7.222 -9.596,22.72 1.712,2.372 1.114,-0.365 1.31,-1.323 5.388,-12.43 3.032,-5.452 0.576,0.412 2.168,-1.69 3.069,0.131 1.977,0.837 5.421,0.044 2.062,10.478 -10e-4,5.989 -0.97,3.007 0.142,6.025 2.815,0.421 2.014,-6.456 -10e-4,-9.99 -0.97,-3.007 0.064,-6.551 2.828,-2.12 -2.146,-1.577 -2.312,-23.225 -4.2,-13.244 -0.725,-0.62 h -1.049 l -0.762,0.658 -3.046,5.982 m 11.291,-252.347 v 0 l 3.852,3.833 2.636,1.577 h 3.108 l 2.636,-1.577 3.098,-3.101 3.041,-5.244 2.643,5.527 2.502,2.384 2.326,-0.348 -0.849,-0.551 -1.409,-2.977 -3.245,-10.241 -1.807,-2.713 -1.947,3.955 -1.314,4.271 -3.207,5.225 -2.496,2.379 -1.024,0.119 -3.692,-1.685 -3.06,-3.06 -1.616,-3.666 0.004,-3.113 1.938,-3.593 1.821,-1.707 -0.056,-1.676 -1.341,-0.439 -1.482,0.467 -1.311,1.325 -2.573,5.618 0.004,4.113 m -21.616,420.467 v 0 l -1.372,-1.493 -0.046,-1.661 2.342,-1.729 1.06,-0.123 2.02,0.133 1.979,1.652 0.478,-1.304 -0.132,-2.022 -1.325,-1.325 h -7.052 l -1.759,1.661 -1.577,2.636 v 2.108 l 2.573,4.629 5.791,5.836 0.34,1.508 -1.652,1.758 -2.636,1.577 -5.051,0.123 -2.003,-0.784 -1,0.598 -1.006,-0.6 -0.477,1.305 0.131,2.022 1.326,1.325 9.08,0.011 4.629,-2.573 1.066,-1.064 1.611,-3.665 -0.004,-1.116 -2.567,-4.628 m 44.751,11.707 v 0 l -3.329,-3.34 -2.573,-4.629 -0.004,-3.113 1.616,-3.666 1.101,-1.249 v -2.052 l -1.36,-1.339 -0.622,-10e-4 -2.161,2.688 -2.693,6.684 0.119,2.053 1.552,3.666 4.124,6.06 3.664,2.566 4.022,0.134 1.486,-0.483 3.311,-3.325 4.503,-10.144 4.893,8.725 2.091,-1.436 -2.438,-8.456 -3.057,-5.056 -1.758,-1.652 -1.533,0.364 -1.18,2.058 -3.492,10.651 -2.036,3.953 -1.79,0.8 m 69.3756,175.517 v 0 l -1.6812,2.781 -3.6319,1.584 -3.1169,-10e-4 -3.3275,-1.823 4.578,-7.208 2.7536,-1.696 3.0804,0.01 1.3252,1.326 M -452.769,163.28 v 0 l -6.421,3.435 -8.308,7.283 -1.692,2.578 -1.677,4.864 0.005,2.114 2.573,4.63 4.104,3.103 4.631,2.575 11.112,0.003 3.412,-1.764 2.829,-2.608 -1.303,-0.477 -2.993,-0.001 -3.007,0.97 -8.05,-0.123 -4.63,-2.573 -3.714,-3.156 0.047,-5.659 3.379,-3.497 2.662,-1.692 3.625,-3.572 3.597,-1.847 5.848,-1.648 0.581,-0.694 -0.338,-1.504 -0.977,-0.871 m 393.758,208.029 v 0 l -5.2995,5.322 -1.1177,0.574 -1.5379,2.129 0.1729,0.773 0.9718,0.875 8.0878,0.018 6.0283,-1.716 6.2648,-2.998 -0.3292,-0.997 -1.029,-0.142 -5.0224,0.132 -1.9776,0.837 -3.0185,-0.148 -0.3008,-0.358 3.6852,-6.925 0.1225,-4.05 -0.4825,-1.486 -1.03,-1.041 -2.9181,-1.839 -6.0821,0.019 -0.4405,1.343 0.6999,1.712 6.7341,1.766 0.375,0.497 -0.1563,1.332 M -251.483,596.159 v 0 l -0.498,1.332 0.099,1.676 6.062,2.35 12.31,2.336 3.735,-1.606 0.616,-0.723 -0.553,-1.722 -15.377,-2.394 -4.35,-1.275 m 69.293,-352.711 v 0 l 3.099,15.6 1.035,2.45 1.512,0.497 1.482,-0.467 6.303,-6.312 1.692,-2.662 6.308,-6.338 1.571,-2.635 -0.015,-1.084 -1.313,-1.32 -1.672,-0.041 -2.568,4.074 -11.495,12.506 -2.518,-13.094 -3.955,-10.787 -1.822,-2.607 -1.35,1.272 -0.132,8.022 0.479,1.304 1.756,-1.499 m 47.861,115.177 v 0 l 1.874,10.029 -10e-4,14.989 -0.825,2.046 2.3,13.268 1.527,3.661 1.54,0.371 1.324,-1.316 0.135,-8.019 -1.856,-7.945 -0.116,-4.055 1.992,-9.444 10.237,-2.831 3.229,-2.209 4.379,-5.497 0.011,-6.08 -1.7,-2.756 -4.608,-2.552 h -6.108 l -3.734,2.678 -4.213,9.559 -2.249,-5.594 -0.727,-0.631 -2.051,0.007 m 52.5373,99.453 v 0 l -0.1392,-3.173 -1.9465,-8.365 -0.3864,0.035 -1.3888,1.367 -0.1333,1.029 v 3.993 l 0.8369,1.978 0.1112,3.467 -7.4282,2.036 -0.3839,0.498 -0.0471,1.658 2.3414,1.723 3.0544,-0.825 1.3429,0.441 0.142,6.024 -0.8269,3.031 1.3148,1.315 1.7342,-0.567 1.8791,-9.34 7.8255,-2.97 -0.6373,-1.173 m 90.7103,13.747 v 0 l 0.1476,-2.094 2.7366,-8.884 0.1172,-8.055 -1.7389,-4.731 -0.7225,-0.616 -1.0517,-10e-4 -1.7615,1.658 -2.4226,4.368 -2.1043,2.104 -7.4083,3.466 -0.57361,0.749 1.27124,1.348 4.08033,0.011 4.62954,-2.573 3.3216,-3.09 0.4787,1.305 -0.1152,3.058 -2.7374,10.876 -0.1155,3.058 0.4553,1.339 1.0565,0.007 2.3275,-2.321 m -328.708,288.024 v 0 l -1.864,-3.737 -3.532,-4.584 -4.617,-11.666 -0.12,-13.051 3,-21.43 2.739,-6.304 1.962,-2.963 3.095,-3.095 3.04,-2.191 10e-4,-2.05 -2.351,-2.273 -1.299,1.298 0.597,0.999 -0.323,0.505 -3.973,2.995 -2.788,3.816 -3.89,8.674 -3.81,26.019 0.118,8.054 4.556,12.66 6.121,10.06 3.664,1.548 0.495,-1.329 m 198.723,-402.703 v 0 l -2.221,3.227 -3.944,2.827 -5.023,0.133 -1.332,-0.511 3.514,-9.627 2.761,-1.708 3.08,0.01 3.372,2.719 m -108.919,452.601 v 0 l -0.963,3.035 0.146,2.021 0.813,-0.025 2.239,-2.231 1.655,-6.706 0.213,-2.613 10.163,-3.721 0.576,-0.758 -1.689,-2.367 -0.587,-0.085 -2.107,0.113 -5.906,1.704 -0.369,-0.314 -0.015,-3.047 0.837,-1.977 v -5.994 l -0.482,-1.484 -0.976,-0.861 -1.507,0.339 -0.872,0.976 -0.236,12.592 -8.172,2.714 -1.539,1.721 2.273,2.351 2.022,0.133 1.978,-0.836 2.054,0.009 0.456,1.346 m 28.012,-92.976 v 0 l 1.502,-0.511 2.345,0.456 0.008,4.054 -4.325,4.325 -3.08,0.01 -2.205,-1.552 1.474,-2.499 m 48.306,156.722 v 0 l 0.812,-2.07 -2.501,-7.623 -3.201,-4.704 h -0.622 l -1.332,1.393 3.685,6.918 0.124,1.06 -0.124,9.048 -1.718,2.891 0.022,1.085 1.361,0.312 1.516,-0.888 1.822,-3.396 M -270.574,167.15 v 0 l 2.417,0.322 0.019,3.082 -3.574,6.63 -3.733,2.672 -1.085,-0.022 -0.454,-1.338 0.122,-3.05 3.936,-6.579 m 71.947,381.662 v 0 l -1.545,-0.374 -1.318,1.317 0.338,1.507 2.22,2.729 0.786,-0.506 1.039,0.636 8.966,-1.824 14.989,10e-4 3.008,0.969 2.296,-0.479 -0.598,-1.003 0.497,-0.751 -5.145,-2.613 -15.051,-0.123 -3.007,0.97 h -5.992 m 100.2173,193.244 v 0 l -2.6923,-10.729 2.0112,-15.453 10.314,-2.836 2.1188,-1.19 1.3783,-1.495 0.0143,-8.085 -1.6187,-3.666 -0.7238,-0.626 -5.0775,-0.011 -2.6357,1.577 -4.0979,4.1 -2.421,3.894 -1.764,-1.551 -1.37,0.314 -0.025,35.088 2.572,6.609 0.772,0.681 1.024,0.119 1.48,-0.467 0.8619,-0.975 -0.6412,-2.027 0.6514,-0.974 m 14.318,-577.076 v 0 l -0.3016,3.112 -1.8547,6.944 0.0019,4.99 0.4841,1.358 1.5005,-1.202 2.9846,-13.159 -0.4573,-2.335 M -95.55,360.83 v 0 l 2.0405,0.152 1.3518,-0.454 0.0086,-2.054 -1.3249,-1.325 -2.369,0.323 -0.1406,2.024 m 21.2353,-13.759 v 0 l -7.0035,-2.451 1.6183,-2.183 4.6875,0.035 3.2872,2.337 -0.8615,2.028 m 20.8106,30.975 v 0 l -0.5931,0.027 M -198.185,730.28 v 0 l -1.035,-1.02 -1.627,-5.747 1.716,-2.378 2.635,0.85 4.05,-0.123 3.946,-2.862 1.785,-1.81 1.577,-2.636 -0.011,-6.08 -3.325,-3.326 -5.08,-0.01 -2.636,1.577 -4.095,4.095 -1.966,2.97 -1.101,2.957 -1.516,4.702 -0.118,3.055 1.758,5.755 2.066,3.06 7.603,3.556 6.055,0.119 1.344,-0.453 0.116,-1.483 -9.17,-2.793 M 89.5431,587 v 0 l -8.0709,0.157 -0.3233,2.369 1.3246,1.325 1.03,0.134 h 18.9925 l 1.486,-0.483 1.817,-2.002 -2.272,-2.342 -3.031,0.827 m -247.945,193.094 v 0 l -1.796,-4.54 -2.502,-8.753 -0.729,-0.627 -1.052,-10e-4 -1.324,1.315 -0.134,3.02 2.65,8.704 3.048,5.987 2.76,2.658 1.507,-0.34 0.844,-1.03 M -350.455,685.175 v 0 l -2.067,-0.319 -0.952,-0.708 -2.088,-0.018 -20.329,2.837 -5.356,1.806 -0.55,0.73 2.488,3.256 2.787,-1.582 0.505,1.327 -0.991,9.471 -2.063,37.602 -0.915,5.929 10e-4,5.99 0.837,1.978 0.133,2.019 -1.956,12.008 0.288,1.303 1.55,2.093 9.693,-0.03 4.686,-1.636 1.596,-1.704 -0.336,-1.328 -1.006,0.6 -2.004,-0.784 -3.022,0.132 -0.974,0.652 -1,-0.598 -0.974,0.651 -2.424,0.133 -2.073,-18.485 2.132,-20.999 1.913,-36.525 17.719,-3.452 4.674,-1.511 m 169.575,-129.536 v 0 l -0.894,0.992 -0.134,3.024 1.797,23.81 1.689,0.666 1.48,-0.467 0.862,-1.045 -1.924,-23.76 -0.9,-3.164 -1.55,-0.376 m 11.23,-191.327 v 0 l -0.503,0.661 0.306,0.485 5.004,4.824 0.387,-1.959 -1.609,-1.525 2.213,-0.299 1.347,0.455 0.142,8.024 -0.97,3.007 0.001,4.993 0.479,1.304 1.722,-1.536 2.866,-16.239 3.443,0.122 0.974,0.652 1,-0.598 0.972,0.642 1.057,-0.008 0.326,-1.39 -1.722,-2.343 -6.088,-0.146 -2.83,-12.223 -1.72,-1.534 -0.479,1.305 -0.001,4.993 0.837,1.977 0.111,4.467 m 5.036,68.516 v 0 l -0.143,2.063 -0.841,1.983 0.001,8.993 0.478,1.304 1.501,-0.827 1.991,-5.479 v -10.987 l -1.774,-7.775 -1.343,-0.597 -1.716,2.378 1.716,5.925 m 16.173,-252.961 v 0 l -0.894,0.992 -0.133,1.035 0.001,9.992 0.487,1.361 2.18,-2.052 0.303,-1.311 -0.144,-10.022 -1.374,-0.315 m -38.017,623.886 v 0 l 4.411,-6.489 0.137,-2.054 -0.107,-2.644 -4.336,-2.712 -7.135,1.746 -2.553,1.186 -4.161,4.747 -2.573,5.618 v 9.117 l 1.619,3.67 4.962,6.962 2.095,2.095 2.635,1.571 2.055,-0.857 1.342,-1.472 -0.001,-1.052 -3.031,-2.19 -4.095,-4.095 -1.943,-2.941 -1.627,-4.755 1.848,-8.276 0.698,-1.374 3.119,-3.129 2.636,-1.577 3.05,-0.122 1.327,0.505 -1.538,2.669 -3.039,3.041 -4.714,1.751 -0.516,1.521 0.133,2.023 1.323,1.316 h 1.056 l 1.248,-1.092 m 139.225,-18.207 v 0 l -0.1334,-6.104 -3.6207,-9.663 -1.2417,-0.677 -1.8677,4.34 0.0329,1.087 1.1365,-0.24 0.7134,1.064 1.8448,7.087 -0.7173,2.037 -0.1986,3.498 -5.2713,1.873 -1.5958,3.099 5.9074,2.484 -0.1375,3.098 -0.7172,1.605 2.182,1.629 3.4756,-9.029 7.1294,-2.204 4.2621,-2.239 1.6153,-1.788 -1.2701,-1.342 -1.0886,-0.019 -6.8819,2.727 -2.0548,0.117 -1.3465,-0.455 M -19,367.543 v 0 l 0.149,-10.066 3.7368,-2.435 -0.3865,-1.025 -1.4156,-1.007 -2.0629,-9.474 -0.5223,-0.331 -2.3216,3.266 0.6223,1.029 -0.6518,0.974 -0.1801,4.459 -7.9516,2.489 0.4814,1.558 0.9764,0.871 4.0229,0.134 2.0092,-0.785 0.3245,0.275 -0.8151,3.028 v 10.993 l 0.4823,1.485 0.9752,0.861 h 1.0549 l 1.3239,-1.316 M -6.83661,175.459 v 0 l -3.03094,11.98 0.19244,5.28 4.51013,-16.181 -0.8612,-1.037 M -368.1,944.875 v 0 l -2.406,-1.717 -11.001,2.827 -2.021,-0.143 -0.339,-1.405 3.79,-27.239 2.196,-44.192 3.378,0.009 1.977,0.837 3.022,0.132 1.339,-0.455 0.007,-1.057 -1.592,-1.699 -17.255,-2.854 -1.469,-0.739 -1.368,1.293 0.936,2.696 5.845,2.833 0.06,1.503 -0.013,33.988 -3.168,18.006 -1.689,13.938 0.028,8.091 1.347,0.456 8.058,-0.115 9.649,-2.613 0.638,-0.731 M -183,448.457 v 0 l -0.163,12.064 -11.58,-1.277 1.946,-3.799 5.523,-19.8 0.773,-1.5 3.37,11.293 m 41.298,-221.947 v 0 l 0.804,0.014 2.828,-3.005 -0.628,-1.034 1.695,-3.907 -0.004,-4.113 -2.065,-3.131 -2.665,13.123 m 11.753,659.088 v 0 l -1.745,-12.942 -1.927,-7.995 -2.191,-4.062 -1.495,-1.369 -1.37,0.314 -0.019,4.082 1.981,4.577 1.751,8.307 0.116,12.055 -3.797,26.523 -2.088,8.562 -2.963,4.868 -0.121,2.05 0.455,1.346 2.052,0.008 0.759,-0.66 3.932,-6.784 2.11,-8.828 3.544,-19.017 -0.017,-3.087 -0.687,-1.013 M -238.999,464.456 v 0 l -0.871,6.106 2.602,12.864 1.755,4.51 1.491,2.536 7.889,8.424 1.661,-0.047 1.323,-1.323 v -2.052 l -7.139,-7.29 -2.761,-5.411 -1.821,-8.211 -0.116,-9.055 2.835,-15.034 4.864,-9.659 2.002,-3.004 2.574,-2.626 2.534,-4.656 -1.297,-1.379 h -2.052 l -1.759,1.661 -5.002,7.004 -4.211,8.183 -1.742,3.658 -0.918,3.379 M -91.1843,242.436 v 0 l 15.0331,2.585 1.5972,0.834 1.5337,-0.352 0.8623,-0.976 -0.37,-1.538 -2.3533,-1.001 -16.2587,-2.579 -5.2979,-1.273 -1.5416,0.361 -0.82,1.003 1.5337,1.716 M -405.231,931.72 v 0 l 3.73,-1.732 -1.304,-0.938 -13.698,-2.02 -1.478,0.467 -0.868,0.974 -0.071,1.575 3.362,1.819 m 11.412,-16.362 v 0 l -1.328,-1.354 -1.029,-0.134 -3.058,0.117 -4.878,1.731 -3.088,-0.705 -1.324,1.315 v 3.053 l 1.387,1.306 8.903,-2.699 2.087,0.015 0.975,0.651 1.35,-1.273 m 46.307,-738.071 v 0 l -5.026,19.984 -0.116,3.057 0.479,1.304 1.756,-1.578 1.251,-3.297 3.367,-12.364 -0.027,-7.089 m 230.361,624.192 v 0 l 1.346,0.196 2.641,-1.575 2.661,-2.759 v -5.052 l -2.325,-2.325 -2.08,-0.011 -2.466,1.933 -3.729,1.658 1.611,2.717 0.241,3.687 M -320.45,212.162 v 0 l -7.043,-0.148 -14.447,2.088 0.717,1.149 3.207,2.191 0.016,38.058 -0.131,3.062 -2.615,11.88 -1.12,2.999 -0.091,2.513 6.395,1.915 7.695,0.029 2.556,-3.101 -12.459,-2.494 2.756,-12.81 0.042,-42.416 15.236,-2.864 0.533,-0.716 M -8.45679,214 v 0 l -5.10391,-0.132 -4.8788,-1.736 -2.0565,-0.115 -1.3452,0.453 -0.0394,1.696 5.6532,2.211 10.17503,2.649 0.03711,6.47 -0.96973,3.007 6.1e-4,4.993 0.45661,1.346 2.05389,0.009 1.31592,-1.324 -0.69427,-2.001 -0.13269,-3.023 0.9696,-3.007 0.07965,-6.499 8.33887,-2.838 1.35583,-0.843 -1.47448,-2.024 -1.78803,0.693 M -394.503,375.145 v 0 l 2.007,0.84 14.057,-0.118 6.608,-2.571 0.681,-0.772 10e-4,-2.05 -1.351,-1.273 -1.232,1.014 -7.775,1.771 -7.99,-10e-4 -3.007,-0.97 -5.022,0.134 -1.316,1.324 0.339,1.507 0.977,0.871 m -21.433,370.626 v 0 l -0.843,1.018 1.276,1.356 1.029,0.134 14.993,-10e-4 1.339,-0.455 -0.332,-1.509 -0.977,-0.872 -1.03,-0.133 h -13.992 M 163.853,562.578 v 0 l 0.162,-7.075 0.97,-3.007 v -11.993 l -0.483,-1.484 -1.011,-0.884 h -0.622 l -1.731,2.311 0.01,2.08 0.837,1.977 10e-4,4.99 -1.97,14.003 0.481,1.485 1.545,0.905 m 15.98,-227.357 v 0 l -1.52,-0.514 -4.028,0.134 -1.273,1.351 1.52,1.707 8.247,1.862 0.018,9.424 -1.972,10.014 0.143,8.021 1.385,0.44 1.313,-0.995 2.016,-14.41 0.208,-12.61 4.776,-2.799 0.001,-0.652 -3.797,-0.539 -1.929,-7.401 -0.233,-9.695 -2.376,-1.69 -0.505,1.327 -0.001,9.993 0.837,1.977 0.132,4.022 -0.457,1.346 m 6.631,-144.408 v 0 l -0.01,2.085 0.631,0.73 6.662,2.617 2.455,0.149 3.09,26.492 -10e-4,8.989 -0.97,3.007 -10e-4,12.99 1.856,8.945 0.116,5.056 -2.852,8.947 -0.171,2.5 -7.401,1.929 -3.086,-0.018 -0.761,-0.56 -1.571,2.154 0.014,1.083 1.316,1.322 1.029,0.134 5.023,-0.133 1.974,-0.821 2,0.768 0.972,-0.642 h 1.055 l 0.97,0.64 0.721,-0.539 3.768,-16.765 -0.117,-6.055 -1.855,-7.945 10e-4,-12.99 0.97,-3.007 0.014,-7.996 -1.985,-12.007 10e-4,-13.99 0.782,-2.001 -0.573,-0.748 -3.665,-1.615 -2.06,0.66 -1.998,-1.598 -1.002,0.598 -1.999,-1.598 -1.658,0.662 M 151.543,770 v 0 l -3.066,-0.163 -0.3,-0.358 5.536,-11.663 0.763,-0.667 2.657,-0.047 1.729,2.344 v 5.108 l -3.338,5.297 M 232,275.543 v 0 l 0.015,-7.04 0.955,-3 -2.054,-10.435 -1.128,0.663 -2.247,8.144 -1.255,2.312 -2.788,3.611 -1.35,-1.272 -0.011,-4.08 1.578,-2.636 3.136,-3.284 -0.009,-2.054 -1.975,-0.368 -4.117,4.671 -1.616,3.666 0.004,5.113 1.854,2.923 2.504,0.507 1.486,-0.482 3.043,-3.001 0.813,-0.025 0.147,11.02 -0.954,3.004 0.472,1.357 3.348,-3.331 m 5.327,-86.072 v 0 l -0.098,1.585 2.313,0.867 15.589,2.191 -0.13,3.429 -0.837,1.977 -10e-4,42.99 2.972,22.014 -0.002,7.989 -0.479,1.304 -2.009,-0.785 -7.211,0.296 4.137,2.795 6.038,1.728 0.786,-0.61 1.619,-3.665 0.134,-2.059 -0.013,-7.993 -2.972,-21.014 10e-4,-42.99 0.97,-3.006 -0.134,-4.02 -0.626,-0.724 -3.666,-1.619 -4.056,-0.119 -3.007,0.97 -4.991,10e-4 -3.988,-1.812 m -40.998,655.714 v 0 l -12.933,-2.627 -3.028,-1.127 -3.086,0.023 -0.443,1.39 2.051,1.946 1.518,0.72 14.171,3.505 -0.645,3.158 -2.129,40.79 -3.755,24.945 -1.709,4.274 -1.005,-0.738 -5.022,-0.131 -1.347,0.456 -0.14,1.028 0.085,1.632 2.1,1.539 2.357,-0.532 4.601,1.943 1.549,1.628 1.424,-0.784 1.689,-2.398 -0.791,-2.028 0.938,-3 -0.807,-2.041 2.04,-10.445 1.785,-12.675 3.012,-46.839 -0.156,-3.028 M 206.456,691 v 0 l 6.071,-0.157 0.324,-2.369 -1.325,-1.326 -8.022,-0.133 -1.978,0.837 -2.026,0.147 -4.026,-0.147 -0.975,-0.651 -1.35,1.273 v 2.052 l 1.324,1.325 6.023,0.134 1.978,-0.837 M 177.138,419.43 v 0 l -5.215,13.702 -2.764,2.343 0.693,1.999 0.01,2.08 -6.188,12.22 -3.497,8.699 2.295,2.369 1.777,-0.621 2.425,-6.447 6.187,-12.218 0.243,-1.716 1.606,-1.55 -0.506,-0.789 0.333,-0.524 12.439,-2.082 -0.015,-0.819 -10.722,-2.795 7.514,-17.973 0.462,0.431 1.17,4.983 2.601,12.784 -10e-4,6.991 -0.97,3.006 0.119,10.055 2.866,7.377 1.529,-0.086 1.322,-1.323 0.011,-4.08 -1.724,-2.892 -0.124,-1.06 0.134,-5.02 0.837,-1.978 -0.116,-12.058 -5.768,-29.125 -1.543,-2.286 -1.777,0.714 -2.41,9.495 m -18.868,264.91 v 0 l -2.792,2.67 -5.709,9.659 -0.84,0.049 -0.145,-1.028 0.13,-2.022 0.653,-0.98 -0.276,-0.331 -2.05,-0.014 -1.273,1.35 0.784,2.004 10e-4,10.99 -2.972,15.013 0.134,4.02 1.325,1.316 1.759,-0.602 4.397,-20.411 2.058,-4.589 6.759,3.622 3.08,-0.011 3.772,-3.681 2.564,-6.608 -0.145,-1.334 -2.424,-5.405 -2.103,-2.108 -2.636,-1.577 M 150,884.456 v 0 l -0.149,4.068 -0.668,0.763 -4.629,2.575 -4.05,0.122 -1.347,-0.456 -0.023,-2.087 3.551,-8.694 2.173,-3.64 2.286,10e-4 2.718,4.338 m 12.637,-189.584 v 0 l -4.321,-3.392 4.539,-7.66 0.758,-0.651 1.052,-10e-4 2.758,2.652 1.571,2.634 0.004,1.116 -2.854,5.917 -1.534,0.365 m 48.666,-97.411 v 0 l -0.633,1.55 -6.979,6.87 -2.05,-10e-4 -0.759,-0.66 -1.964,-2.962 -1.619,-3.669 0.004,-10.113 1.577,-2.636 2.127,-2.283 -0.34,-1.507 -0.975,-0.862 -1.535,0.365 -3.041,4.783 -1.816,7.13 1.781,8.256 1.797,3.493 3.097,3.1 2.634,1.571 h 1.112 l 5.914,-3.832 5.596,-6.947 3.643,9.1 1.422,0.688 1.711,-2.372 -4.671,-14.959 0.798,-2.034 -0.467,-1.481 -0.976,-0.87 -1.026,-0.118 -1.707,0.693 m 16.208,-133.268 v 0 l 0.147,6.07 1.768,1.405 1.954,-9.368 0.232,-4.696 2.671,-2.114 16.413,-7.467 4.673,-3.144 -0.003,-0.64 -1.36,-0.486 -3.05,0.122 -17.671,7.612 -1.009,0.945 -1.746,-4.16 -0.952,-0.46 -2.929,9.37 -0.036,1.703 1.764,1.707 -0.719,1.618 m -80.977,401.98 v 0 l 3.523,20.096 3.595,14.974 2.697,14.983 -0.119,13.054 -2.57,6.611 -6.135,10.329 1.705,2.395 0.585,0.076 1.834,-0.788 4.001,-6.998 2.92,-5.738 1.66,-4.887 0.119,-16.053 -1.806,-10.486 -7.691,-32.976 -1.459,-4.509 -1.53,-1.336 m 6.001,-78.338 v 0 l 1.788,-1.678 2.573,-4.63 0.137,-2.054 -0.137,-7.054 -1.697,-2.754 -2.611,-1.555 -6.08,0.011 -2.496,2.379 -6.197,13.484 -1.751,-3.475 -1.528,-1.334 -0.788,0.615 -2.537,4.655 2.674,3.001 0.135,9.021 -4.852,16.947 -0.118,9.055 0.454,1.345 1.726,0.029 0.76,-1.122 3.682,-16.052 5.089,-16.916 1.246,-1.301 1.53,0.506 h 5.993 M 237.479,356.96 v 0 l 0.986,0.89 1.454,0.174 2.059,10.439 0.525,0.334 1.348,-1.271 0.228,-10.573 11.105,-5.665 3.712,-3.155 -0.055,-1.663 -1.345,-0.453 -2.05,0.121 -10.763,5.622 -3.392,-8.924 -1.744,-1.806 -1.077,0.129 -0.454,1.345 0.118,2.055 2.646,8.765 -3.641,2.535 m -82.14,529.684 v 0 l -0.132,-3.104 -2.569,-6.609 -2.108,-2.115 -2.636,-1.577 -1.06,-0.123 -2.048,0.123 -3.735,2.678 -5.383,11.21 -1.83,-1.824 -1.35,1.272 -0.133,3.022 0.827,3.031 -1.665,2.001 1.673,2.988 -1.836,9.991 v 8.986 l 1.736,4.732 1.722,1.617 1.508,-0.339 0.871,-0.977 0.134,-1.03 0.051,-21.435 10.096,-2.7 4.052,-2.073 2.065,-2.063 1.616,-3.666 m 71.65,-497.77 v 0 l -2.019,-0.774 h -4.993 l -1.977,0.837 -2.02,0.133 -4.948,-1.851 -2.054,-0.117 -1.339,0.454 0.634,2.029 -0.597,1.003 0.85,0.542 1.844,2.867 1.957,-1.81 2.989,0.37 0.009,2.052 -0.562,0.767 1.693,2.166 0.003,13.039 -0.97,3.007 0.001,4.993 0.453,1.344 1.531,0.096 1.986,-5.442 -10e-4,-17.991 -0.94,-3.457 10.7,-2.784 -1.461,-1.97 M 236,550.543 v 0 l -0.131,-4.105 -1.658,-6.706 -0.742,-0.553 -2.367,1.688 -0.088,6.626 2.09,14.484 0.933,-0.06 1.828,-3.359 m -84.867,-20.085 v 0 l 2.555,0.388 1.867,-0.971 7.087,-1.875 2.019,0.133 1.977,0.837 5.025,-0.142 0.357,-1.999 -5.326,-2.71 -7.12,-0.002 -4.887,1.661 -3.736,1.921 -0.657,0.761 -0.001,1.052 M 172.17,202.45 v 0 l -0.039,2.108 2.271,9.142 5.456,28.799 -2.458,12.687 -2.071,6.979 -2.139,3.12 -5.086,3.582 0.055,1.663 1.338,0.439 5.748,-1.737 3.976,-4.973 3.765,-17.766 -0.12,-12.052 -2.252,-7.185 -3.226,-15.51 -1.923,-6.69 -1.414,-2.972 m 39.507,705.862 v 0 l -3.42,5.5 -0.001,4.108 1.697,2.753 2.612,1.555 h 2.108 l 2.924,-1.685 0.359,0.301 0.03,4.082 -3.853,13.946 0.134,4.02 1.326,1.325 h 2.052 l 1.325,-1.325 0.001,-2.052 -0.685,-1.011 2.239,-8.272 2.464,-13.629 -0.001,-6.124 -1.915,-6.394 -1.484,0.107 -1.202,1.063 M 139.209,769.522 v 0 l 0.593,-0.027 M 127.04,690.477 v 0 l -1.891,1.996 -0.001,3.053 2.326,2.325 h 2.052 l 1.607,-0.925 1.728,-2.373 -0.011,-2.077 -3.296,-2.338 M -365,581.543 v 0 l -0.148,-3.07 -0.837,-1.977 -10e-4,-4.989 2.846,-21.005 -1.699,-8.967 1.339,-0.503 1.974,0.82 3.052,-10e-4 1.271,-1.348 -0.551,-0.731 -5.752,-1.758 -5.022,0.143 -0.443,1.39 1.838,2.307 -0.731,2.708 1.722,5.944 -2.844,21.001 1.986,32.993 -0.015,4.996 -0.954,3.004 0.808,2.041 -1.825,9.966 0.004,16.036 1.757,1.728 3.666,1.595 4.056,0.119 1.484,-0.482 0.87,-0.977 -0.014,-2.05 -3.397,0.391 -4.686,-1.638 -0.739,-1.732 -10e-4,-9.99 1.972,-12.014 -10e-4,-12.99 -0.97,-3.007 m 10.986,-194.039 v 0 l 0.067,2.552 10.369,2.856 1.365,-0.178 3.039,-2.162 -0.335,-1.326 -1.046,0.638 -7.15,-1.729 -2.218,-1.037 1.775,-12.508 -0.837,-3.06 1.107,-5.258 2.899,-22.671 1.934,-28.424 2.089,-11.113 6.437,-0.022 3.033,0.82 0.313,-1.363 -0.824,-1.373 -12.455,-1.97 -2.398,0.341 0.148,1.332 1.549,2.644 0.124,5.047 -0.961,5.683 -2.027,27.462 m 340.46245,78.378 v 0 l 3.06384,0.146 -0.33533,1.12 -2.63488,1.58 -3.07818,-0.024 0.0247,-0.813 1.51698,-1.527 M 120.854,777.456 v 0 l 0.64,1.524 0.978,0.862 1.508,-0.339 0.871,-0.977 -0.001,-2.05 -3.295,-2.332 -1.397,0.328 -0.01,2.053 m 93.98,137.974 v 0 l 2.373,-3.297 0.999,0.597 0.972,-0.642 1.362,0.313 -0.147,1.332 -1.402,2.388 -2.785,2.609 -1.351,-1.272 m -16.36,-605.848 v 0 l 2.656,-1.541 3.116,-0.006 8.674,2.509 5.21,2.215 1.355,-0.351 -1.88,-2.647 -2.001,-1.353 -11.358,-3.374 -4.115,0.007 -2.344,1.729 0.061,2.655 m 86.039,-76.214 v 0 l -2.673,1.668 -1.822,1.847 -6.461,15.401 -0.748,0.573 -0.999,-0.593 -0.342,0.333 2.065,30.103 0.655,1.247 1.653,-0.046 0.454,-1.345 -0.132,-4.022 -0.837,-1.978 -10e-4,-9.989 1.71,-9.716 11.516,-2.558 2.95,-1.948 2.098,-2.101 2.574,-4.63 v -4.108 l -1.839,-2.918 -2.839,-2.817 -4.63,-2.573 m -41.643,623.881 v 0 l 4.075,26.487 -0.117,19.055 -5.704,23.9 0.678,1.011 -0.008,1.057 -3.332,0.455 -1.977,-0.836 h -4.052 l -1.316,1.324 0.001,1.053 1.935,1.427 10.343,1.914 1.758,-0.573 2.273,-16.136 3.518,-15.664 v -17.987 l -2.856,-16.944 -0.209,-10.608 -4.467,-2.169 -7.896,-2.651 -4.085,0.014 -1.27,1.349 0.552,0.731 m 19.766,-92.207 v 0 l -2.806,-2.831 -3.538,-5.669 1.326,-0.505 3.023,0.132 2.001,1.674 2.368,-1.69 -0.424,-2.146 -4.977,-1.972 -4.053,0.12 -3.666,1.619 -0.626,0.724 0.009,2.048 0.885,0.519 3.672,6.146 3.57,3.62 4.538,6.662 -2.297,2.379 -1.03,0.134 -4.05,-0.123 -6.891,-3.719 -1.535,0.354 -0.862,0.975 v 1.055 l 1.657,1.761 7.626,3.577 5.113,-0.003 3.578,-1.939 1.73,-2.37 -0.011,-5.08 M 258,603.543 v 0 l 0.129,-7.106 5.24,-29.061 3.756,-38.485 0.846,-2.441 -2.417,-2.312 -1.06,-0.124 -8.021,0.134 -1.323,1.323 -0.046,1.662 2.341,1.723 3.055,-0.825 1.343,0.441 0.143,11.021 -2.531,24.523 -4.704,28.552 -2.552,24.718 -1.702,0.699 -10.63,0.117 -1.688,2.368 0.596,0.776 4.731,1.74 6.055,-0.117 5.647,-1.602 0.818,-2.166 1.844,-10.539 m -4.32,74.608 v 0 l -12.109,-0.036 -3.666,1.616 -1.627,1.724 -0.01,3.08 1.577,2.636 9.787,9.828 0.466,1.482 -0.441,1.343 -4.086,0.022 -5.373,-2.349 -5.514,-3.378 -2.535,0.359 -0.861,0.975 0.339,1.509 4.275,3.266 7.674,3.615 6.05,0.123 1.486,-0.483 2.869,-2.976 0.011,-3.08 -1.577,-2.636 -9.787,-9.829 -0.339,-1.506 0.616,-0.722 3.666,-1.619 6.055,-0.119 2.004,0.784 1.351,-1.273 m 32.645,-434.403 v 0 l -2.942,1.739 -5.05,0.122 -1.347,-0.456 -0.019,-2.082 4.357,-9.413 1.981,-2.884 2.078,-0.011 2.636,1.577 2.661,2.759 0.011,4.08 -1.839,2.918 -1.501,1.39 m -529.523,512.684 v 0 l -0.096,-1.682 -2.373,-1.685 -0.776,0.596 -1.614,3.665 2.071,7.567 1.874,9.925 1.417,-0.951 0.483,-1.484 v -9.994 l -0.837,-1.977 M 269.979,396.532 v 0 l -1,-2.035 -1.504,-0.338 -0.722,0.616 -1.6,3.725 1.597,3.725 1.101,1.249 0.134,9.022 -0.837,1.978 -0.132,2.022 0.453,1.344 1.098,0.137 2.3,-4.417 0.119,-1.066 -10e-4,-8.991 -0.837,-1.977 m 2.682,-67.976 v 0 l 0.318,-4.076 0.694,-0.945 0.023,-1.092 -1.687,-7.147 -2.893,-6.473 -0.787,-0.615 -0.998,0.597 -1.002,-0.596 -0.203,0.561 2.789,6.541 1.781,7.132 -0.85,3.066 0.142,3.025 1.342,0.44 m -3.484,271.495 v 0 l 0.123,5.091 1.696,2.754 2.666,1.53 2.69,-1.553 2.528,-3.474 0.789,-0.61 0.331,0.275 0.029,4.085 -2.853,10.945 10e-4,6.99 1.005,2.007 1.505,0.338 2.342,-2.737 0.584,-0.076 2.022,0.815 3.03,-0.828 5.058,0.116 6.945,1.855 2.99,-0.002 1.327,-0.506 -2.655,-4.014 3.716,-19.118 6.442,-16.09 3.181,-9.293 2.701,-9.271 1.205,-6.64 2.456,-38.489 -0.68,-1.846 -2.635,-1.579 -1.06,-0.124 -4.02,0.134 -1.978,0.837 -4.022,-0.133 -0.974,-0.651 -1.997,0.769 -10.94,-1.837 -1.398,0.338 0.333,1.51 1.218,1.223 10.791,1.782 6.989,-10e-4 1.978,-0.837 3.022,-0.132 1.346,0.456 0.128,1.025 -1.983,32.892 -1.587,9.791 -3.184,11.278 -9.4,24.882 -3.583,17.897 -0.707,0.603 -1.09,0.028 -14.418,-1.964 0.114,-2.464 3.181,-12.892 2.557,-13.986 -0.019,-2.088 -0.871,-0.977 -1.505,-0.339 -1.975,2.006 -1.973,-2.005 -4.752,1.591 -4.068,4.073 m -4.829,55.309 v 0 l -1.701,2.34 1.622,2.027 -0.598,1.005 2.358,-0.364 3.204,1.569 -3.585,7.769 1.983,-0.557 1.55,-1.624 0.478,0.403 1.787,14.762 0.528,0.335 2.347,-2.271 0.134,-1.03 -0.12,-12.055 -1.801,-4.339 10.922,-2.572 -0.089,-0.611 -13.078,-2.819 m -399.341,65.109 v 0 l 0.027,0.594 M 103.532,693.02 v 0 l -2.061,0.803 -2.6611,-1.539 -3.6094,-3.784 1.5743,-1.749 3.6652,-1.611 1.116,0.004 2.634,1.571 1.661,1.759 -0.008,4.054 m -333.321,-348.55 v 0 l -1.364,1.495 0.313,1.362 1.057,0.007 3.948,-2.834 0.509,-1.511 -0.114,-5.06 -1.67,-9.721 -0.678,-0.557 -1.366,0.313 -0.141,1.032 -0.001,6.992 0.837,1.978 0.133,4.023 -0.482,1.484 m 417.214,421.288 v 0 l -3.245,-0.112 -0.323,2.367 2.427,1.666 4.863,1.677 13.055,0.118 1.31,-0.302 2.089,-1.553 v -1.261 l -2.339,-1.731 -2.08,0.01 -1.978,0.837 -7.99,10e-4 M 511,752.456 v 0 l -0.149,37.07 -1.351,1.273 -2.004,-0.784 -7.05,0.123 -2.342,1.729 0.046,1.661 1.323,1.323 4.053,10e-4 0.974,-0.651 2.003,0.784 6.504,-0.051 2.861,-9.373 0.116,-8.058 -0.969,-3.006 -0.014,-6.997 0.147,-2.026 0.836,-1.978 0.002,-4.989 -1.972,-24.014 10e-4,-12.989 0.827,-3.031 -1.583,-1.694 -11.232,-3.281 -5.5,-2.32 -1.327,1.321 0.88,1.644 3.695,2.18 6.666,2.542 2.451,0.147 2.094,22.495 m 27.87,-436.928 v 0 l 3.011,-11.018 0.117,-4.057 -0.455,-1.339 -1.51,0.333 -1.252,1.258 -5.635,19.683 0.03,8.085 1.9,-0.582 m -0.59,67.063 v 0 l 8.705,3.702 1.664,1.763 -1.908,56.915 -1.7,13.45 -9.73,-1.819 -2.006,1.004 -0.338,1.504 0.601,0.708 3.697,1.051 9.039,1.701 1.73,-0.738 0.778,-3.437 3.181,-69.221 0.645,-2.053 -1.653,-1.828 -5.405,-2.46 -3.243,-2.07 -1.03,0.622 -3.274,-2.113 -3.691,-1.515 -1.034,0.628 -2,-1.598 -1,0.598 -1.006,-0.6 -0.413,1.847 M 421.17,289.45 v 0 l -0.04,2.11 2.973,19.38 0.355,-0.042 1.393,-1.372 0.134,-1.03 -0.118,-14.057 -1.638,-4.685 -1.728,-0.723 m -9.002,144.107 v 0 l -3.784,3.672 -1.692,2.662 -2.308,2.338 -1.538,2.668 1.327,0.505 2.02,-0.132 2.191,-3.041 4.485,-4.498 2.255,11.586 0.739,-0.603 1.766,-14.754 0.891,-1.015 -0.009,-2.054 -2.368,-0.323 -2.948,2.712 m -14.525,240.596 v 0 l 0.143,2.063 0.841,1.984 10e-4,6.989 -1.972,8.013 v 11.988 l 0.298,1.308 2.19,2.996 2.349,-2.272 0.134,-7.023 -0.851,-3.066 1.649,-8.204 1.701,-5.178 4.27,-9.279 0.749,-0.574 1.543,1.841 3.395,1.822 5.113,-0.003 2.636,-1.577 3.095,-3.095 1.577,-2.636 0.123,-4.051 -0.483,-1.485 -2.03,-2.041 -2.918,-1.839 -3.113,-0.004 -3.669,1.619 -2.962,1.962 -5.095,5.095 -4.468,7.882 -0.453,-0.418 -2.562,-10.514 -0.709,-0.61 -2.044,0.013 -0.199,0.582 1.587,4.694 m 128.147,117.024 v 0 l -2.998,15.033 0.481,1.485 0.977,0.87 2.048,-10e-4 0.498,-0.384 3.25,-10.043 2.524,-12.698 0.709,-0.522 0.971,0.649 2.088,0.017 7.131,-1.82 1.611,-0.882 2.984,-3.983 3.577,-7.626 0.032,-5.691 -2.344,-1.729 -7.053,-0.137 -2.054,0.137 -2.917,1.838 -2.816,3.838 -4.201,7.372 -2.014,-1.984 -1.35,1.271 -10e-4,3.053 0.837,1.977 0.002,3.991 M 559.17,291.45 v 0 l -0.033,2.101 2.363,5.481 5.643,18.092 1.727,8.314 -10e-4,4.123 -2.527,8.573 -5.057,8.056 -4.13,4.12 -1.357,0.69 -10.502,2.713 2.558,2.185 8.672,-0.047 3.664,-2.566 2.833,-2.813 3.265,-4.288 2.96,-4.959 3.62,-11.664 10e-4,-4.123 -1.565,-6.996 -6.981,-22.696 -2.277,-4.667 M 395.79,755.478 v 0 l -0.593,0.027 M 420.93,355.823 v 0 l -5.626,-2.589 2.558,-3.68 0.123,-3.051 -0.509,-1.511 -2.922,-1.854 -6.113,-0.004 -5.326,2.71 0.044,1.685 1.341,0.44 1.998,-0.767 0.792,0.509 1.551,-1.605 4.655,-0.09 1.347,0.456 0.141,2.024 -0.482,1.486 -2.243,2.239 -5.518,1.56 -0.582,0.695 0.572,1.736 6.77,1.645 M 398.02,743.48 v 0 l -3.309,3.336 -1.216,2.217 -5.69,13.436 -2.83,-9.414 -1.818,0.417 -0.028,4.09 1.741,8.875 0.116,3.056 -3.854,13.946 -0.116,4.057 0.454,1.345 1.671,0.05 2.059,-3.449 4.583,-14.899 3.748,-9.516 1.442,-1.548 2.553,0.372 1.496,-1.379 3.84,-6.918 -0.011,-9.081 -1.379,-1.296 M 555.98,459.468 v 0 l -0.965,3.035 0.117,7.057 1.64,4.686 0.729,0.55 0.781,-0.607 1.541,-2.66 -0.622,-1.029 1.598,-1.999 -0.599,-1.002 1.599,-1.998 -0.598,-1.002 1.598,-1.998 -0.599,-1.002 1.599,-1.999 -0.651,-0.974 10e-4,-2.052 1.702,-1.948 0.228,-5.573 7.054,-4.027 3.729,-5.372 -0.011,-6.08 -2.323,-2.316 -1.509,0.34 -3.042,3.03 -3.692,5.662 -1.785,1.609 -1.3,-1.298 0.599,-1.002 -0.82,-1.002 -1.508,-0.332 -0.313,0.307 0.753,5.61 -2.017,1.625 0.962,3.848 -3.722,7.886 M 398.209,749.522 v 0 l 0.593,-0.027 m -1.012,1.983 v 0 l -0.593,0.027 m 141.927,18.99 v 0 l 1.591,-2.685 3.758,-3.662 4.023,-0.132 1.338,0.453 -1.516,4.791 -2.03,3.924 -3.788,3.615 -1.034,-0.628 -3.907,1.689 -1.393,-0.33 0.149,-1.338 M 212,324.543 v 0 l -0.132,-4.104 -1.896,-5.386 -1.503,0.107 -0.453,1.344 -0.002,2.989 1.785,10.791 0.677,0.557 1.052,10e-4 1.271,-1.341 -0.652,-0.975 m 348.67,129.933 v 0 l -0.314,1.346 -0.333,-1.329 M 431,749.456 v 0 l -0.133,6.105 -3.542,10.696 -4.037,8.927 -1.111,1.109 -5.096,2.66 0.07,1.576 1.323,1.322 2.084,0.014 3.667,-1.616 3.024,-3.025 4.971,-11.781 3.639,-15.945 -1.787,-10.59 -1.751,-5.143 -2.815,-5.73 -5.365,-8.923 -1.272,-0.005 -1.712,2.4 1.593,3.718 1.538,1.591 4.919,9.736 1.66,4.887 m 27.175,-423.962 v 0 l -0.894,0.992 0.014,5.055 1.086,-0.223 1.603,3.865 -5.79,2.836 -0.045,1.499 0.481,1.479 1.039,0.853 4.934,-1.666 0.358,0.309 -0.112,1.298 -2.582,6.667 0.023,3.087 1.37,0.314 1.766,-1.665 2.572,-5.618 0.262,-3.754 8.835,-2.865 0.021,-0.364 -0.455,-1.419 -7.67,-0.265 -2.181,-3.667 -2.428,-6.446 -0.724,-0.62 m -7.673,128.386 v 0 l 4.357,-10.119 3.66,-14.864 0.117,-19.056 -2.738,-7.73 -1.963,-2.966 -3.095,-3.095 -7.124,-4.639 -1.903,7.39 0.839,0.01 1.868,-2.341 3.32,1.58 4.097,4.1 1.919,3.737 1.661,4.887 0.002,16.123 -4.534,16.666 -5.047,10.956 -2.104,2.104 -8.367,4.426 -0.615,0.788 1.272,1.349 3.08,0.011 7.636,-4.577 m 110.993,12.256 v 0 l 0.314,-1.346 0.332,1.329 M 383.017,433.542 v 0 l 0.041,-1.551 8.128,-3.705 3.004,-2.001 3.095,-3.095 1.577,-2.636 -0.011,-4.08 -3.325,-3.326 -6.085,-0.014 -3.666,1.617 -5.068,5.072 -2.693,6.683 0.12,5.053 2.545,6.632 3.036,4.999 2.108,2.103 1.951,1.021 3.667,1.551 2.402,-0.337 -0.005,-3.052 -1.373,0.353 -3.69,-1.58 -1.798,-1.777 -3.842,-6.922 m 7.067,-113.242 v 0 l -2.673,1.668 -5.818,5.84 -2.573,4.63 v 6.108 l 2.573,4.63 1.099,1.101 3.004,2.002 10.686,5.551 2.393,-1.708 -0.005,-1.271 -13.078,-7.574 -2.672,-3.731 v -3.108 l 1.731,-2.311 1.114,0.365 1.491,1.351 6.08,0.011 4.63,-2.573 2.667,-2.763 v -4.052 l -1.668,-1.763 -4.629,-2.573 m 46.308,319.293 v 0 l 8.658,16.629 2.466,7.446 -0.121,10.053 -5.579,12.627 -2.001,3.004 -4.136,4.284 v 2.052 l 1.322,1.315 1.084,0.015 2.752,-1.69 6.941,-10.942 2.894,-8.348 1.715,-8.375 -2.632,-10.883 -9.937,-19.802 -2.761,-2.658 -1.507,0.339 -0.862,0.974 -0.015,1.084 M 388.998,417.526 v 0 l 1.499,-0.511 4.031,0.142 0.455,1.347 -0.132,2.022 -3.667,3.762 -8.663,4.535 -0.504,-1.327 0.121,-2.05 2.573,-4.63 M 368.574,754.15 v 0 l -3.101,-10e-4 -2.325,2.325 v 3.052 l 1.326,1.325 2.08,0.011 2.636,-1.577 1.659,-1.757 0.047,-1.661 m 2.557,-81.868 v 0 l 1.683,-0.096 1.725,-2.349 -0.01,-2.08 -1.325,-1.326 h -3.052 l -1.607,0.926 -1.729,2.372 0.334,2.397 m 21.978,-348.68 v 0 l 2.101,-0.026 3.247,2.365 -1.573,1.747 -3.667,1.616 -2.111,-0.004 -2.156,-1.575 m 103.667,12.239 v 0 l 12.852,-9.81 2.668,-1.538 0.382,1.382 -2.567,5.618 -1.145,1.297 0.009,3.054 1.37,0.314 3.252,-2.154 12.7,-5.511 0.504,1.327 -0.121,2.05 -2.724,4.892 0.025,2.076 0.359,0.301 2.79,-1.665 2.553,-5.599 -0.023,-7.087 -1.397,-0.328 -4.19,2.173 -8.728,3.512 -0.511,-2.325 0.844,-3.063 -1.814,-3.363 -2.6,0.06 -11.951,8.662 -0.338,-1.327 0.827,-1.977 v -4.993 l -0.48,-1.482 -0.817,-0.736 -3.673,13.221 0.143,3.022 1.375,0.315 M 334.139,599.497 v 0 l 1.366,-1.297 0.333,0.276 0.024,3.078 -4.579,7.636 -0.758,0.651 -1.048,-0.012 -0.15,-0.629 m 21.907,-281.923 v 0 l -9.496,4.505 -2.068,10.724 -2.536,19.058 2.335,11.269 1.503,3.634 1.528,1.332 2.299,-2.299 -0.784,-2.004 -10e-4,-12.989 2.093,-16.45 2.397,0.928 7.05,-0.123 2.636,-1.577 2.103,-2.108 2.572,-5.619 -0.003,-2.112 -1.939,-3.578 -3.397,-2.72 m -28.048,447.873 v 0 l 3.332,-3.306 3.695,-2.516 0.337,1.328 -0.827,1.976 0.142,5.025 1.367,0.313 0.734,-0.633 2.612,-10.646 0.113,-2.058 -0.455,-1.347 -2.082,-0.019 -2.636,1.577 -2.62,2.57 -2.38,1.43 -5.313,5.304 -0.339,1.508 1.314,1.315 1.509,-0.34 M 464,759.543 v 0 l 0.015,-6.04 0.784,-2.003 -0.784,-2.003 v -29.994 l 0.826,-3.027 -0.553,-0.674 -14.818,-2.644 -1.319,1.313 -0.061,1.593 11.844,3.929 0.052,39.5 -2.972,15.014 -0.051,13.434 -7.423,1.897 -1.014,-0.691 -3.053,10e-4 -1.315,1.324 v 1.055 l 2.315,2.324 1.03,0.134 6.059,-0.116 6.702,-1.645 2.211,-22.909 1.394,-6.753 m 13.132,12.981 v 0 l 0.137,-3.098 1.577,-2.635 3.731,-2.672 2.081,0.019 0.472,3.343 -0.497,2.482 -2.312,2.303 -3.662,2.557 -1.37,-0.314 m 23.534,-338.775 v 0 l -1.558,3.687 0.003,4.114 1.578,2.636 2.303,2.312 1.485,0.482 2.023,-0.133 3.641,-2.544 1.687,-1.855 0.014,2.109 -2.854,11.945 0.143,7.022 1.367,0.313 0.679,-0.56 4.667,-25.719 0.028,-5.695 -5.372,-4.718 -2.085,-0.015 -3.666,1.616 -3.069,3.074 M 352.723,423.801 v 0 l -3.099,7.029 -2.61,11.677 v 4.986 l 1.712,11.352 1.24,5.616 1.53,1.336 0.703,-0.513 3.909,-25.428 8.082,-5.571 2.095,-2.095 2.007,-3.012 2.568,-5.618 -0.143,-1.331 -1.688,-3.694 -3.475,-2.397 -2.048,-0.123 -6.683,2.692 -2.108,2.103 m -2.676,19.718 v 0 l 0.457,-1.334 0.341,2.329 -0.676,-0.003 M 474.02,777.466 v 0 l 1.697,3.723 1.781,0.781 1.309,-0.285 5.698,-3.486 0.332,0.277 0.03,3.084 -2.853,10.946 0.143,7.022 2.369,0.323 1.273,-1.351 -0.651,-0.974 -0.017,-2.088 2.185,-8.917 2.539,-16.077 -1.572,-2.152 -0.786,0.506 -1.296,-1.298 0.642,-0.973 -0.367,-1.535 -2.92,-1.848 h -1.112 l -4.628,2.567 -3.668,4.762 m -157.319,8.076 v 0 l 0.023,-2.068 -0.628,-0.728 -9.386,-4.443 -3.7,-5.756 -0.121,-2.05 0.48,-1.304 0.546,0.843 3.45,1.799 2.697,-1.557 4.098,-4.102 2.574,-4.629 -0.011,-5.081 -2.869,-2.975 -1.486,-0.483 -5.022,0.133 -3.608,2.926 -3.401,5.038 -2.334,7.326 0.003,3.121 2.573,5.618 3.127,4.131 2.939,1.939 5.673,2.615 3.05,0.122 m 6.34,-80.453 v 0 l -1.886,-2.007 -9.135,-4.236 -3.1,-3.098 -1.577,-2.636 v -6.108 l 2.573,-4.63 3.313,-3.315 0.813,-0.025 0.014,2.05 -4.693,5.946 0.862,2.03 1.507,0.34 2.758,-2.652 2.821,-4.612 1.763,-6.017 -0.018,-3.087 -1.325,-1.325 -2.08,-0.011 -2.636,1.577 -6.095,6.095 -2.822,4.612 -1.753,7.139 3.572,7.623 2.098,2.101 4.999,3.036 6.632,2.544 2.085,-0.014 m 7.35,-97.347 v 0 l -2.084,3.469 -1.772,-3.438 -0.915,-0.477 -2.421,15.629 -3.88,11.588 -1.673,7.163 0.017,2.088 0.651,0.974 -0.621,1.028 1.536,2.18 1.537,-1.487 1.244,-3.262 5.146,-18.196 1.88,-4.71 1.97,-1.918 2.013,0.849 2.478,-0.482 3.304,-4.316 3.576,-6.632 -0.019,-11.082 -2.343,-0.47 -2.026,0.146 -1.759,1.662 -3.998,5.998 m 56.761,-268.599 v 0 l 0.026,0.594 m 115.801,111.401 v 0 l 2.405,-4.386 3.734,-2.674 1.36,0.174 2.093,1.549 -0.046,2.659 -1.564,1.771 1.425,1.406 -6.185,6.139 -1.535,-0.365 -1.854,-2.923 M 352.425,331.15 v 0 l 3.101,-0.002 1.607,0.926 1.722,2.37 10e-4,1.112 -1.571,2.634 -2.759,2.661 -6.08,0.011 -2.923,-1.855 -0.38,-1.562 2.673,-3.734 m -7.271,351.142 v 0 l -9.769,4.9 -0.574,0.75 2.326,2.32 6.383,-3.754 1.883,8.62 1.409,-1.405 1.759,-9.744 0.879,-1.013 -0.006,-1.056 -2.332,-0.455 m 141.482,-253.48 v 0 l 1.868,-42.015 -2.328,-3.362 -1.506,0.339 -1.489,1.343 -1.093,0.024 -6.875,-1.734 -2.09,0.026 -0.314,2.369 2.551,2.184 0.767,-0.562 4.02,-0.133 2.399,0.964 2.104,16.521 -0.013,12.993 -1.895,13.896 -2.87,11.05 -2.208,5.032 -1.54,0.372 -1.977,-0.828 -10.992,0.001 -1.339,0.455 -0.007,1.056 2.315,2.324 15.578,0.067 3.307,-8.617 M 382.522,430.79 v 0 l -0.027,-0.593 m -25.35,1.306 v 0 l 0.709,-0.97 0.252,-4.692 1.605,-1.55 -0.572,-1.434 4.306,-2.713 1.084,0.014 2.3,2.376 -2.536,5.643 -4.103,4.108 -2.669,1.538 m -97.522,497.634 v 0 l -0.144,2.063 -0.84,1.983 0.117,6.057 1.723,4.85 1.648,1.562 0.627,-0.079 1.692,-2.365 -0.675,-1.002 -0.132,-2.019 2.121,-20.638 0.672,-1.146 6.413,-2.472 1.912,-1.325 2.718,-3.4 v -7.053 l -3.661,-3.758 -2.69,-1.554 -3.788,2.654 -4.574,9.631 -0.217,2.6 -3.753,2.492 1.817,5.968 -0.133,2.02 -0.704,0.948 M 297.17,339.45 v 0 l -0.022,3.076 0.701,0.944 0.106,1.484 -6.415,1.883 -1.04,-0.636 -1.342,1.272 10e-4,1.051 0.561,0.68 8.247,1.865 -0.1,2.491 -1.7,4.903 1.333,1.336 1.749,-1.574 1.616,-3.666 0.157,-3.47 11.916,-2.187 -0.693,-1.131 -4.685,-1.639 -5.618,-0.217 -2.942,-6.851 m -24.803,399.641 v 0 l 2.258,14.194 0.792,-0.675 1.618,-3.666 -0.003,-10.112 -2.72,-4.307 -0.631,-0.003 -2.334,3.336 m 55.301,-126.263 v 0 l 0.027,0.594 m -60.408,118.669 v 0 l -2.895,2.03 2.27,2.34 2.689,-0.921 1.548,-1.632 1.791,0.68 3.003,-0.954 h 8.993 l 3.008,0.97 2.992,-10e-4 1.304,-0.479 -0.881,-1.65 -4.365,-2.717 -1.06,-0.124 -13.053,0.12 m -1.734,178.19 v 0 l 2.144,2.15 0.011,2.08 -1.697,2.753 -2.61,1.549 -1.085,-0.022 -0.326,-1.389 m 4.86,-309.915 v 0 l 1.83,-3.838 3.638,-2.534 1.362,0.312 -0.15,1.337 -3.397,6.378 -3.312,4.314 -0.813,0.025 -0.16,-2.024 0.146,-2.026 m 40.689,145.976 v 0 l 0.026,2.101 -1.579,2.639 -3.303,3.312 -1.509,0.341 -0.972,-0.642 -0.973,0.642 -1.369,-0.316 -0.02,-2.081 2.936,-4.58 3.4,-2.717 h 2.052 m -443.002,-30.135 v 0 l -0.249,0.726 1.506,5.519 0.696,0.592 h 4.049 l 3.325,-3.325 0.047,-6.659 -2.344,-1.729 -3.078,0.011 M 428.034,382.487 v 0 l -1.231,3.751 -2.673,14.2 -0.114,4.058 0.453,1.344 1.537,0.092 1.318,-3.67 3.545,-16.7 -0.366,-2.543 -0.975,-0.861 m -16.389,288.817 v 0 l 0.352,-0.95 2.319,-2.31 3.663,-2.567 h 4.053 l 1.315,1.323 -0.154,1.331 -1.402,2.388 -3.731,2.672 -2.114,0.005 m -4.65,-0.389 v 0 l -0.593,0.027 m -65.488,47.18 v 0 l -1.181,-1.535 -1.684,-0.035 -2.673,5.351 0.628,1.034 -0.599,1 0.629,1.034 -2.8,8.967 0.291,1.309 1.395,1.898 1.341,-0.762 1.247,-2.705 M 315.175,418.455 v 0 l -0.319,2.067 -0.655,0.978 0.598,1 -0.632,1.037 1.7,4.902 0.019,2.716 -8.589,4.129 3.236,2.545 3.939,-1.658 0.365,0.307 0.015,3.048 -0.837,1.978 0.001,2.992 0.504,1.326 2.188,-1.538 -0.558,-0.758 -0.047,-1.674 1.762,-2.343 -0.708,-0.982 v -1.054 l 0.917,-1.606 2.372,-1.729 1.059,-0.124 4.991,10e-4 1.978,0.837 2.054,-0.01 0.442,-1.389 -1.746,-1.724 -3.666,-1.595 -2.084,0.014 -0.948,0.704 -2.68,0.035 -2.201,-4.613 -1.478,-4.737 0.676,-1.01 -0.001,-1.055 -1.352,-1.276 m -506.281,480.326 v 0 l 0.594,-0.027 M 313.478,671.209 v 0 l 0.027,0.593 M 353.473,432.21 v 0 l 0.493,1.282 -0.466,1.31 -0.468,-1.301 m 218.446,4.709 v 0 l 0.027,0.593 m -1.027,1.406 v 0 l 0.026,0.594 m -1.026,0.406 v 0 l 0.027,0.594 m -1.027,0.406 v 0 l 0.027,0.594 M 396.478,753.209 v 0 l 0.027,0.594 m -617.027,46.406 v 0 l 0.027,0.593 M 279.478,608.209 v 0 l 0.026,0.594"
     id="path6" />
</g>
</svg>
