<svg
   viewBox="-702 0 1249.854 1199.7358"
   version="1.2"
   id="svg22"
   xmlns="http://www.w3.org/2000/svg"
   xmlns:svg="http://www.w3.org/2000/svg"><defs
   id="defs26" />
<g
   id="g8"
   transform="translate(-115.132,-57.104099)">
  <path
     fill="#000000"
     d="m -480.98,92.5349 v 0 l 0.22,-1.2385 2.6,27.1676 -1.367,0.378 -1.973,-0.811 -3.004,0.954 -8.024,-0.142 -0.328,-1.398 3.103,-5.218 4.247,-9.192 4.368,-7.4809 m 1.296,-19.0994 v 0 l -3.369,8.1212 -3.56,12.6711 -1.745,2.821 -7.197,15.118 -2.154,2.71 -1.661,-0.047 -1.946,-1.7 -2.369,0.323 -0.008,3.054 3.56,3.188 -5.551,6.759 v 1.054 l 1.314,1.322 1.661,0.047 4.864,-6.371 1.838,0.002 0.18,-1.429 17.153,-1.978 5.541,14.056 0.767,0.674 2.052,-0.008 0.456,-1.346 -0.122,-3.05 -2.117,-4.981 -1.955,-10.267 -2.602,-40.5037 -1.687,-0.663 M -551.737,1243.75 v 0 l 2.209,6.15 1.506,2.57 2.495,2.37 2,-0.68 2.031,0.64 0.295,-0.3 -1.814,-2 -1.127,-0.58 -1.355,-2 -2.371,-6.36 0.006,-8.11 1.576,-2.16 2.76,2.56 2.022,0.13 1.304,-0.48 -2.021,-2.24 -1.759,-5.73 -0.497,-0.38 h -2.049 l -2.974,2.65 -0.973,-0.64 -2.027,0.64 -1.001,-0.6 -5.497,3.3 -13.901,6.44 -2.521,-10.93 -1.423,0.46 -0.143,23.02 1.739,4.73 0.722,0.62 1.367,-0.31 0.141,-1.03 -0.131,-2.03 -0.837,-1.97 0.134,-7.03 2.667,-2.76 15.149,-7.2 3.507,-2.35 h 1.057 l 0.313,1.37 -0.827,1.97 m 65.411,-1031.65 v 0 l 3.1,0.298 1.978,0.836 2.295,-0.477 -9.27,-6.483 -3.352,-5.496 1.897,-2.662 5.736,-5.151 8.324,-5.789 3.665,-4.425 -0.598,-1.001 0.599,-1.006 -0.274,-0.33 -1.659,-0.06 -3.677,4.181 -11.38,8.43 -6.661,6.759 -0.011,3.08 3.554,5.612 m -48.835,899.734 v 0 l -2.312,-1.88 -3.526,0.48 -0.861,0.97 10e-4,1.05 3.287,2.34 9.08,-0.01 3.664,-2.57 2.108,-2.11 2.565,-6.61 -0.003,-1.12 -1.611,-3.67 -3.264,-3.27 -1.118,-0.57 -1.729,-2.38 0.011,-2.08 2.325,-2.32 8.022,-0.13 2.01,0.78 0.414,-1.85 -3.362,-1.82 -6.058,-0.13 -2.026,0.15 -2.607,1.92 -1.729,2.38 0.011,5.08 7.353,7.49 0.359,1.54 -1.612,3.66 -3.059,3.06 -2.636,1.58 m 5.968,-159.882 v 0 l -1.815,1.845 -2.573,5.618 -0.119,13.055 0.827,3.031 -1.316,1.324 -1.026,0.118 -1.974,-0.821 h -3.052 l -1.339,1.361 v 0.622 l 4.362,3.667 0.814,-0.516 1.171,0.962 2.519,-1.175 3.788,15.199 0.714,0.529 1.348,-1.271 0.135,-6.02 -1.918,-8.411 10.648,-2.779 -0.703,-1.227 -10.477,-2.063 -0.387,-0.504 -0.011,-15.076 2.552,-4.608 2.81,-1.676 4.664,2.53 1.333,1.471 1.323,-1.637 -3.63,-3.811 -2.636,-1.578 -4.08,0.011 m 49.066,-797.132 v 0 l -17.949,-1.901 -11.05,-1.954 -2.041,1.856 -0.349,1.161 10.244,2.938 20.111,2.87 6.053,-0.12 3.955,-1.722 23.986,1.84 14.007,3.001 2.019,-0.133 1.977,-0.837 4.99,-10e-4 10.499,1.794 9.864,2.337 19.651,2.841 13.989,-10e-4 3.007,-0.97 5.997,-0.015 4.026,0.148 1.977,0.837 7.99,10e-4 11.235,-2.001 33.709,-2.851 2.697,0.94 1.859,2.403 1.534,0.365 1.324,-1.316 0.134,-1.03 -0.088,-3.629 -2.343,-1.729 -1.06,-0.124 h -6.987 l -34.34,3.044 -34.674,1.928 h -6.986 l -23.941,-3.659 -9.667,-2.308 -29.53,-3.056 -22.876,-1.949 -6.054,0.118 -4.902,1.701 m -29.518,1104.637 v 0 l 0.3,1.34 1.548,2.09 3.687,-0.04 2.636,-1.58 2.095,-2.09 3.557,-4.66 -0.007,-1.06 -2.361,-0.32 -6.492,6.35 -1.482,0.47 -1.3,-0.46 0.597,-1.01 -0.763,-0.51 -2.018,-5.46 -0.524,-0.33 -0.477,3.3 0.837,1.97 m 66.011,-1053.969 v 0 l -0.708,0.963 -0.011,1.091 5.718,8.891 0.059,2.6 -3.363,1.819 -7.112,-0.003 -2.34,-2.033 3.753,-2.687 -0.003,-0.64 -1.383,-0.344 -0.946,0.685 h -1.054 l -0.974,-0.642 -4.35,3.275 10e-4,2.048 0.667,0.763 4.629,2.575 9.048,0.124 3.505,-1.488 2.852,-1.974 0.011,-5.078 -5.685,-8.918 2.577,-2.76 4.686,-1.635 2.086,0.015 1.977,0.837 3.297,-0.48 -1.61,-1.79 -2.636,-1.577 -4.113,-0.004 -5.618,2.573 -2.684,2.767 m 6.918,-111.0111 v 0 l -1.772,2.727 -2.573,2.626 -8.227,14.2515 -2.68,7.2076 -1.674,7.163 v 2.123 l 3.914,16.187 0.759,1.097 1.696,-0.644 2.003,0.784 7.991,10e-4 4.392,-1.944 -0.594,-1.238 -12.511,-1.536 -2.767,-10.774 0.12,-9.053 9.36,-19.4058 4.348,-6.5062 -0.163,-1.3385 M -485.457,894 v 0 l -3.344,-0.495 4.086,-4.315 4.538,-6.662 -1.297,-1.379 h -2.052 l -8.472,9.349 -3.192,2.217 -5.095,5.094 -2.789,4.339 -1.823,1.706 0.048,1.671 0.637,0.729 7.664,1.879 22.055,2.853 4.019,-0.135 1.973,-1.868 0.375,-1.055 -2.118,-0.994 -27.724,-4.008 0.12,-1.453 0.608,-0.706 3.763,-1.051 26.747,-4.505 2.594,-2.08 -0.339,-0.973 -8.018,-0.144 -9.945,1.856 m 5.574,-127.369 v 0 l 0.576,-0.761 -2.19,-0.941 -11.431,-3.275 -2.564,-1.502 -3.328,-3.527 2.297,-0.479 2.005,0.783 1.261,-1.035 3.523,-0.975 16.152,-2.656 2.063,0.666 0.998,-0.824 0.173,-0.772 -2.126,-2.186 -11.038,-0.003 -10.034,1.815 0.028,-0.805 1.309,-1.309 6.38,-4.43 2.661,-2.759 v -2.052 l -1.351,-1.273 -3.31,3.084 -5.38,3.43 -6.62,5.57 -2.38,1.43 -2.661,2.759 v 2.052 l 7.666,7.762 3.737,1.918 5.954,1.78 7.022,-0.143 m 6.349,-97.34 v 0 l -1.739,2.943 0.173,3.269 1.766,-2.848 2.207,-1.68 2.565,-7.683 -1.934,-4.648 -4.361,-2.718 h -5.108 l -4.63,2.573 -3.109,3.112 -2.573,5.618 -0.12,7.053 1.851,4.947 -0.336,2.4 -1.724,0.044 -1.323,-1.129 -1.458,0.766 -0.745,-0.261 -7.717,1.609 -3.056,0.116 -4.789,-1.667 -4.636,-2.273 0.058,-1.602 4.576,-7.634 7.813,-7.833 3.897,-2.125 5.487,-1.889 -1.386,-1.815 -6.08,-0.01 -5.636,3.577 -5.095,5.095 -3,4 -4.577,7.636 0.011,5.078 2.886,1.982 6.411,3.356 1.06,0.123 7.053,-0.12 9.887,-3.727 4.08,0.01 3.284,3.137 2.963,1.962 5.706,2.575 0.363,-1.35 -0.34,-0.453 -3.517,-3.52 -1.119,-0.573 -3.154,-3.742 -1.22,-2.221 -2.354,-4.409 -0.124,-5.049 2.697,-5.689 1.287,-1.314 0.777,-0.752 4.725,-1.721 1.302,0.283 3.049,2.164 10e-4,5.05 m 16.357,2.991 v 0 l 0.594,-1.013 -1.717,-1.436 -2.951,12.374 0.014,4.084 1.348,1.271 0.732,-0.554 2.639,-8.683 0.117,-4.057 m 28.03,-466.04 v 0 l -0.856,6.062 0.972,0.339 2.086,-2.602 9.65,-37.701 0.117,-5.057 -0.455,-1.339 -1.748,0.577 -4.277,19.225 m 2.537,-107.4904 v 0 l -0.893,0.9923 -0.133,1.0351 0.123,7.0501 3.576,6.6289 0.788,0.6148 1.349,-1.2718 0.119,-1.0234 -1.836,-4.944 0.028,-5.0826 1.339,0.3233 1.322,-1.3274 -2.299,-3.3228 -2.02,-0.133 M -522.145,736.503 v 0 l -0.709,-0.97 -0.145,-2.033 0.146,-4.026 0.676,-1.003 -2.325,-3.269 -2.349,2.271 -0.011,10.081 2.391,3.267 2.368,-1.689 m 25.334,348.098 v 0 l 1.62,-1.7 v -6.06 l -3.661,-3.76 -2.636,-1.57 -2.08,0.01 -1.608,0.92 -2.094,2.68 -1.758,5.76 0.12,7.05 1.617,3.66 4.065,4.07 6.629,3.57 1.085,-0.03 0.321,-2.36 -1.667,-1.76 -4.368,-2.42 -2.065,-2.07 -1.737,-4.73 0.118,-4.05 2.567,-6.15 2.586,2.52 1.467,2.47 -3.218,1.55 -1.04,-0.63 -0.476,1.3 0.085,1.63 2.404,1.71 M -431,288.457 v 0 l 0.138,3.098 1.577,2.635 3.731,2.672 h 6.108 l 2.636,-1.577 3.103,-3.108 2.995,-5.881 5.542,9.65 1.857,1.766 2.084,-2.394 -6.269,-14.344 -1.637,-5.077 -2.619,-12.292 -2.995,-8.823 -0.728,-0.632 -2.049,-0.002 -1.607,0.926 -1.71,2.433 1.606,3.784 -3.584,2.239 1.688,2.368 2.278,0.204 1.958,1.931 2.763,6.408 v 8.118 l -2.615,6.662 -3.725,3.63 -3.023,0.134 -1.786,-0.795 -1.579,-2.636 -0.124,-1.06 0.12,-5.053 2.573,-5.618 2.103,-2.108 2.671,-1.592 2.169,1.906 1.191,-1.538 -1.795,-3.413 -0.488,-0.062 -5.084,0.132 -3.762,3.668 -3.578,7.625 m 10.881,-169.978 v 0 l 0.119,7.096 2.541,6.668 2.318,4.25 2.531,0.36 -0.323,-1.337 0.628,-1.034 -3.697,-10.905 0.016,-4.087 0.837,-1.978 -0.134,-3.022 -1.322,-1.323 -1.529,-0.087 m -34.959,534.474 v 0 l -1.909,-2.431 -0.632,-0.08 -2.322,2.445 6.111,7.344 2.425,4.366 0.788,0.616 1.297,-1.298 -0.598,-1 0.598,-1.001 m -20.944,233.004 v 0 l -0.839,-2.007 0.482,-2.478 4.317,-3.306 7.374,-4.43 0.61,-0.789 -0.275,-0.331 -2.05,-0.014 -0.974,0.651 -1.029,-0.622 -7.724,4.568 -1.94,-6.671 -1.669,2.372 -0.124,1.06 0.135,12.02 2.323,2.316 1.37,-0.314 M -478,1154.46 v 0 l 0.13,3.1 1.936,7.36 2.785,-2.39 10e-4,-2.06 -0.837,-1.97 -10e-4,-5.99 1.972,-13.02 0.013,-10.99 -0.146,-2.03 -0.652,-0.97 0.598,-1 -1.268,-1.35 -1.427,-0.13 m 5.037,-96.6 v 0 l -0.289,5.11 -0.837,1.97 0.134,4.03 1.322,1.32 1.575,0.07 1.814,-3.36 -0.724,-3.12 2.85,-13.95 v -7.98 l -1.785,-10.794 -1.701,-0.685 -1.343,0.441 -0.141,1.028 -0.001,10 0.837,1.97 0.134,4.02 m -18.442,-180.344 v 0 l -1.525,-0.641 -6.861,-5.978 0.34,-1.508 2.847,-3.048 2.1,2.012 26.051,0.001 1.347,-0.456 v -3.056 l -1.347,-0.456 -23.996,-0.015 -2.026,0.146 -0.98,0.653 -0.336,-1.328 2.557,-3.662 7.178,-6.679 v -1.262 l -2.202,-1.627 -1.524,2.065 -2.639,1.67 -2.817,2.839 -4.426,7.374 -3.3,3.31 -1.118,0.574 -1.688,2.397 11.631,9.814 8.38,5.43 6.284,5.136 h 2.052 l 1.323,-1.322 0.071,-1.575 -13.11,-8.669 m -48.928,34.222 v 0 l -3.634,-10.729 -0.724,-0.619 -1.051,-10e-4 -1.324,1.315 -0.135,3.02 3.06,14.318 1.383,1.158 1.523,-0.467 0.871,-0.976 M -418.837,204.45 v 0 l -0.015,2.07 0.376,0.488 2.666,1.707 3.585,3.534 3.666,1.617 7.083,-0.028 -0.55,-1.832 -8.159,-3.718 -2.315,-2.305 -0.361,-1.125 9.046,-5.571 10.005,-7.002 6.661,-6.759 -0.009,-2.054 -2.368,-0.323 -7.284,7.136 -6.005,4.002 -11.371,6.426 -3.004,2.002 m 28.337,547.741 v 0 l -0.999,2.018 10e-4,3.052 4.661,4.759 3.663,2.566 8.086,0.015 4.124,-2.066 -10.535,-2.246 -2.62,-1.532 -3.327,-3.522 5.615,-5.788 2.212,-1.213 3.138,-1.522 9.115,-1.775 0.514,-0.703 -3.241,-2.361 -5.113,-0.004 -9.625,4.577 m 35.386,-650.4026 v 0 l -2.673,1.6673 -1.814,1.8341 -4.577,7.6362 v 9.108 l 1.577,2.636 5.101,5.099 4.63,2.573 8.08,-0.011 1.325,-1.325 0.118,-1.026 -0.466,-1.481 -0.976,-0.861 -3.03,0.827 -3.051,-0.123 -4.63,-2.573 -3.665,-3.759 -0.113,-1.47 8.829,-2.514 2.296,-1.237 2.688,-3.783 0.134,-6.0225 -0.483,-1.4853 -3.976,-3.8696 m -54.034,783.7334 v 0 l 4.409,-1.888 -1.375,-1.846 -6.023,-0.133 -3.007,0.97 -6.99,10e-4 -4.731,-1.718 -1.63,-1.114 2.604,-8.372 1.754,-0.767 8.99,-10e-4 13.037,2.82 0.312,-1.362 -0.878,-1.481 -9.705,-2.225 -12.946,-1.57 0.538,-0.674 v -2.048 l -1.323,-1.324 -1.707,-0.027 -2.428,7.238 -8.24,30.126 4.921,7.646 2.372,1.729 8.116,0.007 10.609,-2.493 7.012,-3.091 0.616,-0.792 -0.274,-0.323 -3.052,0.672 -0.947,-0.694 -2.019,-0.133 -12.945,2.854 -5.107,0.113 -2.738,-2.79 -1.579,-2.638 -0.004,-4.113 3.615,-10.659 0.724,-0.623 8.033,1.827 4.991,-10e-4 1.977,-0.837 m 51.757,-672.379 v 0 l -2.047,-2.057 -3.957,-2.036 -8.172,-3.196 -1.912,-1.978 1.384,-0.345 0.973,0.642 2.323,-2.092 6.683,-2.693 13.053,0.12 5.886,2.722 1.397,-0.328 0.009,-3.054 -1.632,-1.726 -5.751,-1.799 -13.156,-1.75 6.498,-6.484 2.662,-1.692 2.03,-2.042 0.34,-1.508 -1.315,-1.315 -1.508,0.34 -3.829,3.787 -2.38,1.43 -5.62,5.57 -2.38,1.43 -5.62,5.57 -2.662,1.692 -4.426,3.89 -0.023,2.18 16.887,7.449 6.479,4.36 1.389,-0.326 0.026,-1.089 m -47.837,622.083 v 0 l -3.092,-2.041 -5.372,-2.349 -4.085,0.014 -0.977,0.871 -0.373,2.16 8.763,3.286 2.59,1.527 0.493,1.506 -1.685,3.692 -3.06,3.059 -3.666,1.616 -2.053,0.12 -4.732,-1.671 -5.246,-3.291 -1.816,-1.839 -3.578,-7.626 -0.002,-4.119 2.571,-6.61 6.107,-8.114 2.662,-1.692 4.344,-4.312 4.369,-2.424 2.713,-2.154 -0.056,-3.661 -1.37,-0.314 -8.662,5.557 -4.62,4.57 -2.661,1.69 -3.814,4.835 -3.232,5.259 -2.349,5.372 v 7.117 l 2.617,6.666 1.964,2.966 2.095,2.095 5.962,3.961 3.669,1.619 5.059,0.134 2.054,-0.137 4.63,-2.573 3.105,-3.105 2.573,-4.63 0.124,-1.06 -0.135,-4.02 m -13.006,301.256 v 0 l -1.817,1.72 0.131,1.08 1.345,0.45 2.99,0.01 9.423,-3.07 10.068,-2.34 -0.739,-1.81 -4.684,-1.63 h -1.123 M -455.543,240 v 0 l 5.067,-0.162 -0.059,-0.856 -6.925,-1.819 -2.044,0.821 -2.022,-0.132 -1.978,-0.837 -3.992,0.001 -1.361,0.487 2.303,2.359 m -31.462,33.675 v 0 l -0.133,-6.063 -1.592,-1.695 -5.759,-1.634 -6.014,1.602 -4.664,1.961 -3.054,3.046 -1.739,5.746 1.964,9.282 2.722,4.408 4.061,3.059 6.665,2.617 5.055,0.119 1.485,-0.483 0.899,-1.557 -12.058,-4.653 -4.071,-4.067 -1.617,-3.666 -0.119,-7.056 0.795,-1.786 2.962,-1.964 3.669,-1.619 5.085,0.014 1.325,1.326 0.011,2.08 -2.672,3.731 -2.636,1.577 -1.06,0.123 -2.02,-0.133 -0.948,-0.704 -2.052,10e-4 -1.325,1.325 10e-4,2.049 0.625,0.724 4.725,1.724 6.677,-2.678 3.108,-3.103 1.58,-2.64 m -48.342,782.49 v 0 l -0.991,-0.88 h -1.057 l -1.981,2.88 -5.813,12.71 -4.549,12.69 0.017,7.09 2.667,2.76 4.656,2.53 1.237,-1.11 -2.016,-1.54 -2.544,-3.64 -0.015,-7.09 7.369,-17.44 2.209,-3.71 0.795,0.51 0.331,-0.28 0.147,-4.02 m 152.87,-319.997 v 0 l -3.329,-3.355 -5.08,-0.01 -2.636,1.577 -3.102,3.107 -1.051,2.044 -2.628,9.634 1.613,5.776 2.066,4.901 3.108,3.111 3.924,2.031 4.81,1.653 2.121,-2.174 -0.205,-0.813 -4.715,-1.757 -2.941,-1.943 -2.099,-2.101 -2.573,-4.63 -0.124,-8.048 1.737,-4.731 3.723,-3.626 h 2.05 l 2.332,3.295 v 1.112 l -2.57,4.626 -0.786,0.614 -0.784,-0.504 -1.553,2.208 1.704,2.396 0.583,0.076 3.74,-1.687 2,-2.861 1.677,-4.864 -0.015,-2.086 -0.705,-0.948 m 47.349,-642.3338 v 0 l 3.355,2.2838 v 3.05 l -2.661,2.759 -2.636,1.577 -5.076,-0.025 -0.151,-0.637 2.384,-4.384 m -172.664,556.736 v 0 l -1.521,-1.404 -5.02,-0.134 -5.69,2.697 -3.113,4.118 -2.571,6.61 0.006,10.115 1.577,2.636 2.107,2.102 2.017,1.04 7.65,2.513 2.421,-1.949 -8.087,-3.603 -1.956,-1.367 -1.729,-2.372 -0.006,-7.115 1.661,-4.887 1.897,-3.714 3.784,-2.69 h 3.052 l 1.309,1.39 -1.582,5.976 -2.239,5.992 0.144,3.022 1.367,0.313 0.488,-0.37 3.33,-6.337 2.508,-8.628 M -404.457,1027 v 0 l -2.525,0.5 -1.815,2 0.503,0.69 14.801,1.8 4.989,-0.01 1.347,-0.45 0.078,-2.58 -3.363,-1.82 m -128.699,193.45 v 0 l 0.003,-10.13 -1.576,-2.16 -1.48,1.41 -2.258,21.07 -5.418,18.67 -0.027,4.69 2.158,1.62 2.443,-7.92 1.003,-1.54 0.766,0.55 1.086,0.02 3.134,-1.61 -4.629,-2.25 -0.042,-0.43 3.169,-12.58 m 115.345,-216.97 v 0 l -2.057,0.12 -1.33,1.33 10e-4,2.05 0.563,0.68 11.794,1.79 9.017,-0.14 4.318,-5.32 -0.314,-1.37 -3.055,-0.01 -3.919,2.71 -1.053,0.11 m 9.703,-911.665 v 0 l -8.388,4.407 -2.101,2.098 -4.577,6.636 v 6.108 l 1.577,2.636 3.115,3.108 6.609,2.57 7.12,-0.002 7.358,-2.81 -0.896,-0.895 -17.113,-2.282 -1.213,-0.715 -2.551,-4.608 0.169,-1.358 1.402,-2.388 4.101,-5.098 7.501,-3.807 6.602,-1.96 -1.393,-1.796 M -420.48,727.02 v 0 l -2.336,-2.308 -7.625,-3.578 -9.085,0.014 -2.311,2.391 1.823,7.967 -0.134,5.02 -0.837,1.977 -10e-4,14.991 1.767,6.765 0.732,0.606 2.343,-2.311 -0.855,-4.054 0.015,-27.996 0.456,-1.347 5.087,-0.023 5.618,2.573 4.111,4.109 4.578,9.625 v 11.117 l -3.362,7.408 -3.48,5.504 -3.47,2.392 -2.054,0.136 -2.059,-0.132 -3.666,-1.619 -0.616,-0.723 0.641,-2.03 -0.274,-0.324 -1.297,0.112 -3.454,1.471 -0.616,0.722 0.915,2.658 2.698,2.114 3.669,1.618 8.085,-0.014 2.608,-1.925 5.158,-6.748 4.576,-11.617 v -10.122 l -3.365,-8.407 m -12.077,218.118 v 0 l 6.102,-0.307 0.323,-2.369 -1.325,-1.326 -6.085,-0.014 -11.627,5.579 -3.004,2.002 -2.833,2.813 -1.839,2.918 -0.124,3.048 2.697,5.689 2.119,2.114 1.746,0.887 6.438,1.936 9.486,1.739 9.463,-1.829 1.739,-0.766 -2.201,-2.063 -0.975,0.651 -3.089,0.018 -10.489,-1.651 -8.19,-1.986 -3.609,-3.707 -0.011,-3.08 2.672,-3.731 5.258,-3.231 m -12.546,205.536 v 0 l -1.337,-1.31 -3.956,-2.03 -9.45,-3.43 -0.644,-1.38 2.68,-2.16 4.369,-2.42 5.831,-5.79 1.119,-0.57 4.155,-4.75 2.573,-4.63 -0.333,-2.39 -1.662,-0.06 -3.582,5.09 -7.095,7.09 -4.006,3.01 -7.374,4.43 -2.661,2.75 v 2.05 l 0.374,0.49 4.255,3.24 16.663,5.61 1.394,-0.33 -0.332,-1.51 m 17.513,-161.481 v 0 l -0.173,-6.067 -1.976,-0.368 -1.729,2.342 -0.009,2.116 1.671,9.718 0.704,0.52 2.347,-2.27 10e-4,-4.06 m 20.865,-337.649 v 0 l 2.117,-3.129 2.612,-1.554 3.078,0.011 2.332,3.294 -0.139,1.329 -2.424,5.405 -4.158,3.692 0.885,1.633 1.535,0.354 4.629,-2.567 1.109,-1.112 2.573,-5.619 -0.004,-5.112 -1.577,-2.636 -2.759,-2.662 -7.08,-0.01 -2.636,1.577 -2.095,2.095 -1.962,2.963 -2.615,5.673 v 10.108 l 3.574,6.63 2.098,2.101 2.962,1.961 3.694,1.583 2.243,-2.12 -3.894,-2.421 -4.065,-4.064 -2.612,-5.67 v -7.108 m -124.154,141.093 v 0 l -0.115,-6.101 -1.763,-6.016 -1.101,-1.9 -1.532,-0.364 -1.324,1.316 -0.016,2.086 3.901,13.351 1.468,-0.93 m 175.997,-577.843 v 0 l -1.999,1.661 -1.004,-0.598 -0.295,0.295 0.628,1.038 -1.657,3.939 0.327,0.324 1.582,-1.942 1.912,-1.317 2.453,-1.4 1.06,-0.123 16.671,2.583 5.262,1.27 2.36,-0.361 -0.585,-0.759 -2.8,-1.005 -18.68,-3.528 -1.208,-1.066 -2.052,-0.001 m -65.62,434.355 v 0 l -1.327,-1.345 -1.774,0.618 -6.247,13.189 -1.981,2.876 -1.816,-0.665 -2.459,-5.4 -1.101,-1.25 -0.134,-4.023 0.783,-2.006 -0.84,-0.381 -1.823,3.326 0.003,5.112 4.576,8.629 0.762,0.668 h 3.05 l 2.762,-2.667 7.574,-14.63 m -23.359,573.566 v 0 l -3.728,1.63 -1.28,1.05 -0.337,-1.33 1.684,-1.94 -0.007,-1.06 -1.36,-0.31 -0.482,0.36 -5.855,8.93 0.019,3.08 2.369,0.32 4.284,-4.14 3.664,-2.56 1.03,-0.13 2.022,0.13 2.29,2.14 4.629,2.57 1.085,-0.03 0.321,-2.36 -1.661,-1.76 -6.635,-4.57 M -495.999,171.543 v 0 l 0.133,-4.102 1.726,-3.88 0.002,-1.123 -1.627,-3.577 -0.276,0.426 -3.565,20.973 -5.261,20.18 0.338,2.395 1.825,-0.665 2.2,-6.23 3.337,-12.403 -0.656,-1.066 1.646,-2.942 -0.675,-1.003 10e-4,-2.052 1.65,-1.974 -0.651,-0.973 m 48.395,861.623 v 0 l -6.767,-2.9 -4.575,-4.75 6.615,-6.79 4.368,-2.42 5.839,-4.82 1.839,-2.92 -0.332,-2.39 -1.663,-0.06 -2.677,3.18 -7.374,4.43 -4.006,3 -6.095,6.1 -1.577,2.64 0.385,2.56 2.667,1.7 3.626,3.58 7.408,3.46 2.249,2.09 2.03,-0.86 0.353,-1.54 m 88.666,-850.65 v 0 l -0.027,-0.593 m -48.994,961.943 v 0 l 1.036,0.7 21.834,-2.88 2.507,-1.44 -1.352,-1.37 -1.03,-0.14 h -12.993 l -1.977,0.84 -2.026,0.15 -4.026,-0.15 -0.947,-0.69 h -1.055 l -1.323,1.31 -0.132,2.03 0.456,1.35 M -538.023,660.523 v 0 l 3.213,-2.238 3.518,-3.571 -2.209,-1.552 -2.691,1.555 -5.998,3.998 -6.62,5.57 -2.38,1.43 -8.315,8.085 -0.479,-1.304 -10e-4,-3.993 0.97,-3.007 -10e-4,-8.992 -0.453,-1.344 -1.44,-0.137 -3.077,21.484 10e-4,13.989 1.004,2.006 1.485,0.482 2.05,-0.122 2.754,-1.696 1.548,-2.611 -0.357,-1.411 -0.657,-0.006 -1.82,1.383 -0.997,-0.021 -1.53,1.3 -0.333,-0.276 -0.016,-14.072 1.695,1.442 2.683,-0.043 4.286,-5.136 2.662,-1.692 3.338,-3.308 6.38,-4.43 m 31.809,-481.739 v 0 l -0.096,-1.682 -2.349,-1.726 -7.054,-0.137 -2.059,0.133 -5.618,2.573 -1.116,1.004 -2.2,-1.575 -1.703,1.568 -3.79,31.803 0.135,11.019 2.347,2.271 0.699,-0.505 2.811,-25.227 9.107,-2.712 2.36,-1.331 3.812,-3.832 4.577,-7.636 m -19.384,492.655 v 0 l 0.027,0.593 m -37.747,417.888 v 0 l -2.573,-1.98 -6.371,-3.42 -6.004,-4.01 -1.661,-1.75 v -8.06 l 2.87,-2.97 1.534,-0.35 1.455,1.17 -2.476,1.65 -1.331,1.53 1.273,1.35 h 6.05 l 2.332,-3.29 -0.169,-1.36 -2.497,-3.49 -2.636,-1.57 -5.08,0.01 -3.763,3.67 -2.573,4.63 -0.006,4.11 2.57,6.61 2.114,2.12 8.006,5 5.618,2.57 1.693,0.04 m 24.982,-336.412 v 0 l 2.132,6.204 1.618,-3.134 -0.003,-9.112 -2.713,-3.917 -0.25,-1.662 -2.4,-1.705 -2.689,1.553 -3.997,4.204 -2.647,-5.225 -2.612,-1.556 -3.08,0.01 -5.759,5.662 -2.666,4.375 -2.023,-10.649 -1.553,-0.378 -1.314,1.384 1.77,14.002 1.05,3.921 0.534,0.4 2.774,-2.68 5.428,-9.375 2.756,-2.659 1.575,-0.071 1.814,3.359 -1.83,9.064 0.467,1.477 0.976,0.862 1.81,-0.653 3.432,-5.379 3,-4 1.783,-1.608 2.364,3.244 m 91.616,-556.236 v 0 l 0.027,0.593 m 70.515,623.662 v 0 l 2.687,6.712 5.103,5.108 2.636,1.577 6.05,0.122 1.304,-0.479 -0.847,-1.549 -7.137,-3.668 -2.104,-2.104 -3.574,-6.63 -0.124,-6.048 2.469,-6.437 3.232,-5.259 4.12,-4.112 7.115,-2.728 0.034,-2.466 -0.455,-1.339 -2.029,0.634 -1.034,-0.628 -5.643,2.536 -6.108,6.103 -4.049,6.991 -2.533,7.638 m -3.019,71.077 v 0 l 1.872,-8.023 -0.002,-3.989 -0.455,-1.339 -1.741,0.567 -2.658,12.706 0.005,3.12 1.819,3.363 2.6,-0.059 8.187,-4.183 4.765,-1.664 2.337,0.457 0.009,4.054 -0.674,1.002 1.647,2.379 2.04,-3.349 -0.014,-5.084 -2.325,-2.326 -4.085,-0.014 -6.667,2.54 -6.253,3.149 -0.504,-1.325 m -68.495,353.292 v 0 l -0.027,-0.59 M -475.854,210.497 v 0 l 1.144,1.211 1.181,-1.736 5.023,-10.937 3.362,-5.48 -0.353,-1.535 -0.976,-0.862 -1.813,0.659 -5.035,8.992 -2.545,6.632 m -37,-22.014 v 0 l -0.628,1.554 -4.322,5.307 -7.625,3.572 -1.402,-0.332 -0.023,-3.087 3.616,-8.665 1.025,-1.026 3.666,-1.616 7.081,0.029 0.183,0.601 m -46.23,708.229 v 0 l 1.502,-0.486 0.874,-0.981 0.119,-1.024 -0.287,-1.307 -2.176,-2.053 -0.56,0.914 -8.889,3.426 -7.224,4.21 -4.696,6.753 0.011,5.081 5.667,4.762 4.63,2.574 5.113,0.003 3.665,-1.619 0.597,-0.776 -1.537,-2.178 -1.787,0.693 -3.056,-0.119 -5.618,-2.573 -3.688,-3.162 v -0.622 l 2.842,-3.982 4.837,-3.813 3.738,-1.921 m 10.943,-78.669 v 0 l -16.485,9.776 -3.733,-10.121 -0.963,-1.538 -2.211,1.626 0.031,3.692 1.921,4.638 2.968,17.644 2.449,3.001 1.37,-0.314 0.127,-1.025 -1.838,-6.942 -0.023,-5.704 11.076,-6.568 1.626,-1.574 8.38,-5.43 1.652,-1.758 -0.314,-1.369 -2.082,-0.02 m 92.838,54.633 v 0 l 2.195,3.104 1.372,-1.349 0.133,-16.022 -0.454,-1.345 -1.663,-0.055 -1.729,2.342 m 145.878,-657.909 v 0 l -0.002,-14.031 3.855,-15.944 0.115,-3.058 -0.455,-1.339 -1.76,0.593 -4.755,19.748 0.124,16.048 2.72,4.306 0.634,0.004 1.349,-1.335 0.015,-1.084 -1.721,-2.895 m -34.678,558.451 v 0 l 2.098,0.131 3.886,1.733 2.083,-0.028 -0.025,-0.813 -1.535,-2.034 -11.24,-2.781 -1.198,-1.061 h -5.052 l -2.273,2.352 1.273,1.351 4.052,10e-4 1.003,-0.675 2.917,1.685 m -7.996,207.975 v 0 l 18.104,0.025 2.338,-1.733 0.083,-1.031 -13.482,-2.084 -7.019,0.134 -1.325,1.326 -0.118,1.026 0.466,1.48 m 44.981,-670.958 v 0 l 3.051,-4.046 2.661,-1.691 3.284,-3.137 2.659,-0.046 2.718,3.372 0.011,5.08 -2.936,4.579 -3.703,3.12 -3.143,1.701 0.079,1.576 1.345,0.453 2.05,-0.121 2.636,-1.577 4.099,-4.101 2.573,-4.63 v -7.108 l -2.573,-4.63 -1.763,-1.667 -4.08,-0.011 -2.638,1.579 -2.998,1.998 -6.046,5.981 -2.275,-3.68 -0.432,0.03 -1.894,6.414 0.689,1.014 0.01,2.08 -3.361,7.474 -3.366,12.408 1.622,7.066 1.754,3.361 1.787,-1.718 0.962,-2.714 3.725,-22.54 1.011,-2.386 m 9.286,-99.7 v 0 l 1.556,2.506 2.195,1.195 13.413,6.356 2.078,-0.025 -0.048,-0.839 -2.18,-1.716 0.409,-0.569 -10.889,-6.424 -3.615,-3.789 3.609,-3.785 14.38,-9.43 6.62,-5.57 2.38,-1.43 2.652,-2.758 -0.34,-1.507 -1.634,-0.885 -1.702,2.173 -2.638,1.669 -6.338,5.308 -13.374,8.426 -4.006,3.004 -4.652,4.758 0.34,1.508 m -36.217,642.214 v 0 l 1.695,-2.666 5.227,-5.218 1.772,10.153 1.552,0.378 1.758,-1.652 6.215,-8.986 2.362,3.242 -0.01,2.08 -0.694,0.945 -0.014,1.083 1.725,2.339 h 1.261 l 1.732,-2.339 v -6.109 l -2.936,-4.579 -2.372,-1.727 -1.056,-0.109 -1.48,0.468 -4.525,5.301 -0.477,-2.295 0.969,-3.008 -0.142,-4.024 -2.369,-0.323 -3.759,3.661 -2.245,3.214 -3.494,2.505 -1.691,2.661 -1.79,1.61 -0.48,-2.293 1.854,-7.945 0.115,-4.058 -0.453,-1.344 -1.505,-0.106 -3.895,15.384 0.018,7.088 1.379,1.297 2.662,-1.538 m 9.341,-67.417 v 0 l -3.397,8.573 0.028,6.083 1.994,-0.612 1.124,-1.72 3.047,-7.937 6.541,-20.695 -0.017,-4.087 -1.358,-1.336 -1.632,1.456 m -13.358,148.286 v 0 l -6.695,-2.6 -1.693,-1.125 0.035,-1.683 2.565,-3.661 2.31,-2.31 1.475,0.299 1.342,-1.272 -0.943,-3.66 -2.37,-1.689 -5.817,6.638 -3.574,6.63 0.01,2.08 0.94,1.631 5.353,2.708 9.087,-0.023 0.307,-1.371 -0.307,-0.314 m -135.507,352.373 v 0 l 0.472,-1.51 1.554,-2.06 4.848,-3.12 -2.342,-1.7 -2.079,0.01 -0.98,0.65 -0.332,-0.28 -0.014,-3.05 0.837,-1.97 -0.123,-3.05 -1.731,-2.32 h -0.617 l -0.715,0.59 -1.67,9.72 -0.113,11.06 0.505,1.32 2.377,-1.69 m 155.964,-1073.7 v 0 l 2.215,5.701 2.395,1.691 1.379,-1.296 0.011,-2.08 -3.57,-7.624 -2.007,-3.012 -3.086,-3.315 1.328,-0.338 1.002,0.666 4.604,-2.897 2.154,-2.741 2.556,-4.692 -1.561,-3.684 -2.728,-1.671 -5.08,0.011 -3.664,2.566 -4.62,4.57 -2.357,1.41 -0.94,1.727 -1.762,6.016 0.003,4.121 2.617,6.662 0.725,0.62 1.781,-0.633 2.536,-9.893 1.922,2.875 2.57,2.62 m 5.258,-13.87 v 0 l -3.017,2.911 h -2.052 l -1.273,-1.351 0.873,-1.633 2.37,-1.723 1.365,0.177 m -44.292,785.838 v 0 l -0.485,1.331 0.75,1.761 8.724,2.735 h 7.987 l 10.341,-1.964 5.86,-3.271 -3.202,-1.603 -15.928,2.718 -8.002,-1.736 m -21.299,271.62 v 0 l 2.723,11.76 -10e-4,4.99 -0.97,3 v 9 l 0.481,1.48 0.816,0.73 2.558,-9.15 0.116,-10.05 -2.736,-12.95 -0.997,-2.77 -0.729,-0.63 -1.367,0.31 M -352,1026.46 v 0 l -0.144,2.06 -0.708,0.95 -0.133,4.03 0.482,1.48 0.976,0.86 1.76,-0.6 2.751,-10.9 0.707,-1.05 4.123,3 8.37,4.42 1.626,1.57 2.634,1.58 1.332,-0.15 2.923,-1.46 -6.515,-5.54 -6.37,-3.42 -3.004,-2.01 -1.608,-1.78 8.988,-6.22 2.62,-2.57 12.38,-8.43 2.661,-2.754 -0.014,-3.048 -0.637,-0.151 -4.384,2.384 -5.632,4.579 -4.368,2.42 -5.626,4.57 -6.662,4.56 -1.057,-0.01 -0.455,-1.33 0.115,-3.06 2.855,-15.947 -0.135,-5.02 -1.359,-1.337 -0.642,0.007 -1.881,3.75 -2.624,17.617 m -14.808,225.45 v 0 l -6.008,4.02 -2.44,3.98 5.398,2.03 3.821,2.09 7.13,1.79 2.088,-0.02 1.183,-1.14 -3.745,-2.22 -7.14,-3.2 -0.665,-0.77 0.339,-1.5 1.312,-1.31 5.38,-3.43 2.312,-2.3 0.349,-2.51 -1.324,-1.31 h -1.055 l -4.282,4.12 m 24.26,-925.442 v 0 l 2.072,0.306 0.979,0.655 1.2,-1.057 -4.986,-4.552 -1.577,-2.636 -0.004,-9.113 2.54,-6.667 2.82,-5.739 4.217,-7.219 3.151,-4.262 0.121,-2.05 -0.454,-1.339 -1.51,0.333 -1.269,1.277 -1.722,3.692 -1.316,1.349 -5.228,9.252 -4.35,10.373 0.004,11.113 1.577,2.636 m -20.258,451.94 v 0 l 5.409,-15.572 -0.015,-6.084 -1.358,-1.337 -1.641,1.477 -8.72,27.825 0.025,5.089 1.894,0.388 m -64.546,342.244 v 0 l -0.724,0.58 -1.651,6.7 -0.13,3.06 0.149,9.03 1.325,1.32 1.026,0.12 1.3,-0.46 -0.641,-1.05 1.84,-14.96 -0.148,-3.03 -1.328,-1.31 m 99.498,-428.692 v 0 l 0.471,1.508 3.331,4.317 10.618,4.567 1.401,-0.332 0.008,-2.052 -0.66,-0.759 -7.374,-4.428 -2.101,-2.099 -1.577,-2.636 -0.004,-7.113 2.617,-6.665 1.964,-2.966 8.308,-8.338 1.692,-2.662 8.127,-8.283 -0.34,-1.507 -0.975,-0.862 -1.508,0.339 -19.307,19.319 -4.578,9.625 m 149.846,198.024 v 0 l -2.68,14.055 -3.161,9.92 0.019,1.089 1.313,1.32 1.583,0.07 2.389,-2.903 2.083,0.132 1.29,1.14 11.629,6.568 1.081,-0.027 -0.325,-1.329 0.598,-1.001 -3.327,-3.522 -8.176,-5.262 13.863,-10.401 1.67,-3.781 -1.302,-1.375 h -1.055 l -4.282,4.127 -5.38,3.43 -1.626,1.573 -4.663,2.535 -0.358,-0.301 -0.033,-2.084 1.992,-11.505 1.72,-17.391 -1.315,-1.384 -1.746,0.582 -1.616,5.721 0.804,2.039 -0.954,3.003 m 44.141,-699.047 v 0 l -0.955,2.044 0.768,2 -0.821,1.974 0.014,3.05 1.09,-0.305 1.496,-2.918 3.503,4.479 2.616,7.659 v 7.122 l -2.656,8.862 -2.923,5.761 -1.573,1.626 -6.43,9.38 -3.084,3.31 1.271,1.342 1.509,-0.34 6.042,-6.03 4.264,-6.286 4.049,-7.988 2.532,-7.637 -0.002,-11.12 -2.545,-6.632 -6.275,-9.729 m -150.571,128.878 v 0 l 5.599,8.176 5.4,4.717 2.05,-0.014 -0.023,-0.81 -9.343,-13.499 v -1.056 l 2.652,-2.757 4,-3 2.962,-1.962 3.453,-1.506 0.744,-1.747 -0.466,-1.48 -1.003,-0.819 -2.316,2.088 -4.368,2.422 -4.006,3.004 -5.661,5.759 m 5.707,-91.971 v 0 l -0.71,-0.97 -0.131,-2.027 1.671,-4.732 3.029,-4.964 3.763,-2.633 0.506,1.326 -0.118,3.056 -1.732,3.882 -0.117,3.104 2.186,2.126 0.626,-0.148 -0.651,-2.051 3.684,-7.918 0.123,-4.051 -0.508,-1.511 -2.921,-1.848 -4.781,1.607 -4.06,4.059 -2.905,4.766 -1.781,5.924 1.652,4.76 2.031,3.924 4.998,4.527 0.82,-0.533 3.975,2.623 0.325,-0.276 -0.328,-1.506 -5.787,-4.829 -2.567,-3.663 m -33.162,557.01 v 0 l 0.158,-2.058 0.708,-0.953 0.134,-3.02 -1.737,-4.731 -3.749,-2.614 -2.971,1.662 -1.002,-0.666 -1.757,0.599 -5.756,18.75 0.117,8.056 1.915,6.393 1.96,-0.477 1.157,-2.056 2.646,-20.724 2.905,-4.881 0.793,-0.616 0.331,0.275 0.028,7.082 -1.975,4.757 -1.72,8.211 0.804,-0.027 2.168,-1.58 1.34,-1.976 m 33.641,-489.447 v 0 l 3.247,-8.26 2.464,-9.698 -1.308,-1.38 -1.738,0.572 -3.585,13.716 -6.522,14.3 -4.545,12.692 0.196,1.384 1.221,1.395 2.244,-0.713 -0.641,-0.975 -0.02,-1.09 1.644,-4.9 m -33.261,592.509 v 0 l -0.989,-0.9 -3.612,-0.243 -2.997,-10.871 -1.051,0.073 -1.733,2.339 0.01,2.08 0.837,1.978 10e-4,6.99 -1.821,6.968 0.338,0.515 1.025,0.846 2.631,-1.509 1.591,-3.539 1.066,-1.064 4.367,-2.425 0.618,-0.793 m 172.233,-720.005 v 0 l -1.785,3.737 -2.534,2.585 -6.002,8.004 -3.039,5.96 -2.66,7.732 0.134,6.02 2.828,3.945 3.059,2.035 9.406,4.354 1.416,-0.363 0.007,-0.628 -3.639,-3.119 -6.415,-3.465 -3.313,-3.303 -0.482,-1.486 -10e-4,-2.99 3.739,-10.734 3.962,-5.962 4.095,-4.095 2.451,-1.499 1.574,-5.678 -1.307,-1.38 m -46.031,719.696 v 0 l 1.792,-1.671 2.573,-4.629 v -8.108 l -3.338,-5.297 -4.05,-10e-4 -4.759,4.662 -4.936,6.878 -2.294,-4.677 -0.38,0.012 -2.564,14.835 -3.575,12.052 -8.224,-5.699 -2.599,-9.712 1.625,-8.286 2.718,-8.147 5.588,-9.2 2.208,-1.675 1.578,-3.632 -0.357,-1.539 -0.976,-0.862 h -1.054 l -4.758,4.652 -3.221,5.225 -4.712,9.563 -2.651,9.84 v 7.123 l 1.735,6.027 1.846,3.597 2.063,2.064 3.666,1.616 4.463,0.153 2.514,13.97 1.112,-0.14 1.703,-1.606 1.193,-4.231 2.627,-20.041 4.659,-9.154 1.573,-1.626 3.43,-5.38 2.327,-1.696 1.823,3.328 -0.003,3.112 -3.691,7.919 1.332,0.51 m -4.226,112.215 v 0 l 6.434,-11.382 1.14,-1.29 -0.009,-3.054 -1.369,-0.314 -1.607,0.916 -2.153,2.74 -3.426,6.371 -2.574,3.629 -5.068,10.036 -2.501,9.65 1.722,6.09 3.846,7.59 5.098,5.1 2.636,1.58 1.056,0.11 1.321,-0.49 -1.538,-2.67 -5.573,-6.63 -2.031,-3.92 -1.667,-4.77 0.118,-6.05 2.348,-6.38 m 7.021,-38.198 v 0 l 4.35,-3.338 0.132,-2.021 -0.455,-1.346 -3.082,-0.019 -2.636,1.577 -2.126,2.295 -2.159,-2.851 -1.368,0.313 -0.009,5.054 1.326,1.325 4.052,10e-4 m 31.97,-224.729 v 0 l -2.686,1.592 -3.112,3.12 -2.562,7.602 0.147,1.335 2.793,6.36 4.499,3.058 5.931,1.796 4.055,-0.117 5.942,-1.68 2.373,-1.128 -0.35,-0.894 -1.999,0.676 -2.027,-0.643 -1.041,0.638 -8.328,-1.72 -4.31,-1.827 -1.106,-1.101 -1.577,-2.636 -0.124,-4.048 0.298,-1.308 1.664,-2.669 0.847,-0.822 5.618,-2.573 2.055,-0.118 1.978,0.836 2.659,0.045 1.723,-2.343 -0.353,-1.534 -0.977,-0.872 -1.03,-0.133 h -7.993 m -171.967,401.975 v 0 l -2.095,0.14 -6.398,1.92 0.105,2.48 1.326,1.32 1.023,0.12 8.123,-1.99 21.819,-2.84 2.089,0.68 7.978,-2.81 3.052,0.12 7.881,2.74 3.057,0.11 3.063,-0.84 8.947,2.85 5.055,-0.12 5.877,-1.73 3.066,0.84 2.022,-0.13 0.947,-0.69 2.001,0.69 h 2.052 l 2.296,-2.38 -1.69,-2.37 -0.587,-0.08 -12.042,-0.01 -3.007,0.97 -6.99,0.01 -3.214,-0.96 -26.267,-4.11 0.107,-3.48 2.254,-8.14 3.6,-19.81 -0.124,-8.04 -1.732,-2.34 -0.63,-0.08 -2.356,2.42 0.841,3.05 -0.114,3.06 -2.549,15.9 -4.191,16.98 -0.221,2.63 -7.101,2.01 m 64.213,-413.602 v 0 l -5.315,6.345 -3.569,7.623 -0.004,15.112 3.704,7.751 4.608,2.553 7.082,-0.02 0.313,-1.367 -0.617,-0.722 -5.155,-2.237 -3.367,-2.346 -2.57,-6.61 -0.118,-9.054 1.667,-4.766 4.034,-6.93 5.57,-5.62 1.538,-2.662 -1.297,-1.379 h -2.052 m 30.729,-555.841 v 0 l -8.511,5.526 -3.197,5.2 -2.846,6.693 -3.502,14.764 2.54,5.667 2.759,1.704 6.113,0.004 7.627,-3.58 2.981,-1.979 1.524,-2.066 9.787,5.58 0.319,-0.319 -8.029,-7.256 -1.617,-4.742 3.561,-7.688 2.762,-2.667 2.054,0.008 0.456,1.347 -0.118,4.055 -1.852,4.947 0.134,3.02 1.085,1.169 4.633,-11.136 v -3.118 l -1.619,-3.666 -0.724,-0.626 -5.077,-0.011 -2.636,1.577 -3.097,4.099 -3.404,5.944 -6.749,-2.626 -2.693,-0.029 -1.688,2.366 0.545,0.737 9.431,2.485 2.52,3.514 -0.177,0.772 -3.314,3.311 -7.625,3.578 -3.056,0.119 -2.546,-1.031 -1.809,-3.462 3.346,-13.428 4.217,-9.248 1.363,-1.95 2.741,-2.153 5.482,-3.426 1.661,1.237 0.841,-1.024 -2.273,-2.351 m -52.062,799.836 v 0 l 4.097,-0.117 5.132,-1.645 -1.409,-1.427 -16.718,-2.477 -6.731,-2.02 -0.676,-0.773 0.154,-1.329 1.379,-2.363 3.121,-2.12 3.495,-1.798 6.961,-1.702 1.553,-1.742 -1.69,-2.37 -5.686,0.036 -9.636,5.577 -3.06,3.06 -1.735,4.731 0.133,2.02 0.899,1.517 4.614,2.212 3.061,0.819 m 58.742,-734.059 v 0 h 18.032 l 1.978,0.837 3.022,0.133 1.484,-0.482 0.82,-1.008 -1.304,-0.479 -3.643,-0.118 -2.309,-1.881 -19.037,-0.003 -9.376,1.865 -6.097,2.616 -3.036,2.007 -2.86,3.944 0.021,2.079 0.972,0.339 3.685,-4.152 6.055,-3.075 m -28.37,653.519 v 0 l -1.352,1.318 -0.011,2.08 1.839,2.918 1.522,1.327 1.007,-0.6 0.463,1.298 -1.955,9.01 0.002,4.989 0.454,1.345 1.587,0.072 1.259,-2.711 3.384,-11.972 4.739,1.637 3.057,0.117 1.345,-0.455 0.044,-1.684 -7.803,-3.793 -0.066,-0.495 0.116,-2.118 2.132,-6.886 3.515,-14.812 1.072,-1.215 0.133,-7.022 -0.455,-1.345 -1.683,-0.045 -2.199,4.648 -5.288,21.507 -2.312,5.614 -1.031,-0.384 -2.493,-2.344 M -252,666.457 v 0 l -0.133,8.103 -2.358,7.37 -4.221,9.254 -3.125,4.125 -3.35,2.176 1.634,1.376 3.079,-0.01 0.974,-0.852 3.788,-3.815 3.221,-6.217 3.686,-10.242 1.674,-7.163 0.13,-5.062 -0.13,-2.062 -2.35,-9.306 -1.514,-3.626 -1.72,-2.696 -7.756,-7.652 -1.334,0.16 -2.06,1.551 2.688,4.602 -0.624,1.034 1.328,0.337 0.946,-0.685 1.052,0.002 0.482,0.364 3.51,5.546 2.349,5.372 m -15.851,360.019 v 0 l 0.119,3.1 1.731,3.88 -0.013,2.09 -0.695,0.94 0.001,1.06 1.314,1.32 1.661,0.05 1.729,-2.35 0.136,-2.05 -0.132,-2.06 -1.726,-3.88 -0.006,-1.12 2.406,-12.35 1.486,-5.04 4.5,0.1 1.977,0.83 12.99,0.01 12.638,-2.61 3.719,-1.857 -0.008,-2.051 -1.346,-0.456 -4.058,0.114 -8.945,1.856 -21.021,-0.143 -0.334,-2.397 2.619,-3.679 14.558,-4.537 2.215,2.592 2.945,-1.82 -0.186,-1.301 1.289,-0.851 4.861,-1.718 3.087,0.016 0.946,0.702 1.661,0.045 1.689,-2.368 -0.324,-0.504 -1.972,-1.875 -8.085,-0.014 -21.88,6.735 -4.087,-0.017 -0.947,-0.695 -1.554,0.38 -1.868,15.133 m 77.895,16.79 v 0 l 0.148,4.07 1.326,1.32 h 2.05 l 0.762,-0.67 3.426,-6.36 3.003,-4.01 2.757,-2.65 h 1.055 l 2.324,2.31 0.134,6.03 -0.954,3 0.466,1.48 0.977,0.87 h 2.049 l 3.287,-4.14 4.006,-3 4.628,-2.57 1.106,-0.11 2.312,2.42 0.123,7.05 -0.827,3.03 1.313,1.32 1.662,0.05 1.729,-2.35 v -11.1 l -1.577,-2.64 -2.303,-2.31 -1.486,-0.48 -2.05,0.12 -5.67,2.61 -2.247,2.1 -1.576,0.07 -2.66,-5.1 -4.764,-4.66 -1.331,0.15 -2.388,1.4 -5.789,7.07 -1.998,-7.24 -1.55,-0.38 -0.453,0.34 -0.872,0.97 -0.133,1.03 m 26.18,-325.218 v 0 l -2.505,1.553 -2.532,3.637 0.889,2.572 7.986,3.457 23.196,7.176 7.216,4.179 1.085,-0.022 0.321,-2.36 -3.667,-3.762 -2.251,-1.227 -7.665,-2.849 -15.537,-4.284 -4.706,-1.884 -1.734,-1.178 4.519,-4.575 13.071,-7.63 43.6258,-3.071 8.9898,10e-4 3.0033,0.954 3.0035,-0.954 13.9901,-10e-4 4.4021,0.948 40.1917,4.111 30.41886,2.913 h 7.98714 l 9.4585,-1.424 25.996,-2.355 36.1182,-4.245 30.002,-2.014 32.667,-5.988 1.234,-1.416 -0.438,-1.378 -1.094,-0.033 -27.984,4.556 -9.96,2.297 -4.99,-10e-4 -3.007,-0.97 -9.9896,-10e-4 -25.8433,3.377 -39.9309,3.484 -14.1699,1.996 -4.05607,0.115 -3.46894,-0.874 -29.36049,-2.513 -12.8486,-1.744 -28.1436,-2.74 -5.1912,-1.101 -4.9901,10e-4 -3.0069,0.97 -6.9965,0.015 -2.9964,-0.015 -1.9777,-0.837 -3.0191,-0.134 -9.9437,1.852 -2.037,-0.718 -4.019,-0.134 -12.014,1.972 -9.989,-0.002 -1.305,-0.479 0.302,-0.48 8.35,-8.499 v -2.052 l -1.351,-1.273 -2.544,1.844 -1.928,3.422 -2.556,2.556 -5.405,3.864 -15.363,1.919 -0.545,0.671 v 1.047 l 0.584,0.697 4.945,1.559 -6.872,3.932 m -43.922,263.165 v 0 l -4.778,-2.836 1.853,-4.543 -0.44,-1.339 -1.077,-0.13 -1.924,1.997 -2.242,4.157 -1.419,0.891 -1.688,2.395 0.553,0.742 7.828,1.648 3.357,-1.818 m -78.059,63.539 v 0 l 0.011,-4.14 -2.567,-7.605 -3.131,-3.133 -10.414,-3.469 -1.257,-1.033 -2.352,2.273 v 4.053 l 1.651,1.973 -0.598,1.005 1.049,-0.282 2.187,-3.197 5.987,1.785 2.6,1.719 1.838,2.916 v 11.105 l -2.573,4.63 -1.105,1.11 -6.63,3.57 -4.08,-0.01 -0.974,-0.65 -0.973,0.64 -1.056,-0.01 -0.335,-1.39 1.85,-6.95 v -14.984 l -2.014,-6.454 -1.502,0.099 -1.322,1.322 -0.133,1.03 0.133,3.023 0.837,1.977 -0.116,11.057 -2.498,10.6 -1.237,3.28 0.015,3.09 1.325,1.32 h 2.048 l 0.702,-0.6 1.667,-4.12 0.914,1.15 3.701,1.57 6.083,-1.72 5.595,-2.84 3.103,-3.11 1.254,-2.31 m 90.46,-262.343 v 0 l -1.522,-0.371 -0.766,0.661 -6.575,13.629 -0.122,6.05 0.455,1.339 1.535,-0.358 1.306,-2.256 6.553,-15.663 -0.014,-2.083 m -378.818,208.012 v 0 l -1.868,5.974 0.678,1.012 v 1.054 l -0.828,1.977 v 10.992 l 0.482,1.484 0.976,0.862 1.506,-0.34 0.82,-1.002 -0.652,-0.974 -0.146,-5.026 0.147,-2.026 0.837,-1.978 -10e-4,-10.993 -0.455,-1.338 m 48.891,-720.026 v 0 l 5.273,-0.371 -20.2,-1.754 -4.99,10e-4 -1.976,0.828 -2.001,-0.695 -4.022,-0.133 -1.484,0.482 -0.819,1.003 2.342,2.343 m 13.381,49.2 v 0 l -3.366,1.822 -1.064,0.121 -4.053,-0.12 -4.947,-1.851 -2.02,0.134 -1.273,1.351 0.88,1.645 1.912,1.317 2.453,1.4 2.054,0.137 8.054,-0.137 3.578,-1.939 1.73,-2.369 -0.011,-6.08 -6.14,-6.29 -2.573,-4.63 0.011,-3.078 4.716,-3.985 -2.365,-2.329 -5.69,2.556 -1.672,2.728 -0.123,2.048 2.693,6.684 2.007,3.012 5.137,5.284 m 220.294,594.019 v 0 l 0.617,0.741 11.644,3.627 1.444,0.972 -10.717,27.608 0.014,4.085 1.36,1.337 0.646,-0.007 2.341,-4.855 9.179,-24.227 3.188,-6.22 0.121,-2.05 -0.454,-1.339 -1.057,-0.007 -1.946,1.693 -2.085,0.014 -10.947,-3.851 -3.022,0.143 m 4.528,-77.7 v 0 l -0.148,3.07 -0.652,0.978 2.323,0.345 0.726,-0.629 2.617,-6.663 -0.015,-6.084 -1.357,-1.336 -1.554,1.312 -1.809,5.988 m 31.736,99.698 v 0 l 1.118,-3.64 10e-4,-5.991 -2.758,-7.752 -0.705,-0.604 h -2.049 l -2.974,2.65 -1.973,-1.641 -1.507,0.339 -0.871,0.977 -0.118,1.026 0.821,1.974 0.01,3.08 -3.378,5.514 -4.35,10.373 0.023,8.087 1.343,0.44 1.791,-0.792 5.033,-10.947 3.49,-10.649 2.453,-3.283 2.488,12.445 m 41.989,-625.48 v 0 l -2.215,-7.182 -2.241,-4.264 -6.098,-6.101 -2.498,-1.549 -1.685,-2.643 -1.536,-0.358 -0.314,0.307 -0.079,4.574 3.389,1.926 5.818,4.838 2.821,4.612 1.758,6.015 -1.67,8.288 -3.947,10.502 -3.962,5.963 -4.127,4.283 0.363,1.35 2.95,-1.646 1.027,0.621 0.505,-0.323 5.501,-8.509 4.618,-11.096 1.744,-8.306 m -94.886,926.906 v 0 l -1.966,13.04 0.143,4.02 1.403,0.44 1.761,-2.79 0.99,-3.75 2.556,-15.87 -0.365,-1.54 -2.002,-1.82 -1.499,1.3 -0.853,0.97 M -527.522,182.21 v 0 l 0.027,0.593 m -40.977,767.195 v 0 l -0.379,2.528 2.351,2.273 2.299,-2.299 -3.298,-3.299 m 296.377,-142.698 v 0 l -1.632,-3.731 -2.957,-4.956 -7.817,-7.839 -2.972,-1.815 -2.365,1.707 0.939,2.264 7.949,7.395 2.269,3.294 2.574,5.619 0.133,4.059 -0.131,2.06 -2.532,7.637 -3.049,5.988 -4.361,5.948 -6.791,6.376 2.366,2.329 6.971,-4.815 2.813,-2.833 3.219,-5.224 1.82,-3.737 3.543,-10.669 m 34.971,-72.855 v 0 l -1.126,1.111 -2.558,4.695 2.32,6.395 2.775,3.869 1.58,3.691 -2.303,2.385 -3.085,0.014 -3.882,-1.726 -1.539,0.358 -0.843,1.031 1.632,2.754 4.697,1.704 4.048,-0.124 3.47,-2.392 1.832,-2.914 -1.628,-5.806 -4.09,-6.196 0.01,-4.081 1.662,-1.758 2.636,-1.577 h 4.108 l 2.924,1.685 0.49,-1.323 -0.466,-1.482 -1.03,-1.041 -2.918,-1.839 -2.114,-0.006 m 28.731,-539.678 v 0 l 0.15,1.353 2.204,2.065 5.542,-2.379 10.374,-3.359 4.087,0.023 0.332,1.402 -3.693,9.904 1.125,1.248 1.806,-1.742 3.768,-8.41 -0.015,-5.085 -1.325,-1.325 -3.087,-0.017 -10.88,3.734 -3.083,-0.028 0.341,-1.124 6.658,-3.712 0.049,-0.839 -2.078,-0.025 -8.63,4.574 m -65.774,-6.235 v 0 l -0.885,0.991 0.684,1.836 8.115,2.744 0.026,0.378 -0.478,1.554 -6.008,9.053 -3.362,7.408 0.004,3.113 1.892,2.384 2.435,-7.845 6.25,-11.283 3.76,-4.651 3.571,0.761 1.814,-3.361 -0.357,-1.539 -0.977,-0.871 -2.022,-0.133 -1.978,0.836 -4.02,0.134 -6.944,-1.85 m -37.784,561.631 v 0 l -0.582,0.725 0.819,1.478 4.934,2.054 -0.08,2.537 -1.855,6.945 0.002,6.99 0.479,1.304 1.568,-0.858 1.123,-2.446 3.51,-13.735 1.246,-2.676 4.554,-0.07 3.004,0.953 1.335,-0.439 -0.333,-1.51 -1.337,-1.321 -7.115,-2.728 0.098,-2.496 0.837,-1.977 -0.116,-13.059 -2.357,-8.33 -1.987,-3.949 -1.505,0.338 -0.872,0.977 -0.133,1.03 0.117,5.056 2.854,7.946 -10e-4,7.99 -0.837,1.978 -0.211,4.526 m 2.585,-78.022 v 0 l -1.807,1.832 -1.577,2.636 v 6.108 l 1.577,2.636 1.108,1.103 5.618,2.573 6.113,-0.004 2.635,-1.579 0.74,-1.205 -12.06,-3.155 -1.725,-2.367 1.606,-4.781 3.094,-3.084 9.08,-2.765 -1.791,-2.824 -6.687,0.036 -2.636,1.577 M -235,928.543 v 0 l -0.015,-3.04 -0.482,-1.483 -1.003,-0.819 -1.737,1.563 -2.629,12.672 1.584,4.754 2.727,1.666 1.534,-0.354 0.844,-1.03 -1.685,-2.918 -0.124,-1.06 10e-4,-4.99 0.837,-1.978 m -12.393,-738.343 v 0 l 1.346,0.314 -1.329,0.332 m 25.683,574.654 v 0 l 1.332,0.485 1.739,-0.725 2.772,-8.142 0.982,0.4 2.832,2.787 6.63,3.574 2.354,-0.357 -2.777,-3.977 -1.833,-1.813 -2.498,-1.55 -1.548,-2.61 0.014,-1.084 2.657,-2.759 3.737,-1.919 4.695,-1.565 0.603,-0.705 -0.008,-2.051 -1.346,-0.456 -4.055,0.118 -3.669,1.619 -4.244,3.089 -1.362,-0.312 1.82,-9.037 -10e-4,-11.99 -0.482,-1.484 -0.973,-0.868 -1.429,-0.133 -2.657,21.012 -3.314,14.408 m -71.608,-7.648 v 0 l -0.027,-0.593 m 98.983,-555.987 v 0 l 0.027,0.593 M 354.98,271.52 v 0 l 10.871,-10.994 0.132,-2.022 -0.456,-1.347 -2.509,0.341 -2.995,3.974 -9.523,9.327 -1.323,-1.327 1.646,-2.943 -0.646,-1.058 1.679,-2.916 -0.022,-1.085 -2.001,-0.351 -2.214,5.611 -1.488,5.709 -0.029,2.694 2.37,1.689 3.338,-3.107 m 6.421,-50.435 v 0 l -3.672,1.585 -2.085,-0.013 -1.972,-0.822 -4.944,1.835 -2.084,-0.013 -0.947,-0.695 -1.054,10e-4 -1.946,1.684 -3.055,-0.684 -1.251,1.093 -9.443,3.5 -0.619,0.725 0.011,1.047 0.646,0.14 9.479,-2.876 23.142,-3.658 6.059,-0.114 3.007,0.97 4.025,-0.143 0.306,-1.371 -0.306,-0.314 -4.676,-0.259 -1.707,-1.765 -1.645,0.666 -2.004,-0.784 m -5.071,143.835 v 0 l 2.097,0.294 0.952,0.708 4.088,0.017 7.132,-1.785 6.33,-3.613 8.222,-13.244 5.244,-12.193 7.195,-13.75 0.3,7.212 -0.828,3.031 0.828,1.976 v 8.993 l -0.837,1.978 -0.133,3.022 0.482,1.484 1.031,0.843 2.638,-1.516 10.549,-16.497 4.57,-5.62 5.953,-8.882 1.896,11.242 2.504,28.645 2.185,6.683 2.705,-0.035 0.441,-1.341 -1.941,-9.498 -2.077,-30.025 -1.43,-6.853 -2.23,-5.303 -0.765,-0.672 -1.659,-0.047 -2.154,2.711 -4.428,7.375 -4.57,5.62 -7.928,11.876 -1.652,-6.123 0.85,-3.067 -0.001,-19.992 -0.456,-1.347 -2.683,-0.044 -17.329,37.818 -7.231,12.259 -2.1,2.097 -3.597,1.846 -7.095,1.852 -2.047,-0.123 -5.919,-3.704 -1.056,0.007 -0.327,1.39 1.548,2.61 m -29.711,132.42 v 0 l -0.135,-2.108 -1.35,-0.461 -4.022,0.132 -1.978,0.837 -3.996,0.015 -4.026,-0.148 -1.978,-0.837 -10.99,-10e-4 -12.61,1.732 -10.442,2.142 -1.932,1.107 -0.364,1.532 1.316,1.324 2.019,0.134 6.074,-1.311 19.933,-2.673 7.061,0.13 5.877,1.738 2.055,0.116 5.97,-1.818 1.065,0.655 2.375,-1.686 m 3.55,-33.094 v 0 l 1.398,-1.516 0.133,-1.03 -0.142,-2.024 -1.368,-0.306 -0.523,0.882 -3.011,1.42 -19.327,5.383 -1.583,1.603 0.12,1.074 1.324,1.323 2.084,0.014 15.378,-4.36 m 25.34,125.984 v 0 l -1.118,5.041 2.342,2.269 1.749,-1.575 2.269,-5.168 1.341,-1.917 4.331,2.576 2.619,2.57 2.963,1.962 3.728,1.6 5.21,-2.553 -0.715,-1.242 -6.263,-1.837 -3.922,-2.93 -5.676,-5.154 10e-4,-0.622 1.675,-1.794 11.38,-7.43 8.099,-8.101 4.571,-8.625 -0.88,-2.062 -2.026,-0.417 -4.665,8.104 -8.099,8.101 -11.669,7.538 -0.505,-1.327 -0.002,-4.989 1.972,-21.014 -0.002,-5.989 -0.454,-1.345 -1.609,-0.063 -2.128,9.524 -2.53,25.391 m 58.76,-84.533 v 0 l -0.875,0.991 v 5.057 l 4.606,4.705 5.749,1.738 1.354,-0.472 0.007,-0.628 -6.172,-4.704 -1.554,-2.611 0.011,-2.08 2.661,-2.759 3.663,-2.566 h 2.053 l 3.34,3.708 -3.734,13.582 0.017,2.087 1.141,1.183 1.909,-3.255 2.662,-6.898 0.19,-1.535 4.642,-1.799 -0.74,-1.275 -2.872,-1.893 0.903,-4.55 -0.482,-1.485 -1.029,-0.9 -2.762,4.584 -3.187,-4.554 -3.083,-0.015 -3.666,1.616 m 12.477,-267.488 v 0 l -6.953,2.481 1.234,1.086 4.973,-1.815 14.994,-0.013 27.007,2.985 3.017,-0.145 0.352,-0.363 -4.077,-1.645 -7.382,-0.956 -22.924,-1.863 m -29.041,335.943 v 0 l 2.797,2.818 1.602,3.731 -2.317,7.382 -1.512,2.584 -10.55,10.55 -4.951,2.801 -0.505,-1.327 0.116,-3.057 3.941,-15.68 1.686,-15.501 M 420.48,401.02 v 0 l 3.371,-3.494 v -2.052 l -1.324,-1.316 h -1.054 l -3.283,3.127 -2.381,1.43 -8.094,8.095 -3.221,5.225 -5.978,12.896 -5.023,8.863 -2.243,-5.016 -4.724,-3.629 -7.022,-0.134 -1.485,0.482 -0.868,0.973 -0.118,1.46 10.11,2.746 1.719,2.77 0.108,1.054 -1.686,3.69 -2.06,2.06 -6.73,2.736 -9.053,-0.12 -5.619,-2.574 -4.12,-3.122 -2.556,-6.674 3.622,-14.74 5.047,-5.044 2.253,-1.229 5.373,-2.349 2.085,0.014 0.974,0.651 0.475,-0.299 3.922,-3.367 -0.054,-2.661 -2.402,-0.338 -9.67,3.543 -3.957,2.036 -3.004,2.002 -3.098,3.101 -2.973,6.731 -2.593,11.949 2.6,7.722 4.064,4.067 3.012,2.007 5.619,2.574 11.053,0.119 6.73,-2.735 6.947,-7.144 2.805,4.365 4.84,3.818 4.63,2.573 5.101,-0.008 -1.602,-2.025 -7.135,-4.544 -4.639,-4.819 12.54,-25.65 6.314,-6.316 1.473,0.298 0.505,-0.323 M 307.999,674.543 v 0 l -0.131,-4.105 -0.968,-4.068 -1.076,-10.794 -1.635,-24.879 -0.666,-0.538 h -1.046 l -0.665,0.536 -1.892,27.387 -1.594,5.134 -4.304,8.256 -3.496,3.379 -2.05,-10e-4 -0.759,-0.661 -1.579,-2.635 -0.123,-2.048 1.778,-5.954 1.921,-3.738 2.153,-2.71 1.658,0.06 -0.05,1.666 1.367,-0.302 0.142,-2.024 -0.481,-1.485 -0.977,-0.871 h -3.053 l -1.758,1.662 -3.036,4.999 -2.545,6.632 v 5.117 l 1.616,3.667 1.025,1.024 3.665,1.611 1.116,-0.004 2.634,-1.571 4.095,-4.095 4.4,-7.328 4.069,11.362 0.749,0.573 1,-0.817 m 7.047,-98.818 v 0 l -12.112,-0.031 -30.877,6.738 -4.085,-0.031 0.024,-0.813 6.785,-6.835 1.43,-2.38 9.136,-9.284 v -2.052 l -1.351,-1.273 -1.634,0.873 -1.844,2.399 -13.045,13.055 -1.692,2.662 -4.57,4.62 -1.577,2.636 -0.096,2.506 19.208,5.786 0.896,0.339 1.709,1.817 1.275,-10e-4 1.708,-2.394 -1.652,-2.783 -10.236,-3.295 -1.465,-1.534 28.844,-5.992 14.965,-1.698 1.505,-1.697 m 39.345,-82.079 v 0 l -1.128,6.075 0.481,1.485 0.976,0.87 17.021,0.135 5.752,-1.757 0.595,-0.705 -0.011,-1.049 -1.331,0.324 -1.973,-1.651 -4.023,-0.133 -3.007,0.97 -8.992,-0.001 -1.337,-0.514 3.557,-10.666 1.122,-1.69 1.299,-0.216 1.708,-1.796 10.647,-0.101 2.026,0.147 1.977,0.837 4.023,-0.133 0.946,-0.694 1.37,0.314 0.025,2.088 -2.73,8.879 0.36,1.54 1.003,0.82 11.997,-8.597 0.758,0.588 0.908,2.509 1.838,7.189 1.446,-1.452 1.415,-2.482 0.108,-1.054 -2.656,-6.718 -1.787,-2.623 -1.299,0.124 -5.405,2.424 -3.328,3.093 -0.463,-1.3 0.82,-1.974 0.133,-4.023 -0.482,-1.483 -1.003,-0.82 -1.042,0.64 -22.362,-2.932 -0.882,-0.568 1.772,-7.847 -10e-4,-6.99 -0.828,-1.976 0.315,-1.37 3.09,-0.027 13.945,2.855 2.021,-0.142 0.442,-1.39 -1.829,-1.755 -2.66,-0.946 -16.043,-3.639 -1.909,-0.934 -0.775,0.596 -1.583,3.689 0.541,0.831 -1.424,1.409 0.554,0.771 -0.643,2.031 0.276,0.324 1.998,-0.672 1.361,0.311 -1.673,10.497 m 32.787,181.573 v 0 l 3.838,-1.869 11.457,-3.438 1.556,-1.732 -1.273,-1.352 -7.087,-0.016 -4.887,1.66 -5.517,2.702 -6.32,4.316 -1.577,2.636 -0.007,3.115 2.551,7.59 3.055,2.067 5.701,1.651 9.055,0.117 10.468,-1.988 1.911,-0.919 -0.569,-1.268 -25.434,-2.481 -1.721,-1.804 -0.046,-5.659 m 34.777,-228.37 v 0 l -2.848,7.005 0.441,1.34 2.051,0.008 2.454,-3.322 9.551,-9.551 2.95,-1.8 0.387,2.381 -1.551,3.668 -4.137,7.246 1.295,1.37 h 1.055 l 2.283,-2.127 2.38,-1.43 7.284,-7.136 2.054,0.008 0.456,1.347 -0.119,4.055 -3.721,8.886 0.35,1.355 1.006,-0.599 0.998,0.596 0.748,-0.573 3.62,-8.665 -0.014,-7.085 -0.926,-1.607 -2.371,-1.723 -1.357,0.169 -2.388,1.402 -3.835,3.784 -0.806,0.026 0.815,-3.029 -0.119,-3.055 -1.619,-3.666 -0.749,-0.573 -7.687,5.513 -3.31,3.084 -1.3,-1.299 1.599,-1.999 -0.599,-1.002 1.599,-1.999 -1.308,-1.364 -0.631,0.003 -2.064,3.415 -1.664,4.885 m -5.655,162.519 v 0 l 1.018,0.844 1.736,-1.556 5.02,-13.739 2.741,-9.439 1.568,0.067 9.881,3.73 2.4,-0.336 0.049,-1.672 -1.913,-1.326 -13.109,-5.608 -2.668,-3.422 0.599,-1.005 -0.933,-0.568 -1.722,-2.374 0.021,-1.084 1.339,-0.454 8.057,0.115 14.942,3.838 1.297,-0.464 -0.6,-1.005 0.598,-1.004 -0.294,-0.295 -1.005,0.598 -1.281,-1.052 -2.99,-1.096 -14.666,-3.521 -9.058,-0.114 -1.327,0.506 4.033,7.055 2.657,8.862 0.132,2.061 -0.13,3.061 -1.614,5.952 -5.121,11.928 m 8.407,-77.526 v 0 l -2.403,4.531 0.011,2.077 3.296,2.333 1.085,-0.022 0.312,-1.361 -0.684,-0.944 -0.019,-1.088 2.344,-5.372 4.23,-7.254 2.156,-2.681 1.631,0.665 4.31,-4.084 3.695,-2.516 0.479,1.304 -0.118,8.056 -2.131,5.903 -1.705,7.041 0.44,1.338 1.685,0.044 2.351,-4.956 2.289,-7.373 3.916,-7.74 3.004,-4.006 3.304,-3.312 1.51,-0.333 0.313,0.307 0.023,3.087 -2.727,5.887 0.177,4.27 1.855,-1.77 3.692,-6.392 -0.011,-6.08 -2.325,-2.325 -3.08,-0.011 -2.636,1.577 -2.095,2.095 -4.935,6.878 -1.614,-5.148 0.542,-0.824 -2.181,-1.538 -6.999,5.664 h -1.056 l -1.324,-1.316 -0.014,-4.085 2.572,-5.618 1.159,-1.332 -2.336,-2.312 -2.792,3.618 -0.729,2.013 -1.811,11.482 m 15.326,-244.315 v 0 l -5.845,8.832 -2.544,6.632 0.003,6.113 1.578,2.636 2.094,2.095 4.969,3.026 9.661,3.557 4.619,0.217 2.947,6.849 0.472,0.044 2.81,-2.792 1.219,-2.221 7.2,-15.675 0.796,0.508 0.998,-0.597 0.972,0.642 1.056,-0.001 3.662,-2.557 8.103,-8.108 2.693,-6.683 -0.124,-4.048 -3.729,-5.344 -0.588,-0.084 -2.099,0.12 -2.636,1.577 -6.283,7.127 -1.328,-0.336 0.643,-0.979 -0.337,-1.328 -1.439,0.8 -2.051,7.485 -8.521,12.551 -2.589,5.282 -1.961,6.6 -0.989,-0.961 -14.139,-6.668 -3.668,-3.762 -0.147,-2.026 0.133,-3.059 3.619,-8.669 3.962,-5.962 11.146,-14.256 -0.019,-4.082 -1.368,-0.313 -0.761,0.658 -4.428,7.373 m -15.763,185.6 v 0 l -0.027,-0.593 M 239.27,227.248 v 0 l -13.205,3.249 -4.782,2.185 1.223,0.302 2.052,-0.118 3.234,-1.222 7.325,-1.693 17.32,-1.819 3.066,0.853 6.993,-0.001 1.338,-0.455 -0.307,-1.372 -1.031,-0.141 m -20.948,31.941 v 0 l -6.262,6.752 -1.76,-1.56 -2.087,-0.016 -12.709,3.504 -8.209,3.185 -0.489,-1.322 0.953,-3.004 -0.142,-6.024 -1.82,-0.417 -2.809,11.213 -2.056,2.205 0.694,2.001 0.147,3.026 -0.147,2.026 -0.837,1.977 0.142,8.025 1.366,0.313 0.684,-0.566 2.843,-14.314 4.696,-2.285 15.448,-5.354 2.252,-1.184 2.611,-0.053 4.69,14.133 3.698,2.644 14.113,0.004 7.945,-2.836 1.479,0.468 1.523,1.302 0.332,-0.276 0.014,-2.05 -1.325,-1.325 -1.03,-0.133 -2.055,0.118 -5.35,1.938 -10.527,1.794 -4.789,-1.616 -1.978,-2.875 -2.645,-9.862 1.563,-2.703 4.095,-4.095 5.225,-3.221 6.411,-3.356 1.056,-0.107 1.341,0.441 0.141,1.032 -0.133,9.022 -1.324,1.316 -1.998,-0.684 -1.246,0.159 1.581,2.175 -0.665,1.013 0.277,0.333 3.05,0.014 1.554,-0.919 2.79,-11.371 0.114,-5.058 -0.456,-1.347 -5.087,-0.023 -9.406,4.36 m -23.532,307.652 v 0 l -3.313,3.139 -7.38,5.43 -2.62,2.57 -2.38,1.43 -4.62,4.57 -2.38,1.43 -3.095,3.095 -1.537,2.66 7.632,6.815 7.38,5.43 3.286,4.135 2.367,-0.322 0.008,-4.054 -2.661,-2.759 -10.38,-7.43 -2.609,-2.785 2.609,-2.785 2.662,-1.692 8.338,-7.308 2.38,-1.43 3.619,-3.57 5.667,-3.707 0.492,-1.508 -0.44,-1.343 m -3.028,79.971 v 0 l -4.684,2.583 -3.105,3.105 -2.574,4.63 -0.003,6.113 1.619,3.669 3.057,4.057 4.964,3.029 3.666,1.546 1.089,-0.019 1.313,-1.314 -0.001,-1.052 -0.617,-0.722 -5.401,-2.46 -3.116,-3.116 -2.573,-5.619 v -2.117 l 1.616,-3.666 3.06,-3.06 2.636,-1.577 6.08,0.01 2.273,2.352 -0.879,1.641 -3.158,1.911 -7.687,2.016 2.399,2.783 3.084,0.015 6.908,-2.839 1.819,-1.837 1.577,-2.636 v -2.108 l -2.392,-3.471 -2.916,-1.838 m 91.902,-224.139 v 0 l 2.386,-0.471 0.008,-2.049 -0.385,-0.5 -6.903,-1.848 -6.059,-0.115 -3.007,0.97 -22.989,10e-4 -12.65,-2.054 -1.728,-1.415 8.579,-8.233 -0.506,-0.786 0.65,-0.972 -0.011,-2.051 -0.983,-0.334 -2.57,4.043 -6.098,6.101 -2.663,1.692 -3.025,3.021 -2.359,3.447 0.841,4.051 -0.836,1.978 -0.011,4.08 1.838,2.916 3.84,2.817 11.631,6.575 3.082,-0.019 0.391,-1.89 -11.105,-5.666 -4.948,-3.361 -1.728,-2.372 -0.009,-3.117 1.606,-8.198 2.897,0.805 25.875,2.942 h 3.986 l 13.943,-1.853 m 22.739,-173.979 v 0 l -2.018,0.319 -0.143,3.021 1.832,5.93 0.837,1.336 2.214,-1.627 0.087,-1.63 -1.843,-5.914 m 71.335,334.434 v 0 l 2.607,-4.331 1.771,-7.188 -1.626,-4.753 -3.044,-4.04 -8.958,-5.027 -3.45,-1.434 -2.249,-2.092 -1.051,10e-4 -0.705,0.595 -1.604,4.709 1.684,2.011 0.017,10.087 -5.765,22.013 -1.926,2.953 1.69,2.37 4.687,-0.035 8.636,-5.577 5.095,-5.095 1.692,-2.662 m 31.55,-50.529 v 0 l -0.36,1.523 0.328,0.278 1.346,-1.273 -0.336,-1.327 m -0.994,96.829 v 0 l -4.465,-6.949 -1.575,0.071 -1.294,1.377 1.646,2.943 -0.624,1.035 1.934,0.594 2.153,2.714 3.221,6.217 3.479,10.475 -0.119,11.055 -4.543,13.666 -3.037,5.958 -4.086,5.315 1.273,1.351 1.026,0.118 1.482,-0.467 1.018,-1.002 2.506,-3.535 3.818,-7.736 3.662,-11.735 -0.119,-15.055 -2.532,-7.637 m -237.408,25.074 v 0 l -10.118,-7.591 -3.094,-3.095 -1.554,-2.69 1.681,-2.813 5.599,-2.553 2.085,0.014 0.947,0.694 2,-0.685 2.031,0.641 0.294,-0.295 -1.573,-1.753 -3.667,-1.616 h -4.117 l -3.666,1.616 -3.06,3.06 -1.578,2.636 v 3.108 l 1.578,2.636 2.095,2.095 8.38,5.43 3.809,3.785 0.852,0.974 v 2.052 l -1.661,1.759 -2.636,1.577 -4.048,0.124 -9.929,-2.776 -3.762,-1.922 -1.289,-1.139 -1.026,-0.118 -1.343,0.441 -0.008,3.052 0.667,0.762 5.595,2.848 6.027,1.735 11.116,-0.007 2.916,-1.838 2.392,-3.47 v -3.108 m 18.674,-324.43 v 0 l -2.091,0.116 -3.67,1.619 -5.062,4.958 -4.488,-4.958 -3.667,-1.617 -3.085,0.015 -5.766,6.674 -2.461,5.401 -0.754,0.575 -0.335,-1.326 0.695,-0.947 0.133,-3.02 -1.808,-3.977 0.666,-1.002 -10e-4,-1.055 -1.684,-1.945 0.641,-2.028 -0.299,-0.473 -0.973,-0.868 h -1.054 l -1.306,1.378 1.882,6.903 1.757,14.856 0.67,0.554 1.666,0.042 2.173,-3.639 3.397,-7.436 4.818,-5.638 4.632,2.512 1.683,2.82 -1.678,4.953 1.305,1.379 2.028,-0.843 1.785,-1.809 1.43,-2.38 5.759,-5.661 5.08,-0.011 3.734,2.678 2.046,3.986 2.479,7.617 1.471,2.285 1.571,-2.148 0.007,-1.118 -2.527,-7.635 -3.025,-5.965 -3.082,-2.085 m 95.294,-1.731 v 0 l -2.332,-2.307 -7.894,-5 3.953,-3.49 1.616,-3.666 -0.003,-4.113 -1.577,-2.636 -2.095,-2.095 -3.664,-2.567 -1.03,-0.133 -9.05,0.123 -2.918,1.839 -2.816,2.839 -3.967,7.97 -2.533,8.905 -0.716,-0.488 -1.338,1.269 0.337,1.507 2.259,4.246 0.748,0.573 1.445,-0.804 2.894,-11.556 1.844,-4.691 2.001,-3.462 0.166,3.241 -0.837,1.977 0.119,8.056 2.95,6.585 4.394,2.677 0.023,-0.794 -0.751,-0.803 -3.616,-8.665 -0.002,-7.12 2.577,-7.604 1.137,-1.722 3.65,-0.098 1.484,0.481 3.21,2.219 2.653,3.792 -1.561,3.683 -2.728,1.672 -3.081,-0.011 -1.946,-1.693 h -1.055 l -1.322,1.314 -0.046,1.661 2.71,2.154 6.371,3.426 6.005,4.002 2.62,2.57 8.476,5.424 1.536,-2.182 -0.324,-0.504 -2.315,-2.312 -4.367,-2.422 M 448.521,531.98 v 0 l -1.32,1.52 1.271,1.342 h 1.056 l 1.323,-1.316 -0.009,-2.054 -1.369,-0.314 M 218.088,405.455 v 0 l -8.274,4.258 -9.704,6.231 -2.879,-17.805 -1.759,0.011 -0.975,0.869 -0.466,1.481 0.954,3.003 -0.116,13.058 -4.839,18.942 0.467,1.479 1.528,1.518 h 0.95 l 1.314,-1.316 2.567,-4.629 -0.841,-4.049 1.735,-4.731 4.06,-4.06 13.004,-8.002 10.657,-5.536 1.66,0.688 2.373,-2.885 0.391,-2.113 -2.395,-1.705 m 94.003,-43.307 v 0 l -0.969,-0.7 -1.062,0.002 -0.946,0.695 -5.019,0.134 -38.6,-3.105 -2.084,-0.591 -2.621,-1.792 1.597,-1.998 -0.632,-1.037 1.7,-4.903 -0.025,-2.088 -1.37,-0.314 -2.668,2.378 1.166,1.921 -0.121,1.071 -3.32,3.322 -1.576,0.226 -1.926,3.391 -4.527,4.55 -0.361,1.125 7.675,5.145 11.629,6.569 1.117,0.004 3.665,-1.591 1.631,-1.768 -1.384,-0.344 -1.009,0.676 -4.911,-1.627 -12.736,-6.92 -0.682,-1.417 4.394,-3.692 4.254,2.148 5.08,1.584 47.24,3.214 2.403,0.862 10.023,-0.142 0.44,-1.343 -0.505,-1.526 m -8.741,-82.295 v 0 l 3.144,-8.12 0.117,-2.055 -0.454,-1.339 -1.82,0.658 -4.57,11.618 0.358,1.54 1.737,1.714 M 43.2483,230.265 v 0 l -4.7155,1.721 -0.0569,0.851 1.0209,0.132 12.1916,-1.768 -1.162,-1.052 -1.0301,-0.134 M 209.499,517.872 v 0 l -4.683,-2.583 -2.319,-2.307 -0.482,-1.486 0.123,-3.05 3.936,-6.58 4.735,-4.151 2.964,-1.962 5.704,-2.746 0.374,-2.533 -1.322,-1.316 -1.336,0.157 -6.379,3.398 -7.122,5.121 -2.981,3.982 -2.574,4.63 0.011,8.08 4.675,4.767 8.618,3.573 12.113,-0.004 3.152,-2.156 -5.172,-2.535 -2.038,0.814 h -4.992 l -1.978,-0.837 M 537.061,230.457 v 0 l -0.913,1.012 10e-4,2.057 2.136,2.284 4.031,6.934 6.551,17.695 0.119,8.055 -2.652,8.705 -2.046,3.985 -3.003,4.006 -3.095,3.095 -8.952,5.215 2.204,1.364 1.058,0.107 5.683,-2.682 6.102,-6.099 3.963,-5.966 3.738,-11.73 -0.119,-9.055 -1.648,-4.9 -6.927,-16.717 -2.007,-3.012 m -27.446,348.74 v 0 l 0.057,-2.682 -2.403,-1.711 -9.677,4.555 -2.627,2.573 -2.451,1.462 -1.718,-5.214 -0.497,-0.384 -7.077,-0.011 -2.636,1.577 -3.62,3.57 -2.669,1.538 -0.377,-1.378 1.679,-2.916 -0.622,-1.03 1.597,-1.996 -0.51,-0.797 1.483,-1.386 -1.489,-3.071 -1.99,1.467 0.536,0.82 -3.084,7.951 -1.579,5.975 1.309,1.389 h 2.052 l 2.284,-2.136 2.38,-1.43 3.62,-3.57 2.636,-1.577 2.472,-0.112 2.056,10.438 1.554,0.378 7.282,-7.127 5.633,-3.576 1.51,-0.095 3.794,13.174 2.726,2.633 3.079,0.008 -2.253,-1.605 0.529,-0.79 -1.201,-3.304 -2.464,-10.62 M 35.5428,280 v 0 l -7.036,0.014 -31.01351,2.972 -3.01941,-0.134 -1.9773,-0.837 -3.98978,-10e-4 -21.0069,1.849 -63.9997,-2.862 -5.9932,0.013 -15.448,2.091 0.96,1.397 1.484,0.483 h 9.993 l 3.007,-0.97 6.99,-10e-4 42.1344,1.88 13.8793,1.092 h 12.9863 l 36.22685,-1.769 30.77975,-2.216 34.8398,2.074 61.1606,1.896 8.775,-1.764 0.566,-0.683 0.001,-1.051 -1.316,-1.324 -1.03,-0.134 -5.022,0.133 -1.971,0.822 -61.2661,-1.979 -12.7437,-0.977 M 514.04,232.477 v 0 l -1.329,1.339 -2.471,4.496 1.742,2.145 -0.117,4.102 -5.361,12.407 -7.01,12.069 -6.356,12.411 -0.121,2.05 0.477,1.304 1.549,-0.846 2.243,-3.768 15.939,-30.804 2.761,-11.889 -0.144,-5.021 -1.374,-0.315 m -0.973,31.967 v 0 l -2.685,1.591 -2.313,2.303 -0.362,2.54 1.615,3.667 3.227,4.247 4.833,4.813 2.635,1.571 1.085,-0.022 0.326,-1.389 -1.573,-2.637 -1.998,-2.998 -4.57,-4.62 -1.572,-2.635 0.016,-1.082 0.658,-0.759 10.628,-5.57 2.055,0.655 1.633,-0.873 2.718,-3.4 -0.009,-3.054 -1.37,-0.314 -3.507,2.348 M -98.0074,890.48 v 0 l 0.8461,0.047 0.0287,-3.088 -1.6385,-4.685 -0.7061,-0.605 -3.0818,-0.015 -8.886,4.722 -1.378,-0.378 1.685,-2.924 0.124,-1.06 -0.134,-4.02 -0.651,-0.974 0.651,-0.974 -0.001,-2.052 -1.325,-1.325 -2.08,-0.011 -4.631,2.574 -3.005,2.003 -3.62,3.57 -3.402,2.406 -1.626,-7.151 0.637,-1.041 -1.273,-1.35 -2.369,0.323 -0.027,9.09 1.658,6.706 0.688,0.573 1.505,-0.339 7.829,-7.787 4,-3 2.668,-1.538 0.359,0.301 0.029,4.08 -1.619,3.67 -4.109,6.217 -0.121,2.051 0.455,1.346 2.054,0.009 2.29,-2.139 10.368,-5.424 1.29,-1.139 h 2.05 l 2.9776,3.649 1.0028,-0.601 m 41.7629,-655.946 v 0 l -6.7276,1.586 -1.0681,-0.66 -7.3905,3.776 0.0697,1.576 1.352,1.27 0.5816,-0.952 1.8338,-1.182 2.0869,-0.736 10.5014,-1.915 5.9898,10e-4 3.0071,0.97 20.1977,-0.248 -19.33,-2.755 -2.8108,-0.849 m -44.8062,623.639 v 0 l -1.6145,3.667 -0.0069,1.125 1.6696,12.124 1.0962,-0.669 2.0716,-14.523 -0.4675,-1.477 -0.9753,-0.861 M 520.98,537.468 v 0 l -0.832,2.006 0.009,3.054 1.368,0.313 0.766,-0.664 7.391,-19.431 7.804,-14.931 1.375,1.632 10e-4,5.107 -5.684,10.924 2.347,-0.32 0.764,0.551 5.573,-10.155 v -8.108 l -2.616,-5.67 -0.777,-0.598 -2.779,1.66 -9.376,18.877 -0.166,-6.241 1.692,-2.015 -1.896,-10.438 -2.494,21.98 m -638.588,510.569 v 0 l 9.003,-26.01 0.134,-2.06 -0.133,-12.059 -4.574,-10.619 -2.007,-3.012 -1.782,-1.607 -0.721,0.538 -1.616,5.727 1.332,-0.266 0.748,0.574 4.62,10.665 0.003,8.119 -2.5,9.64 -5.843,16.71 -3.241,5.28 -1.31,1.31 -1.448,-0.34 -1.356,0.37 1.815,3.94 2.54,0.38 4.759,-4.66 M 496.022,491.523 v 0 l -3.863,-2.996 3.827,-12.033 -0.002,-9.99 -0.453,-1.344 -1.112,-0.147 -2.366,13.471 -1.727,5.691 -1.306,2.713 -14.479,2.073 -1.393,1.513 v 5.052 l 0.926,1.607 2.405,1.689 0.505,-2.318 -0.836,-1.978 0.324,-2.369 9.024,-0.141 1.327,0.505 -4.142,8.226 -4.547,10.694 -0.118,3.055 0.455,1.339 1.758,-0.59 2.435,-7.443 7.049,-13.986 0.763,-0.667 3.05,-10e-4 1.946,1.694 1.057,-0.007 0.322,-2.361 M -73.4731,891.902 v 0 l -4.2383,7.281 -2.0636,2.066 -4.0222,2.256 2.6511,2.393 2.6722,-0.047 3.7588,-3.661 3.2208,-5.225 3.8171,-7.734 3.5458,-11.67 v -8.123 l -1.6137,-5.952 -1.75,-4.459 -4.258,-8.252 -1.7467,-0.744 -1.3431,0.441 -0.0087,4.054 1.1399,1.29 3.0663,6.036 2.5147,9.586 0.1287,2.062 -1.8192,9.21 M 114.041,237.477 v 0 l -0.844,1.024 0.278,0.329 3.028,-0.815 5.023,0.133 0.946,0.694 1.362,-0.313 -0.307,-1.372 -1.031,-0.141 -6.992,-0.001 m 396.974,1.194 v 0 l 0.027,0.594 M -492.478,751.79 v 0 l -0.027,-0.593 m -59.448,-503.716 v 0 l -0.751,0.759 4.144,1.627 2.083,-0.026 0.354,-0.364 -5.343,-2.314 m 851.506,4.314 v 0 l -1.857,1.812 -7.373,4.426 -2.833,2.813 -3.265,4.288 -3.574,6.63 0.01,4.08 1.667,1.762 3.742,1.916 7.632,2.515 1.308,1.445 1.34,-1.667 -1.632,-2.766 -9.151,-3.251 -2.025,-1.931 0.11,-1.105 3.572,-6.628 3.818,-4.84 5.048,-3.167 4.742,-1.653 2.48,-3.656 -1.273,-1.351 m 35.952,0.061 v 0 l 0.027,0.593 m 149.517,15.675 v 0 l -5.832,5.807 -3.663,2.557 -1.35,-0.364 1.679,-2.923 -0.679,-2.084 1.538,-2.661 3,-4 3.57,-3.62 1.43,-2.38 2.571,-2.519 1.575,2.155 0.001,4.108 -2.573,4.63 m 40.92,288.298 v 0 l 0.646,0.986 0.144,3.032 -0.147,2.026 -0.653,0.98 1.325,0.335 0.492,-0.372 1.775,-3.435 3.074,6.407 0.121,11.053 -4.476,11.472 -3.223,6.219 -3.138,4.289 v 2.052 l 1.36,1.339 2.774,-2.673 2.003,-3.006 4.224,-8.22 2.643,-6.376 1.833,-7.097 -0.121,-7.052 -4.618,-11.669 -2.749,-3.57 M 297.121,269.497 v 0 l 1.63,3.728 4.065,4.063 8.655,4.535 1.066,-0.656 4.901,1.696 1.361,-0.356 -2.833,-2.011 -9.143,-4.203 -2.532,-2.579 9.732,-9.242 2.828,-3.946 v -4.049 l -0.626,-0.724 -3.665,-1.613 -1.123,-0.004 -7.602,2.562 -2.969,2.376 -3.728,5.372 m 167.397,340.605 v 0 l -5.25,-9.241 -3.57,-3.62 -1.578,-2.636 10e-4,-4.108 3.57,-7.624 2.578,-3.636 4.79,-9.318 2.753,-2.165 6.589,-2.563 1.463,-0.972 0.101,-1.668 -0.509,-1.329 -7.892,2.642 -5.869,4.003 -5.426,10.369 -2.533,3.587 -3.619,8.669 0.003,5.113 2.574,4.63 3.574,3.626 4.789,7.323 2.372,1.728 2.076,-0.024 0.149,-0.64 M 258.478,254.21 v 0 l 0.027,0.593 m 41.267,206.828 v 0 l 0.081,-1.144 -1.353,-1.286 -1.698,1.506 -1.788,14.8 0.124,4.047 2.815,5.365 0.486,0.056 1.541,-0.473 0.842,-1.03 -2.684,-4.918 -0.109,-1.053 m 82.216,-223.213 v 0 l -5.421,2.418 -0.826,0.796 -4.287,4.314 -2.573,4.63 -0.124,1.06 0.12,6.053 3.578,7.625 2.118,2.114 6.608,2.565 1.542,-0.36 0.862,-0.976 v -1.055 l -1.342,-1.271 -1.001,0.598 -0.473,-0.298 -3.217,-2.216 -2.107,-2.115 -2.57,-6.609 0.006,-3.115 2.573,-4.63 3.099,-3.101 2.636,-1.577 2.08,0.011 1.976,1.869 0.395,3.115 -4.304,2.968 -7.442,2.72 0.349,1.161 0.974,0.869 6.084,0.015 3.67,-1.619 3.079,-2.081 2.544,-3.64 0.133,-1.03 -0.122,-2.05 -1.839,-2.918 -2.798,-2.777 M 267.981,671.508 v 0 l 2.885,-6.949 -0.004,-4.113 -2.392,-3.47 -2.916,-1.838 -5.113,-0.004 -3.667,1.551 -11.219,6.171 -1.08,-0.028 -0.145,-0.634 3.499,-8.66 -0.629,-1.034 0.652,-0.974 -0.011,-3.052 -1.008,-0.325 -6.695,16.297 0.019,4.082 1.37,0.314 3.508,-2.348 11.999,-6.005 6.468,-2.459 1.998,0.971 1.351,1.473 0.134,1.03 -0.116,4.057 -1.704,5.901 1.335,1.337 M 301.162,270.55 v 0 l -0.147,-5.047 0.986,-2.003 3.809,-3.785 2.636,-1.577 5.076,0.025 0.151,0.637 -3.175,5.202 -7.523,7.498 h -0.949 m -24.453,240.634 v 0 l -1.554,-0.628 -6.304,-6.316 -1.578,-2.636 -0.122,-1.06 0.133,-2.02 3.137,-3.284 5.577,-8.636 -0.02,-2.082 -1.39,-0.443 -1.914,1.962 -5.253,8.199 -4.137,4.284 -0.133,2.02 1.738,4.734 1.962,2.962 7.063,6.061 6.443,2.498 1.279,1.05 2,-1.824 -0.551,-2.025 m 227.003,13.514 v 0 l 7.494,4.398 2.354,-0.357 -1.881,-2.65 -7.109,-4.57 -4.042,-4.039 -1.621,-4.749 3.636,-12.956 5.9,-15.797 2.03,-3.93 5.11,-7.286 -1.332,-1.393 -4.78,4.681 -4.023,6.963 -6.193,17.253 -3.35,12.468 2.553,7.664 3.121,3.127 M 468.528,402.133 v 0 l -3.553,-4.632 -0.813,-0.025 -0.131,1.022 2.214,7.707 1.741,10.302 -0.116,7.055 -1.713,8.313 -3.241,10.267 -9.829,5.758 2.358,1.956 1.534,-0.352 7.205,-4.216 1.114,-1.118 4.562,-12.611 -0.723,-3.12 1.73,-4.879 -0.015,-2.086 -0.651,-0.974 0.651,-0.974 0.134,-3.02 -1.851,-6.944 0.664,-2.063 -1.642,-1.972 0.685,-1.999 M 188.999,565.523 v 0 l 0.84,-0.051 0.147,6.021 -1.972,15.014 v 10.987 l 1.986,5.442 0.432,0.041 1.548,-0.474 0.871,-0.977 0.133,-1.03 v -3.993 l -0.836,-1.977 -0.134,-5.019 1.972,-15.014 -10e-4,-14.988 -0.306,-1.315 -1.395,-1.898 -1.251,0.722 -2,5.448 -2.75,3.222 1.218,0.285 M 138.162,271.462 v 0 l -0.961,2.039 1.581,1.752 17.918,5.491 -5.51,5.541 -2.663,1.692 -5.026,5.048 -0.025,0.812 2.078,0.025 4.631,-2.575 7.005,-5.002 4.666,-6.73 -0.378,-1.56 -1.777,-1.037 -14.646,-3.464 -6.537,-2.318 m 164.003,49.614 v 0 l -0.026,-0.593 m 171.983,-44.988 v 0 l 0.027,0.594 m -1.026,1.411 v 0 l 0.378,1.337 -5.543,11.164 -0.176,-4.269 2.574,-4.631 M 362.209,487.522 v 0 l 0.593,-0.027 m -496.806,273.974 v 0 l -1.682,4.756 -1.292,2.248 -1.764,1.749 -5.178,1.965 3.394,2.664 1.023,0.119 4.728,-1.721 1.063,-1.065 2.923,-5.761 2.656,-8.863 0.119,-8.054 -1.852,-7.095 -3.885,-8.635 -2.964,-3.966 -8.57,-8.62 -1.707,-2.667 -2.008,-0.459 -1.833,4.399 0.685,1.011 0.146,2.026 -0.146,2.026 -0.652,0.98 1.324,0.335 0.489,-0.369 1.735,-3.171 6.275,6.227 3.483,5.507 4.36,9.406 0.119,12.055 m -22.678,147.784 v 0 l 1.165,1.562 1.053,-10e-4 1.981,-2.877 6.355,-14.405 -0.358,-1.539 -0.974,-0.869 -1.576,-0.07 -6.157,13.47 m 17.527,100.649 v 0 l -1.186,2.24 0.012,2.09 1.351,1.27 1.643,-0.88 2.189,-3.72 2.53,-7.638 -2.632,-9.806 -0.706,-0.597 -1.504,0.338 -0.871,0.977 -0.001,4.052 0.837,1.977 10e-4,4.991 M 378.478,676.978 v 0 l 2.331,2.307 8.057,5.058 8.602,2.492 0.361,-0.313 -0.855,-2.516 -8.159,-3.718 -4.005,-3.003 -6.095,-6.095 -6.058,-9.056 -2.521,-8.571 1.657,-6.011 1.919,-3.737 6.003,-8.005 3.573,-3.626 2.534,-4.656 -1.295,-1.37 -1.509,0.34 -1.303,1.312 -1.692,2.662 -3.308,3.338 -7.008,9.012 -3.57,9.615 1.754,8.248 1.798,4.538 3.026,4.967 3,4 m 0.807,-267.4 v 0 l -0.027,-0.593 m 32.983,2.013 v 0 l 0.027,0.593 m 17.973,22.406 v 0 l 0.026,0.594 m 127.537,44.674 v 0 l -0.844,1.018 0.635,1.042 -1.609,4.785 1.759,2.135 -0.113,12.105 -4.507,18.708 -2.191,6.196 1.329,1.333 1.549,-0.849 2.903,-5.833 6.494,4.745 2.076,-0.025 0.153,-0.632 -1.391,-2.395 -2.418,-1.884 -1.738,-2.401 0.007,-0.655 3.681,-3.159 5.684,-3.51 1.63,0.664 1.731,-2.311 -0.019,-3.082 -1.37,-0.314 -12.499,8.343 -0.803,0.025 2.816,-14.033 0.013,-12.993 -0.147,-2.026 -0.695,-0.947 0.694,-2.001 -0.009,-2.054 -1.342,-0.441 m 97.662,3.429 v 0 l -2.027,3.671 2.177,1.71 1.006,1.963 4.549,14.635 0.118,17.055 -2.695,7.687 -6.511,2.571 -0.578,0.755 1.302,0.476 2.023,-0.131 0.974,-0.651 0.974,0.651 h 2.051 l 1.63,-0.94 2.2,-4.638 1.631,-5.78 -0.117,-17.056 -4.535,-15.666 -2.085,-4.997 -1.274,-1.274 m -51.779,19.819 v 0 l -1.92,1.438 2.775,20.199 1.476,-0.109 0.756,-0.658 5.432,-8.38 4.303,-4.313 2.478,-0.481 1.485,0.481 1.869,1.977 0.019,2.088 -1.858,8.222 -0.867,1.662 0.353,1.533 1.031,0.844 2.662,-1.538 5.626,-5.574 4.63,-2.573 1.056,-0.108 1.479,0.467 3.041,3.031 1.834,2.916 -0.139,1.328 -2.539,5.707 0.32,0.318 3.106,-3.104 0.642,0.491 1.618,-2.626 10e-4,-2.117 -2.553,-5.599 -2.502,-1.557 -3.284,-3.136 h -2.052 l -7.946,5.693 -1.057,-0.007 -0.455,-2.331 0.953,-3.004 -1.075,-3.642 -7.362,-3.733 -5.005,3.852 -5.724,6.71 -2.295,-14.585 m -23.474,13.386 v 0 l -8.895,21.952 0.332,1.395 1.51,-0.333 1.306,-1.318 1.229,-2.253 7.313,-18.397 -1.302,-1.376 m -86.049,76.051 v 0 l 0.027,0.594 M -496.478,755.79 v 0 l -0.027,-0.593 m 78.715,217.325 v 0 l 0.593,-0.027"
     id="path6" />
</g>
<g
   id="g12"
   transform="translate(-115.132,-57.104099)">
  <path
     fill="#000000"
     d="m 320.032,57.4865 v 0 l -4.461,17.4192 -2.67,18.1252 -1.752,2.4427 v 3.0527 l 1.35,1.273 1.001,-0.5987 1.006,0.5998 0.337,-1.3277 -0.642,-0.9761 0.94,-0.3553 4.573,8.0417 0.762,0.668 8.083,0.015 5.618,-2.573 5.108,-5.1028 3.921,-6.7426 1.662,-4.8871 -0.006,-3.1147 -2.338,-3.2968 -7.085,-0.0166 -8.836,2.6735 -8.108,4.9947 -0.333,-0.2766 -0.032,-3.0863 1.635,-8.2229 4.206,-15.7155 -0.288,-1.304 -1.55,-2.0912 m -1.33,33.6173 v 0 l 10.684,-4.9764 5.951,-1.6137 2.058,-0.1146 1.347,0.4557 0.022,2.0861 -1.546,3.7015 -4.034,6.9302 -2.101,2.0985 -4.63,2.5733 -5.696,0.03 -3.724,-7.3335 0.015,-2.0845 M 236.234,65.277 v 0 l -5.41,2.4289 -1.673,1.7657 -0.047,1.6613 3.401,2.6677 0.338,-1.3279 -0.641,-0.9711 0.622,-0.7923 5.617,-2.575 3.12,-0.003 8.612,2.5246 4.013,2.0576 2.712,2.1536 -0.047,2.6591 -6.661,6.7586 -2.636,1.5774 -4.051,0.1226 -1.977,-0.8365 -2.086,-0.0157 -4.689,1.639 -2.941,1.9454 -0.66,0.7593 -0.001,2.0498 1.325,1.3253 6.02,0.1345 4.947,-1.8516 5.113,0.0034 2.636,1.5775 4.059,4.0597 1.598,3.7251 -1.924,4.632 -2.731,2.151 -2.638,1.579 -1.06,0.124 -16.056,-0.117 -9.906,-2.852 -0.517,-1.52 0.117,-3.058 2.109,-7.6326 1.745,-9.3131 -0.002,-16.9896 -0.453,-1.3441 -1.103,-0.1392 -2.263,5.441 0.82,2.0421 -0.115,12.0588 -2.356,11.3386 -2.521,7.9971 -6.217,-2.648 -1.25,-1.101 -1.026,-0.118 -2.003,0.988 -0.387,2.124 3.923,2.364 5.001,1.994 8.326,2.708 5.823,1.081 12.317,1.708 9.201,-1.835 2.766,-1.136 3.826,-3.85 2.573,-5.618 v -3.1176 l -1.616,-3.6665 -1.324,-1.9085 -6.722,-5.3664 4.819,-4.0278 3.828,-4.9459 v -5.0526 l -1.661,-1.7586 -7.017,-4.0592 -8.612,-2.5246 M 313.543,131 v 0 l -9.036,0.014 -66.237,2.843 -17.777,2.129 h -13.987 l -5.969,-1.819 -1.336,1.333 1.553,1.732 4.685,1.636 2.061,0.131 12.993,-0.013 24.319,-2.139 39.688,-1.846 46.996,0.014 1.978,0.837 3.026,0.148 4.997,-0.015 3.006,-0.97 25.99,-10e-4 17.01,2.956 1.477,-0.467 0.862,-0.976 -0.604,-1.76 -21.745,-3.753 -14.989,10e-4 -3.008,0.97 -24.996,0.015 -3.026,-0.148 -1.978,-0.837 M 274.035,90.4859 v 0 l -5.897,8.9599 v 4.1082 l 2.573,4.63 3.099,3.101 2.962,1.962 3.669,1.619 h 3.118 l 3.666,-1.616 1.908,-1.324 3.729,-5.372 v -6.108 l -1.727,-3.5755 2.715,-2.3468 v -2.0468 l -0.625,-0.724 -4.731,-1.7388 -5.02,0.1338 -0.947,0.6947 -3.031,-0.8274 -3.992,-10e-5 m 2.974,15.7719 v 0 l 0.366,-1.307 -0.556,-0.776 1.424,-1.407 -1.997,-2.107 -1.577,-2.6359 -0.12,-2.0991 2.426,-2.3105 1.116,-0.0048 5.617,2.5671 3.108,3.1031 1.577,2.6361 0.124,3.048 -1.701,3.696 -2.095,2.095 -2.636,1.577 -2.08,-0.01 -0.974,-0.651 -1.028,0.622 -4.656,-2.534 -2.614,-2.787 0.51,-0.797 -1.212,-1.705 0.207,-0.289 -1.601,-1.552 -0.088,-1.658 0.476,-1.3014 1.01,0.5989 0.294,-0.2944 -0.597,-1.0048 1.09,-1.2087 3.421,5.8934 m 10.743,-11.0085 v 0 l 5.073,-0.0183 0.323,2.3689 -1.351,1.2733 -3.689,-2.5172 -0.614,-0.7936"
     id="path10" />
</g>
<g
   id="g16"
   transform="translate(-115.132,-57.104099)">
  <path
     fill="#000000"
     d="m 400.046,1183.48 v 0 l -1.251,1.24 -3.421,18.46 -6.234,16.26 0.358,1.54 1.353,1.49 0.133,1.03 -0.122,2.05 -2.724,4.9 -0.124,1.06 0.135,4.02 1.325,1.32 2.326,-0.34 -0.643,-0.98 -0.018,-1.09 2.822,-6.45 2.063,-14.33 4.154,-12.68 1.692,-9.42 0.129,-5.06 -0.148,-2.03 -1.355,-1.27 m -1.473,32.28 v 0 l -0.873,0.99 -0.07,1.58 3.387,1.92 2.343,2.31 2.662,1.7 4.777,4.79 1.723,3.7 1.556,1.35 2.369,-1.69 -0.035,-2.68 -2.573,-4.63 -2.099,-2.1 -2.38,-1.44 -4.608,-4.78 3.612,-2.79 7.785,-3.93 12.541,-3.48 1.83,-1.75 -0.121,-1.08 -1.32,-1.31 -1.09,-0.02 -15.602,4.53 -9.023,5.04 M 257.06,1185.46 v 0 l -2.039,2.71 -3.799,23.08 -1.722,0.72 -2.029,-0.79 -2.779,1.65 -1.53,2.67 1.674,2.4 2.693,-2.72 2.368,1.69 -0.031,2.69 -3.734,11.88 -0.116,5.06 0.479,1.3 1.5,-0.83 6.717,-20.74 5.726,1.64 4.058,0.11 1.304,-0.47 -0.85,-1.56 -9.85,-3.96 1.005,-3.88 2.761,-19.55 -0.187,-1.37 m -35.445,19.09 v 0 l -5.41,2.43 -1.958,1.36 -2.115,2.71 -2.737,7.73 0.117,5.05 2.616,8.66 3.063,4.06 2.636,1.58 1.06,0.12 2.053,-0.11 5.619,-2.58 2.718,-2.16 -0.055,-1.66 -2.367,-0.32 -3.92,2.71 -1.06,0.13 -3.02,-0.14 -1.496,-1.38 -2.84,-4.92 -0.004,-11.11 1.617,-3.67 2.072,-2.06 5.618,-2.58 3.083,0.03 -0.025,0.82 -5.397,4.89 v 2.26 l 2.37,1.69 5.817,-5.64 2.534,-4.65 -0.897,-1.66 -2.372,-1.73 m 66.484,2.34 v 0 l -0.983,1.6 -3.892,20.38 1.345,1.4 1.967,-1.9 1.917,-3.58 2.111,2.6 0.487,-0.05 2.714,-6.1 0.769,-0.67 7.964,1.71 1.429,-0.38 -9.311,-6.35 -1.536,0.36 -2.708,3.21 -0.296,-4.21 0.97,-3 -0.142,-5.03 -1.342,-0.44 m 0.026,15.76 v 0 l -0.493,-1.28 0.466,-1.31 0.467,1.3 m -120.921,-12.02 v 0 l -1.257,1.25 -2.775,19.78 0.135,18.02 1.323,1.32 1.076,0.12 2.274,-2.44 -0.807,-2.03 -10e-4,-11.99 2.852,-20.95 -0.364,-1.54 -2.006,-1.82 m 93.662,4.25 v 0 l -2.024,4.99 0.004,3.11 2.86,3.95 4.473,3.34 1.331,-0.15 2.388,-1.41 4,-3 3.099,-3.1 2.573,-4.63 -0.025,-2.07 -1.337,0.32 -1.001,-0.6 -1.784,1.61 -1.43,2.38 -6.304,6.31 -1.508,0.34 -2.606,-1.91 -1.729,-2.38 0.01,-2.08 0.651,-0.97 -0.622,-1.03 1.646,-2.95 -1.322,-0.49 m -81.238,7.22 v 0 l -9.463,2.43 -2.774,1.76 0.125,1.09 1.323,1.32 2.086,0.02 16.339,-4.87 -1.373,-1.85 m 119.515,1.33 v 0 l -1.29,1.29 -5.613,10.68 0.334,2.39 2.054,0.01 2.25,-2.1 10.665,-4.62 4.5,-0.09 2.024,7.42 1.321,1.25 1.576,-2.16 0.124,-1.06 -10e-4,-5.99 -1.059,-2.63 -2.372,-1.73 -3.116,-0.01 -5.952,1.62 -4.965,2.07 -0.377,-1.37 1.718,-2.9 0.107,-1.05 -0.44,-1.33 m -2.051,7.04 v 0 l 0.027,0.59"
     id="path14" />
</g>
<g
   id="g20"
   transform="translate(-115.132,-57.104099)">
  <path
     fill="#000000"
     d="m -483.999,289.457 v 0 l 0.144,2.064 0.874,0.982 2.507,0.348 7.568,-9.021 1.495,-0.976 4.85,-1.722 5.083,0.017 0.677,0.563 2.472,12.051 3.17,-2.238 -0.684,-3.052 0.695,-0.947 0.016,-4.087 -1.599,-4.645 -2.715,-1.656 -1.06,-0.124 -9.053,0.12 -5.618,2.573 -3.034,3.234 -2.568,-8.2 -1.721,-1.54 -1.351,1.273 -0.134,1.03"
     id="path18" />
</g>
</svg>
