<svg
   version="1.1"
   viewBox="0 0 460.80003 345.59997"
   id="svg409"
   xmlns:xlink="http://www.w3.org/1999/xlink"
   xmlns="http://www.w3.org/2000/svg"
   xmlns:svg="http://www.w3.org/2000/svg"
   xmlns:rdf="http://www.w3.org/1999/02/22-rdf-syntax-ns#"
   xmlns:cc="http://creativecommons.org/ns#"
   xmlns:dc="http://purl.org/dc/elements/1.1/"
   style="fill:var(--fg);">
  <metadata
     id="metadata2">
    <rdf:RDF>
      <cc:Work>
        <dc:type
           rdf:resource="http://purl.org/dc/dcmitype/StillImage" />
        <dc:date>2024-05-15T07:05:16.642827</dc:date>
        <dc:format>image/svg+xml</dc:format>
        <dc:creator>
          <cc:Agent>
            <dc:title>Matplotlib v3.4.2, https://matplotlib.org/</dc:title>
          </cc:Agent>
        </dc:creator>
      </cc:Work>
    </rdf:RDF>
  </metadata>
  <defs
     id="defs6">
    <style
       type="text/css"
       id="style4">*{stroke-linecap:butt;stroke-linejoin:round;}</style>
  </defs>
  <g
     id="figure_1">
    <g
       id="patch_1">
      <path
         d="M 0,345.6 H 460.8 V 0 H 0 Z"
         style="fill:none"
         id="path8" />
    </g>
    <g
       id="axes_1">
      <g
         id="patch_2">
        <path
           d="M 57.6,307.584 H 414.72 V 41.472 H 57.6 Z"
           style="fill:none"
           id="path11" />
      </g>
      <g
         id="patch_3">
        <path
           clip-path="url(#p18beff2aa6)"
           d="M 73.832727,307.584 H 127.94182 V 265.31752 H 73.832727 Z"
           style="fill:#1f77b4"
           id="path14" />
      </g>
      <g
         id="patch_4">
        <path
           clip-path="url(#p18beff2aa6)"
           d="m 141.46909,307.584 h 54.10909 V 138.76661 h -54.10909 z"
           style="fill:#1f77b4"
           id="path17" />
      </g>
      <g
         id="patch_5">
        <path
           clip-path="url(#p18beff2aa6)"
           d="m 209.10545,307.584 h 54.10909 V 54.144 h -54.10909 z"
           style="fill:#1f77b4"
           id="path20" />
      </g>
      <g
         id="patch_6">
        <path
           clip-path="url(#p18beff2aa6)"
           d="m 276.74182,307.584 h 54.10909 V 138.67843 h -54.10909 z"
           style="fill:#1f77b4"
           id="path23" />
      </g>
      <g
         id="patch_7">
        <path
           clip-path="url(#p18beff2aa6)"
           d="m 344.37818,307.584 h 54.10909 v -42.21828 h -54.10909 z"
           style="fill:#1f77b4"
           id="path26" />
      </g>
      <g
         id="matplotlib.axis_1">
        <g
           id="xtick_1">
          <g
             id="line2d_1">
            <defs
               id="defs30">
              <path
                 d="M 0,0 V 3.5"
                 id="m0190eac9ed"
                 style="stroke:#000000;stroke-width:0.8" />
            </defs>
            <g
               id="g34">
              <use
                 style="stroke:#000000;stroke-width:0.8"
                 x="100.88728"
                 xlink:href="#m0190eac9ed"
                 y="307.58401"
                 id="use32" />
            </g>
          </g>
          <g
             id="text_1">
            <!-- −2 -->
            <g
               transform="matrix(0.1,0,0,-0.1,93.516179,322.18244)"
               id="g45">
              <defs
                 id="defs39">
                <path
                   d="M 678,2272 H 4684 V 1741 H 678 Z"
                   id="DejaVuSans-2212"
                   transform="scale(0.015625)" />
                <path
                   d="M 1228,531 H 3431 V 0 H 469 v 531 q 359,372 979,998 621,627 780,809 303,340 423,576 121,236 121,464 0,372 -261,606 -261,235 -680,235 -297,0 -627,-103 -329,-103 -704,-313 v 638 q 381,153 712,231 332,78 607,78 725,0 1156,-363 431,-362 431,-968 0,-288 -108,-546 -107,-257 -392,-607 -78,-91 -497,-524 Q 1991,1309 1228,531 Z"
                   id="DejaVuSans-32"
                   transform="scale(0.015625)" />
              </defs>
              <use
                 xlink:href="#DejaVuSans-2212"
                 id="use41" />
              <use
                 x="83.789062"
                 xlink:href="#DejaVuSans-32"
                 id="use43" />
            </g>
          </g>
        </g>
        <g
           id="xtick_2">
          <g
             id="line2d_2">
            <g
               id="g51">
              <use
                 style="stroke:#000000;stroke-width:0.8"
                 x="168.52364"
                 xlink:href="#m0190eac9ed"
                 y="307.58401"
                 id="use49" />
            </g>
          </g>
          <g
             id="text_2">
            <!-- −1 -->
            <g
               transform="matrix(0.1,0,0,-0.1,161.15254,322.18244)"
               id="g61">
              <defs
                 id="defs55">
                <path
                   d="M 794,531 H 1825 V 4091 L 703,3866 v 575 l 1116,225 h 631 V 531 H 3481 V 0 H 794 Z"
                   id="DejaVuSans-31"
                   transform="scale(0.015625)" />
              </defs>
              <use
                 xlink:href="#DejaVuSans-2212"
                 id="use57" />
              <use
                 x="83.789062"
                 xlink:href="#DejaVuSans-31"
                 id="use59" />
            </g>
          </g>
        </g>
        <g
           id="xtick_3">
          <g
             id="line2d_3">
            <g
               id="g67">
              <use
                 style="stroke:#000000;stroke-width:0.8"
                 x="236.16"
                 xlink:href="#m0190eac9ed"
                 y="307.58401"
                 id="use65" />
            </g>
          </g>
          <g
             id="text_3">
            <!-- 0 -->
            <g
               transform="matrix(0.1,0,0,-0.1,232.97875,322.18244)"
               id="g75">
              <defs
                 id="defs71">
                <path
                   d="m 2034,4250 q -487,0 -733,-480 -245,-479 -245,-1442 0,-959 245,-1439 246,-480 733,-480 491,0 736,480 246,480 246,1439 0,963 -246,1442 -245,480 -736,480 z m 0,500 q 785,0 1199,-621 414,-620 414,-1801 0,-1178 -414,-1799 -414,-620 -1199,-620 -784,0 -1198,620 -414,621 -414,1799 0,1181 414,1801 414,621 1198,621 z"
                   id="DejaVuSans-30"
                   transform="scale(0.015625)" />
              </defs>
              <use
                 xlink:href="#DejaVuSans-30"
                 id="use73" />
            </g>
          </g>
        </g>
        <g
           id="xtick_4">
          <g
             id="line2d_4">
            <g
               id="g81">
              <use
                 style="stroke:#000000;stroke-width:0.8"
                 x="303.79636"
                 xlink:href="#m0190eac9ed"
                 y="307.58401"
                 id="use79" />
            </g>
          </g>
          <g
             id="text_4">
            <!-- 1 -->
            <g
               transform="matrix(0.1,0,0,-0.1,300.61511,322.18244)"
               id="g86">
              <use
                 xlink:href="#DejaVuSans-31"
                 id="use84" />
            </g>
          </g>
        </g>
        <g
           id="xtick_5">
          <g
             id="line2d_5">
            <g
               id="g92">
              <use
                 style="stroke:#000000;stroke-width:0.8"
                 x="371.43274"
                 xlink:href="#m0190eac9ed"
                 y="307.58401"
                 id="use90" />
            </g>
          </g>
          <g
             id="text_5">
            <!-- 2 -->
            <g
               transform="matrix(0.1,0,0,-0.1,368.25148,322.18244)"
               id="g97">
              <use
                 xlink:href="#DejaVuSans-32"
                 id="use95" />
            </g>
          </g>
        </g>
        <g
           id="text_6">
          <!-- Value -->
          <g
             transform="matrix(0.1,0,0,-0.1,222.42875,335.86056)"
             id="g118">
            <defs
               id="defs106">
              <path
                 d="M 1831,0 50,4666 H 709 L 2188,738 3669,4666 h 656 L 2547,0 Z"
                 id="DejaVuSans-56"
                 transform="scale(0.015625)" />
              <path
                 d="m 2194,1759 q -697,0 -966,-159 -269,-159 -269,-544 0,-306 202,-486 202,-179 548,-179 479,0 768,339 289,339 289,901 v 128 z m 1147,238 V 0 H 2766 V 531 Q 2569,213 2275,61 1981,-91 1556,-91 q -537,0 -855,302 -317,302 -317,808 0,590 395,890 396,300 1180,300 h 807 v 57 q 0,397 -261,614 -261,217 -733,217 -300,0 -585,-72 -284,-72 -546,-216 v 532 q 315,122 612,182 297,61 578,61 760,0 1135,-394 375,-393 375,-1193 z"
                 id="DejaVuSans-61"
                 transform="scale(0.015625)" />
              <path
                 d="m 603,4863 h 575 V 0 H 603 Z"
                 id="DejaVuSans-6c"
                 transform="scale(0.015625)" />
              <path
                 d="m 544,1381 v 2119 h 575 V 1403 q 0,-497 193,-746 194,-248 582,-248 465,0 735,297 271,297 271,810 v 1984 h 575 V 0 H 2900 V 538 Q 2691,219 2414,64 2138,-91 1772,-91 1169,-91 856,284 544,659 544,1381 Z m 1447,2203 z"
                 id="DejaVuSans-75"
                 transform="scale(0.015625)" />
              <path
                 d="M 3597,1894 V 1613 H 953 q 38,-594 358,-905 320,-311 892,-311 331,0 642,81 311,81 618,244 V 178 Q 3153,47 2828,-22 2503,-91 2169,-91 1331,-91 842,396 353,884 353,1716 q 0,859 464,1363 464,505 1252,505 706,0 1117,-455 411,-454 411,-1235 z m -575,169 q -6,471 -264,752 -258,282 -683,282 -481,0 -770,-272 -289,-272 -333,-766 z"
                 id="DejaVuSans-65"
                 transform="scale(0.015625)" />
            </defs>
            <use
               xlink:href="#DejaVuSans-56"
               id="use108" />
            <use
               x="60.658203"
               xlink:href="#DejaVuSans-61"
               id="use110" />
            <use
               x="121.9375"
               xlink:href="#DejaVuSans-6c"
               id="use112" />
            <use
               x="149.7207"
               xlink:href="#DejaVuSans-75"
               id="use114" />
            <use
               x="213.09961"
               xlink:href="#DejaVuSans-65"
               id="use116" />
          </g>
        </g>
      </g>
      <g
         id="matplotlib.axis_2">
        <g
           id="ytick_1">
          <g
             id="line2d_6">
            <defs
               id="defs123">
              <path
                 d="M 0,0 H -3.5"
                 id="mf5daee1361"
                 style="stroke:#000000;stroke-width:0.8" />
            </defs>
            <g
               id="g127">
              <use
                 style="stroke:#000000;stroke-width:0.8"
                 x="57.599998"
                 xlink:href="#mf5daee1361"
                 y="307.58401"
                 id="use125" />
            </g>
          </g>
          <g
             id="text_7">
            <!-- 0.00 -->
            <g
               transform="matrix(0.1,0,0,-0.1,28.334375,311.38322)"
               id="g141">
              <defs
                 id="defs131">
                <path
                   d="m 684,794 h 660 V 0 H 684 Z"
                   id="DejaVuSans-2e"
                   transform="scale(0.015625)" />
              </defs>
              <use
                 xlink:href="#DejaVuSans-30"
                 id="use133" />
              <use
                 x="63.623047"
                 xlink:href="#DejaVuSans-2e"
                 id="use135" />
              <use
                 x="95.410156"
                 xlink:href="#DejaVuSans-30"
                 id="use137" />
              <use
                 x="159.0332"
                 xlink:href="#DejaVuSans-30"
                 id="use139" />
            </g>
          </g>
        </g>
        <g
           id="ytick_2">
          <g
             id="line2d_7">
            <g
               id="g147">
              <use
                 style="stroke:#000000;stroke-width:0.8"
                 x="57.599998"
                 xlink:href="#mf5daee1361"
                 y="273.80161"
                 id="use145" />
            </g>
          </g>
          <g
             id="text_8">
            <!-- 0.05 -->
            <g
               transform="matrix(0.1,0,0,-0.1,28.334375,277.60083)"
               id="g161">
              <defs
                 id="defs151">
                <path
                   d="M 691,4666 H 3169 V 4134 H 1269 V 2991 q 137,47 274,70 138,23 276,23 781,0 1237,-428 457,-428 457,-1159 Q 3513,744 3044,326 2575,-91 1722,-91 1428,-91 1123,-41 819,9 494,109 v 635 q 281,-153 581,-228 300,-75 634,-75 541,0 856,284 316,284 316,772 0,487 -316,771 -315,285 -856,285 -253,0 -505,-56 -251,-56 -513,-175 z"
                   id="DejaVuSans-35"
                   transform="scale(0.015625)" />
              </defs>
              <use
                 xlink:href="#DejaVuSans-30"
                 id="use153" />
              <use
                 x="63.623047"
                 xlink:href="#DejaVuSans-2e"
                 id="use155" />
              <use
                 x="95.410156"
                 xlink:href="#DejaVuSans-30"
                 id="use157" />
              <use
                 x="159.0332"
                 xlink:href="#DejaVuSans-35"
                 id="use159" />
            </g>
          </g>
        </g>
        <g
           id="ytick_3">
          <g
             id="line2d_8">
            <g
               id="g167">
              <use
                 style="stroke:#000000;stroke-width:0.8"
                 x="57.599998"
                 xlink:href="#mf5daee1361"
                 y="240.01923"
                 id="use165" />
            </g>
          </g>
          <g
             id="text_9">
            <!-- 0.10 -->
            <g
               transform="matrix(0.1,0,0,-0.1,28.334375,243.81845)"
               id="g178">
              <use
                 xlink:href="#DejaVuSans-30"
                 id="use170" />
              <use
                 x="63.623047"
                 xlink:href="#DejaVuSans-2e"
                 id="use172" />
              <use
                 x="95.410156"
                 xlink:href="#DejaVuSans-31"
                 id="use174" />
              <use
                 x="159.0332"
                 xlink:href="#DejaVuSans-30"
                 id="use176" />
            </g>
          </g>
        </g>
        <g
           id="ytick_4">
          <g
             id="line2d_9">
            <g
               id="g184">
              <use
                 style="stroke:#000000;stroke-width:0.8"
                 x="57.599998"
                 xlink:href="#mf5daee1361"
                 y="206.23685"
                 id="use182" />
            </g>
          </g>
          <g
             id="text_10">
            <!-- 0.15 -->
            <g
               transform="matrix(0.1,0,0,-0.1,28.334375,210.03606)"
               id="g195">
              <use
                 xlink:href="#DejaVuSans-30"
                 id="use187" />
              <use
                 x="63.623047"
                 xlink:href="#DejaVuSans-2e"
                 id="use189" />
              <use
                 x="95.410156"
                 xlink:href="#DejaVuSans-31"
                 id="use191" />
              <use
                 x="159.0332"
                 xlink:href="#DejaVuSans-35"
                 id="use193" />
            </g>
          </g>
        </g>
        <g
           id="ytick_5">
          <g
             id="line2d_10">
            <g
               id="g201">
              <use
                 style="stroke:#000000;stroke-width:0.8"
                 x="57.599998"
                 xlink:href="#mf5daee1361"
                 y="172.45445"
                 id="use199" />
            </g>
          </g>
          <g
             id="text_11">
            <!-- 0.20 -->
            <g
               transform="matrix(0.1,0,0,-0.1,28.334375,176.25368)"
               id="g212">
              <use
                 xlink:href="#DejaVuSans-30"
                 id="use204" />
              <use
                 x="63.623047"
                 xlink:href="#DejaVuSans-2e"
                 id="use206" />
              <use
                 x="95.410156"
                 xlink:href="#DejaVuSans-32"
                 id="use208" />
              <use
                 x="159.0332"
                 xlink:href="#DejaVuSans-30"
                 id="use210" />
            </g>
          </g>
        </g>
        <g
           id="ytick_6">
          <g
             id="line2d_11">
            <g
               id="g218">
              <use
                 style="stroke:#000000;stroke-width:0.8"
                 x="57.599998"
                 xlink:href="#mf5daee1361"
                 y="138.67207"
                 id="use216" />
            </g>
          </g>
          <g
             id="text_12">
            <!-- 0.25 -->
            <g
               transform="matrix(0.1,0,0,-0.1,28.334375,142.47129)"
               id="g229">
              <use
                 xlink:href="#DejaVuSans-30"
                 id="use221" />
              <use
                 x="63.623047"
                 xlink:href="#DejaVuSans-2e"
                 id="use223" />
              <use
                 x="95.410156"
                 xlink:href="#DejaVuSans-32"
                 id="use225" />
              <use
                 x="159.0332"
                 xlink:href="#DejaVuSans-35"
                 id="use227" />
            </g>
          </g>
        </g>
        <g
           id="ytick_7">
          <g
             id="line2d_12">
            <g
               id="g235">
              <use
                 style="stroke:#000000;stroke-width:0.8"
                 x="57.599998"
                 xlink:href="#mf5daee1361"
                 y="104.88969"
                 id="use233" />
            </g>
          </g>
          <g
             id="text_13">
            <!-- 0.30 -->
            <g
               transform="matrix(0.1,0,0,-0.1,28.334375,108.6889)"
               id="g249">
              <defs
                 id="defs239">
                <path
                   d="m 2597,2516 q 453,-97 707,-404 255,-306 255,-756 0,-690 -475,-1069 -475,-378 -1350,-378 -293,0 -604,58 -311,58 -642,174 v 609 q 262,-153 574,-231 313,-78 654,-78 593,0 904,234 311,234 311,681 0,413 -289,645 -289,233 -804,233 h -544 v 519 h 569 q 465,0 712,186 247,186 247,536 0,359 -255,551 -254,193 -729,193 -260,0 -557,-57 -297,-56 -653,-174 v 562 q 360,100 674,150 314,50 592,50 719,0 1137,-327 419,-326 419,-882 0,-388 -222,-655 -222,-267 -631,-370 z"
                   id="DejaVuSans-33"
                   transform="scale(0.015625)" />
              </defs>
              <use
                 xlink:href="#DejaVuSans-30"
                 id="use241" />
              <use
                 x="63.623047"
                 xlink:href="#DejaVuSans-2e"
                 id="use243" />
              <use
                 x="95.410156"
                 xlink:href="#DejaVuSans-33"
                 id="use245" />
              <use
                 x="159.0332"
                 xlink:href="#DejaVuSans-30"
                 id="use247" />
            </g>
          </g>
        </g>
        <g
           id="ytick_8">
          <g
             id="line2d_13">
            <g
               id="g255">
              <use
                 style="stroke:#000000;stroke-width:0.8"
                 x="57.599998"
                 xlink:href="#mf5daee1361"
                 y="71.1073"
                 id="use253" />
            </g>
          </g>
          <g
             id="text_14">
            <!-- 0.35 -->
            <g
               transform="matrix(0.1,0,0,-0.1,28.334375,74.906518)"
               id="g266">
              <use
                 xlink:href="#DejaVuSans-30"
                 id="use258" />
              <use
                 x="63.623047"
                 xlink:href="#DejaVuSans-2e"
                 id="use260" />
              <use
                 x="95.410156"
                 xlink:href="#DejaVuSans-33"
                 id="use262" />
              <use
                 x="159.0332"
                 xlink:href="#DejaVuSans-35"
                 id="use264" />
            </g>
          </g>
        </g>
        <g
           id="text_15">
          <!-- Frequency -->
          <g
             transform="matrix(0,-0.1,-0.1,0,22.254687,200.35769)"
             id="g296">
            <defs
               id="defs276">
              <path
                 d="M 628,4666 H 3309 V 4134 H 1259 V 2759 H 3109 V 2228 H 1259 V 0 H 628 Z"
                 id="DejaVuSans-46"
                 transform="scale(0.015625)" />
              <path
                 d="m 2631,2963 q -97,56 -211,82 -114,27 -251,27 -488,0 -749,-317 -261,-317 -261,-911 V 0 H 581 v 3500 h 578 v -544 q 182,319 472,473 291,155 707,155 59,0 131,-8 72,-7 159,-23 z"
                 id="DejaVuSans-72"
                 transform="scale(0.015625)" />
              <path
                 d="m 947,1747 q 0,-634 261,-995 261,-361 717,-361 456,0 718,361 263,361 263,995 0,634 -263,995 -262,361 -718,361 -456,0 -717,-361 Q 947,2381 947,1747 Z M 2906,525 Q 2725,213 2448,61 2172,-91 1784,-91 1150,-91 751,415 353,922 353,1747 q 0,825 398,1331 399,506 1033,506 388,0 664,-152 277,-151 458,-463 v 531 h 575 v -4831 h -575 z"
                 id="DejaVuSans-71"
                 transform="scale(0.015625)" />
              <path
                 d="M 3513,2113 V 0 h -575 v 2094 q 0,497 -194,743 -194,247 -581,247 -466,0 -735,-297 -269,-296 -269,-809 V 0 H 581 v 3500 h 578 v -544 q 207,316 486,472 280,156 646,156 603,0 912,-373 310,-373 310,-1098 z"
                 id="DejaVuSans-6e"
                 transform="scale(0.015625)" />
              <path
                 d="m 3122,3366 v -538 q -244,135 -489,202 -245,67 -495,67 -560,0 -870,-355 -309,-354 -309,-995 0,-641 309,-996 310,-354 870,-354 250,0 495,67 245,67 489,202 V 134 Q 2881,22 2623,-34 2366,-91 2075,-91 1284,-91 818,406 353,903 353,1747 q 0,856 470,1346 471,491 1290,491 265,0 518,-55 253,-54 491,-163 z"
                 id="DejaVuSans-63"
                 transform="scale(0.015625)" />
              <path
                 d="m 2059,-325 q -243,-625 -475,-815 -231,-191 -618,-191 H 506 v 481 h 338 q 237,0 368,113 132,112 291,531 L 1606,56 191,3500 H 800 L 1894,763 2988,3500 h 609 z"
                 id="DejaVuSans-79"
                 transform="scale(0.015625)" />
            </defs>
            <use
               xlink:href="#DejaVuSans-46"
               id="use278" />
            <use
               x="50.269531"
               xlink:href="#DejaVuSans-72"
               id="use280" />
            <use
               x="89.132812"
               xlink:href="#DejaVuSans-65"
               id="use282" />
            <use
               x="150.65625"
               xlink:href="#DejaVuSans-71"
               id="use284" />
            <use
               x="214.13281"
               xlink:href="#DejaVuSans-75"
               id="use286" />
            <use
               x="277.51172"
               xlink:href="#DejaVuSans-65"
               id="use288" />
            <use
               x="339.03516"
               xlink:href="#DejaVuSans-6e"
               id="use290" />
            <use
               x="402.41406"
               xlink:href="#DejaVuSans-63"
               id="use292" />
            <use
               x="457.39453"
               xlink:href="#DejaVuSans-79"
               id="use294" />
          </g>
        </g>
      </g>
      <g
         id="patch_8">
        <path
           d="M 57.6,307.584 V 41.472"
           style="fill:none;stroke:#000000;stroke-width:0.8;stroke-linecap:square;stroke-linejoin:miter"
           id="path300" />
      </g>
      <g
         id="patch_9">
        <path
           d="M 414.72,307.584 V 41.472"
           style="fill:none;stroke:#000000;stroke-width:0.8;stroke-linecap:square;stroke-linejoin:miter"
           id="path303" />
      </g>
      <g
         id="patch_10">
        <path
           d="M 57.6,307.584 H 414.72"
           style="fill:none;stroke:#000000;stroke-width:0.8;stroke-linecap:square;stroke-linejoin:miter"
           id="path306" />
      </g>
      <g
         id="patch_11">
        <path
           d="M 57.6,41.472 H 414.72"
           style="fill:none;stroke:#000000;stroke-width:0.8;stroke-linecap:square;stroke-linejoin:miter"
           id="path309" />
      </g>
      <g
         id="text_16">
        <!-- Centered Binomial Distribution Eta=2 -->
        <g
           transform="matrix(0.12,0,0,-0.12,123.09844,35.472)"
           id="g399">
          <defs
             id="defs325">
            <path
               d="m 4122,4306 v -665 q -319,297 -680,443 -361,147 -767,147 -800,0 -1225,-489 -425,-489 -425,-1414 0,-922 425,-1411 425,-489 1225,-489 406,0 767,147 361,147 680,444 V 359 Q 3791,134 3420,21 3050,-91 2638,-91 1578,-91 968,557 359,1206 359,2328 q 0,1125 609,1773 610,649 1670,649 418,0 788,-111 371,-111 696,-333 z"
               id="DejaVuSans-43"
               transform="scale(0.015625)" />
            <path
               d="M 1172,4494 V 3500 H 2356 V 3053 H 1172 V 1153 q 0,-428 117,-550 117,-122 477,-122 h 590 V 0 H 1766 Q 1100,0 847,248 594,497 594,1153 V 3053 H 172 v 447 h 422 v 994 z"
               id="DejaVuSans-74"
               transform="scale(0.015625)" />
            <path
               d="m 2906,2969 v 1894 h 575 V 0 H 2906 V 525 Q 2725,213 2448,61 2172,-91 1784,-91 1150,-91 751,415 353,922 353,1747 q 0,825 398,1331 399,506 1033,506 388,0 664,-152 277,-151 458,-463 z M 947,1747 q 0,-634 261,-995 261,-361 717,-361 456,0 718,361 263,361 263,995 0,634 -263,995 -262,361 -718,361 -456,0 -717,-361 -261,-361 -261,-995 z"
               id="DejaVuSans-64"
               transform="scale(0.015625)" />
            <path
               id="DejaVuSans-20"
               transform="scale(0.015625)"
               d="" />
            <path
               d="M 1259,2228 V 519 h 1013 q 509,0 754,211 246,211 246,645 0,438 -246,645 -245,208 -754,208 z m 0,1919 V 2741 h 935 q 462,0 688,173 227,174 227,530 0,353 -227,528 -226,175 -688,175 z m -631,519 h 1613 q 722,0 1112,-300 391,-300 391,-853 0,-429 -200,-682 -200,-253 -588,-315 466,-100 724,-418 258,-317 258,-792 0,-625 -425,-966 Q 3088,0 2303,0 H 628 Z"
               id="DejaVuSans-42"
               transform="scale(0.015625)" />
            <path
               d="m 603,3500 h 575 V 0 H 603 Z m 0,1363 h 575 V 4134 H 603 Z"
               id="DejaVuSans-69"
               transform="scale(0.015625)" />
            <path
               d="m 1959,3097 q -462,0 -731,-361 -269,-361 -269,-989 0,-628 267,-989 268,-361 733,-361 460,0 728,362 269,363 269,988 0,622 -269,986 -268,364 -728,364 z m 0,487 q 750,0 1178,-488 429,-487 429,-1349 Q 3566,888 3137,398 2709,-91 1959,-91 1206,-91 779,398 353,888 353,1747 q 0,862 426,1349 427,488 1180,488 z"
               id="DejaVuSans-6f"
               transform="scale(0.015625)" />
            <path
               d="m 3328,2828 q 216,388 516,572 300,184 706,184 547,0 844,-383 297,-382 297,-1088 V 0 h -578 v 2094 q 0,503 -179,746 -178,244 -543,244 -447,0 -707,-297 -259,-296 -259,-809 V 0 h -578 v 2094 q 0,506 -178,748 -178,242 -550,242 -441,0 -701,-298 -259,-298 -259,-808 V 0 H 581 v 3500 h 578 v -544 q 197,322 472,475 275,153 653,153 382,0 649,-194 267,-193 395,-562 z"
               id="DejaVuSans-6d"
               transform="scale(0.015625)" />
            <path
               d="M 1259,4147 V 519 h 763 q 966,0 1414,437 448,438 448,1382 0,937 -448,1373 -448,436 -1414,436 z m -631,519 h 1297 q 1356,0 1990,-564 635,-564 635,-1764 Q 4550,1131 3912,565 3275,0 1925,0 H 628 Z"
               id="DejaVuSans-44"
               transform="scale(0.015625)" />
            <path
               d="m 2834,3397 v -544 q -243,125 -506,187 -262,63 -544,63 -428,0 -642,-131 -214,-131 -214,-394 0,-200 153,-314 153,-114 616,-217 l 197,-44 q 612,-131 870,-370 258,-239 258,-667 0,-488 -386,-773 Q 2250,-91 1575,-91 1294,-91 989,-36 684,19 347,128 v 594 q 319,-166 628,-249 309,-82 613,-82 406,0 624,139 219,139 219,392 0,234 -158,359 -157,125 -692,241 l -200,47 q -534,112 -772,345 -237,233 -237,639 0,494 350,762 350,269 994,269 318,0 599,-47 282,-46 519,-140 z"
               id="DejaVuSans-73"
               transform="scale(0.015625)" />
            <path
               d="m 3116,1747 q 0,634 -261,995 -261,361 -717,361 -457,0 -718,-361 -261,-361 -261,-995 0,-634 261,-995 261,-361 718,-361 456,0 717,361 261,361 261,995 z M 1159,2969 q 182,312 458,463 277,152 661,152 638,0 1036,-506 399,-506 399,-1331 Q 3713,922 3314,415 2916,-91 2278,-91 1894,-91 1617,61 1341,213 1159,525 V 0 H 581 v 4863 h 578 z"
               id="DejaVuSans-62"
               transform="scale(0.015625)" />
            <path
               d="M 628,4666 H 3578 V 4134 H 1259 V 2753 H 3481 V 2222 H 1259 V 531 H 3634 V 0 H 628 Z"
               id="DejaVuSans-45"
               transform="scale(0.015625)" />
            <path
               d="M 678,2906 H 4684 V 2381 H 678 Z m 0,-1275 H 4684 V 1100 H 678 Z"
               id="DejaVuSans-3d"
               transform="scale(0.015625)" />
          </defs>
          <use
             xlink:href="#DejaVuSans-43"
             id="use327" />
          <use
             x="69.824219"
             xlink:href="#DejaVuSans-65"
             id="use329" />
          <use
             x="131.34766"
             xlink:href="#DejaVuSans-6e"
             id="use331" />
          <use
             x="194.72656"
             xlink:href="#DejaVuSans-74"
             id="use333" />
          <use
             x="233.93555"
             xlink:href="#DejaVuSans-65"
             id="use335" />
          <use
             x="295.45898"
             xlink:href="#DejaVuSans-72"
             id="use337" />
          <use
             x="334.32227"
             xlink:href="#DejaVuSans-65"
             id="use339" />
          <use
             x="395.8457"
             xlink:href="#DejaVuSans-64"
             id="use341" />
          <use
             x="459.32227"
             xlink:href="#DejaVuSans-20"
             id="use343" />
          <use
             x="491.10938"
             xlink:href="#DejaVuSans-42"
             id="use345" />
          <use
             x="559.71289"
             xlink:href="#DejaVuSans-69"
             id="use347" />
          <use
             x="587.49609"
             xlink:href="#DejaVuSans-6e"
             id="use349" />
          <use
             x="650.875"
             xlink:href="#DejaVuSans-6f"
             id="use351" />
          <use
             x="712.05664"
             xlink:href="#DejaVuSans-6d"
             id="use353" />
          <use
             x="809.46875"
             xlink:href="#DejaVuSans-69"
             id="use355" />
          <use
             x="837.25195"
             xlink:href="#DejaVuSans-61"
             id="use357" />
          <use
             x="898.53125"
             xlink:href="#DejaVuSans-6c"
             id="use359" />
          <use
             x="926.31445"
             xlink:href="#DejaVuSans-20"
             id="use361" />
          <use
             x="958.10156"
             xlink:href="#DejaVuSans-44"
             id="use363" />
          <use
             x="1035.1035"
             xlink:href="#DejaVuSans-69"
             id="use365" />
          <use
             x="1062.8867"
             xlink:href="#DejaVuSans-73"
             id="use367" />
          <use
             x="1114.9863"
             xlink:href="#DejaVuSans-74"
             id="use369" />
          <use
             x="1154.1953"
             xlink:href="#DejaVuSans-72"
             id="use371" />
          <use
             x="1195.3086"
             xlink:href="#DejaVuSans-69"
             id="use373" />
          <use
             x="1223.0918"
             xlink:href="#DejaVuSans-62"
             id="use375" />
          <use
             x="1286.5684"
             xlink:href="#DejaVuSans-75"
             id="use377" />
          <use
             x="1349.9473"
             xlink:href="#DejaVuSans-74"
             id="use379" />
          <use
             x="1389.1562"
             xlink:href="#DejaVuSans-69"
             id="use381" />
          <use
             x="1416.9395"
             xlink:href="#DejaVuSans-6f"
             id="use383" />
          <use
             x="1478.1211"
             xlink:href="#DejaVuSans-6e"
             id="use385" />
          <use
             x="1541.5"
             xlink:href="#DejaVuSans-20"
             id="use387" />
          <use
             x="1573.2871"
             xlink:href="#DejaVuSans-45"
             id="use389" />
          <use
             x="1636.4707"
             xlink:href="#DejaVuSans-74"
             id="use391" />
          <use
             x="1675.6797"
             xlink:href="#DejaVuSans-61"
             id="use393" />
          <use
             x="1736.959"
             xlink:href="#DejaVuSans-3d"
             id="use395" />
          <use
             x="1820.748"
             xlink:href="#DejaVuSans-32"
             id="use397" />
        </g>
      </g>
    </g>
  </g>
  <defs
     id="defs407">
    <clipPath
       id="p18beff2aa6">
      <rect
         height="266.112"
         width="357.12"
         x="57.599998"
         y="41.472"
         id="rect404" />
    </clipPath>
  </defs>
</svg>
