<?xml version="1.0" encoding="UTF-8" standalone="no"?>
<svg
   viewBox="-702 0 716.71301 325.655"
   version="1.2"
   id="svg18"
   xmlns="http://www.w3.org/2000/svg"
   xmlns:svg="http://www.w3.org/2000/svg"><defs
   id="defs22" />
<g
   id="g8"
   transform="translate(-230.138,-462.19601)">
  <path
     fill="#000000"
     d="m -78.9686,462.473 v 0 l -2.7413,2.237 -1.79,-0.679 -1.3427,0.441 -0.0084,2.054 3.7179,4.372 2.2891,-0.012 2.7044,-5.327 -0.358,-1.54 -2.0084,-1.823 m -4.0159,3.014 v 0 l 0.0265,0.593 m -154.2526,0.461 v 0 l -6.133,2.566 0.019,5.724 1.698,2.343 1.998,-2.205 2.474,-1.526 1.554,-2.612 -0.02,-4.082 m 312.37,-0.153 v 0 l -4.2109,3.181 -0.8433,0.973 -5e-4,1.054 0.9167,1.607 2.2335,1.7 1.6851,2.643 1.5604,0.377 1.4554,-1.172 -2.4808,-1.67 -0.3698,-1.539 2.7031,-3.917 0.1108,-1.106 -2.1768,-2.122 m 160.2411,0.157 v 0 l -2.784,5.214 -3.277,-3.198 -0.805,-0.027 0.143,1.328 1.481,2.467 4.646,1.598 2.114,-0.005 2.636,-1.577 2.312,-2.303 0.349,-2.508 -1.325,-1.325 -4.022,-0.134 M 75.4732,469.21 v 0 l 0.4929,1.283 -0.4661,1.309 -0.4676,-1.301 M 241.478,469.21 v 0 l 0.027,0.593 m -481.027,1.407 v 0 l 0.027,0.593 m -125.463,22.674 v 0 l -0.873,1.053 7.228,17.373 2.589,14.604 -0.117,10.055 -3.722,15.036 -2.013,4.843 0.015,2.085 1.324,1.316 1.052,-10e-4 1.786,-2.619 1.905,-4.764 3.653,-12.897 0.117,-15.054 -1.853,-11.649 -1.807,-6.029 -6.038,-12.013 -1.76,-1.658 m -23.493,2.33 v 0 l -2.343,7.052 -3.524,19.995 -10.034,28.906 0.023,3.087 2.997,0.359 1.136,-1.722 4.387,-13.42 2.286,-4.629 0.57,10e-4 9.461,1.824 2.32,0.902 2.933,4.929 4.502,12.445 0.726,0.624 1.052,10e-4 1.324,-1.316 0.015,-4.085 -3.351,-8.374 -2.379,-3.574 1.624,-2.18 -1.83,-2.333 -1.269,-3.754 -3.356,-17.777 -1.946,-7.687 -3.131,-9.009 -0.703,-0.594 m -36.539,49.305 v 0 l 0.144,2.093 4.839,14.907 2.505,2.387 h 2.052 l 4.273,-4.354 -0.955,-0.358 -1.531,1.622 -2.596,-1.572 -2.079,-5.919 -4.276,-16.54 -2.228,-6.171 -0.003,-14.121 2.522,-8.608 3.213,-7.271 -0.015,-3.085 -1.324,-1.316 -1.755,0.595 -4.108,10.049 -2.65,8.704 0.12,17.053 m 35.705,-4.01 v 0 l 0.293,-2.105 2.147,-5.997 2.536,-11.385 1.484,5.373 3.538,18.032 -1.341,0.516 -2.058,-0.114 -6.707,-1.657 -0.572,-0.688 -0.002,-1.051 m -74.986,-27.023 v 0 l -0.023,2.07 3.16,2.314 2.98,3.982 4.044,7.981 3.538,13.641 -0.003,7.122 -1.879,4.34 -5.427,-1.768 -3.055,-0.118 -5.638,2.063 -3.73,5.369 0.011,3.08 1.681,1.772 1.746,0.892 4.863,1.678 2.055,0.117 1.308,-0.297 5.388,-3.403 2.524,-2.994 11.096,10.994 3.664,2.566 h 2.052 l 1.323,-1.323 0.041,-1.672 -4.074,-2.567 -3.626,-3.574 -2.38,-1.43 -3.095,-3.095 -2.566,-3.664 -10e-4,-4.052 0.837,-1.978 10e-4,-7.99 -3.777,-14.932 -5.92,-10.758 -3.099,-3.101 -2.635,-1.571 m -3.076,47.904 v 0 l 2.388,-2.946 7.629,-0.086 1.339,0.455 -0.836,2.029 -1.809,1.785 -2.634,1.571 -5.802,-1.628 -0.554,-0.735 m 73.957,225.962 v 0 l -0.472,1.267 -2.184,-1.578 -0.363,2.41 2.834,5.913 1.502,1.384 2.659,0.046 1.729,-2.343 -0.011,-5.08 -2.325,-2.325 -2.022,-0.133 m -0.294,4.506 v 0 l 0.593,-0.027 m 1.407,3.027 v 0 l 0.593,-0.027 m 207.233,-235.01 v 0 l -1.355,2.323 -6.356,17.42 -5.651,11.546 -2.4,6.443 -1.252,1.304 -0.86,-0.045 -0.145,2.02 0.455,1.347 3.052,0.008 0.762,-0.668 6.706,-13.66 1.511,-0.508 7.04,0.003 1.598,1.575 3.722,11.846 -0.662,2.065 1.299,-0.303 2,0.768 1.343,-0.441 0.023,-4.087 -2.838,-7.99 1.87,-2.304 -0.047,-2.673 -1.65,-1.974 0.642,-0.973 -0.009,-1.054 -1.059,-0.322 -0.953,0.856 -1.026,-2.432 -3.584,-19.842 -0.688,-0.574 m -3.674,17.415 v 0 l 0.283,-2.129 1.399,-2.301 0.596,1.155 1.741,7.139 0.114,2.058 -0.455,1.347 -3.086,0.022 -3.205,-1.574 m 27.994,-1.01 v 0 l -3.702,1.704 -0.391,2.569 4.574,8.63 4.087,4.316 -1.273,1.351 -2.087,0.018 -6.017,-1.763 -2.708,-1.815 -1.57,2.155 0.014,1.083 0.941,1.652 1.348,0.881 5.991,1.807 5.088,-0.017 1.607,-0.926 1.729,-2.372 -0.011,-4.08 -4.14,-4.29 -2.572,-4.628 -0.059,-1.602 3.386,-1.783 2.006,1.671 1.057,-0.007 0.351,-2.003 -6.318,-2.695 m -7.519,35.411 v 0 l -2.517,-2.399 -2.054,0.008 -0.455,1.347 0.131,2.022 2.137,2.284 3.43,5.38 2.57,2.62 1.571,2.635 -0.014,1.084 -9.35,8.335 -2.534,-1.796 -2.779,7.403 3.293,2.352 10,-9.665 3.028,0.811 2.631,-0.835 5.156,6.681 4.79,8.317 2.368,1.724 1.085,-0.022 0.454,-1.338 -0.133,-3.022 -2.14,-2.29 -2.424,-4.369 -7.129,-10.288 0.001,-1.052 8.031,-5.19 7.975,-5.977 1.658,-2.78 -2.296,-2.37 h -1.055 l -9.288,8.13 -7.475,4.422 m -2.231,7.499 v 0 l 0.027,0.594 m 1.017,-1.013 v 0 l -0.027,-0.593 m -153.455,-5.72 v 0 l -1.891,1.997 -0.134,3.023 1.005,2.006 1.535,0.353 3.296,-2.332 0.134,-3.021 -0.482,-1.484 -0.977,-0.87 m 310.50659,1.339 v 0 l -1.865506,4.975 1.306732,1.388 H 2.52594 l 3.29684,-3.379 -2.29928,-3.323 m -314.0455,2.061 v 0 l 0.027,0.593 m 469.753,0.455 v 0 l -5.144,2.21 0.736,1.002 0.21,1.53 4.379,1.863 1.09,-0.022 2.756,-2.651 1.538,-2.662 -1.297,-1.379 m -7.053,3.061 v 0 l 0.359,1.31 -0.332,0.282 -0.332,-1.333 M -235.96,773.477 v 0 l -1.333,1.346 -2.567,5.617 0.173,1.362 1.404,2.387 1.783,0.78 2,-0.97 2.351,-2.473 0.134,-1.03 -0.134,-6.022 -1.325,-1.325 m 154.5055,1.324 v 0 l -1.1673,0.597 -1.7258,2.376 -0.1082,1.056 0.7689,1.998 -0.5985,1 0.2996,0.475 1.9736,1.876 1.0262,0.118 1.747,-0.744 1.6186,-3.666 0.1191,-3.056 -0.4822,-1.483 -1.002,-0.819 -1.0005,0.598 -1.0066,-0.603 m 156.6769,5.254 v 0 l -0.0218,7.076 1.3251,1.325 h 3.0501 l 2.3381,-3.297 -0.0102,-2.08 -0.8975,-1.517 -3.3961,-1.822 m -318.108,2.036 v 0 l 2.264,0.14 -2.194,1.511 -0.357,-1.356 m 319.3151,2.743 v 0 l 0.0265,0.594"
     id="path6" />
</g>
<g
   id="g12"
   transform="translate(-230.138,-462.19601)">
  <path
     fill="#909090"
     d="m -167.73,537.248 v 0 l -11.77,2.475 -6.939,2.14 -2.035,-0.715 -2.08,-0.01 -9.632,4.576 -14.286,10.263 -6.821,6.846 -2.536,5.65 1.353,0.368 0.723,-0.616 3.468,-6.415 3.095,-3.095 2.662,-1.692 2.338,-2.308 13.635,-8.571 3.11,0.712 4.216,-2.179 6.293,-2.189 10.938,-2.531 18.685,-1.762 -1.161,-1.046 -1.03,-0.134 m -33.693,162.264 v 0 l 5.773,2.931 15.897,4.619 0.368,-1.353 -0.623,-0.727 -3.03,-1.109 -12.359,-3.295 -6.013,-3.057 -1.615,-1.788 0.598,-1.001 -0.299,-0.474 -2.316,-2.313 -6.37,-3.425 -16.004,-11.002 -5.095,-5.095 -1.577,-2.634 -0.238,-1.69 -2.21,-1.703 -8.007,-14.908 -8.364,-24.448 -1.826,-2.606 -0.353,1.358 6.35,19.37 3.192,8.325 5.031,9.932 5.998,9.998 8.105,7.105 4.368,2.422 5.626,4.574 7.374,4.426 m 34.026,-150.236 v 0 l 0.497,0.714 25.328,1.882 7.142,2.637 19.848,19.791 0.805,0.026 0.012,-1.053 -4.643,-5.977 1.356,-0.351 7.63,4.569 7.0051,5.002 8.8328,8.813 1.6921,2.662 5.5699,5.62 1.9467,2.947 1.0612,3.803 2.5696,15.411 1.9744,8.489 -0.6362,1.04 0.7842,2.003 0.0012,7.991 -1.8212,6.974 1.3623,0.375 0.9787,-0.643 0.3583,1.362 -4.6316,17.682 -1.0331,1.261 1.3257,0.336 1.6674,-2.442 5.7766,-21.902 -0.4616,-1.296 -0.5161,0.329 -1.8508,3.023 -0.1255,-5.05 0.9697,-3.007 -0.1148,-6.058 -3.7395,-18.876 -0.1144,-2.058 0.8356,-1.978 0.0102,-2.08 -2.718,-4.891 0.0265,-1.081 0.8049,0.027 1.313,1.315 3.2205,6.217 5.1951,14.136 0.771,0.672 1.3475,-0.362 -5.4977,-14.707 -3.0364,-5.956 -3.0982,-3.101 -5.6624,-3.692 -12.3376,-13.308 -14.9411,-9.943 -4.712,-1.605 -1.01,0.676 -1.054,-10e-4 -5.758,-5.652 -1.692,-2.662 -2.551,-2.551 -3.292,-2.267 -4.47,-1.886 -8.217,-1.81 -18.989,0.002 m -6.945,160.04 v 0 l -1.027,-0.899 -1.061,0.008 -0.312,1.359 0.589,0.698 21.759,3.764 3.017,-0.148 -0.225,-1.096 1.994,-0.87 7.145,-1.742 9.058,-0.115 1.978,0.837 2.02,0.133 2.732,-0.983 -9.733,-1.988 -3.055,0.116 -7.945,1.856 -4.99,-10e-4 -3.029,-0.818 -0.336,0.991 1.579,1.526 -1.216,0.286 m -41.023,-160.76 v 0 l 0.027,0.593 m -4.027,1.407 v 0 l 0.027,0.593 m 79.973,12.407 v 0 l 0.027,0.593 m -2.661,130.915 v 0 l -1.371,1.239 1.054,0.865 6.247,-2.201 14.6301,-3.405 3.78,-1.93 0.6567,-0.761 -0.0116,-1.048 -0.6286,-0.15 -6.6913,2.92 M -221.959,573.477 v 0 l -4.33,5.339 -9.997,15.998 -4.041,8.932 -2.501,6.727 0.327,0.324 1.752,-1.576 2.423,-6.447 4.039,-7.96 13.962,-21.02 -0.152,-0.623 m 127.5044,103.315 v 0 l -2.4962,1.339 -1.0369,-0.626 -0.3242,0.276 0.3021,1.367 3.082,0.02 2.6358,-1.577 4.0949,-4.095 5.0023,-7.005 2.5747,-4.631 -0.3549,-2.353 -0.7927,0.616 -3.426,6.367 -1.5732,1.626 -3.4302,5.38 -2.1024,2.1"
     id="path10" />
</g>
<g
   id="g16"
   transform="translate(-230.138,-462.19601)">
  <path
     fill="#000000"
     d="m -70.8561,650.42 v 0 l 0.0046,9.106 1.6264,1.723 3.729,1.6 4.9207,-1.66 2.0485,-1.168 2.8201,-2.844 2.5725,-5.618 -0.0143,-7.085 -4.3253,-4.325 h -2.0522 l -3.4986,3.35 -0.813,0.025 -0.0298,-3.085 2.8535,-10.946 -0.1243,-9.047 -1.729,-2.344 -2.9755,0.37 -0.0093,3.054 0.8369,1.977 -0.1153,5.059 m -67.6235,-10.298 v 0 l -13.531,2.537 -0.536,0.73 2.574,5.696 6.723,10.614 2.027,-0.861 0.353,-1.535 -2.698,-3.917 0.337,-1.329 10.321,9.09 10.684,6.51 1.351,-1.273 -0.374,-2.533 -4.661,-2.704 -4.006,-3.004 -14.523,-12.59 9.926,-3.442 0.584,-0.756 -1.271,-1.348 m 62.9286,33.028 v 0 l 2.0462,0.622 2.7841,-2.609 2.7339,-3.692 1.5101,-0.333 0.3136,0.307 0.0197,6.082 -2.7041,4.758 -5.6244,2.517 -0.5103,-0.331 -0.8748,-0.972 -0.1334,-1.03 5e-4,-3.992 M -138.522,629.21 v 0 l 0.027,0.593 m 28.666,7.647 v 0 l -0.034,2.101 5.15,7.264 2.578,5.314 -5.693,4.167 -5.92,2.435 1.614,2.166 3.688,-0.035 7.92,-4.734 0.6554,0.007 2.1578,2.68 3.7869,6.318 2.7211,1.539 2.1762,-2.124 -0.122,-1.076 -1.9945,-1.553 -1.3187,-1.911 -3.3926,-5.453 0.0148,-1.084 1.6575,-1.759 6.3461,-3.402 1.5972,-2.619 -2.2038,-1.546 -1.1115,-10e-4 -8.7303,5.565 -7.6906,-11.181 -1.497,-1.379 m 42.9472,7.061 v 0 l 0.3587,1.31 -0.3324,0.282 -0.3317,-1.332"
     id="path14" />
</g>
</svg>
