<svg
   viewBox="-702 0 860.98602 653.51123"
   version="1.2"
   id="svg1882"
   sodipodi:docname="lwe-rlwe.svg"
   inkscape:version="1.2.2 (732a01da63, 2022-12-09)"
   xmlns:inkscape="http://www.inkscape.org/namespaces/inkscape"
   xmlns:sodipodi="http://sodipodi.sourceforge.net/DTD/sodipodi-0.dtd"
   xmlns="http://www.w3.org/2000/svg"
   xmlns:svg="http://www.w3.org/2000/svg">
  <defs
     id="defs1886" />
  <sodipodi:namedview
     id="namedview1884"
     pagecolor="#505050"
     bordercolor="#eeeeee"
     borderopacity="1"
     inkscape:showpageshadow="0"
     inkscape:pageopacity="0"
     inkscape:pagecheckerboard="0"
     inkscape:deskcolor="#505050"
     showgrid="false"
     inkscape:zoom="1.2807737"
     inkscape:cx="364.23296"
     inkscape:cy="327.146"
     inkscape:window-width="1920"
     inkscape:window-height="1017"
     inkscape:window-x="1672"
     inkscape:window-y="-8"
     inkscape:window-maximized="1"
     inkscape:current-layer="svg1882" />
  <g
     id="g504"
     transform="translate(-111.076,-566.48901)">
    <path
       fill="none"
       stroke="#000000"
       stroke-width="4"
       stroke-linecap="round"
       stroke-linejoin="round"
       d="m -566.02,602.483 -0.564,-0.233 -0.101,-0.599 0.921,-2.456 0.159,-2.605 0.532,-0.794 -0.206,0.06 0.352,1.008 -0.348,0.633 0.81,7.109 -0.086,3.838 0.567,8.324 1.157,9.671 0.159,4.96 0.626,2.686 0.343,4.714 0.638,3.317 0.154,6.437 -0.094,0.255 0.054,-0.338 -0.422,-0.288 0.126,-0.88"
       id="path502" />
  </g>
  <g
     id="g508"
     transform="translate(-111.076,-566.48901)">
    <path
       fill="none"
       stroke="#000000"
       stroke-width="4"
       stroke-linecap="round"
       stroke-linejoin="round"
       d="m -562.56,598.332 0.271,-0.03 -0.529,-0.363 0.333,0.805 0.119,-0.299 0.034,0.315 0.282,-0.188 1.417,-2.993 2.777,-2.436 3.933,-1.241 3.29,0.267 1.824,0.464 2.966,1.627 2.658,3.32 1.576,2.81 0.861,3.142 0.212,2.759 -0.959,5.306 -1.247,2.891 -4.372,4.225 -3.599,2.594 -0.921,0.304 -1.799,1.815 -3.185,1.57 -0.901,0.09 -2.244,-0.528 -1.402,0.253 0.193,0.177 0.372,-0.422 6.64,7.798 4.107,2.946 3.737,2.144 9.495,8.037 3.024,2.111 2.337,0.25 -0.121,0.211 -0.564,-0.378 0.37,0.726 -0.482,-2.041"
       id="path506" />
  </g>
  <g
     id="g512"
     transform="translate(-111.076,-566.48901)">
    <path
       fill="none"
       stroke="#000000"
       stroke-width="4"
       stroke-linecap="round"
       stroke-linejoin="round"
       d="m -520.026,631.5 -0.73,-2.928 2.135,12.014 0.473,0.595 0.422,-1.14"
       id="path510" />
  </g>
  <g
     id="g516"
     transform="translate(-111.076,-566.48901)">
    <path
       fill="none"
       stroke="#000000"
       stroke-width="4"
       stroke-linecap="round"
       stroke-linejoin="round"
       d="m -524.72,603.049 -1.945,-4.581 -1.83,-6.084 0.44,-1.335 0.116,0.243 0.011,-0.266 0.799,0.17"
       id="path514" />
  </g>
  <g
     id="g520"
     transform="translate(-111.076,-566.48901)">
    <path
       fill="none"
       stroke="#000000"
       stroke-width="4"
       stroke-linecap="round"
       stroke-linejoin="round"
       d="m -506.584,626.65 -0.183,-1.78 0.287,-1.893 0.456,0.265 -0.346,0.363 0.392,0.004 0.741,1.313 1.726,7.208 0.75,6.528 -0.216,0.041 0.104,-0.663 1.204,-0.814 3.822,-4.667 2.193,-2.011 3.402,-1.346 0.366,-0.52 1.939,0.733 1.632,2.518 0.895,5.647 0.068,3.895 0.235,1.442 0.339,0.408"
       id="path518" />
  </g>
  <g
     id="g524"
     transform="translate(-111.076,-566.48901)">
    <path
       fill="none"
       stroke="#000000"
       stroke-width="4"
       stroke-linecap="round"
       stroke-linejoin="round"
       d="m -462.999,625.547 0.007,-1.496 -0.417,-0.905 -1.519,-0.871 -0.394,0.225 -1.515,-0.332 -2.092,0.196 -2.956,1.498 -0.958,0.824 -2.471,2.734 -2.166,3.988 -0.904,3.631 -0.042,2.525 0.434,2.158 1.774,3.084 2.497,2.407 1.853,0.462 2.731,-0.628 2.526,-1.541 3.967,-4.579 1.276,-2.722 -0.53,-5.66 0.174,0.371 0.369,-0.338 0.67,0.55 0.661,0.045 2.669,2.199 1.961,2.292 3.449,6.633 1.294,6.218 -0.329,3.062 -1.195,3.316 -3.416,4.278 -4.146,2.707 -4.601,0.662 -4.335,-0.144 -6.527,-1.035 -5.88,-0.387 -0.649,-0.868 0.475,-1.647"
       id="path522" />
  </g>
  <g
     id="g528"
     transform="translate(-111.076,-566.48901)">
    <path
       fill="none"
       stroke="#000000"
       stroke-width="4"
       stroke-linecap="round"
       stroke-linejoin="round"
       d="m -440.165,621.857 -0.294,0.106 0.945,0.892 0.973,-0.452 3.997,0.957 1.466,-0.049 1.193,0.448 1.559,-0.207 0.78,-0.779 -0.022,0.801 -0.044,-0.621 2.332,-0.607"
       id="path526" />
  </g>
  <g
     id="g532"
     transform="translate(-111.076,-566.48901)">
    <path
       fill="none"
       stroke="#000000"
       stroke-width="4"
       stroke-linecap="round"
       stroke-linejoin="round"
       d="m -397.915,587.021 -0.501,-0.572 0.443,0.783 -0.253,0.13 -0.33,1.907 -0.772,5.882 -3.407,42.16 -0.784,6.175 0.267,-0.551 0.105,0.308 1.848,-0.089 3.56,0.596 1.986,-0.174 4.235,0.289 6.639,1.375 1.042,0.704 0.823,-0.176 1.785,0.266 0.188,-1.923 1.019,-2.89"
       id="path530" />
  </g>
  <g
     id="g536"
     transform="translate(-111.076,-566.48901)">
    <path
       fill="none"
       stroke="#000000"
       stroke-width="4"
       stroke-linecap="round"
       stroke-linejoin="round"
       d="m -373.931,595.697 0.259,-0.856 -0.666,-1.021 0.538,0.889 -0.397,-0.163 0.608,1.366 1.333,7.145 4.723,15.574 0.46,3.014 2.66,9.211 1.053,6.178 0.976,3.158 -0.166,-0.367 0.35,-0.924 0.227,0.233 1.143,-0.973 2.42,-3.318 6.635,-13.969 0.785,-1.683 2.041,-7.747 1.647,9.845 2.456,6.038 1.753,7.862 1.064,2.658 0.897,0.906 0.312,1.075 -0.203,0.469 -0.173,-0.387 0.156,-0.338 0.182,0.168 -0.321,0.255 0.123,-0.4 0.256,0.244 -0.316,-0.006 0.022,-0.217 0.241,0.152 0.208,0.741 0.48,3.27 0.418,0.127 0.398,0.992 0.046,-0.494 0.029,0.471 -0.235,0.018 0.235,-0.132 0.105,0.436 -0.353,-0.815 0.207,0.123 0.726,-1.28 2.294,-5.874 1.949,-5.926 1.908,-7.444 2.181,-5.321 1.429,-2.955 4.375,-7.356 2.658,-6.146 1.391,-2.277 3.175,-3.754 -0.573,0.792 -0.154,-0.632 0.146,0.318 -1.766,5.295"
       id="path534" />
  </g>
  <g
     id="g540"
     transform="translate(-111.076,-566.48901)">
    <path
       fill="none"
       stroke="#000000"
       stroke-width="4"
       stroke-linecap="round"
       stroke-linejoin="round"
       d="m -297.833,600.91 -0.358,-2.933 0.246,1.379 -0.677,1.345 -4.057,13.005 -2.325,5.797 -5.091,10.594 -1.77,4.448 -1.176,5.149 0.128,0.393 -0.077,-0.369 0.27,-0.094 -0.27,1.024 0.875,2.529 0.245,0.044 -0.096,-0.392 0.937,0.636 2.519,0.54 0.845,-0.213 2.839,0.2 6.534,-0.869 7.066,-1.72 8.348,-3.851 1.038,-0.229 1.382,-0.894 0.414,0.095 1.773,-1.893 0.186,0.217 -0.063,-0.651 1.087,-2.117"
       id="path538" />
  </g>
  <g
     id="g544"
     transform="translate(-111.076,-566.48901)">
    <path
       fill="none"
       stroke="#000000"
       stroke-width="4"
       stroke-linecap="round"
       stroke-linejoin="round"
       d="m -305.878,622.304 0.426,0.941 0.339,-0.302 3.522,-0.097 8.733,-1.141 9.38,-2.255 3.316,-1.351 0.979,-0.769 3.052,-0.767"
       id="path542" />
  </g>
  <g
     id="g548"
     transform="translate(-111.076,-566.48901)">
    <path
       fill="none"
       stroke="#000000"
       stroke-width="4"
       stroke-linecap="round"
       stroke-linejoin="round"
       d="m -301.318,597.84 -1.299,-0.093 -0.308,0.414 -0.214,-0.194 1.718,0.266 13.044,-2.417 6.506,-0.429 5.867,0.503 7.777,1.256 3.656,-0.248"
       id="path546" />
  </g>
  <g
     id="g552"
     transform="translate(-111.076,-566.48901)">
    <path
       fill="none"
       stroke="#000000"
       stroke-width="4"
       stroke-linecap="round"
       stroke-linejoin="round"
       d="m -243.552,633.432 0.474,-0.98 0.256,-2.069 -0.457,0.583 -0.979,-0.85 -1.392,-0.23 -1.214,0.427 -1.249,1.121 -1.335,1.486 -1.487,2.409 -0.862,2.781 -0.056,3.027 0.898,2.745 1.754,1.447 1.867,0.367 2.578,-1.038 2.75,-2.985 3.343,-5.21 1.452,-3.486 0.768,-3.828 -3.302,10.926 -2.198,9.018 0.144,4.016 0.722,1.808"
       id="path550" />
  </g>
  <g
     id="g556"
     transform="translate(-111.076,-566.48901)">
    <path
       fill="none"
       stroke="#000000"
       stroke-width="4"
       stroke-linecap="round"
       stroke-linejoin="round"
       d="m -223.018,637.034 -0.051,-0.785 0.12,1.317 -2.076,7.165 -2.657,7.957 -0.33,2.313 0.067,2.496"
       id="path554" />
  </g>
  <g
     id="g560"
     transform="translate(-111.076,-566.48901)">
    <path
       fill="none"
       stroke="#000000"
       stroke-width="4"
       stroke-linecap="round"
       stroke-linejoin="round"
       d="m -205.271,627.848 -0.245,0.347 -0.057,-0.199 1.676,-2.93 2.634,-3.016 0.804,0.197 1.982,2.572 1.472,4.016 0.598,3.797 0.017,11.861 0.505,4.761 1.252,3.157 4.216,4.393 3.463,1.683 3.233,0.051 3.981,-1.309 3.557,-2.014 1.031,-1.043"
       id="path558" />
  </g>
  <g
     id="g564"
     transform="translate(-111.076,-566.48901)">
    <path
       fill="none"
       stroke="#000000"
       stroke-width="4"
       stroke-linecap="round"
       stroke-linejoin="round"
       d="m -203.67,652.395 -0.873,0.079 -0.509,0.598 0.784,0.178 2.284,-2.193 8.864,-7.097 10.765,-7.723 8.034,-5.413 3.485,-1.636"
       id="path562" />
  </g>
  <g
     id="g568"
     transform="translate(-111.076,-566.48901)">
    <path
       fill="none"
       stroke="#000000"
       stroke-width="4"
       stroke-linecap="round"
       stroke-linejoin="round"
       d="m -555.467,574.339 0.85,-1.481 -0.404,0.515 -2.713,-0.597 -2.257,0.513 -2.899,1.596 -5.896,5.909 -5.742,7.702 -1.921,4.023 -3.791,5.354 -1.355,3.579 -4.512,7.601 -0.76,2.889 -0.14,2.565 -1.917,8.051 0.755,7.87 1.309,5.405 2.627,7.139 0.575,2.459 1.229,2.527 0.463,2.517 0.65,1.257 1.078,0.904 0.655,0.151 2.217,2.97 1.639,1.246 0.725,0.171 4.625,3.756 4.651,1.38 7.755,4.094 5.133,1.504 15.04,0.745 1.46,-0.378 6.644,-0.357 18.466,0.698 1.259,-0.22 2.534,0.194 1.225,-0.378 8.811,1.398 10.323,-0.411 17.547,-1.635 5.205,0.001 4.612,0.397 5.649,-0.025 0.979,-0.382 1.336,0.277 5.173,0.112 1.561,-0.265 1.857,0.281 1.3,-0.219 1.127,-0.64 13.865,-1.923 5.615,0.447 1.027,0.695 0.835,-0.054 5.44,1.318 4.661,0.131 1.618,-0.381 -0.788,0.017 -0.076,-0.325 0.017,0.315 -0.194,-0.075 0.27,0.214 1.034,-0.103 7.765,-1.151 2.065,-0.648 4.143,-0.405 4.718,0.57 3.457,0.891 4.484,0.251 2.03,0.524 4.736,-0.193 9.485,0.551 7.583,1.426 8.083,2.659 4.452,0.875 10.692,1.512 1.849,-0.114 3.654,0.494 1.715,-0.368 0.838,0.379 14.799,2.088 12.032,0.507 11.063,-0.096 1.514,0.393 1.897,-0.165 0.915,0.309 6.997,0.589 7.002,0.008 5.905,-1.166 10.413,-0.803 1.767,-0.414 3.263,0.274 1.512,-0.273 8.672,0.976 21.034,-0.054 4.841,0.42 1.197,0.404 2.069,0.082 0.838,0.409 10.837,0.349 12.427,-1.041 6.6,-0.051 7.186,-1.654 7.885,-3.29 3.703,-1.926 3.367,-2.631 4.151,-2.23 4.703,-3.417 1.654,-2.515 2.41,-2.708 4.367,-7.068 1.907,-8.525 -0.031,-4.168 -0.69,-3.756 -2.538,-6.354 -2.302,-4.562 -1.984,-3.048 -2.728,-3.016 -0.906,-1.479 -3.181,-3.282 -2.145,-1.706 -0.966,-1.386 -6.763,-4.495 -1.394,-0.499 -3.177,-1.981 -1.231,-0.275 -0.58,-0.619 -12.226,-7.518 -10.4,-4.045 -7.523,-3.581 -8.343,-2.408 -4.031,-0.398 -6.48,-1.397 -1.36,0.081 -13.269,-2.031 -7.621,-1.682 -2.797,0.28 -0.885,-0.392 -9.153,-1.38 -2.304,-0.075 -5.822,-1.14 -11.757,-1.371 -8.923,-0.511 -1.125,-0.527 -1.037,0.228 -2,-0.188 -9.273,-1.99 -6.213,-0.546 -12.106,0.404 -1.036,-0.601 -4.675,-1.043 -6.987,-0.184 -1.224,-0.281 -2.15,0.408 -12.409,0.905 -4.641,-0.154 -11.289,0.856 -2.212,0.534 -2.067,-0.04 -2.417,0.47 -6.208,-0.538 -10.955,0.067 -4.9,-0.573 -3.268,0.019 -4.423,0.761 -7.631,0.154 -6.743,0.783 -4.582,-0.734 -3.172,-0.043 -13.205,2.175 -27.854,2.431 -8.708,-0.732 -14.507,0.048 -3.928,-0.366 -3.552,0.128 -6.433,1.028 -7.144,0.324 -3.232,-0.667 -10.27,-0.132 -2.465,-0.597 -2.344,-0.065 0.348,-0.185 -0.902,0.451 -4.265,0.763 -2.222,-0.589 -6.836,-0.409 -0.253,-0.329 -2.319,-0.271 -0.365,-0.37 -5.686,-0.795 -5.334,0.029 -3.21,0.787 -2.959,2.25 0.13,-0.289 -1.536,0.204 -5.569,2.137 -3.641,3.908 -1.021,2.209"
       id="path566" />
  </g>
  <g
     id="g572"
     transform="translate(-111.076,-566.48901)">
    <path
       fill="none"
       stroke="#000000"
       stroke-width="4"
       stroke-linecap="round"
       stroke-linejoin="round"
       d="m -475.769,713.283 -0.732,-0.563 0.819,-1.95 2.164,-1.553 2.492,-0.897 3.546,-0.572 4.512,0.071 4.011,1.251 1.572,1.691 0.661,2.351 -0.107,2.693 -2.301,5.755 -5.245,6.853 -4.034,3.403 -9.816,5.864 -0.402,0.364 0.193,0.494 0.936,-0.835 0.019,0.313 2.858,0.88 6.48,0.432 11.243,-0.645 2.382,-0.465 11.116,0.528"
       id="path570" />
  </g>
  <g
     id="g576"
     transform="translate(-111.076,-566.48901)">
    <path
       fill="none"
       stroke="#000000"
       stroke-width="4"
       stroke-linecap="round"
       stroke-linejoin="round"
       d="m -443.089,705.357 0.141,-0.639 -0.38,0.319 0.344,0.02 -0.34,-0.434 -0.134,0.226 0.381,-0.138 0.181,-0.605 0.182,0.345 0.085,-0.209 -0.219,0.561 0.387,0.351 -0.109,0.284 0.092,-0.213 6.564,3.465 4.766,0.824 0.727,0.569 0.098,-0.311 -0.082,0.336 -0.662,-0.291 -0.119,-0.926"
       id="path574" />
  </g>
  <g
     id="g580"
     transform="translate(-111.076,-566.48901)">
    <path
       fill="none"
       stroke="#000000"
       stroke-width="4"
       stroke-linecap="round"
       stroke-linejoin="round"
       d="m -427.377,702.948 0.161,-0.22 0.082,0.218 0.619,-1.505 -0.122,1.462 -4.643,10.084 -2.856,5.216 -0.891,1.18 -0.194,-0.204"
       id="path578" />
  </g>
  <g
     id="g584"
     transform="translate(-111.076,-566.48901)">
    <path
       fill="none"
       stroke="#000000"
       stroke-width="4"
       stroke-linecap="round"
       stroke-linejoin="round"
       d="m -511.073,718.582 -1.76,-0.02 1.131,0.07 0.057,-0.321 0.16,0.262 0.445,-0.298 6.178,-0.056 3.087,0.292 2.991,0.806"
       id="path582" />
  </g>
  <g
     id="g588"
     transform="translate(-111.076,-566.48901)">
    <path
       fill="none"
       stroke="#000000"
       stroke-width="4"
       stroke-linecap="round"
       stroke-linejoin="round"
       d="m -359.415,705.337 -0.982,-0.66 -0.38,-1.404 -3.149,-1.554 -2.077,-0.162 -3.151,3.449 -2.117,4.478 -0.63,3.563 -0.05,3.395 1.782,13.873 0.32,7.115 0.609,1.167 0.313,0.248 0.088,-0.234"
       id="path586" />
  </g>
  <g
     id="g592"
     transform="translate(-111.076,-566.48901)">
    <path
       fill="none"
       stroke="#000000"
       stroke-width="4"
       stroke-linecap="round"
       stroke-linejoin="round"
       d="m -375.322,726.776 -1.297,-2.365 0.04,-0.331 0.555,-0.125 1.156,0.894 5.956,1.037 5.947,0.564"
       id="path590" />
  </g>
  <g
     id="g596"
     transform="translate(-111.076,-566.48901)">
    <path
       fill="none"
       stroke="#000000"
       stroke-width="4"
       stroke-linecap="round"
       stroke-linejoin="round"
       d="m -345.222,725.158 -1.68,0.316 -2.389,1.076 0.23,0.314 0.578,-0.076 0.014,0.245 -0.917,4.636 -0.094,2.379 0.507,1.784 0.906,0.585 1.221,0.201 2.245,-0.547 3.176,-2.519 0.953,-1.748 0.072,-1.509 -1.537,-1.426 -5.191,-2.917 -2.046,-0.244 -3.535,2.88 -0.859,1.564 0.123,1.213 1.103,1.583 2.505,1.514 2.339,0.351"
       id="path594" />
  </g>
  <g
     id="g600"
     transform="translate(-111.076,-566.48901)">
    <path
       fill="none"
       stroke="#000000"
       stroke-width="4"
       stroke-linecap="round"
       stroke-linejoin="round"
       d="m -325.599,721.824 0.116,-1.608 0.537,-0.382 0.138,1.014 -1.61,5.676 -2.574,5.428 -2.377,4.159"
       id="path598" />
  </g>
  <g
     id="g604"
     transform="translate(-111.076,-566.48901)">
    <path
       fill="none"
       stroke="#000000"
       stroke-width="4"
       stroke-linecap="round"
       stroke-linejoin="round"
       d="m -324.653,729.89 -0.16,-0.957 0.577,-0.726 3.475,-2.76 4.865,-2.726"
       id="path602" />
  </g>
  <g
     id="g608"
     transform="translate(-111.076,-566.48901)">
    <path
       fill="none"
       stroke="#000000"
       stroke-width="4"
       stroke-linecap="round"
       stroke-linejoin="round"
       d="m -145.498,720.42 -0.47,-0.033 -0.152,-0.584 0.372,-0.053 0.887,1.385 7.436,7.506 2.396,1.135 2.987,0.477 0.215,-0.102 -0.814,-0.357"
       id="path606" />
  </g>
  <g
     id="g612"
     transform="translate(-111.076,-566.48901)">
    <path
       fill="none"
       stroke="#000000"
       stroke-width="4"
       stroke-linecap="round"
       stroke-linejoin="round"
       d="m -128.741,723.055 0.032,-1.191 0.081,1.602 -5.484,8.988 -3.387,6.495 -0.994,2.903 -0.133,2.173 0.349,0.722"
       id="path610" />
  </g>
  <g
     id="g616"
     transform="translate(-111.076,-566.48901)">
    <path
       fill="none"
       stroke="#000000"
       stroke-width="4"
       stroke-linecap="round"
       stroke-linejoin="round"
       d="m -246.784,723.551 -2.066,0.417 -1.091,0.677 -1.536,1.569 -0.683,1.601 0.2,0.824 0.999,1.416 1.829,1.467 1.997,0.444 1.487,-0.662 1.145,-1.748 0.348,-2.534 -0.832,-2.314 -1.655,-1.702 -1.812,-0.559 -1.005,0.285 -2.355,1.533 -0.783,1.824 0.617,1.764"
       id="path614" />
  </g>
  <g
     id="g620"
     transform="translate(-111.076,-566.48901)">
    <path
       fill="none"
       stroke="#000000"
       stroke-width="4"
       stroke-linecap="round"
       stroke-linejoin="round"
       d="m -232.518,721.664 -2.813,5.356 -0.989,2.524 0.169,1.314 1.007,0.9 3.068,-0.909 5.98,-3.311 1.005,0.091 -0.815,0.765 -0.996,2.14 0.282,-0.688 0.259,0.166 6.339,-2.859 3.098,-0.423 2.575,0.078 2.652,1.172 1.634,1.826 0.031,1.818 -1.503,2.409"
       id="path618" />
  </g>
  <g
     id="g624"
     transform="translate(-111.076,-566.48901)">
    <path
       fill="none"
       stroke="#000000"
       stroke-width="4"
       stroke-linecap="round"
       stroke-linejoin="round"
       d="m -510.72,732.568 9.149,-1.302"
       id="path622" />
  </g>
  <g
     id="g628"
     transform="translate(-111.076,-566.48901)">
    <path
       fill="none"
       stroke="#000000"
       stroke-width="4"
       stroke-linecap="round"
       stroke-linejoin="round"
       d="m -189.696,733.372 -0.876,0.364 -0.332,0.699 -0.34,-0.014 -0.342,-0.4 -0.799,-0.172 -2.613,-2.279 -2.392,-3.964 -0.838,-2.977 0.003,-2.471 0.76,-2.255 2.349,-2.468 0.966,-0.158 2.558,-1.329 2.09,0.248 0.676,0.337 0.71,0.95 -0.043,2.586 -1.631,2.296 -0.882,0.742 -2.43,1.062 -0.911,-0.2 -0.06,-0.364"
       id="path626" />
  </g>
  <g
     id="g632"
     transform="translate(-111.076,-566.48901)">
    <path
       fill="none"
       stroke="#000000"
       stroke-width="4"
       stroke-linecap="round"
       stroke-linejoin="round"
       d="m -554.979,721.14 0.425,-2.658 0.654,-1.454 0.343,-0.14 -0.437,0.891 0.648,0.746 0.456,1.227 0.739,8.08 -0.276,1.871 0.253,5.824 1.222,-2.731 2.764,-4.572 1.414,-1.461 4.127,-6.009 1.894,-1.736 1.688,-0.935 1.409,-0.379 1.157,0.386 2.379,1.52 1.775,1.844 0.19,0.72 0.886,1.05 0.477,2.585 -0.117,2.594 -1.53,6.816 -0.706,1.884 1.107,0.168"
       id="path630" />
  </g>
  <g
     id="g636"
     transform="translate(-111.076,-566.48901)">
    <path
       fill="none"
       stroke="#000000"
       stroke-width="4"
       stroke-linecap="round"
       stroke-linejoin="round"
       d="m -262.13,717.102 0.752,-1.826 -0.673,-1.222 -1.428,-0.703 -2.338,-0.051 -1.163,0.147 -3.358,1.278 -2.389,1.835 -0.344,0.838 -0.007,0.785 0.805,1.555 6.736,7.28 1.867,3.089 0.482,1.23 -0.16,1.6 -1.554,2.211 -2.922,1.997 -4.583,0.467 -3.694,-0.755 -3.393,-1.168 -0.754,-0.643 0.96,-0.458"
       id="path634" />
  </g>
  <g
     id="g640"
     transform="translate(-111.076,-566.48901)">
    <path
       fill="none"
       stroke="#000000"
       stroke-width="4"
       stroke-linecap="round"
       stroke-linejoin="round"
       d="m -448.893,765.139 -2.535,-4.114 -0.529,-2.429 0.372,-10e-4 1,1.479 2.383,-0.282"
       id="path638" />
  </g>
  <g
     id="g644"
     transform="translate(-111.076,-566.48901)">
    <path
       fill="none"
       stroke="#000000"
       stroke-width="4"
       stroke-linecap="round"
       stroke-linejoin="round"
       d="m -476.57,771.642 -0.335,-0.568 -0.067,-1.769 0.515,-1.008 0.569,0.445 1.207,5.969 0.352,6.307 -0.582,9.157 0.417,2.825 0.707,1.216"
       id="path642" />
  </g>
  <g
     id="g648"
     transform="translate(-111.076,-566.48901)">
    <path
       fill="none"
       stroke="#000000"
       stroke-width="4"
       stroke-linecap="round"
       stroke-linejoin="round"
       d="m -474.535,781.763 0.466,-0.083 0.182,1.103 0.637,-0.513 1.225,-0.144 0.787,-0.768 14.226,-7.533"
       id="path646" />
  </g>
  <g
     id="g652"
     transform="translate(-111.076,-566.48901)">
    <path
       fill="none"
       stroke="#000000"
       stroke-width="4"
       stroke-linecap="round"
       stroke-linejoin="round"
       d="m -451.928,778.549 -0.082,-0.796 0.679,0.717 0.744,7.726 0.58,3.517 0.286,0.351"
       id="path650" />
  </g>
  <g
     id="g656"
     transform="translate(-111.076,-566.48901)">
    <path
       fill="none"
       stroke="#000000"
       stroke-width="4"
       stroke-linecap="round"
       stroke-linejoin="round"
       d="m -377.384,794.443 0.07,-1.123 0.471,-0.955 -0.024,1.204 -0.249,0.238 -2.12,-1.229 -6.39,-1.588 -2.642,-1.756 -1.902,-2.628 -1.109,-2.748 -0.594,-3.045 -0.07,-1.839 0.585,-2.946 2.254,-3.991 2.147,-1.855 1.544,-0.592 1.765,-0.213 0.662,-0.412 1.654,0.698 0.88,1.226 0.81,2.063 0.061,1.696 -0.232,1.093 -1.812,2.263 -2.455,1.574 -1.335,0.309 -3.267,-0.245 -0.794,0.318 -0.835,-0.131 -0.064,0.58"
       id="path654" />
  </g>
  <g
     id="g680"
     transform="translate(-111.076,-566.48901)">
    <path
       fill="none"
       stroke="#000000"
       stroke-width="4"
       stroke-linecap="round"
       stroke-linejoin="round"
       d="m -434.865,779.417 -0.389,-0.142 -0.042,-0.733 0.669,-1.997 0.67,-0.332 0.172,0.208 -0.357,0.681 0.842,3.616 -0.557,11.014 0.112,-0.665 0.358,0.305 2.959,-4.201 2,-3.479 2.334,-3.088 2.316,-2.115 0.472,0.073 0.844,-0.649 0.492,-0.023 -0.288,0.294 1.958,1.183 0.742,1.763 -0.262,6.746 -0.401,1.624 0.702,-1.267 2.141,-1.721 3.37,-3.462 2.494,-1.079 0.869,0.308 0.878,1.859 0.885,4.778 0.355,6.188 -0.341,3.32"
       id="path678" />
  </g>
  <g
     id="g708"
     transform="translate(-111.076,-566.48901)">
    <path
       fill="none"
       stroke="#000000"
       stroke-width="4"
       stroke-linecap="round"
       stroke-linejoin="round"
       d="m -506.071,777.973 -1.447,-2.509 -0.119,0.294 0.522,0.244 0.103,-0.246 0.245,0.651 -0.106,11.835 -0.657,10.438 0.208,8.268 -0.688,1.017 0.014,-0.373 0.326,0.21 0.04,-0.355 -0.077,0.213 -1.57,-1.864 -1.242,-2.741 -0.787,-3.926 -0.303,-4.877 0.992,-8.916 1.376,-5.994 1.494,-4.095 1.522,-2.651 2.33,-2.806 3.588,-2.484 2.133,-0.742 4.232,0.568 1.433,2.221 0.028,3.854 -1.387,3.345 -3.233,3.901 -2.021,1.501 -5.859,3.346 -2.281,1.657 -0.674,0.87"
       id="path706" />
  </g>
  <g
     id="g712"
     transform="translate(-111.076,-566.48901)">
    <path
       fill="none"
       stroke="#000000"
       stroke-width="4"
       stroke-linecap="round"
       stroke-linejoin="round"
       d="m -541.881,773.972 1.591,-1.681 0.157,1.122 -0.46,0.538 -1.899,-0.659 -2.793,0.309 -2.194,0.985 -2.429,1.587 -2.128,2.246 -1.393,2.182 -0.672,3.598 0.398,4.603 0.632,1.878 1.514,1.939 2.454,1.17 1.609,0.252 1.619,0.008 2.977,-1.031 2.618,-3.206 1.053,-2.336 1.478,-4.962 0.248,-5.56 -0.754,-4.548 -0.272,-0.606 0.211,1.641 -1.678,3.327 -2.071,7.152 -0.946,4.905 -1.058,8.638 -0.076,7.398 0.543,4.103 0.964,3.4 1.706,2.587"
       id="path710" />
  </g>
  <g
     id="g716"
     transform="translate(-111.076,-566.48901)">
    <path
       fill="none"
       stroke="#000000"
       stroke-width="4"
       stroke-linecap="round"
       stroke-linejoin="round"
       d="m -551.522,858.458 0.677,0.156 0.456,1.489 0.313,-0.326 -0.121,0.302 0.306,0.015 0.124,-0.355 -0.19,-4.974 0.446,-3.94 3.018,-10.036 1.13,-5.746 1.148,-2.772 0.883,-3.528 2.088,-4.282 1.912,-2.652 1.712,-3.12 0.516,-0.18 0.41,-0.633 3.027,-0.879 2.449,0.859 0.684,0.52 1.096,1.284 0.72,1.959 0.379,3.851 -0.128,1.694 -0.896,3.102 -1.59,2.808 -1.278,1.248 -4.627,2.869 -0.61,0.655 -1.75,0.666 -2.416,0.026 -0.358,-0.504 0.453,0.301 0.119,-0.28 -0.028,0.511 0.449,0.068 1.614,1.635 3.845,5.174 1.09,1.028 0.732,1.375 3.968,4.7 2.536,4.025 0.294,0.642 -0.326,0.189 -0.089,-0.388 -0.086,0.259 -0.393,-0.274 -0.183,-0.72"
       id="path714" />
  </g>
  <g
     id="g724"
     transform="translate(-111.076,-566.48901)">
    <path
       fill="none"
       stroke="#000000"
       stroke-width="4"
       stroke-linecap="round"
       stroke-linejoin="round"
       d="m -353.9,815.788 -0.354,-0.605 -0.157,0.294 -2.912,17.429 -2.589,13.148 -3.198,14.037 -0.003,2.396 0.467,0.329 0.187,-0.92 -0.263,-0.054 0.357,0.768 0.337,-0.436 7.521,-1.722 1.751,-0.747 4.322,-1.039 3.272,-1.419"
       id="path722" />
  </g>
  <g
     id="g728"
     transform="translate(-111.076,-566.48901)">
    <path
       fill="none"
       stroke="#000000"
       stroke-width="4"
       stroke-linecap="round"
       stroke-linejoin="round"
       d="m -355.57,815.669 -1.556,-0.857 -0.366,-0.511 -0.159,0.205 1.079,0.677 1.469,-0.408 5.52,0.011 6.167,0.715 4.453,1.218"
       id="path726" />
  </g>
  <g
     id="g732"
     transform="translate(-111.076,-566.48901)">
    <path
       fill="none"
       stroke="#000000"
       stroke-width="4"
       stroke-linecap="round"
       stroke-linejoin="round"
       d="m -336.954,855.779 -0.516,0.337 0.72,-0.085 5.416,-3.794 5.899,-3.578 9.645,-4.831 3.688,-2.247"
       id="path730" />
  </g>
  <g
     id="g736"
     transform="translate(-111.076,-566.48901)">
    <path
       fill="none"
       stroke="#000000"
       stroke-width="4"
       stroke-linecap="round"
       stroke-linejoin="round"
       d="m -327.206,839.213 -0.856,-0.571 0.895,1.149 0.897,2.442 1.974,3.764 8.706,11.872"
       id="path734" />
  </g>
  <g
     id="g740"
     transform="translate(-111.076,-566.48901)">
    <path
       fill="none"
       stroke="#000000"
       stroke-width="4"
       stroke-linecap="round"
       stroke-linejoin="round"
       d="m -308.815,817.114 -1.228,-0.373 0.538,0.664 0.824,-0.471 1.395,0.64 4.342,0.784 4.409,-0.239 0.523,-0.211 -0.124,-0.521 -0.589,0.363 -0.159,-0.173 -0.06,0.323 0.454,0.048 -0.446,-0.032 -0.226,0.521 0.033,5.762 2.735,26.151 0.22,4.627 -0.339,8.825 -0.254,1.614 -0.297,0.127 0.303,0.189 -0.386,0.578 -0.156,-0.148 0.053,0.425 -0.336,-0.226 -4.382,0.843 -9.618,2.745 -0.441,-0.059 0.154,-0.906 -0.71,0.063"
       id="path738" />
  </g>
  <g
     id="g744"
     transform="translate(-111.076,-566.48901)">
    <path
       fill="none"
       stroke="#000000"
       stroke-width="4"
       stroke-linecap="round"
       stroke-linejoin="round"
       d="m -255.064,818.551 0.621,-2.096 -0.077,1.39 -5.491,15.127 -1.6,5.926 -5.742,26.034 -0.287,2.68 0.284,-0.716 -0.172,-0.807 1.793,-3.849"
       id="path742" />
  </g>
  <g
     id="g748"
     transform="translate(-111.076,-566.48901)">
    <path
       fill="none"
       stroke="#000000"
       stroke-width="4"
       stroke-linecap="round"
       stroke-linejoin="round"
       d="m -474.469,831.94 -0.878,-1.351 -0.093,0.419 0.188,-0.27 0.073,0.187 -0.286,0.105 0.311,0.191 0.392,-0.053 -0.099,-0.27 0.169,0.228 0.068,-0.457 0.296,0.52 0.574,-0.127 0.664,0.299 3.796,-0.834 4.848,-0.36 2.039,0.342 0.173,0.389 0.412,-0.182 0.076,-0.6 -0.606,0.29 -0.313,-0.297"
       id="path746" />
  </g>
  <g
     id="g752"
     transform="translate(-111.076,-566.48901)">
    <path
       fill="none"
       stroke="#000000"
       stroke-width="4"
       stroke-linecap="round"
       stroke-linejoin="round"
       d="m -161.058,820.63 -0.701,4.573 -0.073,2.076 0.314,1.288 4.414,-1.363 5.427,-3.074 1.613,2.15 0.986,2.208 0.655,6.298"
       id="path750" />
  </g>
  <g
     id="g756"
     transform="translate(-111.076,-566.48901)">
    <path
       fill="none"
       stroke="#000000"
       stroke-width="4"
       stroke-linecap="round"
       stroke-linejoin="round"
       d="m -238.471,843.458 0.463,0.913 0.065,-0.465 0.594,0.056 2.647,-1.491 4.838,-4.014 2.329,-1.327 4.433,-3.52 7.718,-4.336 7.8,-2.853 1.057,-0.577 -0.493,-0.413"
       id="path754" />
  </g>
  <g
     id="g760"
     transform="translate(-111.076,-566.48901)">
    <path
       fill="none"
       stroke="#000000"
       stroke-width="4"
       stroke-linecap="round"
       stroke-linejoin="round"
       d="m -237.372,845.041 -0.98,0.095 -0.167,0.413 0.792,-0.096 12.695,10.698 8.988,9.853 0.86,0.329"
       id="path758" />
  </g>
  <g
     id="g764"
     transform="translate(-111.076,-566.48901)">
    <path
       fill="none"
       stroke="#000000"
       stroke-width="4"
       stroke-linecap="round"
       stroke-linejoin="round"
       d="m -200.21,859.886 -1.431,0.117 0.346,0.395 0.373,-0.318 0.495,0.261 0.035,-0.459 0.553,-0.261 2.816,-3.123 5.355,-4.337 3.696,-2.505 8.563,-4.697 4.095,-1.41 2.211,-1.1 0.43,-1.029"
       id="path762" />
  </g>
  <g
     id="g768"
     transform="translate(-111.076,-566.48901)">
    <path
       fill="none"
       stroke="#000000"
       stroke-width="4"
       stroke-linecap="round"
       stroke-linejoin="round"
       d="m -192.838,839.25 -1.794,-1.711 1.09,1.508 3.694,7.582 3.79,5.575 3.215,3.912 4.261,5.957 2.638,5.675"
       id="path766" />
  </g>
  <g
     id="g772"
     transform="translate(-111.076,-566.48901)">
    <path
       fill="none"
       stroke="#000000"
       stroke-width="4"
       stroke-linecap="round"
       stroke-linejoin="round"
       d="m -473.072,845.69 -0.359,0.033 0.183,0.435 1.076,0.41 0.06,-0.239 4.996,0.825 4.105,0.26 4.258,-0.108 -0.099,0.346 -0.303,-0.228 0.296,0.144 -0.137,0.179 -0.998,-0.282"
       id="path770" />
  </g>
  <g
     id="g776"
     transform="translate(-111.076,-566.48901)">
    <path
       fill="none"
       stroke="#000000"
       stroke-width="4"
       stroke-linecap="round"
       stroke-linejoin="round"
       d="m -136.149,839.781 0.589,-2.315 0.258,10e-4 -0.175,1.435 1.271,6.107 0.222,3.05 -0.359,5.258 -1.199,5.278"
       id="path774" />
  </g>
  <g
     id="g780"
     transform="translate(-111.076,-566.48901)">
    <path
       fill="none"
       stroke="#000000"
       stroke-width="4"
       stroke-linecap="round"
       stroke-linejoin="round"
       d="m -137.306,851.549 -0.38,-0.586 0.461,0.572 1.677,0.039 9.591,-0.919 3.452,0.191"
       id="path778" />
  </g>
  <g
     id="g784"
     transform="translate(-111.076,-566.48901)">
    <path
       fill="none"
       stroke="#000000"
       stroke-width="4"
       stroke-linecap="round"
       stroke-linejoin="round"
       d="m -428.309,814.759 -1.65,-0.474 -0.313,0.177 0.601,0.209 0.097,0.368 0.048,-0.578 0.612,1.05 1.025,0.134 3.414,1.435 5.086,1.163 11.862,1.716 1.627,0.676 2.55,0.295 0.85,0.602 1.541,0.325 0.415,0.708 0.903,0.018 0.058,-0.326 -0.241,0.007 0.312,0.177 0.006,-0.404 -0.101,0.447 -0.398,0.023 0.016,0.453 -1.789,0.684 -2.579,1.534 -8.316,6.92 -6.71,6.119 -7.277,7.849 -4.962,4.567 -8.253,5.748 0.882,-0.252 -0.643,0.465 0.157,-0.455 2.936,2.16 3.629,1.599 4.889,1.134 9.803,0.749 12.112,-0.164 1.908,0.361 -0.13,0.588 -0.598,-0.34 0.312,-0.222 -0.299,-0.11 0.02,-0.403"
       id="path782" />
  </g>
  <g
     id="g788"
     transform="translate(-111.076,-566.48901)">
    <path
       fill="none"
       stroke="#000000"
       stroke-width="4"
       stroke-linecap="round"
       stroke-linejoin="round"
       d="m -442.86,851.081 -0.02,1.696 -1.166,0.381 -1.489,-0.219 0.427,0.232 0.011,-0.39 0.291,0.178 1.241,-0.934 6.115,-5.36 4.17,-4.888 7.738,-10.28 5.207,-5.712 2.861,-2.832 1.327,-0.764 4.767,-4.204 3.224,-2.2 0.56,-0.571 0.017,-0.404 -0.165,0.34 -0.05,-0.22 -0.186,1.072 -0.166,-0.436 -0.24,0.256 -0.234,-0.307 -0.233,0.187"
       id="path786" />
  </g>
  <g
     id="g792"
     transform="translate(-111.076,-566.48901)">
    <path
       fill="none"
       stroke="#000000"
       stroke-width="4"
       stroke-linecap="round"
       stroke-linejoin="round"
       d="m -102.625,851.092 0.492,0.611 3.0296,-1.442 6.3787,-4.483 5.8668,-6.001 3.0759,-4.276 1.6275,-3.506 -0.6761,0.725 0.3335,1.083 -0.3241,5.947 -2.1426,14.676 0.0842,3.547 1.0955,3.488"
       id="path790" />
  </g>
  <g
     id="g796"
     transform="translate(-111.076,-566.48901)">
    <path
       fill="none"
       stroke="#000000"
       stroke-width="4"
       stroke-linecap="round"
       stroke-linejoin="round"
       d="m -57.5842,829.98 -1.1051,-0.789 -0.5534,0.139 0.4885,0.129 0.1707,-0.265 0.3034,0.802 0.2268,-0.238 10.1107,6.346 6.7651,3.639 4.8864,3.043 -0.4368,-0.535 -0.6699,0.004 0.1432,0.524 -2.2998,2.586 -5.2949,4.485 -11.6652,8.986 -4.5691,2.934 -3.0563,2.443"
       id="path794" />
  </g>
  <g
     id="g800"
     transform="translate(-111.076,-566.48901)">
    <path
       fill="none"
       stroke="#000000"
       stroke-width="4"
       stroke-linecap="round"
       stroke-linejoin="round"
       d="m -508.084,850.279 1.147,-3.739 -0.768,-0.096 -0.706,-0.698 -1.774,0.342 -2.179,0.963 -2.182,2.147 -1.216,1.943 -0.568,3.261 0.602,3.292 1.631,3.032 1.986,1.549 1.1,0.005 0.576,-0.366 1.729,-2.187 2.783,-6.495 1.381,-5.256 0.304,-3.528 -0.056,0.999 -0.319,0.406 -0.497,11.288 -0.662,7.41 -1.4,8.298"
       id="path798" />
  </g>
  <g
     id="g804"
     transform="translate(-111.076,-566.48901)">
    <path
       fill="none"
       stroke="#000000"
       stroke-width="4"
       stroke-linecap="round"
       stroke-linejoin="round"
       d="m -386.01,852.089 0.44,-1.504 -0.636,-0.489 -2.772,1.185 -1.393,2.229 -0.833,3.827 0.507,3.917 0.922,1.71 0.464,0.558 1.396,0.528 1.142,-0.481 3.222,-4.001 1.588,-2.583 4.454,-10.393 -0.877,1.975 -4.125,22.547 -0.201,2.374 0.198,1.711 0.352,0.393"
       id="path802" />
  </g>
  <g
     id="g808"
     transform="translate(-111.076,-566.48901)">
    <path
       fill="none"
       stroke="#000000"
       stroke-width="4"
       stroke-linecap="round"
       stroke-linejoin="round"
       d="m -549.511,894.485 -0.331,-1.585 -0.42,-0.351 0.431,0.081 -0.238,0.194 1.86,10.815 0.665,12.198 1.007,2.778 0.436,3.183"
       id="path806" />
  </g>
  <g
     id="g812"
     transform="translate(-111.076,-566.48901)">
    <path
       fill="none"
       stroke="#000000"
       stroke-width="4"
       stroke-linecap="round"
       stroke-linejoin="round"
       d="m -552.978,895.333 -1.461,-0.41 0.222,0.357 0.56,-0.109 0.202,-0.85 2.46,-2.043 5.607,-3.186 8.151,-2.884 6.874,-0.971"
       id="path810" />
  </g>
  <g
     id="g816"
     transform="translate(-111.076,-566.48901)">
    <path
       fill="none"
       stroke="#000000"
       stroke-width="4"
       stroke-linecap="round"
       stroke-linejoin="round"
       d="m -545.009,905.766 -2.027,0.743 1.129,-0.318 7.634,0.769 7.791,0.293"
       id="path814" />
  </g>
  <g
     id="g820"
     transform="translate(-111.076,-566.48901)">
    <path
       fill="none"
       stroke="#000000"
       stroke-width="4"
       stroke-linecap="round"
       stroke-linejoin="round"
       d="m -524.373,912.522 -1.291,-0.334 -2.263,0.398 -0.425,0.434 0.717,0.731 1.457,3.244 1.971,2.574 2.638,2.274 2.033,0.908 2.242,-0.685 2.412,-2.502 1.313,-2.027 1.584,-4.803 0.064,-2.052 -0.513,-2.028 -1.768,-1.841 -3.424,-1.601 -2.512,-0.318 -3.362,0.982 -1.77,1.794 -0.61,3.209 1.238,2.305 1.262,1.256 1.667,1.032 1.872,0.874 1.363,0.238"
       id="path818" />
  </g>
  <g
     id="g824"
     transform="translate(-111.076,-566.48901)">
    <path
       fill="none"
       stroke="#000000"
       stroke-width="4"
       stroke-linecap="round"
       stroke-linejoin="round"
       d="m -505.317,905.452 -0.35,-1.862 0.117,-0.522 0.172,0.444 -0.083,0.917 1.35,5.365 0.605,8.953 1.012,3.943"
       id="path822" />
  </g>
  <g
     id="g828"
     transform="translate(-111.076,-566.48901)">
    <path
       fill="none"
       stroke="#000000"
       stroke-width="4"
       stroke-linecap="round"
       stroke-linejoin="round"
       d="m -497.839,914.26 0.402,-3.682 0.836,-0.816 3.562,-1.766 3.511,-0.928"
       id="path826" />
  </g>
  <g
     id="g832"
     transform="translate(-111.076,-566.48901)">
    <path
       fill="none"
       stroke="#000000"
       stroke-width="4"
       stroke-linecap="round"
       stroke-linejoin="round"
       d="m -436.324,906.727 0.529,-2.645 -0.045,-1.757 -0.799,-1.606 -0.591,-0.451 -1.607,-0.242 -2.274,0.595 -2.551,1.975 -2.635,3.14 -1.546,4.054 0.185,3.565 0.752,2.097 1.018,1.263 1.52,1.111 1.41,-0.052 1.385,-0.613 3.391,-3.021 2.094,-2.866 1.148,-2.839 0.316,-2.403 -0.791,-3.307 -0.681,-0.998 -0.435,-0.126 0.88,1.361 1.536,4.179 1.941,3.744 1.634,2.239 2.255,2.232"
       id="path830" />
  </g>
  <g
     id="g836"
     transform="translate(-111.076,-566.48901)">
    <path
       fill="none"
       stroke="#000000"
       stroke-width="4"
       stroke-linecap="round"
       stroke-linejoin="round"
       d="m -419.674,905.778 -0.586,-1.083 0.048,0.91 -2.236,7.725 -0.127,2.254 0.541,1.55 0.719,-0.107 0.75,-1.07 5.156,-4.158 4.412,-3.049 3.277,-1.052 1.269,0.365 0.698,1.323 0.504,5.975 0.987,2.545"
       id="path834" />
  </g>
  <g
     id="g840"
     transform="translate(-111.076,-566.48901)">
    <path
       fill="none"
       stroke="#000000"
       stroke-width="4"
       stroke-linecap="round"
       stroke-linejoin="round"
       d="m -401.644,909.444 -1.822,-1.794 0.622,0.596 0.101,0.531 0.975,0.173 0.734,0.547 7.899,2.894 3.796,1.723 1.28,0.271"
       id="path838" />
  </g>
  <g
     id="g844"
     transform="translate(-111.076,-566.48901)">
    <path
       fill="none"
       stroke="#000000"
       stroke-width="4"
       stroke-linecap="round"
       stroke-linejoin="round"
       d="m -384.914,905.827 -1.673,0.158 -3.322,4.033 -5.402,10.491 -2.546,8.708 -0.089,3.606 1.026,1.806"
       id="path842" />
  </g>
  <g
     id="g848"
     transform="translate(-111.076,-566.48901)">
    <path
       fill="none"
       stroke="#000000"
       stroke-width="4"
       stroke-linecap="round"
       stroke-linejoin="round"
       d="m -285.948,905.588 0.467,-1.737 -0.925,0.025 -2.356,-0.767 -2.914,0.365 -2.819,1.395 -3.5,2.568 -4.269,4.237 -1.811,3.199 -0.572,3.256 0.463,2.797 0.965,2.292 3.508,4.11 3.033,1.125 1.924,0.254 1.281,-0.21 2.226,0.451 3.383,-0.254 2.664,-0.781"
       id="path846" />
  </g>
  <g
     id="g852"
     transform="translate(-111.076,-566.48901)">
    <path
       fill="none"
       stroke="#000000"
       stroke-width="4"
       stroke-linecap="round"
       stroke-linejoin="round"
       d="m -300.954,919.984 -1.268,-1.733 -0.603,-2.593 0.934,0.832 5.281,0.044 4.609,0.95 3.044,0.983 3.169,1.681"
       id="path850" />
  </g>
  <g
     id="g856"
     transform="translate(-111.076,-566.48901)">
    <path
       fill="none"
       stroke="#000000"
       stroke-width="4"
       stroke-linecap="round"
       stroke-linejoin="round"
       d="m -317.206,897.868 -0.478,-0.738 0.109,-0.308 -3.79,-1.515 -0.707,0.175 -2.553,-0.78 -1.423,0.344 -0.821,-0.272 -2.523,1.498 -2.777,2.483 -1.718,2.572 -0.009,1.999 0.999,2.507 2.062,3.266 5.511,7.354 0.974,1.89 0.225,2.215 -0.464,1.597 -1.086,1.833 -1.848,1.363 -1.325,0.316 -2.19,0.163 -3.57,-0.623 -6.62,-4.111 -0.368,-1.129 0.722,0.725 3.139,0.56"
       id="path854" />
  </g>
  <g
     id="g860"
     transform="translate(-111.076,-566.48901)">
    <path
       fill="none"
       stroke="#000000"
       stroke-width="4"
       stroke-linecap="round"
       stroke-linejoin="round"
       d="m -236.906,931.402 0.004,2.146 -1.119,-1.613 -0.685,-0.31 -1.827,-3.072 -1.264,-4.453 -0.407,-8.06 0.369,-5.291 0.728,-4.395 1.391,-4.694 2.446,-5.445 2.257,-3.714 2.866,-3.561 1.138,-0.942 0.674,-0.388 2.038,0.016 1.784,0.977 1.042,1.192 0.6,0.943 0.526,1.965 0.035,3.547 -1.737,6.34 -1.96,3.932 -1.852,2.218 -2.544,2.047 -2.918,1.218 -1.325,0.029 0.175,0.139 0.101,-0.283 1.233,1.156 3.323,3.84 6.452,6.265 5.737,6.196 3.032,3.902 2.65,4.641 0.724,-0.803"
       id="path858" />
  </g>
  <g
     id="g864"
     transform="translate(-111.076,-566.48901)">
    <path
       fill="none"
       stroke="#000000"
       stroke-width="4"
       stroke-linecap="round"
       stroke-linejoin="round"
       d="m -191.652,920.386 1.807,-2.779 -1.236,-1.558 -1.336,-0.564 -1.946,0.296 -2.307,1.486 -2.195,2.324 -1.427,2.314 -1.291,3.129 -0.31,3.342 0.981,3.653 2.574,3.174 0.659,0.383 1.126,0.042 1.84,-0.982 3.575,-5.015 1.451,-3.613 0.691,-4.857 -0.111,-4.153 -0.786,11.539 -0.278,13.91 0.416,6.382 1.116,4.316"
       id="path862" />
  </g>
  <g
     id="g868"
     transform="translate(-111.076,-566.48901)">
    <path
       fill="none"
       stroke="#000000"
       stroke-width="4"
       stroke-linecap="round"
       stroke-linejoin="round"
       d="m -420.407,969.017 -0.365,-0.051 0.421,0.211 0.132,0.662 0.175,-0.192 -0.083,0.335 1.457,0.616 1.487,-1.838 0.303,-1.154 -0.22,-0.168 -0.863,1.588 -0.653,2.378 -0.012,0.552 1.243,1.886 1.508,-1.319 1.14,-1.512 0.57,-1.28 -0.199,-1.309 -0.842,-0.366 -3.021,0.081 -1.257,1.47 -0.661,1.751 0.082,1.563 0.618,1.195 0.651,0.082 1.234,-0.655 0.748,-1.314 -0.28,-0.171 0.051,-0.496"
       id="path866" />
  </g>
  <g
     id="g872"
     transform="translate(-111.076,-566.48901)">
    <path
       fill="none"
       stroke="#000000"
       stroke-width="4"
       stroke-linecap="round"
       stroke-linejoin="round"
       d="m -564.891,1012.65 0.61,0.84 -0.433,0.71 -0.03,1.92 0.545,0.21 0.207,-0.21 9.143,-12.22 8.495,-13.218 2.35,-4.822 6.16,-18.471 2.325,-5.095 1.472,-2.046 -0.384,0.105 0.257,-0.015 -0.095,-0.341 -0.19,5.751 1.486,10.606 3.008,14.375 2.947,17.161 1.496,5.17 0.57,0.65 0.266,-0.07 -0.608,-0.12 0.254,-0.06 0.214,0.59 -0.529,0.09 0.328,1.62 0.679,-0.21"
       id="path870" />
  </g>
  <g
     id="g876"
     transform="translate(-111.076,-566.48901)">
    <path
       fill="none"
       stroke="#000000"
       stroke-width="4"
       stroke-linecap="round"
       stroke-linejoin="round"
       d="m -546.172,995.323 -0.709,0.17 0.193,-1.305 -0.1,0.906 -0.194,-0.239 0.594,0.22 2.912,-0.327 9.906,-1.682 3.84,0.341 0.179,0.418 -0.404,0.072 0.241,-0.249 1.684,0.467 -0.106,0.27 -0.362,-0.321 -0.066,0.257 -0.525,-0.676"
       id="path874" />
  </g>
  <g
     id="g880"
     transform="translate(-111.076,-566.48901)">
    <path
       fill="none"
       stroke="#000000"
       stroke-width="4"
       stroke-linecap="round"
       stroke-linejoin="round"
       d="m -418.912,1001.04 0.241,0.83 -0.207,1.73 0.479,1.42 1.009,0.91 0.962,-0.1 1.837,-2.83 0.465,-1.68 -0.333,-1.13 -0.727,0.01 -2.856,2.02 -0.788,1.64 0.276,0.32 0.604,-0.68 0.142,0.19 1.7,-1.54 0.424,-0.78 0.081,-1.31 -0.682,-1.834"
       id="path878" />
  </g>
  <g
     id="g884"
     transform="translate(-111.076,-566.48901)">
    <path
       fill="none"
       stroke="#000000"
       stroke-width="4"
       stroke-linecap="round"
       stroke-linejoin="round"
       d="m -463,989.256 -0.356,-0.129 0.103,-0.43 0.407,0.495 0.11,-0.22 3.713,0.362 2.676,0.614 1.731,1.018 0.997,1.021 1.691,3.926 0.468,3.953 -0.309,6.734 0.773,1.35 1.26,0.95 3.998,2.55 2.218,0.02 3.271,-0.65 5.276,-1.79"
       id="path882" />
  </g>
  <g
     id="g888"
     transform="translate(-111.076,-566.48901)">
    <path
       fill="none"
       stroke="#000000"
       stroke-width="4"
       stroke-linecap="round"
       stroke-linejoin="round"
       d="m -462.86,1009.61 -0.541,0.55 0.236,0.29 0.578,-0.06 0.042,-0.27 -0.097,0.25 1.717,-0.34 3.427,-1.7 2.972,-2.21 6.321,-6.474 5.887,-5.006 0.144,-0.547 1.811,-0.747"
       id="path886" />
  </g>
  <g
     id="g892"
     transform="translate(-111.076,-566.48901)">
    <path
       fill="none"
       stroke="#000000"
       stroke-width="4"
       stroke-linecap="round"
       stroke-linejoin="round"
       d="m -497.193,995.797 1.506,-2.592 0.199,0.127 -0.019,0.33 -0.931,-0.897 -0.5,0.153 -0.429,-0.32 -2.945,-0.547 -2.213,0.574 -1.813,0.881 -1.417,1.832 1.042,2.626 1.044,1.16 5.773,4.226 2.03,2.52 -0.413,2.04 -1.197,1.61 -3.353,1.59 -3.517,0.05 -0.586,-0.49 0.326,-0.18 1.19,0.26"
       id="path890" />
  </g>
  <g
     id="g896"
     transform="translate(-111.076,-566.48901)">
    <path
       fill="none"
       stroke="#000000"
       stroke-width="4"
       stroke-linecap="round"
       stroke-linejoin="round"
       d="m -479.695,1007.76 -0.137,-0.32 0.215,0.03 -0.261,0.98 -2.269,5.65 -1.877,3.66 -1.349,4.21"
       id="path894" />
  </g>
  <g
     id="g900"
     transform="translate(-111.076,-566.48901)">
    <path
       fill="none"
       stroke="#000000"
       stroke-width="4"
       stroke-linecap="round"
       stroke-linejoin="round"
       d="m -432.823,1046.55 0.177,0.27 0.329,-0.49 0.65,-2.72 0.015,-1.34 -0.448,0.88 -1.924,-0.52 -3.027,0.62 -4.386,2.85 -7.545,6.57 -2.098,2.59 -1.314,3.85 0.054,3.4 0.627,2.41 1.61,2.57 0.659,0.17 0.628,0.95 1.867,1.45 2.519,1.15 3.931,0.83 11.12,-0.84 0.578,-0.34"
       id="path898" />
  </g>
  <g
     id="g904"
     transform="translate(-111.076,-566.48901)">
    <path
       fill="none"
       stroke="#000000"
       stroke-width="4"
       stroke-linecap="round"
       stroke-linejoin="round"
       d="m -449.683,1060.77 0.712,0.24 0.048,0.27 -0.475,0.05 0.218,-0.12 0.221,0.36 0.704,-0.09 1.082,0.41 2.161,-0.27 1.16,0.37 2.215,-0.51 1.015,0.26 2.737,-0.63 2.097,-0.05 0.162,-0.3 1.024,0.69 0.906,-0.02 -0.114,0.2 -0.134,-0.56 0.149,0.25 -0.334,0.01 0.573,0.44 2.862,0.34 0.928,0.64 0.168,0.46 -0.417,0.1"
       id="path902" />
  </g>
  <g
     id="g908"
     transform="translate(-111.076,-566.48901)">
    <path
       fill="none"
       stroke="#000000"
       stroke-width="4"
       stroke-linecap="round"
       stroke-linejoin="round"
       d="m -391.006,1073.45 -0.774,0.44 0.732,0.47 0.069,0.42 -0.068,-0.48 0.338,0.02 -0.93,-1.81 -0.342,-1.96 -0.907,-2.39 -1.564,-7.85 0.141,-8.76 6.334,-19.18 6.581,-12.02 2.034,-2.71 -0.3,0.41 0.218,0.18 1.351,0.01 4.384,0.89 1.313,0.75 2.585,0.61 0.899,0.77 1.974,0.9 1.239,1.37 0.562,1.1 0.338,4.42 -0.324,3.19 -1.291,4.55 -2.62,3.4 -2.453,1.64 -1.475,1.39 -1.518,0.47 -1.035,1.06 -2.185,1.15 -1.673,0.15 -0.28,-0.35 -2.214,-0.7 -1.92,-0.18 -0.235,0.31 -0.567,-0.38 -0.294,0.42 -0.252,-0.55 -0.378,0.47 -0.8,-0.25 -1.132,0.37 -0.179,-0.36 -0.548,0.43 -2.544,0.48 -0.582,0.42 -0.211,-0.46 -0.053,0.37 -0.479,0.18 -0.851,-0.35 0.466,0.04 0.07,0.48 0.035,-0.29 1.126,0.8 2.469,2.38 6.326,4.73 12.657,14.28 0.731,0.24 0.887,1.37 0.859,0.62 0.442,0.82 0.122,-0.17 -0.071,0.39 -0.187,-0.22 1.163,1.84 0.053,-0.51"
       id="path906" />
  </g>
  <g
     id="g912"
     transform="translate(-111.076,-566.48901)">
    <path
       fill="none"
       stroke="#000000"
       stroke-width="4"
       stroke-linecap="round"
       stroke-linejoin="round"
       d="m -481.158,1051.88 2.103,-2.11 -0.524,1.06 0.042,-0.28 0.019,0.27 -1.735,-0.57 -1.06,0.07 -0.284,0.3 -0.813,-0.31 -1.525,0.25 -0.659,0.67 -1.478,0.35 -3.173,2.03 -3.828,3.85 -1.001,1.95 -1.235,1.45 -1.014,2.8 -0.199,2.05 1.667,4.4 2.952,4.01 2.358,1.73 2.017,0.11 1.149,-0.54 1.62,-0.09 1.004,-0.95 1.224,-0.43 1.572,-1.53 2.156,-2.86 0.925,-2.59 0.187,-4.65 -0.645,-2.92 -2.33,-3.26 -0.417,-0.03 -0.269,-0.66 -0.175,0.24 -0.161,-0.33 0.053,0.21 0.242,0.12 0.117,-0.29 0.634,4.01 1.361,4.92 2.675,5.33 3.577,4.75 1.365,0.95 1.986,2.21 3.273,1.97"
       id="path910" />
  </g>
  <g
     id="g916"
     transform="translate(-111.076,-566.48901)">
    <path
       fill="none"
       stroke="#000000"
       stroke-width="4"
       stroke-linecap="round"
       stroke-linejoin="round"
       d="m -215.009,1028.55 -2.582,-5.45 -0.538,-0.5 -0.051,0.26 1.73,3.32 1.22,1.59"
       id="path914" />
  </g>
  <g
     id="g920"
     transform="translate(-111.076,-566.48901)">
    <path
       fill="none"
       stroke="#000000"
       stroke-width="4"
       stroke-linecap="round"
       stroke-linejoin="round"
       d="m -186.215,1024.36 -1.193,-2.02 -1.802,-1.51 -0.758,-0.16 -1.863,2.66 -3.216,5.82 -1.622,4.24 -1.223,4.82 -0.449,3.85 -0.058,4.89 0.245,4 1.248,8.01 0.914,2.39 1.057,1.39 1.279,0.46 1.194,-0.51"
       id="path918" />
  </g>
  <g
     id="g924"
     transform="translate(-111.076,-566.48901)">
    <path
       fill="none"
       stroke="#000000"
       stroke-width="4"
       stroke-linecap="round"
       stroke-linejoin="round"
       d="m -200.722,1049.2 -2.02,-0.71 -0.212,-0.43 1.172,0.56 1.255,0.1 5.173,-0.57 5.638,0.14"
       id="path922" />
  </g>
  <g
     id="g928"
     transform="translate(-111.076,-566.48901)">
    <path
       fill="none"
       stroke="#000000"
       stroke-width="4"
       stroke-linecap="round"
       stroke-linejoin="round"
       d="m -177.73,1046.21 -2.258,0.29 -1.16,0.79 -0.619,1.29 0.072,1.88 1.454,2.37 2.365,2.61 2.745,1.64 1.586,0.36 1.104,-0.12 2.188,-1.8 1.633,-2.73 0.765,-2.13 0.617,-3.79 -0.153,-1.72 -0.566,-1.6 -1.455,-1.75 -2.617,-1.61 -1.985,-0.33 -1.15,0.76 -1.457,2.08 -0.371,1.88 0.417,3.82 1.197,2.68"
       id="path926" />
  </g>
  <g
     id="g932"
     transform="translate(-111.076,-566.48901)">
    <path
       fill="none"
       stroke="#000000"
       stroke-width="4"
       stroke-linecap="round"
       stroke-linejoin="round"
       d="m -153.29,1039.06 -0.287,4.92 -1.802,11.93"
       id="path930" />
  </g>
  <g
     id="g936"
     transform="translate(-111.076,-566.48901)">
    <path
       fill="none"
       stroke="#000000"
       stroke-width="4"
       stroke-linecap="round"
       stroke-linejoin="round"
       d="m -151.593,1050.09 0.202,-1.64 1.572,-3.27 1.752,-1.18 0.569,0.06 0.969,-0.6 0.841,-0.1"
       id="path934" />
  </g>
  <g
     id="g940"
     transform="translate(-111.076,-566.48901)">
    <path
       fill="none"
       stroke="#000000"
       stroke-width="4"
       stroke-linecap="round"
       stroke-linejoin="round"
       d="m -134.627,1038.81 -3.545,8.25 -1.01,3.87 0.234,1.15 0.539,-0.36 0.34,-0.83 2.142,-1.51 2.13,-2.09 2.56,-3.14 1.248,-0.89 0.5,0.19 0.16,-0.25 -0.126,2.33 -0.74,2.78 -1.841,4.15 0.33,-0.7 2.032,-1.81 5.624,-3.94 3.185,-0.71 3.96,0.04 2.112,1.02 0.824,1.18 0.302,1.24 -0.176,1.71 -0.92,2.54 -1.846,3.7"
       id="path938" />
  </g>
  <g
     id="g944"
     transform="translate(-111.076,-566.48901)">
    <path
       fill="none"
       stroke="#000000"
       stroke-width="4"
       stroke-linecap="round"
       stroke-linejoin="round"
       d="m -25.3564,1026.4 0.1157,-1.27 0.6436,-1.44 -0.1984,1.15 0.559,2.75 0.1056,4.25 -0.2749,2.36 -2.3239,8.9 -0.1058,2.44"
       id="path942" />
  </g>
  <g
     id="g948"
     transform="translate(-111.076,-566.48901)">
    <path
       fill="none"
       stroke="#000000"
       stroke-width="4"
       stroke-linecap="round"
       stroke-linejoin="round"
       d="m -23.3159,1038.14 -0.2654,-0.91 0.4717,-0.11 0.6351,-1.11 2.3751,-1.7 3.5338,-1.46 4.0699,-1 5.24723,-0.54"
       id="path946" />
  </g>
  <g
     id="g952"
     transform="translate(-111.076,-566.48901)">
    <path
       fill="none"
       stroke="#000000"
       stroke-width="4"
       stroke-linecap="round"
       stroke-linejoin="round"
       d="m 1.83636,1029.43 0.62513,-0.04 -0.20697,0.32 -2.117984,1.43 -2.157596,2.01 -2.7268,3.11 -1.34784,3.06 0.15924,1.82 1.59894,1.79 1.46997,0.26 1.75903,-0.44 1.25061,-1.21 1.88708,-2.46 1.19507,-2.67 0.64923,-3.07 -0.31341,-1.5 -0.37103,0.12 -0.07233,0.42 0.53998,0.41 1.41467,4.5 1.56506,2.08 2.45423,1.71"
       id="path950" />
  </g>
  <g
     id="g956"
     transform="translate(-111.076,-566.48901)">
    <path
       fill="none"
       stroke="#000000"
       stroke-width="4"
       stroke-linecap="round"
       stroke-linejoin="round"
       d="m 15.3827,1033.1 -0.3862,-0.38 -2.2365,4 -0.8288,2.12 0.1505,1.62 0.5265,-0.06 0.8164,-1.05 5.4859,-3.82 3.5832,-1.15 2.2889,0.38 2.4129,1.2 0.5841,0.99 -0.0609,2.61 -0.9148,3.64"
       id="path954" />
  </g>
  <g
     id="g960"
     transform="translate(-111.076,-566.48901)">
    <path
       fill="none"
       stroke="#000000"
       stroke-width="4"
       stroke-linecap="round"
       stroke-linejoin="round"
       d="m 37.9553,1031.64 -0.4787,-0.53 0.0095,0.56 -1.7191,3.64 -0.6022,2.55 0.1771,3.09 1.074,1.59 1.8362,0.75 1.6668,-2.84 2.0627,-4.86 1.631,-5.53 0.6198,-3.66 0.3905,-6.69 0.4655,-2.97 0.7929,-2.64 2.9644,-5.52 -0.8469,1.8 -0.5223,9.34 -0.0416,3.76 0.5298,6.89 0.3825,3.25 1.1146,5.01 3.467,7.3"
       id="path958" />
  </g>
  <g
     id="g964"
     transform="translate(-111.076,-566.48901)">
    <path
       fill="none"
       stroke="#000000"
       stroke-width="4"
       stroke-linecap="round"
       stroke-linejoin="round"
       d="m 63.927,1028.78 -1.4499,0.19 -0.1991,0.48 -0.5505,5.2 0.5838,2.92 0.7023,0.94 0.6477,0.08 3.6905,-3.13 1.7319,-2.52 1.0398,-2.55 0.0027,-2.77 -1.5523,-2.79 -2.2717,-1.59 -2.2118,0.13 -0.6537,0.71 -1.307,0.51 -1.6782,1.9 -0.3054,2.55 0.9981,2.59 1.7535,2.16 2.6608,1.81"
       id="path962" />
  </g>
  <g
     id="g968"
     transform="translate(-111.076,-566.48901)">
    <path
       fill="none"
       stroke="#000000"
       stroke-width="4"
       stroke-linecap="round"
       stroke-linejoin="round"
       d="m 78.0855,1030.68 -1.2865,-0.64 -1.8281,1.45 -1.2938,1.9 -0.2055,2.31 0.2243,0.49 0.9878,0.29 3.9652,-0.93 1.7348,-0.84 3.5014,-2.62 -0.7561,0.96 -0.1649,5.81 -0.7696,4.45 0.4884,-1.26 1.9679,-1.25 3.0667,-1.56 1.955,-0.42 1.8977,-0.85 4.8057,-0.25 2.7822,0.86 0.6129,3.32 -0.1647,2.28 -0.9539,2.57 -1.2385,1.57"
       id="path966" />
  </g>
  <g
     id="g972"
     transform="translate(-111.076,-566.48901)">
    <path
       fill="none"
       stroke="#000000"
       stroke-width="4"
       stroke-linecap="round"
       stroke-linejoin="round"
       d="m -89.4679,1020.15 -0.1402,-1.13 1.5034,-2.77 -0.4753,0.84 -0.6871,7.85 -1.5568,8.84 -3.129,13.08 -0.2053,2.8 0.4225,1.14 1.4409,1.08 1.604,2.03 1.6101,0.4 3.2245,-0.2 2.2782,-0.53"
       id="path970" />
  </g>
  <g
     id="g976"
     transform="translate(-111.076,-566.48901)">
    <path
       fill="none"
       stroke="#000000"
       stroke-width="4"
       stroke-linecap="round"
       stroke-linejoin="round"
       d="m -82.8453,1045.66 -1.3481,-2.26 1.2891,2.01 2.1913,1.74 2.6742,1.78 5.2274,2.4"
       id="path974" />
  </g>
  <g
     id="g980"
     transform="translate(-111.076,-566.48901)">
    <path
       fill="none"
       stroke="#000000"
       stroke-width="4"
       stroke-linecap="round"
       stroke-linejoin="round"
       d="m -69.9204,1045.01 -1.6779,-0.18 -1.8906,2.61 -1.6736,3.66 -0.7611,2.57 -0.6102,3.91 0.0399,4.39"
       id="path978" />
  </g>
  <g
     id="g984"
     transform="translate(-111.076,-566.48901)">
    <path
       fill="none"
       stroke="#000000"
       stroke-width="4"
       stroke-linecap="round"
       stroke-linejoin="round"
       d="m -218.383,1049.71 -0.111,4.75 0.265,1.21 0.74,1.65 0.44,0.16 0.516,-0.36"
       id="path982" />
  </g>
  <g
     id="g988"
     transform="translate(-111.076,-566.48901)">
    <path
       fill="none"
       stroke="#000000"
       stroke-width="4"
       stroke-linecap="round"
       stroke-linejoin="round"
       d="m -273.261,1045.68 -0.64,-1.41 -0.397,5.55 0.59,3.29 0.673,1.62 3.85,6.31 1.612,1.38 0.604,0.99 1.151,0.86 1.249,0.4 1.612,-0.78 1.701,-1.54 4.484,-5.41 1.428,-2.61 1.858,-5.34 0.321,-2.76 -0.042,-0.23 -0.368,0.09 -0.133,1.32"
       id="path986" />
  </g>
  <g
     id="g992"
     transform="translate(-111.076,-566.48901)">
    <path
       fill="none"
       stroke="#000000"
       stroke-width="4"
       stroke-linecap="round"
       stroke-linejoin="round"
       d="m -247.302,1047.77 0.459,-2.82 -0.097,1.72 0.708,4.12 0.232,7.33 0.112,-1.08 1.688,-0.99 6.63,-6.24 5.98,-4.37 0.882,-0.3 0.671,0.44 1.435,2.12 1.165,4.32 0.295,10.4"
       id="path990" />
  </g>
  <g
     id="g996"
     transform="translate(-111.076,-566.48901)">
    <path
       fill="none"
       stroke="#000000"
       stroke-width="4"
       stroke-linecap="round"
       stroke-linejoin="round"
       d="m -344.972,1067.28 2.602,-4.57 -0.324,0.54 -1.035,0.05 -1.236,-0.48 -0.942,0.48 -2.866,2.46 -0.821,1.23 -0.445,1.78 0.014,1.77 1.216,4.22 1.673,2.91 2.605,2.5 0.943,0.03 2.402,-1.59 1.925,-3.19 1.163,-4.04 0.329,-2.5 -0.234,-1.76 -0.956,-3.06 -2.122,-4.45 0.613,1.1 0.345,1.94 0.657,7.18 0.173,6.51 -0.554,19.36 0.457,5.75"
       id="path994" />
  </g>
  <g
     id="g1000"
     transform="translate(-111.076,-566.48901)">
    <path
       fill="none"
       stroke="#000000"
       stroke-width="4"
       stroke-linecap="round"
       stroke-linejoin="round"
       d="m 9.93292,1115.5 0.50148,1.04 -0.1847,0.43 -0.69605,-1.58 -0.80371,-3.94 -0.15265,-12.2 0.85889,-8.02 1.40962,-4.87 2.0314,-4.69 2.2251,-4.09 3.1271,-4.47 3.9123,-2.82 3.7101,-1.06 4.213,-0.22 1.87,0.34 1.345,0.54 2.0178,2.08 0.5806,1.6 0.1025,3.16 -0.783,3.85 -0.873,2.47 -2.9135,5.02 -0.7931,0.54 -1.1098,1.51 -1.8345,1.21 -2.6297,0.7 -2.0924,-0.04 -6.0775,-1.4 1.0691,0.98 6.0352,9.21 6.6691,7.12 2.7588,2.52 0.2065,-0.35 -0.0626,0.61 1.046,1.22"
       id="path998" />
  </g>
  <g
     id="g1004"
     transform="translate(-111.076,-566.48901)">
    <path
       fill="none"
       stroke="#000000"
       stroke-width="4"
       stroke-linecap="round"
       stroke-linejoin="round"
       d="m -155.709,1087.74 0.367,0.55 4.336,-2.3 4.938,-1.55 3.937,0.49 0.823,0.41 0.85,-0.1 0.102,0.3 2.154,0.53 2.521,1.34 1.567,1.53 1.601,2.55 1.22,3.74 0.599,17.42 0.676,3.74 2.432,5.36 1.291,2.04 1.933,1.66 1.081,0.59 2.125,0.45 0.926,-0.46 2.273,0.29 13.253,-1.78"
       id="path1002" />
  </g>
  <g
     id="g1008"
     transform="translate(-111.076,-566.48901)">
    <path
       fill="none"
       stroke="#000000"
       stroke-width="4"
       stroke-linecap="round"
       stroke-linejoin="round"
       d="m -146.415,1118.63 1.779,0.16 -0.707,0.82 -0.052,0.71 0.176,0.39 0.17,-0.41 0.588,-0.07 3.97,-3.3 9.49,-9.94 9.413,-8.86 15.196,-11.49 -0.956,0.7 -0.963,0.33 0.06,-0.22 0.301,0.01 -0.293,1.02 -1.123,1.98"
       id="path1006" />
  </g>
  <g
     id="g1012"
     transform="translate(-111.076,-566.48901)">
    <path
       fill="none"
       stroke="#000000"
       stroke-width="4"
       stroke-linecap="round"
       stroke-linejoin="round"
       d="m -261.944,1095.82 -0.368,-1.6 -0.075,-2.6 0.256,-0.84 -0.258,-0.7 -0.765,-0.22 -1.305,0.21 -2.484,2.45 -1.652,2.34 -1.54,3.12 -0.994,2.86 -1.189,6.03 -0.352,5.63 0.897,10.12 2.805,12.63 0.489,0.73 0.548,-0.14 0.272,-0.52"
       id="path1010" />
  </g>
  <g
     id="g1016"
     transform="translate(-111.076,-566.48901)">
    <path
       fill="none"
       stroke="#000000"
       stroke-width="4"
       stroke-linecap="round"
       stroke-linejoin="round"
       d="m -278.638,1118.72 -2.602,-1.86 0.673,0.61 1.228,0.29 8.961,0.31 3.818,0.83 5.477,2.2"
       id="path1014" />
  </g>
  <g
     id="g1020"
     transform="translate(-111.076,-566.48901)">
    <path
       fill="none"
       stroke="#000000"
       stroke-width="4"
       stroke-linecap="round"
       stroke-linejoin="round"
       d="m -69.8532,1118.2 -0.5982,0.34 h -1.7104 l 0.6792,0.58 0.7623,1.64 0.9889,0.48 2.5441,-0.63 3.654,-2.89 1.9703,-2.98 0.8343,-3.46 -0.4716,-1.88 -1.594,-1.32 -2.8512,-0.53 -3.5447,0.17 -1.3417,0.78 -0.7818,1.8 0.0043,1.2 1.038,2.53 2.1736,2.43 2.9017,1.79 1.9183,0.13"
       id="path1018" />
  </g>
  <g
     id="g1024"
     transform="translate(-111.076,-566.48901)">
    <path
       fill="none"
       stroke="#000000"
       stroke-width="4"
       stroke-linecap="round"
       stroke-linejoin="round"
       d="m -46.8817,1109.34 -0.4341,0.03 -1.0554,1.64 -1.5433,3.3 -0.6143,2.67 0.4643,1.53 0.3771,0.24 1.0828,-0.86 1.5032,-0.33 8.3718,-5.58 3.6579,-1.95 0.5648,-0.04 0.7836,1.03 0.8319,3.99 0.0369,3.16 -0.762,3.98"
       id="path1022" />
  </g>
  <g
     id="g1028"
     transform="translate(-111.076,-566.48901)">
    <path
       fill="none"
       stroke="#000000"
       stroke-width="4"
       stroke-linecap="round"
       stroke-linejoin="round"
       d="m -244.92,1111.49 -0.024,-1.26 0.278,-0.22 -0.145,1.54 1.063,4.41 0.361,3.16 -0.161,8.69 0.429,4.55"
       id="path1026" />
  </g>
  <g
     id="g1032"
     transform="translate(-111.076,-566.48901)">
    <path
       fill="none"
       stroke="#000000"
       stroke-width="4"
       stroke-linecap="round"
       stroke-linejoin="round"
       d="m -241.055,1124.41 -0.288,-1.56 0.807,-1.88 1.166,-1.74 1.453,-1.16 2.094,-1.08 2.849,-0.53 4.48,-1.53"
       id="path1030" />
  </g>
  <g
     id="g1036"
     transform="translate(-111.076,-566.48901)">
    <path
       fill="none"
       stroke="#000000"
       stroke-width="4"
       stroke-linecap="round"
       stroke-linejoin="round"
       d="m -223.993,1118.45 -0.961,0.63 -1.205,1.65 -0.745,3.46 0.377,1.82 1.132,2.48 1.39,1.69 1.652,1.22 1.4,0.08 1.909,-0.8 1.738,-1.37 1.303,-1.61 1.588,-3.13 0.528,-1.86 0.258,-1.88 -0.187,-1.51 -0.877,-1.55 -2.287,-1.11 -2.921,-0.13 -2.697,1.17 -0.921,1.68 -0.233,2.06 0.523,1.58 1.708,1.62"
       id="path1034" />
  </g>
  <g
     id="g1040"
     transform="translate(-111.076,-566.48901)">
    <path
       fill="none"
       stroke="#000000"
       stroke-width="4"
       stroke-linecap="round"
       stroke-linejoin="round"
       d="m -200.737,1115.18 -0.533,0.24 0.07,0.53 -1.083,2.51 -0.957,3.61 -0.125,2.48 0.695,0.87 0.728,-1.5 3.092,-2.41 3.889,-3.81 1.435,-0.87 1.244,-0.2 0.45,1.21 -0.535,6.27 0.235,-0.86 2.276,-2.09 2.876,-2.17 1.598,-0.62 2.688,-0.5 2.25,-0.02 1.362,0.31 2.064,1.16 1.177,1.96 -0.002,1.63 -1.017,2.69 -0.835,1.33 -0.938,0.67"
       id="path1038" />
  </g>
  <g
     id="g1044"
     transform="translate(-111.076,-566.48901)">
    <path
       fill="none"
       stroke="#000000"
       stroke-width="4"
       stroke-linecap="round"
       stroke-linejoin="round"
       d="m -436.595,1109.38 0.373,-0.45 -0.26,-0.96 -0.849,0.37 -2.287,0.23 -3.628,1.79 -4.174,3.05 -6.13,5.97 -1.296,2.53 -0.803,3.99 -0.475,3.08 -0.07,4.1 0.796,1.98 1.967,1.89 4.029,1.46 6.389,0.3 4.107,-0.24 4.834,-0.63 2.899,-0.75"
       id="path1042" />
  </g>
  <g
     id="g1048"
     transform="translate(-111.076,-566.48901)">
    <path
       fill="none"
       stroke="#000000"
       stroke-width="4"
       stroke-linecap="round"
       stroke-linejoin="round"
       d="m -445.566,1126.66 -2.634,-0.58 3.229,0.24 10.785,-0.11 1.474,0.55 3.409,0.36 1.287,0.72"
       id="path1046" />
  </g>
  <g
     id="g1052"
     transform="translate(-111.076,-566.48901)">
    <path
       fill="none"
       stroke="#000000"
       stroke-width="4"
       stroke-linecap="round"
       stroke-linejoin="round"
       d="m 57.9082,1106.84 1.7575,-1 0.484,-1.32 -0.1124,-1.3 -0.8574,-1.38 -1.815,-1.09 -1.495,0.32 -2.4113,1.45 -2.4659,3.22 -0.8844,1.9 -0.6498,2.39 0.0715,2.03 0.9968,2.55 1.5749,2.36 0.9579,0.07 3.0063,-1.46 4.8306,-4.61 3.2568,-5.42 0.9484,-2.38 0.23,-1.83 -0.6897,1.12 -1.9146,12.46 -1.3133,14.49 -0.1265,4.47"
       id="path1050" />
  </g>
  <g
     id="g1056"
     transform="translate(-111.076,-566.48901)">
    <path
       fill="none"
       stroke="#000000"
       stroke-width="4"
       stroke-linecap="round"
       stroke-linejoin="round"
       d="m -389.328,1133.94 -0.759,1.05 0.108,0.27 0.068,-0.32 0.365,0.22 -0.196,0.15 0.227,0.4 0.036,-0.68 -0.093,0.3 0.308,0.01 -0.903,-4.43 0.246,-6.7 3.685,-15.44 0.987,-8.48 0.947,-4.68 2.618,-5.65 1.458,-2.43 2.125,-2.47 1.554,-0.98 1.743,-0.39 2.199,0.22 3.08,1.23 3.154,2.78 1.186,2.29 0.549,2.82 -0.128,3.44 -0.699,3.21 -1.807,5.16 -1.791,2.91 -1.016,1.09 -5.084,3.57 -3.033,1.21 -1.165,0.88 -1.078,0.01 -1.391,0.84 -0.928,0.12 -0.188,0.44 -0.137,-0.27 -0.012,-0.59 0.37,0.25 0.089,-0.52 -0.011,1.2 3.565,3.24 2.634,3.11 1.222,0.86 1.593,1.94 5.707,5.34 4.249,3.32"
       id="path1054" />
  </g>
  <g
     id="g1060"
     transform="translate(-111.076,-566.48901)">
    <path
       fill="none"
       stroke="#000000"
       stroke-width="4"
       stroke-linecap="round"
       stroke-linejoin="round"
       d="m -487.03,1140.15 -1.033,0.12 -0.24,-0.22 0.641,0.64 -0.309,-0.04 -3.693,-3.38 -0.66,-0.24 -0.908,-1.85 -0.6,-0.53 -2.287,-4.87 -0.739,-5.23 0.304,-2.26 1.307,-3.44 0.792,-0.61 2.486,-3.51 2.381,-1.87 2.83,-1.02 3.242,-0.2 3.843,0.77 2.032,1.04 0.661,0.62 0.789,1.59 0.297,2.66 -0.528,2.26 -1.408,1.98 -1.893,1.41 -1.824,0.61 -3.327,-0.24 -2.3,-1.4 -0.716,-0.86 -0.161,-0.87 1.244,-0.43"
       id="path1058" />
  </g>
  <g
     id="g1064"
     transform="translate(-111.076,-566.48901)">
    <path
       fill="none"
       stroke="#000000"
       stroke-width="4"
       stroke-linecap="round"
       stroke-linejoin="round"
       d="m -336.489,1125.59 -0.88,-0.15 -0.552,-1.42 -0.637,-0.68 -1.027,-0.06 -2.188,0.94 -1.526,1.26 -1.201,1.7 -1.195,2.6 -0.426,2.69 1.405,5.84 0.89,1.07 1.21,-0.12 4.928,-6.58 4.019,-7.06 -0.076,-0.83 -0.535,8.25 -2.609,14.58 -0.927,8.24"
       id="path1062" />
  </g>
  <g
     id="g1068"
     transform="translate(-111.076,-566.48901)">
    <path
       fill="none"
       stroke="#000000"
       stroke-width="4"
       stroke-linecap="round"
       stroke-linejoin="round"
       d="m 39.4973,1165.77 1.1771,-1.66 0.8269,-0.13 0.0597,-0.28 0.3754,0.22 -0.0585,-1.88 -2.377,0.54 -2.2986,0.95 -5.2221,3.6 -4.4725,5.39 -2.8221,4.02 -0.5624,1.66 -0.0979,2.99 0.7076,1.61 0.8322,0.71 3.3197,1.45 4.2331,0.69 5.6616,-0.04 6.3972,-0.66 5.4704,-1.44 5.205,-1.48 2.593,-1.75"
       id="path1066" />
  </g>
  <g
     id="g1072"
     transform="translate(-111.076,-566.48901)">
    <path
       fill="none"
       stroke="#000000"
       stroke-width="4"
       stroke-linecap="round"
       stroke-linejoin="round"
       d="m 34.6829,1175.08 -1.8071,-0.58 -0.8659,0.43 0.4535,-0.31 4.2658,-0.6 5.1136,-0.24 4.8203,0.12 3.0204,0.71 2.3724,-0.09"
       id="path1070" />
  </g>
  <g
     id="g1076"
     transform="translate(-111.076,-566.48901)">
    <path
       fill="none"
       stroke="#000000"
       stroke-width="4"
       stroke-linecap="round"
       stroke-linejoin="round"
       d="m -407.294,1183 -0.606,-1.02 0.485,1.35 -0.855,4.31 0.344,3.21 0.831,1.96 1.363,0.99 2.104,0.76 1.962,-0.09 2.002,-1.25 3.071,-3.77 1.194,-2.73 0.356,-1.61 -0.36,-1.06 -1.197,0.45 -0.334,-0.44 0.104,-0.73"
       id="path1074" />
  </g>
  <g
     id="g1080"
     transform="translate(-111.076,-566.48901)">
    <path
       fill="none"
       stroke="#000000"
       stroke-width="4"
       stroke-linecap="round"
       stroke-linejoin="round"
       d="m -381.666,1159.99 0.453,-2.06 1.138,-2.3 -0.373,2.52 1.098,4.34 0.684,6.44 -0.339,9.48 -1.226,13.32 0.209,5.06 0.375,2.12 -0.026,0.39 -0.218,-0.04"
       id="path1078" />
  </g>
  <g
     id="g1084"
     transform="translate(-111.076,-566.48901)">
    <path
       fill="none"
       stroke="#000000"
       stroke-width="4"
       stroke-linecap="round"
       stroke-linejoin="round"
       d="m -387.709,1183.72 0.095,0.48 0.195,-0.22 0.636,0.25 0.144,-0.44 0.592,0.15 2.023,-1.01 1.097,0.01 2.497,-0.86 3.985,-0.49 2.15,0.12"
       id="path1082" />
  </g>
  <g
     id="g1088"
     transform="translate(-111.076,-566.48901)">
    <path
       fill="none"
       stroke="#000000"
       stroke-width="4"
       stroke-linecap="round"
       stroke-linejoin="round"
       d="m 174.216,1172.44 -0.322,0.73 0.36,0.42 0.608,0.03 0.028,-0.24 -0.069,0.25 h 0.548 l 2.248,-2.35 4.562,-3.33 4.359,-2.38 1.715,-0.44 5.5,-2.45 0.131,0.18 -0.13,-0.23"
       id="path1086" />
  </g>
  <g
     id="g1092"
     transform="translate(-111.076,-566.48901)">
    <path
       fill="none"
       stroke="#000000"
       stroke-width="4"
       stroke-linecap="round"
       stroke-linejoin="round"
       d="m 177.9,1158.37 -0.816,-0.48 -1.556,-0.21 1.45,0.99 3.636,7.63 1.57,1.46 2.25,3.06 4.668,5.21 2.413,2.03"
       id="path1090" />
  </g>
  <g
     id="g1096"
     transform="translate(-111.076,-566.48901)">
    <path
       fill="none"
       stroke="#000000"
       stroke-width="4"
       stroke-linecap="round"
       stroke-linejoin="round"
       d="m 224.456,1140.95 0.205,-0.24 -0.204,-3.48 0.35,0.59 1.112,11.42 -0.444,9.07 -1.195,10.76 -0.207,8.31 0.236,1.26 0.101,-1.3 1.857,-2.21"
       id="path1094" />
  </g>
  <g
     id="g1100"
     transform="translate(-111.076,-566.48901)">
    <path
       fill="none"
       stroke="#000000"
       stroke-width="4"
       stroke-linecap="round"
       stroke-linejoin="round"
       d="m 226.276,1141.8 -2.01,-4.56 0.636,0.86 0.392,0.07 1.647,-3.13 2.932,-2.53 3.013,-1.63 3.867,-0.78 1.372,0.2 2.812,1.42 2.222,2.36 1.323,3.27 0.026,4.29 -1.066,3.72 -2.163,3.96 -2.785,3.27 -4.004,2.93 -4.824,2.21 -1.921,0.64 -1.788,0.17 0.816,-0.26 0.42,1.66 2.03,4.34 5.366,7.14 4.143,4.44 5.071,3.95 1.136,1.3 1.241,0.14"
       id="path1098" />
  </g>
  <g
     id="g1104"
     transform="translate(-111.076,-566.48901)">
    <path
       fill="none"
       stroke="#000000"
       stroke-width="4"
       stroke-linecap="round"
       stroke-linejoin="round"
       d="m 95.0574,1184.07 1.3589,0.63 0.4684,-0.12 0.0785,0.54 -0.3155,-0.4 0.4166,0.38 -0.6064,-2.36 0.2035,1.03 0.0858,-0.78 -0.3847,-4.73 0.6731,-5.91 -0.1752,-14.22 0.5627,-7.97 0.8412,-4.16 2.3797,-6.77 0.207,0.12 0.487,-1.56 1.348,-2.19 1.202,-1.2 3.862,-1.37 4.597,0.49 2.378,0.83 1.77,1.48 1.104,1.47 1.823,4.94 0.326,2.05 -0.134,2.94 -1.158,3.36 -1.601,2.04 -2.829,2.19 -2.794,1.69 -2.688,0.82 -2.913,0.34 -1.847,-0.8 0.239,-0.38 0.014,0.69 5.678,6.98 8.738,13.31 0.59,0.01 0.109,1.83"
       id="path1102" />
  </g>
  <g
     id="g1108"
     transform="translate(-111.076,-566.48901)">
    <path
       fill="none"
       stroke="#000000"
       stroke-width="4"
       stroke-linecap="round"
       stroke-linejoin="round"
       d="m -469.899,1184.07 -0.675,-1.84 -0.084,0.86 -0.986,0.73 -0.884,1.21 -0.763,2.57 0.244,3.52 0.906,2.31 2.277,2.72 1.477,0.91 1.346,-0.13 3.71,-2.32 3.117,-4.53 2.017,-4.91 -0.162,-2.77 -0.586,-0.11 -0.218,0.63 -0.303,-0.64 0.448,0.06"
       id="path1106" />
  </g>
  <g
     id="g1112"
     transform="translate(-111.076,-566.48901)">
    <path
       fill="none"
       stroke="#000000"
       stroke-width="4"
       stroke-linecap="round"
       stroke-linejoin="round"
       d="m -444.417,1164.61 -0.016,-1.61 0.446,-1.9 -0.094,-0.24 -0.135,0.5 -0.526,5.63 -3.3,19.35 -0.724,9.65 -0.336,1.37"
       id="path1110" />
  </g>
  <g
     id="g1116"
     transform="translate(-111.076,-566.48901)">
    <path
       fill="none"
       stroke="#000000"
       stroke-width="4"
       stroke-linecap="round"
       stroke-linejoin="round"
       d="m -451.125,1186.65 -0.969,-1.78 0.485,-0.23 0.67,0.63 10.293,1.2"
       id="path1114" />
  </g>
  <g
     id="g1120"
     transform="translate(-111.076,-566.48901)">
    <path
       fill="none"
       stroke="#000000"
       stroke-width="4"
       stroke-linecap="round"
       stroke-linejoin="round"
       d="m -429.877,1186.04 -0.658,-1.14 -0.442,-1.77 0.864,0.91 -0.259,3.89 -1.496,13.29 -2.381,16.79 0.386,-2.18 -0.175,-2.5 0.282,-2.88 1.282,-6.99 3.744,-11.66 2.387,-5.38 2.445,-3.56 1.711,-0.9 2.041,-0.53 1.296,0.17 1.011,1.53 -0.233,3.96 -1.615,4.41 -2.448,4.64 -1.407,0.71"
       id="path1118" />
  </g>
  <g
     id="g1124"
     transform="translate(-111.076,-566.48901)">
    <path
       fill="none"
       stroke="#000000"
       stroke-width="4"
       stroke-linecap="round"
       stroke-linejoin="round"
       d="m -92.8491,1171.43 0.5348,-2.27 0.3009,-0.11 0.3387,1.01 0.1566,8.93 -0.1508,3.61 -1.7552,14.2 0.1396,0.77"
       id="path1122" />
  </g>
  <g
     id="g1128"
     transform="translate(-111.076,-566.48901)">
    <path
       fill="none"
       stroke="#000000"
       stroke-width="4"
       stroke-linecap="round"
       stroke-linejoin="round"
       d="m -99.1872,1186.73 -1.1158,-2.18 0.149,-0.77 0.6487,0.48 0.4709,1.22 0.6224,0.1 3.9365,-0.2 6.8586,-1.01 9.7863,0.01"
       id="path1126" />
  </g>
  <g
     id="g1132"
     transform="translate(-111.076,-566.48901)">
    <path
       fill="none"
       stroke="#000000"
       stroke-width="4"
       stroke-linecap="round"
       stroke-linejoin="round"
       d="m -166.421,1185.06 -1.806,0.51 -0.066,0.68 0.343,0.8 2.369,2.15 0.695,-0.06 0.752,-1.87 0.032,-1.13 -1.531,-1.69 -0.782,-0.27 -0.444,0.21 -0.659,1.38 -0.138,1.32 0.249,1.3 0.558,0.43 1.28,-0.27 1.433,-1.29 0.716,-1.44 -0.41,-0.41 -0.253,0.25 -2.467,-0.54 -0.771,0.38 -0.591,2.31 0.388,1.17 0.963,0.86"
       id="path1130" />
  </g>
  <g
     id="g1136"
     transform="translate(-111.076,-566.48901)">
    <path
       fill="none"
       stroke="#000000"
       stroke-width="4"
       stroke-linecap="round"
       stroke-linejoin="round"
       d="m -46.4829,1195.32 0.0948,1.12 0.4814,0.35 0.1385,-0.22 -0.2479,0.48 -2.9578,-1.55 -3.5912,-2.83 -2.6836,-2.88 -1.5211,-2.74 -0.813,-2.5 -0.1474,-2.18 0.2666,-2.02 0.4606,-1.76 1.9561,-4.28 2.5857,-2.28 2.8178,-0.93 2.2347,0.14 2.6936,1.18 1.9783,2.86 0.2249,1.34 -0.2092,1.52 -0.9659,1.93 -0.9384,0.59 -1.3292,-0.01 -0.7367,0.45 -0.3368,-0.33 -1.8045,-0.15 -2.0845,-1.08 -0.7392,-0.95 0.0919,-0.27 0.7413,0.19"
       id="path1134" />
  </g>
  <g
     id="g1140"
     transform="translate(-111.076,-566.48901)">
    <path
       fill="none"
       stroke="#000000"
       stroke-width="4"
       stroke-linecap="round"
       stroke-linejoin="round"
       d="m -499.398,1182.56 -1.662,0.57 0.565,1.07 -0.013,2.97 0.824,3.7 1.611,2.86 3.012,3.65 1.814,1.38 1.42,0.18 0.718,0.49 1.633,-0.35 0.643,0.18 1.168,-0.82 1.126,-1.4 0.743,-1.83 0.24,-0.83 -0.171,-4.74 -0.629,-3.4 -2.603,-2.76 -1.934,-1.56 -4.512,-1.76 -1.356,-0.28 -0.489,0.53 -0.658,-0.15 -1.605,1.3 -0.796,2.24 0.05,2.4 1.757,4.32 1.198,1.65 2.34,2.01 2.071,1.16 1.093,0.01"
       id="path1138" />
  </g>
  <g
     id="g1144"
     transform="translate(-111.076,-566.48901)">
    <path
       fill="none"
       stroke="#000000"
       stroke-width="4"
       stroke-linecap="round"
       stroke-linejoin="round"
       d="m -130.14,1174.25 0.521,0.49 0.153,-1.16 -1.03,-1.67 -0.825,-0.51 -0.853,0.06 -0.294,-0.44 -4.837,1.06 -0.982,0.37 -1.465,2.07 -0.741,2.71 0.509,2.02 1.738,2.47 6.545,5.88 1.719,2.15 0.638,1.29 0.346,1.13 0.03,2.92 -0.338,2.19 -0.621,1.54 -2.12,1.46 -3.09,0.44 -5.095,-0.68 -4.809,-1.32 -0.661,0.11 -0.683,-0.44 -0.587,-0.04 -0.14,0.25 -0.038,-0.58 -0.108,0.37"
       id="path1142" />
  </g>
  <g
     id="g1148"
     transform="translate(-111.076,-566.48901)">
    <path
       fill="none"
       stroke="#000000"
       stroke-width="4"
       stroke-linecap="round"
       stroke-linejoin="round"
       d="m -28.4785,1145.99 -0.3267,-0.91 0.26,0.53 2.4946,1.74 2.6638,2.67 4.1448,5.93 2.7245,5.79 1.7759,5.78 0.4911,4.16 -0.2981,3.88 -1.0091,4.67 -6.262,16.13 -1.9116,3.13 -2.6256,1.52 -1.215,0.14 -0.1712,0.41"
       id="path1146" />
  </g>
  <g
     id="g1152"
     transform="translate(-111.076,-566.48901)">
    <path
       fill="none"
       stroke="#000000"
       stroke-width="4"
       stroke-linecap="round"
       stroke-linejoin="round"
       d="m -196.86,1176.84 -0.218,-1.17 0.781,0.05 0.092,-0.22 -0.413,-0.01 -0.036,-0.26 -0.176,0.3 0.008,-0.25 -0.744,-0.17 -0.245,-0.63 -2.984,0.51 -3.044,1.14 -1.867,1.14 -3.137,3.79 -1.005,2.49 -0.509,4.04 0.302,3.39 1.534,5.2 1.975,2.47 2.249,1.54 2.625,-0.04 2.857,-1.56 1.594,-2.12 1.319,-2.49 1.602,-4.6 0.295,-5.38 -1.328,-4.83 -2.781,-4.98 0.216,-0.17 0.516,0.89 0.166,4.3 1.523,4.39 12.419,22.12"
       id="path1150" />
  </g>
  <g
     id="g1156"
     transform="translate(-111.076,-566.48901)">
    <path
       fill="none"
       stroke="#000000"
       stroke-width="4"
       stroke-linecap="round"
       stroke-linejoin="round"
       d="m 266.052,1166.64 -0.115,-1.59 -0.491,-0.51 -1.652,-0.24 -1.447,0.23 -2.109,1.27 -1.071,1.29 -1.117,2.83 -0.57,2.27 -0.187,2.71 0.543,3.6 1.114,2.36 0.802,0.9 0.823,0.61 1.325,0.19 2.102,-0.77 1.974,-2.99 1.284,-4.34 0.292,-3.12 -0.485,-8.64 0.095,15.32 -1.326,15.13 0.577,5.21 1.649,8.93"
       id="path1154" />
  </g>
  <g
     id="g1160"
     transform="translate(-111.076,-566.48901)">
    <path
       fill="none"
       stroke="#000000"
       stroke-width="4"
       stroke-linecap="round"
       stroke-linejoin="round"
       d="m 137.223,1176.6 0.599,-0.65 0.269,0.43 -0.153,0.53 -0.576,-0.4 -1.622,0.14 -1.316,1.12 -1.252,2.24 -0.953,2.87 -0.379,2.73 0.759,1.72 2.44,0.89 1.399,-0.38 1.555,-1.3 1.569,-2.18 1.491,-3.22 1.375,-5.6 -0.066,-2.16 -0.192,5.92 -1.51,9.49 -0.792,7.59 -0.104,10.66 -0.435,2.35"
       id="path1158" />
  </g>
  <g
     id="g1164"
     transform="translate(-111.076,-566.48901)">
    <path
       fill="none"
       stroke="#000000"
       stroke-width="4"
       stroke-linecap="round"
       stroke-linejoin="round"
       d="m -298.29,1159.83 1.375,-2.44 0.217,0.26 0.497,-0.28 -0.432,0.72 -0.386,-0.1 -0.218,0.35 -0.783,0.09 -2.099,1.04 -1.969,1.55 -5.337,6.35 -2.17,4.1 -4.207,9.76 -1.551,7.64 -0.4,5.24 0.005,5.31 1.196,4.25 1.646,3.88 2.553,2.58 1.785,0.73 2.01,0.12 3.51,-0.6"
       id="path1162" />
  </g>
  <g
     id="g1168"
     transform="translate(-111.076,-566.48901)">
    <path
       fill="none"
       stroke="#000000"
       stroke-width="4"
       stroke-linecap="round"
       stroke-linejoin="round"
       d="m -277.441,1185.68 0.904,-1.12 -1.145,0.35 -1.19,-0.62 -2.058,-0.13 -1.891,0.62 -0.686,-0.2 -2.164,1.74 -2.353,2.8 -1.573,2.76 -0.585,3.02 0.408,3.38 1.353,3.31 2.82,2.5 1.996,0.02 1.853,-1.04 2.665,-3.37 1.709,-3 0.83,-3.23 0.098,-4.27 -1.067,-3.41 3.442,8.62 3.018,6.3 2.826,5.01 2.496,3.35 2.009,1.8"
       id="path1166" />
  </g>
  <g
     id="g1172"
     transform="translate(-111.076,-566.48901)">
    <path
       fill="none"
       stroke="#000000"
       stroke-width="4"
       stroke-linecap="round"
       stroke-linejoin="round"
       d="m -247.969,1195.95 -0.191,-0.92 0.768,0.33 -0.002,0.64 -1.95,5.58 -1.766,6.64 -1.586,3.61"
       id="path1170" />
  </g>
</svg>
