<svg
   viewBox="-702 0 1135.7509 1155.7007"
   version="1.2"
   id="svg10"
   xmlns="http://www.w3.org/2000/svg"
   xmlns:svg="http://www.w3.org/2000/svg"><defs
   id="defs14" />
<g
   id="g8"
   transform="translate(-148.147,-63.159302)">
  <path
     fill="#000000"
     d="m 253.056,1103.57 v 0 l -10.247,-6.29 -4.661,-4.75 -0.011,-5.08 1.578,-2.64 4.758,-4.66 5.055,0.01 0.456,1.34 -0.133,3.03 -5.661,5.75 -3.031,2.19 0.338,1.51 0.977,0.87 2.08,0.01 2.636,-1.58 4.099,-4.1 2.573,-4.63 v -5.1 l -1.548,-2.61 -3.756,-1.71 h -2.117 l -5.618,2.58 -4.112,4.11 -2.573,4.63 v 7.1 l 1.577,2.64 4.095,4.09 7.963,4.97 5.672,2.61 1.084,-0.02 1.27,-1.34 -0.883,-1.65 M 305.02,271.466 v 0 l 1.733,4.759 0.722,0.616 1.506,-0.339 5.304,-5.312 8.43,-12.38 3.305,-3.752 2.72,10.15 2.952,3.958 4.883,3.023 4.888,1.644 3.037,-2.858 v -0.949 l -1,-0.825 -2.028,1.621 -4.656,-2.533 -3.101,-3.099 -1.577,-2.636 0.019,-2.082 1.343,-0.441 1.974,0.821 3.087,0.017 6.027,-1.736 3.597,-1.846 2.671,-3.731 -1.607,-4.781 -3.072,-3.068 -6.683,-2.693 -3.048,0.124 -6.63,3.575 -0.89,1.421 -5.116,3.581 -3.095,3.095 -4.426,7.374 -1.574,1.626 -3.43,5.38 -2.494,2.5 -2.855,-18.649 -0.757,-1.515 0.673,-1 0.009,-2.079 -1.577,-2.15 -2.13,4.201 0.822,2.235 1.895,12.704 M 318.034,63.4877 v 0 l -6.369,14.3143 -3.33,10.3958 -4.522,8.3833 -2.523,7.6089 -1.116,1.474 -2.62,-1.526 -1.056,-0.108 -1.478,0.467 -0.819,1.003 0.873,1.634 2.748,2.396 -1.538,2.66 -2.573,2.626 -5.818,9.606 -1.879,7.084 0.134,4.02 1.351,1.273 1.507,-0.833 2.784,-10.239 8.925,-12.917 1.758,-1.661 1.031,-0.133 2.058,0.115 6.876,1.738 8.58,0.202 3.592,16.112 2.39,6.753 1.53,-0.087 1.321,-1.323 0.014,-3.085 -1.133,-3.052 -2.65,-14.329 5.899,-2.528 -0.089,-0.661 -2.339,-1.733 -2.647,-0.238 -0.812,-1.682 -5.898,-43.5088 -0.672,-0.5499 M 258.721,1023.2 v 0 l -2.577,-4.64 0.169,-1.36 1.533,-2.52 6.593,-2.55 5.057,-0.12 1.978,0.84 h 2.052 l 1.338,-1.36 -0.004,-0.63 -4.306,-2.72 -9.113,-0.01 -5.618,2.58 -2.108,2.1 -1.577,2.64 v 5.1 l 4.672,6.73 2.94,1.95 4.689,1.64 7.087,-0.02 1.184,-1.15 -1.491,-0.97 -9.412,-3.41 m 32.737,-578.505 v 0 l -1.829,-1.625 -1.577,-2.636 -0.123,-5.051 0.508,-1.511 3.298,-2.522 -1.691,-2.363 -1.261,-0.001 -3.372,3.912 -0.482,1.485 0.123,7.051 2.671,4.727 3.63,1.579 1.117,-0.004 3.446,-2.358 4.283,-4.308 2.002,-3.005 2.575,-4.631 -0.011,-3.08 -0.871,-0.977 -1.504,-0.338 -0.705,0.594 -3.484,8.432 -3.817,4.839 m -3.385,51.434 v 0 l -4.53,2.398 -1.397,-0.328 -0.02,-2.082 1.839,-2.918 6.887,-6.397 -0.336,-0.964 -1.33,0.146 -2.388,1.402 -5.095,5.095 -1.577,2.636 -0.123,4.05 0.482,1.485 0.976,0.87 3.081,0.011 10.891,-5.718 1.081,0.026 -0.027,0.805 -3.35,3.499 0.323,2.368 2.082,0.02 14.925,-7.685 0.381,1.382 -1.726,3.882 0.15,5.266 2.866,-4.294 1.717,-4.853 0.117,-2.056 -0.482,-1.486 -2.03,-1.841 -9.468,4.723 -2.44,-3.886 -1.063,10e-4 -4.76,1.665 M 311.543,147 v 0 l -28.036,-0.014 -7.512,-1.031 -27.807,-1.922 -16.626,-2.902 -4.059,-0.116 -3.003,0.954 -1.785,-0.677 -1.537,2.181 2.321,2.326 2.004,-0.784 7.991,-10e-4 15.048,3.02 27.708,2.03 44.229,1.924 17.077,2.178 21.901,1.676 2.047,-0.827 h 22.992 l 2.638,1.059 1.659,2.194 5.713,1.718 h 8.987 l 21.014,-2.972 h 8.987 l 9.974,3.818 2.243,-2.54 -1.465,-1.523 -9.752,-3.755 h -8.987 l -22.003,2.969 -1.345,-0.452 -0.215,-1.517 -3.724,-1.086 -20.658,-2.799 -2.088,0.019 -1.978,0.837 -29.989,10e-4 -19.428,-2.83 -3.519,-1.023 m -6.706,-60.555 v 0 l 0.28,-3.1369 2.933,-6.3788 2.183,9.8376 1.621,11.5374 0.113,9.0587 -0.457,1.347 -8.089,0.026 -5.988,-1.809 -1.298,-0.882 2.521,-7.4038 M 379.17,70.45 v 0 l -0.038,4.1106 2.854,10.9459 v 21.9865 l -2.59,12.722 -4.265,16.223 0.017,4.088 1.324,1.316 1.747,-0.584 7.767,-34.765 -0.117,-18.055 -3.26,-14.1022 -2.041,-4.3131 M 319.854,1015.42 v 0 l 0.284,8.13 1.729,2.35 1.693,-0.04 5.911,-2.84 6.603,-9.15 2.63,-2.15 -2.151,-1.58 -2.079,0.01 -3.759,3.66 -3.43,5.38 -3.538,2.55 -2.79,-12.69 -1.487,0.1 -1.312,1.32 0.124,1.3 m 39.687,-556.243 v 0 l 1.212,-0.622 0.879,-1.356 2.567,-9.781 3.053,-8.961 4.297,-6.279 4.042,-4.03 1.508,-0.34 2.324,2.316 0.011,3.08 -1.945,3.587 -3.471,2.063 -4.915,1.778 -0.382,2.544 1.325,1.325 2.079,0.011 5.671,-2.612 3.065,-3.066 2.573,-4.63 0.003,-4.113 -1.616,-3.666 -2.723,-2.627 h -5.053 l -5.758,5.662 -4.584,6.054 -0.965,-0.338 0.657,-2.055 -1.646,-2.942 0.623,-1.035 -1.3,-0.462 -1.343,0.44 1.705,13.091 -2.731,9.875 -0.115,6.058 0.484,1.309 m -53.494,563.725 v 0 l 0.836,-3.06 -1.315,-1.31 -1.818,0.66 -3.575,8.62 -0.118,4.06 0.456,1.34 2.05,0.01 0.696,-0.59 m 38.783,-585.803 v 0 l 0.153,2.066 1.373,0.319 1.324,-1.316 0.148,-2.026 -0.133,-8.059 -2.71,-5.327 -4.71,0.024 -2.636,1.577 -4.101,3.994 -2.702,-4.186 -2.14,-0.419 -6.374,8.695 -0.477,-2.296 0.783,-2.003 -0.599,-1.001 1.599,-1.999 -0.598,-1.001 1.598,-1.999 -1.307,-1.364 -0.646,0.008 -3.712,8.297 -0.118,9.055 0.505,1.327 2.669,-1.538 1.833,-1.813 5.484,-7.271 0.461,1.299 -0.82,1.974 0.009,3.054 1.347,0.455 2.022,-0.132 6.974,-7.85 0.974,-0.852 1.026,-0.118 1.747,0.744 1.618,3.666 M 363.04,75.4769 v 0 l -5.329,6.3391 -3.032,5.9489 -1.752,5.1431 -1.913,11.599 0.118,17.054 1.661,4.887 1.919,3.737 2.098,2.1 2.636,1.577 1.056,0.107 1.321,-0.491 -4.342,-7.537 -2.349,-6.38 -0.118,-15.054 1.865,-10.4932 1.919,-6.461 1.914,-3.7375 2.577,-2.6317 2.533,-4.6558 -1.294,-1.3697 M 328.456,619.853 v 0 l 1.525,0.641 3.829,3.791 9.664,6.566 2.369,-0.323 0.008,-3.052 -0.668,-0.763 -9.373,-5.428 -8.519,-7.571 4.899,-3.429 6.565,-6.519 4.181,-1.766 -0.087,-1.53 -1.32,-1.312 -1.331,0.155 -2.388,1.402 -6.62,6.57 -3.019,2.012 -6.59,2.563 -1.461,0.971 0.031,1.694 0.603,0.704 4.71,1.74 m -22.449,450.571 v 0 l -0.163,-3.07 -0.704,-0.94 -0.249,-1.66 -2.372,-1.69 -1.379,1.29 -0.017,9.09 2.868,13.94 -0.132,11.06 -2.532,7.66 -2.084,4.48 -2.103,-2.17 -0.017,-5.09 2.729,-8.88 -0.358,-1.54 -1.022,-0.89 -1.957,2.96 -2.392,8.35 0.007,5.11 1.577,2.64 2.759,2.66 h 2.049 l 2.768,-3.67 4.34,-11.83 3.116,9.34 2.151,-2.54 -0.031,-4.71 -3.257,-12.15 m -733.611,34.25 v 0 l -0.148,-5.07 -1.325,-1.32 -2.054,0.01 -0.339,1.4 1.915,10.35 1.426,1.94 1.659,0.05 4.152,-4.71 2.002,-3 3.575,-6.64 -0.019,-3.08 -1.987,-0.36 -3.143,4.7 -3.426,6.38 -2.156,2.67 -0.93,-0.36 0.651,-0.97 m 14.13,-226.052 v 0 l -2.509,-0.32 -1.324,1.315 -0.134,6.023 0.482,1.486 1.756,1.799 2.134,6.983 1.738,9.422 1.613,16.038 13.769,2.761 2.054,-0.118 4.685,-1.636 3.042,-3.047 1.238,-2.278 2.445,-7.407 -0.286,-1.307 -2.396,-4.376 -1.817,-1.839 -3.245,-2.224 -4.938,-2.457 2.226,-3.363 3.351,-8.375 v -4.117 l -1.617,-3.666 -3.059,-3.06 -2.636,-1.578 -8.048,-0.123 -5.69,2.697 m 10.231,-205.158 v 0 l -1.857,-1.838 -2.636,-1.577 -1.06,-0.124 -8.053,0.12 -5.887,2.728 -2.08,-0.01 -1.974,-0.821 -1.343,0.441 -0.142,3.024 0.837,1.978 0.134,4.019 -1.972,10.014 v 9.986 l 1.971,16.004 -0.508,1.511 -2.343,1.861 10e-4,0.619 2.919,2.684 4.392,2.69 3.115,0.005 14.883,-4.664 3.742,-1.917 3.004,-2.001 2.103,-2.108 2.573,-5.619 v -10.117 l -1.617,-3.666 -3.072,-3.068 -5.061,-2.668 1.75,-4.481 0.133,-7.058 -0.133,-2.059 m 26.319,-452.163 v 0 l 0.666,-0.745 v -2.059 l -1.351,-1.273 -3.634,2.873 -4.154,4.742 -3.92,7.736 -1.778,5.954 0.12,8.053 2.54,6.667 5.041,8.964 4.757,5.652 1.363,-0.313 -0.634,-2.029 0.598,-1.001 -4.086,-5.313 -3.22,-6.215 -1.748,-4.458 -1.716,-7.013 1.818,-7.09 2.86,-6.587 3.269,-4.294 m 13.18,-162.0731 v 0 l -0.954,2.0427 0.609,0.7833 2.66,1.5411 1.058,-0.646 2.661,1.5383 4,2.9998 4.095,4.0947 3.047,5.0291 2.536,7.6001 0.118,12.054 -2.477,11.378 -2.212,6.3 -1.768,1.68 -1.663,0.25 -1.624,2.208 2.202,1.546 1.118,0.008 4.645,-1.596 2.157,-5.059 3.505,-15.646 v -13.124 l -2.526,-8.5721 -3.32,-5.3381 -5.833,-5.8127 -5.998,-3.9982 -2.638,-1.5791 -2.05,-0.1213 M -409.313,847.37 v 0 l -5.501,-18.79 -1.661,-2.421 -1.719,0.546 -2.536,17.603 -1.988,4.882 -3.123,2.285 0.693,1.999 -10e-4,2.052 -2.164,3.254 -5.457,12.535 2.243,1.507 1.776,-1.598 6.464,-13.41 2.154,-2.712 1.633,-0.086 1.974,0.836 4.533,0.214 2.889,9.509 2.955,3.898 10e-4,2.053 -0.65,0.978 2.323,-0.346 0.759,0.55 1.577,-2.155 0.001,-2.107 -3.083,-4.187 -1.647,-5.698 0.031,-2.085 2.34,0.509 8.993,-10e-4 1.345,-0.454 0.06,-1.616 -13.054,-3.006 m 0.685,-52.888 v 0 l -2.006,0.832 -3.02,0.134 -6.198,-1.766 0.534,-0.696 v -1.052 l -1.085,-1.244 -0.733,-2.611 -2.894,-23.055 10e-4,-3.123 1.648,-5.698 3.996,-3.991 3.666,-1.616 5.085,0.014 2.325,2.326 0.134,1.029 -0.119,5.056 -2.573,5.618 -1.367,1.956 -2.777,2.343 10e-4,2.046 0.565,0.678 10.164,1.796 3.284,1.695 1.699,2.755 0.007,4.115 -2.567,7.603 -3.112,3.121 -2.636,1.577 m 10.947,-175.706 v 0 l -2.786,2.654 -4.43,6.38 -2.57,2.62 -7.571,11.08 -2.126,-0.388 -1.31,-1.325 -1.036,-2.01 -3.461,-13.436 -0.687,-0.572 -1.051,-10e-4 -0.976,0.861 -0.481,1.485 0.116,2.056 3.538,11.603 1.308,2.31 2.797,2.776 3.691,1.58 1.667,-0.903 5.582,-8.116 2.57,-2.62 6,-8 3.571,-5.635 -0.353,-1.535 -0.98,-0.865 m 10.119,-176.29 v 0 l 9.28,-19.644 2.749,22.909 0.805,0.72 1.024,0.119 1.482,-0.467 4.303,-4.312 7.221,-11.225 7.356,-15.411 0.122,-2.05 -0.481,-1.484 -1.003,-0.819 -1.788,1.615 -7.426,15.37 -5.997,9.998 -2.978,3.531 -0.296,-28.212 0.956,-3.051 -2.173,-2.123 -0.801,0.197 -15.323,32.248 -2.54,6.667 0.028,6.083 1.833,-0.552 m 19.435,-266.11 v 0 l 12.754,6.85 1.639,1.816 -4.536,7.657 -5.138,7.289 0.323,2.369 3.052,0.008 3.765,-4.667 6.562,-10.658 0.011,-3.08 -1.554,-2.612 -3.122,-2.121 -10.372,-5.426 -8.286,-5.129 -1.508,0.339 -0.862,0.976 v 1.054 l 1.652,1.758 m 675.233,804.262 v 0 l -2.117,-2.68 -2.398,-1.69 -1.379,1.297 -0.011,2.08 2.11,3.221 2.498,5.924 1.096,-1.172 -0.673,-3.052 1.304,0.367 1.361,-0.312 -0.147,-1.332 m -712.232,-98.05 v 0 l 3.991,-2.01 5.05,-0.123 1.486,0.482 2.869,2.977 0.015,7.084 -1.619,3.67 -1.962,2.962 -2.06,2.059 -3.696,1.737 -0.52,2.589 11.106,3.056 4.192,2.203 1.555,2.612 v 4.108 l -2.552,4.607 -2.756,1.701 -9.113,0.003 -3.666,-1.619 -0.572,-0.748 0.649,-0.972 0.017,-3.088 -3.481,-16.692 -3.251,-11.185 0.361,-1.542 M -376.64,400.33 v 0 l -0.222,2.225 1.579,2.634 0.756,0.659 1.585,0.065 3.422,-8.853 7.498,-14.878 2.707,16.183 1.094,4.024 2.213,4.088 2.534,0.374 3.759,-3.661 8.002,-12.004 8.033,-15.927 1.546,-3.7 -0.015,-3.085 -1.324,-1.316 -1.774,0.618 -9.461,20.402 -8.009,12.011 -1.345,0.688 -1.861,-6.099 -2.189,-27.768 -1.94,0.072 -3.623,9.146 -8.834,17.805 -2.089,5.078 m -72.231,242.373 v 0 l 0.976,0.385 1.956,-1.903 1.359,-2.951 1.404,-3.456 0.12,-6.053 -1.737,-4.731 -0.751,-0.777 -1.972,-1.85 -3.023,-0.133 -1.485,0.483 -1.303,1.312 -3.047,5.029 -1.026,2.885 -1.628,5.782 v 8.988 l 2.063,5.637 2.695,2.116 3.669,1.618 6.693,0.032 1.611,-2.153 -9.901,-2.836 -2.71,-5.349 v -8.118 l 3.351,-8.374 2.017,-2.865 2.349,2.272 0.134,1.029 -0.116,7.058 m 9.993,-185.06 v 0 l -3.661,4.999 1.273,1.351 h 2.052 l 0.972,-0.851 13.789,-19.815 10.575,-18.631 0.122,-3.05 -0.455,-1.339 -1.51,0.333 -1.307,1.318 -10.425,18.369 -11.148,16.289 m 1.902,-31.012 v 0 l -6.754,12.724 -7.998,12.998 -3.422,2.89 -1.723,2.371 0.353,1.534 1.031,0.844 2.662,-1.538 4.095,-4.095 9.002,-14.004 7.243,-13.161 1.969,-2.025 0.656,-0.114 1.116,-1.661 1.714,-4.731 -0.134,-2.02 -1.351,-1.273 -3.785,3.609 m 16.488,-328.5005 v 0 l -2.674,1.6662 -2.817,2.8403 -4.037,7.9563 -3.055,9.0237 -2.606,11.711 0.117,4.054 1.603,5.977 3.954,10.683 1.29,2.252 2.522,2.526 0.974,0.852 1.029,0.134 7.058,-0.116 7.418,-2.404 -14.271,-2.267 -0.996,-1.014 -2.035,-3.955 -3.543,-9.67 -0.002,-13.12 2.646,-8.8775 4.716,-10.5262 1.482,-2.5061 3.865,-3.0041 -0.861,-2.0277 m -49.444,767.3946 v 0 l -18.218,-1.702 2.872,-1.905 4.308,-4.284 2.785,-3.809 1.573,-2.637 -0.014,-1.084 -1.315,-1.313 h -1.054 l -2.758,2.651 -1.43,2.381 -5.095,5.095 -2.662,1.692 -3.999,3.873 -1.575,0.226 -1.926,3.391 -1.88,2.007 -0.07,2.572 6.112,3.669 1.626,1.573 10.63,5.574 8.08,-0.011 1.316,-1.324 -0.566,-1.734 -9.171,-2.253 -8.289,-4.252 -3.682,-3.157 10e-4,-0.622 1.339,-1.36 1.026,-0.118 3.027,0.812 1.976,-0.828 5.997,-0.014 14.031,1.833 0.452,-1.338 -0.132,-2.023 -1.323,-1.324 m -14.259,208.131 v 0 l -0.137,4.28 1.606,4.69 0.34,0.88 2.368,1.73 3.077,-0.01 0.724,-0.63 4.602,-11.19 5.866,12.15 0.569,0.52 1.571,-2.14 -4.361,-13.63 -4.982,-21.87 -2.997,-7.99 -1.493,-2.54 -1.496,-1.38 -2.369,0.32 -0.023,2.09 4.383,10.54 2.352,8.34 v 12.12 l -2.357,8.33 -1.503,3.58 -0.509,0.33 -0.746,-0.58 -1.74,-4.73 0.118,-3.05 1.735,-4.88 -0.024,-2.09 -1.901,-0.38 m 46.596,-776.923 v 0 l -8.291,-21.391 -0.722,-0.625 -1.658,-0.047 -2.718,3.37 -0.119,1.023 3.799,15.029 -0.804,-0.027 -1.499,-1.35 -4.085,-0.015 -3.669,1.619 -4.057,3.057 -1.577,2.636 -0.124,7.048 2.693,6.683 3.767,3.674 5.022,0.134 1.486,-0.483 3.306,-3.318 1.224,-2.248 4.111,-12.606 4.054,10.899 2.607,4.475 1.571,-2.148 0.008,-1.118 M -365,113.543 v 0 l -0.149,-4.069 -1.661,-1.759 -2.636,-1.577 h -4.108 l -2.636,1.577 -6.095,6.095 -4.274,7.536 -3.248,-34.6422 -1.693,-0.6723 -1.343,0.4406 -0.028,27.0909 2.589,14.814 1.769,4.559 3.347,5.372 2.612,1.554 2.08,-0.011 5.658,-3.562 3.104,-3.105 3.961,-6.96 2.617,-6.665 M -426,1200.46 v 0 l 0.148,5.07 1.326,1.32 1.026,0.12 1.375,-0.47 2.933,-2.78 2.964,-1.97 3.669,-1.61 1.088,0.02 1.763,1.66 1.051,2.05 2.443,8.39 0.497,0.44 1.579,-2.15 v -7.1 l -2.936,-4.58 -3.4,-2.72 -3.085,-0.02 -3.669,1.62 -4.244,3.09 -1.371,-0.31 -0.023,-4.09 1.852,-4.95 -0.481,-3.29 -1.798,1.62 -2.573,5.62 m -127.971,-136.99 v 0 l -0.016,2.07 4.381,4.5 7.918,4.84 h 9.108 l 2.612,-1.55 2.696,-4.76 v -5.1 l -1.577,-2.64 -6.57,-6.62 -3.577,-5.64 -0.122,-1.05 0.086,-1.63 2.343,-1.73 1.536,0.36 1.519,1.3 0.474,-0.3 0.877,-0.97 0.047,-2.66 -2.342,-1.73 -5.802,1.63 -2.616,3.68 -0.109,1.05 2.678,6.68 3.008,4.01 5.57,5.62 1.577,2.64 v 2.1 l -1.854,2.93 -1.511,0.5 -7.051,-0.12 -5.636,-3.58 -1.31,-1.3 -0.371,-1.08 1.508,-1.2 -4.143,-1.69 -2.02,0.14 m 10.503,-190.674 v 0 l 3.469,2.386 7.08,-0.011 3.762,-3.667 6.393,-12.266 6.009,13.244 2.788,1.661 0.359,-0.301 0.025,-4.076 -8.848,-21.917 -1.514,-0.498 -1.703,0.688 -2.557,12.626 -0.724,1.6 -3.6,7.198 -4.416,2.695 -4.634,-2.912 -2.119,-2.71 -2.718,-9.716 1.839,-5.94 -0.017,-3.087 -1.324,-1.315 -1.745,0.583 -1.768,6.765 0.12,9.053 2.574,5.619 m 52.495,-779.8696 v 0 l -7.488,5.5015 -1.692,2.6623 -2.308,2.3376 -4.571,7.0804 -1.672,-0.0401 -1.976,-0.8339 -2.33,0.4537 0.147,1.3321 1.38,2.364 2.205,1.701 0.087,8.629 -0.837,1.978 -0.134,5.02 1.758,5.755 5.943,7.941 2.101,2.098 11.625,5.578 7.052,0.12 17.804,-1.791 1.545,-1.666 0.014,-1.083 -1.541,-2.216 -3.781,1.599 -1.008,-0.682 -4.026,-0.146 -2.026,0.147 -1.978,0.837 -13.05,-0.123 -8.608,-4.552 -1.553,-2.5 -2.574,-2.626 -2.573,-4.63 -0.123,-12.05 1.005,-2.007 1.539,-0.358 6.882,2.727 9.12,0.002 4.863,-1.678 2.049,-1.169 3.812,-3.831 1.962,-2.962 1.619,-3.6694 v -3.1172 l -2.573,-5.6182 -5.103,-5.108 -2.636,-1.5775 m -20.057,207.7233 v 0 l -2.782,-2.671 -1.962,-2.962 -1.619,-3.669 0.012,-8.107 2.33,2.399 h 9.05 l 3.782,-2.685 1.554,-2.612 0.109,-1.054 -1.722,-4.725 -0.751,-0.777 -2.273,-2.248 -4.731,-1.735 -2.048,0.123 -4.63,2.573 -2.103,2.104 -1.846,3.597 -1.853,7.094 0.118,4.055 1.516,4.702 1.325,3.204 2.742,3.723 2.095,2.095 2.962,1.962 3.669,1.619 5.053,0.12 5.442,-1.986 0.042,-0.433 -0.475,-1.547 -1.003,-0.819 -2.004,0.784 -4.99,10e-4 m -43.826,638.202 v 0 l 3.035,5.002 3.06,3.059 4.725,1.722 4.42,-1.925 -0.072,-1.572 -0.579,-0.686 -6.729,-1.753 -0.825,-0.845 -3.029,-4.972 -2.672,-6.724 0.002,-3.991 0.484,-1.306 0.6,1.936 2.346,1.728 2.047,0.124 7.085,-1.879 1.896,-1.085 1.758,-1.775 1.621,-4.749 -2.535,-7.648 -2.764,-1.711 -8.08,0.01 -3.762,3.668 -2.221,4.216 -2.357,5.409 -0.133,8.059 0.137,2.054 m 24.314,-298.511 v 0 l 9.413,-6.912 -0.365,-1.113 -1.027,-0.84 -5.697,2.572 -1.586,1.535 -5.38,3.43 -5.62,5.57 -2.38,1.43 -2.095,2.095 -1.916,2.874 -2.466,-11.785 -1.291,-1.423 -0.893,0.997 -0.02,3.09 2.527,18.827 1.869,7.526 1.424,3 1.894,-0.388 0.142,-2.022 -2.853,-8.946 0.017,-4.086 3.136,-3.284 2.244,-3.214 2.661,-1.691 5.62,-5.57 m 53.168,366.763 v 0 l 3.838,3.81 2.252,1.228 15.377,6.344 1.536,-0.36 1.893,-2.02 -3.649,-2.73 -9.453,-3.426 -5.956,-3.036 -3.658,-3.759 0.155,-1.331 1.402,-2.388 3.813,-3.833 4.282,-3.262 3.322,-1.792 1.706,-2.423 -1.707,-2.365 -10.321,6.58 -4.095,4.095 -3.577,5.636 -0.108,1.056 0.468,1.48 m 39.5,-589.51 v 0 l 1.496,0.497 1.789,-0.779 14.432,-19.38 3.57,-3.62 1.692,-2.662 3.308,-3.338 3.566,-4.664 -0.323,-2.369 -3.054,-0.009 -1.497,1.38 -1.692,2.662 -3.57,3.62 -1.43,2.38 -3.57,3.62 -3.43,5.38 -6,8 -2.57,2.62 -1.433,2.379 -0.784,0.609 -1.004,-0.598 -0.332,0.276 -0.013,3.049 m -31.627,528.496 v 0 l -2.807,-2.831 -3.566,-4.664 -0.132,-2.022 0.455,-1.347 2.054,-0.008 1.766,1.562 2.165,-1.694 16.039,-0.002 3.031,0.827 1.324,-1.316 -10e-4,-2.049 -0.604,-0.706 -4.686,-1.639 -7.057,-0.117 -3.007,0.97 -5.992,-10e-4 -1.339,-0.455 0.333,-1.51 1.787,-1.829 1.43,-2.38 4.57,-4.62 1.538,-2.662 -1.297,-1.379 -2.052,-10e-4 -1.608,0.926 -4.151,4.736 -6.001,8.004 -3.557,7.679 4.558,7.697 7.101,7.098 9.629,4.568 1.535,-0.354 0.871,-0.976 -10e-4,-2.05 -0.674,-0.768 -9.36,-4.42 m 64.362,-131.004 v 0 l 5.114,-5.106 2.462,-4.869 0.438,0.396 1.894,11.269 1.442,-0.126 0.758,-0.665 4.426,-8.367 3.005,-4.006 0.755,-0.658 1.46,-0.118 1.907,8.425 -0.824,2.044 v 16.994 l 0.483,1.485 1.999,1.815 0.749,-0.573 1.74,-4.73 -0.119,-23.055 -1.635,-4.685 -1.048,-1.043 -4.629,-2.567 -1.536,0.354 -1.042,1.03 -3.694,5.661 -1.276,0.712 -2.841,-5.78 -1.13,-0.169 -3.015,-7.426 -2.806,-2.781 -7.908,-2.522 0.944,-1.002 2.615,-6.663 v -8.117 l -1.71,-3.757 -4.602,-2.546 -3.115,-0.006 -4.887,1.661 -3.737,1.919 -4.625,4.573 -2.498,1.549 -1.554,2.612 0.021,2.077 0.775,0.475 1.454,6.893 2.511,22.828 0.898,4.811 1.176,2.937 1.526,1.332 0.974,-0.642 h 1.054 l 1.976,0.828 11.051,-0.123 m 10.183,-82.114 v 0 l -2.574,6.56 -5.909,3.01 -11.695,4.547 -4.478,0.109 -3.067,-21.481 v -7.986 l 1.826,-11.966 -0.706,-1.672 4.442,-3.059 4.863,-1.678 6.087,0.016 1.759,1.662 1.577,2.636 v 7.108 l -2.541,4.599 -4.73,1.701 -1.471,0.978 0.031,1.696 1.323,1.323 1.03,0.134 4.022,-0.133 0.945,-0.694 1.088,-0.019 5.618,2.567 1.055,1.048 1.636,4.685 m 693.655,292.601 v 0 l -2.997,-2.89 -1.03,-0.14 -8.05,0.13 -4.63,2.57 -3.109,3.11 -2.573,5.62 0.004,4.11 2.936,4.58 7.399,5.72 5.051,-0.01 -0.3,-1.09 -3.539,-1.59 -1.52,-2.47 -3.86,-2.92 6.86,-2.44 5.025,-3.05 2.098,-2.1 2.574,-4.63 M -499.681,163.751 v 0 l 14.177,0.234 3.007,-0.97 5.997,-0.014 2.026,0.147 1.974,0.821 3.003,-0.954 4.997,-0.014 2.026,0.147 1.977,0.837 4.997,0.014 2.026,-0.147 1.977,-0.837 13.99,-10e-4 14.014,1.972 5.019,-0.134 1.977,-0.837 13.99,-10e-4 20.014,2.972 15.989,-0.002 1.347,-0.456 0.14,-1.027 -0.065,-1.543 -2.022,-0.785 -25.585,-2.24 -49.769,-2.773 -2.046,0.825 -29.996,0.015 -3.026,-0.148 -0.945,-0.694 -1.092,-0.024 -8.875,1.736 -4.055,0.116 -19.007,-2.985 -12.997,0.014 -2.003,0.784 -0.974,-0.652 -3.08,-0.009 -2.342,1.729 0.047,1.661 1.323,1.323 7.022,0.134 3.007,-0.97 8.99,-10e-4 m -36.494,961.446 v 0 l -0.143,2.06 -0.708,0.95 -0.016,3.09 1.639,4.69 0.705,0.59 1.053,-0.01 0.456,-3.33 -0.837,-1.97 -0.017,-3.09 2.567,-7.6 4.118,-4.13 9.158,-5.24 1.882,-1.97 -1.383,-0.34 -0.973,0.64 -1.034,-0.63 -3.692,1.52 -9.086,6.02 -2.482,-8.99 -0.682,-0.56 h -1.053 l -0.455,1.34 -10e-4,5 0.97,3 m 25.828,-406.778 v 0 l -9.635,6.57 -7.354,3.417 -0.665,0.766 -10e-4,1.052 1.379,1.306 9.691,-3.587 10.956,-6.957 1.638,-1.817 -1.689,-2.368 -1.689,0.035 M -535.457,915 v 0 l -4.069,0.147 -0.98,0.653 -0.356,-2.354 4.854,-7.923 1.511,-0.508 3.023,0.133 2.325,2.326 v 5.05 l -3.297,2.338 m 42.008,-703.849 v 0 l 1.865,-3.993 9.805,1.732 4.612,9.134 2.999,-0.358 0.019,-2.082 -4.188,-9.22 -3.349,-9.454 -5.033,-10.95 -2.767,-3.663 -1.728,0.56 -2.388,13.47 -5.254,20.3 1.714,2.376 1.146,-0.396 m 69.984,-6.925 v 0 l 0.149,-5.07 0.837,-1.978 10e-4,-6.99 -2.652,-8.705 -2.046,-3.985 -5.816,-5.839 -3.944,-2.819 h -1.055 l -1.302,1.376 1.583,3.691 0.748,0.572 0.999,-0.596 0.474,0.299 5.318,5.323 3.573,8.618 0.003,11.121 -2.36,10.309 -2.374,7.258 2.336,1.692 0.814,-0.637 1.919,-3.742 2.661,-7.883 m 5.136,12.898 v 0 l 0.494,2.343 1.45,-0.804 3.699,-13.3 2.198,-6.189 -1.711,-2.372 -1.38,0.644 -4.617,13.662 m -122.091,568.107 v 0 l -1.328,-1.358 -3.577,-5.636 0.025,-2.076 0.637,-0.151 4.646,2.535 h 3.108 l 2.754,-1.697 1.984,-2.987 2.574,-5.619 v -3.118 l -1.617,-3.666 -2.059,-2.06 -2.636,-1.577 -6.113,-0.004 -3.906,1.837 -1.737,2.654 -2.667,9.813 10e-4,3.123 1.678,4.863 3.901,6.76 5.064,5.065 3.667,1.616 2.086,-0.023 0.313,-1.367 -0.364,-0.483 -3.975,-2.991 m 57.475,316.529 v 0 l -0.445,-1.37 -2.086,-0.02 -6.63,3.57 -8.109,8.11 -2.55,5.67 1.558,2.7 4.101,4.1 6.63,3.57 8.082,-0.02 0.313,-1.36 -0.596,-0.71 -9.424,-3.48 -4.82,-3.79 -0.843,-0.97 -0.014,-1.09 1.571,-2.63 7.095,-7.1 6.111,-3.66 m -4.921,63.49 v 0 l -0.135,-10.1 -1.819,-3.36 -1.889,0.39 -0.009,4.06 0.837,1.97 10e-4,8.99 -4.972,30.02 0.135,6.02 1.387,1.36 1.916,-6.79 1.537,-7.87 0.676,-1.37 7.025,-1.75 2.216,-1 -2.351,-1.97 -3.059,0.84 h -2.993 l -1.34,-0.51 2.707,-14.91 m 96.131,-548.104 v 0 l 0.133,3.103 2.545,6.631 4.011,6.971 2.756,1.701 4.08,-0.019 1.451,-1.99 -5.285,-2.69 -2.017,-3.936 -2.535,-6.668 0.031,-1.086 0.804,0.027 1.499,1.351 2.084,0.014 3.667,-1.616 2.06,-2.059 1.577,-2.636 0.123,-2.048 -1.703,-4.697 -3.756,-2.661 h -4.052 l -4.767,4.675 -2.573,5.618 m 4.884,1.098 v 0 l 0.117,-2.089 1.842,-2.922 2.523,-2.327 1.633,0.873 1.705,2.426 -1.532,2.666 -5.778,2.663 M -489.574,86.15 v 0 l 2.13,-0.0165 3.669,1.617 2.06,2.0593 2.566,3.6638 v 5.0528 l -2.566,3.6636 -2.115,2.108 -1.746,0.892 -5.93,1.796 -5.053,-0.12 -7.624,-3.581 -0.639,-0.815 2.533,-4.6537 3.004,-4.0065 5.101,-5.0985 m 7.17,108.8247 v 0 l 0.145,-2.092 1.51,-3.044 3.679,7.341 1.509,3.732 -0.307,0.364 h -8.043 l -0.199,-0.582 M -457,1110.54 v 0 l -0.138,-6.09 -2.338,-3.3 -3.078,-0.01 -2.612,1.55 -2.12,3.12 -1.921,3.74 -1.661,4.89 v 6.12 l 1.636,4.69 1.306,1.88 3.742,3.16 4.629,2.57 2.028,-0.7 2.033,0.64 0.335,-1.32 -0.616,-0.73 -3.45,-1.5 -4.954,-4.31 -2.687,-5.38 -0.002,-3.12 3.402,-8.42 1.964,-1.88 0.486,1.36 0.001,8 -0.955,3 0.308,1.33 0.979,1.18 3.549,-7.45 m -86.051,-338.281 v 0 l -1.666,-1.753 -0.133,-1.03 0.118,-2.055 1.584,-3.632 2.728,-1.672 4.05,-0.122 1.486,0.482 1.869,1.977 0.135,3.02 -2.697,5.689 -1.763,1.668 h -2.052 m 33.509,-594.311 v 0 l -0.141,-3.068 -1.37,-0.314 -3.757,3.652 -4.224,7.222 -2.477,6.474 v 11.988 l 1.796,5.93 1.169,2.049 2.775,2.759 4.684,1.63 1.334,-0.145 4.939,-2.421 -1.21,-1.095 -1.038,0.632 -4.887,-1.644 -2.869,-2.012 -2.573,-5.618 -0.12,-11.053 3.482,-8.473 1.482,-2.506 2.877,-3.006 m 97.292,205.935 v 0 l -0.642,1.525 -8.401,7.886 0.047,1.661 1.322,1.314 1.508,-0.34 12.042,-12.03 1.692,-2.662 10.57,-10.62 1.692,-2.662 5.874,-7.002 0.132,-2.022 -0.455,-1.347 -2.054,-0.008 -1.497,1.379 -5.692,7.662 -5.57,5.62 -1.43,2.38 m 35.576,-101.687 v 0 l -0.714,0.962 -0.247,1.682 -1.798,1.706 0.046,2.673 1.36,1.338 1.96,-1.888 4.262,-9.195 1.727,-1.762 2.104,0.112 5.877,1.738 4.608,0.21 4.705,11.142 0.726,0.629 2.049,10e-4 1.296,-1.379 -9.199,-25.264 -3.617,-16.851 -0.819,-1.23 -1.712,0.024 -0.693,0.59 -3.274,12.192 -4.223,11.26 -1.327,1.814 m -143.495,-5.991 v 0 l 3.519,0.481 1.869,1.977 0.047,2.659 -2.344,1.729 -4.051,0.123 -1.976,-0.828 -2.033,0.643 -0.356,-2.354 1.554,-2.612 2.758,-1.699 m -28.465,719.325 v 0 l 0.169,2.06 0.895,0.529 1.411,2.977 4.247,11.154 1.374,1.96 4.426,2.7 3.721,-1.59 4.795,-3.778 1.692,-2.662 3.57,-3.62 4.538,-7.669 -2.323,-0.519 -2.507,0.521 -2.704,4.661 -3.574,3.626 -1.43,2.38 -2.095,2.095 -3.69,2.515 -2.788,-2.616 -1.227,-2.251 -4.258,-12.183 -1.98,-3.975 -0.723,-0.616 -1.051,-10e-4 -1.315,1.315 m 137.98,-764.606 v 0 l -0.02,1.303 1.471,0.975 5.917,1.841 7.048,-0.124 3.696,-2.637 1.61,-3.665 v -1.121 l -2.567,-5.616 -10.578,-10.633 -1.538,-2.662 1.297,-1.379 5.023,-0.134 1.51,0.507 1.707,2.187 1.137,-1.183 v -2.052 l -3.325,-3.325 -7.08,-0.011 -2.636,1.577 -1.661,1.759 -0.135,3.02 1.701,3.696 10.57,10.62 1.577,2.636 -0.011,3.08 -1.325,1.325 -2.019,0.134 -9.063,-1.84 M -397.457,824 v 0 l -5.071,0.157 -0.441,1.343 0.67,1.691 17.756,1.651 1.043,-0.642 0.973,0.643 1.368,-0.314 0.044,-1.685 -5.326,-2.71 M -394,839.456 v 0 l 0.138,3.098 1.579,2.635 0.758,0.652 1.367,-0.313 0.01,-3.054 -0.837,-1.978 -0.014,-3.996 0.147,-2.026 0.821,-1.974 -0.466,-1.481 -0.976,-0.861 -1.507,0.339 -0.871,0.976 m 6.958,-103.998 v 0 l 1.903,11.719 1.49,2.602 0.786,-0.613 4.427,-8.369 2.001,-2.523 2.546,2.501 2.71,11.711 -0.955,3 0.134,8.023 1.321,1.323 1.462,0.117 1.938,-8.404 0.116,-9.056 -1.779,-5.954 -1.919,-3.737 -4.155,-4.713 -1.633,-0.085 -1.998,0.983 -3.754,4.699 -1.613,-3.141 -0.238,-2.691 -2.206,-1.625 -1.513,2.23 m 3.066,-29.144 v 0 l -0.095,7.198 1.348,1.271 0.714,-0.531 2.775,-14.773 -0.002,-9.99 -0.455,-1.338 -1.727,0.547 M 282.871,488.499 v 0 l -1.706,-2.807 -5.611,-3.554 -6.08,0.01 -1.608,0.926 -1.728,2.372 -0.123,4.05 0.828,1.977 -0.828,3.03 0.133,3.023 1.325,1.325 7.081,0.011 2.636,-1.577 5.312,-5.303 0.482,-1.485 m -689.432,494.677 v 0 l -1.394,1.299 v 1.054 l 1.599,1.705 9.131,2.749 2.085,13.479 0.5,0.39 1.435,0.13 2.185,-12.96 3.433,0.128 0.945,0.694 1.092,0.023 6.371,-1.84 -1.273,-1.034 -7.099,-1.861 -4.463,-0.147 -2.902,-26.272 -0.701,-0.508 -1.347,1.271 -0.134,1.029 v 17.993 l 0.837,1.978 -0.009,3.053 -1.404,0.335 M 343.978,249.478 v 0 l 2.821,3.022 -1.629,1.798 -1.746,0.892 -4.862,1.672 h -1.125 l -4.848,-1.718 -1.469,-0.976 0.019,-1.724 1.553,-2.61 2.754,-1.696 7.08,0.011 M -541.141,714.58 v 0 l 0.01,-11.142 -1.658,-6.706 -0.711,-0.526 -0.689,0.493 -2.797,27.807 0.124,5.048 1.731,2.339 1.286,-0.011 2.616,-5.2 -1.743,-2.133 m 23.2,68.702 v 0 l -3.103,2.228 1.346,1.362 1.084,0.015 7.635,-4.571 3.096,-2.994 1.569,2.153 -1.826,13.057 0.304,1.322 1.187,1.376 1.548,-3.203 1.917,-10.503 -0.119,-2.052 -2.814,-6.357 -1.581,0.067 -4.281,4.134 M -432.128,282.5 v 0 l -2.949,5.632 -2.369,1.73 -3.078,-0.011 -3.328,-4.325 10e-4,-8.052 2.661,-2.759 2.636,-1.577 3.08,0.01 1.534,0.903 1.688,2.649 0.76,-0.499 0.322,0.274 -0.682,1.999 m -31.638,515.544 v 0 l -9.73,-4.705 -3.913,-2.387 -1.729,-2.373 0.011,-4.079 3.085,-3.169 1.564,3.971 6.708,1.71 13.99,-10e-4 1.978,-0.837 2.026,-0.147 3.996,0.014 3.031,0.827 2.315,-2.315 v -1.055 l -2.316,-2.324 -1.03,-0.133 -4.059,0.114 -13.944,1.857 h -3.987 l -9.207,-2.728 5.511,-5.543 5.38,-3.43 1.312,-1.303 0.34,-2.51 -1.34,-0.441 -1.309,0.283 -6.377,3.397 -11.101,11.099 -1.562,2.703 2.561,8.671 3.1,2.103 14.632,7.575 3.6,0.06 1.814,-3.363 -0.354,-1.359 -0.98,0.652 -2.022,0.132 M 273.522,634.049 v 0 l -0.761,-0.811 -3.066,-11.687 -4.483,-24.819 -0.69,-0.582 -2.048,-10e-4 -1.309,1.389 2.704,10.9 0.081,6.532 -7.257,2.867 -3.559,7.604 0.003,7.113 1.84,2.918 2.496,2.379 1.027,0.118 1.482,-0.467 2.151,-1.576 4.697,-6.819 1.643,1.919 2.238,4.158 2.314,2.315 0.773,0.005 -0.641,-0.977 0.645,-2.032 m -753.94,417.005 v 0 l -1.336,-1.35 -3.08,-0.01 -2.636,1.57 -5.829,5.79 -1.506,0.33 0.026,-0.81 1.298,-1.52 -0.598,-1 2.637,-4 -1.705,-2.4 -1.659,0.06 0.355,1.37 -3.697,9.91 0.017,4.09 1.351,1.27 0.475,-0.3 5.835,-5.79 2.662,-1.69 3.002,-2.87 1.026,-0.12 1.343,0.44 0.142,5.03 -0.837,1.97 -0.131,2.03 0.478,1.3 0.48,-0.3 2.887,-3.95 0.123,-6.05 m 124.02,-787.972 v 0 l 3.745,-9.221 5.115,14.134 -0.028,2.08 -0.607,0.181 -9.983,-3.416 1.618,-2.735 m -154.844,383.917 v 0 l 0.471,1.508 2.223,3.214 3.101,3.098 6.684,3.55 2.393,-1.708 0.024,-1.173 -8.225,-4.791 -1.91,-2.903 -1.753,-6.763 2.618,-10.65 2.067,-4.034 0.762,-0.667 3.05,-10e-4 2.976,2.871 0.354,1.536 -1.571,2.635 -1.758,1.652 -2.001,-0.694 -3.054,0.009 -0.314,1.37 1.617,1.722 3.718,1.594 2.979,-1.82 1.813,-1.833 1.577,-2.636 -0.011,-5.081 -1.925,-2.607 -3.4,-2.718 h -5.052 l -2.618,1.933 -2.359,3.946 -1.618,4.104 -1.749,8.307 -0.114,2.058 0.836,1.978 m 806.955,-411.97 v 0 l -2.519,-4.688 -2.52,-2.57 -1.755,-4.714 -0.516,-0.329 -1.349,1.271 -0.134,3.019 1.792,12.187 2.184,-6.484 3.51,3.603 m -34.354,862.621 v 0 l 10e-4,2.1 1.381,1.3 15.951,-9.64 0.504,1.32 -0.116,2.06 -1.7,4.9 1.125,1.25 3.003,-3.55 2.568,-7.6 -0.023,-1.09 -3.347,-2.31 -5.671,2.55 -7.295,5.13 -1.056,-0.01 -0.455,-2.33 0.836,-1.97 0.133,-5.03 -0.482,-1.48 -1,-0.82 -0.709,0.52 -2.415,11.41 M -543,1198.46 v 0 l 0.133,11.1 2.049,4.35 1.68,-2.36 0.124,-1.06 -10e-4,-3.99 -0.835,-1.97 -0.046,-1.66 2.92,-2.4 1.691,-2.66 4.813,-4.83 2.662,-1.7 5.61,-5.79 -1.304,-0.47 -2.022,0.13 -3.664,2.56 -3.62,3.57 -2.356,1.41 -1.549,2.5 -2.51,2.5 -3.543,-14.93 -0.708,-0.6 h -1.053 l -0.457,3.33 1.855,7.95 m 790.11,-185.91 v 0 l -0.293,-1.34 -1.678,-2.67 -1.508,-0.49 -1.482,0.47 -5.311,5.32 -2.066,4.9 -1.612,5.78 1.781,5.92 1.168,2.05 1.845,1.82 7.622,3.57 1.355,-0.35 -0.301,-0.49 -4.515,-4.52 -1.118,-0.57 -2.718,-3.4 -0.134,-6.02 2.693,-6.69 1.798,-1.62 0.357,2.35 -3.714,5.92 -0.132,1.03 0.456,2.34 2.052,0.01 0.759,-0.66 4.579,-7.64 M -456.703,656.173 v 0 l 0.423,-0.458 -1.262,-0.588 -20.534,-2.198 -3.11,-1.643 -1.665,-1.76 -0.011,-5.08 5.577,-9.636 8.06,-8.06 3.666,-1.616 2.085,0.014 0.974,0.651 1.342,-1.272 -0.339,-1.507 -0.977,-0.872 -4.08,-0.01 -7.636,4.577 -5.095,5.095 -3.003,4.006 -2.92,5.736 -1.66,4.887 0.006,3.115 1.946,3.589 1.938,1.325 3.389,1.666 6.028,1.735 9.054,0.117 m 20.771,333.072 v 0 l 4.243,-1.044 3.989,10e-4 1.978,0.836 2.05,-0.014 -0.626,-3.97 -2.344,-1.729 -1.06,-0.124 -3.056,0.117 -19.313,3.377 -6.591,1.47 -0.375,0.498 0.338,1.504 0.977,0.871 1.03,0.134 5.989,10e-4 M -526.74,291.218 v 0 l -5.699,1.65 -2.122,0.001 -8.612,-2.525 -3.99,-2.035 -1.704,-2.207 -0.588,-0.084 -2.388,0.454 -0.008,3.054 2.667,2.762 4.011,2.056 9.679,2.642 5.055,-0.119 4.685,-1.635 2.039,-2.042 1.577,-2.636 0.004,-4.113 -3.578,-7.625 -3.098,-3.101 -9.356,-6.409 -2.662,-5.771 0.645,-0.821 4.629,-2.576 3.112,-0.003 2.532,1.598 -0.637,1.117 1.097,0.121 2.132,-2.167 0.159,-1.331 -0.658,-0.76 -4.629,-2.575 -3.113,-0.004 -5.618,2.573 -3.674,3.767 -0.014,2.084 1.618,3.67 2.749,3.774 5.314,4.287 4.368,2.422 1.101,1.099 1.962,2.962 1.619,3.669 0.119,3.056 m 820.844,721.953 v 0 l -0.327,2.53 -2.312,2.3 -2.962,1.97 -3.67,1.62 -3.055,0.11 -1.326,-0.5 2.534,-4.66 2.099,-2.11 2.636,-1.57 5.05,-0.12 M 277.807,487.289 v 0 l 2.165,2.161 -0.123,1.078 -3.659,3.757 -2.636,1.577 -5.078,-0.024 0.603,-1.999 1.631,-1.55 -0.508,-0.792 0.298,-0.472 3.31,-3.31 2.662,-1.538 m -655.431,210.307 v 0 l 3.198,2.163 9.947,5.066 6.004,4.002 3.282,3.127 1.37,-0.315 0.009,-2.053 -4.379,-5.497 -4.288,-3.265 -7.37,-4.2 5.996,-5.797 3.692,-2.734 0.34,-1.508 -1.316,-1.324 h -2.052 l -8.29,7.14 -4.368,2.422 -1.671,1.771 m -22.638,416.488 v 0 l -1.478,4.53 1.865,7.08 0.805,1.58 2.016,3.03 3.101,3.1 4.629,2.57 1.084,-0.02 2.17,-2.09 -4.877,-2.46 -2.107,-2.1 -3.577,-5.64 0.02,-2.08 1.369,-0.31 0.947,0.69 2.08,0.01 2.636,-1.58 3.099,-3.1 2.573,-4.63 -0.011,-5.07 -3.297,-2.34 h -5.108 l -2.636,1.57 -4.062,4.07 M 264.065,617.066 v 0 l 1.786,4.434 -2.6,7.72 -1.966,2.97 -2.783,2.608 -2.364,-3.244 -0.123,-5.051 0.783,-2.001 -0.51,-0.797 1.211,-1.706 -0.203,-0.282 2.014,-1.552 1.556,-2.063 2.368,-0.231 m 24.452,-354.459 v 0 l -1.552,8.025 0.363,1.542 1.003,0.82 1.71,-1.524 1.776,-8.782 -0.002,-3.989 -0.455,-1.339 -1.75,0.58 m -15.061,182.45 v 0 l -3.569,-4.669 v -2.052 l 3.325,-3.325 5.052,0.702 1.758,-1.661 1.539,-2.662 -1.297,-1.38 -4.085,-0.014 -7.625,3.578 -1.066,1.063 -1.616,3.666 0.004,2.113 5.577,7.636 3.785,3.827 0.356,1.138 -5.298,2.711 -1.065,0.119 -2.052,-0.119 -3.666,-1.616 -1.248,-1.092 h -1.055 l -1.323,1.316 v 2.05 l 0.373,0.482 2.053,1.184 4.862,1.672 1.126,0.002 6.025,-1.731 3.574,-1.824 1.694,-2.753 v -1.112 l -1.571,-2.634 m -648.6,-324.132 v 0 l -4.396,8.506 -3.099,3.101 -2.635,1.571 -1.084,-0.014 -1.759,-1.658 -3.578,-7.625 0.029,-2.083 2.98,0.414 4.569,-8.074 5.306,-5.318 1.486,-0.483 2.629,0.087 1.729,2.344 0.006,3.115 m -84.658,951.959 v 0 l 0.593,-0.03 m 14.079,32.02 v 0 l -1.653,-4.76 -0.705,-0.59 h -1.051 l -1.324,1.31 -0.133,2.03 0.48,1.48 2.327,3.49 -0.624,1.04 1.328,0.33 1.324,-1.31 m 23.153,-260.058 v 0 l 2.825,9.001 -0.308,0.363 -2.081,0.031 -4.34,-1.877 3.617,-8.696 m -25.888,291.256 v 0 l -1.633,-13.84 -0.7,-0.51 -1.347,1.27 -0.134,1.03 0.134,11.03 1.325,1.32 m -3.474,65.69 v 0 l 0.132,-2.1 1.619,-3.67 3.049,-3.28 -2.724,-0.52 -2.048,-9.43 -0.922,-0.48 -3.976,26.38 -0.114,4.06 0.479,1.3 1.811,-1.64 0.742,-1.47 M 276.79,430.478 v 0 l -0.593,0.027 m -740.746,290.333 v 0 l 2.392,-0.311 0.008,-3.049 -0.548,-0.667 -26.002,-2.561 1.509,-1.535 2.38,-1.43 3.62,-3.57 2.498,-1.55 1.515,-2.637 -2.323,-2.327 -6.31,6.084 -5.324,3.789 -5.368,5.944 -0.482,1.486 0.122,2.05 3.574,6.63 7.063,7.065 4.731,1.736 2.02,-0.134 0.974,-0.877 -0.588,-2.131 -7.218,-3.677 -1.671,-2.638 -2.312,-2.344 -2.534,-4.657 0.843,-1.03 1.539,-0.357 2.112,0.815 14.832,2.015 3,-0.955 5.023,0.133 M 269.138,486.499 v 0 l 1.336,-1.35 3.24,0.162 -5.219,4.489 -0.337,-1.327 M 279.829,252.45 v 0 l -0.327,2.532 -7.353,7.492 v 2.052 l 1.354,1.273 8.782,-8.609 1.577,-2.636 -0.011,-4.077 -0.626,-0.724 -3.666,-1.619 -2.053,-0.119 -8.207,1.822 -2.766,1.136 -3.667,3.101 -2.095,2.677 -1.634,4.687 v 1.124 l 1.656,4.886 1.919,3.737 3.11,3.107 4.663,1.96 6.012,1.601 5.189,-2.072 -10.259,-2.646 -3.612,-1.847 -2.332,-3.357 -2.343,-5.371 0.175,-1.368 2.396,-4.376 2.078,-2.074 9.649,-2.611 m -705.399,20.397 v 0 l 0.457,-1.334 0.341,2.329 -0.676,-0.003 m 658.82,738 v 0 l -1.481,0.28 -1.028,-0.62 -15.912,5.68 -1.567,0.07 -2.828,-9.39 0.634,-1.04 -2.299,-2.3 -1,0.83 0.299,1.47 -0.652,0.97 -0.132,3.03 0.482,1.48 1.354,1.49 0.135,5.02 -1.847,4.95 0.704,2.03 -0.642,2.03 1.05,1.28 3.736,9.69 1.542,0.36 0.313,-1.36 -0.642,-0.97 0.637,-1.04 -1.707,-6.9 -0.048,-6.61 18.851,-7.44 2.542,-1.51 0.021,-0.98 m 32.292,-526.506 v 0 l -1.263,-1.365 -5.501,-0.2 -2.519,-4.932 -0.499,0.051 -4.872,14.373 0.023,5.087 1.367,0.313 0.705,-0.595 1.758,-4.714 1.51,0.265 0.72,-0.538 1.578,-5.535 6.673,-1.709 m -791.16,640.785 v 0 l 1.668,2.67 1.748,1.74 11.739,2.62 1.01,-0.67 2.033,0.64 0.324,-0.28 -0.608,-1.77 -11.782,-3.7 -1.317,-0.87 -0.109,-4.67 0.298,-1.31 3.403,-5.39 6.759,-6.66 2.054,0.01 0.328,1.39 -3.93,5.58 -2.777,2.35 0.009,2.05 1.346,0.45 2.022,-0.13 4.759,-4.66 1.962,-2.96 1.619,-3.67 -0.015,-3.09 -1.869,-1.97 -1.486,-0.48 -2.055,0.11 -3.669,1.62 -2.962,1.96 -5.833,5.82 -4.843,9.91 m 44.395,-843.462 v 0 l -0.514,1.52 v 8.998 l 0.482,1.484 1.003,0.819 1.465,-0.813 4.788,-13.213 1.962,-2.963 2.759,-2.661 h 3.052 l 0.972,0.851 1.816,2.774 1.552,3.667 -0.014,4.085 -0.695,0.947 0.686,2 -0.643,2.033 0.275,0.324 2.022,-0.627 0.733,0.492 1.637,-4.135 -0.005,-7.114 -3.574,-6.63 -1.821,-1.844 -3.909,-1.838 -2.112,0.004 -2.636,1.577 -4.743,5.039 -2.749,-10.465 -0.543,0.462 -1.608,4.712 0.818,2.04 v 6.993 m 47.25,354.211 v 0 l 1.726,16.751 1.512,1.384 h 1.054 l 1.272,-1.342 -0.995,-1.204 -1.764,-15.755 -0.839,-1.04 0.599,-1.007 -1.327,-0.336 -0.453,0.339 -0.861,0.973 m -33.478,561.23 v 0 l -2.184,4.1 -1.423,-0.8 -1.865,-7.69 -1.06,1.16 -0.011,6.08 1.402,2.46 1.916,1.97 2.526,-0.48 2.311,-2.32 4.573,-10.62 -0.015,-4.09 -2.388,-2.36 m -48.96,-255.965 v 0 l -5.345,5.327 0.339,1.508 0.976,0.862 h 1.054 l 5.945,-4.692 1.076,-0.122 2.307,2.416 0.005,1.116 -2.535,6.667 -2.039,3.957 -0.76,0.666 -1.659,0.25 -1.723,2.345 0.875,2.057 1.485,0.483 6.058,-0.115 14.069,-2.861 1.216,-0.823 -0.866,-1.689 -1.485,-0.482 h -5.992 l -1.978,0.837 -4.054,-0.01 -0.328,-1.397 2.215,-5.169 1.501,-5.837 -1.937,-4.571 -2.369,-1.73 -3.08,0.01 -0.948,0.704 m 75.988,-319.69 v 0 l -0.496,1.332 0.13,2.032 1.145,1.297 2.991,5.88 1.571,-2.147 0.005,-1.116 -3.815,-7.359 m -88.06,448.379 v 0 l 0.15,2.09 2.576,4.63 3.064,3.07 4.731,1.74 4.991,-0.01 1.786,-0.79 1.54,-2.67 -0.3,-0.35 -1.997,0.68 -3.02,0.14 -4.731,-1.74 -3.06,-3.06 -1.577,-2.64 -0.124,-1.06 0.124,-7.04 2.573,-4.63 2.763,-2.67 1.03,-0.13 2.339,0.45 0.143,4.02 -2.848,6.96 0.019,2.08 2.889,0.39 2.274,-4.64 1.666,-4.79 -0.135,-6.02 -1.869,-1.97 -1.486,-0.49 -5.05,0.13 -2.636,1.58 -3.098,3.1 -1.919,3.73 -1.661,4.89 0.016,3.09 M 207.865,444.924 v 0 l 2.609,1.927 4.08,0.011 2.636,-1.577 5.913,-6.195 4.43,9.887 1.963,1.875 -0.339,-2.38 0.672,-1.006 -6.821,-19.936 -0.983,-0.03 -1.525,1.299 -2.004,-0.784 -4.05,0.123 -4.63,2.573 -4.101,4.099 -1.571,2.634 -0.004,1.116 1.613,3.668 m -38.31,658.822 v 0 l 1.398,-1.52 -0.314,-1.37 -7.021,-0.15 -3.528,1.05 -18.485,2.93 -39.9896,-0.01 -3.0034,-0.95 -3,0.94 -2.0422,-0.81 -14.9648,1.83 h -9.9865 l -17.6782,-3.61 -9.3345,-3.37 -11.0554,0.12 -14.9451,2.86 H 2.50671 l -26.36841,-1.96 -10.6448,-2.02 h -11.9901 l -1.9775,0.84 -2.0203,0.13 -2.7422,-1 -7.523,-1.4 -11.7404,-1.58 -7.9933,0.01 -23.9637,1.83 -2.047,-0.83 -6.058,0.12 -11.424,3.02 -10.033,1.76 -5.447,1.92 -1.074,-0.67 -6.898,1.71 -5.058,0.11 -1.305,-0.48 0.302,-0.48 1.784,-1.83 1.43,-2.38 6.136,-6.28 -0.009,-3.06 -1.367,-0.31 -4.452,5.31 -10.551,10.55 -4.949,2.97 -0.623,2.14 -5.402,4.89 -0.34,1.51 1.658,1.76 10.369,5.42 9.98,6.98 3.128,4.13 2.664,5.06 0.523,-0.01 1.371,-1.34 0.011,-3.08 -2.84,-4.92 -3.832,-3.82 -4.006,-3 -13.367,-7.42 -0.615,-0.79 0.298,-0.47 0.999,-0.83 1.001,0.6 0.474,-0.3 0.876,-0.97 0.255,-1.67 1.968,-1.35 4.384,-1.52 19.865,-2.66 19.16,-4.28 21.0248,-2.04 h 5.9895 l 2.0458,0.83 14.951,-1.83 17.6253,2.98 3.3516,1.85 8.9676,-1.71 5.0559,-0.12 9.0703,2 34.94285,2.98 4.05573,-0.12 17.94392,-2.86 h 12.9881 l 8.6339,3.13 16.3713,2.86 16.9966,-0.02 1.9776,-0.83 3.0261,-0.15 23.9961,0.01 3.008,0.97 2.022,-0.13 0.974,-0.65 0.974,0.65 2.022,0.13 3.007,-0.97 h 6.993 l 1.978,0.84 3.019,0.14 24.47,-3.86 m 39.529,-482.148 v 0 l 3.949,1.883 2.113,-0.003 2.636,-1.577 2.095,-2.095 1.577,-2.636 0.137,-3.054 -0.137,-2.054 -1.697,-2.754 -2.611,-1.554 -5.054,-0.137 -2.059,0.133 -3.666,1.616 -1.909,1.324 -3.155,3.742 -2.573,4.63 -0.004,2.112 2.617,6.666 1.942,2.942 2.339,1.338 6.488,2.751 10.918,2.614 4.058,0.115 1.304,-0.479 -1.579,-1.756 -13.419,-4.414 -6.946,-3.419 -2.718,-4.362 0.01,-5.08 4.662,-4.759 2.636,-1.577 4.05,-0.123 1.484,0.482 0.871,0.977 0.011,3.08 -1.729,2.344 -3.63,0.087 -1.977,-0.837 -2.054,0.009 -0.323,2.369 m -32.167,418.984 v 0 l 6.265,-8.28 1.618,-3.67 -0.363,-2.54 -1.319,-1.31 -4.959,-2.96 -13.668,-4.55 -7.001,-4.06 -1.535,0.36 -0.819,1 0.299,0.48 1.574,2.15 2.698,2.12 15.663,5.57 4.754,2.9 0.633,0.81 -3.537,5.66 -9.573,9.63 -4.535,8.66 1.323,0.49 1.482,-0.47 3.303,-3.31 1.43,-2.38 m 54.15,-774.383 v 0 l 0.629,1.554 4.281,4.268 3.665,1.616 1.693,0.235 1.864,2.376 0.84,0.048 0.025,-2.078 -1.548,-2.606 -5.785,-2.817 -3.44,-5.984 5.398,-2.027 2.703,-1.727 5.099,-5.101 2.573,-4.63 v -5.108 l -1.577,-2.636 -3.759,-3.661 -5.053,-0.001 -4.758,3.662 -3.047,5.029 -2.639,8.661 1.804,8.202 m 3.295,-14.203 v 0 l 3.587,-5.689 3.731,-2.672 2.536,0.36 2.88,3.948 v 3.108 l -2.573,4.63 -3.099,3.101 -3.664,2.566 -2.08,0.01 -2.344,-1.728 0.046,-4.659 0.704,-0.947 m 4.645,126.596 v 0 l -9.976,5.7 -0.35,-0.299 0.144,-1.331 4.547,-8.639 -0.025,-3.078 -0.813,0.025 -1.309,1.309 -3.027,4.969 -4.517,11.687 0.331,0.512 1.998,1.821 5.314,-4.086 9.631,-5.569 1.378,0.377 -4.675,6.953 -0.132,3.022 0.456,1.346 2.054,0.009 1.252,-1.102 12.632,-4.902 6.029,-1.716 4.088,0.026 0.335,2.397 -7.149,10.261 -2.569,4.63 0.35,1.355 1.006,-0.599 0.998,0.597 0.505,-0.323 9.245,-12.251 2.617,-6.666 -0.014,-2.084 -1.325,-1.326 -1.03,-0.133 -8.057,0.117 -12.88,4.728 -1.09,-0.026 -0.33,-1.393 1.726,-3.883 -0.363,-2.539 -0.976,-0.87 -3.023,-0.134 m -4.219,49.219 v 0 l 1.578,4.204 -0.006,1.118 -2.567,4.628 -3.763,3.667 h -3.052 l -2.759,-2.661 -1.392,-2.983 1.654,-2.679 1.838,-1.816 3.74,-1.919 m 18.753,-160.996 v 0 l 1.667,2.674 1.84,1.817 3.958,2.037 6.668,2.541 9.106,-0.012 -1.549,-1.88 -8.877,-2.451 -7.283,-3.213 -2.689,-3.784 -0.011,-2.08 2.573,-4.63 2.099,-2.101 5.258,-3.231 7.378,-3.346 3.563,-0.073 1.755,3.631 1.087,-1.17 v -4.052 l -1.325,-1.325 -5.085,-0.015 -8.374,3.351 -5.257,3.23 -2.944,2.359 -3.729,5.372 m -5.603,231.677 v 0 l 2.239,8.122 0.474,0.447 1.612,-3.132 0.003,-1.122 -2.697,-11.969 2.328,-0.454 6.945,1.853 2.419,-0.371 -2.595,-2.715 -9.504,-2.551 -0.609,-0.708 -0.015,-6.082 1.616,-3.666 2.723,-2.627 3.671,-0.04 2.57,4.075 0.793,0.616 0.33,-0.275 0.025,-2.078 -3.338,-5.297 -5.078,-0.011 -2.754,1.696 -1.921,2.917 -1.639,4.688 -0.211,4.615 -2.842,1.891 0.078,2.581 0.988,0.553 2.9,3.93 m -4.776,134.274 v 0 l -0.121,5.243 1.38,1.297 8.662,-5.538 2.62,-2.57 5.088,-3.655 2.348,13.631 1.74,-4.197 -0.135,-12.02 -1.325,-1.326 -3.08,-0.01 -2.636,1.577 -2.62,2.57 -8.695,6.515 -0.355,-1.36 2.846,-7.946 -0.135,-6.02 -1.348,-1.271 -0.709,0.521 m 11.733,-177.728 v 0 l -0.512,1.502 0.133,4.028 5.662,5.759 5.379,3.432 0.779,1.783 -0.44,1.343 -5.023,0.143 -3.95,-1.843 -1.084,0.015 -1.271,1.342 0.3,0.475 1.31,1.31 2.636,1.577 1.06,0.124 6.048,-0.124 2.611,-1.554 1.691,-2.752 -0.169,-1.358 -1.38,-2.364 -6.491,-3.546 -4.668,-4.762 -0.13,-2.071 2.796,-2.741 7.659,-3.543 0.369,1.356 -0.641,0.977 0.808,-0.034 1.851,-3.911 -0.026,-1.09 -1.338,-0.452 -2.05,0.121 -7.624,3.57 m -44.344,675.272 v 0 l 1.3,1.27 10.728,3.74 10.02,-0.14 1.619,-0.93 1.317,-1.91 1.4,-2.46 0.108,-1.05 -1.685,-3.69 -6.095,-6.1 -2.662,-1.69 -1.817,-1.84 -2.573,-4.63 -0.036,-2.68 2.626,-2.08 6.227,-1.84 -0.107,-1.48 -1.322,-1.32 h -5.053 l -5.656,3.56 -0.668,0.77 -0.134,1.02 0.119,4.06 2.573,5.62 5.103,5.1 2.662,1.7 4.03,4.04 0.349,2.51 -1.325,1.32 -8.087,0.02 -9.664,-3.62 -2.248,-2.09 h -1.055 l -1.323,1.31 -0.118,1.03 0.466,1.48 M 382.269,248.282 v 0 l -0.135,12.277 2.349,5.372 1.494,2.541 7.532,7.393 2.329,-2.366 -1.815,-2.971 -2.833,-2.813 -2.473,-1.527 -2.583,-6.629 -0.12,-9.053 2.775,-9.929 6.705,-13.542 4.362,-7.48 -0.354,-1.535 -1.011,-0.885 -4.779,4.681 -1.218,2.219 -6.818,13.735 m -20.543,376.986 v 0 l 2.78,13.14 1.147,0.011 3.593,-11.076 3.839,-8.799 2.219,-4.216 3.789,-3.615 2.731,2.553 1.636,4.685 10e-4,4.122 -2.838,9.941 0.99,2 1.505,0.339 1.66,-2.407 2.518,-6.605 2.012,-3.019 6.095,-6.095 2.635,-1.572 1.084,0.015 1.755,1.652 1.578,2.636 0.123,1.06 v 7.99 l -0.97,3.007 0.3,8.213 1.752,-1.737 2.801,-9.418 -0.003,-9.12 -1.616,-3.666 -2.323,-2.908 -2.372,-1.729 -1.06,-0.123 -2.048,0.123 -2.638,1.579 -2.998,1.998 -4.044,3.98 -2.739,-7.162 -3.501,-3.385 h -4.053 l -4.758,4.662 -1.962,2.963 -4.971,10.913 -3.564,-13.945 -1.184,-0.652 -1.869,5.373 1.067,1.294 M 343.121,1016.5 v 0 l 2.587,5.68 3.82,4.84 3.286,2.27 7.316,3.57 1.628,-2.17 -7.948,-5.41 -3.095,-3.09 -2.567,-3.66 v -7.06 l 4.606,-4.7 4.685,-1.64 3.057,-0.11 1.346,0.45 0.02,2.08 -2.573,4.63 -5.07,5.07 -2.97,1.47 1.617,2.18 1.689,-0.04 4.628,-2.57 3.102,-3.1 1.998,-3 1.579,-2.64 -0.011,-6.07 -3.297,-2.34 -6.048,-0.13 -6.683,2.7 -4.116,4.11 -2.573,5.62 m 75.028,-763.99 v 0 l -0.056,3.708 1.654,1.529 -5.622,9.759 0.334,2.396 2.054,0.009 1.762,-1.667 3.425,-6.37 3.759,-5.655 8.185,1.837 1.217,0.816 0.111,7.684 -0.785,2.01 0.276,0.332 2.657,0.059 1.729,-2.343 0.123,-5.051 -0.68,-1.736 3.672,-2.2 -0.5,-1.575 -2.375,-1.859 -0.085,-0.588 -0.002,-16.042 0.818,-2.04 -2.5,-7.689 -2.287,-4.695 -2.19,0.029 -3.085,4.645 -4.402,17.484 -2.122,5.984 -0.749,0.576 -0.972,-0.649 -2.053,0.001 m -42.124,817.471 v 0 l -3.218,16.82 0.003,9.12 2.942,6.57 2.37,1.73 2.115,0.01 5.698,-1.65 3.029,-3.04 3.574,-6.63 0.123,-3.05 -0.481,-1.48 -2.196,-3.19 -3.782,-2.68 -4.023,-0.13 -1.976,0.82 -1.37,-0.31 -0.027,-3.09 2.856,-14.95 -0.125,-5.04 -1.552,-2.21 -2.555,1.52 m 52.363,-821.253 v 0 l 2.631,-7.201 2.119,5.133 0.119,9.054 -1.714,10.274 -6.229,-1.813 0.091,-2.512 2.735,-8.881 m -37.634,189.731 v 0 l 1.764,-13.792 -0.148,-8.026 -1.348,-1.271 -0.707,0.519 -2.898,22.411 -2.739,2.34 0.153,1.329 1.55,2.644 0.109,1.053 -1.841,7.939 0.017,2.088 0.652,0.974 -0.599,1 1.3,1.299 1.709,-1.524 2.834,-13.23 2.511,0.093 3.918,2.704 1.507,-0.34 0.82,-1.002 -3.622,-3.793 -5.061,-2.669 m 29.405,-1.06 v 0 l -4.419,4.876 -0.088,6.64 1.736,4.731 3.757,2.618 3.718,-1.594 6.064,-6.065 2.573,-4.63 0.123,-4.048 -2.062,-4.638 -2.367,-1.724 -5.981,1.666 m -43.597,658.71 v 0 l 1.496,-1.37 h 3.052 l 3.325,3.32 0.011,3.08 -1.577,2.64 -3.759,3.66 -3.659,0.05 -1.729,-2.35 v -5.1 m 47.293,-659.313 v 0 l 2.043,-0.989 3.052,10e-4 1.325,1.325 0.011,4.08 -2.574,4.63 -4.306,4.318 -1.486,0.483 -3.02,-0.147 0.024,-0.812 0.999,-0.825 1.006,0.599 0.333,-0.276 0.146,-1.028 -0.122,-3.05 -1.718,-2.89 v -1.112 l 1.548,-2.61 M -533.569,220.862 v 0 l 2.043,0.989 2.054,-0.009 0.322,-2.365 -0.604,-0.706 -4.492,-1.539 -3.564,-3.517 -4.189,-3.215 -0.843,-0.971 -0.014,-1.084 1.571,-2.635 8.308,-8.338 1.692,-2.662 4.785,-4.835 v -0.949 l -0.974,-0.877 -2.022,-0.133 -1.512,0.507 -1.707,2.667 -11.308,11.338 -1.974,2.947 -0.976,0.025 -0.527,-0.527 0.004,-1.772 -1.004,0.598 -1.006,-0.599 -0.332,0.276 -0.013,3.05 1.65,1.973 -0.596,0.999 0.327,0.511 3.695,1.741 3.585,3.535 m 946.229,229.603 v 0 l 1.826,-3.33 0.121,-1.064 -10e-4,-7.991 -0.784,-2.003 0.599,-1.006 -1.381,-0.481 -2.389,13.49 0.467,1.478 m 7.907,-31.174 v 0 l 1.552,3.727 0.895,-1.008 v -7.052 l -1.324,-1.316 -1.507,0.339 -0.862,0.974 m -917.159,774.069 v 0 l -0.134,-2.09 -1.857,-2.93 -2.534,-0.37 -0.972,0.85 -2.855,4.85 -2.618,10.65 1.887,8.19 1.797,3.49 5.097,5.1 2.636,1.58 1.054,0.11 3.666,-1.66 1.657,-2.79 -1.35,-0.36 -1.947,1.69 h -2.052 l -3.759,-3.66 -3.577,-5.64 -0.124,-1.06 0.121,-11.05 1.556,-2.63 0.33,0.47 2.176,9.65 1.665,-2.38 m 62.026,-1002.028 v 0 l -1.957,-9.324 -1.388,-1.167 -1.386,0.441 -0.027,5.09 1.856,9.945 -0.143,7.021 -2.403,0.339 -4.903,-1.7 -1.388,1.307 -0.118,1.026 0.71,1.718 5.698,1.651 2.502,0.168 3.026,12.899 1.895,-2.382 0.124,-1.06 -10e-4,-2.991 -0.837,-1.977 -0.11,-2.47 6.652,-1.846 -0.764,-1.344 -2.372,-1.728 -2.526,-0.189 -1.897,-5.388 m -18.847,24.189 v 0 l 1.556,3.91 2.131,-2.112 -0.77,-2.048 0.652,-0.974 0.016,-4.088 -1.808,-5.989 -1.516,-1.418 -1.388,0.441 -0.126,1.025 1.837,5.942 0.117,3.058 m 408.0353,316.024 v 0 l -3.4941,-3.373 -5.0804,-0.01 -10.4388,5.763 -2.7111,-6.071 -0.7723,-0.681 -1.0214,-0.119 -1.3101,0.285 -7.6708,4.508 -0.3632,-1.35 3.6928,-4.947 -0.0089,-2.054 -1.3697,-0.314 -2.7573,2.652 -1.9619,2.962 -1.6189,3.669 -0.1161,2.104 2.4823,2.293 8.9454,-5.7 2.0817,0.02 0.3285,1.397 -3.7181,6.891 0.0198,2.081 1.3697,0.315 13.5094,-8.35 4.4092,-2.354 h 2.1074 l 2.3441,1.729 -0.0455,4.659 -0.8359,1.978 0.5055,2.319 2.6438,-1.516 1.6968,-2.753 -0.0109,-5.08 m 8.1435,-144.946 v 0 l -0.9797,-3.032 0.1327,-4.022 0.6948,-0.947 -0.6431,-2.033 1.3277,-0.337 0.9761,0.641 0.3484,-0.301 -1.3993,-2.351 4.0738,0.002 3.7585,3.662 1.5713,2.634 0.0042,1.116 -1.6107,3.665 -0.7792,0.799 -4.9154,2.832 -1.5348,-0.353 -0.8754,-0.98 m 8.2022,-128.759 v 0 l 37.146081,0.222 20.071119,-1.852 9.9425,1.852 5.0195,-0.134 1.9774,-0.837 19.9898,-10e-4 11.0131,1.972 H 78.493 l 21.808,-1.796 0.667,-1.69 -0.441,-1.343 -1.0307,-0.141 -22.9928,-0.001 -1.9774,0.837 -5.0195,0.134 -11.0133,-1.972 -22.9899,10e-4 -1.9774,0.837 -4.0194,0.134 -9.9425,-1.852 -21.07112,1.852 -33.99328,0.013 -12.0065,-1.985 h -16.9866 l -21.0067,2.847 -11.7894,-1.661 -1.2156,-1.001 -0.4789,1.305 0.0862,2.629 2.3441,1.729 1.0592,0.124 h 19.9877 l 12.0065,-1.985 14.9936,0.013 m 16.6772,-94.564 v 0 l 0.3273,2.532 3.3122,3.303 2.4977,1.549 1.9389,2.938 1.6189,3.669 0.1334,2.059 -0.1332,5.059 -2.3493,5.372 -7.5903,11.203 -2.6208,2.115 3.1614,1.579 3.8182,-3.638 6.2412,-9.284 2.3413,-6.345 0.1316,-7.061 -0.1335,-2.059 -1.6189,-3.669 -1.9617,-2.962 -3.0952,-3.095 -2.3561,-1.407 -1.7002,-2.204 m -18.6621,271.858 v 0 l 1.3324,-0.453 -1.6454,-1.98 -0.019,-1.089 2.7263,-6.881 0.1168,-5.104 -2.4266,-2.311 -1.1162,-0.004 -3.6648,1.61 -2.0623,2.065 -1.846,3.597 -1.8375,7.088 2.7197,7.721 4.0744,4.072 5.6762,2.553 3.195,-1.597 -6.828,-4.323 -3.7287,-5.372 v -8.108 l 1.5775,-2.636 1.7901,-1.611 0.3551,1.36 -1.7261,3.882 0.0143,5.085 2.329,2.327 m 5.0564,-63.833 v 0 l -3.724,1.695 -2.0595,2.06 -1.6162,3.666 -0.1193,2.052 1.7576,5.757 1.9778,3.975 2.7233,2.626 2.0205,0.134 5.6894,-2.696 3.0658,-3.064 1.6162,-3.666 0.1191,-2.053 -2.696,-5.69 -3.0987,-3.101 -2.6358,-1.577 M -243,185.457 v 0 l 2.768,23.159 1.215,3.852 1.544,0.374 1.324,-1.316 0.135,-3.02 -2.046,-12.493 -1.751,-26.317 -0.666,-0.537 -1.05,-0.001 -1.324,1.316 M -299.5,1096.84 v 0 l 3.69,-2.56 3.104,-2.99 1.956,4.23 2.782,10.39 1.819,-1.38 0.015,-9.09 -3.58,-7.63 -2.001,-2.52 -1.419,0.78 -3.676,4.21 -6.108,3.68 0.025,1.17 2.341,1.73 m 4.971,-47.96 v 0 l -2.189,-7.14 -0.706,-0.6 h -1.051 l -1.302,1.37 5.576,18.69 1.724,1.62 1.084,0.02 6.635,-4.58 3.095,-3.09 5.566,-7.66 v -2.06 l -1.324,-1.31 -1.508,0.34 -1.304,1.31 -3.43,5.38 -7.782,7.61 -0.72,-0.54 M -49.8642,504.498 v 0 l 0.7064,-1.035 -1.9078,-11.414 -0.7667,-1.353 -3.6414,-2.548 -7.0807,-0.01 -2.8916,1.724 -1.056,0.107 -1.3331,-0.44 0.6354,-2.035 -0.2756,-0.324 -1.8117,0.647 -2.5751,4.629 0.3341,2.397 3.082,0.019 7.8874,-3.728 h 2.117 l 3.6664,1.616 0.9787,0.966 1.8444,10.19 1.4587,1.893 M -302.004,1114.53 v 0 l 2.558,-0.39 2.344,1.73 -0.032,3.69 -3.554,8.66 -4.023,6.96 -3.734,2.68 -1.084,-0.02 -2.322,-2.31 -0.015,-8.09 2.573,-5.62 m 59.149,-839.241 v 0 l 0.011,-14.14 -3.543,-10.669 -5.037,-9.956 -9.817,-13.635 -2.366,1.688 0.035,1.688 2.572,4.154 0.789,-0.505 0.782,0.607 4.005,6.003 5.222,10.219 2.633,7.092 1.843,9.382 -2.745,13.877 -1.993,4.843 -4.956,8.059 2.182,1.536 2.812,-2.632 4.037,-6.959 M -47.9602,170.477 v 0 l -3.1734,2.597 -3.1548,3.742 -3.5739,6.63 -0.1239,6.048 2.6882,7.676 3.1142,3.119 7.6623,4.534 0.3776,-1.378 -1.5714,-2.635 -6.5382,-5.592 -2.5998,-7.721 1.72,-6.085 1.8457,-3.597 6.1292,-6.287 -0.3142,-1.37 M -286.178,859.283 v 0 l -6.674,-6.757 0.009,-5.054 3.339,-0.457 1.978,0.837 2.08,0.01 4.63,-2.573 1.101,-1.099 1.577,-2.636 -0.011,-5.081 -1.661,-1.758 -2.636,-1.577 h -4.108 l -4.917,2.838 -2.816,3.838 -3.579,7.627 0.004,5.113 2.936,4.579 5.742,5.155 6.63,3.574 2.08,-0.011 1.316,-1.324 -10e-4,-1.052 -0.658,-0.762 m 18.859,108.74 v 0 l -1.57,1.369 -2.369,-1.69 -0.087,-1.63 2.691,-6.679 2.579,-2.532 1.575,2.155 0.124,2.047 -1.671,4.733 m 48.848,-797.766 v 0 l -0.657,1.521 -6.315,6.304 -10.662,7.692 -1.813,1.833 -1.553,2.69 4.549,7.684 8.363,10.949 5.371,3.723 1.562,-0.379 1.745,-2.761 -4.93,-2.423 -1.107,-1.103 -10.565,-14.662 -0.122,-1.076 4.782,-4.737 7.38,-5.43 3.095,-3.095 3.514,-4.69 -1.823,-1.999 m -49.445,783.536 v 0 l -1.337,0.277 -2.665,1.661 -3.843,5.799 -1.672,4.732 0.12,9.053 5.616,13.665 4.06,4.061 3.662,2.557 h 1.055 l 1.272,-1.342 -1.873,-2.634 -2.234,-1.7 -1.984,-2.988 -4.468,-10.457 4.224,-1.691 2.558,-2.557 2.844,-5.915 -0.004,-7.112 -1.839,-2.919 -2.501,-2.38 m 127.722,-783.859 v 0 l -6.467,2.385 -3.962,2.039 -3.108,3.111 -2.693,6.683 0.124,11.048 2.573,4.63 2.112,2.109 1.986,1.028 7.697,2.664 2.053,-0.119 6.573,-2.942 2.678,-3.209 2.498,-1.549 1.554,-2.612 0.123,-1.06 -0.134,-3.02 -1.626,-1.723 -3.666,-1.617 -9.056,-0.119 -1.483,0.482 -0.819,1.003 0.785,1.409 11.855,2.879 -0.341,1.195 -5.275,5.266 -3.667,1.617 -4.112,-0.004 -5.578,-2.938 -2.115,-2.696 -1.619,-3.669 -0.133,-3.059 0.13,-2.062 1.763,-6.016 1.085,-1.895 2.836,-2.814 3.597,-1.847 6.053,-1.844 0.4,-1.153 m -143.887,463.652 v 0 l 1.937,-1.453 2.877,10.774 1.71,-0.861 0.483,-1.485 v -8.993 l -0.954,-3.003 0.811,-3.027 -1.316,-1.324 h -2.052 l -7.399,7.599 -2.497,-9.741 -1.081,0.009 -1.479,0.481 -11.887,12.367 -0.628,-0.007 -0.487,-1.361 -0.001,-7.993 0.837,-1.977 0.133,-4.023 -0.482,-1.484 -1.437,-0.943 -1.936,7.362 -0.116,10.056 1.739,4.731 0.724,0.625 2.505,-0.348 4.303,-4.312 1.692,-2.663 5.528,-5.328 0.362,2.361 -2.852,9.946 0.134,2.02 1.323,1.323 1.661,0.047 m 117.889,-25.374 v 0 l -1.832,-1.807 -2.635,-1.572 -1.535,0.354 -0.862,0.976 0.34,1.508 5.312,5.304 9.323,5.789 1.728,2.372 0.001,2.108 -6.724,13.892 0.019,4.082 2.369,0.323 1.723,-1.627 4.432,-10.477 3.181,-6.193 v -2.108 l -2.936,-4.58 -3.742,-3.154 -6.368,-3.424 m 93.3298,-177.71 v 0 l -0.2765,-3.14 -1.7346,-6.875 0.85,-3.067 -0.1327,-8.022 -0.7042,-0.948 -0.2504,-3.659 -2.3666,-1.688 -0.7202,0.52 -1.9166,18.83 -0.7356,-1.844 -2.6043,-1.547 -1.0601,-0.123 -2.0483,0.123 -5.5778,2.938 -3.7194,4.398 -0.0109,7.08 1.5775,2.636 3.7584,3.661 4.0806,0.011 2.6358,-1.577 1.8329,-1.813 1.6922,-2.662 2.8103,-3.019 2.5522,5.341 2.231,1.626 1.5467,-2.202 0.005,-1.116 m -93.0062,61.063 v 0 l -2.354,-2.302 -1.352,1.273 -0.01,4.08 2.337,3.287 1.367,-0.313 m 8.172,8.935 v 0 l -0.158,2.057 -0.841,1.983 0.117,11.058 2.342,6.345 1.503,2.566 1.528,1.328 0.479,-1.304 -0.122,-3.05 -0.972,-1.867 -1.759,-6.018 -0.115,-2.057 0.456,-1.347 2.088,-0.024 3.164,0.937 11.564,1.729 1.511,1.701 -0.651,0.974 -0.01,2.08 1.554,2.611 2.754,1.697 1.06,0.124 3.02,-0.135 3.664,-2.566 1.099,-1.102 2.573,-4.629 -0.011,-6.08 -1.925,-2.608 -5.372,-3.728 h -5.108 l -2.636,1.577 -1.103,1.108 -2.66,5.097 -2.609,-0.051 -5.733,-1.48 -6.584,-2.339 3.588,-9.229 4.006,-6.011 4.304,-4.312 1.508,-0.341 0.945,0.694 1.661,0.249 2.892,3.399 0.812,0.025 0.014,-2.05 -3.925,-4.607 -2.371,-1.728 -1.688,-0.035 -8.152,8.706 -3.223,5.227 -2.357,4.413 m 44.404,513.57 v 0 l -30.033,-0.03 -5.946,-1.86 -9.057,-0.11 -1.304,0.47 0.908,1.71 1.141,0.76 9.752,2.03 52.5003,3.01 18.0064,-1.99 h 5.9898 l 3.0068,0.97 5.9898,0.01 37.7183,-3.03 62.2952,-2.95 h 17.9867 l 9.013,1.98 24.9899,-0.01 3.0038,-0.95 3.003,0.95 16.99,0.01 26.01,-1.96 3.024,0.81 1.324,-1.31 0.118,-1.03 -0.467,-1.48 -0.976,-0.87 -1.03,-0.14 h -4.989 l -27.014,1.98 -11.99,-0.01 -1.977,-0.83 -5.0261,-0.15 -3.0261,0.15 -1.9776,0.83 -4.9963,0.02 -3.0261,-0.15 -1.9739,-0.82 -1.974,0.82 -3.0194,0.14 -12.0135,-1.98 -20.9932,-0.01 -8.2996,0.9 -61.8999,2.45 -48.8072,2.64 -24.9897,-0.01 -1.9764,-0.82 -2.027,0.64 m 38.0038,-640.772 v 0 l -1.3689,-3.466 -0.111,-1.474 11.6634,-1.892 -0.4844,-0.699 0.5955,-1.001 -0.2946,-0.295 -1.0426,0.634 -11.2329,-2.553 2.3858,-11.461 3.0931,-7.998 2.1026,-2.108 2.6351,-1.572 2.6145,0.908 1.6857,2.649 1.0964,-1.171 -0.1546,-1.331 -1.3794,-2.364 -2.7513,-1.69 -4.7843,1.609 -2.9376,1.939 -2.081,3.08 -3.1425,9.039 -2.3966,11.457 -2.0122,2.23 3.0666,2.296 2.3971,7.405 2.3547,4.309 1.8258,-3.008 M -346.838,942.45 v 0 l -0.06,3.683 2.681,2.12 8.655,2.616 3.058,0.115 1.345,-0.455 0.044,-1.683 -1.721,-1.138 -7.569,-2.566 -1.475,-0.974 0.03,-1.697 3.712,-5.917 -0.011,-3.08 -1.325,-1.326 h -4.052 l -6.664,4.567 -4.659,4.756 -0.047,1.662 2.205,1.625 4.501,-5.043 3.662,-2.557 1.051,0.013 0.152,0.623 -1.39,2.396 m 45.755,-765.713 v 0 l -3.85,3.808 -2.38,1.43 -5.095,5.095 -5.43,7.38 -5.787,5.828 -0.468,1.48 0.285,1.31 2.396,4.376 4.105,4.104 3.957,2.037 6.451,2.426 3.221,2.105 1.535,-0.353 0.871,-0.977 -0.374,-2.533 -4.222,-2.31 -8.48,-3.434 -4.626,-4.723 v -2.052 l 1.143,-1.185 2.165,1.693 14.037,0.004 8.945,-2.287 23.538,-3.787 -0.449,-2.755 -11.021,-0.143 -22.946,4.855 -11.083,-0.032 -0.153,-0.631 1.39,-2.396 2.57,-2.62 1.43,-2.38 5.813,-5.833 2.662,-1.692 3.661,-3.759 -0.323,-2.369 -2.024,-0.141 m -50.153,815.696 v 0 l 1.517,4.726 0.131,2.062 -0.133,6.06 -1.616,3.66 -1.051,1.28 1.348,0.47 2.556,-2 2.737,-6.284 10.35,-6.403 0.651,-0.758 10e-4,-1.053 -1.37,-1.295 -8.978,5.685 -0.673,-0.013 -4.574,-13.07 -0.75,-0.577 -1.348,1.272 -0.133,1.029 0.118,2.055 M -325.52,637.98 v 0 l 1.329,1.304 5.381,3.431 4.096,3.993 1.381,-1.906 -2.644,-4.275 -1.833,-1.812 -2.38,-1.43 -6.608,-6.783 6.988,-5.217 6.62,-6.57 3.688,-2.738 0.173,-0.775 -1.538,-2.098 -1.661,0.046 -3.662,2.565 -5.62,5.57 -6.635,4.571 -3.055,-0.825 -1.342,0.441 -0.01,2.054 0.651,0.974 -3.65,3.974 0.008,2.053 1.347,0.456 2.022,-0.132 1.947,-1.693 h 1.054 l 1.758,1.652 m 28.838,498.69 v 0 l 5.739,-11.95 -0.01,-7.08 -0.933,-1.62 -5.393,-3.7 -1.03,-0.13 -2.022,0.13 -4.499,4.35 -0.812,0.02 -0.032,-2.08 1.738,-5.88 0.116,-8.06 -0.508,-1.51 -2.987,-1.84 -4.391,1.86 0.402,0.97 3.395,2.89 0.076,0.58 -2.594,11.79 -4.247,15.2 0.007,8.11 1.938,3.58 4.398,3.72 2.08,0.01 4.918,-2.84 1.813,-1.83 2.577,-3.67 m 140.032,-639.98 v 0 l -1.879,-8.047 0.119,-2.052 1.732,-3.882 v -10.118 l -1.944,-4.572 -2.391,-1.69 -0.72,0.519 -1.89,22.4 -1.636,3.09 -2.12,3.12 -2.61,1.548 -1.535,-0.353 -0.871,-0.977 -0.015,-7.085 1.619,-3.669 1.965,-2.961 0.789,-0.61 0.323,0.274 -0.628,2.027 0.857,0.547 1.686,2.651 1.096,-1.17 -1.651,-5.954 -0.894,-1.746 -0.771,-0.671 -1.052,-10e-4 -1.758,1.652 -3.848,6.602 -1.736,6.027 0.002,2.121 1.635,4.686 2.706,2.605 h 3.052 l 3.945,-2.827 3.029,-3.82 4.005,5.593 -0.216,-1.087 m -7.832,157.163 v 0 l 0.526,-1.367 -0.116,-9.067 -2.571,-6.608 -0.771,-0.672 -1.052,-10e-4 -6.758,6.652 -1.692,2.662 -3.865,4 v 1.055 l 1.314,1.315 h 1.055 l 6.496,-6.37 2.475,-3.268 0.698,0.505 1.849,12.091 M -315,415.543 v 0 l -0.149,-3.07 -1.321,-1.322 -1.447,-0.124 -2.554,13.815 -2.26,8.362 -3.118,2.27 -0.048,1.673 1.869,2.306 -0.957,3.05 0.134,8.023 1.156,1.187 0.771,-1.177 2.859,-11.069 1.523,-1.448 1.045,-0.018 5.023,0.147 1.977,0.837 5.676,0.137 2.6,7.138 2.309,2.897 5.378,2.672 1.034,-0.629 1.034,0.628 3.159,-1.58 -6.825,-3.324 -2.72,-3.398 -0.134,-7.02 2.736,-6.73 2.724,-2.627 1.026,-0.117 1.301,0.463 -3.652,4.979 -0.118,1.026 0.466,1.481 1.634,0.884 4.154,-4.675 1.577,-2.636 -0.011,-4.077 -0.605,-0.706 -4.742,-1.62 -3.729,1.599 -3.063,3.066 -1.215,2.215 -1.648,3.412 -1.597,5.25 -0.308,-0.743 -2.82,-1.295 -12.053,-2.742 3.797,-13.352 m 2.133,-36.105 v 0 l -0.14,4.097 -1.577,2.155 -0.76,-0.56 -3.05,10e-4 -1.272,1.349 5.639,3.977 -0.826,3.028 0.123,8.051 1.731,2.311 h 0.617 l 0.709,-0.572 1.907,-13.233 1.37,0.783 1.055,-0.001 1.272,-1.342 -3.697,-3.367 -0.085,-0.588 0.113,-5.107 2.856,-16.945 -0.135,-6.019 -1.348,-1.271 -0.715,0.531 m 41.275,663.786 v 0 l -2.504,-1.38 -1.56,-0.08 -1.763,4.22 7.979,2.46 4.255,3.24 3.823,4.84 3.573,8.62 0.003,10.12 -3.545,11.67 -4.186,9.22 0.019,3.08 2.367,0.32 0.762,-0.67 4.039,-7.95 4.542,-13.67 v -13.12 l -1.66,-4.89 -2.919,-5.73 -7.104,-7.11 m 69.704,-50.848 v 0 l -7.09,-2.586 -1.566,-4.522 -1.729,-1.551 -0.714,0.529 -1.51,6.47 -6.236,1.844 -0.026,1.456 0.455,1.341 1.032,0.141 4.993,10e-4 1.716,-0.676 2.321,9.605 1.943,4.064 2.378,-2.422 -1.724,-6.995 -0.088,-3.517 5.939,-2.519 m -101.001,-0.004 v 0 l -3.92,0.443 -2.828,-11.202 -0.736,-0.559 -1.348,1.271 -0.134,1.03 0.133,4.022 0.837,1.977 -0.076,2.567 -8.828,2.985 2.393,2.796 3.052,10e-4 1.974,-0.821 1.343,0.441 0.024,3.088 -1.735,4.879 -0.115,2.057 0.453,1.345 1.588,0.072 1.246,-2.639 1.563,-4.714 0.194,-4.559 5.791,-2.835 m 33.133,-113.63 v 0 -10.033 l -0.808,-2.032 1.646,-2.943 -1.297,-1.379 -2.08,-0.011 -2.636,1.577 -4.62,4.57 -2.662,1.692 -4.393,3.892 0.365,1.113 0.974,0.869 2.08,0.011 6.636,-4.577 1.835,-1.785 0.813,-0.024 0.147,9.02 -0.837,1.978 -0.133,4.022 0.482,1.484 1.001,0.818 1.692,-2.374 M -133.862,642.57 v 0 l -2.109,-6.07 0.288,-1.305 2.138,-2.178 11.041,-0.002 2.004,0.784 1,-0.598 2.003,0.784 7.99,10e-4 21.7973,-1.791 18.1462,-2.062 3.0669,0.852 9.9896,10e-4 38.9436,-2.854 3.1266,0.736 14.89432,-1.709 1.07873,0.673 2.83899,-0.816 22.21456,-2.774 4.9164,-1.228 h 7.987 l 22.0137,1.972 52.9901,-10e-4 1.977,-0.837 2.026,-0.146 2.026,0.146 1.977,0.837 8.997,0.014 2.343,-0.471 0.14,-2.024 -0.454,-1.339 -3.033,0.82 -3.989,10e-4 -73.1425,-2.044 -11.8714,-0.928 H 30.5062 l -4.9096,1.049 -25.008954,3.007 -39.091046,2.9 -2.0401,-0.814 -39.0806,1.841 -14.8826,1.989 -4.9899,-10e-4 -2.0444,-0.824 -8.897,1.709 -5.055,0.116 -13.195,-1.786 10.504,-8.489 6.317,-3.785 1.689,-2.398 -1.293,-1.37 -1.084,-0.015 -9.629,5.569 -8.626,7.573 -2.941,1.943 -4.495,1.54 -1.553,1.731 0.768,2.001 -0.821,1.974 -0.01,4.08 10.724,19.89 0.238,1.689 2.372,1.689 2.028,-1.847 0.001,-0.948 -3.209,-6.205 m 0.688,-122.301 v 0 l 1.494,-1.372 4.052,-10e-4 4.325,3.328 v 5.05 l -2.543,3.64 -2.754,1.696 -2.108,-10e-4 -2.309,-1.731 0.36,-0.929 1.009,0.599 0.324,-0.275 -0.713,-2.583 2.583,-1.687 -1.199,-1.054 -2.001,0.768 -1.343,-0.441 -0.008,-4.054 m 3.856,-49.002 v 0 l 0.996,2.028 8.501,7.519 0.339,1.505 -0.616,0.723 -3.664,1.613 -1.123,0.003 -10.908,-3.696 -0.381,2.359 1.674,1.767 5.618,2.573 8.085,-0.015 4.976,-3.869 0.36,-2.536 -1.839,-2.918 -7.308,-6.338 -1.571,-2.635 0.021,-1.085 2.994,-0.364 1.819,1.415 0.524,-0.319 2.003,1.599 0.391,-1.934 -6.37,-4.719 -3.049,10e-4 -0.706,0.605 -1.604,4.709 m 20.064,-302.182 v 0 l -5.365,2.793 -2.158,2.748 -2.574,5.619 0.004,3.113 1.577,2.636 4.101,4.098 3.957,2.037 6.6979,2.502 0.204,-0.622 -1.5095,-2.513 -8.3554,-5.407 -2.666,-3.729 0.139,-1.328 2.424,-5.405 3.498,-2.498 0.632,0.153 0.014,3.048 -2.713,3.92 -0.121,2.05 0.454,1.339 1.51,-0.333 2.308,-2.318 2.573,-4.63 -0.01,-4.08 -0.926,-1.607 -2.37,-1.722 m -143.55,465.381 v 0 l 0.979,-3.03 -0.134,-5.022 -1.325,-1.326 -4.08,-0.01 -3.735,2.678 -2.424,4.367 -1.42,0.891 -1.729,2.372 v 3.108 l 1.696,2.753 2.612,1.555 h 2.108 l 2.636,-1.577 3.095,-3.095 1.58,-2.639 M -119,434.457 v 0 l 0.144,2.063 0.655,0.98 -0.784,2.003 0.134,4.023 1.325,1.325 2.08,0.011 10.892,-6.724 3.082,0.019 0.456,1.347 0.001,3.992 -0.837,1.978 0.009,4.054 1.368,0.313 0.7662,-0.665 2.5744,-5.617 0.1191,-5.056 -0.4823,-1.485 -2.9764,-2.87 -4.08,-0.01 -6.632,3.575 -4.319,3.088 -0.463,-1.301 0.803,-2.039 -2.577,-8.162 -2.057,2.2 0.651,0.974 m 3.829,-45.733 v 0 l -1.635,-3.66 -1.572,0.072 -0.693,0.589 -1.563,5.522 -2.195,3.209 -2.833,2.813 -2.636,1.577 -3.6,0.059 -1.819,-3.363 -0.121,-3.051 2.004,-10.362 0.803,-1.618 -0.621,-1.027 0.598,-1.004 -1.296,0.302 -0.794,-0.508 -1.779,3.714 -1.8,9.433 0.009,7.117 1.671,2.728 3.63,1.578 5.985,-1.67 2.049,-1.169 4.812,-4.831 1.961,-2.962 m -45.267,141.304 v 0 l -1.006,-2.032 -1.191,0.241 -1.651,5.697 -0.115,3.058 0.454,1.345 1.576,0.079 1.819,-3.362 M -284.21,837.326 v 0 l 2.083,2.198 -1.865,2.952 -2.508,0.523 -2.996,-0.015 -1.305,-0.479 3.611,-3.79 M -127.128,437.5 v 0 l -2.583,4.684 -3.312,3.314 -0.772,0.177 -2.395,-1.39 -1.099,-1.102 -2.573,-4.629 -0.123,-9.051 0.807,-2.031 -1.538,-2.176 -0.565,0.513 -1.581,2.637 -0.004,10.113 1.619,3.669 1.962,2.962 2.095,2.095 2.634,1.571 1.116,0.004 4.572,-1.937 3.157,-3.739 2.573,-4.63 v -6.108 l -2.339,-3.297 -2.503,0.348 -0.843,1.031 1.685,2.918 m -23.881,547.064 v 0 l 2.829,-3.795 2.962,-1.962 3.721,-1.596 3.663,1.934 2.71,5.35 0.119,4.055 -0.97,3.007 0.133,5.023 1.324,1.316 1.052,-10e-4 0.705,-0.595 1.638,-4.685 0.119,-10.055 -2.697,-5.69 -2.064,-2.066 -3.667,-1.616 h -4.117 l -3.669,1.619 -2.962,1.962 -4.033,3.978 -2.3,-7.609 -1.427,-3.002 -2.576,0.066 -4.782,3.686 -4.698,7.007 -2.731,-11.045 -1.763,-1.596 -1.352,1.274 -0.134,4.019 1.789,15.802 1.67,1.547 1.508,-0.34 1.308,-1.318 5.422,-9.368 3.487,-3.504 1.775,13.151 2.553,0.388 m 80.4583,-500.314 v 0 l -0.1423,-3.065 -1.3666,-0.313 -0.7226,0.617 -2.2364,5.155 -2.3675,3.543 1e-4,2.052 1.3214,1.323 1.5279,0.088 M -345.98,790.521 v 0 l -1.494,-1.373 -5.087,-0.016 -8.683,2.638 -0.606,0.707 -10e-4,2.049 1.325,1.325 2.084,0.014 3.883,-1.731 4.055,-0.118 1.305,0.479 -5.516,7.695 -4.57,4.62 -1.577,2.636 0.011,2.08 1.35,1.273 2.001,-0.768 1.974,0.821 3.087,0.017 9.68,-2.635 1.601,-1.707 -0.339,-1.507 -0.977,-0.872 -1.03,-0.132 -2.057,0.116 -4.879,1.735 -2.395,-0.338 0.333,-1.51 2.787,-2.829 4.577,-6.636 -0.011,-5.08 m 24.021,-400.975 v 0 l -1.848,-2.97 -3.47,-2.391 -6.08,0.01 -1.759,1.662 -1.577,2.634 -0.215,1.611 -2.844,1.89 0.069,2.581 3.662,4.759 2.636,1.577 h 4.108 l 4.608,-2.552 2.689,-3.784 m -41.079,666.724 v 0 l -1.64,-4.69 -0.131,-3.06 0.133,-2.06 1.726,-3.88 -0.019,-1.09 -2.338,-2.27 -0.731,0.55 -1.64,4.69 -0.118,10.05 1.701,3.7 2.359,2.94 2.372,1.73 h 5.108 l 5.754,-3.69 5.197,-8.96 4.443,10.71 1.895,-0.39 0.023,-6.09 -3.548,-8.69 -3.175,-5.64 -1.668,0.04 -0.681,0.57 -2.432,10.41 -2.074,4.05 -2.816,2.84 -2.917,1.84 -1.084,-0.02 -1.605,-0.91 m 165.336,-881.622 v 0 l -2.673,1.668 -3.779,3.799 -1.616,3.666 v 5.118 l 3.578,7.625 4.104,4.105 4.63,2.573 4.082,-0.02 0.313,-1.367 -0.364,-0.482 -4.661,-2.704 -4.101,-4.099 -1.587,-2.663 1.898,-1.997 4.281,-2.364 1.94,-2.938 1.602,-3.732 -1.693,-4.815 -2.602,-1.543 m -53.004,799.701 v 0 l -2.073,0.306 -3.979,3.874 -0.34,1.508 0.861,0.975 2.507,0.349 2.948,-2.703 5.026,-0.147 2.026,0.147 1.315,1.323 0.015,1.084 -2.358,3.446 -6.308,6.284 -3.692,2.735 -0.339,1.5 0.586,0.7 4.688,1.09 8.005,1.56 2.089,-0.03 0.315,-1.37 -0.896,-1.53 -6.641,-2.71 4.98,-5.04 1.962,-2.962 1.619,-3.67 -0.015,-3.085 -1.681,-1.771 -6.61,-2.57 -3.086,0.016 m 35.976,-543.31 v 0 l 2.041,0.145 1.983,-0.835 3.02,-0.134 1.311,0.303 2.091,1.55 -0.031,1.693 -2.85,8.947 0.134,2.019 2.349,2.272 0.788,-0.616 2.57,-4.627 -0.689,-2.092 2.83,-8.399 2.564,0.067 5.877,1.733 1.541,-0.361 0.82,-1.003 -1.614,-1.788 -2.294,-1.246 -6.583,-2.246 0.677,-1.723 10e-4,-13.991 -0.301,-1.313 -2.543,-4.054 -1.645,0.88 -0.482,1.484 0.133,3.023 0.837,1.977 -0.134,12.019 -0.563,0.676 -11.239,1.869 -1.89,1.408 0.338,1.504 m 133.1945,33.223 v 0 l -2.1939,-3 -1.3487,1.272 -0.0109,2.08 2.7195,4.305 0.9839,-0.334 M -358,952.543 v 0 l -0.131,-13.105 -1.736,-6.026 -1.845,-3.597 -1.042,-1.047 -4.685,-1.631 -1.09,0.021 -1.613,0.921 -2.39,3.182 -2.25,-6.522 -0.695,-0.59 -2.051,0.008 -0.456,1.347 -0.001,4.992 0.97,3.008 0.014,4.996 -0.67,3.297 2.162,2.068 0.492,-0.365 2.305,-2.316 3.425,-6.37 2.156,-2.68 0.622,10e-4 1.767,1.654 2.611,9.649 0.116,12.058 -0.785,2.009 2.296,0.479 2.007,-1.004 0.482,-1.484 m 11.035,-178.977 v 0 l -1.819,-2.019 0.299,-0.475 2.323,-2.318 5.401,-2.46 0.626,-0.724 10e-4,-2.049 -1.385,-1.303 -7.651,3.541 -3.981,2.98 -1.69,2.753 0.015,1.082 5.651,4.758 2.636,1.577 7.05,0.122 1.339,-0.455 -0.59,-1.758 -7.463,-2.518 M -216,488.543 v 0 l -0.149,-7.069 -1.378,-1.296 -2.262,1.491 1.593,12.623 0.673,0.549 1.05,10e-4 1.272,-1.342 -0.652,-0.974 m 0.682,-19.979 v 0 l -0.116,-1.323 -2.42,-5.401 -1.765,-1.665 -1.057,0.007 -0.369,2.968 2.21,1.708 2.436,4.858 m 13.959,-81.859 v 0 l 0.821,-0.672 3.913,1.698 9.714,0.247 3.831,8.358 2.146,0.425 1.705,-2.396 -2.597,-5.779 4.229,-1.704 0.373,-1.544 -1.316,-1.324 -3.693,-0.267 -0.981,-1.494 -2.239,-8.096 -4.28,-21.516 -1.327,-3.708 -2.012,0.454 -1.18,2.058 -8.479,27.618 -5.085,11.501 -0.758,-0.498 -0.322,0.274 0.93,3.658 2.37,1.688 1.715,-2.387 m 130.6224,42.062 v 0 l -4.5226,7.694 -2.7575,2.652 -2.0275,-0.843 -1.7847,-1.809 -1.5774,-2.636 0.0107,-3.08 1.9252,-2.608 2.6984,-2.113 3.6942,-1.582 M -324.037,393.474 v 0 l -0.456,1.504 -2.525,2.524 -2.508,0.349 -2.326,-2.325 10e-4,-5.052 1.325,-1.325 h 4.05 l 2.339,3.3 m 6.995,-110.869 v 0 l -0.015,-5.108 -1.854,-0.402 -2.859,10.368 -0.115,9.058 0.481,1.483 0.819,0.737 m 100.705,239.795 v 0 l -1.208,-2.086 -1.68,-4.865 -0.117,-4.057 0.835,-1.975 0.046,-1.661 -2.369,-1.689 -1.378,1.296 -0.015,10.085 2.349,5.372 2.046,3.093 3.945,2.827 3.085,0.015 3.669,-1.619 3.08,-2.081 2.985,-3.989 2.573,-5.618 0.002,-4.12 -1.678,-4.864 -1.169,-2.048 -1.495,-1.378 h -2.052 l -1.297,1.379 2.142,4.212 1.652,4.76 -2.678,6.677 -4.103,4.108 -2.69,1.553 -2.69,-1.553 m 1.19,93.172 v 0 l 0.133,3.104 1.638,4.685 0.706,0.604 2.505,-0.348 5.218,-6.19 1.777,12.151 0.526,0.334 1.63,-0.871 7.1,-7.621 2.786,6.197 1.842,-1.949 0.124,-8.05 -0.482,-1.484 -0.977,-0.87 h -2.052 l -6.677,6.54 -1.771,-10.153 -2.552,-0.387 -7.191,7.552 -0.479,-0.413 -1.603,-9.572 -0.678,-0.557 -1.052,0.006 -0.455,1.338 m 9,-138.039 v 0 l 0.12,2.085 1.731,2.348 2.687,-0.035 9.361,-6.794 2.878,10.799 1.729,-0.032 0.319,-0.371 -1.646,-13.758 -0.673,-0.557 h -3.048 l -3.664,2.566 -3.62,3.57 -2.668,1.538 -0.49,-1.323 0.8,-2.037 -1.91,-4.408 m 98.121,503.493 v 0 l -1.517,-1.4 h -3.052 l -4.328,4.4 -0.131,-8.044 0.97,-3.008 -0.115,-10.059 -1.663,-7.712 -0.685,-0.576 h -2.048 l -1.314,1.392 1.838,11.959 -1.984,12.006 -0.013,7.994 0.133,2.058 1.59,3.667 3.131,3.675 1.644,0.08 1.376,-0.48 4.148,-4.028 2.205,-3.223 1.635,-4.687 -0.176,-1.364 m 17.3492,-801.713 v 0 l -1.3527,2.319 -3.5164,10.659 0.8531,1.039 1.5346,0.354 4.6303,-2.569 7.2846,-5.136 1.1077,-0.135 2.4971,7.912 1.4279,-0.947 0.4823,-1.485 -0.1327,-5.022 -0.7033,-0.946 -0.2493,-1.661 -2.344,-1.723 -1.3576,0.169 -2.3898,1.404 -7.8347,5.784 -0.803,0.025 0.1486,-1.339 2.6658,-6.693 -0.1424,-2.022 -1.3768,-0.314 m -39.2565,353.364 v 0 l 0.593,-0.027 m 92.3441,-97.073 v 0 l -1.0018,4.132 1.571,2.154 1.4182,-0.782 4.1513,-4.736 1.4302,-2.38 3.0947,-3.095 9.0123,-6.007 5.86684,-2.937 -4.18534,-1.62 -3.7295,1.535 -7.9642,5.029 -3.0221,2.976 -2.2487,-6.673 -0.7358,0.116 M -194.55,188.163 v 0 l 2.393,0.309 0.008,3.054 -1.668,1.763 -4.662,2.534 -0.381,-1.382 1.61,-3.666 m 63.459,317.747 v 0 l 0.594,-0.027 M -231,653.543 v 0 l 0.131,-5.105 1.733,-5.876 -0.361,-1.542 -1.022,-0.893 -1.67,2.37 -1.797,7.009 0.149,8.016 0.634,0.149 2.1,-1.539 M -97.9956,493.529 v 0 l 1.7232,-7.292 4.712,1.63 2.3952,-0.338 -0.3326,-1.51 -1.3186,-1.308 -5.0347,-3.187 -0.0194,-3.087 1.7407,-8.875 0.1144,-3.059 -1.0043,-2.006 -1.5545,-0.479 -1.7882,5.656 -1.7166,10.38 -2.896,2.386 0.472,1.542 1.354,1.492 0.134,1.029 -0.133,5.023 -0.837,1.977 0.142,3.025 1.9757,0.368 1.7316,-2.345 m 59.3063,13.899 v 0 l -0.024,2.072 0.9341,1.622 6.365,3.718 5.1147,0.006 4.8638,-1.678 4.8834,-3.025 1.5545,-2.611 v -5.108 l -1.8393,-2.918 -2.8328,-2.813 -3.0311,-2.19 0.3518,-1.408 2.3544,-3.559 0.1055,-1.059 -0.2826,-1.301 -2.4981,-3.483 -2.6358,-1.577 -2.0503,-0.122 -1.4839,0.48 -3.2102,2.219 -3.6613,3.759 -0.0108,5.08 1.5775,2.636 1.7585,1.661 h 4.0526 l 1.9738,-1.65 3.6901,2.514 4.6612,4.759 v 3.052 l -2.6263,2.723 -4.7312,1.737 -6.0481,-0.124 -2.6121,-1.555 -1.7002,-2.205 m -313.1544,226.43 v 0 l -0.472,-1.509 -1.007,-0.822 -1.634,0.873 -4.581,6.116 -4.043,3.501 1.625,2.206 2.266,10e-4 4.372,-4.699 0.463,1.301 -0.82,1.974 0.01,3.054 1.369,0.314 1.504,-1.378 1.802,-4.927 -0.686,-1.011 M -107.838,525.45 v 0 l -0.293,6.111 -3.702,13.909 0.31,0.359 2.578,-0.883 1.272,-2.774 2.542,-10.61 -0.027,-7.09 -1.37,-0.314 m -186.494,-124.68 v 0 l 5.494,4.364 1.509,-0.34 1.718,-1.754 -3.166,-1.721 -4.821,-5.843 -2.031,-3.924 -1.652,-4.76 1.933,-4.385 3.923,1.846 -1.747,3.485 -0.122,3.05 0.454,1.345 1.672,0.05 3.723,-7.333 -0.013,-2.084 -0.94,-1.632 -5.353,-2.708 -4.085,0.015 -1.723,1.626 -1.617,3.666 -0.002,4.119 2.342,6.346 3.241,5.284 m -49.216,816.68 v 0 l -2.688,-1.59 -2.104,-2.1 -2.573,-5.62 0.028,-4.08 0.813,0.02 1.499,1.35 h 2.05 l 2.552,-3.98 2.732,-2.15 2.638,-1.58 h 3.108 l 3.297,2.34 0.015,7.08 -2.35,5.37 -2.326,3.35 -2.636,1.58 m -0.266,-47.69 v 0 l -4.365,6.98 -1.79,1.71 0.367,1.12 0.972,0.86 2.661,-0.91 7.116,-10.62 3.613,7.13 0.238,1.69 2.372,1.69 1.379,-1.29 0.011,-3.08 -4.548,-10.7 -2.174,-3.61 -1.123,0.36 -1.31,1.32 m 7.587,-88.51 v 0 l 0.173,0.52 1.061,0.01 1.438,-0.85 1.902,-5.43 0.116,-8.06 -0.456,-1.34 -2.054,-0.01 -1.273,1.35 0.651,0.97 0.134,5.02 m -6.508,151.53 v 0 l 1.81,-1.84 1.238,-2.27 2.342,-6.35 -0.006,-7.11 -1.946,-3.59 -4.362,-2.72 -1.06,-0.13 -4.048,0.13 -4.63,2.57 -4.315,4.45 -1.362,-1.61 -0.124,-16.05 0.837,-1.97 0.146,-2.03 -1.865,-13.94 0.696,-2.09 -1.582,-3.7 -0.723,-0.61 h -1.051 l -1.324,1.31 -0.134,1.03 v 7 l 0.837,1.97 0.147,2.03 -0.014,21 -0.97,3 0.117,13.06 2.57,6.61 4.108,4.11 2.636,1.58 8.08,-0.01 M -85.8624,366.501 v 0 l 2.1548,2.321 2.4555,4.877 1.0936,-1.17 0.0143,-1.084 -3.5596,-8.614 -0.7711,-0.672 -1.0527,-10e-4 -1.3146,1.314 M -290.112,256.522 v 0 l -2.675,-14.787 -1.344,-0.6 -1.731,2.311 -0.137,2.054 0.131,3.061 1.854,5.945 -0.143,8.022 -1.347,0.456 -3.055,-0.118 -3.907,-1.695 -2.333,2.329 1.553,1.732 4.685,1.635 4.46,0.149 2.831,19.176 0.747,0.658 1.023,0.118 1.3,-0.462 -0.6,-1.006 0.639,-1.041 -1.825,-9.966 0.143,-6.021 1.347,-0.456 6.992,-0.001 2.004,0.784 1.342,-1.272 -10e-4,-1.051 -0.603,-0.71 -11.202,-2.827 m -35.533,585.206 v 0 l -1.515,0.747 -2.912,-12.892 -1.551,-2.879 -1.376,1.352 -0.134,1.03 v 4.993 l 0.97,3.008 -0.067,4.548 -6.139,2.699 -0.629,0.726 0.322,2.366 4.024,0.142 2.01,-0.786 0.331,0.277 0.015,2.05 -0.837,1.977 v 5.993 l 0.482,1.484 1,0.817 0.737,-0.562 0.935,-3.29 1.901,-8.914 6.427,-0.016 1.787,0.693 1.538,-2.181 -1.597,-1.777 -3.666,-1.615 m 139.618,-655.68 v 0 l 0.318,1.523 1.328,1.315 5.245,2.215 7.177,2.263 0.595,0.703 -3.826,13.032 0.143,4.022 1.795,0.428 4.125,-14.011 2.808,-1.894 -0.855,-2.549 1.832,-3.948 -0.019,-3.082 -1.843,-0.408 -1.985,4.402 -0.554,0.366 -13.903,-4.697 m 86.961,191.885 v 0 l -0.9883,-0.872 -2.0849,-0.01 -2.6358,1.577 -6.315,5.085 -0.478,-1.304 0.115,-2.057 1.838,-5.942 -0.468,-1.477 -0.999,-0.818 -0.511,0.328 -3.86,11.909 0.025,6.089 2.369,0.314 0.547,-0.976 5.737,-5.151 4.6624,-3.557 1.0564,0.007 0.4554,1.339 6e-4,5.992 -0.8366,1.978 -0.0098,2.079 1.7326,2.339 1.0455,0.076 2.0545,-10.468 -1.7402,-5.746 M -364.996,961.527 v 0 l -1.502,-0.512 -14.998,10e-4 -1.345,0.454 -0.13,1.078 2.417,2.313 5.6,0.217 2.209,3.708 0.901,2.484 1.802,7.438 1.021,1.766 2.494,2.367 1.356,-0.368 -3.468,-12.662 -1.331,-3.275 -0.719,-0.74 9.346,-1.647 -1.635,-1.671 -0.997,0.022 m 169.093,-592.992 v 0 l 1.278,-2.726 0.901,2.712 2.428,12.009 2.108,6.967 -0.312,0.367 -10.075,0.025 -2.204,-1.555 3.265,-8.342 2.36,-7.404 m 51.613,125.417 v 0 l 1.016,0.824 1.303,-1.302 -0.784,-2.004 -10e-4,-4.99 1.853,-5.946 0.117,-4.056 -0.453,-1.344 -1.502,-0.108 -3.898,13.387 0.007,2.115 m 49.9962,35.617 v 0 l -4.3592,1.579 -2.063,2.066 -3.535,6.663 0.301,0.358 2.666,0.055 3.8558,-5.392 1.7807,-1.755 2.9701,-1.462 M -253.519,642.061 v 0 l 1.493,-2.531 1.531,-1.331 0.478,1.305 -0.117,2.055 -1.617,3.666 -2.059,2.06 -2.662,1.538 -1.379,-1.297 0.009,-2.054 1.367,-0.314 0.764,0.551 m 59.853,-115.289 v 0 l -0.29,5.106 -0.837,1.977 v 3.993 l 0.482,1.484 0.977,0.871 h 2.052 l 1.548,-1.985 3.736,-3.151 7.664,-5.566 2.048,10e-4 0.691,0.582 1.84,6.186 1.194,-0.694 1.595,-3.717 -3.686,-7.392 -1.712,0.024 -7.634,4.576 -7.315,6.085 -0.364,-2.362 1.738,-6.876 -0.026,-5.09 -1.797,-0.427 M -360.48,852.048 v 0 l -1.015,-0.85 -1.005,0.601 -1.029,-0.622 -9.944,5.694 -0.68,-0.016 -4.693,-9.711 -1.652,0.879 -0.205,0.746 1.87,6.237 2.617,15.259 1.241,1.234 0.813,0.025 0.146,-1.028 0.001,-7.993 -0.679,-1.734 5.866,-2.473 5.013,-3.009 3.004,-2.005 0.612,-0.789 m 221.061,-383.994 v 0 l -1.337,-1.35 -2.368,0.323 -0.008,2.054 2.542,3.232 2.174,-1.627 m -218.11,302.143 v 0 l -2.558,-17.562 -0.701,-0.509 -1.347,1.271 -0.019,9.088 2.946,15.366 1.775,-1.402 m 19.84,-341.324 v 0 l -1.526,-2.511 -2.611,-1.553 -4.08,0.01 -1.616,0.932 -2.062,3.474 -1.664,4.885 -0.116,2.057 0.836,1.978 -0.01,2.054 -1.397,0.327 -2.343,-1.722 0.047,-4.659 2.65,-2.974 -1.272,-1.342 -1.508,0.34 -2.871,2.976 v 7.052 l 1.627,1.723 4.731,1.737 4.048,-0.124 4.63,-2.573 2.105,-2.105 2.573,-4.63 M -88.85,392.426 v 0 l 0.007,4.102 1.8432,0.407 2.8601,-7.376 -0.6597,-2.059 0.5998,-1.006 -0.2741,-0.329 -1.5249,-0.102 M 507.177,220.455 v 0 l 0.622,2.045 -0.652,0.974 0.015,3.05 0.813,-0.025 1.525,-1.298 4.522,4.327 3.843,7.913 0.121,13.053 -1.779,5.954 -2.919,5.736 -5.098,5.101 -2.663,1.692 -3.236,3.309 2.182,1.536 6.717,-4.537 4.095,-4.095 2.001,-3.004 2.891,-6.476 1.809,-8.217 -0.117,-7.055 -1.616,-5.952 -1.962,-4.665 -2.006,-3.011 -6.303,-6.312 -1.482,-0.467 M 459.874,1004.1 v 0 l -3.172,3.73 -2.687,7.68 0.117,2.05 1.66,4.89 2.898,5.71 2.756,1.7 h 3.108 l 2.636,-1.58 2.098,-2.1 3.236,-5.42 3.997,10.19 1.97,1.91 1.36,-1.33 0.016,-2.09 -5.635,-19.68 -1.732,-1.56 -1.709,1.52 -2.534,10.49 -1.972,2.98 -2.758,2.65 -1.508,-0.34 -1.312,-1.32 -2.693,-6.69 0.123,-4.04 3.725,-5.9 -0.019,-3.08 m 22.4,-384.239 v 0 l 4.251,-9.196 4.217,-7.219 4.798,-4.681 2.174,2.06 0.302,1.311 -0.12,9.053 -2.835,7.944 0.467,1.477 1.003,0.819 2.785,-2.609 5.43,-8.38 2.57,-2.62 1.43,-2.38 1.101,-1.099 4.656,-2.534 1.816,1.639 3.574,6.63 0.123,6.05 -0.815,3.027 0.624,0.152 3.057,-2.151 0.014,-8.083 -1.618,-3.669 -1.962,-2.962 -3.759,-3.662 -2.02,-0.133 -3.696,1.7 -2.944,2.359 -5.065,6.61 -2.485,-11.831 -1.79,-1.705 -3.023,-0.133 -1.511,0.508 -1.707,2.667 -3.57,3.62 -3.962,5.962 -1.507,3.452 -0.749,0.573 -1.296,-1.297 0.642,-0.973 -0.001,-1.055 -1.694,-1.946 v -3.052 l 0.694,-0.945 0.021,-1.09 -1.635,-4.685 -0.731,-0.551 -1.337,1.338 1.717,12.806 2.183,9.615 1.467,-0.114 m 7.453,-383.383 v 0 l -1.774,8.81 -0.745,0.557 -4.781,-1.608 -1.536,2.222 0.355,1.427 2.211,1.837 1.79,-0.679 1.342,0.441 0.025,3.089 -2.735,8.878 -0.116,4.057 0.455,1.339 1.758,-0.591 3.466,-12.481 1.247,-2.678 2.616,0.049 3.883,1.726 1.393,-0.33 -0.147,-1.332 -1.381,-2.364 -5.227,-2.787 -0.063,-0.489 0.113,-6.121 2.707,-17.898 -1.31,-1.39 -2.327,0.345 0.638,1.046 -1.707,6.898 m -47.289,752.078 v 0 l -2.365,-0.366 -3.761,4.66 -6.231,10.258 -3.47,8.442 0.118,11.05 1.659,4.89 3.916,8.73 3.068,3.07 3.697,1.58 0.379,-2.36 -2.139,-2.29 -1.218,-2.22 -2.821,-5.73 -2.539,-6.67 -0.12,-9.05 0.3,-1.32 7.399,-14.376 4.138,-5.288 M 165.837,387.459 v 0 l 1.919,4.768 0.565,0.486 0.581,-0.813 2.779,-14.044 1.664,-3.601 4.488,-14.719 -1.306,-1.378 -1.818,0.666 -5.927,12.774 -2.568,9.665 -0.461,0.429 -1.593,-3.006 -3.634,-2.537 h -2.052 l -3.725,3.63 -2.615,6.662 0.004,2.113 1.554,2.611 2.752,1.691 1.358,-0.169 5.388,-3.402 1.834,-1.784 M 175.17,243.45 v 0 l -0.032,3.104 2.728,5.887 0.091,3.513 -6.422,2.028 0.264,1.518 -0.598,1.004 1.093,-0.216 1.385,1.484 3.793,-1.601 0.365,0.307 0.265,14.655 2.37,1.689 1.327,-1.322 -0.784,-2.004 0.103,-12.663 16.103,-5.585 0.62,-0.724 0.001,-1.051 -1.376,-1.302 -11.906,3.697 -2.563,0.068 -2.803,-8.335 -1.993,-3.1 0.599,-1.007 -1.299,-0.462 m -448.986,177.179 v 0 l -2.344,2.323 1.583,3.69 0.749,0.573 2.338,-2.268 0.015,-1.084 m 435.641,13.699 v 0 l 0.997,0.66 1.006,-0.831 -0.516,-1.941 -16.908,-4.107 2.671,-8.62 0.33,0.826 2.436,1.716 5.981,-1.698 5.683,2.558 2.295,2.135 1.508,-0.339 0.862,-0.976 -0.34,-1.508 -3.278,-3.269 -5.668,-2.606 -9.887,1.643 -2.158,-1.65 -0.718,0.587 -1.744,8.049 -3.762,7.413 -3.601,5.588 -1.547,3.667 0.02,1.088 1.315,1.322 1.03,0.134 13.989,10e-4 5.919,-1.838 1.488,-0.954 -3.342,-2.059 -1.061,-0.105 -3.001,0.955 -12.02,-0.147 0.023,-0.812 3.212,-5.21 1.796,-1.68 2.202,1.575 1.794,-0.696 h 3.993 l 3.007,0.97 m -79.522,81.48 v 0 l -3.8002,13.051 -1.116,2.394 -1.5937,-0.06 -1.9711,-0.819 -1.482,0.467 -3.3113,3.325 -2.5724,5.618 0.0141,7.085 1.6614,1.759 2.634,1.571 1.3634,-0.171 6.4997,-3.519 3.7975,-5.199 4.763,-12.407 -0.0161,-15.086 -1.3253,-1.325 h -2.0521 l -1.3254,1.324 M 97.0413,246.477 v 0 l -0.8436,1.019 0.303,0.48 2.309,2.309 3.0043,2.002 7.741,3.917 11.69,3.568 0.552,0.731 -2.512,3.687 -8.301,8.31 -1.118,0.574 -2.149,2.734 -1.573,2.637 0.021,1.085 2.361,0.321 14.497,-14.379 3.776,-4.972 -0.873,-1.634 -2.677,-2.094 -13.477,-4.447 -5.958,-3.038 -4.2878,-3.138 m -18.9995,287.64 v 0 l -0.493,-1.282 0.4662,-1.31 0.4674,1.302 M 91.5027,374.121 v 0 l -9.3914,3.82 -2.5905,-13.93 -0.5095,0.055 -2.8717,7.375 0.028,1.085 0.7208,0.448 2.8798,17.862 1.0651,-0.309 -0.6326,-2.027 0.6516,-0.974 0.2611,-5.681 4.92,-2.343 15.1876,-5.253 0.62,-0.725 -0.312,-1.359 -2.029,0.634 -1.0373,-0.632 -4.9018,1.7 m 65.3161,175.636 v 0 l -2.743,5.938 0.336,2.4 1.686,0.044 3.551,-7.062 1.144,-1.297 0.134,-4.023 -0.483,-1.485 -1.317,-1.306 -3.597,-1.845 -6.09,-1.723 -7.034,1.567 -6.392,2.213 -2.049,-7.389 -0.498,-0.376 -4.75,1.591 -4.585,4.535 -6.695,4.515 -0.357,-2.354 6.661,-11.946 -1.299,-1.299 -2.785,2.609 -5.577,9.636 0.01,5.08 1.325,1.325 3.081,0.011 4.63,-2.573 4.006,-3.004 3.018,-2.975 2.217,7.681 2.129,-0.129 4.219,-2.187 6.668,-2.541 5.053,-0.12 4.732,1.672 2.251,1.308 0.366,1.533 M -271.499,375.156 v 0 l -1.352,1.318 -0.011,2.079 1.731,2.312 h 0.622 l 1.36,-1.339 v -3.052 l -1.328,-1.319 m -4.659,64.346 v 0 l -0.668,0.993 2.278,2.357 2.369,-0.323 0.008,-3.054 -1.325,-1.325 -2.054,0.008 M 84.9999,423.543 v 0 l -0.0153,-3.04 -0.482,-1.484 -0.9753,-0.861 h -1.0551 l -1.2716,1.341 0.7683,2.001 -0.9382,3 0.8212,1.974 0.0155,3.086 -4.0866,10.979 -1.6438,4.9 0.0213,1.09 1.6168,1.72 9.664,3.618 14.0849,-0.029 -0.025,-0.813 -2.4992,-1.939 -15.0712,-2.7 -3.6989,-2.069 4.6377,-12.757 M -267.455,392.171 v 0 l -1.523,0.323 -1.82,2.004 3.27,2.325 1.379,-1.297 0.118,-1.026 -0.466,-1.48 m 352.6435,94.436 v 0 l -0.6412,1.525 -1.3568,1.493 -0.1335,4.023 0.7952,1.786 2.6353,1.579 5.0485,0.124 1.3081,-0.298 3.6978,-2.487 2.9721,2.641 1.361,-0.372 -1.696,-4.909 0.848,-3.065 -0.458,-3.339 -2.0496,-0.007 -0.6961,0.591 -1.7486,5.721 -2.5065,2.389 h -5.0526 l -1.3249,-1.325 v -2.052 l 2.5662,-3.664 4.095,-4.095 2.6349,-1.571 1.0849,0.022 0.3128,1.361 -0.6429,0.979 0.2751,0.324 2.0279,-0.85 0.4951,-2.48 -0.4699,-2.343 -4.0821,-0.019 -2.6361,1.577 M 174.018,604.49 v 0 l -1.874,2.954 v 1.112 l 2.569,4.629 4.574,6.629 3.575,6.632 v 3.108 l -1.696,2.754 -2.612,1.554 -1.06,0.124 -5.053,-0.121 -6.632,-2.544 -3.283,-2.172 h -2.052 l -1.316,1.324 v 1.054 l 1.658,1.761 3.985,2.046 7.638,2.533 4.055,0.119 6.817,-2.828 2.555,-5.6 0.119,-2.052 -1.666,-4.766 -2.033,-3.926 -6.148,-9.26 0.01,-3.08 2.662,-2.759 2.636,-1.577 3.101,0.009 -1.26,1.555 1.213,1.097 2.351,-2.273 0.118,-1.026 -0.466,-1.481 -0.977,-0.871 -5.08,-0.01 -2.636,1.577 m 10.172,-220.237 v 0 l -0.953,0.025 -0.532,-0.524 -0.339,-1.507 2.652,-2.757 2.636,-1.577 3.05,-0.122 1.346,0.456 -0.337,2.328 -0.979,-0.652 -2.052,10e-4 m -90.453,4.329 v 0 l -1.27,1.296 -1.6167,3.667 -0.1192,2.053 1.6769,3.671 2.754,1.697 6.08,-0.011 5.974,-4.65 3.974,3.65 2.326,-0.346 -1.599,-2.005 0.598,-1.003 -3.005,-3.218 -1.771,-7.744 -0.501,-0.386 -9.076,-0.011 -2.636,1.577 m 63.338,97.742 v 0 l -2.01,3.989 -0.124,5.048 2.693,6.683 6.116,5.116 5.618,2.568 1.088,-0.02 1.269,-1.339 -0.323,-0.504 -4.948,-2.976 -5.812,-5.832 -1.577,-2.636 0.01,-6.08 2.627,-2.724 3.666,-1.616 2.055,-0.118 1.484,0.481 0.871,0.977 0.118,1.026 -0.969,1.998 -3.445,2.358 -2.056,-0.655 -1.341,1.271 0.339,1.509 1.003,1.018 0.971,0.842 1.088,0.019 3.666,-1.611 3.06,-3.059 1.577,-2.636 -0.01,-3.08 -0.926,-1.607 -2.372,-1.729 -2.054,-0.137 -7.026,0.147 m -66.481,-91.619 v 0 l 2.717,-2.239 0.765,0.552 1.052,0.001 0.944,-0.693 1.529,-0.086 1.862,4.375 -0.021,1.09 -1.915,2.605 -3.4,2.717 h -4.052 l -2.325,-2.325 -0.119,-1.024 1.685,-3.692 m -7.2347,159.17 v 0 l 3.9657,2.882 1.06,0.122 2.048,-0.122 4.918,-2.84 3.813,-3.832 1.577,-2.636 v -6.108 l -1.554,-2.612 -2.754,-1.696 -4.054,-0.137 -2.054,0.137 -2.918,1.839 -2.7776,2.798 -1.5797,3.691 0.6721,1.006 -0.0085,1.055 -0.9677,0.546 -1.7047,2.427 M 183.477,381.96 v 0 l 2.487,2.053 2.734,7.152 1.776,1.686 h 2.052 l 2.607,-1.925 3.152,-3.736 1.577,-2.636 0.005,-8.115 -1.598,-4.645 -2.715,-1.656 -3.113,-0.004 -3.669,1.619 -2.962,1.962 -2.662,2.759 -0.133,4.022 m 7.141,2.005 v 0 l 2.643,-3 -0.599,-1.007 0.276,-0.332 3.02,-0.146 1.347,0.456 0.022,4.087 -1.616,3.666 -3.749,3.574 -1.351,-1.273 0.013,-2.05 2.364,0.357 0.338,-0.964 -2.341,-1.862 m 201.484,670.513 v 0 l -0.846,-0.05 -0.012,2.06 1.325,1.32 h 2.052 l 3.664,-2.57 3.835,-3.78 1.2,0.25 2.578,19.94 3.048,-3.16 0.135,-10.02 -1.877,-8.2 -2.861,-7.53 -0.75,-0.58 -1.543,0.85 -2.662,5.13 -6.318,6.32 m 25.496,-430.522 v 0 l 0.374,1.545 -0.83,1.98 0.122,4.051 2.392,3.47 2.914,1.832 1.329,-0.139 5.404,-2.424 3.675,-4.767 v -5.052 l -5.325,-5.325 h -2.052 l -3.974,3.65 -0.974,-0.652 -3.054,0.01 -0.317,1.377 m 29.983,-191.036 v 0 l 0.715,-0.965 -0.011,-2.061 -1.367,-0.313 -2.767,3.662 -3.574,8.62 0.023,4.087 2.401,0.337 11.888,-5.727 5.08,0.01 1.315,1.323 0.019,1.088 -2.721,6.882 0.031,1.085 1.33,-0.325 0.998,0.596 0.511,-0.327 2.853,-5.916 0.123,-1.06 -0.123,-3.048 -1.548,-2.606 -3.756,-1.706 h -2.117 l -11.92,5.689 -0.387,-2.382 m 13.905,-182.952 v 0 l -5.906,15.95 0.338,2.396 1.535,-0.358 1.313,-2.284 4.546,-12.635 -0.014,-2.084 -1.358,-1.278 M 106.259,528.32 v 0 l 2.931,1.395 1.734,2.218 -7.362,1.937 -2.058,0.113 -1.339,-0.454 0.332,-1.51 2.278,-2.268 m 53.047,-31.206 v 0 l -0.313,-1.348 -1.011,0.6 -0.508,-0.761 -9.175,-3.749 -1.108,-1.11 -2.573,-5.619 0.004,-7.112 10.724,-15.892 -0.019,-3.082 -1.89,-0.391 -2.661,5.098 -4.007,6.011 -1.573,1.626 -3.574,6.63 -0.004,8.113 2.942,6.573 3.699,3.117 3.666,1.617 6.055,0.118 M -396,1058.46 v 0 l 0.131,3.1 2.613,8.65 6.066,6.07 2.636,1.58 3.05,0.12 1.304,-0.47 -0.874,-1.64 -5.116,-3.59 -3.063,-3.06 -2.615,-7.66 -0.118,-11.05 2.699,-5.7 6.002,-9 5.135,-4.29 -0.322,-2.36 -2.024,-0.14 -1.486,0.48 -6.303,6.31 -4.002,6 -3.575,6.64 M 5.52722,482.998 v 0 l -0.37274,1.525 0.6745,1.011 -1.51086,3.726 -2.03028,3.924 -2.979124,3.575 -2.498476,-1.474 -2.66174,-2.759 -6.1e-4,-3.052 0.6944,-0.947 -0.00745,-1.056 -2.33106,-0.454 -1.30432,0.477 0.59973,1.006 -0.65179,0.974 -0.13226,3.022 1.05859,2.637 3.73596,3.152 2.63416,1.571 1.358091,-0.169 2.387999,-1.402 2.09485,-2.095 2.00702,-3.012 2.57379,-5.62 -0.02295,-5.086 -2.36835,-0.323 M 107.546,419.163 v 0 l -2.064,-0.001 -0.32,0.372 1.824,8.973 -0.001,8.99 -0.837,1.977 0.001,3.052 2.324,2.316 h 1.055 l 3.662,-2.557 3.015,-2.974 1.626,8.999 2.867,1.413 -0.659,0.293 -1.493,5.046 -5.415,25.376 0.007,5.116 1.577,2.636 4.095,4.095 2.636,1.577 5.08,-0.011 2.759,-2.661 2.001,-3.004 1.92,-3.739 1.661,-4.887 -0.002,-2.119 -1.618,-3.666 -0.723,-0.616 -1.505,0.339 -8.042,8.03 -1.67,2.639 -2.015,1.548 0.55,0.76 -0.335,1.324 -2.369,-3.245 -0.007,-4.116 5.736,-24.878 0.118,-4.057 -0.851,-2.634 6.154,-5.685 4.959,-8.956 1.618,-3.67 -0.023,-2.086 -2.985,-0.364 -5.57,10.077 -4.156,5.68 h -0.617 l -0.709,-0.571 -1.91,-14.338 -1.397,-1.754 -1.713,1.53 -1.574,6.54 -1.926,2.918 -2.79,2.61 -0.337,-1.327 0.827,-1.976 0.001,-8.99 -1.78,-8.783 M 331.478,259.21 v 0 l 0.027,0.593 m -447.978,736.198 v 0 l -0.446,-2.047 3.235,-1.797 2.542,-4.016 0.64,0.002 0.364,2.411 -1.577,2.636 -3.785,3.609 M -7.4743,388.028 v 0 l -0.37037,-1.552 3.68641,-4.949 -0.00849,-1.053 -0.96423,-0.338 -3.15393,3.674 -1.57739,2.636 -0.12348,1.06 0.11829,4.054 1.86761,4.378 2.52582,-0.087 3.28375,-3.136 2.380312,-1.43 6.828858,-6.787 1.50415,-0.327 0.15216,0.623 -1.39056,2.396 -4.13568,5.284 6e-5,2.052 1.37903,1.297 2.66186,-1.538 5.61972,-5.57 6.6361,-4.577 7.0821,0.019 0.4565,1.347 4e-4,2.992 -0.8368,1.978 -0.147,2.026 0.4937,3.3 1.4715,-0.814 1.9022,-5.425 -0.017,-7.087 -1.3251,-1.325 -1.03,-0.134 -9.0505,0.123 -2.6358,1.577 -2.2827,2.127 -1.0523,-0.012 0.367,-2.358 -1.3157,-1.323 H 6.47363 l -7.283567,7.136 -4.717773,3.537 -2.33759,-1.692 0.66883,-1.636 m -3.34893,159.329 v 0 l 1.83581,-0.646 2.46057,-4.876 0.75201,0.496 0.47217,-0.297 3.83472,-4.785 9.19397,-5.258 1.52032,-1.415 -1.02356,-0.841 -1.00061,0.598 -0.97125,-0.642 -1.0838,-0.013 -6.62909,3.568 -4.32105,4.088 -0.46307,-1.3 0.82031,-1.974 0.13275,-5.023 -0.78412,-2.003 0.62152,-1.028 -1.69378,-2.365 -1.02588,-0.085 -2.97104,18.416 -0.1159,4.058 m 20.43453,1.342 v 0 l 7.10857,0.028 3.6691,-1.619 5.2722,-4.046 5.3096,6.084 3.6628,2.557 1.3566,-0.369 -1.5797,-3.698 -3.5343,-3.585 -1.5772,-2.636 -0.1228,-4.051 0.8412,-3.058 -1.8483,-2.922 -1.5079,-0.492 -1.5074,0.491 -1.6776,2.248 -3.7565,-1.636 h -2.1171 l -3.6666,1.616 -2.7969,2.777 -2.84381,5.914 0.01435,5.085 M 22.306,467.796 v 0 l 2.7705,5.335 2.3959,1.691 0.5031,-0.324 0.8534,-1.032 -3.5431,-7.65 -0.7607,-0.657 -1.0525,-10e-4 -1.3142,1.313 m 12.267,33.379 v 0 l 7.1333,0.016 5.5992,-2.553 1.6981,-2.757 -0.169,-1.358 -1.4022,-2.388 -3.4752,-2.525 -4.6075,-4.783 3.2435,-2.364 3.7523,-0.024 1.2638,1.081 1.3579,-1.667 -3.2656,-2.39 h -5.1083 l -3.4702,2.391 -1.8141,2.971 1.6729,2.808 2.6378,1.669 6.2363,5.737 -1.5185,1.571 -2.6358,1.577 -5.0506,0.123 -1.9776,-0.837 -4.0501,0.014 0.0247,0.813 1.0272,1.048 m 11.7732,-78.196 v 0 l 3.9034,7.729 3.4733,10.675 2.0369,3.952 0.7876,0.615 2.7865,-2.614 5.4241,-9.369 2.1413,-2.363 0.132,10.041 -1.8276,11.037 1.8586,1.97 1.1762,0.345 2.0914,-8.029 1.7014,-12.323 -0.1188,-10.053 -1.8674,-4.376 -1.527,0.088 -0.7594,0.664 -6.4263,11.369 -4.6257,6.89 -4.4133,-12.3 -2.9595,-4.959 -5.1427,-4.714 -0.6019,-0.085 -2.7524,0.115 -0.6963,1.011 -3.965,22.295 -0.1153,4.058 0.8275,1.977 -0.6947,2.001 0.0107,3.05 0.8908,0.359 1.9856,-2.881 4.7122,-27.747 m 1.2162,113.821 v 0 l -3.8291,9.365 0.0141,4.085 1.3241,1.316 h 1.055 l 9.9447,-6.684 1.0568,0.007 0.4553,1.338 5e-4,3.993 -0.7841,2.004 1.2993,1.299 0.4751,-0.3 2.8871,-3.945 -7e-4,-6.108 -1.7288,-2.344 -3.6592,0.046 -6.946,4.694 -1.0565,-0.007 -0.3365,-2.394 1.8348,-4.943 -0.4388,-1.338 M -29.522,437.21 v 0 l 0.0266,0.593 m 5.7464,-48.271 v 0 l 1.735,-7.039 -0.1347,-10.019 -1.3475,-1.271 -0.6995,0.506 -2.2754,15.073 -1.5139,5.725 0.1425,2.021 1.3676,0.313 1.8196,-2.71 m 3.1097,-3.308 v 0 l 1.5231,-0.318 5.919,-5.669 -2.369,-1.658 -3.7177,2.537 -1.6614,1.759 -0.1318,2.022 m 89.511,161.506 v 0 l -0.5122,-1.5 0.1223,-5.056 2.5734,-4.63 1.7614,-1.658 2.0276,0.641 1.4655,-0.71 1.8984,5.349 -0.0225,1.092 -3.6581,4.759 -4.6553,2.533 m 9.2281,-48.614 v 0 l 0.7097,0.643 2.0614,-0.009 0.3377,-1.405 -2.7504,-11.978 -1.5907,-2.31 -2.0181,-0.134 -3.6754,1.683 -0.7343,1.038 -3.1988,-28.719 -1.4289,0.143 -0.4529,1.344 -0.0018,14.989 1.7932,16.804 0.6709,0.553 2.0484,10e-4 4.4986,-4.351 0.9952,0.036 m -182.23,-99.058 v 0 l -0.593,0.027 m 333.593,-0.027 v 0 l -0.593,0.027 M 103.25,535.293 v 0 l 5.246,-0.277 1.304,0.479 -3.616,3.794 -4.492,2.47 -1.554,-2.206 -0.06,-2.598 m -75.4145,-0.752 v 0 l 0.1839,1.317 -2.5397,3.646 -3.0799,2.081 -3.6694,1.619 -3.0547,0.118 -1.3464,-0.456 -0.0228,-2.087 2.5721,-5.618 1.1032,-1.108 2.6359,-1.577 2.0801,0.01 0.9468,0.695 h 1.0546 l 1.6036,-0.708 M -397.692,1113.2 v 0 l 1.668,-2.67 3.498,-3.38 2.022,-0.13 1.347,0.45 0.008,3.06 -3.667,4.76 -4.663,2.53 -0.505,-1.32 M -31.7689,489.305 v 0 l 2.5909,6.174 -0.3,0.358 -2.0482,0.014 -1.3254,-1.325 v -4.053 m 9.3238,-1.476 v 0 l 0.3721,1.526 -2.317,2.319 -1.5073,-0.34 -0.8716,-0.976 -0.01,-3.08 1.5752,-2.155 m 45.555,2.993 v 0 l -0.1111,7.244 1.3669,0.313 0.731,-0.63 0.9074,-2.51 1.6924,-8.257 -2.0417,-2.332 M 64.4731,426.21 v 0 l 0.3586,1.31 -0.3321,0.282 -0.3319,-1.333 m 34.6226,113.009 v 0 l -0.5931,0.027 M -277.21,636.478 v 0 l -0.593,0.027 m 708.64,-11.055 v 0 l 0.014,3.077 -4.325,4.324 h -2.052 l -2.316,-2.322 0.157,-1.336 2.396,-4.377 2.789,-2.615 M -345.999,447.543 v 0 l 0.137,-5.097 2.718,-4.336 1.672,0.041 1.323,1.323 0.011,4.08 -1.577,2.636 -3.31,3.309 -0.812,0.025 m 37.627,664.956 v 0 l -0.593,0.02 M -75.2096,539.478 v 0 l -0.5932,0.027 M 127.17,378.45 v 0 l -0.303,4.11 -1.853,5.946 0.134,3.02 1.352,1.273 4.31,-4.084 7.636,-4.577 2.08,0.011 1.325,1.325 0.001,2.052 -0.695,0.947 10e-4,1.054 0.868,0.973 h 0.949 l 1.876,-1.974 0.011,-3.08 -1.577,-2.636 -1.759,-1.661 -4.08,-0.011 -7.924,4.685 -0.49,-1.323 0.82,-1.974 -0.009,-4.054 -1.343,-0.44 m -6.992,111.807 v 0 l -0.181,-0.639 1.388,-2.39 2.57,-2.62 1.43,-2.38 4.79,-4.611 0.36,2.359 -3.577,7.626 -3.761,3.658 m 34.955,-111.633 v 0 l 1.014,0.594 1.004,-0.602 0.475,0.299 2.867,2.972 v 1.055 l -2.652,2.758 -5.662,3.538 -1.37,-1.294 -0.021,-1.09 2.565,-6.609 m -37.493,107.692 v 0 l 0.593,-0.027 m -79.5925,53.027 v 0 l 0.593,-0.027 M 420.79,623.478 v 0 l -0.593,0.027 M 303.209,495.522 v 0 l 0.594,-0.027 m 116.406,130.027 v 0 l 0.593,-0.027 m -0.494,-188.209 v 0 l 1.513,2.194 -0.298,0.349 -1.365,-0.302 m 30.862,189.939 v 0 l 0.302,1.347 1.395,1.888 0.486,-0.423 2.663,-14.715 -0.364,-1.543 -1.02,-0.892 -1.527,2.032 -1.825,8.278 M 81.473,527.21 v 0 l 0.3588,1.31 -0.3324,0.282 -0.3319,-1.333 M 206.478,1027.21 v 0 l 0.027,0.59 m 46.973,-536.591 v 0 l 0.027,0.594 m -342.0269,45.406 v 0 l 0.0265,0.593 m 644.6724,53.655 v 0 l -0.03,2.065 3.83,4.95 3.833,3.813 2.662,1.692 3.338,3.308 2.38,1.43 4.651,4.756 -0.154,1.331 -1.404,2.39 -9.992,14.094 2.181,1.536 1.661,-0.896 4.152,-4.736 5.43,-8.38 3.136,-3.284 0.047,-2.659 -7.708,-7.152 -7.38,-5.43 -5.096,-5.095 -1.524,-2.472 -3.667,-1.549 M 529.457,1023 v 0 l 2.093,-0.14 10.634,-5.57 4.1,-4.1 1.539,-2.66 -0.325,-0.51 -0.972,-0.87 h -2.052 l -1.548,1.98 -3.742,3.16 -8.658,4.58 -0.667,-0.01 -7.106,-11.63 -1.506,-3.46 -0.723,-0.61 h -1.052 l -1.324,1.31 0.009,4.06 0.976,0.54 2.154,2.74 5.426,10.37 0.762,0.67 m -32.139,-3.65 v 0 l -0.196,1.35 1.968,5.32 1.731,10.59 -0.639,1.04 1.3,1.3 2.351,-2.27 0.016,-10.09 -2.637,-8.68 -0.705,-0.61 -1.658,-0.05 m 59.659,-38.063 v 0 l -1.505,0.456 -2.847,2.551 6.705,2.416 3.406,2.35 4.922,8.742 1.779,5.958 -0.119,7.05 -3.533,11.64 -4.047,7.99 -2.002,3 -3.295,3.12 2.477,1.52 3.723,-2.55 2.095,-2.09 3.027,-4.97 2.013,-4.96 3.542,-10.7 0.119,-11.054 -2.737,-7.73 -2.961,-4.96 -5.104,-5.105 -4.633,-2.574 M 542.04,614.477 v 0 l -4.325,4.333 -2.734,3.692 -1.509,0.341 -0.978,-0.644 -0.332,0.277 -0.013,2.05 0.875,0.972 0.771,0.177 2.395,-1.39 5.734,-5.213 2.276,8.609 1.641,-9.211 -1.64,-1.97 0.642,-0.973 -0.008,-1.056 -1.335,-0.44 M -509.21,1108.48 v 0 l -0.593,0.02"
     id="path6" />
</g>
</svg>
