<svg
   viewBox="-702 0 1250.785 868.7829"
   version="1.2"
   id="svg10"
   xmlns="http://www.w3.org/2000/svg"
   xmlns:svg="http://www.w3.org/2000/svg"><defs
   id="defs14" /><path
   fill="#000000"
   d="m 336.834,0.46939816 v 0 l -2.864,5.98030004 0.681,1.0079 0.132,2.0226 -0.817,3.0286998 0.825,0.3744 3.966,-8.7844998 0.522,0.011 1.808,1.6904 2.998,4.9976998 4.576,9.6321 0.123,1.0595 -0.12,9.053 -2.539,6.6672 -8.188,16.2202 0.019,2.082 2.387,0.453 1.926,-2.006 8.875,-17.8037 2.524,-8.6097 0.117,-3.0552 -3.675,-10.7282 L 345.087,4.7998982 340.325,0.13249816 338.303,-1.8371582e-6 M 290.302,751.8609 v 0 l 3.97,-2.728 2.37,0.323 0.141,3.024 -0.836,1.978 -0.134,4.02 0.303,1.311 1.887,2.077 2.782,-10.389 -0.125,-4.047 -1.728,-2.344 -0.588,-0.085 -4.099,0.121 -4.632,2.575 -4.287,3.129 -1.052,-0.012 0.323,-1.328 -0.51,-0.797 1.232,-1.679 -0.363,-1.553 0.642,-0.974 -1.272,-1.341 -1.052,0.012 0.347,1.358 -2.575,5.699 -5.07,8.244 0.665,1.001 -0.312,1.362 -8.222,-1.75 -4.44,-2.16 -3.731,-5.37 0.001,-6.108 2.573,-4.63 5.308,-5.318 1.51,-0.333 0.327,1.39 -1.571,2.635 -7.136,7.284 v 2.05 l 0.661,0.759 2.636,1.579 2.271,-0.178 -1.581,-2.177 6.149,-6.317 2.566,-3.664 v -6.052 l -1.325,-1.326 -1.03,-0.133 -4.05,0.123 -2.636,1.577 -4.308,4.283 -3.731,5.753 -1.638,4.689 -10e-4,2.12 1.678,4.864 2.883,4.742 5.718,2.968 6.05,1.701 2.039,-0.804 2.297,0.64 2.203,-2.171 0.102,-0.631 3.708,-3.154 7.667,-5.578 m -791.477,17.319 v 0 l 0.149,14.07 1.36,1.339 h 0.622 l 1.731,-2.311 0.124,-1.06 -0.135,-15.021 -1.324,-1.315 -1.507,0.339 -0.871,0.976 m 20.096,-317.18 v 0 l 3.888,-0.395 1.739,-2.373 -0.008,-0.654 -2.308,-1.727 -1.116,-0.004 -8.411,2.765 -3.075,-14.991 -1.396,-1.887 -1.841,0.783 -1.538,2.664 0.721,0.505 1.941,12.485 -1.345,0.519 -2.057,-0.116 -4.902,-1.7 -1.386,1.305 -0.122,1.074 1.829,1.757 8.092,2.726 -0.084,7.53 -2.708,6.934 1.709,2.404 2.136,0.039 2.865,-8.376 0.195,-8.56 m 23.937,-274.457 v 0 l 0.014,-15.037 1.971,-6.012 -0.12,-2.052 -1.819,-3.362 -1.571,0.072 -0.681,0.572 -2.871,11.408 -3.397,2.719 h -3.049 l -0.724,-0.626 -1.619,-3.666 0.014,-3.085 1.662,-1.759 2.635,-1.571 1.562,0.379 1.862,2.341 0.628,-0.007 0.486,-1.361 -0.131,-2.022 -0.898,-1.517 -3.454,-1.804 -5.658,2.536 -2.708,5.752 -0.105,1.059 1.739,5.746 2.042,2.039 2.636,1.577 1.06,0.123 2.048,-0.123 3.951,-2.663 0.333,0.277 0.147,12.02 -0.97,3.007 0.134,5.023 1.324,1.316 1.734,-0.567 1.663,-7.713 M -454.159,1.4605982 v 0 l -0.894,0.9925 -0.014,2.0893 7.732,21.8828998 0.133,2.0583 -0.129,6.0626 -3.679,15.8417 -1.025,1.902 -2.638,1.671 -1.37,1.496 0.339,1.507 0.977,0.871 1.024,0.119 3.692,-1.685 1.307,-1.283 0.754,-0.78 1.25,-3.294 3.369,-14.3657 0.129,-9.0626 -0.131,-2.0603 -1.506,-4.7133 -6.043,-16.9187998 -1.794,-2.6484 M 298.342,608.9849 v 0 l -3.098,0.137 -4.629,2.573 -3.101,3.099 -4.577,7.636 v 5.108 l 1.554,2.612 5.754,3.696 5.05,0.123 3.004,-0.954 2.001,0.768 1.201,-1.062 -10.501,-2.737 -1.675,-0.98 -2.377,-2.494 -0.015,-2.085 1.616,-3.666 2.965,-3.965 3.759,-3.662 4.054,0.009 0.457,2.337 -1.738,4.734 -3.113,6.213 0.025,2.084 0.971,0.339 5.162,-6.686 2.573,-5.62 -0.003,-3.112 -2.88,-3.949 M 332.256,64.983898 v 0 l 5.039,-0.015 3.007,-0.97 14.99,-10e-4 22.49,3.847 3.481,1.108 1.008,0.873 1.508,-0.339 0.871,-0.977 0.118,-1.026 -0.467,-1.482 -1.294,-1.278 -2.366,-0.842 -22.349,-3.884 -24.99,10e-4 -1.976,0.828 -3.031,-0.828 -7.024,0.142 -0.441,1.343 0.498,1.514 3.912,1.852 M -495.201,642.5269 v 0 l 0.134,-3.102 1.852,-3.912 2.54,-0.38 1.979,1.651 0.325,-0.275 -0.328,-1.506 -1.312,-1.304 -2.635,-1.572 -1.084,0.015 -2.756,2.652 -1.577,2.636 0.011,10.08 1.661,1.759 2.636,1.577 3.08,-0.011 2.762,-2.667 4.394,-8.268 5.031,10.269 2.002,3.005 3.134,3.358 -0.648,-2.048 0.651,-0.974 0.01,-2.08 -3.18,-6.192 -3.041,-8.015 -4.272,-18.397 -1.846,-3.693 h -2.049 l -1.325,1.325 -0.119,1.024 2.839,8.94 -0.003,9.121 -2.545,6.631 -3.318,5.285 -0.978,0.025 -1.877,-1.974 M 330.653,67.486898 v 0 l -1.328,-1.354 -1.03,-0.134 h -2.993 l -1.977,0.837 -2.088,0.016 -9.718,-2.155 -34.227,-3.699 -31.99,10e-4 -1.977,0.837 -2.026,0.147 -20.996,-0.014 -3.008,-0.97 -8.992,0.001 -1.339,0.455 0.583,1.752 16.758,2.763 22.99,-0.001 3.008,-0.97 20.989,-10e-4 29.515,2.684 20.498,3.288 4.02,-0.134 0.946,-0.695 3.055,0.685 1.324,-1.316 M 220.593,756.3179 v 0 l -0.929,-0.21 -1.727,2.322 0.011,2.078 0.374,0.484 3.253,2.241 6.665,2.616 h 7.117 l 3.667,-1.616 2.024,-2.024 1.611,-3.665 v -1.121 l -1.611,-3.664 -1.066,-1.064 -7.373,-4.426 -2.095,-2.095 -1.577,-2.636 -0.124,-1.06 0.134,-4.02 1.662,-1.759 2.636,-1.577 4.08,0.01 1.945,1.701 1.661,0.047 1.69,-2.368 -2.577,-2.76 -4.683,-1.631 -4.788,1.548 -2.247,1.293 -1.812,1.832 -1.577,2.636 -0.124,1.06 0.12,5.053 2.573,5.618 2.109,2.112 4.369,2.424 4.313,3.31 0.177,0.772 -1.368,2.37 -2.753,1.697 -5.113,0.004 -5.617,-2.575 -0.899,-1.425 M 268.033,4.2607982 v 0 l -7.236,3.2271 -3.89,2.3529 -0.026,2.2029998 2.7,1.6284 -2.768,24.8185 0.134,14.0192 1.352,1.273 3.192,-3.558 5.614,2.843 9.194,1.914 2.061,-0.129 8.612,-2.525 4.013,-2.058 3.838,-2.8152 2.838,-4.9167 0.123,-1.0598 -0.123,-5.0485 -1.578,-2.6359 -3.1,-3.0979 -7.103,-3.6652 0.07,-1.5759 3.7,-3.9446 0.011,-7.0805 -1.577,-2.6359 -3.095,-3.0947998 -7.636,-4.5773 M -616.201,245.5269 v 0 l 0.016,-6.039 0.456,-1.347 5.025,-0.142 1.977,0.837 2.022,0.132 1.978,-0.836 2.019,-0.133 6.945,1.854 2.058,0.115 2.007,-1.004 0.338,-1.505 -2.419,-1.638 -3.525,-0.829 -18.404,-1.994 -5.021,0.143 -0.456,1.347 3.97,65.003 v 9.986 l -3.72,46.268 -3.252,32.746 10e-4,3.989 0.837,1.978 0.146,2.026 -0.146,2.026 -0.837,1.977 -0.014,7.997 1.969,77.003 -0.955,3 -10e-4,4.99 3.854,24.071 -2.711,38.893 0.828,2.046 10e-4,4.99 -1.88,21.838 -4.092,25.175 1.972,23.001 0.013,9.993 -2.016,30.633 -0.969,6.374 10e-4,6.989 0.954,3.004 -0.938,3 0.467,1.482 2.002,1.817 2,-0.768 3.004,0.954 12.99,0.001 3.696,-1.701 1.632,-1.813 -1.689,-2.369 -2.659,0.045 -1.948,1.703 -6.019,0.135 -8.47,-2.045 -0.028,-0.367 0.005,-15.067 1.985,-13.007 -0.014,-5.997 -0.97,-3.007 0.133,-4.022 0.837,-1.978 0.015,-16.996 -0.148,-4.026 -0.837,-1.978 -10e-4,-18.99 1.299,-6.013 1.722,-13.016 2.951,-52.984 v -23.986 l -0.981,-6.463 -1.991,-28.551 10e-4,-6.99 0.97,-3.007 v -9.993 l -0.97,-3.007 -0.015,-4.996 0.148,-3.026 0.837,-1.978 0.015,-17.996 -0.148,-3.026 -0.837,-1.978 -0.014,-32.996 0.147,-2.026 0.837,-1.978 -0.133,-3.022 -0.694,-0.945 -0.024,-1.092 2.927,-22.328 2.939,-42.609 -0.014,-15.993 M -600.949,5.2460982 v 0 l -7.18,2.2272 -5.38,2.3482 -4.405,8.3479998 -3.575,4.63 -4.667,10.0662 -3.235,-1.597 -2.62,-2.5695 -2.662,-1.5382 -1.379,1.2968 0.349,2.5079 2.312,2.3031 6.031,4.19 -0.826,3.0286 -10e-4,12.9905 1.737,4.731 3.059,3.06 3.011,2.006 9.618,3.577 16.057,0.117 3.007,-0.97 7.991,-10e-4 11.947,3.852 4.113,-0.004 2.636,-1.577 1.661,-1.759 -0.322,-2.361 -3.033,0.82 -4.99,0.001 -5.819,-1.899 -37.43,-2.221 -3.439,-1.578 -4.05,-3.042 -1.635,-4.686 0.015,-2.086 0.704,-0.948 0.132,-2.0223 -0.954,-3.0011 1.924,-4.4242 3.572,0.0695 1.977,0.8369 8.991,0.0012 5.93,-1.7962 5.766,-3.9049 5.832,-5.8124 4.84,-7.9183 v -7.1083 l -2.696,-4.7528998 -2.938,-1.9397 -3.669,-1.619 M -503.346,852.4809 v 0 l -0.709,0.97 -0.131,3.029 0.482,1.484 0.975,0.861 1.403,-0.342 2.94,-2.786 5.659,-3.564 2.08,-0.011 2.636,1.577 4.095,4.095 1.562,2.703 -1.681,7.017 1.334,0.438 1.796,-0.799 2.567,-6.607 -0.007,-1.119 -2.567,-4.627 -3.099,-3.101 -2.962,-1.962 -3.67,-1.619 -2.112,0.004 -5.919,3.704 h -1.055 l -1.271,-1.342 0.642,-0.973 -0.642,-2.027 0.599,-1.006 -1.327,-0.336 -1.272,1.341 0.598,1.001 -0.652,0.974 m 743.387,-236.455 v 0 l -1.34,0.295 -4.338,2.767 -3.718,6.365 v 8.108 l 2.364,3.448 4.327,3.295 6.609,2.566 1.118,-0.007 2.634,-1.571 1.61,-1.79 -1.327,-0.337 -0.947,0.694 -2.085,0.013 -3.666,-1.616 -3.965,-2.964 -2.673,-3.731 -0.003,-4.113 1.616,-3.666 2.991,-2.996 5.697,-1.648 2.058,-0.115 1.484,0.481 0.861,0.974 -0.154,1.331 -1.404,2.387 -0.759,0.662 -2.02,0.133 -3.033,-0.819 -0.455,2.331 0.481,1.485 0.977,0.87 h 5.052 l 3.759,-3.661 1.577,-2.636 -0.01,-4.08 -0.926,-1.608 -2.372,-1.728 -6.051,-0.123 -1.977,0.837 m -855.994,-462.874 v 0 l -1.376,-0.446 -0.007,-2.058 2.827,-3.945 6.47,-4.391 5.08,0.713 2.316,-2.324 -0.339,-1.507 -0.977,-0.871 -8.08,-0.011 -5.636,3.577 -3.098,3.101 -2.031,3.924 -1.667,4.766 0.12,6.053 1.547,3.701 2.01,3.902 2.443,1.384 10.373,2.44 3.055,-0.117 6.973,-1.578 5.388,-1.798 1.971,-1.324 -2.409,-2.017 -7.992,1.834 -13.047,-0.124 -3.487,-1.911 -2.821,-5.397 0.144,-5.26 2.195,3.557 10.016,0.135 12.797,-1.789 0.559,-0.673 0.047,-1.657 -2.343,-1.729 -2.115,-0.008 -9.945,1.856 m 143.322,-31.442 v 0 l -1.289,-1.395 -3.02,-0.135 -7.76,2.659 -6.923,3.034 -1.674,1.767 v 2.052 l 2.661,2.759 9.636,6.577 4.076,-0.025 0.153,-0.631 -2.204,-3.23 -4.655,-2.687 -3.71,-3.459 3.929,-2.338 5.406,-2.358 3.692,-0.237 M 319.776,54.459898 v 0 l 3.501,2.347 0.505,-1.327 -0.121,-2.05 -3.574,-6.6301 -1.577,-1.6319 -1.216,-2.2174 -3.361,-7.408 -0.12,-8.053 0.3,-1.3134 5.398,-9.3774 2.003,-3.005 4.136,-4.2836998 v -2.0522 l -1.324,-1.3159 -1.508,0.3396 -4.304,4.3121998 -6.001,9.0036 -1.848,3.5985 -1.851,7.0949 1.876,9.1774 1.862,4.5435 M 306.801,629.4409 v 0 l 0.143,2.064 1.326,1.32 1.333,-0.159 2.061,-1.551 -0.835,-2.629 1.832,-3.948 -0.333,-2.395 -1.673,-0.049 -3.707,5.363 M -591.918,23.162798 v 0 l -1.998,3.0112 -5.095,5.0948 -4.766,2.9049 -4.863,1.6778 -5.061,0.1314 -2.061,-0.1305 -5.387,-1.896 0.088,-1.5289 2.613,-5.6708 4.534,-6.5872 3.425,-6.3696 1.07,-1.0695 2.955,-1.0986 5.769,-1.6338998 5.99,0.0012 1.486,0.4823998 2.267,2.2773 1.616,3.6666 -0.003,2.1124 m 133.681,84.446102 v 0 l -9.037,-0.014 -8.654,-1.988 -23.078,-2.007002 -18.08,-2.824 -10.446,-2.28 -47.195,-3.432 -12.555,-1.317 -21.691,1.916 -4.313,0.932 -3.994,0.013 -13.043,-2.015 -36.914,-1.828 -2.047,0.829 -4.99,0.001 -8.009,-1.956 -1.34,0.442 -0.14,1.032 0.514,2.512 2.678,0.92 19.298,2.05 9.989,-0.001 3.007,-0.97 12.991,-10e-4 7.526,2.162 10.487,1.81 4.053,-0.119 2.775,-0.839 19.165,-2.028 9.993,0.014 6.972,0.967 34.067,1.985 12.974,1.699 29.617,5.320002 37.384,4.001 7.055,-0.117 7.939,-1.84 5.001,1.941 1.479,-0.467 0.861,-0.976 -0.34,-1.508 -2.976,-2.87 -7.023,-0.134 -3.007,0.97 M 232.3,615.8459 v 0 l 1.34,-1.335 -0.006,-1.056 -1.362,-0.314 -0.973,0.642 -1.001,-0.598 -3.689,2.514 -6.62,5.57 -8.668,5.538 -0.506,-1.327 -0.001,-3.993 0.837,-1.977 0.016,-3.088 -1.807,-5.989 -1.516,-1.419 -1.075,0.129 -0.455,3.337 0.837,1.978 0.134,4.019 -1.745,9.313 -2.109,7.633 -0.117,4.057 0.482,1.484 0.976,0.862 1.834,-0.688 2.721,-10.14 5.88,-2.488 5.282,-3.241 4.62,-4.57 2.662,-1.692 3.002,-2.884 M 270.219,8.1277982 v 0 l 6.134,-0.0061 4.629,2.5734998 4.668,4.7624 0.147,2.0263 -0.496,2.4818 -6.277,6.2676 -3.667,1.6163 -3.691,0.2367 -1.723,2.3431 0.353,1.5344 0.976,0.8715 2.027,0.1466 2.026,-0.1459 1.977,-0.8369 9.051,0.1226 4.629,2.5734 2.679,3.7348 v 2.108 l -1.577,2.636 -2.813,2.8325 -7.913,3.8435 H 271.24 l -7.408,-3.3617 -2.884,-1.9804 -0.135,-4.0171 2.748,-29.753 M -499.16,745.4609 v 0 l -0.884,0.99 0.341,1.514 3.974,3.861 1.508,-0.34 0.843,-1.03 -2.536,-4.655 -0.763,-0.668 -1.024,-0.118 m 778.484,-126.494 v 0 l -0.133,-3.064 -1.325,-1.325 -6.087,-0.016 -6.346,2.342 -7.277,4.237 -1.101,1.099 -1.578,2.636 v 6.108 l 1.578,2.636 2.101,2.099 4.63,2.573 11.078,-0.024 -0.025,-0.814 -1.24,-1.245 -9.634,-2.577 -1.796,-0.905 -2.681,-2.771 v -4.052 l 1.668,-1.763 7.05,-4.054 8.603,-2.539 2.247,2.588 m -817.72,223.764 v 0 l -2.709,5.715 -2.156,2.68 -1.114,-0.365 -1.869,-1.974 -0.014,-4.085 1.695,-3.914 -0.306,-0.362 -1.667,-0.055 -2.718,4.336 v 5.108 l 2.391,3.47 2.915,1.832 1.358,-0.169 2.388,-1.402 2.098,-2.101 3.574,-6.63 -0.011,-3.081 -1.324,-1.315 -1.507,0.339 -0.875,0.98 m 50.012,-798.910202 v 0 l -0.026,-6.1283 2.603,-10.9437 3.132,-8.9362 -0.015,-5.0849 -1.325,-1.3247 -2.052,10e-5 -1.316,1.3234 0.671,2.0616 -2.19,6.194 -2.862,12.2203 -1.643,11.6157 1.809,9.4299 2.866,5.288 3.63,1.578 h 1.121 l 5.573,-2.934 3.188,-4.735 2.545,-6.6324 v -4.1172 l -1.617,-3.6665 -1.723,-1.6263 -5.08,-0.0109 -2.636,1.5775 M -505.658,331.9839 v 0 l -19.069,0.148 -1.273,1.352 0.813,1.466 5.425,1.902 16.057,0.117 1.978,-0.837 2.026,-0.147 7.996,0.014 3.007,0.97 3.34,-0.457 0.075,-2.58 -6.359,-2.809 -3.063,0.846 m -47.702,289.344 v 0 l -5.348,-0.191 -2.636,1.577 -3.103,3.108 -2.573,5.618 0.004,7.113 2.364,3.448 2.313,2.286 2.279,1.238 6.345,2.341 5.089,-0.025 0.313,-1.367 -0.657,-0.761 -3.728,-1.917 -6.626,-2.499 -2.692,-3.744 v -7.108 l 2.391,-3.47 2.977,-1.819 3.379,1.804 -0.006,0.555 -1.689,2.766 -5.664,2.715 -0.197,0.8 1.538,2.1 3.687,-0.035 2.636,-1.577 3.661,-3.759 v -6.052 l -1.662,-1.759 m 35.851,-609.238202 v 0 l -6.328,6.3392 -4.578,9.6253 -0.12,13.0522 1.733,7.0205 1.961,4.664 5.108,5.111 5.656,3.553 1.053,-0.012 -0.024,-0.803 -2.252,-4.252 -5.541,-5.596 -1.07,-2.088 -2.624,-11.5977 0.12,-7.0519 2.545,-6.6321 1.299,-2.2821 5.873,-6.0009 -0.008,-3.0542 -1.343,-0.4407 M -555.684,844.8749 v 0 l -7.48,-1.951 1.949,-12.447 0.013,-11.993 -0.148,-2.027 -1.36,-1.338 h -0.622 l -1.725,2.31 0.841,3.059 -0.115,6.058 -5.739,32.876 0.018,3.088 1.324,1.316 1.747,-0.586 2.65,-11.694 0.154,-2.477 10.872,-2.545 -1.379,-1.405 m 4.937,-64.283 v 0 l 4.987,2.013 5.055,0.119 1.346,-0.456 0.008,-2.051 -0.605,-0.706 -9.424,-3.48 -3.298,-2.284 -0.365,-1.534 2.557,-3.663 7.115,-7.108 6.494,-2.48 1.362,1.537 2.023,-1.473 -2.183,-2.138 h -8.053 l -4.475,3.354 -5.283,5.308 -1.998,2.998 -1.579,2.637 v 3.109 l 2.391,3.47 m 46.286,-428.48 v 0 l -0.829,-1.508 -11.217,-3.713 -5.953,-3.035 -4.101,-4.098 -1.538,-2.662 10.639,-10.816 6.661,-3.705 0.374,-2.533 -1.385,-1.303 -5.644,2.537 -3.012,2.007 -10.809,10.785 -0.853,0.974 -0.01,4.08 3.936,5.58 3.742,3.154 5.956,3.037 10.731,3.659 1.63,-0.087 m -19.257,412.607 v 0 l -1.738,2.941 -0.006,3.115 1.661,4.887 1.919,3.738 4.098,4.099 2.636,1.578 3.082,-0.019 0.322,-2.367 -3.04,-2.191 -2.832,-2.812 -1.292,-2.247 -1.552,-3.668 0.004,-4.112 3.696,-5.754 2.611,-1.549 1.084,0.015 3.23,2.533 -2.5,3.53 -5.726,1.759 -0.504,1.568 2.417,2.313 2.108,10e-4 4.63,-2.574 2.101,-2.098 1.577,-2.636 v -3.109 l -1.577,-2.635 -2.095,-2.095 -2.636,-1.577 h -2.108 l -4.918,2.839 -2.813,2.833 m -111.436,-394.995 v 0 l -3.141,-4.261 -0.123,-3.051 0.82,-3.032 -2.331,-0.455 -1.485,0.481 -0.87,0.977 -0.134,1.029 0.123,5.051 4.724,6.892 -0.011,3.08 -1.325,1.325 -5.052,-0.009 -0.547,-0.976 -2.234,-1.7 -1.555,-2.612 -0.124,-1.06 0.121,-7.051 1.644,4.813 0.752,0.625 2.336,-4.321 0.118,-5.057 -1.004,-2.006 -1.485,-0.482 -3.022,0.134 -2.29,2.14 -5.316,2.787 -4.557,5.639 -0.296,-5.212 0.807,-2.031 -1.689,-2.368 -1.661,0.047 -2.76,2.665 -3.398,5.899 -0.298,-2.211 0.783,-2.007 -0.952,-0.351 -1.136,1.688 -2.579,7.605 0.025,7.089 1.889,0.392 7.64,-13.636 0.183,3.277 -2.711,8.932 1.557,2.215 1.419,-0.782 9.373,-12.725 0.478,3.295 -0.835,1.976 -0.046,1.661 2.221,1.63 1.141,-0.993 4.266,6.444 6.76,1.638 5.666,-2.539 1.704,-2.759 v -5.108 m 101.001,126.055 v 0 l -0.717,0.966 -0.008,4.087 1.577,2.636 8.136,8.284 -0.008,3.054 -1.347,0.456 -5.993,10e-4 -1.976,-0.828 -2.027,0.642 -0.973,-0.642 -1.056,0.008 -0.454,1.339 0.132,2.022 1.325,1.325 1.029,0.134 11.051,-0.123 2.636,-1.577 1.661,-1.759 0.011,-5.08 -1.839,-2.918 -6.308,-5.338 -1.577,-2.636 -0.108,-1.054 0.282,-1.303 1.522,-2.505 2.612,-1.554 2.08,0.01 0.98,0.652 0.332,-0.276 0.005,-3.052 -1.347,-0.456 -5.022,0.132 -3.976,3.869 m 22.501,-366.473 v 0 l -0.137,-5.098 -2.575,-4.631 -3.097,-4.1 -2.918,-1.926 -6.71,-1.658 -3.088,0.018 -1.759,1.661 -1.962,2.963 -3.955,8.778 -1.832,6.169 -2.07,17.087 -1.738,21.651 1.867,2.042 0.95,-0.001 1.255,-1.254 0.732,-3.153 2.763,-21.797 12.56,12.515 1.692,2.662 5.308,5.338 1.692,2.662 1.833,1.813 7.717,5.537 2.369,-1.689 -0.419,-2.141 -7.501,-5.522 -1.691,-2.66 -6.57,-6.62 -1.43,-2.38 -9.978,-10.033 9.071,-2.576 4.756,-3.275 3.098,-3.68 1.635,-4.685 m -9.364,157.562 v 0 l 7.724,3.63 5.247,4.098 h 2.052 l 1.297,-1.379 -2.633,-3.757 -5.258,-3.231 -7.11,-3.192 -3.012,-2.007 -3.661,-3.759 0.349,-2.508 6.312,-6.303 2.662,-1.692 6.813,-6.833 1.6,-3.229 -3.2,-1.731 -1.663,2.243 -8.55,8.55 -2.662,1.692 -3.833,3.813 -3.819,4.944 0.34,1.509 6.03,6.042 3.949,2.839 m -1.348,352.637 v 0 l 1.733,-2.945 -0.333,-2.395 -1.671,-0.05 -2.19,3.694 -2.653,8.703 0.134,2.02 1.323,1.316 1.509,-0.34 4.835,-4.791 4.63,-2.573 1.06,-0.124 2.419,0.015 2.158,8.902 2.768,-2.405 0.011,-7.08 -2.338,-3.297 -7.083,-0.015 -3.666,1.616 -2.28,2.05 m 40.483,-595.278202 v 0 l 4.496,-4.3728 h 2.052 l 1.325,1.3247 0.015,4.0849 -3.578,7.6254 -1.762,1.667 -3.659,0.047 -1.729,-2.344 v -4.108 M 314.653,591.4859 v 0 l -1.327,-1.344 -1.37,0.314 -0.142,7.024 0.827,1.977 -0.641,2.031 0.295,0.295 1.355,-1.273 0.254,-3.686 1.605,-1.549 -0.562,-0.767 m -839.939,46.998 v 0 l 0.594,-0.027 m 13.343,-145.073 v 0 l -0.008,10.132 1.577,2.636 2.1,2.098 2.278,1.238 6.346,2.337 1.09,-0.022 1.335,-1.35 -0.003,-0.632 -8.045,-4.571 -2.678,-3.734 -0.004,-6.113 2.583,-6.629 2.729,-1.674 3.112,-0.003 3.327,1.826 -2.596,5.223 -5.14,4.292 0.323,2.367 4.054,0.008 4.763,-4.668 2.573,-4.629 -0.011,-5.08 -1.661,-1.759 -2.636,-1.577 h -8.108 l -2.636,1.577 -2.061,2.064 m -11.065,-215.529 v 0 l -4.21,-0.101 -1.316,1.324 10e-4,1.051 0.599,0.707 8.578,2.056 22.101,2.581 3.066,-0.853 8.997,-0.014 2.026,0.147 1.974,0.821 1.481,-0.466 0.87,-0.977 -10e-4,-2.049 -0.582,-0.689 -6.706,-1.657 -2.088,0.017 -1.977,0.837 -16.99,10e-4 m -54.361,481.558 v 0 l -0.921,-1.791 -3.667,-1.619 h -2.116 l -3.67,1.619 -3.082,2.085 -4.556,9.603 v 8.117 l 1.619,3.67 1.962,2.962 3.731,2.672 4.107,-10e-4 2.149,-1.578 -4.948,-2.052 -2.043,-2.048 -2.573,-4.629 -0.006,-5.115 1.675,-4.865 1.269,-2.706 3.398,-2.72 3.022,-0.132 1.346,0.456 0.023,2.086 -3.721,7.886 0.174,1.36 1.852,2.089 5.692,-10.339 -0.01,-4.08 m 39.104,-640.022 v 0 l 0.896,1.017 0.133,1.035 v 7.992 l -0.483,1.486 -1.576,2.152 -4.502,3.056 -4.863,1.678 -5.115,-0.006 -2.344,-1.729 0.03,-6.694 1.66,-4.887 5.2,-10.029 1.511,-0.508 4.051,0.123 2.917,1.838 m 54.577,260.504 v 0 l -0.9,0.989 10e-4,2.057 1.325,1.325 1.029,0.134 12.051,-0.123 4.306,-2.72 -0.879,-1.645 -1.485,-0.482 -3.022,0.133 -1.978,0.837 h -7.993 l -2.008,-0.787 m -23.981,384.964 v 0 l -0.379,2.397 3.609,11.655 1.728,1.628 h 1.055 l 3.758,-3.652 3.004,-4.007 4.573,-7.629 0.108,-1.056 -0.468,-1.478 -1.03,-0.843 -2.638,1.515 -5.549,8.498 -2.278,1.711 -3.962,-8.819 m 30.105,-492.657 v 0 l -0.016,8.134 2.573,5.618 2.116,2.116 5.677,2.554 5.677,-2.554 3.076,-3.075 2.733,-8.724 -0.124,-7.048 -1.729,-2.342 -1.661,0.047 -1.271,1.348 0.784,2.004 -0.119,7.056 -2.95,6.585 -4.36,2.712 -1.358,-0.169 -2.388,-1.402 -2.672,-3.731 v -9.108 l 1.718,-2.89 -0.169,-1.358 -1.406,-2.389 -0.566,-0.513 -2.514,3.203 0.622,1.03 m -45.823,123.928 v 0 l 0.138,5.097 2.553,4.608 4.755,2.7 h 3.108 l 2.636,-1.577 3.057,-4.057 1.613,-3.667 -1.754,-7.139 -1.085,-1.896 -1.495,-1.377 -2.08,-0.011 -4.891,2.718 -1.398,-0.328 -0.027,-5.09 2.858,-15.211 0.873,-1.674 -0.333,-2.396 -3.052,-0.008 -1.588,2.304 -2.101,10.233 m 15.101,-255.208 v 0 l -1.758,8.959 -0.113,5.108 2.455,2.277 1.327,-1.321 -0.652,-0.975 -0.133,-4.019 1.856,-9.945 0.114,-4.058 -0.456,-1.346 -2.371,0.314 m -11.179,277.051 v 0 l 6.061,-3.408 1.826,3.327 -0.003,3.112 -1.577,2.636 -2.758,2.652 -2.66,-0.916 -1.729,-2.372 0.011,-4.08 m -26.585,447.548 v 0 l -3.55,21.485 0.143,5.021 1.403,0.446 1.778,-2.834 2.525,-9.995 1.64,2.652 1.782,-1.607 2.244,-3.215 2.948,-1.967 0.491,-1.508 -0.44,-1.343 -2.087,-0.023 -4.696,1.987 -0.659,0.726 -2.88,-9.728 m 17.344,-288.289 v 0 l -2.073,0.315 -1.276,1.355 0.873,1.634 2.168,1.623 1.563,13.537 0.673,0.557 3.05,-0.009 0.314,-1.369 -0.827,-1.977 0.005,-9.404 12.667,-1.896 -0.761,-1.33 -2.372,-1.728 -8.631,-0.232 -3.689,-14.143 -0.747,-0.628 -2.17,2.06 -0.288,1.304 1.837,8.938 m 38.661,-164.439 v 0 l -0.463,2.001 4.376,1.868 11.057,0.118 1.483,-0.483 0.819,-1.002 -1.574,-1.75 -3.666,-1.616 -10.056,-0.119 m 636.776,237.8 v 0 l -1.054,-1.063 -8.48,-3.434 -7.71,-3.812 -6.509,-4.357 -2.369,0.323 -0.008,3.052 0.668,0.763 7.218,4.219 12.907,6.01 2.04,1.94 -0.48,3.526 -3.787,3.828 -2.217,3.191 -6.308,6.284 -2.498,1.549 -7.515,11.638 0.847,1.026 0.771,0.177 3.703,-2.673 2.217,-3.192 12.308,-12.338 1.692,-2.662 3.573,-3.626 2.574,-4.63 0.122,-1.06 -0.122,-2.048 m 153.907,-2.751 v 0 l -2.605,-5.547 -0.663,-0.004 -0.485,1.359 -10e-4,10.993 0.482,1.484 1.003,0.819 9.785,-10.609 3.538,-5.668 -1.327,-0.505 -2.022,0.131 m -10.166,137.054 v 0 l 1.667,-2.673 1.779,-1.761 4.718,-1.65 3.379,4.355 0.133,1.03 -0.133,2.023 -3.562,5.658 -2.763,2.667 -1.026,0.118 -2.634,-1.043 -1.728,-2.373 m 11.414,-37.433 v 0 l -3.41,-6.011 -1.671,0.041 -1.322,1.324 2.666,20.558 1.103,4.906 -6.38,2.028 -3.827,3.85 -2.573,4.63 -0.004,6.112 1.616,3.667 2.06,2.06 2.636,1.577 3.05,0.123 1.485,-0.483 5.307,-5.318 2.421,-3.894 3.16,3.573 0.929,-0.36 -0.641,-0.976 0.013,-1.052 1.629,0.028 -2.662,-3.949 -0.122,-5.051 0.837,-1.977 0.134,-4.019 -1.844,-9.382 m -959.666,36.666 v 0 l 0.792,-0.504 0.65,1.417 2.044,14.755 1.324,1.249 1.576,-2.155 0.124,-1.059 -10e-4,-4.991 -0.826,-3.028 3.031,-2.19 3.62,-3.57 2.38,-1.43 3.62,-3.57 2.38,-1.43 4.675,-4.154 v -0.622 l -1.336,-1.351 -1.084,-0.015 -2.637,1.574 -5.998,3.998 -8.035,7.978 -2.569,-11.969 -0.683,-0.565 h -1.047 l -0.679,0.561 -1.667,8.718 m 27.017,-268.982 v 0 l -2.499,5.281 -1.515,4.703 10e-4,2.118 2.573,5.619 2.109,2.112 4.63,2.573 2.08,-0.011 1.316,-1.324 -0.365,-1.534 -4.661,-2.704 -2.667,-2.763 -0.011,-7.08 3.936,-6.579 2.372,-1.729 2.08,0.011 1.325,1.325 v 4.052 l -2.324,2.316 -2.001,-0.694 -2.054,0.009 -0.454,2.388 2.428,2.317 4.08,-0.011 2.759,-2.661 1.577,-2.636 -0.011,-7.08 -3.325,-3.326 h -6.052 l -2.608,1.926 m 7.595,-157.057 v 0 l 9.093,-0.155 4.63,-2.573 4.109,-4.112 2.573,-5.619 -0.004,-2.112 -1.577,-2.636 -1.061,-1.06 -5.67,-2.612 h -6.108 l -5.636,3.577 -3.838,3.818 -2.834,5.913 v 9.108 l 3.612,7.67 7.073,7.069 5.618,2.573 2.055,0.118 1.485,-0.481 0.861,-0.976 -0.621,-1.776 -6.442,-2.5 -5.067,-5.067 -3.568,-6.629 0.333,-1.401 m 920.483,399.317 v 0 l -0.456,1.335 -0.341,-2.33 0.676,0.003 m 9.466,-110.683 v 0 l 2.405,4.386 2.1,2.103 2.499,1.474 1.449,-2.067 -2.067,-1.529 -2.553,-4.609 -0.11,-3.477 12.175,-2.814 1.93,-1.337 1.729,-2.372 0.123,-4.048 -0.297,-1.308 -2.498,-3.483 -2.636,-1.577 -7.049,-0.124 -4.649,2.07 -2.718,4.362 m -967.802,223.757 v 0 l -0.184,1.317 1.321,1.322 1.729,-0.531 1.669,9.126 0.114,16.059 -0.837,1.978 -0.133,4.022 0.482,1.484 1.003,0.819 1.7,-1.51 1.6,-11.579 9.702,-9.729 0.333,-1.51 -1.394,-0.332 -3.666,1.611 -4.97,4.937 -1.854,-17.725 -3.391,-1.827 -1.11,-0.107 m 1.072,1.762 v 0 l -0.027,-0.593 m 33.489,-431.737 v 0 l 0.149,3.101 1.635,4.685 1.705,1.596 h 1.054 l 1.314,-1.313 0.019,-1.088 -1.022,-2.744 -2.618,-11.953 -1.72,-0.713 -1.343,0.441 -0.142,5.024 m 755.528,355.504 v 0 l -24.036,0.014 -57.014004,7.972 -10.989,-0.001 -3.001,-0.955 -20.003,1.969 -6.996,-0.014 -1.978,-0.837 -3.026,-0.148 -4.996,0.015 -3.008,0.97 -26.989,0.001 -17.255,-1.818 -11.759,-2.154 -9.99,0.001 -3.003,0.954 -3.027,-0.812 -0.947,0.695 -2.0192,0.133 -40.0138,-2.971 -6.9895,0.001 -1.9775,0.837 -4.026,0.148 -13.996496,-0.015 -1.9776,-0.837 -2.0192,-0.133 -25.00658,1.983 -2.02643,-0.146 -1.9773,-0.837 -26.99029,-0.001 -12.9441,3.85 -3.1171,-0.721 -2.9217,1.849 -0.3654,1.535 2.3144,2.315 3.0278,-0.811 2.0341,0.798 8.7437,-2.825 18.2289,-1.99 6.98976,0.001 3.00696,0.97 6.99658,0.015 4.02582,-0.148 0.94806,-0.704 2.02582,-0.147 51.996496,0.014 3.0073,0.969 2.0223,-0.132 1.9777,-0.837 4.9898,-0.001 11.0132,1.972 23.9905,-0.001 3,-0.955 19.333,3.111 20.676,1.845 13.99,-0.001 3.004,-0.954 2,0.768 0.972,-0.642 h 1.055 l 0.973,0.642 2.004,-0.784 h 12.993 l 2.044,0.824 5.483,-0.776 41.005,-2.104 44.596004,-5.961 53.926,-3.088 2.424,-1.345 -0.472,-1.545 -0.977,-0.872 -1.03,-0.132 -20.003,1.97 m -760.798,-382.156 v 0 l -1.557,2.615 0.011,2.081 2.87,2.976 1.51,0.333 0.44,-1.335 -0.821,-1.974 10e-4,-2.052 1.693,-1.947 v -1.055 l -1.37,-1.295 m 0.394,-46.102 v 0 l 5.58,-3.937 h 2.108 l 5.367,2.815 -0.07,3.573 -3.699,3.786 -12.214,2.769 -1.654,2.626 -0.15,-3.266 2.574,-5.619 m 932.313,284.71 v 0 l 0.472,-1.51 1.981,-1.874 7.022,-0.133 1.751,0.76 1.582,3.691 -2.57,2.755 -5.721,1.614 -2.038,-0.804 -2.006,0.769 -0.478,-1.304 m -12.192,125.995 v 0 l -0.656,0.039 0.332,-1.332 M -696.872,359.3159 v 0 l -1.793,5.559 -1.009,-0.734 -1.054,0.001 -1.272,1.342 2.269,2.349 1.483,0.191 3.042,9.856 0.479,-0.017 1.377,-1.353 0.133,-1.03 -0.132,-2.022 -0.704,-0.948 -0.035,-3.68 4.586,-2.594 -1.198,-1.051 -1.029,0.621 -2.369,-1.689 0.027,-4.695 1.856,-8.945 -0.455,-3.333 -1.51,-0.104 m 11.134,29.432 v 0 l 1.336,0.479 1.344,-0.499 -1.704,-5.907 -0.233,-6.694 -2.377,-1.69 -0.505,1.326 0.118,8.056 m 4.545,-27.349 v 0 l -2.155,-3.061 h -2.05 l -1.297,1.379 2.65,4.418 2.68,2.853 0.461,-1.299 -0.811,-3.028 m -0.847,-48.781 v 0 l -2.788,-1.513 -0.319,0.32 0.64,0.975 v 1.054 l -0.695,0.947 10e-4,2.052 2.379,2.297 2.662,-1.538 4.096,-3.994 3.524,3.994 3.664,2.566 2.022,0.133 1.484,-0.482 0.819,-1.005 -2.633,-2.805 -2.638,-1.669 -3.03,-3.042 -0.34,-1.509 7.652,-7.757 3.692,-2.733 0.467,-1.482 -0.466,-1.481 -0.974,-0.861 -1.084,-0.015 -2.635,1.572 -9.106,8.996 -6.416,-11.895 -1.788,-1.615 -0.474,0.299 -0.877,0.974 -0.011,2.08 6.685,12.918 m 16.705,-155.476 v 0 l -0.513,1.502 0.134,4.028 3.925,4.608 6.215,5.682 2.573,4.63 0.108,1.056 -0.786,1.784 -3.736,1.921 -4.887,1.661 h -4.122 l -4.878,-1.736 -4.089,0.025 -0.441,1.343 0.8,1.796 7.675,2.69 5.055,-0.118 7.659,-2.617 3.78,-2.753 0.851,-0.972 0.134,-1.029 -0.123,-5.051 -2.573,-4.63 -4.099,-4.101 -3.214,-2.245 -2.84,-3.978 1.855,-1.95 2.454,-1.398 2.055,0.655 0.475,-0.299 1.824,-2 -0.299,-0.474 -0.974,-0.877 -1.03,-0.134 -5.05,0.123 m 81.275,132.666 v 0 l -2.583,4.642 -0.004,7.113 1.617,3.666 4.024,4.024 3.664,1.611 1.124,0.004 7.588,-2.546 5.098,-8.013 2.46,4.874 4.006,6.011 2.785,2.609 1.351,-1.273 0.011,-2.08 -5.174,-8.225 -7.395,-17.398 -1.763,-1.664 -9.3,1.792 -3.417,1.763 m 0.69,19.141 v 0 l -1.788,-1.665 -1.577,-2.636 v -6.108 l 2.672,-3.731 5.636,-3.577 5.08,0.011 1.273,1.35 -0.598,1.001 0.784,2.003 10e-4,5.991 -2.697,5.69 -1.043,1.048 -4.709,1.601 -1.01,-0.686 m -24.379,368.35 v 0 l 2.274,1.609 7.084,1.88 9.055,-0.117 7.59,-2.551 1.711,-2.764 v -2.108 l -1.838,-2.917 -3.214,-2.244 -5.095,-5.095 -1.577,-2.636 -0.108,-1.056 0.468,-1.48 2.317,-2.306 3.597,-1.846 5.848,-1.648 0.581,-0.694 -0.338,-1.504 -0.977,-0.872 -5.085,-0.014 -5.618,2.573 -4.675,4.767 -0.01,6.08 1.839,2.918 8.888,8.397 -0.884,1.633 -1.485,0.483 -10.99,0.001 -6.993,-1.833 -2.408,1.715 m 2.2,194.336 v 0 l 3.407,-6.388 3.766,-2.639 0.506,1.326 -0.118,3.055 -2.726,6.882 0.362,1.416 0.64,0.003 2.962,-3.892 2.762,-6.409 -0.015,-4.082 -3.297,-2.338 -1.054,-0.109 -1.308,0.285 -4.376,2.397 -2.104,2.105 -2.796,5.49 -1.768,7.185 2.601,6.73 6.067,6.067 4.684,2.55 2.971,-1.661 1.031,0.621 0.396,-0.792 -5.03,-2.084 -1.702,-2.23 -2.474,-1.527 -1.975,-2.973 -1.579,-2.638 m 36.576,-341.37 v 0 l -2.567,-7.681 3.528,-10.761 4.19,-10.184 -0.014,-2.084 -1.324,-1.316 -1.774,0.618 -6.1,14.054 -2.522,8.608 -0.117,3.056 2.469,6.437 3.605,5.226 5.353,2.703 1.538,-0.357 0.822,-1.008 -1.934,-0.595 m -123.34,-150.11 v 0 l -0.359,-1.311 0.332,-0.281 0.332,1.332 m 115.671,3.616 v 0 l -1.753,1.629 -1.616,3.666 -0.236,12.692 -2.375,1.86 -0.365,1.534 2.835,2.499 3.689,9.229 3.03,5.929 1.797,1.681 h 0.622 l 1.724,-2.31 10e-4,-1.111 -4.176,-8.185 -1.54,-3.7 0.032,-1.083 0.554,-0.211 7.781,1.721 3.293,-0.481 -0.88,-1.646 -2.035,-1.375 -8.154,-2.27 -1.583,-1.688 -0.013,-11.084 1.613,-3.141 2.101,2.171 0.122,1.074 -1.688,2.138 1.85,0.212 1.729,-2.342 0.123,-4.051 -0.508,-1.511 -2.923,-1.854 m 95.678,-42.78 v 0 l -0.085,1.156 1.074,1.227 4.551,16.504 0.731,0.552 1.496,-1.297 0.852,-0.974 0.016,-3.087 -2.849,-10.34 15.969,-2.564 -1.63,-1.399 -15.339,-2.233 0.116,-6.462 1.616,-3.666 4.726,-5.626 2.082,-0.015 4.571,1.73 1.692,-2.335 -0.347,-0.533 -4.92,-2.858 -1.06,-0.124 -3.048,0.124 -2.754,1.696 -1.669,2.638 -2.31,2.342 -1.688,3.236 m 466.144996,-95.6 v 0 l -0.155,5.046 0.954,3.004 -0.954,3.003 -10e-4,5.991 1.757,5.752 0.705,0.595 1.051,10e-4 1.272,-1.342 -0.784,-2.004 0.296,-3.211 4.404,5.905 3.303,3.312 1.485,0.482 2.025,-0.142 0.328,-1.397 -1.571,-2.635 -2.57,-2.62 -2.566,-3.664 v -2.05 l 4.159,-2.56 6.961,-1.705 0.572,-0.687 0.001,-1.051 -1.316,-1.324 -5.085,-0.015 -3.669,1.619 -6.018,3.99 -2.665,-12.643 m -6.327,311.188 v 0 l -1.629,-12.725 0.338,-1.398 1.056,-0.007 3.758,3.652 4.007,6.012 4.479,11.425 0.706,0.603 2.049,10e-4 1.315,-1.322 -1.622,-5.99 -2.927,-6.717 -4.007,-6.012 -3.127,-3.283 0.339,-1.508 2.788,-2.829 3.961,-5.962 1.907,-4.639 1.716,-6.028 -0.007,-3.115 -1.577,-2.636 -3.731,-2.672 -2.113,-0.004 -3.632,1.584 -2.096,3.096 -5.036,9.955 -3.546,11.669 -0.116,2.055 1.92499997,15.049 0.954,3.898 1.59900003,1.422 2.348,-2.332 m 2.617,-33.445 v 0 l 3.254,-6.27 1.762,-1.666 2.369,0.323 0.023,5.086 -2.618,6.666 -1.963,2.966 -3.095,4.092 -3.663,1.547 -0.393,-2.388 m 21.313,-218.255 v 0 l 2.406,-14.163 1.014,-3.463 -0.005,-5.114 -2.338,-3.297 -5.078,-0.011 -2.917,1.838 -2.776,3.796 -1.619,3.669 0.004,4.113 2.64,4.701 5.989,1.469 -2.636,10.714 -0.116,4.058 0.482,1.484 1.003,0.819 1.468,-0.815 m -4.966,-24.441 v 0 l 0.133,-2.093 2.549,-4.606 3.789,-1.673 0.393,1.392 -1.89,9.288 -0.665,1.3 -0.785,0.698 -1.659,0.047 -1.729,-2.342 m -28.595,354.447 v 0 l -2.064,0.143 -1.983,0.841 -6.996,0.014 -28.0071,-1.985 h -41.9861 l -41.536826,2.746 -12.47687,1.226 h -8.9866 l -10.2848,-2.392 -14.2344,-2.5 -5.429,-1.959 -2.0845,0.014 -1.316,1.323 0.6653,1.819 4.969,2.073 26.7144,5.622 h 14.9866 l 10.11963,-1.14 19.72497,-1.035 47.161896,-1.81 7.9934,0.013 28.007,1.985 15.993,-0.013 8.845,-0.967 44.162,-2.018 12.996,0.014 1.978,0.837 3.026,0.148 10.996,-0.015 1.978,-0.837 2.026,-0.147 60.993004,0.013 20.987,1.839 2.995,-1.85 -0.449,-1.889 -20.533,-2.1 H 36.305996 l -40.014,1.972 m -19.291,-398.678 v 0 l -5.51,3.526 -3.197,5.199 -3.819,8.707 -1.868,5.555 -3.6784,21.143 0.0191,2.088 1.325,1.325 2.0483,-10e-4 0.691,-0.585 2.524,-15.132 2.123,-8.064 4.642,6.933 3.308,3.283 7.374,4.426 5.105,5.105 4.688,7.656 1.497,1.379 h 2.052 l 1.316,-1.324 v -1.055 l -5.557,-8.662 -7.095,-7.095 -8.356,-5.407 -1.713,-2.792 3.147,-2.168 6.909,-3.055 4.072,-4.068 1.737,-4.731 -0.124,-6.048 -1.674,-2.729 -9.63,-3.583 m -14.014,289.719 v 0 l -1.525,0.641 -5.2706,5.205 -2.2843,-3.527 -3.6897,1.514 -3.2798,2.114 -0.3551,-1.359 1.689,-3.905 -0.541,-0.831 1.4248,-1.408 -1.185,-1.139 -1.0528,0.001 -1.7957,2.65 -2.5443,6.632 0.0143,2.085 1.325,1.325 2.08,0.011 5.9245,-3.685 0.3778,1.378 -1.7183,2.891 -0.1076,1.056 0.4671,1.478 1.0026,0.819 3.3098,-3.084 2.3803,-1.43 7.62,-7.57 4.662,-3.557 1.057,0.007 0.336,2.393 -3.694,8.908 1.329,1.333 1.788,-1.615 3.577,-7.626 -0.014,-5.084 -1.325,-1.326 -4.08,-0.01 -2.636,1.577 m 13.735,-268.863 v 0 l -9.986,4.009 -2.06,-0.66 -2.004,1.599 -0.333,-0.276 -0.024,-2.078 4.358,-9.413 1.481,-2.506 3.497,-3.379 4.085,-0.014 5.327,2.71 -0.021,3.715 -1.616,3.666 m -135.046496,-6.917 v 0 l -3.2045,2.194 -3.2905,3.32 -1.0393,2.017 -2.536,7.6 -0.1171,5.058 0.6953,1.794 -1.6837,2.211 2.242,2.293 2.3695,8.47 2.2584,5.645 1.9588,-2.354 0.005,-1.116 -2.7258,-6.882 0.0233,-2.086 1.4034,-0.335 5.94152,1.833 1.47602,-0.466 0.73059,-0.794 -3.48627,-2.034 -6.53676,-2.516 -1.5484,-2.606 -0.006,-6.115 2.3415,-6.346 1.5036,-2.565 1.8324,-1.813 2.63606,-1.577 1.05609,-0.108 3.65753,1.074 1.52448,1.613 0.29987,-1.223 -0.50739,-2.502 -2.92224,-1.854 m -37.2727,543.666 v 0 l 1.694,2.667 3.5245,3.328 1.3509,-1.273 0.1187,-1.024 -1.6849,-3.692 -8.0946,-8.095 -7.4979,-5.55 -3.5487,-5.61 0.0148,-1.084 3.6514,-3.756 18.6623,-13.692 7.3788,-8.497 -0.3232,-2.369 -2.0515,-0.008 -0.4841,0.374 -1.7071,2.667 -6.0949,6.095 -16.3803,11.43 -7.6518,7.757 0.338,1.507 3.4816,5.493 5.8323,5.813 6.3803,4.43 m 28.2406,-364.578 v 0 l 2.0435,-0.989 3.0519,0.001 1.7585,1.661 1.5537,2.69 -1.5537,2.69 -2.7585,2.661 -5.0865,0.016 -4.3778,-1.867 0.4357,-2.982 2.3123,-2.303 m -2.1176,15.532 v 0 l -1.5582,-3.688 0.3609,-2.36 1.2459,1.022 6.7595,1.75 4.7254,-1.657 3.06294,-2.131 2.57336,-4.629 0.1369,-3.054 -0.13678,-2.054 -2.6723,-3.731 -2.63562,-1.577 h -7.1084 l -6.5795,3.936 -2.1132,2.698 -1.7391,4.734 0.1202,9.053 2.5737,5.619 2.0071,3.012 2.0948,2.095 4.9645,3.029 3.6919,1.515 1.3757,-1.302 -0.6394,-2.024 0.4919,-0.733 -4.1843,-1.761 -2.7003,-1.724 M -384.999,242.2919 v 0 l -2.673,1.668 -2.778,2.799 -1.904,4.635 -1.716,6.028 -0.193,10.562 -4.779,2.476 0.595,1.753 4.53,1.579 3.716,11.127 1.53,-0.095 0.454,-1.344 -0.117,-5.057 -1.645,-4.767 6.69,-2.708 -0.644,-1.176 -6.733,-1.766 -0.386,-0.5 -0.02,-2.085 2.48,-13.523 1.364,-3.381 1.837,-1.818 2.636,-1.577 2.077,0.012 0.709,0.608 1.534,3.937 1.076,-1.166 -1.593,-4.754 -1.267,-1.277 -1.486,-0.483 m -36.973,559.963 v 0 l -4.238,6.212 -5.152,5.665 0.003,0.637 1.338,1.359 h 2.052 l 6.191,-6.553 0.497,0.439 2.516,9.466 2.715,1.653 1.081,-0.027 -0.325,-1.329 0.641,-0.971 0.021,-1.09 -3.252,-12.101 -2.044,-4.316 m 26.883,-463.192 v 0 l 3.077,0.021 6.491,-6.354 1.958,-0.444 2.451,4.927 1.375,-0.292 5.509,-3.448 5.406,10.511 2.18,-1.618 0.085,-0.588 -0.12,-3.099 -4.576,-8.63 -0.762,-0.667 -3.078,-0.011 -3.576,1.727 -2.346,-2.716 -4.021,-0.134 -2.554,0.871 -2.434,-2.861 -1.794,1.782 -3.583,8.639 m -17.452,306.834 v 0 l -1.552,-3.72 -0.133,-3.06 0.131,-2.061 1.661,-4.887 4.184,-7.024 1.839,-1.817 5.316,-2.788 1.55,-2.119 0.16,-1.333 -1.313,-1.313 -1.336,0.157 -6.377,3.397 -4.101,4.098 -2.001,3.004 -3.58,7.627 -0.12,10.053 0.3,1.313 4.398,8.377 2.762,2.667 5.08,0.011 6.128,-3.06 -10.013,-1.654 m 243.3511,-118.614 v 0 l 3.8454,-9.975 0.1202,-11.053 -2.6944,-6.682 -0.7677,-0.675 -2.0459,10e-4 -0.6842,0.574 -1.8587,10.291 -2.0026,20.051 -3.6473,6.124 -1.8119,1.69 -2.3404,-4.32 -0.1175,-3.057 0.4825,-1.485 1.2831,-1.274 2.9186,-1.492 -1.1729,-1.104 -4.0498,10e-4 -2.3765,3.763 -2.5762,-2.763 -3.0827,-0.015 -3.6693,1.619 -4.0059,2.942 -1.7535,-4.163 -0.5126,-0.327 -0.7286,0.551 -2.5707,7.176 -1.488,-1.747 -2.569,-4.63 0.7121,-3.11 -1.7252,-2.338 -0.6305,-0.08 -2.2835,2.233 -5.6788,1.707 -1.8226,1.843 -1.5774,2.636 0.0112,6.078 3.2949,2.332 h 1.1123 l 2.6338,-1.571 4.5255,-4.989 3.9996,5.894 1.5103,1.503 1.7443,-4.224 1.5851,0.387 9.8901,-5.712 1.0852,0.021 0.4542,1.339 5e-4,6.992 -0.7841,2.004 0.8258,1 1.9679,-0.527 2.2725,-5.547 1.7009,4.037 1.5059,1.388 h 4.0526 l 1.7586,-1.661 4.4305,-5.894 1.9759,2.414 2.0191,-2.42 -0.6952,-1.793 m 0.9453,-20.026 v 0 l -0.4564,1.335 -0.3412,-2.33 0.6759,0.003 m 15.1613,-239.022 v 0 l 0.15894,3.068 0.88757,0.356 3.74884,-10.325 4.02716,-8.028 -0.62207,-1.028 0.59985,-1.006 -0.27478,-0.33 -1.66864,-0.054 -3.36566,5.923 -3.35712,8.408 M -404.688,547.0169 v 0 l -6.021,-1.893 -27.992,1.859 -4.061,-0.131 -5.132,-1.645 6.708,-6.724 1.118,-0.573 1.723,-2.371 -0.353,-1.535 -0.976,-0.862 h -1.055 l -3.662,2.557 -10.308,10.283 -2.325,3.474 5.538,7.718 4.1,3.097 4.631,2.575 6.05,0.123 1.486,-0.483 2.707,-2.705 -10.172,-1.78 -5.683,-3.709 -2.635,-3.813 0.277,-0.333 3.05,-0.014 1.977,0.837 23.997,0.014 2.026,-0.147 1.977,-0.837 h 7.993 l 3.031,0.827 2.315,-2.314 m -20.273,287.61 v 0 l -2.042,-0.981 -2.027,0.642 -0.973,-0.642 h -1.054 l -0.973,0.642 -0.974,-0.652 -4.052,10e-4 -1.762,1.667 -2.566,3.732 -0.013,-2.108 3.853,-11.945 -0.135,-5.021 -1.359,-1.337 -0.645,0.007 -2.196,4.591 -3.039,10.091 -2.597,12.682 0.115,2.055 1.821,7.131 1.028,1.78 1.831,1.812 2.636,1.577 h 7.108 l 2.636,-1.577 6.061,-6.064 2.615,-6.663 0.119,-7.054 -1.059,-2.638 m 260.5471,-321.656 v 0 l 0.5079,1.286 -0.481,2.306 -0.4829,-1.306 m -74.8469,-272.046 v 0 l -3.2952,26.647 -2.373,2.701 -2.364,-3.244 -0.004,-3.113 1.62,-3.666 0.748,-0.573 1.004,0.598 0.324,-0.275 -0.302,-1.367 -2.024,-0.142 -1.486,0.482 -1.268,1.277 -1.616,3.666 v 3.118 l 1.616,3.666 2.724,2.626 2.08,0.011 2.7555,-1.7 2.0127,-3.931 3.5453,-10.671 -0.002,-13.118 -1.8191,-3.362 m -143.0261,17.4 v 0 l -2.882,3.966 v 5.108 l 3.854,5.923 1.512,0.507 2.05,-0.122 2.917,-1.838 2.391,-3.47 -0.011,-8.08 -2.661,-2.759 -2.634,-1.571 -1.358,0.169 m 114.684,356.194 v 0 l -2.631,-7.727 -3.943,-5.946 -5.754,-3.696 -2.05,-0.121 -1.339,0.454 0.909,2.662 5.059,3.941 3.194,4.757 1.905,6.382 1.626,8.287 -1.716,8.375 -2.851,7.303 -3.121,4.12 -6.42,2.474 -3.227,2.221 -0.365,1.534 1.316,1.324 2.084,0.014 8.619,-3.572 3.108,-3.103 2.007,-3.012 2.861,-6.588 1.716,-6.029 0.116,-7.058 -0.837,-1.977 m 4.851,-85 v 0 l 1.526,-0.363 0.309,0.307 -1.804,7.033 0.467,1.477 1.003,0.819 1.55,-0.85 2.816,-6.39 -0.015,-5.085 -1.325,-1.326 -5.08,-0.01 -2.636,1.577 -6.044,5.98 -2.709,-6.608 -1.586,0.064 -1.976,1.649 -0.325,-0.275 0.328,-1.506 1.301,-1.519 -1.272,-1.342 h -1.055 l -1.761,1.658 -2.573,4.63 0.01,4.08 1.324,1.316 h 1.055 l 3.723,-2.587 1.726,8.209 1.551,0.378 1.758,-1.652 1.43,-2.38 4.813,-4.833 m -138.529,-209.434 v 0 l -0.137,-3.098 -1.577,-2.635 -3.731,-2.672 h -2.108 l -2.636,1.577 -1.06,1.06 -1.616,3.666 0.004,2.113 1.577,2.636 3.731,2.672 4.08,-0.011 3.325,-3.324 m -28.014,508.927 v 0 l 0.029,5.104 -1.552,3.668 -1.292,2.247 -4.522,4.526 -0.974,0.852 -3.02,0.134 -3.788,-1.795 -1.561,-3.683 6.838,-12.98 0.722,-0.269 8.564,1.539 m 9.865,-572.253 v 0 l -0.615,-1.389 -5.085,-0.017 -2.636,1.577 -3.173,3.348 -2.381,-7.808 -2.153,1.611 -0.086,0.589 0.131,3.071 0.837,1.977 v 4.993 l -0.784,2.004 0.299,0.474 0.972,0.868 h 1.055 l 9.371,-8.782 2.075,13.403 1.554,0.379 1.324,-1.316 0.134,-1.03 v -11.993 m 0.185,-18.053 v 0 l -0.033,2.101 3.571,4.16 1.125,-1.248 -1.604,-4.709 -1.728,-0.723 m -7.971,143.797 v 0 l -3.755,-1.579 -0.808,-0.787 -1.735,-4.708 -1.73,-1.552 -0.786,0.506 -1.578,-2.155 -0.124,-1.059 0.124,-4.048 1.554,-2.612 3.08,-2.081 4.734,-1.738 2.02,0.133 3.664,2.567 3.312,3.303 0.482,1.486 -1.77,8.764 -4.024,4.017 m -28.168,372.193 v 0 l -2.556,2.351 -3.907,-1.695 -2.605,-0.213 -1.797,-3.414 2.554,-4.691 4.763,-4.668 3.08,-0.01 2.605,1.548 1.688,3.814 -2.554,5.677 m 22.17,-366.193 v 0 l 5.091,-0.122 2.636,-1.577 3.098,-3.101 3.578,-7.625 -0.004,-7.113 -1.577,-2.636 -3.285,-3.31 -1.81,-1.785 -2.636,-1.577 h -8.108 l -4.63,2.573 -3.109,3.112 -2.573,5.618 v 3.118 l 3.578,7.625 4.104,4.105 4.634,2.576 m 287.02424,-127.022 v 0 l 2.36548,-3.157 3.66248,-2.705 0.32788,-1.506 -0.32446,-0.275 -1.00586,0.599 -1.02857,-0.622 -2.66131,1.538 -2.31239,2.303 -0.34857,2.508 m -285.64992,178.63 v 0 l -2.003,0.829 -5.989,10e-4 -9.279,-1.777 -3.696,-1.197 -0.032,-0.987 1.785,-1.835 1.43,-2.38 7.127,-7.283 -0.339,-1.507 -0.976,-0.862 -1.054,-0.001 -1.607,0.917 -1.843,2.399 -2.157,1.601 -1.843,2.399 -8.526,8.545 -0.482,3.478 0.482,1.486 4.313,4.303 12.661,8.538 1.524,-0.85 1.872,-4.413 -0.03,-2.082 -0.632,-0.154 -2.651,1.538 -2.08,-0.011 -7.664,-5.566 -3.611,-3.79 1.328,-0.337 1.26,1.098 6.672,1.709 26.037,2.019 1.484,-0.481 0.862,-0.976 -0.34,-1.508 -1.218,-1.223 m -29.146,317.702 v 0 l 1.155,-1.321 2.573,-5.619 -0.004,-5.113 -1.577,-2.635 -2.101,-2.099 -4.63,-2.573 -2.113,-0.004 -5.618,2.573 -2.108,2.103 -2.002,3.005 -2.575,4.631 -0.124,1.06 0.12,4.052 4.616,10.666 2.06,2.06 2.662,1.539 1.379,-1.297 v -2.052 l -2.702,-2.948 0.009,-2.054 1.369,-0.314 0.947,0.694 4.08,0.01 2.918,-1.839 1.389,-1.497 m 31.653,-496.315 v 0 l -1.365,1.263 -0.134,2.019 1.715,5.255 2.167,-1.614 0.087,-1.631 -1.738,-4.728 m 108.883,-0.275 v 0 l 1.738,2.395 1.933,-0.389 -0.6,-1.006 0.642,-1.043 -1.952,-16.401 -1.741,1.418 -0.134,1.029 m -10.737,189.31 v 0 l -7.959,-11.97 -4.757,-1.706 -4.787,1.613 -5.06,5.06 -1.577,2.636 -0.004,6.113 1.619,3.669 1.939,2.937 2.754,1.697 h 3.108 l 2.636,-1.577 3.098,-3.101 3.2,-5.37 3.586,4.319 4.398,3.709 1.057,-0.007 0.333,-2.389 m 82.309,-180.901 v 0 l 0.3199,-1.348 1.0147,0.603 0.3244,-0.275 -0.6722,-3.053 1.8931,-2.532 2.6494,-1.685 -1.1998,-1.054 -2.0043,0.783 -2.3308,-0.454 0.1473,-1.332 1.4044,-2.388 0.7592,-0.661 2.082,-0.015 3.6665,1.619 0.7599,1.75 -0.1226,6.051 -2.5522,4.608 -2.7551,1.694 -1.0839,-0.014 m -1.431,-18.365 v 0 l -2.3248,2.333 -1.5775,2.636 0.01,3.08 0.6518,0.974 -1.6508,1.974 -0.1333,2.02 1.7354,4.731 3.7231,3.626 3.0805,0.011 2.6359,-1.577 2.0982,-2.101 2.3971,-3.9 0.2984,2.212 -0.8061,2.032 1.6897,2.368 1.661,-0.047 3.2814,-3.134 3.3988,-2.405 2.2545,7.582 7.9828,-5.754 2.0756,0.025 0.3078,0.364 -1.6897,3.914 0.3327,1.401 2.0514,0.008 2.3385,-3.296 -0.0108,-4.08 -2.3254,-2.325 -2.0846,-0.015 -3.6694,1.619 -3.034,1.994 -1.718,-5.214 -0.4975,-0.383 -2.0486,-10e-4 -5.979,4.652 -0.3875,-1.96 1.4155,-1.817 -0.1985,-0.819 1.5317,-2.65 -0.0266,-1.081 -0.8048,0.027 -2.313,2.314 -2.3971,3.901 -0.2837,-1.218 0.8212,-1.972 0.1335,-3.02 -1.7008,-3.696 -2.0948,-2.095 -2.6359,-1.577 -4.05,-0.123 m -11.9824,191.963 v 0 l -2.3315,2.307 -2.6671,1.707 -0.419,2.14 2.396,1.706 2.6899,-1.553 3.9435,-3.359 5.1514,-5.736 3.9983,-5.998 1.5788,-2.638 -0.011,-2.08 -4.6674,-4.763 -7.3737,-4.426 -3.9435,-3.359 -4.3403,-4.778 -3.054,0.009 -0.314,1.37 2.557,3.663 2.813,2.833 2.6621,1.692 2.6196,2.57 8.0407,5.191 0.0115,2.078 -3.577,5.636 M -414.68,321.9639 v 0 l -8.026,5.821 -0.479,-2.297 0.836,-1.978 0.01,-4.08 -1.731,-2.311 -1.344,0.599 -3.651,18.703 1.635,5.808 0.766,0.643 2.332,-6.326 0.233,-2.695 6.088,-4.582 6.707,-6.121 -2.369,-1.986 m 104.451,49.354 v 0 l -0.472,-1.51 -1.282,-1.272 -3.667,-1.616 h -2.117 l -3.757,1.71 -2.546,4.602 v 10.108 l 1.577,2.636 3.094,2.131 6.657,2.508 1.006,-0.672 2.034,0.643 0.335,-1.325 -0.617,-0.722 -7.409,-3.465 -2.667,-2.762 -0.01,-8.08 1.729,-2.344 2.629,-0.086 1.347,0.456 0.141,2.024 -0.836,1.978 -0.132,4.022 0.486,1.361 0.639,0.002 3.721,-6.305 m 2.639,-36.416 v 0 l 1.314,1.15 5.596,2.846 6.027,1.735 11.123,-10e-4 4.363,-1.797 -0.906,-1.052 -18.324,-2.717 -2.841,-0.967 -5.161,-3.169 -3.554,-5.612 -0.123,-4.051 0.508,-1.511 3.25,-2.239 9.411,-4.465 2.626,-2.573 2.38,-1.43 4.059,-4.06 1.58,-3.698 -1.384,-0.383 -2.635,1.571 -2.62,2.57 -7.963,5.962 -7.672,3.609 -1.081,-0.027 0.511,-2.333 -0.119,-9.055 -2.843,-5.912 -5.469,-3.391 -1.06,-0.123 -2.053,0.119 -6.662,2.615 -4.63,4.725 0.321,2.36 1.332,-0.147 2.388,-1.402 2.564,-2.517 4.685,-1.636 3.087,0.016 1.619,0.933 2.717,4.365 0.123,7.05 -0.837,1.978 -0.267,4.694 -10.354,4.809 -4.825,4.853 -2.565,6.609 0.021,1.09 1.316,1.322 2.049,-10e-4 0.695,-0.59 2.761,-7.734 4.793,-3.773 4.802,-1.733 5.137,11.164 1.763,1.677 m 84.9761,-15.691 v 0 l 6.0761,-0.022 3.976,3.871 0.3398,1.508 -1.3162,1.324 -2.0798,0.011 -6.923,-3.855 -0.4917,-1.506 m 68.8244,205.996 v 0 l -0.9305,1.636 -2.7763,2.343 -0.001,4.05 0.9332,1.619 4.3648,2.717 2.0482,0.123 3.69582,-1.7 1.82898,-2.093 2.03894,5.729 0.92743,-0.423 6.52002,-6.299 0.33679,1.328 -0.68475,0.946 6.1e-4,1.054 1.37011,1.296 5.60605,-3.897 1.6996,-2.234 2.6123,-1.554 1.0561,-0.107 1.3206,0.49 -3.6832,7.919 0.3315,1.395 1.0563,0.007 1.6157,-0.923 1.3424,-1.978 2.38,-5.383 -0.363,-2.54 -3.9463,-2.874 -1.3582,0.169 -2.3881,1.402 -2.06178,1.984 -2.59387,-4.585 -0.60754,-0.085 -1.52838,0.468 -4.5254,5.302 -0.33502,-1.326 0.69385,-0.947 -0.01,-2.054 -1.36969,-0.314 -1.97754,1.642 -0.33227,-0.276 0.6994,-5.078 -1.57733,-2.636 -1.75836,-1.662 h -5.05265 l -2.7585,2.662 -1.5777,2.635 M -283.991,259.3049 v 0 l -8.4,5.394 -2.095,2.095 -2.216,3.217 10e-4,0.947 0.972,0.868 h 1.055 l 6.283,-6.127 5.38,-3.43 1.652,-1.758 -0.012,-1.052 -1.33,0.324 m -18.731,287.432 v 0 l 1.705,1.62 5.08,0.011 2.636,-1.577 3.499,-4 0.296,3.211 -0.807,2.032 1.691,2.365 1.309,-0.02 2.808,-8.38 -0.124,-11.047 -1.729,-2.342 -1.661,0.046 -0.945,0.692 -3.031,-0.827 -5.022,0.133 -2.762,2.667 -1.841,3.584 -2.713,8.109 m -59.988,-283.058 v 0 l -4.009,20.009 1.312,1.383 1.756,-0.596 2.518,-6.946 0.756,0.497 1.79,-1.62 3.563,-7.622 -0.35,-1.356 -1.006,0.6 -0.998,-0.597 -0.511,0.328 -2.673,5.187 -0.17,-2.243 0.837,-1.978 -0.142,-5.024 -1.343,-0.44 m -16.977,272.009 v 0 l -0.991,-0.884 -1.744,0.574 -1.774,7.775 0.124,8.048 2.573,4.629 1.112,1.11 5.618,2.572 h 2.117 l 3.667,-1.616 5.067,-5.072 2.067,-4.941 2.508,-8.675 -0.005,-3.115 -1.729,-2.342 -1.658,0.047 -0.681,0.573 -2.554,11.66 -1.991,4.841 -3.723,3.626 -3.02,0.135 -3.672,-1.679 -1.695,-2.751 -0.035,-1.689 2.717,-2.396 -1.537,-2.179 -0.792,0.507 -0.322,-0.274 0.815,-3.029 v -3.992 m 69.5,94.46 v 0 l 5.739,2.789 0.626,0.724 0.002,2.049 -0.837,1.978 10e-4,3.992 0.456,1.347 2.716,0.031 0.816,-1.219 1.781,-6.926 10.187,-1.81 -0.124,-1.446 -0.578,-0.684 -8.145,-2.601 -0.11,-4.685 0.851,-3.066 -1.663,-8.717 -0.679,-0.569 -1.657,-0.047 -1.729,2.342 0.01,4.08 0.837,1.977 -0.123,6.05 -1.729,2.343 -0.583,0.076 -5.016,-1.801 -1.385,1.303 m 23.378,-349.471 v 0 l -0.389,-2.557 1.577,-2.636 4.101,-4.098 6.659,-3.71 0.025,-0.976 -0.974,-0.877 -2.08,-0.011 -4.63,2.573 -5.314,5.287 -2.364,3.448 v 3.108 l 1.839,2.918 2.497,2.379 1.029,0.134 4.051,-0.123 2.636,-1.577 2.309,-2.084 0.973,0.642 1.363,-0.314 -0.804,-3.029 0.821,-1.974 0.133,-4.023 -0.482,-1.484 -0.975,-0.868 -1.661,-0.047 -1.689,2.368 0.674,1.002 0.01,4.08 -1.697,2.754 -2.611,1.554 -2.05,0.122 -1.486,-0.482 m -11.133,173.986 v 0 l -1.749,5.95 0.335,1.397 1.51,-0.333 1.251,-1.256 1.635,-4.686 -0.016,-7.086 -1.324,-1.316 -1.37,0.314 m 176.0452,-184.164 v 0 l -2.6736,1.668 -5.398,5.888 -0.9723,-0.339 -0.1405,-2.069 1.8467,-2.311 -0.3613,-0.944 -1.6365,0.873 -1.7287,2.372 -4.3e-4,6.108 1.57733,2.636 1.0609,1.06 5.6701,2.612 h 3.1081 l 4.6023,-2.546 1.5966,-3.544 2.1092,-3.218 v -4.108 l -1.6966,-2.754 -2.6114,-1.554 m -5.2769,48.06 v 0 l 3.7964,-6.332 3.3998,-2.717 h 3.0528 l 1.7586,1.661 1.5712,2.633 -2.5583,7.727 -3.7716,3.681 -6.0226,0.134 -1.4856,-0.483 -1.8598,-1.973 -0.0147,-1.084 m -245.1644,61.023 v 0 l -0.831,2.006 -0.226,3.572 -3.394,1.941 -0.37,1.54 2.976,2.547 2.885,3.428 1.51,0.333 0.314,-0.308 0.183,-2.445 10.437,-2.061 -0.258,-1.28 -2.227,-0.811 -8.907,-2.008 0.914,-2.426 -10e-4,-14.992 -0.456,-1.347 -2.371,0.315 m 73.258,172.547 v 0 l 3.112,0.13 1.314,1.322 0.02,1.088 -2.569,5.619 -3.578,4.53 -1.576,-2.155 v -6.107 l 2.715,-4.343 m 9.287,-144.186 v 0 l 2.728,-7.356 -0.016,-2.087 -0.926,-1.607 -2.372,-1.729 -2.047,-0.123 -7.087,1.875 -1.866,0.965 -1.084,-0.021 -0.312,-1.361 0.694,-0.947 -0.009,-3.054 -1.895,-0.388 -2.814,6.357 -0.119,3.055 0.482,1.485 0.975,0.861 h 1.055 l 3.542,-2.359 5.372,-2.349 4.087,0.023 0.457,3.339 -0.837,1.978 0.014,4.05 m 168.9756,-65.023 v 0 l 5.1472,5.309 3.4302,5.38 3.3076,3.308 0.7746,0.173 2.0983,-1.539 -0.0459,-1.66 -2.5648,-3.662 -8.9845,-11.062 4.8773,-2.456 5.1201,-5.122 2.5698,-6.61 -0.005,-5.114 -2.8621,-3.946 -1.81,-1.785 -2.6359,-1.577 h -4.1084 l -2.6358,1.577 -3.0949,3.095 -5.221,8.225 -3.7018,7.517 -1.65981,4.887 0.005,14.115 2.39175,3.47 2.9426,1.799 1.379,-1.297 0.118,-1.026 -2.8346,-5.941 -0.1203,-6.052 1.7718,-6.77 0.4976,-0.439 5.2189,5.719 m 18.5441,-61.536 v 0 l -1.3389,1.342 -2.2293,5.299 -2.315,9.339 0.3393,0.516 0.9702,0.865 1.5347,-0.365 1.7076,-2.667 9.152096,-9.706 0.5845,-0.075 1.3909,0.443 0.0194,2.082 -4.6849,7.918 1.2955,1.37 h 1.0549 l 4.6061,-3.916 3.3715,-3.727 0.478,1.305 -0.1208,2.05 -2.6209,4.754 2.2315,1.514 0.5045,-0.324 2.8849,-3.944 0.1226,-8.051 -0.4821,-1.484 -0.9753,-0.861 -2.0015,0.694 -2.0516,-0.01 -0.5471,-0.975 -2.3738,-1.729 -2.0793,0.01 -0.974,0.651 -1.0005,-0.598 -7.004796,7.599 -0.3568,-2.354 1.684896,-2.917 -0.622296,-1.029 0.651496,-0.974 -0.0148,-2.049 M -383.054,630.4399 v 0 l -1.132,3.047 0.119,7.056 2.573,5.618 3.767,3.674 4.022,0.134 1.486,-0.483 2.303,-2.312 4.999,-7.894 5.221,6.587 1.959,1.31 1.396,-1.641 -0.009,-2.078 -8.057,-12.195 -1.771,-7.744 -0.501,-0.386 -4.081,-0.015 -6.665,2.617 -2.966,1.964 m 41.392,-364.407 v 0 l -3.334,1.768 -1.845,2.397 -4.528,4.328 -0.355,-1.36 1.61,-3.666 1.051,-1.28 -1.957,-0.38 -2.71,5.326 0.023,6.087 1.398,0.328 4.629,-2.567 2.531,-3.479 3.304,-3.312 1.51,-0.333 0.454,1.339 -0.116,2.056 -2.704,6.941 1.706,2.364 1.114,-0.365 1.827,-1.785 2.38,-1.43 3.31,-3.084 1.749,1.574 1.58,3.691 -0.681,1.008 0.01,2.054 1.342,0.44 1.481,-0.465 0.87,-0.977 0.135,-5.02 -1.701,-3.696 -3.731,-2.672 -1.06,-0.123 -2.02,0.134 -1.979,1.651 -0.479,-2.296 0.783,-2.004 -0.873,-1.633 -2.373,-1.729 m -14.005,191.905 v 0 l -11.833,-11.853 -2.514,-3.69 4.327,-4.523 2.662,-1.692 6.62,-6.57 8.08,-5.571 -0.041,-1.672 -1.323,-1.323 h -2.052 l -3.664,2.566 -5.62,5.57 -2.662,1.692 -7.999,7.865 -1.331,-0.155 -2.67,-1.51 -1.379,1.297 -0.134,4.023 0.514,1.517 3.938,1.958 3.818,3.838 1.43,2.38 6.095,6.095 2.662,1.692 4.055,3.845 2.369,-1.69 -0.047,-1.658 m -6.836,77.59 v 0 l -1.875,4.374 -0.005,1.126 1.842,10.9 1.552,0.378 0.454,-0.34 2.304,-2.312 1.43,-2.38 5.6,-5.526 2.73,10.513 0.78,0.864 2.072,-1.528 0.088,-8.63 -1.086,-3.636 -2.345,-1.729 -4.08,0.01 -3.608,2.926 -3.072,3.615 -2.279,-8.676 m 47.322,-15.466 v 0 l 0.024,-3.101 -1.731,-2.339 -1.261,-0.001 -4.157,4.709 -1.226,2.25 -3.472,10.441 0.118,9.054 1.66,4.887 3.92,7.737 2.76,2.658 1.37,-0.314 0.02,-3.082 -4.785,-9.376 6.905,-2.531 -0.113,-0.726 -7.827,-2.861 -0.028,-4.446 1.627,-5.783 2.041,-4.876 3.543,-1.6 m 151.102,14.502 v 0 l 0.1416,-0.582 1.3737,0.305 -0.1237,3.234 m 11.46402,-3.166 v 0 l 0.31415,-1.345 0.33258,1.329 m 2.34612,0.984 v 0 l 0.65668,-0.039 -0.33179,1.333 m 22.96764,-273.627 v 0 l 3.3824,2.301 0.0116,2.078 -1.5552,2.612 -4.7528,2.696 -3.082,-0.019 -0.4564,-1.347 0.1327,-3.022 3.6616,-3.759 m -259.6649,367.788 v 0 l 1.671,-1.792 4.628,-2.572 1.602,-0.059 1.819,3.361 0.001,5.117 -3.578,7.626 -1.761,1.658 -1.508,-0.34 -1.312,-1.325 -2.573,-5.618 0.014,-3.085 0.704,-0.948 m 31.149,-258.07 v 0 l -0.016,7.04 -0.837,1.978 -0.132,2.022 0.481,1.485 0.977,0.87 2.052,-0.009 0.547,-0.976 3.737,-3.151 6.395,-4.405 1.793,9.176 2.853,-2.96 0.017,-4.087 -1.639,-4.685 -0.706,-0.605 -4.077,-0.011 -5.636,3.577 -1.835,1.784 -0.813,0.025 -0.147,-4.021 0.97,-3.007 0.001,-11.99 -2.27,-5.209 -1.578,2.15 -0.123,1.059 0.133,2.02 0.837,1.977 0.014,4.997 m -19.019,371.966 v 0 l -0.297,1.345 -7.002,13.936 -4.549,11.692 0.017,9.087 4.325,4.325 2.086,0.016 4.888,-1.661 4.024,-2.184 5.813,-5.832 1.966,-2.97 2.616,-7.66 -0.002,-2.119 -1.616,-3.666 -1.024,-1.025 -4.731,-1.736 -5.02,0.134 -1.979,1.652 -0.325,-0.274 0.145,-1.333 5.547,-10.639 0.108,-1.054 -1.685,-3.69 -1.785,-1.609 -1.351,1.273 m 138.9888,-410.639 v 0 l 0.0113,2.692 2.6853,3.781 2.6113,1.554 4.0806,-0.011 3.6638,-2.566 4.6613,-4.759 0.0107,-4.08 -1.5774,-2.636 -3.0598,-3.06 -3.6664,-1.616 -7.0849,0.014 -2.3251,2.326 v 5.052 l 1.5629,1.768 m 74.1269,209.256 v 0 l 0.2995,-7.104 2.33827,-3.297 3.05182,0.008 0.45624,1.347 -0.12213,4.05 -2.9389,5.578 -2.3687,1.724 -1.0844,-0.022 -0.3122,-1.361 m 8.65922,-2.014 v 0 l -0.31397,1.346 -0.33264,-1.329 m 9.64667,-0.017 v 0 l -0.31415,1.346 -0.3324,-1.329 M -375.751,265.1469 v 0 l 2.072,-0.016 2.329,2.327 0.134,1.029 -0.123,3.051 -1.577,2.636 -1.785,1.609 -1.351,-1.273 -0.134,-1.03 0.132,-3.022 0.651,-0.972 -0.517,-0.82 0.834,-0.99 -1.818,-1.426 m 3.038,510.531 v 0 l -0.203,-3.358 1.599,-4.645 2.577,-1.629 4.221,-6.19 2.917,-1.837 1.053,-0.109 4.423,1.925 -0.06,5.6 -2.573,4.629 -4.817,4.839 -4.918,2.84 -1.056,0.122 -1.631,-0.088 m 109.173,-513.408 v 0 l -4.902,8.958 0.011,3.08 1.323,1.316 1.055,-0.008 0.546,-0.968 6.117,-4.581 5.315,-5.086 0.478,1.305 -0.117,2.055 -2.722,5.886 0.327,1.39 1.056,0.007 2.722,-2.617 1.617,-3.666 -0.004,-5.113 -1.729,-2.344 -2.687,0.036 -2.636,1.577 -5.315,5.085 -0.337,-1.327 1.693,-1.947 0.118,-1.026 -0.466,-1.48 -1.009,-0.823 m -8.972,271.593 v 0 l -0.027,-0.593 m 6.027,-95.174 v 0 l -1.655,-1.097 -2.719,-3.4 v -5.052 l 1.326,-1.325 4.022,-0.134 1.486,0.482 1.49,1.345 1.057,-0.007 0.454,-1.339 -0.132,-2.019 -0.626,-0.724 -3.666,-1.619 -5.056,-0.119 -1.485,0.482 -2.303,2.313 -1.577,2.636 -0.004,3.112 1.619,3.67 1.962,2.962 6.15,5.679 v 0.622 l -1.675,1.794 -2.636,1.577 h -2.108 l -2.892,-1.724 -2.08,0.011 -1.316,1.323 v 1.055 l 1.617,1.722 3.666,1.617 5.113,-0.004 2.636,-1.577 3.312,-3.303 0.483,-1.486 -0.134,-3.022 m 38.9526,-116.165 v 0 l 6.0599,2.588 -2.3374,1.954 h -2.0523 l -3.3157,-3.324 0.3114,-1.361 m -4.3409,208.334 v 0 l 2.035,2.396 1.6788,-2.403 -1.7031,-3.934 0.0191,-1.088 1.9154,-2.605 2.6988,-2.113 9.4113,-4.465 1.6576,-1.761 -0.0115,-1.052 -1.3301,0.324 -1.0285,-0.622 -10.9559,5.702 -2.5068,-3.35 -1.0244,0.005 -1.9704,6.972 0.1338,4.02 0.7044,0.948 m 64.6696,-109.684 v 0 l -0.0265,-0.593 m 63.6508,97.3 v 0 l 2.326196,2.345 2.0277,-0.641 2.5489,0.878 1.9198,4.478 2.1322,17.425 1.6997,-0.476 -0.5999,-1.006 0.7842,-2.004 0.0012,-10.99 -1.8487,-5.945 0.0332,-1.088 3.3545,0.368 0.339,-0.972 -5.1248,-3.653 -1.608,-5.655 -0.1172,-9.055 1.7364,-4.731 5.3338,-4.714 2.3938,3.815 0.3632,-0.352 0.0102,-4.05 -2.3227,-2.316 -1.3308,0.155 -5.3637,3.379 -2.0627,3.058 -1.7576,5.756 0.0011,7.99 0.837,1.978 -0.0093,4.054 -3.3393,0.457 -2.009,-0.785 M -281.18,538.4519 v 0 l 0.445,1.369 1.062,0.004 1.974,-1.859 0.482,-1.486 -0.456,-2.339 -2.054,-0.008 -0.977,0.87 m 194.631696,-205.519 v 0 l 1.7405,-2.393 h 1.2613 l 1.7252,2.338 -0.6563,2.061 1.3255,0.335 2.3369,-3.287 -0.0108,-2.08 -3.3272,-4.325 -3.0502,-0.001 -3.7585,3.662 -1.5776,2.636 -0.1233,6.048 2.6969,5.689 3.7345,2.679 4.0806,-0.011 1.9788,-1.652 0.3324,0.277 0.0145,3.05 -0.837,1.977 7e-4,8.993 0.4541,1.345 1.6065,0.064 4.1144,-18.653 1.6802,-11.689 -0.0197,-3.089 -2.3511,-2.273 -1.7138,1.53 -2.4329,9.419 -2.0654,4.034 -2.7606,2.658 -2.0257,-0.842 -2.364,-3.446 M -225.7229,267.1929 v 0 l 0.0266,0.594 m 169.366896,256.696 v 0 l -1.7097,-2.809 -6.2263,-3.416 0.9175,-1.776 -0.3264,-0.332 -2.0268,0.633 -1.0285,-0.622 -6.6555,3.535 -1.667,1.762 v 2.052 l 1.3506,1.273 1.0005,-0.598 1.004,0.597 0.2943,-0.294 -0.6413,-0.977 0.3457,-1.384 2.3586,2.303 0.0041,2.112 -1.7084,3.935 1.5582,2.697 2.7584,2.661 5.0804,0.011 2.7559,-1.7 2.5522,-4.608 M -401.656,332.8069 v 0 l -1.521,-0.317 -0.866,-0.979 0.641,-2.028 -1.598,-1.999 1.299,-1.299 2.351,2.273 0.133,3.022 m 42.538,385.482 v 0 l -2.345,2.315 -5.401,2.457 -1.627,1.724 0.009,2.054 2.4,0.337 3.67,-1.618 5.765,-4.148 2.71,6.073 2.164,2.724 1.659,-0.06 -0.325,-1.336 0.598,-1.001 -1.651,-1.973 -0.133,-1.029 -0.001,-7.991 1.848,-3.952 -0.011,-2.08 -1.379,-1.297 -2.662,1.538 -1.06,1.06 -1.501,3.45 m 228.2243,-445.015 v 0 l 0.3585,1.31 -0.3324,0.282 -0.3318,-1.333 m -233.7126,1.709 v 0 l 1.348,0.313 -1.308,1.309 m 133.9831,-1.59 v 0 l 0.0265,0.593 m 125.9735,-0.593 v 0 l 0.0265,0.593 m -98.9734,160.171 v 0 l -0.5754,1.084 -2.9305,2.382 0.472,1.542 1.3536,1.492 -0.702,5.052 2.3483,2.271 0.7488,-0.573 1.6185,-3.663 0.1715,-1.505 15.2438,-2.854 0.5172,-0.705 -0.7764,-1.393 -13.7077,-1.909 0.6717,-1.698 -0.116,-6.059 -1.6503,-5.697 -0.6945,-0.582 -1.5038,0.338 -0.8716,0.977 -6e-4,4.052 0.8369,1.977 3e-4,3.993 m 85.4931,-157.286 v 0 l 0.0265,0.593 m -94.675,256.892 v 0 l 2.6155,-1.557 1.0569,-0.107 1.3323,0.439 0.0218,1.085 -3.5485,5.611 -2.7861,1.657 -0.5056,-1.327 0.1217,-3.05 m 13.7006,-209.896 v 0 l 0.004,-7.078 -1.3672,-0.313 -0.4868,0.369 -1.009,2.371 -1.9646,11.608 0.1338,2.019 1.3224,1.315 1.3309,-0.154 2.388,-1.402 3.6198,-3.57 4.0002,-3 3.6617,-2.565 1.0708,-0.119 1.3529,1.084 2.1869,10.858 1.4482,-0.125 1.3209,-1.322 0.0107,-9.08 -3.3382,-5.297 -5.0781,-0.011 -5.6359,3.577 -5.315,5.085 -0.4787,-2.296 m -171.4941,302.286 v 0 l -0.027,-0.593 m 239.02661,-92.407 v 0 l -0.0266,-0.593 M -342.2,649.4399 v 0 l 0.161,4.068 0.813,-0.025 1.327,-1.335 4.566,-15.604 0.029,-2.693 -2.367,-1.688 -0.74,0.552 -3.657,14.708 m 12.845,-205.917 v 0 l 1.522,-1.321 0.972,0.651 1.661,0.248 1.729,2.346 0.124,1.06 -0.124,4.048 -1.577,2.636 -3.758,3.652 -1.508,-0.34 -1.304,-1.312 -1.577,-2.636 -0.124,-1.06 0.135,-4.02 m 2.378,75.524 v 0 l -0.388,2.556 1.697,2.396 2.02,1.914 0.637,-0.012 0.227,-0.597 -2.425,-6.424 -0.797,-0.628 m -1.456,21.274 v 0 l -0.894,0.992 -0.133,6.027 0.482,1.484 1.03,0.842 2.37,-1.69 0.088,-5.629 -0.482,-1.484 -0.975,-0.861 m 30.95,-161.949 v 0 l 0.027,0.594 m 73.973,-51.594 v 0 l 0.0267,0.594 m 130.704696,191.719 v 0 l 0.5931,-0.027 M -441.991,842.5059 v 0 l 0.593,-0.027 M 31.830996,475.4669 v 0 l -3.018,23.024 0.134,7.019 2.138,2.182 1.536,-2.18 -0.675,-1.002 -0.012,-3.084 1.55,-2.452 3.125,3.295 4.662,3.557 1.362,-0.312 -0.15,-1.338 -2.395,-4.376 -1.574,-1.626 -1.538,-2.662 3.295,-3.378 1.687,-0.043 1.549,1.604 2.121,-2.245 -1.783,-3.388 -3.543,-0.063 -1.483,0.481 -5.525,4.304 -0.325,-0.275 0.815,-3.029 -0.001,-12.992 -0.454,-1.339 m -5.222,63.632 v 0 l 1.768,3.335 2.37,1.73 3.08,-0.011 2.498,-2.35 0.814,-0.025 0.147,4.02 -0.837,1.978 v 4.052 l 1.352,1.273 0.997,-0.798 0.725,-0.745 5.64,-25.694 -0.184,-1.372 -1.394,-1.898 -2.994,2.415 -2.157,-2.605 -0.588,-0.085 -3.099,0.121 -2.612,1.554 -3.127,4.131 -2.573,5.618 m 4.393,5.561 v 0 l -0.512,-1.5 0.123,-4.056 2.573,-4.63 1.789,-1.815 0.974,-0.852 2.053,0.009 0.315,1.369 -0.685,0.946 v 1.054 l 0.665,1.001 -3.316,6.437 -1.981,2.876 m -112.5251,-11.384 v 0 l 0.1484,8.069 1.3242,1.316 1.3277,-0.336 -0.6433,-0.979 4e-4,-1.054 0.8274,-1.977 v -5.993 l -0.8371,-1.977 -0.1476,-3.026 0.015,-6.997 0.784,-2.004 -1.299,-1.298 -1.3517,1.273 -0.1334,1.029 m 10.5067,17.518 v 0 l -1.3636,-1.494 0.3394,-1.507 1.0026,-0.819 2.9737,2.65 2.3252,-0.344 -3.2745,-2.504 0.2747,-1.503 -0.5971,-0.998 3.2428,-2.359 1.0842,0.015 2.3224,2.316 v 4.052 l -3.5671,4.182 -0.7592,-0.55 -1.0524,-10e-4 -0.9732,0.642 m -4.0215,-12.59 v 0 l 0.0266,0.594 m 2.9547,0.38 v 0 l 1.3453,0.314 -1.3291,0.332 m 3.0025,-0.62 v 0 l 0.0266,0.594 m 104.9734,4.406 v 0 l 0.027,0.594 M -287.728,541.1939 v 0 l 0.359,1.31 -0.333,0.282 -0.331,-1.333 m 737.874,45.006 v 0 l -8.515,6.502 -5.812,5.833 -1.692,2.662 -2.308,2.338 -4.031,6.933 -3.552,9.696 0.002,8.12 3.123,7.928 1.522,5.772 2.031,2.026 2.636,1.577 9.254,-0.121 -10.966,-4.534 -2.226,-7.14 -2.37,-5.513 -0.006,-7.115 2.532,-7.637 3.049,-5.988 2.788,-3.816 12.027,-12.021 3.974,-2.995 0.34,-2.51 -1.375,-0.315 m 84.575,2.32 v 0 l -0.873,1.053 2.58,6.169 0.754,-0.497 1.786,1.614 2.959,4.96 2.617,6.665 0.121,13.053 -2.652,8.705 -2.048,3.987 -6.262,9.284 -0.78,0.764 -4.145,1.771 0.92,1.497 1.484,0.483 3.023,-0.134 1.972,-1.849 6.788,-9.816 3.23,-7.285 2.47,-9.408 -0.119,-8.054 -3.549,-10.634 -8.035,-11.995 -0.758,-0.651 m -21.525,21.298 v 0 l -0.135,5.101 -1.819,3.361 -1.573,-0.07 -0.758,-0.557 -1.536,2.179 4.529,3.24 -0.693,1.792 0.123,10.05 1.729,2.343 0.584,0.075 1.349,-0.466 -0.6,-1.005 0.599,-1 -0.784,-2.004 v -6.992 l 1.009,-2.002 0.782,-0.172 7.64,3.532 2.354,-0.357 -1.881,-2.649 -8.84,-4.81 1.907,-14.553 -0.135,-10.02 -1.893,-1.359 -1.787,3.352 0.814,2.037 0.014,4.997 -0.147,2.026 -0.704,0.948 m -92.148,97.069 v 0 l -0.135,-5.102 -2.539,-6.667 -3.183,-5.665 -1.669,0.042 -0.766,0.673 -2.461,5.403 -1.962,2.963 -5.136,4.284 v 2.052 l 1.323,1.316 h 1.055 l 3.945,-2.819 2.813,-2.833 1.973,-2.887 2.607,9.134 -0.85,3.066 0.123,3.05 1.577,2.155 1.418,-0.782 1.728,-2.373 m 39.4,-92.278 v 0 l -4.75,1.715 -2.701,1.725 -2.098,2.101 -1.229,2.252 -2.469,6.438 0.117,3.055 1.762,6.016 1.583,2.274 3.082,0.015 3.667,-1.617 6.026,-5.948 5.243,10.663 2.013,2.835 0.357,-1.361 -1.73,-6.028 -4.002,-10.85 0.016,-2.086 0.694,-0.945 0.018,-1.088 -1.613,-3.666 -0.723,-0.616 -1.504,0.338 -0.862,0.976 0.827,3.031 -0.123,5.05 -1.577,2.636 -3.819,3.838 -3.93,1.8 -0.765,-0.583 -1.639,-4.685 0.002,-3.119 2.614,-6.662 2.062,-2.064 2.636,-1.577 7.118,-0.124 2.2,3.682 1.068,-1.232 -1.631,-4.741 m 20.649,25.851 v 0 l 0.282,-2.13 2.854,-8.95 -0.125,-3.047 -1.407,-1.693 -5.439,17.752 0.143,2.019 0.984,0.334 m -12.933,-3.381 v 0 l 0.593,0.027 m -65.278,96.536 v 0 l -2.391,-2.939 -2.66,0.046 -6.663,4.567 -2.67,3.837 -0.008,-10.113 4.853,-13.945 -0.088,-3.627 -2.367,-1.688 -0.758,0.575 -2.983,7.822 -3.657,12.863 v 9.121 l 2.342,6.346 2.524,3.592 3.448,2.364 4.08,-0.011 2.762,-2.667 2.037,-3.957 2.54,-6.669 0.12,-4.054 m -5.851,7.923 v 0 l -0.627,1.552 -3.009,3.819 -1.631,-0.872 -1.71,-2.433 2.55,-5.67 2.103,-2.108 3.695,-2.516 0.479,1.304 -0.118,3.055 m -68.393,-16.348 v 0 l 0.359,1.31 -0.333,0.282 m 58.979,19.407 v 0 l 0.026,0.593 m -1015.294,82.72 v 0 l 0.593,-0.027"
   id="path6" />
</svg>
