<svg
   viewBox="-702 0 1243.8271 1216.126"
   version="1.2"
   id="svg14"
   xmlns:xlink="http://www.w3.org/1999/xlink"
   xmlns="http://www.w3.org/2000/svg"
   xmlns:svg="http://www.w3.org/2000/svg"><defs
   id="defs18" />
<g
   id="g8"
   transform="translate(-103.159,-454.134)">
  <path
     fill="#000000"
     d="m 101.711,1035.17 v 0 l 1.07,1.08 7.656,2.61 1.327,-0.14 2.833,-1.36 -8.774,-4.07 -1.697,-1.81 5.351,-3.47 0.491,-1.51 -0.44,-1.34 -2.089,-0.03 -4.864,1.68 -3.0726,2.21 -0.2071,0.74 m 10.1827,-74.739 v 0 l 2.026,-3.054 3.361,-7.409 0.002,-10.119 -3.576,-9.618 -2.006,-3.011 -4.57,-4.62 -1.432,-2.38 -0.758,-0.652 h -1.053 l -1.324,1.315 -0.046,3.66 6.186,5.683 2.239,4.262 2.342,7.36 -0.003,6.121 -2.618,6.665 -3.963,5.966 -2.813,2.832 -4.297,2.322 -8.0864,2.692 0.0262,0.433 1.3587,1.382 6.0852,0.014 7.6253,-3.577 3.101,-3.098 m -20.3022,270.35 v 0 l 0.0019,-8.04 -0.8275,-1.97 0.6944,-2 -0.0094,-2.06 -2.3684,-0.32 -8.37,7.72 0.055,1.66 1.3449,0.45 2.0227,-0.13 2.7318,-2.55 2.5238,7.96 0.6938,0.58 1.0523,-0.01 m -1.9961,46.15 v 0 l -2.0069,-0.83 -2.0529,0.01 -0.3412,2.04 9.8373,2.87 -0.0984,2.49 -1.74,7.88 -0.1149,6.06 1.0051,2 1.5033,0.34 0.6799,-0.56 2.8988,-18.41 2.6942,-2.37 -2.6943,-2.37 -0.0847,-0.59 -0.0023,-8.04 0.9696,-3 -0.1333,-8.03 -1.7859,-1.39 -4.1342,21.89 m 7.7874,-191.74 v 0 l -5.0449,-10 -2.5029,-6.7 1.6712,-2 -0.3656,-1.54 -2.9226,-1.85 -1.0534,-0.11 -6.6773,2.68 -2.1119,2.11 -2.5736,4.63 0.0108,4.08 2.5666,3.66 3.7586,3.66 h 3.0502 l 3.9762,-5.65 2.215,2.99 5.3095,5.31 0.8048,0.03 m 8.3157,-2.03 v 0 l 0.84,-2 -0.134,-7.03 -1.349,-1.27 -1.472,1.94 -2.899,14.3 -0.115,2.06 0.481,1.48 1.003,0.82 1.532,-1.34 1.723,-3.93 3.721,5.32 6.048,-0.01 0.36,-0.88 -3.351,-1.93 -1.383,-1.5 -0.046,-1.66 6.398,-4.89 0.34,-1.51 -0.339,-0.45 -0.974,-0.86 -1.084,-0.02 -7.605,3.94 -1.525,1.64 m 7.202,-97.561 v 0 l -0.367,2.365 2.884,1.98 5.982,2.585 8.952,1.981 0.018,23.42 -1.728,15.74 -9.389,2.85 -1.691,2.39 0.324,0.51 0.972,0.87 3.087,0.02 10.012,-2.77 2.278,-1.58 0.001,-3.05 -0.837,-1.97 -10e-4,-5.99 1.828,-33.965 -0.548,-0.739 -14.255,-1.811 -4.264,-1.746 -1.248,-1.1 M 89.855,1149.5 v 0 l -2.6896,3.81 -5.9167,3.41 1.6178,2.18 2.6874,-0.04 4.6077,-2.55 3.1595,-5.12 2.6646,-7.7 -0.1182,-15.05 -2.6168,-7.66 -3.9431,-5.95 -2.4977,-1.55 -3.2826,-3.12 h -1.0551 l -2.3145,2.31 10e-5,1.06 2.5576,3.18 0.7595,-0.55 h 1.0523 l 2.7576,2.65 1.966,2.97 2.6166,7.66 0.1185,12.05 M 124.984,589.536 v 0 l -0.119,-2.086 -3.394,-5.474 -9.326,-4.823 1.709,-5.657 -1.643,-6.768 -3.903,-5.894 -6.754,-4.696 -3.0804,0.01 -3.3247,3.326 0.3484,2.507 0.9736,0.868 1.5842,0.07 2.4259,-2.793 4.521,3.376 3.849,4.971 v 8.053 l -1.925,2.607 -2.774,2.339 -0.122,1.451 12.175,2.816 3.271,2.253 0.509,1.511 -0.133,4.023 -0.933,1.618 -5.349,2.992 -11.102,2.801 -1.151,1.865 2.221,2.074 10.942,-2.621 4.457,-1.743 2.37,-1.346 1.94,-2.938 M 95.8165,1038.54 v 0 l -0.6157,-2.04 0.5983,-1 -0.6519,-0.97 -0.1335,-5.02 1.8341,-7.99 -1.5635,-2.22 -1.3328,2.01 -1.821,7.13 -0.1155,6.06 1.059,2.63 2.4081,1.69 m -10.9717,448.16 v 0 l -2.4064,1.89 0.3682,1.97 2.0818,0.02 2.6359,-1.58 2.6199,-2.57 3.2144,-2.24 1.6906,-2.66 7.3932,-7.68 1.878,5.38 -0.001,11.99 -0.97,3 0.133,5.03 1.352,1.27 1.466,-0.81 1.902,-5.43 0.131,-2.06 -0.013,-15.99 -1.965,-11.97 -2.065,0.51 -1.928,3.42 -10.3131,11.34 -1.43,2.38 m -134.2505,-25.7 v 0 l -1.7492,2.7 -6.1075,6.34 1.6931,2.33 0.6551,0.01 2.9444,-1.85 2.527,-3.5 1.2847,0.29 2.8246,4.61 1.6728,5.84 3.697,2.73 0.5083,1.51 -0.1333,5.03 -5.7476,5.34 0.0551,1.66 1.3449,0.45 2.0223,-0.13 3.7288,-3.55 1.9187,2.61 1.6821,-2.36 -0.6985,-2.02 0.3404,-1.51 2.0019,-1.82 2.0005,0.77 1.3558,-0.47 -1.5672,-2.21 1.5105,-1.79 -1.2716,-1.34 -3.0276,0.81 -1.7291,-0.72 -1.753,-4.72 -3.0161,-0.59 -7.0016,-14.88 m 1.0445,-47.58 v 0 l -1.8868,1.99 0.8268,3.03 -0.1172,4.06 -3.0181,11.29 -1.8346,11.66 2.0535,10.46 1.4621,-0.12 7.6599,-5.57 6.0946,-6.09 3.0295,-4.96 1.6714,-4.74 -0.1237,-4.04 -2.3383,-3.3 -3.0778,-0.01 -8.9246,4.68 -0.3585,-0.3 -0.0304,-3.08 2.7095,-11.97 -0.9162,-1.6 -2.4021,-1.69 m 11.7547,-192.37 v 0 l -3.1408,-5.26 -0.0033,-9.11 3.5778,-7.62 2.9808,-3.99 4.1675,-2.69 -0.36,-1.12 -0.9712,-0.86 -4.7542,1.59 -4.0682,5.07 -2.86,6.59 -1.7155,6.03 -0.1169,5.05 3.6972,7.69 3.0035,4.01 6.3037,6.31 1.8158,0.03 -0.3322,-1.51 -1.7911,-1.84 -2.4226,-4.36 m -33.1034,-610.1 v 0 l 1.2881,1.122 h 1.0541 l 1.2953,-1.37 -1.538,-2.662 -2.1007,-2.098 -15.3611,-7.419 -4.6237,-4.798 1.364,-0.363 17.3872,1.805 7.491,1.928 4.0807,-0.028 0.153,-0.632 -1.5128,-2.514 -3.7087,-1.87 -19.1716,-2.943 4.5322,-3.165 6.3697,-3.425 1.3184,-1.306 0.3485,-2.508 -1.3509,-1.273 -9.6856,5.512 -9.0045,6.002 -3.6613,4.759 -0.1323,2.022 0.7586,1.751 3.6917,1.725 2.3493,2.316 13.1157,6.196 M -82.4568,993 v 0 l -5.0714,-0.157 -0.5724,-1.976 -2.3687,-1.688 -0.7211,0.521 -2.3601,24.43 -2.4357,16.38 0.1347,9.02 1.351,1.27 0.9743,-0.65 3.0262,-0.15 4.0625,0.86 6.66,-1.6 1.6335,-2.71 -0.3503,-1.35 -1.0057,0.6 -1.0001,-0.6 -2.0036,0.78 h -7.9927 l -1.3463,-0.45 -0.127,-1.03 5.0567,-38.477 2.4386,0.124 1.9779,0.838 h 5.993 l 1.9762,-0.828 2.0559,0.666 3.3217,-2.3 -0.0079,-2.051 -1.3428,-0.441 -1.9996,0.768 -0.9727,-0.642 h -1.0548 l -1.9761,0.828 m -19.018,224.035 v 0 l 1.8065,-1.83 1.432,-2.38 1.4141,-0.68 2.6788,3.15 7.636,4.58 3.1145,0.01 4.1273,-1.64 -7.8523,-2.93 -5.0849,-4.08 -1.6152,-3.66 -0.0207,-1.72 4.797,-2.74 -1.8078,-2.26 2.3427,-1.7 2.0795,0.01 1.3254,1.32 8e-4,4.06 -0.8978,1.51 -3.6575,2.24 2.1497,1.58 3.05,0.12 1.5174,-0.51 1.8518,-3.91 0.1333,-2.06 -0.1369,-4.05 -1.6968,-2.76 -2.6112,-1.55 -3.0543,-0.14 -2.0542,0.14 -2.6358,1.57 -3.0611,3.07 -3.4574,8.4 -6.5903,8.53 -3.553,-10.1 -1.641,-1.47 -1.004,0.88 -0.232,0.71 1.459,5.83 2.085,6.86 1.179,2.06 1.533,0.36 m 20.9288,-260.996 v 0 l 1.8285,0.863 1.577,-2.154 0.1242,-1.059 -0.0883,-10.628 -2.1499,-1.61 -1.7336,8.25 0.0017,4.99 m 65.0262,64.984 v 0 l -0.8935,0.99 -0.1331,1.03 v 9 l 0.4824,1.48 1.0026,0.82 1.3513,-1.27 0.1334,-1.03 -5e-4,-10 -0.4551,-1.34 m 3.4708,-79.703 v 0 l 0.13059,3.105 1.65869,6.71 1.9029,2.893 6.079832,4.081 3.669248,1.619 2.05475,0.118 1.30469,-0.481 -3.61066,-3.787 -6.51037,-4.567 -2.66572,-9.655 0.12397,-5.047 2.61505,-5.674 1.9621,-2.962 3.09478,-3.095 6.04102,-4.191 0.04663,-2.657 -2.34406,-1.729 -2.56158,0.385 -1.70697,2.667 -6.57336,6.626 -4.5774,9.625 M -109.876,1426.5 v 0 l 2.741,-4.01 v -0.62 l -2.31,-1.73 -1.536,0.36 -1.307,1.32 -4.425,8.37 -2.81,4.06 -4.155,-11.48 -2.037,-3.95 -0.787,-0.62 -1.349,1.27 -0.011,2.08 1.058,2.05 3.298,11.33 2.215,5.25 0.767,0.67 h 2.048 l 0.759,-0.66 4.004,-6 M -54,577.457 v 0 l 0.1384,3.097 1.7327,2.338 1.0338,0.082 2.5344,-12.817 3.395,-5.465 2.6116,-1.554 2.0816,0.02 0.3286,1.397 -1.5714,2.635 -2.0947,2.095 -2.667,1.707 -0.4135,2.152 4.0745,2.567 4.6257,4.574 7.6627,5.557 1.3566,-0.369 -1.5797,-3.698 -7.0592,-7.06 -3.0315,-2.19 0.339,-1.506 1.7955,-1.842 2.5497,-5.67 -1.6523,-2.789 -3.6323,-1.584 -2.1122,0.004 -2.6361,1.577 -4.0983,4.101 -3.5738,6.63 M 77.5229,1282.04 v 0 l -1.4862,-0.95 -4.9043,15.35 -0.1164,4.06 0.4786,1.3 1.4698,-0.81 4.901,-15.43 0.1183,-2.06 m -142.772,-208.49 v 0 l 8.2527,1.97 0.5047,1.52 -0.954,3 0.1333,7.03 1.3515,1.27 2.342,-2.27 -0.6789,-2.07 1.7889,-7.15 1.0479,-1.79 1.5006,0.28 1.2988,-1.3 -2.6873,-2.47 -3.0036,-19.92 -1.6384,0.05 -0.4542,1.34 0.1321,4.03 0.8369,1.97 -0.1335,11.03 -1.3906,1.31 -6.8987,-1.71 -3.0899,0.03 -0.3226,2.36 m 19.0532,417.79 v 0 l -5.3928,3.4 -4.664,5.84 -0.0146,-10.11 2.3522,-8.34 4.3771,-10.54 -0.3579,-1.54 -0.9753,-0.86 -1.8139,0.66 -3.0384,5.95 -4.5428,13.67 1e-4,16.12 1.661,4.89 1.8972,3.71 2.7544,1.7 1.5362,-0.36 3.3075,-3.32 4.0324,-6.99 2.5444,-6.63 -0.0033,-4.11 -1.8547,-2.93 m 110.0331,-0.04 v 0 l -4.882,4.99 0.127,1.3 1.6721,3.12 1.3287,-0.71 3.5754,-6.63 -0.0196,-2.08 -1.3744,-0.31 m -89.603,-991.586 v 0 l 3.6528,-9.675 2.3512,-8.338 -0.0066,-15.115 -3.5741,-6.63 -3.1114,-3.109 -5.6183,-2.573 -3.0848,0.014 -1.3247,1.326 -0.1186,1.024 0.2867,1.307 1.5522,2.058 0.9294,-0.36 -0.5992,-1.009 0.2745,-0.324 1.0809,-0.026 4.6288,2.567 2.1095,2.112 1.0212,1.951 1.5512,3.667 0.1206,10.052 -2.758,10.927 -3.9101,9.834 -5.0297,9.93 -4.1844,3.683 0.0551,1.662 1.3448,0.455 3.0224,-0.133 2.7621,-2.667 m -4.2892,772.356 v 0 l -0.1343,-2.09 -1.58,-2.64 -1.7586,-1.66 h -6.0526 l -6.9787,6.65 -0.3371,-1.33 0.6939,-0.94 -8e-4,-2.06 -1.3235,-1.31 h -1.055 l -1.2717,1.34 0.6345,1.04 -1.7038,5.9 0.0171,3.09 1.3225,1.31 1.084,0.02 2.635,-1.58 8.284,-8.13 h 2.052 l 1.3254,1.32 0.1344,5.02 -1.8462,4.95 0.026,1.09 2.3604,0.32 1.7234,-1.63 1.6163,-3.66 M 40.9799,580.534 v 0 l -2.6867,-6.711 -1.1167,-1.116 -5.6765,-2.554 -4.6317,1.924 -3.1218,3.705 -2.515,7.463 -1.0733,1.225 -0.0227,1.092 2.6111,8.655 1.9682,2.973 2.7585,2.661 h 5.0528 l 3.7837,-2.689 2.8241,-5.573 1.7348,-6.028 M 11.5198,1076.05 v 0 l -0.9889,-0.9 -3.05892,0.01 -0.45526,1.34 0.14038,2.03 2.36884,0.32 1.97316,-1.87 M -198.503,948.86 v 0 l -3.532,-2.366 -9.406,-4.355 -1.539,0.358 -0.871,0.976 -0.118,1.027 0.467,1.482 1.255,1.249 6.153,2.242 11.278,6.238 5.667,4.763 -0.349,2.508 -4.312,4.303 -2.662,1.692 -4.327,4.523 2.327,2.323 6.662,-4.538 5.308,-5.284 2.358,-3.445 0.004,-1.116 -1.611,-3.665 -4.059,-4.06 m -5.642,203.325 v 0 l -2.02,-1.89 -1.661,-0.05 -1.689,2.37 0.324,0.51 4.321,4.31 6.683,2.69 2.053,-0.11 6.662,-2.62 4.63,-4.72 0.011,-5.08 -3.577,-5.64 -1.57,-1.62 -6.697,-9.65 0.13,-2.07 2.704,-3.79 8.417,-2.47 0.526,-0.71 -0.571,-0.75 -4.725,-1.72 -1.307,0.28 -4.376,2.4 -3.109,3.11 -2.55,5.67 2.554,4.69 10.14,13.29 v 2.06 l -2.661,2.75 -2.636,1.58 -1.06,0.13 -5.02,-0.14 M -79.9939,933.473 v 0 l 0.3138,1.252 0.9498,-1.476 1.5905,-3.689 -0.0044,-1.117 -1.8485,-2.92 -1.5348,-0.365 -1.3141,1.312 -0.0213,1.091 m 6.0177,325.949 v 0 l 1.402,-0.38 7.8847,2.74 2.4153,-0.37 -1.8903,-2.6 -6.408,-2.77 h -8.117 l -3.3591,1.83 0.0248,1.17 2.3652,1.69 2.0328,-1.62 0.3506,1.35 -4.1818,9.22 -7.66,22.74 0.0881,5.62 2.6699,2.12 3.6692,1.62 h 16.1207 l 7.1316,-1.82 1.7802,-1.03 1.3771,-1.49 -0.0143,-2.05 -0.3666,-0.31 -13.9697,2.83 -10.059,-0.13 -3.6662,-1.62 -0.626,-0.73 -0.0149,-5.08 3.5721,-8.15 1.7937,0.68 3.0035,-0.96 h 6.9901 l 7.998,1.84 3.3942,-1.81 -0.6417,-1.27 -6.6929,-1.83 -14.5299,-2.03 1.7596,-6.37 m 19.249,-251.05 v 0 l -5.22,3.22 -3.6613,3.76 -0.0108,9.08 2.5521,4.61 2.7559,1.7 6.0804,-0.01 1.6073,-0.92 3.3666,-4.09 4.5189,4.66 1.5059,0.33 -0.3243,-1.33 0.622,-1.03 -3.1408,-6.22 -3.5472,-8.69 0.0137,-2.09 0.6943,-0.94 -0.0016,-1.05 -0.5952,-0.71 -4.7347,-1.62 m 17.4695,432.33 v 0 l -0.8196,0.05 -0.145,-1.03 0.133,-11.02 6.6731,-4.77 5.6441,-2.54 1.3852,1.3 0.0108,4.08 -2.5735,4.63 -7.0985,7.1 m 27.82833,-92.79 v 0 l -1.88463,6.1 -1.8465,3.59 -3.3613,3.95 -3.3968,2.71 -1.0845,0.02 -3.7337,-2.68 -2.5733,-4.63 -0.1235,-1.06 0.12,-6.05 3.7276,-7.89 -0.011,-2.08 -1.3508,-1.27 -2.788,2.62 -3.5779,7.62 -0.1202,8.05 1.7366,4.73 4.0243,5.03 3.6666,1.62 h 2.1169 l 3.6695,-1.62 2.9377,-1.94 1.5492,-2.5 1.5926,-1.52 2.68428,6.6 1.02697,-0.89 1.85059,-6.44 -5.5e-4,-6.12 -1.64764,-5.7 L -8.5,1348.2 M 14.9999,949.457 v 0 l 0.1377,4.097 2.5735,4.629 3.0631,2.131 3.7296,1.535 4.7418,-1.618 3.073,-4.285 2.9657,4.758 1.5772,-2.151 0.0059,-3.114 -2.3623,-7.36 -1.4779,-3.546 -1.5,-1.375 -1.7259,0.554 -2.6338,12.591 -2.6675,1.535 -2.9706,-1.814 -2.3916,-3.47 0.0106,-6.08 1.6613,-1.759 5.6361,-3.577 2.0798,0.01 1.9744,0.821 1.4805,-0.467 0.8613,-0.975 -0.3397,-1.509 -1.976,-1.87 -5.0802,-0.01 -7.6118,4.555 -2.6965,4.753 M 5.70886,1141.25 v 0 l -0.18207,1.59 -5.021175,0.15 -1.310608,-0.31 -2.059817,-1.55 4.54676,-9.21 m -13.18545,329.2 v 0 l -2.8042,1.71 -1.5535,2.61 -0.1108,1.11 2.2805,2.21 1.768,-2.89 2.12608,-1.54 0.77313,0.17 0.87561,0.97 0.01074,11.08 -3.72406,7.9 -2e-4,2.1 2.36421,3.45 3.94373,2.86 10.08075,-0.01 1.18512,-1.15 -1.31195,-0.86 -8.79651,-2.65 -2.45416,-1.67 -0.0149,-3.08 2.73145,-6.88 -0.0144,-12.09 -4.3238,-4.31 M 10.5436,1141.04 v 0 l -3.70736,-9.49 -2.62964,-12.83 -0.68451,-0.57 H 1.47742 l -0.695438,0.59 -4.457212,14.49 -7.65187,16.52 -2.5385,6.69 0.023,2.09 1.3427,0.44 1.7469,-0.75 4.4853,-10.44 1.81055,-1.66 11.6463,1.88 1.98779,0.71 2.03986,3.03 1.723,5.81 1.5539,1.31 2.3477,-2.33 -1.706,-6.97 0.784,-3.61 -3.385,-1.92 M 92.8719,917.499 v 0 l -1.8641,-2.976 -2.0079,-0.459 -1.97,5.439 0.9961,1.997 1.2239,-0.199 2.014,5.164 1.5154,5.794 1.7481,1.563 2.3684,-1.69 -0.0281,-1.695 -1.6146,-5.951 -2.1152,-4.932 M -237.004,1526.47 v 0 l 1.502,0.51 2.056,-0.12 2.636,-1.58 7.098,-7.1 2.92,-5.73 1.659,-4.89 0.132,-2.06 -0.133,-3.06 -1.617,-3.67 -3.755,-2.61 -7.739,2.61 -2.78,2.73 -0.813,0.02 -0.148,-6.01 1.856,-8.95 0.115,-8.06 -0.483,-1.48 -1.975,-1.86 -1.72,0.54 -3.668,33.8 2.626,13.8 m 20.514,-237.1 v 0 l 4.933,-8.89 3.285,12.59 1.994,1.96 1.36,-1.33 0.018,-3.09 -3.615,-17.89 -0.954,-2.69 -1.754,-1.83 -1.764,0.71 -3.459,11.49 -3.035,5.95 -3.732,2.68 h -1.112 l -2.915,-1.84 -2.391,-3.47 -0.006,-4.11 2.838,-8.94 -0.99,-2 -1.505,-0.34 -0.724,0.62 -3.619,10.66 v 4.12 l 1.636,4.69 3.007,3 4.725,1.72 5.746,-1.74 m -2.206,270.25 v 0 l -1.892,1.99 -0.046,2.66 2.205,1.7 2.222,3.19 2.661,1.69 4.095,4.1 1.577,2.64 0.004,3.11 -1.617,3.66 -1.723,1.63 h -5.052 l -3.664,-2.57 -3.284,-3.13 -2.369,0.32 -0.009,3.06 3.667,3.76 3.737,1.92 4.944,1.64 5.681,-2.56 1.076,-1.07 2.609,-7.66 v -1.12 l -1.63,-4.69 -11.033,-11.26 1.305,-0.47 2.655,0.09 1.549,1.6 1.133,-1.18 0.015,-1.08 -1.723,-2.35 -5.629,-0.09 m 20.497,-351.47 v 0 l -0.136,-6.1 -1.825,-3.36 h -1.08 l -1.808,3.42 0.787,2.67 2.129,19.66 1.771,4.05 1.66,0.1 1.481,-0.48 0.818,-1 -0.898,-0.57 -0.775,-1.61 m 40.045,-688.87 v 0 l -0.021,3.073 0.588,0.692 18.77,2.771 4.055,-0.116 19.876,-3.74 8.121,0.004 8.7836,3.071 15.4993,2.777 2.7378,1.23 9.921,2.759 1.3038,-0.288 2.0913,-1.55 -0.0469,-1.657 -0.5357,-0.669 17.1935,-1.793 6.0556,0.115 29.4669,3.965 1.4161,0.761 1.3592,-0.173 2.1667,-2.134 -0.7407,-1.786 -2.8147,-0.786 -28.9224,-3.962 -11.9901,10e-4 -1.9772,0.837 -4.0261,0.148 -5.9966,-0.015 -3.0069,-0.97 -4.993,10e-4 -1.3386,0.455 -0.0068,1.056 1.6423,1.978 -2.2946,0.479 -6.5427,-2.955 -16.0593,-2.619 -7.4098,-2.396 -13.056,0.116 -12.945,2.856 h -13.986 l -8.945,-1.856 -2.058,-0.114 m -59.861,944.114 v 0 l 2.207,3.73 h 0.648 l 0.486,-1.36 -0.117,-5.06 -1.66,-4.89 -2.03,-4.02 0.666,-1 -10e-4,-1.06 -1.315,-1.31 h -1.054 l -1.467,0.87 -2.708,6.14 -5.097,5.33 1.273,1.35 h 2.052 l 5.19,-5.55 m 9.261,-57.78 v 0 l 2.919,-2.39 0.075,-0.58 -0.443,-1.39 -2.054,-0.01 -3.946,2.83 -4.813,4.83 -1.692,2.66 -1.528,1.33 -0.479,-1.3 -0.001,-7 0.97,-3 -0.134,-5.03 -1.324,-1.31 -1.724,0.55 -1.789,12.8 v 11.98 l 1.938,8.2 1.524,2.16 2.02,0.13 1.339,-0.45 -2.704,-6.97 0.017,-4.09 2.137,-2.28 1.43,-2.38 5.57,-5.62 m 26.853,-387.69 v 0 l 4.729,-6.4 2.694,0.03 12.619,2.99 2.764,7.44 0.876,1.32 1.679,0.1 1.344,-0.45 0.026,-4.09 -4.359,-23.33 -2.015,-9.028 -1.478,-4.551 -0.494,-0.382 h -2.046 l -0.724,0.627 -6.247,13.184 -6.217,10.22 -1.066,1.07 -3.143,1.7 0.07,1.58 0.673,1 -3.538,5.66 -1.785,1.61 -1.001,-0.6 -1.298,1.3 2.818,3 1.508,0.34 2.975,-2.86 m 100.9657,383.04 v 0 l 1.5091,0.47 0.874,0.98 v 2.06 l -1.6258,1.72 -3.6908,1.58 -1.0082,-0.68 -2.0538,0.01 -0.4562,2.34 0.4813,1.48 0.9763,0.87 5.0805,0.01 2.6358,-1.58 3.6614,-3.75 v -7.06 l -2.3251,-2.32 h -12.0526 l -2.7271,2.63 -2.6142,7.66 0.0053,5.11 3.5739,6.63 4.7645,5.67 h 3.0504 l 1.2728,-1.35 -1.0491,-1.28 -1.4683,-3.41 -2.5919,-1.65 -2.5522,-4.61 -0.0035,-7.11 1.6195,-3.66 0.7485,-0.58 1.9977,0.77 1.9737,-0.82 m 30.6721,-384.69 v 0 l -0.64,1.52 -0.9796,0.87 -2.0261,0.15 -2.0264,-0.15 -2.3251,-2.32 v -7.06 l 2.6613,-2.76 3.7168,-2.59 2.3405,4.32 0.1175,6.06 M 37,582.457 v 0 l -0.1346,5.102 -3.5776,7.625 -1.7617,1.667 h -3.0525 l -1.7585,-1.661 -1.5773,-2.636 0.3569,-2.355 2.0102,1.601 0.4789,-1.304 -0.1216,-3.05 -1.7245,-2.892 10e-5,-5.108 2.6722,-3.731 2.6349,-1.571 1.0839,0.014 4.3225,4.316 M -1.45032,1206.17 v 0 l -3.07647,-0.02 -6.28331,6.13 -2.6685,1.54 -0.5046,-1.32 0.1174,-2.06 1.7314,-3.88 0.1181,-2.06 -0.4813,-1.48 -0.9995,-0.82 -0.5161,0.33 -3.8526,10.91 0.0229,5.09 2.3969,0.33 5.63606,-3.58 3.0271,-2.97 2.20703,5.67 1.38367,-0.3 7.63709,-4.54 1.08484,0.03 0.45489,3.33 -0.8371,1.97 -0.13342,4.02 0.32318,1.34 1.01801,1.22 2.51324,-7.49 0.02881,-6.69 -2.34387,-1.73 -2.07978,0.01 -6.95257,4.67 -0.38178,-1.38 1.7259,-3.88 m 83.1813,-130.04 v 0 l -3.8694,-5.05 2.5339,-4.65 3.5977,-2.58 1.5525,2.21 0.0062,3.11 -2.572,6.61 -0.8022,0.63 m -15.7884,255.54 v 0 l -3.4188,-7.53 -3.0963,-4.1 -9.6624,-6.55 -1.5071,0.34 -0.8528,1.04 1.6012,4.15 0.7054,-0.53 1.0805,-0.02 6.7552,4.7 4.0076,7.9 4.548,12.7 0.1205,9.05 -1.7784,5.96 -2.8871,5.7 -4.566,1.62 -0.5519,0.73 2.2709,2.35 h 4.0528 l 2.7617,-2.67 2.0366,-3.95 2.541,-6.67 0.002,-12.12 m 35.3245,-156.72 v 0 l -5.632,-2.58 h -1.1207 l -3.6302,1.58 -1.5685,2.59 2.2321,1.51 2.0012,-1.67 2.0801,-0.01 2.636,1.57 2.832,2.82 5.185,10.02 1.66,4.89 0.002,8.12 -1.735,6.03 -1.632,3.38 -5.358,7.47 0.328,1.4 1.026,0.13 3.692,-1.69 3.098,-3.1 2.046,-3.98 2.652,-8.71 -0.12,-11.05 -7.578,-15.62 m 5.754,-147.34 v 0 l -0.885,0.99 0.629,1.78 13.123,3.74 3.962,31.45 0.107,4.47 -11.972,2.51 0.044,1.55 6.457,2.01 8.761,-1.77 0.717,-1.71 10e-4,-8.99 -2.972,-25.02 -0.096,-6.54 -5.414,-2.21 -10.942,-2.6 m -206.5643,50.33 v 0 l 1.5002,0.51 2.0647,-0.11 13.7312,-1.68 0.5539,-0.66 0.1328,-1.43 -14.9633,-2.2 -0.0021,-3.4 0.8276,-3.03 -0.6949,-0.94 -0.1331,-2.02 2.1097,-24.98 0.901,-3.48 12.471,-0.04 2.004,0.79 1.3504,-1.27 -5e-4,-2.05 -0.5513,-0.67 -18.8061,-1.8 -2.328,0.46 0.3327,1.51 1.3534,1.49 0.119,1.03 -2.9564,30.01 0.0015,11.99 m 36.8521,-143.075 v 0 l 0.6271,1.556 1.3549,1.49 0.0412,1.672 -6.3344,3.713 h -1.1123 l -2.6339,-1.571 -2.0095,-1.995 -2.7072,-14.188 -1.6221,0.049 -0.969,0.872 -0.1955,0.763 2.4938,14.504 4.0095,3.995 2.6359,1.577 h 3.1084 l 6.6299,-3.574 1.2882,-1.13 h 1.0552 l 3.2824,3.127 6.3802,4.43 3.6198,3.57 3.6627,2.556 1.0525,-0.011 -0.3244,-1.33 0.5986,-1.001 -3.5144,-4.689 -3.0947,-3.095 -2.3804,-1.43 -5.6608,-5.759 -0.011,-2.08 2.1087,-3.218 1.7392,-4.734 -0.1345,-3.021 -2.6614,-2.758 -2.6358,-1.577 -4.0507,-0.123 -1.4853,0.482 -2.303,2.313 -1.5775,2.636 -0.1227,2.047 m 3.161,598.957 v 0 l 0.3243,2.35 0.3367,-2.32 m 115.1214,-63.96 v 0 l 2.9376,-2.39 -0.3683,-1.97 -3.0542,-0.01 -2.3245,2.32 0.3233,2.37 m -148.6177,15.62 v 0 l 0.6398,1.52 1.042,0.85 9.4088,-2.87 0.0362,-0.45 -3.4233,-2.38 -1.0577,-0.1 -6.7595,1.75 -0.5377,0.72 M -50.4628,457.162 v 0 l -2.0359,-0.96 -0.5035,0.322 -2.7092,4.659 -3.0009,3.113 1.3731,1.536 -4.9875,11.913 -5.541,15.694 0.0018,7.12 1.5514,3.667 4.0257,6.957 3.7624,3.668 4.054,-0.009 0.3141,-1.37 -4.1305,-4.288 -3.9006,-6.759 -1.665,-4.929 2.3301,-9.371 8.8597,-22.897 2.4988,-7.7 m -0.8559,1039.992 v 0 l 2.4939,-2.36 h 1.0566 l 0.4544,1.34 -0.1177,2.06 -4.5787,9.63 -2.7869,3.61 -1.69,-2.38 -1.5861,-4.74 2.083,-1.51 1.6703,-2.64 m 69.0645,-243.07 v 0 l -2.2173,4.83 -1.6811,7.21 2.478,10.71 2.0549,6.02 5.3014,10.24 4.8322,4.81 2.636,1.58 3.0763,-0.02 0.1531,-0.63 -1.3675,-2.38 -2.6153,-1.66 -1.6696,-2.64 -2.3112,-2.35 -4.2193,-8.21 -1.8685,-4.8 -2.4933,-10.61 0.0036,-3.12 2.6172,-6.66 3.4802,-4.53 1.6014,-4.72 -1.3328,-0.5 -1.5081,0.49 m -2.7825,-25 v 0 l 0.593,-0.03 m -8.51798,143.69 v 0 l 2.56528,-7.78 3.0124,-6.85 -0.0108,-3.08 -1.3716,-1.34 -2.7967,4.59 -3.5519,10.72 0.02631,4.09 1.36707,0.31 M 18.5266,1224.79 v 0 l -0.4928,-1.28 0.4662,-1.31 0.4673,1.3 m -129.3933,258.35 v 0 l -2.097,0.29 -1.275,1.36 4.298,3.3 3.31,-3.09 2.46,-1.46 2.029,4.46 2.4325,-5.92 2.7134,-1.65 1.8042,0.56 1.5793,-3.17 -1.328,-1.33 -2.0002,0.77 -1.3348,-0.44 0.1473,-1.33 1.5436,-2.65 -0.354,-1.53 -1.9751,-1.86 h -1.0514 l -0.7048,0.59 -2.538,6.5 -8.198,1.83 0.034,0.92 3.622,1.77 M -304.716,971.178 v 0 l -2.1,2.11 -3.894,2.421 2.184,2.142 2.08,0.011 2.636,-1.577 3.098,-3.101 2.221,-4.217 2.357,-5.409 0.001,-10.119 -1.661,-4.887 -1.918,-3.737 -4.098,-4.1 -4.663,-3.557 h -1.055 l -1.323,1.316 -10e-4,2.052 0.649,0.971 -0.492,0.733 4.159,1.739 2.823,2.846 1.797,3.493 1.785,7.13 -0.002,3.122 -1.66,4.887 m 90.773,390.073 v 0 l -0.951,-0.02 -0.881,0.97 -0.046,2.66 2.67,2.12 3.669,1.62 10.113,-0.01 3.486,-1.91 1.825,-3.39 0.106,-1.06 -1.838,-7.09 -1.846,-3.6 -2.572,-2.62 -2.567,-3.66 -0.133,-1.03 0.133,-4.03 0.926,-1.6 2.372,-1.73 2.08,0.01 0.947,0.69 h 1.054 l 1.338,-1.35 -2.311,-2.35 -4.113,-0.01 -3.624,1.58 -1.803,4.8 0.124,6.04 1.577,2.64 4.534,4.58 1.617,3.67 0.032,5.69 -2.344,1.73 -6.048,0.13 -4.732,-1.68 M -462.293,972.161 v 0 l 0.76,0.69 h 2.059 l 1.759,-1.661 2.007,-3.012 3.938,-7.868 3.482,7.875 3.494,2.49 0.591,-0.174 -2.639,-2.974 0.677,-2.066 -1.095,-4.769 -3.335,-23.742 -1.483,-4.082 -2.231,-1.627 -1.546,2.203 -0.008,1.118 2.732,9.876 -0.001,9.122 -4.55,11.694 -2.548,4.436 -1.637,-4.13 0.005,-7.115 1.554,-2.611 2.623,-1.596 1.366,1.48 0.17,-2.244 -1.325,-1.326 -4.05,10e-4 -1.79,2.625 -1.552,3.667 -0.12,6.053 m 22.485,-312.632 v 0 l -6.35,-5.338 v -2.05 l 2.136,-2.284 1.577,-2.636 -0.011,-6.081 -4.325,-4.325 -5.08,-0.011 -2.636,1.578 -2.099,2.101 -2.573,4.63 -0.124,1.059 0.12,11.053 2.587,6.634 1.124,1.693 2.135,-0.382 0.862,-0.974 0.018,-1.088 -2.729,-8.88 0.003,-6.12 2.553,-5.599 2.784,-1.665 1.662,0.897 1.709,2.433 -1.593,3.718 -1.274,1.274 -1.503,-0.321 -2.37,1.689 v 2.266 l 2.206,1.701 1.669,2.638 3.833,3.813 9.662,6.538 1.379,-1.297 v -2.052 l -3.868,-3.976 m -57.185,911.762 v 0 l 0.7,0.54 0.339,-0.28 0.148,-4.02 -0.784,-2 0.622,-1.03 -1.538,-2.66 -2.759,-2.66 -6.023,-0.14 -3.03,0.83 -1.976,-0.83 -5.051,0.13 -2.636,1.58 -5.098,5.1 -3.578,7.62 0.015,4.09 3.667,3.76 4.63,2.57 7.05,0.12 3.004,-0.95 3.004,0.95 2.022,-0.13 0.947,-0.69 2.001,0.69 2.05,-0.01 -0.3,-1.09 -5.401,-2.46 -1.044,-1.03 -1.644,-6.82 1.757,-7.13 1.552,-2.29 3.082,0.13 1.772,1.68 m 48.422,-729.645 v 0 l 3.117,2.145 14.604,4.53 1.089,-0.026 0.368,-2.967 -2.651,-2.096 -9.923,-2.765 16.665,-2.423 -0.764,-1.83 -3.666,-1.619 -8.056,-0.119 -1.976,0.827 -1.328,-0.337 3.611,-4.79 3.012,-2.007 5.649,-2.694 0.498,-1.514 -0.467,-1.48 -1.029,-0.842 -5.7,2.575 -3.245,2.224 -11.37,11.494 0.155,1.331 m 152.54,2.742 v 0 l 0.999,-2.019 0.198,-2.496 8.119,-2.728 1.59,-0.988 -1.626,-2.211 -5.63,-0.087 -2.009,0.785 -0.332,-0.276 -0.014,-3.05 0.837,-1.978 -0.001,-8.992 -0.453,-1.345 -1.105,-0.14 -1.643,5.118 -1.769,11.37 0.135,9.019 1.351,1.273 m 291.7078,462.881 v 0 l -6.3394,-2.76 -1.7303,-2.37 0.0104,-6.08 1.6055,-1.7 4.7141,-1.75 0.3805,-0.5 0.047,-1.65 -2.3423,-1.73 h -2.1074 l -2.6362,1.58 -2.0986,2.1 -2.5733,4.63 -0.0035,4.11 1.6189,3.67 2.0672,3.06 12.68241,2.68 1.29761,-0.47 -0.81788,-1 -2.69305,-2.21 m 15.38684,112.02 v 0 l 3.76477,1.56 4.0556,0.13 1.6624,-0.11 1.5484,-1.6 1.7925,1.51 1.3509,-1.27 0.1179,-1.03 -0.4667,-1.48 -1.0299,-1.04 -2.9182,-1.84 -5.60869,-0.22 -2.43188,-2.9 -0.64368,0.09 -2.34601,2.74 -2.49383,0.2 -2.501651,6.87 -3.390319,6.53 0.01947,2.08 1.34265,0.44 1.782716,-0.78 M 29.5272,1020 v 0 l -0.4961,1.49 0.4412,1.35 2.0536,0.01 1.3249,-1.32 -0.3233,-2.37 -2.0531,-0.01 m -10.4963,208.37 v 0 l 1.2707,-1.29 1.6168,-3.67 -0.0145,-3.09 -2.325,-2.32 h -3.0524 l -1.6074,0.92 -2.718,3.4 -4e-4,4.06 0.926,1.6 2.3723,1.73 2.0798,-0.01 m -523.009,399.99 v 0 l -0.501,-2.34 0.783,-2 -0.682,-1.56 2.583,-1.69 -1.172,-1.09 h -1.056 l -1.757,1.65 -1.577,2.64 -0.004,4.11 1.852,3.91 1.518,0.51 2.055,-0.11 3.669,-1.62 4.27,-3.25 3.364,-5.45 v -3.1 l -1.731,-2.32 -1.36,0.62 -2.847,7.38 -5.37,3.73 m 5.613,-80.37 v 0 l 1.078,-0.26 1.616,-3.67 -0.019,-1.09 -1.135,-1.29 -2.664,-5.1 -1.173,0.03 -1.713,2.4 1.92,4.64 1.821,1.7 M 15.5494,1021.16 v 0 l -2.3843,0.31 0.3322,1.51 0.9765,0.87 2.3611,-0.32 -0.332,-1.51 M -215.457,958 v 0 l -8.106,-0.129 -18.102,-2.646 -4.841,-1.211 -4.022,0.143 -0.443,1.39 2.024,1.932 1.768,0.858 7.088,1.839 27.574,2.915 3.019,0.879 1.478,-0.468 0.869,-0.974 0.041,-1.672 -4.336,-2.718 m -19.099,544.012 v 0 l 3.991,-2.01 2.535,0.36 0.87,0.97 0.134,1.03 -0.119,6.06 -2.574,5.62 -2.007,3.01 -4.095,4.09 -2.504,1.48 -2.552,-5.2 0.015,-8.09 2.566,-3.66 M 4.23206,606.226 v 0 l 0.48767,-0.519 -2.16651,-1.569 -1.05902,-0.123 -2.020445,0.133 -1.977535,0.837 -7.02265,-0.134 -2.31537,-2.322 0.1546,-1.331 1.664,-2.67 3.49689,-3.38 2.65876,-0.25 1.7232,-2.344 -0.60998,-1.783 -4.56635,-1.618 -3.54152,-6.599 -0.1236,-1.06 0.1342,-4.02 2.5665,-3.664 6.1269,-6.283 -0.86206,-2.03 -1.50757,-0.339 -7.76097,7.658 -2.5736,4.63 v 6.108 l 3.5739,6.63 1.1305,1.288 -10e-5,1.055 -3.1352,3.296 -2.5671,5.616 v 1.121 l 1.6106,3.665 3.6954,2.637 h 9.10823 M -18.1153,1406.51 v 0 l -3.7504,-12.95 -0.1182,-2.06 0.8355,-1.97 -8e-4,-2.06 -1.3235,-1.31 h -1.0548 l -2.7222,2.61 -1.7447,3.72 -3.7207,5.7 -5.1753,3.67 0.0493,1.67 1.3449,0.45 2.0503,-0.12 2.6358,-1.58 3.0949,-3.09 2.014,-2.9 3.5068,10.11 2.9114,4.79 0.7576,0.65 1.3599,-0.31 -0.687,-2 M 32.285,1150.52 v 0 l -1.2712,4.99 0.0022,3.99 0.4789,1.3 1.7387,-1.56 2.7524,-10.75 -0.1437,-5.02 -1.3662,-0.31 -0.6875,0.57 m -530.9436,422.78 v 0 l -1.368,-0.35 -0.319,0.31 -0.144,8.02 1.944,4.4 0.522,-0.02 1.371,-1.34 0.119,-1.03 m 463.2823,-408.79 v 0 l 2.2758,0.13 0.3221,-2.36 -3.0406,-2.2 -5.0946,-5.09 -3.0295,-4.96 -1.6715,-4.74 0.1172,-14.05 1.7352,-6.03 1.8242,-3.57 6.1505,-4.32 -0.3387,-1.5 -2.0025,-1.82 -6.6656,4.49 -2.9406,4.73 -1.8798,7.09 4e-4,17.98 3.6972,7.69 7.0632,7.07 M -436,607.457 v 0 l 0.149,10.069 1.323,1.316 h 1.055 l 2.227,-2.074 4.685,-1.636 2.057,-0.116 1.978,0.836 3.02,0.134 4.731,-1.737 4.06,-4.059 2.007,-3.012 2.574,-5.62 -0.004,-10.112 -1.938,-3.578 -2.737,-2.154 -3.425,-1.771 -7.687,-2.017 0.977,-2.23 1.797,-7.181 -1.926,-3.647 -2.369,-1.73 -2.08,0.011 -2.763,2.667 -2.959,4.959 -2.029,5.77 -2.709,13.962 m 421.0075,493.963 v 0 l 0.4746,1.39 0.6564,-0.01 1.1347,-1.68 3.58029,-11.61 -0.01629,-4.09 -1.348,-1.27 -0.7205,0.54 -3.6506,13.7 m 24.87,-61.91 v 0 l -1.49594,-0.5 -1.34881,0.44 -0.00855,2.06 1.32373,1.31 1.50708,-0.34 0.86239,-0.97 M -451.296,769.7 v 0 l -0.545,-0.168 -0.145,-3.026 1.853,-5.946 0.117,-6.056 -0.456,-1.347 -2.051,-0.008 -0.696,0.593 -3.094,13.711 -2.543,14.044 2.6,8.717 1.73,1.637 1.029,0.134 3.051,-0.123 2.636,-1.577 2.832,-2.813 2.297,-4.212 1.667,-4.766 -10e-4,-6.991 -0.795,-1.786 -2.634,-1.573 -1.119,-0.008 m -1.622,-62.857 v 0 l -2.104,-2.096 -2.573,-4.629 -0.108,-1.056 0.466,-1.478 3.366,-5.466 -0.011,-2.08 -3.325,-3.325 h -2.052 l -4.762,4.666 -2.031,3.925 -1.547,3.701 0.004,5.113 2.86,3.944 3.447,2.358 1.562,-0.379 1.707,-2.186 3.061,2.958 3.691,1.58 1.385,-1.303 -10e-4,-2.05 m -2.803,76.971 v 0 l -3.521,3.404 h -2.052 l -0.977,-0.87 -0.482,-1.484 0.133,-8.023 2.544,-3.64 2.754,-1.696 4.082,0.019 0.456,1.346 -0.118,4.056 m 16.956,-313.275 v 0 l -1.295,-1.126 -1.052,10e-4 -2.472,3.316 -1.8,0.019 0.537,0.723 7.733,2.762 4.812,4.831 2.964,3.965 1.737,4.731 -0.12,3.053 -3.54,9.697 -2.014,4.965 -4.174,7.225 0.019,4.082 1.343,0.44 1.787,-0.785 2.999,-4.997 4.04,-8.93 3.54,-9.697 0.12,-7.053 -2.697,-5.69 -3.574,-3.626 -1.43,-2.38 -3.101,-3.099 m 107.977,478.839 v 0 l -0.295,-4.109 -1.546,-3.7 -3.034,-5.925 -0.761,-0.657 -1.052,-10e-4 -2.302,2.376 1.58,3.691 1.547,1.605 0.887,1.736 2.519,6.603 0.771,0.672 1.052,10e-4 1.272,-1.341 m 210.751,334.669 v 0 l -8.047,-0.16 -3.007,0.97 -4.989,0.01 -10.439,-2.07 6.742,-7.21 2.662,-1.69 2.344,-2.31 4.076,-2.57 -0.049,-2.67 -2.339,-0.45 -1.486,0.48 -1.828,1.78 -2.38,1.43 -3.62,3.57 -2.38,1.43 -4.095,4.1 -2.217,3.19 -3.806,2.83 -1.515,2.64 1.633,1.81 5.38,3.44 1.626,1.57 6.368,3.42 2.29,2.14 2.022,0.13 1.485,-0.48 0.884,-1.01 v -0.62 l -3.675,-3.16 -10.379,-6.43 -0.61,-0.79 0.272,-0.32 11.034,1.82 h 9.986 l 7.775,-1.78 0.7,-1.71 M -453.98,897.48 v 0 l -4.871,4.994 0.008,3.052 0.977,0.546 2.682,3.216 7.625,3.577 h 3.117 l 3.353,-1.766 -3.457,-2.299 -7.586,-2.877 -1.691,-2.402 1.385,-0.385 6.944,1.85 6.99,-0.002 1.346,-0.456 0.008,-2.051 -0.593,-0.697 -10.949,-2.564 7.194,-6.235 0.34,-1.509 -0.339,-0.452 -0.974,-0.862 -1.084,-0.015 -4.629,2.568 -2.626,2.574 M -308.148,818.5 v 0 l -2.662,-2.785 -12.499,-7.475 -1.547,2.205 0.379,1.562 11.337,6.852 -1.575,3.331 -4.57,5.62 -1.577,2.635 -0.122,3.051 0.456,1.346 2.051,0.008 0.724,-0.625 3.468,-6.415 1.57,-1.62 2.789,-4.338 1.822,-1.706 m 280.9443,256.374 v 0 l -1.3613,-0.37 -5.2935,4.14 -6.6307,3.57 -1.8392,-0.57 -1.5376,2.18 1.2959,1.38 2.0846,0.02 9.9201,-4.69 0.505,2.32 -0.8358,1.97 6e-4,4.06 1.8173,1.38 1.9026,-5.35 M -457.021,501.468 v 0 l -0.831,2.007 -0.014,2.083 2.349,5.373 1.993,2.92 3.02,0.134 1.484,-0.481 3.33,-2.342 3.88,-6.738 1.678,-4.864 -0.002,-3.119 -1.616,-3.666 -1.025,-1.025 -3.666,-1.611 -1.088,0.019 -3.496,3.341 -0.813,0.025 -0.032,-5.086 1.856,-7.945 -0.135,-9.02 -1.324,-1.315 -1.734,0.568 -3.663,20.712 m -28.658,473.524 v 0 l 1.506,-0.456 2.307,-2.316 1.43,-2.38 3.79,-3.611 0.355,1.36 -2.722,5.887 0.024,3.078 0.813,-0.025 3.31,-3.309 1.577,-2.636 0.124,-1.06 -0.135,-6.021 -0.87,-0.976 -1.485,-0.481 -2.022,0.132 -3.974,3.651 -0.973,-0.642 -1.054,10e-4 -1.501,1.375 -1.958,4.973 0.143,3.021 M -476.457,821 v 0 l -2.48,-0.036 -2.701,-10.057 -1.354,-2.382 -1.139,-0.391 -1.725,2.31 v 1.112 l 1.718,2.89 0.095,5.51 -5.912,2.087 0.106,1.486 1.323,1.322 4.456,0.18 2.835,12.205 0.711,0.605 1.504,-0.338 0.871,-0.977 10e-4,-3.052 -0.837,-1.978 0.008,-5.41 11.44,-2.064 0.334,-0.526 -2.271,-2.348 m 33.013,-272.133 v 0 l -18.327,-1.99 -4.712,-0.996 -9.002,1.83 -11.005,-1.845 -3.019,0.134 -1.978,0.837 -17.989,10e-4 -5.848,-1.096 -16.166,-1.876 -9.99,10e-4 -3.007,0.97 -7.989,10e-4 -7.832,-1.769 -1.531,2.229 0.377,1.558 1.573,0.948 11.413,2.034 4.019,-0.134 1.977,-0.837 20.99,-10e-4 4.45,0.958 20.564,2.014 3.019,-0.134 1.977,-0.837 h 7.993 l 3.007,0.97 5.997,0.015 3.026,-0.148 1.977,-0.837 4.99,-10e-4 6.945,1.85 3.065,-0.849 5.058,0.116 6.945,1.855 5.99,-10e-4 3.007,-0.97 7.99,-10e-4 16.014,1.972 9.021,-0.143 0.435,-2.784 -13.4,-2.924 -2.037,0.717 -3.026,0.147 -2.026,-0.147 -1.978,-0.837 h -14.993 l -3.003,0.954 M -201,1573.46 v 0 l 0.149,3.07 2.566,3.66 3.038,3.04 6.417,2.47 1.357,1.12 2.338,-1.69 -0.365,-1.11 -1.316,-1.31 -6.656,-3.69 -1.813,-1.83 -1.577,-2.64 -0.124,-1.06 0.12,-4.05 3.617,-8.66 3.721,-3.62 1.37,0.31 0.023,2.09 -2.726,6.88 0.019,1.09 1.314,1.31 h 1.055 l 1.766,-1.66 1.021,-1.95 1.552,-3.67 0.119,-5.06 -0.483,-1.48 -1.976,-1.87 -4.085,-0.02 -3.632,1.59 -3.058,4.06 -3.617,8.66 m 9.828,-153.97 v 0 l -0.455,1.51 -1.317,1.3 -3.322,1.8 -1.69,2.39 1.296,1.38 3.08,0.01 2.636,-1.58 2.099,-2.1 2.567,-4.62 -0.169,-1.36 -1.402,-2.39 -2.101,-2.1 -4.628,-2.57 h -1.116 l -5.746,2.69 -4.028,6.97 -2.534,7.64 0.002,8.12 1.95,4.58 4.362,2.72 3.08,-0.01 0.974,-0.65 0.973,0.64 h 1.054 l 1.335,-1.35 -1.312,-1.55 -6.01,-1.91 -0.755,-0.76 -1.639,-6.77 2.644,-8.92 1.922,-3.77 2.762,-2.66 2.08,-0.01 2.635,1.58 0.663,0.76 m 9.011,-142.98 v 0 l -0.717,0.97 0.012,2.06 0.998,0.56 1.122,1.71 4.799,14.33 2.395,1.69 4.718,-3.54 6.81,-6.78 6.822,-8.03 -1.69,-2.37 -1.66,0.05 -2.757,2.66 -1.692,2.66 -9.52,9.33 -0.731,-0.56 -2.264,-7.17 -2.217,-5.25 -2.766,-3.66 -1.376,0.31 M -561.017,726.551 v 0 l 0.82,-0.223 4.38,2.385 0.658,0.762 v 1.05 l -3.287,2.337 -5.076,-0.025 -0.148,-0.643 m 16.648,-229.726 v 0 l -0.963,3.035 0.115,4.059 1.786,7.13 1.797,3.493 3.097,3.1 3.004,2.002 9.988,5.049 7.637,2.531 8.123,0.002 7.163,-1.673 9.524,-2.968 2.459,-1.944 -0.506,-0.786 0.598,-1.004 -0.276,-0.332 -2.017,-0.147 -10.697,2.622 -3.251,1.228 -13.118,10e-4 -11.406,-5.36 -5.201,-3.198 -2.081,-3.08 -1.619,-3.669 -0.118,-8.056 0.514,-1.336 4.908,1.695 1.126,0.003 13.682,-3.634 4.039,-4.041 2.007,-3.012 4.574,-10.619 0.133,-4.059 -0.137,-2.054 -2.553,-4.608 -2.082,-1.153 -3.668,-1.551 -5.053,-0.12 -6.73,2.736 -0.8,0.78 -4.691,7.66 -1.573,1.626 -5.465,11.408 -0.721,0.626 -1.659,0.25 -1.705,2.4 1.7,2.945 m 67.14,354.082 v 0 l -1.5,-0.511 -2.056,0.121 -2.917,1.838 -2.391,3.471 v 2.108 l 1.577,2.636 5.136,5.284 10e-4,2.052 -0.926,1.607 -2.372,1.729 -5.08,-0.011 -1.23,-1.085 -4.227,-1.7 -3.869,-3.54 10e-4,-5.053 1.702,-1.947 0.118,-1.026 -0.798,-2.034 3.799,-9.968 -0.467,-1.478 -1.003,-0.819 -1.643,0.879 -2.172,3.667 -4.553,12.692 0.002,3.119 2.965,5.622 6.853,2.856 0.17,1.131 1.468,0.977 4.848,1.718 5.808,-1.631 3.605,-3.705 0.011,-5.081 -1.577,-2.635 -5.084,-5.31 0.887,-1.658 5.382,-2.833 0.025,-0.988 m -2.952,46.978 v 0 l -2.343,-0.494 0.785,-2.009 -0.001,-13.992 -0.455,-1.345 -1.755,-0.021 -2.809,17.805 -6.948,2.481 0.134,1.106 1.323,1.321 3.497,0.199 2.968,7.858 1.191,-0.015 1.692,-2.365 -0.674,-1.002 -0.01,-2.08 1.634,-2.698 7.693,-1.725 0.376,-0.5 -0.338,-1.503 -0.977,-0.872 m 314.457,48.391 v 0 l 0.032,-9.036 0.827,-3.031 -1.348,-1.335 -0.668,0.013 -1.952,5.636 -2.859,21.721 0.134,2.019 1.324,1.316 1.051,-10e-4 0.688,-0.573 1.573,-6.536 15.743,-15.755 2.662,-1.692 2.609,-2.785 -1.27,-1.342 -1.084,-0.015 -6.629,3.569 -11.321,11.088 -0.337,-1.327 m -6.608,125.687 v 0 l -4.481,-0.19 -2.067,-10.47 1.982,-16 -0.481,-1.48 -0.975,-0.87 -1.672,-0.04 -3.567,5.18 1.693,2.17 0.003,3.04 -0.837,1.97 -0.148,3.03 0.015,10 0.95,3.43 -7.956,2.49 0.02,1.51 8.963,2.49 -0.007,4.08 -0.837,1.97 0.001,2.06 1.323,1.31 h 1.055 l 2.324,-2.31 0.231,-8.58 5.801,-2.9 m 199.9462,-2.5 v 0 l 0.0232,-2.07 -1.3616,-1.35 h -0.6215 l -1.6916,2.34 1.296,1.38 m -548.9817,481.17 v 0 l 5.954,-3.88 2.05,-0.12 1.347,0.45 0.024,2.09 -1.853,5.95 10e-4,3.99 0.837,1.97 -10e-4,3.06 -1.39,1.31 -7.155,-1.79 -1.78,-1.03 -2.368,-2.49 1.523,-4.79 m 347.202,-357.24 v 0 l -1.749,3.94 0.004,4.11 2.936,4.58 2.698,2.12 3.701,1.58 0.378,-2.36 -1.985,-1.54 -2.149,-2.74 -1.579,-2.64 -0.004,-2.11 2.573,-5.62 3.311,-3.32 1.486,-0.48 2.338,0.45 0.02,2.08 -1.704,2.76 -5.382,2.44 -0.617,0.73 -0.001,1.05 1.315,1.32 2.021,0.13 3.696,-1.7 3.095,-3.09 1.577,-2.64 -0.011,-6.07 -3.295,-2.34 -5.981,1.67 -2.86,2 -3.578,4.67 M -560.342,680.235 v 0 l -1.433,-1.485 -3.666,-1.616 -5.692,-0.237 -1.729,-2.343 v -3.108 l 2.573,-4.63 4.099,-4.101 7.011,-5.245 -1.692,-2.335 -0.655,-0.007 -4.658,2.583 -4.832,4.788 -1.034,0.382 -1.866,-4.821 -1.896,-26.365 -0.663,-0.544 -1.571,-0.071 -1.783,3.386 0.814,2.037 0.015,13.997 -0.147,3.026 -0.686,1.011 2.819,7.968 -10e-4,6.991 -0.97,3.008 -10e-4,9.99 1.757,5.752 0.705,0.595 1.324,-0.336 -1.651,-1.979 -0.131,-3.071 2.428,-2.317 3.08,0.01 1.977,0.837 3.991,10e-4 m 7.976,-65.739 v 0 l 7.037,1.739 9.052,-0.121 5.618,-2.572 2.112,-2.11 2.573,-4.629 v -7.108 l -3.577,-5.636 -7.57,-8.62 -1.577,-2.636 0.011,-2.08 2.626,-2.723 3.698,-1.58 0.37,1.356 -0.642,0.974 1.085,1.207 3.216,-3.727 0.34,-1.509 -2.316,-2.324 -3.085,-0.014 -5.618,2.573 -4.674,4.767 -0.134,2.02 2.696,5.689 4.574,4.627 1.692,2.662 2.312,2.344 2.573,4.63 v 4.108 l -2.391,3.47 -2.917,1.838 -12.048,0.124 -5.946,-1.853 -2.086,0.016 -1.323,1.323 -0.037,1.681 m 4.03,145.267 v 0 l 0.005,3.107 2.568,3.662 1.2,0.801 3.069,19.517 -10e-4,27.989 -0.837,1.978 -0.148,3.026 0.148,3.026 0.822,1.971 -1.019,4.862 -2.857,30.4 -3.985,28.528 -2.094,8.219 2.984,19.994 -0.014,19.996 -0.954,3.004 0.954,3.004 10e-4,8.989 -1.971,10.014 0.133,2.019 0.837,1.977 0.015,6.997 -0.986,6.993 2.774,19.78 16.65,2.597 3.058,0.11 1.486,-0.48 1.518,-1.525 -0.494,-1.899 -8.444,-1.946 -8.764,-0.26 -2.668,-10.308 -0.116,-27.056 1.855,-10.07 -2.045,-43.783 -0.81,-3.16 -0.013,-5.993 2.248,-12.32 4.682,-39.07 0.934,-4.547 -0.717,-2.037 -0.134,-4.02 1.855,-6.945 0.116,-4.057 -0.852,-3.067 1.706,-9.896 -0.824,-2.045 -0.014,-4.996 0.147,-2.026 0.704,-0.948 0.019,-3.089 -3.662,-29.491 -2.077,-8.386 -0.131,-3.06 5.156,-33.573 1.829,-18.434 -10e-4,-2.99 -0.837,-1.977 -0.134,-4.019 1.74,-41.259 4.749,1.722 2,-0.989 0.466,-1.481 -0.709,-1.718 -7.149,-2.246 -2.583,-1.359 -2.37,2.296 0.827,3.031 10e-4,32.989 -3.143,39.914 -0.739,1.456 -6.989,-3.82 1.629,-2.266 4.769,-1.755 -0.321,-0.303 -2.638,-1.581 -1.054,-0.108 -3.972,1.793 -2.001,-1.665 h -1.054 l -1.766,1.665 -2.457,5.401 -5.275,5.275 -0.812,0.025 -0.131,-1.024 0.81,-3.028 -1.351,-1.337 -0.622,-10e-4 -4.376,5.665 -0.461,-1.299 0.767,-2.004 -1.09,0.328 -2.575,5.617 0.015,3.085 1.351,1.273 4.013,-3.984 2.197,2.894 5.586,-5.42 3.548,6.597 2.682,-0.034 0.947,-0.695 2.001,0.695 2.084,0.013 3.667,-1.616 2.28,-2.05 0.333,0.277 0.031,4.086 -2.635,14.238 m 29.787,887.67 v 0 l 0.472,1.51 0.98,0.86 1.547,-0.37 4.072,-13.63 9.603,-5.09 -3.2,-1.6 -4.965,1.68 -0.367,-0.31 2.704,-21.96 -0.185,-1.37 -1.551,-2.06 -1.332,0.59 -2.372,16.44 -2.148,10.03 -3.165,1.77 0.411,1.05 2.251,1.67 -2.642,7.76 m 108.988,-987.938 v 0 l 4.59,-9.686 1.762,-1.668 4.08,-0.01 2.728,1.671 1.578,3.63 0.003,1.123 -3.571,9.615 -1.366,1.956 -2.648,2.074 -7.241,1.852 -0.021,1.443 0.481,1.48 6.319,6.307 4.368,2.422 4.29,4.14 2.05,-0.014 -0.367,-1.31 0.642,-2.028 -0.299,-0.474 -4.316,-4.314 -4.368,-2.422 -1.614,-1.787 5.822,-4.031 3.227,-5.251 2.735,-8.726 -0.12,-4.053 -1.617,-3.666 -2.024,-2.025 -3.666,-1.616 -6.113,0.004 -3.448,2.364 -2.513,3.565 -2.871,7.754 -2.6,12.686 0.124,13.047 1.839,2.918 1.523,1.327 0.475,-0.3 1.867,-1.972 -0.34,-1.508 -1.353,-1.493 -0.148,-8.026 1.869,-10.938 m -56.203,907.638 v 0 l 0.193,1.35 -2.717,4.31 h -0.632 l -0.803,-0.68 -2.574,-5.62 0.015,-2.09 2.324,-2.31 h 1.052 m 47.193,-683.355 v 0 l -2.737,3.697 -1.51,0.332 -0.305,-0.304 0.15,-1.338 1.186,-2.191 2.517,-3.504 1.51,-0.332 0.313,0.307 0.009,2.054 m -44.389,705.434 v 0 l 7.716,3.75 4.325,3.09 0.36,-0.93 -2.145,-1.68 -1.69,-3.66 -1.803,-1.78 -3.718,-1.74 -3.348,-2.49 0.337,-1.5 1.818,-2.8 2.542,-5.67 -0.014,-1.08 -3.553,-5.65 -1.287,-1.32 -3.446,-2.36 h -1.112 l -2.634,1.57 -2.095,2.1 -1.577,2.64 -0.124,1.06 0.124,4.04 3.574,6.63 1.13,1.29 -10e-4,1.05 -0.658,0.77 -5.149,2.62 -3.034,-11.56 -0.813,-1.2 -1.029,0.32 -0.142,1.03 0.115,7.06 1.648,5.7 2.692,2.58 4.789,-1.52 4.184,-2.18 1.358,0.17 m 63.892,-974.511 v 0 l -2.447,5.427 -1.962,2.964 -2.759,2.661 -13.022,0.133 -1.347,-0.456 -0.143,-8.021 2.085,-13.446 1.372,0.781 1.088,0.018 3.882,-1.726 8.113,0.004 3.47,2.391 1.838,2.917 m -15.41,294.511 v 0 l 3.617,2.559 5.404,2.313 0.383,-1.384 -1.833,-2.917 -2.833,-2.813 -2.38,-1.43 -4.652,-4.758 0.34,-1.508 1.791,-1.836 2.573,-4.629 -0.011,-5.08 -2.325,-2.326 h -5.052 l -1.608,0.926 -2.152,2.74 -2.039,3.959 -2.541,6.668 0.014,8.085 3.326,3.325 2.022,0.132 1.346,-0.456 0.009,-2.053 -2.702,-2.948 0.008,-3.054 1.391,-0.443 5.262,5.256 m 42.308,18.207 v 0 l 1.865,4.976 1.544,0.374 1.324,-1.316 10e-4,-3.052 -0.837,-1.978 0.001,-3.992 0.479,-1.305 5.315,5.086 6.38,4.43 4.284,4.136 2.022,0.132 1.346,-0.456 0.009,-2.053 -0.852,-0.974 -4.809,-4.785 -2.662,-1.692 -7.326,-6.52 0.573,-0.749 6.415,-3.469 2.099,-2.101 2.573,-4.63 0.124,-6.049 -0.298,-1.307 -2.769,-4.342 -3.954,-2.364 -5.407,-2.358 -2.084,0.014 -1.607,0.926 -1.729,2.372 0.01,3.08 0.694,0.946 -0.012,1.053 -1.331,-0.325 -2.35,2.273 -10e-4,3.053 0.837,1.977 m 14.472,-203.505 v 0 l 2.063,-0.142 0.986,-0.657 0.332,0.277 0.031,4.086 -1.739,6.876 -0.114,4.058 0.455,1.339 1.056,0.007 1.705,-1.598 1.969,-7.356 2.666,-21.325 -0.365,-1.544 -2.002,-1.819 -1.743,1.568 -1.404,2.818 -1.83,-2.437 h -4.047 l -0.768,0.675 -2.574,5.617 0.004,5.113 2.88,3.948 m 231.177,-95.221 v 0 l -2.639,1.576 -1.398,-0.33 -0.026,-2.088 1.735,-4.879 0.118,-9.057 -0.483,-1.485 -1.527,-1.518 -1.172,0.212 -2.274,14.129 -4.395,18.595 1.634,5.81 2.042,2.039 3.664,2.566 3.08,0.011 7.918,-5.839 1.826,-1.853 2.57,-6.61 -0.006,-7.114 -1.838,-2.917 -3.47,-2.391 -4.08,0.01 m -25.723,433.172 v 0 l 0.233,3.18 -0.456,1.34 -4.09,0.03 -7.089,-1.85 -1.063,-0.71 9.246,-14.57 1.862,5.99 m 30.649,-410.278 v 0 l -2.853,2.833 -3.664,2.566 h -3.052 l -2.325,-2.325 -0.001,-5.052 5.545,-7.64 4.752,-2.69 1.536,0.353 1.87,1.977 0.011,7.08 M 22.8237,584.455 v 0 l -0.324,2.347 -0.3369,-2.325 M -471.838,792.45 v 0 l -0.031,8.111 1.763,6.016 1.085,1.896 1.521,1.326 1.351,-1.273 0.119,-1.023 -1.956,-6.009 10e-4,-5.991 0.827,-3.031 -1.316,-1.323 -1.026,-0.118 -1.48,0.466 m 53.524,-14.496 v 0 l -3.103,0.133 -3.667,1.552 -2.251,1.308 -0.365,1.533 1.316,1.324 2.084,0.014 6.417,-2.407 2.899,-1.938 -1.347,-1.371 m 2.97,-80.003 v 0 l 1.326,1.382 -1.538,2.662 -3.134,3.28 -0.088,1.528 10.121,4.714 1.657,1.759 0.019,1.088 -1.611,3.666 -2.097,2.087 -11.683,2.522 -0.453,-2.33 0.969,-3.008 10e-4,-7.99 -1.828,-8.035 0.916,-1.605 2.372,-1.728 m -12.443,880.332 v 0 l -2.135,0.43 -1.73,-2.35 -0.123,-9.05 0.837,-1.97 0.198,-2.5 5.437,-2.02 3.264,-2.24 4.719,-1.6 0.514,1.33 -0.118,5.06 -1.552,3.67 -3.029,4.96 M -377,729.543 v 0 l -0.131,-4.104 -1.735,-6.028 -2.846,-5.595 -1.098,-1.101 -2.662,-1.538 -4.813,4.633 -2.222,2.989 -0.336,-1.326 0.642,-0.973 -0.598,-1 0.599,-1.006 -1.846,-0.414 -1.819,3.362 -0.121,1.064 0.135,6.02 1.323,1.316 2.673,-0.923 4.57,-7.109 1.783,-1.608 2.03,2.902 1.468,4.997 1.977,17.362 1.554,0.379 1.324,-1.316 m 7.648,-107.388 v 0 l -2.351,2.336 -0.046,2.659 5.708,5.152 7.669,4.538 0.504,-1.327 -0.132,-2.022 -1.661,-1.759 -2.38,-1.43 -4.519,-4.575 3.265,-1.915 4.65,-1.527 1.617,-2.74 -0.325,-0.504 -0.972,-0.875 -2.087,-0.016 -4.864,1.677 m -22.074,322.318 v 0 l -5.678,2.578 -1.108,1.104 -3.566,4.664 -0.011,4.08 1.839,2.918 4.041,4.03 1.482,0.481 1.643,-0.091 3.571,-6.075 0.786,-0.613 0.786,0.613 3.426,6.367 3.793,3.616 0.479,-1.304 -0.118,-3.055 -4.36,-9.406 -3.329,-5.506 0.622,-1.03 -2.817,-3.001 m 196.164,478.922 v 0 l 0.378,2.59 8.248,6.24 3.669,1.62 9.083,-0.03 -0.538,-1.81 -10.164,-3.74 -2.632,-2.58 -2.667,-1.7 -0.365,-1.54 2.819,-3.94 2.833,-2.82 4.006,-3 9.505,-4.48 1.382,1.48 1.148,-1.18 v -2.06 l -1.325,-1.32 -5.08,-0.01 -8.632,4.57 -3.004,2.01 -5.095,5.09 -1.962,2.96 m 126.0853,-75.32 v 0 l 0.2958,3.11 2.5739,5.62 2.007,3.01 3.3587,3.94 4.7361,4.15 2.6351,1.58 1.3843,-0.39 -1.5827,-3.7 -1.9617,-2.96 -4.5698,-4.62 -2.0011,-3 -1.8473,-3.6 -1.8517,-7.1 0.1193,-2.05 1.5455,-3.7 6.033,-10.93 2.0022,-3 3.3003,-3.31 1.118,-0.57 1.7383,-2.4 -2.3482,-2.35 -0.6026,0.97 -4.2278,2.68 -10.2193,15.26 -2.3413,6.35 -0.1172,5.06 m -9.0368,209.02 v 0 l 1.5311,-1.39 h 0.6213 l 1.7245,2.31 -1.5351,4.82 -4.2976,8.21 -1.4964,1.38 -3.0541,-0.01 -0.4564,-1.34 0.0864,-7.63 M -471.466,729.98 v 0 l -3.724,-1.695 -4,-3 -3.661,-3.759 0.009,-2.054 1.405,-0.34 18.555,2.001 2.382,1.666 1.634,-0.874 1.624,-2.234 -2.571,-1.976 -3.293,-1.714 -9.772,-1.976 7.349,-3.012 0.38,-2.539 -1.385,-1.303 -9.694,3.504 -5.958,3.038 -4.947,3.361 -1.723,2.371 0.353,1.536 1.788,1.829 1.43,2.38 3.095,3.095 4.005,3.003 3.737,1.918 4.888,1.661 2.118,-0.002 3.667,-1.616 1.617,-1.722 -0.012,-1.052 -1.33,0.324 -2.004,-0.784 m -15.359,896.485 v 0 l 0.938,-1.63 3.427,-2.89 0.333,-1.51 -2.389,-0.33 -2.636,1.57 -2.499,3 -0.295,-2.21 0.969,-3 -0.134,-4.03 -1.351,-1.27 -2,1.82 0.369,4.54 -2.498,9.68 -2.236,6.2 0.36,2.36 2.755,-2.58 2.798,-6.26 3.423,-1.95 m 409.007,-49.99 v 0 l 1.8106,-1.84 2.96,-4.96 2.6169,-6.66 -0.0142,-6.09 -1.6614,-1.76 -2.635,-1.57 -1.084,0.02 -6.4957,6.34 -0.8128,0.02 -0.0328,-2.08 1.8564,-9.95 -2e-4,-6.98 -1.739,-4.74 -0.7224,-0.61 h -1.0519 l -1.324,1.31 -0.1334,1.03 0.1327,3.03 0.8369,1.97 0.0013,2.99 -2.9723,18.02 0.1241,11.04 2.3383,3.3 h 6.05 M -424.885,699.488 v 0 l 1.871,7.018 v 8.988 l -1.855,6.944 -0.115,2.058 0.481,1.484 0.977,0.871 2.019,0.134 10.474,-1.835 3.523,-1.142 2.7,-1.723 3.057,-4.057 1.619,-3.67 -0.004,-3.112 -2.678,-3.734 -6.367,-3.426 -0.615,-0.788 2.649,-2.972 0.133,-1.03 -0.122,-2.05 -1.548,-2.606 -4.82,-1.826 -5.048,0.124 -2.917,1.685 -1.002,-0.666 -1.054,10e-4 -1.324,1.316 M -459,1627.46 v 0 l 0.138,5.09 1.578,2.15 0.509,-0.45 1.642,-4.69 -0.001,-9.12 -1.852,-3.91 -1.518,-0.51 -2.05,0.12 -4.63,2.57 -4.316,4.09 -1.299,-1.3 0.598,-1 -0.299,-0.47 -0.998,-0.83 -0.503,0.32 -1.189,2.06 -1.678,4.86 0.025,4.09 2.976,0.37 6.677,-7.19 5.668,-3.53 0.506,1.32 m 64.187,-1017.953 v 0 l -0.307,-2.098 -1.555,-2.207 -2.205,1.625 -0.075,0.585 2.094,3.984 1.907,5.512 0.398,0.032 1.859,-0.797 2.424,-4.367 2.307,-2.319 1.482,-0.466 1.343,0.441 0.142,15.024 -0.837,1.978 -0.133,4.022 0.482,1.484 1.003,0.819 1.466,-0.813 1.902,-5.425 -0.016,-18.087 -0.926,-1.608 -2.372,-1.728 -3.048,-0.124 -3.696,1.701 -2.68,3.149 m 10.875,175.664 v 0 l 1.966,-7.028 -2.673,-7.67 -4.108,-4.115 -2.636,-1.578 h -3.108 l -2.636,1.578 -3.099,3.101 -2.573,4.63 v 10.108 l 1.577,2.636 2.095,2.095 2.962,1.962 3.669,1.619 2.053,0.119 3.816,-1.824 2.555,-4.61 M -374,635.543 v 0 l -0.149,-9.07 -1.351,-1.272 -2.352,2.273 -0.001,4.052 0.652,0.974 -0.784,2.003 0.123,7.051 2.146,3.15 1.383,-1.902 -0.636,-2.302 0.821,-1.974 m 113.698,924.634 v 0 l -18.047,-0.15 -3.007,0.97 -18.99,0.01 -6.945,-1.86 -6.106,-0.11 -2.311,2.42 0.015,1.08 0.553,0.68 16.726,2.67 11.055,0.12 30.813,-1.8 0.663,-1.69 -0.466,-1.48 -0.976,-0.86 -2.027,0.64 m 111.683,-976.26 v 0 l 0.314,-1.345 0.332,1.329 M -171,1146.46 v 0 l 0.138,5.09 3.574,6.63 3.306,3.32 1.485,0.48 4.051,-0.12 3.132,-2.07 -6.817,-1.87 -2.118,-2.7 -2.737,-7.73 0.118,-3.05 2.571,-6.61 2.164,-2.73 1.632,-0.08 1.335,0.45 0.026,1.09 -3.722,7.89 0.011,2.08 2.325,2.32 2.326,-0.34 -0.643,-0.98 -0.013,-1.09 2.175,-4.18 1.667,-4.77 -0.135,-4.02 -1.661,-1.75 -2.636,-1.58 -2.048,-0.12 -1.308,0.29 -3.223,2.22 -2.267,3.29 -2.574,5.62 m -10.385,197.03 v 0 l -1.618,5.97 -0.13,2.06 0.133,6.06 1.552,3.67 1.292,2.24 1.837,1.82 7.626,3.57 2.085,-0.02 1.453,-1.99 -8.163,-4.56 -1.109,-1.11 -2.573,-5.62 -0.119,-2.05 1.755,-8.06 1.666,-3.44 3.407,0.46 0.019,5.08 -1.724,2.9 0.019,3.08 1.37,0.31 1.618,-0.92 2.717,-4.37 -0.01,-7.08 -0.926,-1.6 -2.372,-1.73 -7.078,0.01 -1.821,2.72 m 96.1989,-396.365 v 0 l -3.3606,-2.348 -5.6701,2.55 -2.9568,2.367 -2.1133,2.698 -1.6189,3.669 v 7.118 l 1.5511,3.668 1.1523,2.081 4.6082,2.554 4.0819,-0.02 0.3146,-1.37 -0.8881,-1.516 -4.1107,-2.048 -1.1158,-1.684 -1.5935,-3.666 v -3.117 l 1.8378,-3.908 1.8377,-1.818 3.6952,-2.516 0.3326,0.277 0.0245,3.078 -3.7225,8.886 0.3315,1.394 1.51,-0.332 2.3071,-2.318 3.5738,-6.63 M -467.506,668.375 v 0 l 5.944,1.494 6.107,0.113 2.207,-2.269 -15.286,-4.035 -15.155,-2.473 5.499,-5.49 5.088,-3.582 -0.37,-2.976 -3.054,-0.009 -2.284,2.137 -2.38,1.43 -7.099,7.101 -2.573,4.63 v 3.108 l 2.678,3.734 9.736,4.919 4.888,1.66 2.541,-0.364 0.868,-0.974 0.067,-1.581 -9.144,-3.623 -5.956,-3.039 -0.666,-0.762 0.013,-2.048 0.809,0.022 0.734,0.699 m 93.83,-94.361 v 0 l -2.521,6.67 0.134,2.02 1.321,1.323 1.501,0.099 2.776,-8.162 0.728,-0.627 1.506,0.338 1.835,1.791 10.368,5.424 2.316,2.087 1.351,-1.273 v -2.052 l -2.661,-2.759 -8.895,-5.426 2.774,-1.806 5.155,-2.236 0.617,-0.723 -0.313,-1.367 -4.082,-0.019 -7.891,3.718 -1.085,-0.022 -0.333,-1.395 1.708,-4.928 -1.559,-2.22 -1.539,1.491 m 16.03,106.568 v 0 l 3.105,1.607 -0.004,0.559 -3.592,5.192 -1.137,-1.182 -0.119,-1.023 m -54.574,906.647 v 0 l 1.525,-0.65 1.304,-1.31 1.692,-2.66 3.308,-3.34 3.029,-4.97 1.552,-3.66 0.119,-8.06 -0.483,-1.48 -1.976,-1.87 -3.087,-0.02 -4.688,1.64 -5.957,3.91 -0.631,-0.16 -0.032,-3.08 2.854,-14.93 -1.738,-4.74 -0.719,-0.62 -1.434,-0.13 -2.655,19.08 -2.308,10.34 -0.117,13.05 1.701,3.7 2.759,2.66 2.08,0.01 m 17.301,-626.363 v 0 l -0.84,2.007 0.123,10.05 1.577,2.636 3.759,3.661 5.051,-0.01 0.339,-0.972 -4.149,-3.679 -2.566,-3.664 -0.119,-1.023 1.931,-13.9 1.744,-4.777 2.157,-3.272 -0.019,-4.082 -1.343,-0.441 -1.507,0.492 -3.285,5.299 -2.574,5.619 m 87.012,-8.897 v 0 l -0.614,-1.381 -1.724,0.539 -1.917,16.241 -1.419,-0.766 -2.337,1.692 0.365,1.114 3.398,2.884 0.087,4.629 -0.818,2.041 1.604,4.709 0.705,0.594 1.324,-0.335 -0.633,-1.042 1.701,-4.902 0.169,-3.502 7.427,-2.04 0.333,-0.523 -1.538,-1.717 -5.725,-1.763 -0.331,-0.519 0.782,-2.001 0.014,-10.996 -0.147,-2.026 M 24.8219,588.454 v 0 l -0.2899,1.381 -1.3665,-0.306 0.3054,-1.363 M -452.522,494.209 v 0 l 0.027,0.594 M -424.457,766 v 0 l -4.097,0.138 -2.311,1.731 0.365,1.114 2.039,1.854 11.37,-2.867 -0.72,-1.253 -2.66,-1.54 -1.003,0.675 m 376.6422,272.628 v 0 l 1.3258,0.5 5.06,-0.12 5.6701,-2.61 1.0279,-0.95 2.4571,4.88 0.7654,0.66 1.0541,-0.01 0.4555,-1.33 -0.1166,-5.06 -1.6384,-4.69 -1.3604,-0.62 -3.6908,4.16 -2.0439,1.05 -8.3939,2.44 -0.5843,0.7 M -388.453,782.837 v 0 l -3.044,0.147 -1.483,-0.481 -0.819,-1.003 0.598,-1 -2.088,-2.317 -2.567,-4.628 0.655,-2.055 -0.651,-0.974 10e-4,-2.052 5.325,-5.325 h 2.052 l 2.607,1.925 2.114,2.698 1.618,3.669 0.002,2.119 -1.661,4.887 m -4.684,52.574 v 0 l -4.332,-4.306 -2.662,-1.692 -3.425,-3.187 4.707,-4.121 8.662,-5.692 1.379,-1.497 -0.323,-2.369 -2.082,-0.019 -10.636,6.577 -2.62,2.57 -2.635,1.571 -2.055,-0.655 -1.495,0.826 -1.868,4.412 0.36,1.541 0.977,0.871 h 2.052 l 0.945,-0.693 1.084,-0.015 2.635,1.572 4,3 6.62,6.57 4.664,3.566 2.047,-0.015 0.308,-0.364 -1.58,-3.697 m 202.249,363.365 v 0 l -2.688,1.58 -7.095,6.09 -5.577,9.64 0.334,2.39 2.054,0.01 1.496,-1.38 4.693,-7.66 9.15,-8.68 -0.884,-1.63 m 167.2285,15.02 v 0 l 0.593,-0.03 M -84.5435,1504 v 0 l 4.1038,-0.13 4.1875,-1.6 -1.6143,-2.17 -11.6599,0.05 -1.2959,1.38 1.6896,2.37 M -45.306,944.795 v 0 l -3.4054,5.91 -2.151,-3.151 0.0109,-5.08 1.3252,-1.325 h 2.0524 l 2.3153,2.321 M -387.157,628.499 v 0 l -1.318,-1.35 -2.368,0.323 0.005,5.052 1.335,-0.322 0.751,0.497 1.614,-3.143 m 193.009,653.944 v 0 l -1.885,-2.44 -1.856,8.38 -0.114,4.06 0.479,1.3 1.754,-1.58 1.617,-3.66 m 3.175,219.92 v 0 l -0.884,0.99 10e-4,1.06 1.315,1.32 1.03,0.13 8.058,-0.11 5.185,-1.61 -1.613,-2.16 -0.588,-0.08 -11.041,-0.01 M -121.95,468.445 v 0 l -0.853,1.056 0.279,0.336 2.046,0.014 0.705,-0.545 2.644,17.131 0.114,8.059 -0.97,3.007 -0.001,15.991 1.703,3.695 0.758,0.652 1.052,10e-4 1.944,-1.684 1.088,-0.019 6.881,2.163 8.1238,1.564 8.2089,-1.817 5.4111,-2.761 4.1044,-4.104 3.5739,-6.63 0.1234,-4.049 -0.3003,-1.313 -2.6628,-4.665 -1.8384,-1.815 -5.9433,-3.401 2.1034,-4.138 2.6419,-9.68 -0.1184,-4.054 -1.6777,-4.864 -2.2638,-3.709 -2.7469,-2.157 -4.6651,-1.962 -5.9526,-1.616 -7.1205,0.003 -5.618,2.573 -4.323,4.092 -2.525,-2.299 -0.976,0.024 M -540.123,1608.5 v 0 l -2.236,5.22 -1.627,5.79 0.12,6.05 2.615,6.66 2.725,2.63 h 4.052 l 1.974,-0.82 3.025,0.8 -0.336,-1.11 -3.688,-2.52 -0.974,0.64 h -1.054 l -1.722,-1.62 -1.617,-3.66 -0.12,-8.05 2.735,-8.73 1.382,-0.65 1.731,2.32 0.137,2.05 -0.148,5.03 -1.673,2 1.689,2.37 2.147,-0.43 1.852,-3.91 v -8.12 l -1.617,-3.67 -2.723,-2.62 -2.08,-0.01 -2.636,1.57 -1.672,1.77 m 63.131,-1006.694 v 0 l -8.769,-1.784 -17.007,1.984 -5.017,-0.148 0.025,-0.813 9.315,-9.314 4.661,-2.704 0.374,-2.533 -1.385,-1.303 -3.692,1.515 -3.908,2.388 -9.155,9.742 -2.573,4.63 -0.004,8.113 1.617,3.666 3.065,3.064 4.63,2.573 7.115,0.005 9.617,-3.575 1.664,-1.765 -0.007,-1.056 -1.339,-0.455 -4.055,0.118 -9.933,2.718 -3.736,-1.606 -3.054,-2.055 -1.582,-3.63 -0.081,-1.536 8.536,-2.047 23.561,-2.059 2.382,-0.876 m -11.988,174.105 v 0 l -12.493,-3.172 0.085,-12.53 2.392,-3.268 2.637,1.515 1.546,2.016 1.129,-1.182 -0.34,-1.508 -2.312,-2.304 -2.636,-1.577 -2.08,0.011 -1.772,1.681 -2.57,6.609 -0.234,10.709 -1.762,2.341 3.133,2.305 2.395,7.404 3.048,5.986 1.76,1.658 1.057,-0.007 0.456,-2.329 -4.851,-10.948 0.024,-2.086 1.369,-0.314 1.976,0.827 7.993,-10e-4 1.304,-0.479 m 14.674,-257.542 v 0 l 1.503,-0.456 0.822,-1.007 -8.092,-8.323 -3.569,-7.623 -0.124,-1.06 0.12,-6.053 2.229,-6.173 2.279,-8.504 2.066,-4.942 3.143,-3.296 v -3.052 l -1.323,-1.324 -1.076,-0.122 -2.735,2.78 -3.034,4.996 -4.879,16.471 -1.775,8.225 1.887,8.192 1.797,3.493 3.421,2.889 2.641,3.176 m -58.272,1025.87 v 0 l -3.728,1.63 -3.275,3.05 -1.973,-1.64 -1.508,0.34 -7.304,7.31 -5.72,7.99 -3.776,-16.06 -0.695,-0.58 h -1.051 l -1.324,1.31 -0.018,3.09 2.854,15.95 -0.123,2.04 -1.685,2.92 1.044,1.27 1.56,5.52 0.761,0.63 2.254,-9.17 10.919,-14.91 2.79,-2.61 0.36,2.36 -1.731,3.88 -0.133,7.06 0.133,2.06 1.552,3.67 1.292,2.24 3.496,3.38 4.08,0.01 2.366,-1.67 -5.242,-2.04 -1.906,-2.9 -1.757,-5.76 0.115,-2.05 1.786,-7.13 1.797,-3.5 2.761,-2.66 h 3.052 l 1.325,1.32 10e-4,3.06 -0.704,0.94 -0.25,2.68 -1.796,1.7 0.055,2.68 1.347,0.45 2.02,-0.13 1.666,-2.43 1.678,-4.86 -0.006,-5.11 -2.672,-3.73 -2.635,-1.58 m 33.997,-576.093 v 0 l -1.841,-1.864 -2.573,-4.629 v -5.108 l 2.547,-4.162 0.3,3.212 -0.837,1.978 -0.046,2.658 2.343,1.724 1.534,-0.354 0.82,-1.002 -0.642,-0.973 v -1.055 l 0.828,-1.976 10e-4,-5.991 -0.303,-1.31 -1.55,-2.093 -2.629,-0.087 -1.486,0.482 -2.307,2.319 -2.573,4.63 -0.124,7.048 2.697,5.689 3.099,3.101 2.696,1.558 3.416,-1.725 m 21.53,-386.16 v 0 l 2.6,2.09 1.894,2.874 2.582,-0.078 0.455,-1.347 -0.121,-2.05 -1.554,-2.612 -2.498,-1.549 -4.652,-4.756 0.125,-1.3 1.583,-3.671 -0.004,-4.112 -2.391,-3.47 -2.917,-1.838 -4.077,0.011 -0.728,0.633 -1.11,3.028 -2.508,9.628 0.003,5.12 1.409,3.458 1.9,2.967 2.4,-0.455 0.023,-3.087 -1.732,-3.883 -0.119,-2.051 3.013,-10.454 0.4,-0.033 2.075,1 0.358,1.539 -1.579,3.632 -2.179,1.675 0.046,2.66 4.661,4.759 m 5.712,1041.505 v 0 l -0.027,-0.59 m 387.983,-350.99 v 0 l 0.0266,0.59 M -191.531,1497 v 0 l 5.97,1.87 2.057,0.11 3.004,-0.95 2.001,0.77 1.35,-1.27 0.118,-1.03 -0.679,-1.7 -12.793,-1.77 -1.478,0.47 -0.87,0.97 0.009,2.06 M 108.98,1288.47 v 0 l -1.849,6.97 -0.115,4.06 0.478,1.3 1.474,-0.82 2.901,-10.42 -0.018,-3.09 -1.324,-1.31 -1.37,0.31 m -574.16,-410.998 v 0 l 1.501,0.512 3.06,-0.12 2.024,-1.215 -4.738,-2.335 -2.693,-3.786 -0.122,-1.076 3.256,-3.262 3.004,-4.006 2.567,-4.629 -0.353,-1.535 -0.977,-0.872 -4.08,-0.01 -2.636,1.577 -3.103,3.108 -2.573,5.618 0.004,4.113 2.573,4.629 m -16.501,755.337 v 0 l 0.593,-0.03 m 28.701,-927.548 v 0 l 2.352,5.503 -0.351,1.355 -4.356,-4.274 -0.016,-2.086 1.369,-2.815 m -11.543,195.898 v 0 l 0.884,-0.989 0.017,-1.094 -2.537,-6.665 -2.181,-3.666 -1.67,0.041 -1.301,1.383 3.6,10.712 1.728,0.724 m -73.289,657.551 v 0 l 0.593,-0.03 m 305.407,-47.97 v 0 l 0.593,-0.03 m -307.013,48.99 v 0 l -0.593,0.02 m 98.632,-1056.05 v 0 l 0.033,6.104 -2.939,5.578 -2.962,1.753 -1.826,-3.327 0.014,-3.084 5.87,-6.977 m -76.569,368.332 v 0 l 2.071,0.01 -0.32,-1.34 2.084,-2.309 1.577,-2.636 -0.011,-5.081 -2.325,-2.324 -2.08,-0.011 -2.636,1.577 -4.098,4.101 -5.578,11.625 0.004,3.113 1.555,2.611 7.773,3.664 1.376,-1.302 -10e-4,-1.052 -5.025,-3.187 -1.318,-1.306 -0.36,-2.536 4.574,-8.63 1.362,-1.949 2.371,-1.723 1.378,0.377 -2.685,4.925 -0.121,2.049 m 407.461,-398.286 v 0 l 0.027,0.594 m -408.197,255.994 v 0 l 2.508,3.491 7.625,3.577 2.085,-0.014 1.316,-1.324 -0.371,-1.54 -5.402,-2.471 -2.92,-1.992 -0.011,-5.078 1.577,-2.636 1.759,-1.662 6.05,0.014 -0.348,1.129 -5.4,2.462 -0.597,0.777 1.688,2.367 2.692,-0.032 3.666,-1.616 3.277,-3.267 0.482,-1.486 -0.133,-2.022 -1.626,-1.723 -3.666,-1.617 -4.12,-0.002 -4.685,1.636 -3.047,3.055 -2.573,5.618 m -3.312,228.275 v 0 l -2.673,2.757 -0.011,3.081 3.577,5.636 7.085,6.315 -1.304,0.479 -4.993,10e-4 -3.007,-0.97 -5.024,0.142 -0.421,2.815 5.388,1.896 10.087,-0.017 2.976,-2.87 0.34,-1.509 -1.916,-2.606 -8.211,-7.676 -1.538,-2.662 2.633,-2.813 2.635,-1.572 1.536,0.354 1.519,1.302 1.342,-1.272 v -1.054 l -2.316,-2.325 -2.02,-0.133 m 11.632,-269.516 v 0 l 3.36,-4.706 3.214,5.391 2.098,2.101 2.636,1.577 1.06,0.122 2.022,-0.142 0.314,-1.37 -5.13,-5.288 -1.228,-2.253 -2.593,-6.247 -1.636,-6.907 -2.701,-1.639 h -5.108 l -2.636,1.577 -5.095,5.095 -1.577,2.636 -0.004,5.112 2.94,5.575 3.4,2.718 3.08,0.011 2.636,-1.579 m -52.183,942.317 v 0 l -1.83,-4.45 -1.158,0.35 -0.818,1 0.598,1 -0.641,0.97 -0.022,1.09 0.8,3.19 1.879,22.56 0.467,0.39 1.58,-2.15 0.24,-5.68 3.03,-1.95 3.583,-5.11 4.57,-4.62 1.43,-2.38 4.182,-3.65 -2.398,-2 -2.689,1.55 -7.095,7.1 -3.619,4.93 M -120.829,577.455 v 0 l 0.298,1.388 2.057,0.008 1.759,-1.661 1.707,-2.667 1.575,-0.5 2.201,3.667 2.186,-3.61 1.575,0.07 0.971,0.649 1,-0.826 -0.001,-0.948 -2.21,-2.318 1.575,-2.2 -2.009,-1.588 -2.66,-3.84 -1.98,6.188 -1.754,1.57 -7.157,-1.785 -1.75,-0.908 -2.054,0.882 v 0.949 l 1.329,1.322 5.92,2.433 m -335.271,117.479 v 0 l 0.027,0.593 m 25.619,-113.307 v 0 l 3.562,-6.211 0.176,4.27 -3.569,7.623 -1.798,1.623 -0.36,-2.359 m 287.584,363.366 v 0 l -2.585,5.634 0.014,6.085 3.627,3.723 3.666,1.617 4.085,-0.015 1.359,-1.894 -7.069,-3.671 -0.667,-0.762 -0.011,-6.078 1.577,-2.636 2.521,-2.506 2.2,3.681 2.118,-0.123 2.636,-1.577 3.099,-3.102 2.573,-4.629 -0.011,-2.08 -1.325,-1.326 -7.08,-0.01 -5.636,3.577 m 24.17,-458.18 v 0 l -1.809,-12.062 1.659,0.052 -0.629,-2.028 3.609,-3.782 3.663,-2.567 8.0272,-0.147 2.0602,0.131 6.9126,2.847 1.8117,1.831 1.5774,2.636 0.0034,10.113 -2.3491,5.372 -3.2023,5.229 -8.235,3.793 -0.0606,1.596 2.4255,2.306 1.1162,0.005 5.6165,-2.567 1.2968,-1.145 2.0206,-0.133 5.6676,2.675 1.7004,2.756 v 5.108 l -3.8377,5.916 -4.7644,2.849 -4.7662,1.667 -8.0548,-0.118 -7.6,-2.536 -2.312,-1.31 -1.379,-1.496 -0.133,-1.03 m -404.292,-24.73 v 0 l -3.432,8.412 -2.006,3.012 -2.04,2.041 -8.751,2.755 -6.02,-0.135 -1.325,-1.325 -0.014,-2.085 4.359,-9.406 7.322,-10.324 4.63,-2.573 1.054,-0.109 4.725,1.721 1.626,1.724 m -6.68,277.976 v 0 l -0.024,2.072 3.104,3.177 1.613,-3.828 -2.31,-1.733 m -61.69,-29.639 v 0 l -0.668,-0.993 0.647,-0.979 -10e-4,-1.055 -2.556,-3.181 -1.76,1.56 -4.022,0.133 -1.347,-0.456 -0.009,-3.054 0.837,-1.977 -10e-4,-4.993 -0.455,-1.339 -1.053,-0.006 -0.683,0.566 -1.895,10.408 -2.739,2.342 0.31,1.365 1.472,0.194 1.848,7.24 1.417,1.415 1.868,-8.66 4.978,0.053 2.844,5.828 1.926,-2.382 m 64.156,-67.007 v 0 l 3.04,-3.023 1.481,-0.481 1.547,0.061 1.803,3.426 -2.517,7.657 -1.31,2.312 -1.495,1.369 -2.025,-0.842 -2.364,-3.446 0.01,-5.08 m 65.642,30.004 v 0 l -0.593,0.027 M -524,773.456 v 0 l -0.148,3.07 -0.836,1.978 0.117,2.056 1.867,4.376 1.53,-0.096 0.454,-2.336 -0.836,-1.978 -0.132,-2.023 0.969,-3.006 -0.087,-4.63 -2.377,-1.69 -0.358,0.301 m 39.047,-106.956 v 0 l 0.593,-0.027 m 207.654,162.357 v 0 l 3.989,2.01 5.05,0.122 1.339,-0.455 -0.611,-1.776 -5.401,-2.46 -2.325,-2.311 -0.364,-2.541 3.578,-7.626 3.734,-2.677 2.081,0.02 0.315,1.369 -2.658,2.761 -4.045,2.569 -0.003,0.634 1.338,1.36 3.02,0.134 1.308,-0.297 3.222,-2.217 2.838,-4.917 -0.011,-3.081 -1.661,-1.758 -2.636,-1.577 h -3.108 l -4.63,2.573 -3.104,3.105 -3.574,6.63 -0.124,1.059 0.124,6.049 m -47.676,756.406 v 0 l 8.283,4.36 12.722,4.55 2.203,-2.07 -0.172,-0.78 -1.321,-1.31 -13.144,-5.2 -8.217,-4.22 -1.681,-1.8 3.675,-3.78 5.38,-3.43 6.099,-6.1 2.573,-4.63 -0.334,-2.39 -2.536,0.36 -1.707,2.67 -7.095,7.09 -5.38,3.43 -6.095,5.1 -1.572,2.63 0.389,1.58 4.717,1.75 m 413.7481,-548.3 v 0 l 1.5244,0.36 0.2784,-0.32 -0.5993,-1.01 0.6418,-0.97 0.0138,-1.09 -8.5681,-14.62 -3.8219,-3.65 -7.6506,3.54 -3.1044,3.11 -2.5736,4.63 -0.0035,3.11 1.5514,3.67 1.2925,2.24 3.4956,3.38 h 6.0525 l 3.7664,-3.67 2.4583,-4.87 1.9642,2.88 m -4.7578,116.33 v 0 l -2.0008,-1.51 -9.2267,-1.79 -2.5036,-20.47 -0.7036,-0.6 -2.0502,0.01 -0.4567,1.34 -6e-4,6 0.9697,3 -0.1421,9.03 -1.3429,0.44 -3.0275,-0.81 -1.3144,1.31 v 1.06 l 2.3161,2.32 2.4397,0.17 1.8899,11.27 0.7,0.51 1.7005,-1.52 1.8714,-9.25 3.4281,0.95 h 5.9928 l 1.35,-0.46 M 47.0364,601.474 v 0 l 0.4565,1.502 1.0044,0.821 0.7528,-0.58 1.094,-2.96 3.5187,-11.696 -0.3602,-1.541 -0.9754,-0.862 -1.5068,0.339 -0.82,1.003 0.6283,1.034 m 19.6271,-1.388 v 0 l 1.5233,-0.639 7.2108,-5.222 4.0041,-3.972 1.7773,19.149 2.5524,0.375 -0.5087,-2.341 -0.0012,-7.989 1.8536,-14.944 -0.3648,-1.543 -0.9753,-0.862 h -1.0548 l -6.2824,7.127 -2.6625,1.692 -3.3376,3.308 -7.0804,4.571 0.3624,1.986 2.0535,0.009 M 32.1458,1226.42 v 0 l 0.0116,4.11 1.3666,0.31 0.7048,-0.59 2.6316,-7.69 -0.3578,-1.54 -1.0007,-0.82 -0.7927,0.62 m 15.4333,-264.4 v 0 l -0.2805,3.134 -1.7245,2.892 -0.1209,2.05 0.4544,1.339 1.51,-0.333 1.3165,-1.332 3.5679,-9.612 -0.0226,-5.086 -2.0217,-0.348 M 24.5437,1342.18 v 0 l -1.3429,1.32 2.1175,3.31 4.4034,14.39 3.7441,1.63 1.6676,-0.9 3.1513,-3.74 7.4303,-10.38 3.1359,-3.28 0.1175,-1.03 -0.4408,-1.34 -2.0239,-0.14 -1.4857,0.48 -6.3069,7.32 -4.4263,7.37 -1.5409,1.51 -4.493,-12.92 -1.3251,-1.91 M -36.4727,1050 v 0 l -0.512,1.5 -0.001,12.99 0.306,1.32 1.3969,1.89 0.4815,-0.42 1.6715,-8.72 0.1145,-7.06 -0.4821,-1.48 -0.9753,-0.86 M -334.017,924.539 v 0 l 0.031,-11.033 1.855,-6.945 0.13,-2.061 -0.133,-3.059 -1.619,-3.666 -0.72,-0.623 -1.44,-0.127 -2.769,13.119 -1.336,1.358 -1.486,0.483 -3.02,-0.134 -2.338,-3.297 -0.122,-2.05 0.482,-1.486 1.277,-1.268 3.45,-1.501 2.626,-2.723 -0.008,-3.054 -2.397,-0.334 -4.63,2.573 -3.101,3.099 -1.577,2.636 v 6.108 l 1.939,3.577 2.369,1.73 6.05,0.124 2.01,-0.785 0.478,1.303 0.001,2.993 -0.837,1.978 -0.01,3.08 2.364,3.244 2.353,-2.278 m 207.86,656.71 v 0 l -2.7,-15.74 0.133,-2.02 0.837,-1.97 -0.118,-6.06 -3.575,-9.62 -1.766,-1.67 -2.054,0.01 -0.456,1.34 0.115,4.06 2.738,11.88 -0.032,3.08 -2.341,-0.5 -2.022,0.13 -1.728,1.63 -2.614,7.66 0.006,8.11 1.729,2.35 2.659,-0.05 1.607,-0.92 4.004,-5.86 1.851,4.42 1.881,2.37 0.928,-0.36 -0.509,-0.79 m 374.131,-155.57 v 0 l 14.077,-0.16 2.004,-0.78 2.003,0.78 8.023,-0.13 1.316,-1.32 -0.558,-1.73 -9.72,-1.67 -36.071,2.86 -31.99,-0.01 -1.977,-0.83 -2.026,-0.15 -2.026,0.15 -0.948,0.7 -1.03,0.13 -4.02,-0.14 0.024,-0.82 1.793,-1.84 2.573,-5.62 -0.024,-4.09 -1.367,-0.31 -0.767,0.66 -4.686,9.65 -2.763,2.75 -5.726,1.76 -0.384,0.5 -0.001,2.04 0.56,0.76 -3.993,3.53 -1.577,2.64 0.011,2.08 4.667,4.76 6.993,4.03 8.321,3.54 1.692,-2.33 -1.638,-1.82 -14.368,-7.42 -1.658,-1.76 0.365,-1.54 2.667,-1.71 3.535,-3.49 13.782,-2.78 2.019,0.14 1.977,0.83 31.99,0.01 m -375.142,-352.77 v 0 l 0.145,0.75 3.338,4.34 7.612,4.55 1.059,0.13 7.021,-0.14 1.325,-1.32 -0.014,-2.05 -1.377,0.36 -8.367,-2.31 -4.57,-2.52 -0.492,-1.51 0.28,-1.22 1.447,1.96 27.314,2.87 1.375,0.74 1.534,-0.35 1.818,-2 -2.574,-2.75 -3.666,-1.62 -24.056,-0.12 -2.009,0.79 -0.324,-0.28 0.326,-1.5 4.219,-6.21 9.127,-9.28 -0.339,-1.51 -0.977,-0.87 -1.026,-0.12 -1.375,0.47 -9.41,9.31 m 391.089,267.47 v 0 l 4.011,3.01 11.369,5.42 2.649,2.83 -2.535,6.63 -5.583,5.64 -1.692,2.66 -2.732,2.82 2.21,1.55 2.689,-1.56 8.095,-8.09 1.932,-2.93 1.651,-5.7 -0.006,-2.11 -1.577,-2.64 -2.101,-2.1 -11.37,-5.42 -7.259,-5.15 -1.535,0.36 -0.862,0.97 v 1.06 M -331.98,822.521 v 0 l -2.83,-2.806 -2.667,-1.707 -0.374,-2.535 1.661,-1.758 2.661,-1.538 1.029,0.622 1,-0.599 1.006,0.6 0.335,-1.325 -3.287,-2.337 -1.054,-0.109 -4.725,1.721 -2.637,3.696 v 4.108 l 1.554,2.611 2.498,1.55 2.609,2.785 -1.524,1.71 -7.55,1.583 -0.566,0.683 -10e-4,1.051 1.316,1.324 6.02,0.134 3.696,-1.7 2.672,-3.731 -0.011,-3.08 m 176.672,382.506 v 0 l -2.385,3.47 v 5.1 l 5.936,8.58 4.501,3.06 4.864,1.68 h 3.122 l 5.376,-1.81 -2.219,-1.17 -9.929,-2.63 -1.923,-1.33 -3.155,-3.75 -2.573,-4.63 0.011,-2.08 5.633,-5.72 7.636,-2.56 2.059,-1.18 0.365,-1.54 -0.865,-0.97 -0.725,-0.22 -8.675,2.51 -3.762,1.92 m 8.712,-188.71 v 0 l -0.511,1.5 0.481,2.48 9.319,9.31 6.63,3.57 2.08,-0.01 1.973,-1.87 0.386,-1.02 -7.071,-3.67 -2.362,-2.14 4.044,-0.13 1.978,0.83 2.026,0.15 3.026,-0.15 0.947,-0.69 h 1.054 l 0.946,0.68 h 1.054 l 2.272,-2.34 -1.501,-1.69 -22.209,-2.85 0.412,-0.95 3.309,-3.3 8.086,-5.58 -0.047,-1.66 -1.32,-1.31 -1.331,0.15 -8.388,5.4 m 34.981,150.81 v 0 l -4.041,-5.3 -1.119,-3.06 -2.501,-10.6 -0.115,-3.06 0.837,-1.97 0.133,-2.02 -1.792,-8.24 -1.942,-5.49 -1.724,-1.62 h -1.055 l -1.323,1.31 -0.134,2.02 2.855,14.95 0.116,8.05 -2.474,9.4 -1.485,3.58 -3.501,3.38 h -2.052 l -2.326,-2.32 -0.014,-7.09 2.54,-5.59 5.787,-1.69 1.044,0.64 0.325,-0.28 -0.328,-1.5 -0.976,-0.87 h -6.052 l -3.73,3.64 -2.613,8.65 0.002,2.12 1.635,4.69 2.007,2 3.725,1.6 3.725,-1.6 4.024,-4.03 3.072,-6.27 2.387,4.23 2.102,2.1 3.662,2.56 1.328,-0.33 -0.599,-1.01 M 249.456,1351 v 0 l 3.098,-0.14 3.295,-2.33 0.047,-1.66 -2.397,-1.71 -2.945,1.7 -2.113,0.01 -8.272,-3.25 -11.676,-2.61 h -25.99 l -3.007,0.97 -26.991,0.01 -1.212,-0.28 2.572,-2.2 -2.359,-0.49 -5.689,2.69 -0.666,0.76 -0.128,1.1 3.017,1.52 10.467,1.9 h 4.986 l 25.014,-1.98 h 9.986 l 16.185,1.95 11.763,3.91 m 12.496,-142.93 v 0 l -21.444,3.05 -24.99,-0.01 -3.007,-0.96 -7.99,-0.01 -5.952,2.85 -8.115,0.01 -4.188,-1.6 3.253,-5.3 3.361,-7.41 -0.023,-2.09 -2.368,-0.32 -1.274,1.35 0.622,1.03 -3.316,6.43 -7.368,12.49 v 3.1 l 1.696,2.76 5.233,3.2 5.002,2 9.852,2.99 3.545,1.47 1.005,0.87 1.083,0.02 2.342,-1.73 -0.047,-1.66 -0.673,-0.76 -5.206,-2.21 -13.168,-4.17 -3.769,-1.83 -2.884,-1.98 -0.133,-2.02 0.453,-1.33 12.026,1.69 6.083,-1.75 2.894,-1.95 3.031,0.82 36.99,0.01 21.457,-3.06 1.9,-1.41 10e-4,-2.05 -0.871,-0.97 -2.474,-0.48 m 5.631,-79.59 v 0 l -0.632,1.55 -3.315,3.3 -2.663,1.7 -5.337,5.3 -2.667,1.71 -0.507,1.51 0.141,2.03 2.369,0.32 3.664,-2.57 5.62,-5.57 2.662,-1.69 2.551,-2.55 2.224,-3.24 1.618,-3.67 0.12,-3.06 -0.483,-1.48 -2.312,-2.31 -11.374,-6.42 -4.626,-5.58 -2.636,-1.57 -4.082,0.02 -0.323,2.37 4.661,4.75 7.004,5.01 8.37,4.42 1.318,1.31 0.354,1.53 m -444.969,451.94 v 0 l -1.72,4.97 2.361,2.36 9.662,-6.54 4.307,-4.08 0.755,0.59 0.992,2.71 1.538,5.76 0.694,0.58 h 1.051 l 1.324,-1.31 0.016,-5.09 -2.65,-9.7 -0.748,-0.56 -4.653,2.53 -7.322,7.09 -0.35,-1.36 4.679,-6.91 -1.296,-1.37 h -1.055 l -2.757,2.65 -4.579,6.67 m 15.002,-221.05 v 0 l -1.976,4.07 1.708,2.39 h 1.261 l 7.679,-8.18 4.663,-3.55 h 1.05 l 0.683,0.56 1.836,7.19 1.185,-0.22 1.744,-5.19 -1.753,-6.76 -0.696,-0.59 -2.081,-0.02 -3.669,1.62 -5.245,4.09 -1.052,-0.01 0.51,-2.33 -0.142,-4.03 -1.795,-0.43 -2.694,9.07 m 11.792,-204.69 v 0 l -2.131,8.09 0.134,2.02 1.351,1.27 1.785,-1.61 1.692,-2.66 8.221,-8.22 2.089,14.39 2.575,-4.15 0.124,-1.06 -10e-4,-9.99 -0.986,-2 -1.473,-1.35 -2.085,-0.02 -3.666,1.62 -3.28,3.05 -0.359,-1.36 1.699,-5.91 -2.358,-0.38 -0.706,0.6 M 317.456,544.001 v 0 l 4.04,-0.016 1.978,-0.837 3.019,-0.134 37.842,1.963 15.06,1.913 30.108,5.095 1.644,-0.087 1.706,-1.796 3.64,-0.088 21.745,4.616 11.956,4.048 2.252,1.184 8.08,-0.011 1.316,-1.324 -0.34,-1.507 -0.975,-0.862 -3.031,0.827 -5.05,-0.123 -4.216,-2.185 -5.958,-2.039 -18.205,-4.083 -21.963,-2.442 -44.611,-7.099 -9.99,10e-4 -1.977,0.837 -2.026,0.147 -10.997,-0.014 -3.007,-0.97 -8.059,0.115 -9.236,1.937 -1.067,0.73 -0.028,1.334 2.339,1.725 M -134.02,944.521 v 0 l 1.83,-1.806 2.668,-1.538 0.351,0.3 -0.327,1.504 -1.312,1.304 -2.635,1.571 -1.355,-0.351 m -29.05,479.915 v 0 l -0.012,8.13 2.84,4.92 3.116,2.48 10.371,1.89 0.372,-0.32 0.146,-2.02 -0.478,-1.3 -1.039,0.63 -8.624,-3.52 -2.704,-4.76 -0.124,-1.06 0.124,-3.04 1.577,-2.64 2.785,-2.81 0.974,-0.85 4.054,0.01 0.456,1.34 -0.117,3.06 -2.614,7.66 -1.095,1.25 0.313,1.36 2.662,-0.9 2.159,-2.75 2.574,-5.62 -0.004,-6.11 -1.839,-2.92 -1.497,-1.38 -3.02,-0.14 -4.734,1.74 -4.061,3.07 m 456.307,-218.31 v 0 l -2.247,-3.26 -1.604,-4.71 2.643,-2.83 5.661,-3.53 1.003,0.67 4.054,-0.01 0.322,-2.36 -0.625,-0.73 -3.667,-1.62 -2.112,0.01 -7.636,4.57 -2.06,2.06 -1.61,3.67 2.562,7.73 9.583,9.64 1.577,2.64 0.123,2.04 -0.302,1.31 -1.551,2.1 -5.691,-0.03 -4.944,-1.84 -1.478,0.47 -0.868,0.97 -0.036,1.69 5.326,2.71 9.085,-0.02 1.619,-0.93 2.717,-4.37 v -5.1 l -1.577,-2.64 m -4.302,-72.27 v 0 l 0.125,-9.68 20.364,-12.7 1.362,0.31 0.026,1.09 -1.846,4.95 0.134,12.02 2.69,3.78 4.606,2.55 1.369,-0.18 5.07,-2.64 -0.358,-0.87 -1.999,0.68 -3.081,0.01 -2.753,-1.69 -1.555,-2.62 -0.123,-9.04 2.689,-7.68 2.773,-3.68 h 2.047 l 2.339,3.3 0.109,1.05 -1.825,12.05 1.355,1.61 1.757,-1.95 2.713,-11.71 -2.056,-6.64 -4.359,-2.72 h -1.112 l -4.628,2.57 -2.532,3 -0.76,-0.56 -2.083,-0.02 -7.408,3.37 -9.478,5.36 -1.085,-0.03 -0.454,-1.33 -0.002,-2.99 1.855,-7.95 0.116,-7.06 -0.483,-1.48 -1.411,-0.96 -2.661,16.07 -3.416,16.38 0.12,4.05 1.62,3.66 0.748,0.58 0.472,-0.3 0.881,-0.98 m 1.354,-17 v 0 l 0.593,-0.02 m 35.524,-591.71 v 0 l 2.124,2.182 1.836,-0.789 7.427,-13.369 5.002,-7.004 1.787,-1.608 0.571,0.894 1.652,0.795 13.712,1.98 5.731,0.247 2.468,6.2 4.113,12.899 1.751,0.751 1.343,-0.44 0.022,-6.087 -3.751,-10.479 3.357,-1.948 0.419,-2.158 -4.935,-2.908 -1.433,-3.037 -6.521,-29.566 -0.813,-1.22 -2.321,-0.023 -2.155,2.713 -5.424,9.369 -1.573,1.626 -6.002,9.004 -5.426,10.372 -6.157,8.711 -1.178,0.185 M 170.206,1287.74 v 0 l -2.679,-2.58 -1.508,0.34 -1.308,1.32 -2.567,4.62 0.021,1.09 2.978,0.36 2.542,-3.61 0.166,8.25 -1.325,1.32 -1.03,0.13 -3.02,-0.13 -0.723,-0.63 -1.619,-3.66 -0.12,-7.05 2.856,-14.95 0.116,-4.05 -0.303,-1.31 -1.55,-2.1 -1.658,0.05 -0.67,0.56 -2.791,19.8 0.12,10.05 1.95,4.58 4.362,2.72 5.05,0.12 1.51,-0.5 1.1,-1.9 1.865,-7.08 M 300,1336.46 v 0 l -0.016,5.04 -0.836,1.97 -0.016,3.09 1.639,4.69 0.705,0.59 1.049,-0.01 -0.324,-1.33 0.768,-2 -0.821,-1.97 -0.133,-2.02 1.77,-7.78 1.031,-1.02 9.374,-5.43 8,-6 1.651,-1.75 -0.012,-1.05 -0.635,-0.15 -5.422,2.42 -11.246,8.1 -2.054,-0.01 -0.456,-1.34 -0.001,-3 0.837,-1.97 0.133,-4.03 -0.837,-1.97 -0.132,-2.03 0.784,-2.01 -1.713,-0.47 m 4.633,102.16 v 0 l 5.089,5.1 3.215,2.25 1.838,2.92 v 4.1 l -1.577,2.64 -1.759,1.66 -6.023,0.13 -1.977,-0.83 -2.685,-0.26 -1.551,-1.6 -1.818,0.55 -0.946,-0.69 -3.022,-0.13 -1.347,0.45 -0.078,2.58 4.332,2.1 6.027,1.72 10.116,-0.01 3.735,-2.68 2.573,-4.63 v -6.1 l -2.936,-4.58 -5.06,-3.94 -4.151,-4.74 -2.567,-3.66 -0.132,-2.03 0.481,-1.48 2.72,-2.03 8.059,-1.78 0.574,-0.69 -0.008,-2.05 -1.346,-0.45 -7.05,0.12 -4.63,2.57 -1.101,1.1 -1.578,2.64 0.011,5.08 m 14.13,-216.34 v 0 l -3.144,6.25 0.004,10.11 2.573,4.63 1.099,1.1 3.012,2.01 5.402,2.46 1.248,1.09 h 1.055 l 1.272,-1.34 -0.3,-0.48 -1.309,-1.31 -5.381,-3.43 -1.832,-1.81 -2.839,-4.92 -0.124,-6.04 0.3,-1.32 3.76,-6.32 2.372,-1.73 2.397,0.33 0.019,3.08 -4.724,8.9 0.011,2.08 1.359,1.33 h 0.634 l 2.569,-4.04 1.578,-1.64 2.573,-4.63 -0.011,-7.08 -2.325,-2.32 h -6.053 l -3.639,2.54 m 47.445,-701.494 v 0 l 2.434,-4.378 0.786,-0.614 0.718,0.537 5.616,23.729 -0.309,0.358 -17.278,-1.82 -2.994,-0.743 3.461,-6.451 6.002,-9.004 M 173.14,1275.85 v 0 l -0.062,5.2 3.363,1.81 1.088,-0.02 2.322,-2.31 0.251,-2.66 2.938,-1.92 1.82,-3.39 -0.026,-1.09 -2.331,-0.45 -2.009,0.78 -0.332,-0.28 -0.014,-2.05 0.681,-1 -1.783,-3.39 -1.576,0.08 -0.454,1.34 -0.124,6.64 m 12.539,-13.28 v 0 l 1.55,0.63 3.041,3.04 1.34,2.38 2.624,11.6 -0.116,4.05 -1.628,8.25 -3.25,11.13 -5.91,2.11 0.672,1.18 4.684,1.63 h 1.118 l 2.727,-1.67 2.989,-8.71 2.597,-11.92 0.117,-9.05 -1.878,-8.19 -1.859,-4.54 -5.024,-5.03 -3.667,-1.62 -2.084,0.02 -1.316,1.32 0.365,1.54 m -323.491,215.48 v 0 l -1.868,6.98 1.342,-0.27 0.354,1.36 -4.362,11.47 -4.366,14.41 v 8.12 l 1.639,4.69 1.732,0.73 3.023,-0.13 3.664,-2.57 5.095,-5.09 3.047,-5.03 2.535,-7.6 v -4.12 l -1.638,-4.69 -0.706,-0.6 -3.077,-0.01 -5.924,3.68 -0.359,-0.3 -0.029,-2.08 3.732,-9.88 0.133,-6.06 -0.148,-2.03 -1.325,-1.32 m 129.47601,32.38 v 0 l -1.49987,-0.51 -2.03009,0.14 -0.32312,2.37 1.32458,1.32 h 2.05267 l 1.3158,-1.32 M -105.157,962.504 v 0 l -0.632,-0.759 -10.429,-3.494 -0.633,-0.728 -0.015,-4.082 1.943,-4.573 3.705,-3.122 7.463,-2.517 0.605,-0.706 -0.322,-2.366 -6.082,-0.019 -4.63,2.573 -2.95,2.363 -2.113,2.698 -1.619,3.669 0.014,8.085 0.946,1.644 1.495,0.976 4.85,1.721 8.088,-0.025 M -127,1345.46 v 0 l -0.131,6.1 -1.74,6.03 -1.983,2.96 -0.014,-3.11 1.735,-4.88 0.116,-2.06 -0.453,-1.34 -1.595,-0.07 -2.804,8.35 0.003,3.12 1.852,3.91 2.538,0.38 1.98,-2.88 3.248,-6.66 2.999,6.91 2.118,2.64 0.929,-0.36 -1.51,-1.8 1.419,-1.48 -7.202,-28.19 -3.023,-7.97 -1.935,-2.03 -1.075,0.12 -1.323,1.32 -0.011,2.08 3.079,6.99 2.648,7.9 m 6.061,-137.56 v 0 l -2.372,-1.74 h -3.108 l -2.918,1.84 -1.826,1.85 -0.892,1.75 -1.678,4.86 0.006,7.11 1.577,2.64 2.759,2.66 6.085,0.02 4.13,-2.1 -4.128,-1.63 -2.061,0.66 -2.546,-0.88 -1.819,-3.36 -0.12,-1.07 0.117,-2.05 1.678,-4.86 1.168,-2.05 1.494,-1.37 1.509,0.34 1.87,1.97 0.001,2.06 -0.695,0.94 0.001,1.06 1.094,1.17 2.589,-4.17 M 207.543,1124 v 0 l -11.036,0.01 -10.945,1.86 -3.062,0.13 -9.054,-0.14 -2.892,-1.72 -3.051,-0.13 -1.485,0.49 -1.815,2 0.576,0.75 3.3,1.26 8.427,2.48 h 4.987 l 19.944,-2.86 4.056,-0.12 14.717,3.06 17.296,1.92 h 4.988 l 4.731,-1.74 1.06,-1.06 1.474,-2.5 -2.267,-1.53 -4.998,1.83 h -11.987 l -11.654,-1.83 -8.292,-2.03 m -11.515,545.81 -1.521,-0.76 m -339.524,-158.64 v 0 l 0.129,-2.1 1.641,-4.69 1.362,-0.82 1.943,-3.06 3.734,-3.16 2.635,-1.57 1.085,0.03 0.454,1.33 -0.118,6.06 -2.574,5.62 -2.007,3.01 -4.095,4.09 -2.499,1.48 -1.553,-2.21 m 25.895,-323.99 v 0 l -1.556,-0.4 -1.306,1.37 1.579,3.69 1.542,1.6 2.387,4.19 1.157,-1.51 m 134.3019,282.93 v 0 l -3.1239,8.08 0.1238,6.04 1.5772,2.64 3.0598,3.06 8.6709,4.61 h 7.1084 l 2.6358,-1.58 2.0979,-2.1 1.228,-2.25 4.4699,-11.44 -0.1237,-4.04 -6.5734,-11.63 -3.7345,-2.68 -4.1129,-0.01 -5.6193,2.58 -3.012,2 m 9.3492,-185.23 v 0 l 1.3316,0.49 1.7561,-0.75 5.7087,-14.1 4.3521,1.96 7.7516,1.98 3.64,10.1 0.7753,0.68 h 1.0528 l 1.3237,-1.31 0.0173,-2.09 -1.7328,-5.88 0.6967,-2.1 -2.6974,-12.36 -2.8101,-8.33 -4.0754,-8.99 -1.7556,-1.64 -1.547,1.3 -2.428,7.51 -5.7347,13.79 -4.5022,14.45 -1.99,1.52 0.5601,0.77 m -9.3675,195.58 v 0 l 1.4899,-2.53 2.8419,-2.82 4.6295,-2.57 3.0805,0.01 2.762,2.67 3.4233,6.36 1.1399,1.29 0.1474,3.03 -0.1333,2.06 -4.6997,11.75 -2.6117,1.55 -4.6995,0.04 -3.5657,-3.61 -0.7915,0.51 -1.7823,-1.61 -1.5382,-2.66 0.6224,-1.03 -0.8183,-1 -1.1394,-0.36 -1.6952,1.41 -0.0122,-5.11 m 27.4464,-215.18 v 0 l -4.4635,-2.1 -0.1016,-1.66 2.6582,-7.73 1.8568,-3.75 1.6468,-1.91 3.3482,8 2.3124,10.36 -1.4,0.39 m 6.4442,-193.37 v 0 l -1.7497,4.95 0.3387,2.39 1.8156,-0.65 2.5755,-4.63 0.1219,-8.05 -0.4568,-1.34 -2.3703,0.31 m 7.858,-121.007 v 0 l 0.142,4.065 1.815,0.419 4.0253,-12.883 4.5286,0.084 1.9775,0.837 2.9926,-10e-4 1.3448,-0.455 0.0443,-1.683 -1.7209,-1.138 -7.5697,-2.566 -1.4761,-0.974 -0.1034,-17.665 0.9534,-3.003 -0.441,-1.343 -2.0537,-0.008 -1.2731,1.35 0.5985,1.001 -0.7841,2.003 -0.0936,15.543 -3.7628,2.429 0.9152,2.673 1.9087,2.308 -0.1152,3.104 m -190.6853,263.93 v 0 l 1.894,9.48 1.455,-0.13 0.453,-1.34 -0.133,-5.03 -2.599,-4.17 M 50.5233,1022.04 v 0 l -1.017,-0.84 -1.8381,2.64 -2.5358,7.6 0.0262,2.08 0.3442,0.34 2.7479,-2.64 2.612,-7.66 m 3.3224,191.72 v 0 l 1.8393,-1.78 0.8129,-0.02 -0.8222,6.02 0.4823,1.48 1.0025,0.82 5.7122,-5.49 1.9805,6.62 1.669,-2.38 0.1227,-8.05 -0.4567,-1.34 -2.0819,-0.02 -3.6634,2.55 -2.2491,-5.58 -6.006,4.73 -1.3567,-0.37 2.6911,-5.92 -0.0108,-2.08 -1.3489,-1.27 -2.0185,2.87 -2.3493,5.37 0.0229,6.09 2.3691,0.32 m 15.4922,-194.34 v 0 l -1.8786,-3.95 0.0042,-1.12 1.5711,-2.63 3.0949,-3.09 2.6351,-1.58 1.0804,0.02 0.7034,0.59 1.7419,5.75 -1.7392,5.75 -2.7055,2.6 -1.026,0.12 -1.4821,-0.47 m -210.0389,403.97 v 0 l -0.964,3.03 0.001,9 0.455,1.33 1.053,0.01 0.688,-0.57 1.657,-6.71 0.116,-7.06 -1.005,-2 -1.509,-0.34 m -5.945,98.87 v 0 l -0.372,-1.55 0.668,-1.01 -6.906,-12.78 -1.902,-8.2 0.117,-16.05 1.613,-5.95 3.009,-7.72 4.098,-6.24 -0.008,-4.06 -1.39,-0.44 -1.915,1.96 -4.785,7.78 -4.621,12.67 -0.118,20.05 1.733,7.02 1.962,4.67 3.002,5 5.158,5.68 0.934,-0.36 m 7.001,-112.56 v 0 l 1.904,1.77 1.134,-1.18 v -1.06 l -2.743,-4.44 -1.954,-1.93 -1.673,0.05 -1.314,1.32 v 1.06 m 8.096,170.7 v 0 l -1.11,1.32 -0.01,-8.11 1.619,-3.67 0.722,-0.61 h 1.054 l 0.455,1.34 -0.122,4.05 m -3.384,-78.34 v 0 l 0.027,0.59 M 49.0417,1075.48 v 0 l -0.8848,0.99 0.0011,1.06 1.3144,1.31 h 1.0551 l 1.3144,-1.31 10e-5,-1.06 -1.3144,-1.31 m -30.7373,146.32 v 0 l -0.593,0.02 m 109.9607,61.07 v 0 l -0.293,-4.13 -1.618,-3.67 -1.747,-0.74 -1.334,0.44 1.939,20.51 1.425,-0.13 1.758,-1.67 7.543,-14.07 1.441,1.66 1.593,3.67 -0.003,4.11 -1.724,2.9 -0.108,1.05 0.989,2 2.507,0.35 1.762,-1.67 5.509,-10.11 2.288,10.9 1.445,-0.12 1.321,-1.32 v -11.06 l -1.626,-1.72 -3.666,-1.61 -1.54,0.36 -3.31,3.21 -3.543,-6.02 -2.612,-1.55 -2.08,0.01 -2.762,2.67 m -13.119,166.21 v 0 l -2.438,4.46 13.163,23.26 3.199,8.35 2.469,9.41 v 10.98 l -1.628,5.79 -2.066,4.9 -5.792,5.84 0.032,0.81 5.727,-1.61 1.874,-1.29 3.199,-4.77 2.535,-7.6 0.119,-12.05 -2.758,-10.93 -3.91,-9.83 -3.031,-5.94 -7.828,-11.93 -2.486,-7.83 m 215.483,-231.9 v 0 l 9.022,-4.97 0.359,0.3 0.147,9.02 -0.953,3 0.472,1.36 h 0.628 l 3.731,-5.31 -0.011,-11.08 -1.325,-1.32 -4.08,-0.01 -6.63,3.57 -1.025,0.98 -2.292,-7.68 -0.414,0.02 -2.95,11.41 0.013,3.09 1.352,1.27 m -2.778,109 v 0 l -2.97,4.98 -1.265,3.33 -2.343,9.45 2.567,4.62 3.064,3.07 5.704,2.57 0.362,-1.35 -5.134,-4.29 -2.558,-5.69 1.698,-6.08 1.906,-4.64 2.958,-4.95 5.794,-5.62 0.479,1.3 -0.122,5.05 -3.719,6.89 0.354,1.54 1.012,0.88 h 0.622 l 4.116,-5.63 1.618,-3.67 -0.013,-7.09 -0.926,-1.6 -2.373,-1.73 h -2.107 l -3.448,2.36 -3.283,3.31 m 10.461,-189.67 v 0 l 0.141,-0.95 3.517,-5.5 6.916,-4.92 4.718,-1.75 0.5,-1.52 -0.44,-1.34 -4.082,-0.02 -6.63,3.57 -4.124,3.12 -2.977,3.98 -1.577,2.64 -0.124,1.06 0.134,4.02 1.675,1.76 1.986,1.03 6.632,2.55 6.055,0.11 1.361,-0.48 -1.912,-1.98 -8.169,-3.2 m -11.239,273.64 v 0 l -2.727,1.75 -2.099,2.11 -2.573,4.63 -0.004,9.11 1.619,3.67 2.081,3.08 4.458,2.73 10.149,2.82 3.087,-0.02 0.391,-1.89 -4.694,-2.28 -9.396,-3.37 -1.118,-1.12 -2.573,-4.63 -0.124,-1.06 0.123,-6.04 1.578,-2.64 2.101,-2.1 4.63,-2.57 1.056,-0.11 1.479,0.47 0.87,0.97 0.014,4.09 -1.616,3.66 -3.1,3.25 v 2.06 l 1.379,1.29 2.662,-1.54 2.103,-2.1 2.572,-5.62 -0.014,-7.09 -2.87,-2.97 -1.485,-0.48 -5.051,0.12 M 363,1124.46 v 0 l 0.138,6.09 2.612,5.67 2.723,2.63 h 6.053 l 1.946,-1.69 1.509,0.34 1.519,1.3 1.351,-1.27 0.046,-5.66 -2.205,-1.7 -1.548,-2.61 0.168,-1.36 1.55,-2.65 v -5.1 l -2.692,-3.75 -7.671,-2.67 -3.689,1.68 -1.662,1.76 m 37.468,-583.341 v 0 l 4.14,10.098 0.491,0.466 1.602,-3.198 -4.717,-14.935 0.002,-14.119 5.579,-11.627 8.149,-12.26 -0.333,-2.389 -1.51,0.333 -1.304,1.312 -5.003,7.005 -4.218,7.22 -5.36,11.406 -0.002,12.119 m -37.378,696.6 v 0 l 2.692,1.7 2.08,-0.01 2.761,-2.67 1.922,-3.76 4.204,-14.73 2.21,8.48 1.863,4.76 3.013,4.23 1.355,-1.61 -2.906,-10.34 -2.8,-23.43 -2.149,-10.58 -1.501,-2 -1.73,1.55 -1.754,5.76 10e-4,4.99 0.97,3 -0.118,15.06 -4.549,14.63 -1.83,2.67 -2.35,-2.31 v -4.1 l 1.577,-2.64 3.181,-2.68 -0.055,-1.66 -2.395,-0.33 -3.696,2.63 -1.616,3.67 -0.134,3.06 0.134,3.06 m -4.654,115.46 v 0 l 3.33,-3.3 2.634,-1.58 1.358,0.17 2.643,1.55 1.079,-0.03 0.151,-0.62 -1.368,-2.38 -2.753,-1.69 -3.051,-0.12 -1.485,0.48 -7.303,7.31 -1.578,2.64 -0.122,5.05 0.482,1.48 4.257,4.25 4.685,1.64 5.119,-0.01 3.364,-1.74 -3.388,-1.95 -1.008,0.68 -3.085,0.02 -3.666,-1.62 -2.278,-2.27 -0.482,-1.48 0.123,-3.05 m 0.905,94.56 v 0 l -0.885,3.52 1.315,1.31 h 1.054 l 2.758,-2.65 1.43,-2.38 6.785,-6.81 0.971,-0.85 1.089,-0.13 2.305,3.42 -0.013,3.09 -0.651,0.97 1.327,1.32 3.323,-2.3 0.018,-3.08 -1.648,-5.7 -1.695,-1.59 -4.08,-0.01 -4.63,2.57 -4.321,4.09 -0.463,-1.3 0.767,-2 -0.598,-1 0.641,-0.97 -0.007,-1.06 -1.917,-0.37 m 17.958,-291.6 v 0 l -1.733,2.94 0.015,1.09 1.342,1.27 2.009,-1.67 h 0.622 l 1.729,2.31 0.076,1.56 -4.376,1.87 -3.084,-0.02 -0.725,-0.63 -2.617,-6.66 -0.118,-10.06 0.456,-1.34 5.054,-0.01 3.325,3.32 0.011,2.08 m 0.309,-28.1 v 0 l 1.684,5.96 0.977,1.47 3.148,-0.38 0.862,-0.97 v -1.06 l -3.555,-5.65 -0.762,-0.66 h -1.053 M 15.4779,1403.21 v 0 l 0.0268,0.59 M -452.79,770.522 v 0 l 0.593,-0.027 M 425.17,487.45 v 0 l -0.023,2.072 0.879,0.978 3.528,-0.362 6.734,4.678 3.577,7.625 0.121,4.052 -2.623,11.635 -5.077,10.058 -4.001,6.004 -2.095,2.095 -2.662,1.692 -3.027,3.048 -0.027,0.804 4.751,-1.515 3.908,-2.388 4.154,-5.741 6.034,-10.952 1.821,-5.358 1.844,-9.382 -0.119,-4.054 -1.661,-4.887 -2.184,-4.025 -2.832,-2.812 -2.962,-1.962 -3.67,-1.619 -3.054,-0.118 m -49.488,848.524 v 0 l 0.132,-6.07 3.871,-4.97 1.51,-0.34 0.455,1.34 -0.132,3.03 -0.837,1.97 0.147,3.02 1.124,-0.34 2.576,-4.63 -0.011,-7.08 -2.325,-2.32 -2.08,-0.01 -2.612,1.55 -1.549,2.5 -2.57,2.62 -1.578,2.64 -0.123,1.06 0.123,7.04 1.58,2.64 1.998,3 2.758,2.66 3.241,-0.16 -2.026,-1.53 -2.438,-5.38 -1.105,-1.26 m -25.586,330.62 -1.539,0.36 -0.862,0.97 m 42.97,-536.97 v 0 l 1.865,2.98 1.534,0.36 3.283,-3.13 2.38,-1.43 4.632,-4.57 4.877,-2.46 -1.173,-1.1 -5.081,-0.01 -2.635,1.57 -3.621,3.57 -2.461,1.47 -2.507,-9.01 -1.455,-1.44 -1.611,4.19 1.707,2.96 M -70.5085,541.175 v 0 l 0.0389,0.657 -1.3327,-0.332 m 458.8043,800.96 v 0 l 0.469,2.37 1.758,-0.58 1.638,-4.69 0.117,-5.06 -0.456,-1.34 -1.74,0.57 m -900.578,239.79 v 0 l 0.593,-0.03 m 903.331,-271.32 v 0 l -0.97,0.3 0.635,2.03 -0.6,1.01 2.328,0.33 0.328,-1.39 M -485.522,663.209 v 0 l 0.027,0.593 m 875.018,753.178 v 0 l -2.385,3.47 -0.124,8.04 1.701,3.7 2.303,2.31 2.508,0.35 5.789,-5.86 2.001,3.08 1.543,-2.51 -2.697,-25.61 -2.659,-9.87 -1.979,-3.92 -1.367,0.31 -0.143,6.02 3.853,14.95 -0.03,5.08 -0.601,0.18 -4.739,-1.67 -1.479,0.47 m 1.462,2.52 v 0 l 1.053,-0.85 4.405,1.83 0.061,1.5 -0.137,4.05 -2.574,4.63 -2.786,2.62 -2.364,-3.25 -0.137,-2.05 0.136,-5.05 m 21.343,-81.43 v 0 l 4.33,-4.3 2.662,-1.7 2.028,-2.04 0.365,-1.11 -2.337,-1.69 -0.505,0.32 -1.833,1.78 -3.322,1.8 -7.104,7.62 -2.547,-8.96 -0.72,-0.54 -0.471,0.3 -0.878,0.97 -0.134,3.02 2.08,12.48 1.035,-0.08 m 13.395,-230.91 v 0 l -0.779,0.8 -1.611,3.66 v 7.12 l 3.578,7.62 1.788,1.82 0.974,0.85 4.053,-0.01 0.315,-1.37 -2.984,-2.55 -1.988,-3.33 -1.739,-6.03 0.007,-3.11 2.678,-3.74 4.629,-2.57 1.084,0.02 1.97,1.86 0.386,1.02 -5.063,2.67 -2.622,2.79 1.336,1.33 4.74,-1.47 5.201,-2.35 0.507,-1.51 -0.122,-3.05 -1.839,-2.92 -2.497,-2.38 -1.03,-0.14 -4.05,0.13 M -393.145,963.544 v 0 l 0.639,-1.525 3.525,-3.522 1.51,-0.332 0.313,0.307 0.023,2.086 -3.575,7.151 -3.089,-3.208 M -455.527,693.21 v 0 l 0.359,1.31 -0.332,0.282 -0.332,-1.333 m 33.714,912.021 v 0 l -5.751,20.95 0.003,5.12 3.578,7.62 1.104,1.11 4.628,2.57 h 1.116 l 3.665,-1.61 7.068,-7.07 3.573,-8.62 0.001,-3.12 -2.569,-6.61 -3.744,-2.69 -1.06,-0.13 -3.476,0.49 -7.707,8.21 -0.179,-3.27 4.839,-15.94 -0.288,-1.31 -1.55,-2.09 -1.661,0.05 -1.324,1.32 m 4.728,-74.97 v 0 l -2.588,4.21 -0.795,-0.51 -0.331,0.28 -0.005,3.05 2.339,0.45 1.511,-0.5 3.707,-6.66 0.785,-0.62 0.754,0.59 2.533,8.47 0.497,0.44 1.579,-2.15 v -7.1 l -4.579,-6.64 -0.758,-0.65 h -1.052 l -1.973,1.86 0.323,1.51 m 43.851,-700.737 v 0 l 0.397,-0.93 3.438,-2.728 2.353,2.311 0.005,4.114 -1.635,4.686 -1.706,1.605 -2.05,-10e-4 -2.338,-3.296 v -3.109 M -584.046,711.518 v 0 l 0.88,-1.051 -1.602,-4.713 -1.732,-1.553 -1.351,1.273 -10e-4,3.052 0.926,1.607 2.402,1.691 m 210.069,177.028 v 0 l -3.991,2.01 -2.478,0.109 -1.947,-9.409 -0.115,-3.057 2.939,-6.426 3.601,0.059 2.636,1.577 3.059,3.06 1.611,3.664 -0.176,1.368 -2.395,4.376 m 4.183,-156.182 v 0 l 0.365,-1.527 -0.31,-0.316 -2.362,0.313 0.861,2.029 0.953,-0.006 m -4.957,86.984 v 0 l -2.884,3.968 0.01,7.08 2.661,3.756 3.631,1.578 1.116,-0.004 2.914,-1.832 2.786,-3.72 2.991,8.388 1.618,-3.134 10e-4,-5.117 -4.617,-13.663 -1.752,-0.763 -4.051,0.122 -2.636,1.578 M -422.474,1634 v 0 l -0.51,-1.5 0.133,-2.02 3.133,-2.29 3.433,-6.38 4.785,-4.61 1.633,0.87 1.729,2.38 0.124,6.04 -2.697,5.69 -5.763,5.67 h -2.052 l -1.608,-0.92 m -2.656,-13.41 v 0 l 0.593,-0.03 m 31.075,-22.99 v 0 l -3.85,-8.97 -2.502,-2.38 h -4.05 l -0.768,0.67 -2.461,5.41 -1.962,2.96 -4.183,3.68 0.055,2.66 2.339,0.45 1.486,-0.48 4.303,-5.31 3.466,-5.88 1.765,2.76 2.234,5.15 2.269,2.28 1.51,0.33 0.314,-0.3 m 39.191,-780.043 v 0 l -2.902,8.952 -0.116,4.057 0.455,1.339 1.759,-0.592 2.638,-8.683 -0.026,-5.088 -1.378,-0.315 m -7.484,144.308 v 0 l -1.848,5.974 -0.116,4.057 0.455,1.339 1.535,-0.358 1.188,-2.08 2.673,-8.837 -0.016,-3.086 -1.324,-1.316 -1.507,0.339 -0.872,0.977 m 272.6424,87.006 v 0 l -0.5932,0.02 m 614.6168,70.78 v 0 l -2.288,-2.13 -2.054,0.01 -0.456,1.34 0.132,2.03 2.668,2.76 4.369,2.42 2.68,2.16 -0.717,1.6 -0.132,2.03 1.01,2 1.471,-0.3 0.751,0.5 1.569,-2.99 3.157,-2.15 -1.171,-2.26 -2.366,-19.32 -5.208,-19.22 -0.732,-0.56 -1.541,0.85 -1.61,3.22 -6.021,16.96 -7.83,13.8 -3.356,7.41 0.358,1.54 0.975,0.86 1.814,-0.66 11.221,-20.21 4.829,-12.07 2.17,6.18 2.362,9.36 0.116,6.06 -0.456,1.34 -2.054,0.01 m -31.27,-33.55 v 0 l -5.206,3.2 -3.286,3.32 -2.035,3.95 -4.546,14.67 -0.117,8.05 1.852,7.1 1.846,3.59 1.288,1.32 2.829,2.8 1.746,0.89 4.864,1.68 3.057,0.11 1.304,-0.47 -0.881,-1.65 -8.392,-4.84 -1.816,-1.84 -2.574,-4.63 -0.123,-1.06 0.12,-14.05 4.616,-12.66 4.025,-4.03 4.075,-2.23 -0.008,-3.05 -1.34,-0.44 m -20.958,319.82 v 0 l -1.387,0.62 -0.053,1.66 2.369,1.69 1.812,-1.63 1.692,-2.66 6.528,-6.33 0.479,2.3 -0.836,1.97 -0.148,3.03 0.016,3 0.479,1.3 1.737,-1.56 2.498,-7.99 4.453,2.46 2.627,2.57 3.662,2.56 1.362,-0.31 -0.147,-1.33 -1.664,-2.67 -3.833,-3.81 -5.088,-3.59 0.036,-2.68 0.971,-1.87 1.76,-6.02 -0.018,-5.09 -0.872,-0.97 -1.503,-0.34 -0.679,0.56 -2.535,11.49 -2.796,2.62 -5.643,-2.54 -1.296,-1.13 -1.821,0.55 -5.388,-12.96 -4.03,-7.93 -5.762,-5.67 h -2.05 l -0.484,0.37 -1.707,2.67 -8.095,8.09 -5.66,3.54 -0.78,-0.6 -1.704,-3.14 -1.889,0.39 -0.019,3.08 1.577,2.64 1.759,1.66 2.084,0.01 3.667,-1.61 2.28,-2.05 0.333,0.28 0.148,11.01 -1.053,4.94 -2.804,23.01 -0.129,6.06 0.134,3.06 1.619,3.67 2.114,2.67 4.687,-0.04 2.636,-1.58 3.095,-3.09 4.049,-6.99 2.637,-8.7 -1.724,-4.73 -1.751,-0.75 -2.057,0.11 -4.689,1.64 -4.255,3.03 -0.333,-0.28 -0.032,-10.08 2.869,-14.94 -0.137,-6.05 -2.661,-3.95 0.299,-0.48 6.972,-6.86 1.509,0.34 1.307,1.32 4.03,7.93 4.359,11.47 2.181,3.67 5.301,0.22 1.819,1.41 0.852,-0.05 -0.328,1.51 m 32.36,-184.48 v 0 l -1.111,1.27 -1.601,3.73 2.554,6.67 0.772,0.68 h 2.05 l 4.762,-4.67 2.574,-4.63 0.005,-2.11 -1.638,-4.69 -0.706,-0.6 -1.027,-0.13 -3.022,0.13 -2.976,2.87 m -7.006,128.96 v 0 l 2.954,1.88 2.112,0.01 5.619,-2.58 5.827,-5.19 2.507,6.79 1.465,-1.42 0.53,0.33 -0.349,-2.33 0.695,-0.94 0.134,-4.02 -2.045,-8.47 -2.097,0.07 -3.552,7.07 -4.108,4.11 -4.63,2.57 -2.077,-0.01 -0.724,-0.63 -1.613,-3.66 1.697,-8.26 2.147,-4.8 -0.142,-4.03 -1.37,-0.31 -0.453,0.34 -1.27,1.28 -3.735,11.73 0.124,7.04 m 76.904,-252.07 v 0 l -0.886,0.99 0.002,1.06 4.13,4.29 4.952,9.83 2.618,12.85 -2.335,9.38 -3.235,7.3 -5.105,5.11 -4.878,2.96 3.188,1.59 6.691,-3.55 1.101,-1.1 2.964,-3.97 4.736,-11.73 -0.118,-13.05 -2.532,-7.64 -3.049,-5.99 -5.001,-7 -1.758,-1.65 m -3.029,31.7 v 0 l -1.314,-1.15 -6.883,-3.46 0.684,-1.75 10e-4,-16.99 -1.992,-5.44 -1.123,0.04 -1.693,2.36 0.621,1.03 -0.599,1 0.785,2 -0.143,16.03 -1.37,0.31 -0.946,-0.69 -3.054,0.01 -0.441,1.34 0.785,1.79 4.074,2.57 -1.747,12.63 1.625,4.76 1.704,1.59 1.328,-0.33 -0.599,-1.01 0.651,-0.97 0.132,-2.03 -0.824,-2.04 1.931,-10.31 0.7,-0.99 9.681,3.67 0.378,-2.36 -1.325,-1.33 m -104.383,209.28 v 0 l -0.012,2.14 1.736,6.03 1.846,3.59 8.098,8.1 6.662,4.56 1.328,-0.34 -1.599,-2 0.598,-1 -0.299,-0.48 -11.785,-11.83 -1.578,-2.64 -0.123,-1.06 0.12,-8.05 4.579,-9.63 5.573,-8.62 3.576,-6.64 -0.335,-2.39 -2.053,-0.01 -1.763,1.67 -2.424,4.36 -4.574,6.63 -5.848,11.6 m 7.446,-122.69 v 0 l 0.54,-1.2 v -2.05 l -1.325,-1.32 h -2.052 l -2.284,2.13 -2.38,1.43 -9.315,9.09 -0.464,-1.3 0.954,-3 -0.117,-4.06 -2.861,-9.37 -1.538,0.09 -0.453,2.34 0.968,3 0.015,10 -0.147,2.03 -0.704,0.94 -0.133,1.03 0.133,5.03 1.324,1.31 1.509,-0.34 13.491,-13.34 1.35,0.36 -2.688,5.92 -0.118,2.06 0.456,1.34 2.024,0.14 1.486,-0.48 1.828,-1.79 13.668,-9.53 0.506,1.32 -0.122,6.05 -3.724,7.9 -0.122,4.05 0.482,1.3 2.812,-2.64 3.945,-8.65 1.609,-7.07 -1.646,-5.7 -1.722,-0.72 -3.05,0.12 -4.63,2.57 -6.049,4.98 m 30.388,11.82 v 0 l 1.368,-0.35 0.319,0.31 0.02,3.08 -3.147,5.15 -1.553,-2.2 m 41.338,443.7 -0.974,0.65 -2.019,0.13 -12.003,-1.96 -1.34,0.45 -0.005,1.05 0.636,0.74 m 27.183,-322.74 v 0 l 5.307,-5.33 1.692,-2.66 4.525,-4.55 0.028,-1.81 -4.758,1.58 -2.938,1.94 -1.549,2.5 -4.537,4.51 -4.46,-8.88 -1.762,-1.67 -2.369,0.32 -0.008,2.06 2.106,2.26 3.491,11.42 0.731,0.64 h 2.049 m 11.929,-128.7 v 0 l 6.014,-3.97 0.539,0.35 0.947,2.16 1.848,13 1.33,-0.76 1.728,-2.38 10e-4,-9.1 -2.613,-5.67 -1.267,-1.28 -1.486,-0.48 -2.05,0.12 -6.664,4.55 -2.208,-5.67 -1.104,0.13 -1.755,1.66 -1.693,2.66 -5.527,5.33 -0.464,-1.3 0.954,-3 -0.134,-10.03 -1.324,-1.31 -2.027,0.87 0.485,2.47 10e-4,5.99 -1.826,11.97 1.865,2.04 h 0.95 l 3.525,-3.52 0.573,-1.11 3.163,-2.57 2.197,3.68 1.096,-0.13 m -108.55,194.61 v 0 l -2.731,7.76 -1.963,2.97 -4.304,4.31 -1.509,0.34 -1.324,-1.31 -0.046,-7.66 2.922,-2.4 1.691,-2.66 2.06,-2.06 3.666,-1.61 1.089,0.03 m 51.991,-189.38 v 0 l -0.026,-0.59 m 64.704,124.61 v 0 l 2.247,2.05 2.08,-0.01 4.762,-4.67 6.047,-11.98 2.651,-8.71 -0.119,-4.05 -1.66,-4.89 -3.919,-7.73 -4.098,-4.11 -4.663,-3.55 -1.507,0.34 -0.843,1.03 1.798,2.94 5.313,4.35 5.577,11.62 0.121,4.05 -1.779,5.96 -5.919,11.73 m -230.079,-2.66 v 0 l 0.593,-0.03 m 192.244,-215.01 v 0 l -1.26,1.25 -1.656,6.71 -0.114,4.06 0.455,1.33 1.82,-0.65 2.574,-5.62 -0.014,-6.09 -1.356,-1.27 m -7.516,97.27 v 0 l -0.808,2.06 1.579,3.17 1.196,-0.71 3.919,-13.43 -0.014,-3.09 -1.349,-1.27 -0.75,0.58 -3.618,9.66 m -4.988,130.98 v 0 l -0.13,4.08 0.486,1.36 1.991,-1.94 0.706,-1.48 4.664,-15.88 -0.361,-1.54 -0.975,-0.86 -1.745,0.58 m -93.548,-160.46 v 0 l -7.419,3.43 -4.104,4.11 -3.574,6.63 -0.003,11.11 3.578,7.62 3.003,4.01 4.095,4.09 5.964,4.03 3.667,1.56 3.082,-0.03 -0.026,-0.71 -2.331,-2.44 -5.356,-3.41 -7.095,-7.09 -4.578,-7.64 v -11.1 l 2.574,-4.63 3.104,-3.11 7.656,-3.7 0.371,-2.54 -1.34,-0.44 m -13.648,145.48 v 0 l -0.637,-0.76 -7.661,-3.61 h -1.112 l -2.754,1.7 -1.897,3.71 -1.779,5.96 0.12,11.05 1.616,3.66 2.966,3.49 0.786,-0.51 1.003,0.6 0.463,-1.3 -2.834,-5.94 -0.12,-1.07 0.12,-11.05 1.595,-3.66 1.722,-1.75 4.434,1.93 -0.386,1.02 -4.365,3.89 0.366,1.11 0.974,0.87 h 2.052 l 3.64,-2.54 1.696,-2.76 m 187.275,-83.12 v 0 l -0.989,2.04 -10e-4,2.06 0.652,0.97 -0.6,1.01 1.328,0.33 1.722,-1.62 2.234,-5.15 6.84,-11.84 2.943,-8.69 1.72,-7.05 -0.121,-7.05 -2.614,-6.66 -5.062,-5.07 -2.635,-1.57 -1.056,-0.11 -1.341,0.44 -0.008,2.05 3.041,2.2 3.833,3.81 1.839,2.92 0.124,10.04 -1.833,7.1 -1.836,4.67 m -179.108,191.26 v 0 l 0.593,-0.03 m 155.429,-197.21 v 0 l -3.724,1.71 -8.641,6.08 -3.717,4.4 0.008,2.06 1.975,0.37 5.678,-6.19 4,-2.99 3.099,-1.65 2.337,9.62 1.619,-3.13 0.12,-8.06 -1.005,-2 m -25.878,439.64 -1.605,-2.94 -1.349,1.27 -0.133,1.03 v 6 M 13.4781,1402.21 v 0 l 0.0264,0.59 m 387.9735,26.41 v 0 l 0.027,0.59"
     id="path6" />
</g>
</svg>
